<svg xmlns="http://www.w3.org/2000/svg" fill="none" viewBox="0 0 102 188"><g clip-path="url(#clip0_2_7391)"><path fill="#000" d="M12.773 66.926a5.713 5.713 0 0 1-4.956-2.866 23.104 23.104 0 0 1-2.733-7.521 68.896 68.896 0 0 1-1.167-9.347c-.273-3.907-.419-8.288-.419-12.999 0-11.647.73-19.935 2.15-24.645 1.513-5.039 3.973-7.595 7.289-7.595a5.22 5.22 0 0 1 4.081 1.826 12.787 12.787 0 0 1 2.35 4.272 35.21 35.21 0 0 1 1.35 5.258c.367 2.103.628 4.223.783 6.353.382 4.564.583 9.383.583 14.312 0 11.1-.638 19.37-1.822 24.555-1.476 5.568-3.954 8.397-7.49 8.397Zm0-51.865s-.674.438-1.13 3.487a128.242 128.242 0 0 0-.62 15.682c-.125 5.273.1 10.548.675 15.791.473 2.94 1.057 3.45 1.148 3.505.27-.362.473-.77.601-1.204.51-1.785.81-3.623.893-5.477.2-2.593.291-6.682.291-12.14a122.076 122.076 0 0 0-.674-16.193c-.546-3.013-1.166-3.414-1.239-3.45h.055Z"/><path fill="#000" d="M12.937 2.866a4.348 4.348 0 0 1 3.407 1.515 11.837 11.837 0 0 1 2.059 3.962 34.746 34.746 0 0 1 1.33 5.13c.328 1.825.583 3.87.784 6.262.364 4.564.564 9.31.564 14.24 0 11.075-.607 19.186-1.822 24.335-1.214 5.148-3.377 7.716-6.486 7.704a4.822 4.822 0 0 1-4.191-2.465 21.934 21.934 0 0 1-2.606-7.23 67.766 67.766 0 0 1-1.148-9.237c-.273-3.888-.419-8.215-.419-12.925 0-11.61.699-19.735 2.096-24.372 1.403-4.637 3.553-6.955 6.413-6.955l.019.036Zm-.182 51.628c.583 0 1.074-.602 1.494-1.825.55-1.859.868-3.778.947-5.715.194-2.616.292-6.687.292-12.213a120.139 120.139 0 0 0-.73-16.394c-.455-2.793-1.147-4.199-2.076-4.199-.93 0-1.622 1.424-2.041 4.272a130.18 130.18 0 0 0-.62 15.81c-.122 5.322.11 10.646.693 15.937.455 2.848 1.13 4.272 2.004 4.272l.037.055Zm.182-53.453c-3.754 0-6.487 2.774-8.145 8.251-1.476 4.856-2.186 12.999-2.186 24.901 0 4.729.145 9.128.419 13.053a67.82 67.82 0 0 0 1.184 9.494 23.762 23.762 0 0 0 2.86 7.813 6.638 6.638 0 0 0 5.722 3.286c4.008 0 6.778-3.067 8.272-9.128 1.294-5.33 1.932-13.436 1.932-24.773 0-4.966-.2-9.804-.583-14.386a64.648 64.648 0 0 0-.802-6.444c-.318-1.86-.78-3.69-1.385-5.477a13.627 13.627 0 0 0-2.514-4.564 6.214 6.214 0 0 0-4.774-2.026Zm-.128 50.094c-.1-.415-.18-.836-.237-1.26a116.253 116.253 0 0 1-.674-15.645c-.11-5.186.091-10.374.601-15.536 0-.566.183-1.004.256-1.387.09.365.182.803.273 1.332.566 5.33.785 10.69.656 16.047 0 5.477 0 9.53-.292 12.068a31.65 31.65 0 0 1-.583 4.381ZM35.44 66.926a6.312 6.312 0 0 1-5.12-2.282 16.718 16.718 0 0 1-2.807-6.079 58.521 58.521 0 0 1-1.64-9.62.951.951 0 0 1 .584-.95l5.684-2.246c.11-.017.22-.017.328 0a.873.873 0 0 1 .911.84c.065 2.32.401 4.624 1.003 6.864.364 1.005.728 1.37.929 1.37.2 0 .583-.347 1.038-1.826.542-2.091.787-4.248.73-6.408a22.313 22.313 0 0 0-.693-6.298c-.346-1.059-.765-1.698-1.13-1.698 0 0-.346 0-1.257.785a.892.892 0 0 1-.583.22.984.984 0 0 1-.4 0 .912.912 0 0 1-.511-.859l.291-12.122a.914.914 0 0 1 .42-.748c.149-.087.319-.131.492-.128a.818.818 0 0 1 .364 0l.383.128c.218 0 .6-.402 1.002-1.515.488-1.528.722-3.125.692-4.729a13.571 13.571 0 0 0-.51-4.18c-.237-.712-.51-1.041-.674-1.041-.164 0-.438.255-.784 1.205a25.606 25.606 0 0 0-.802 6.097.878.878 0 0 1-.455.749.982.982 0 0 1-.456.11 1.075 1.075 0 0 1-.419-.092l-5.466-2.884a.911.911 0 0 1-.492-.877 37.286 37.286 0 0 1 2.66-12.067 6.827 6.827 0 0 1 2.401-3.273 6.806 6.806 0 0 1 3.83-1.327 6.933 6.933 0 0 1 4.196 1.363c1.213.9 2.1 2.17 2.528 3.62a31.567 31.567 0 0 1 1.822 11.557 33.843 33.843 0 0 1-.747 7.302 20.787 20.787 0 0 1-1.822 5.221 6.77 6.77 0 0 1 1.44 1.826 17.439 17.439 0 0 1 1.676 5.203 42.3 42.3 0 0 1 .583 7.485 55.254 55.254 0 0 1-.947 10.406 21.678 21.678 0 0 1-2.843 7.868 6.22 6.22 0 0 1-5.43 3.03Z"/><path fill="#000" d="M35.057 2.866a6.06 6.06 0 0 1 3.652 1.25 6.08 6.08 0 0 1 2.16 3.205 30.468 30.468 0 0 1 1.822 11.209 33.128 33.128 0 0 1-.729 7.156 18.772 18.772 0 0 1-2.204 5.623 6.203 6.203 0 0 1 1.822 2.045 17.33 17.33 0 0 1 1.585 4.947c.41 2.412.6 4.856.565 7.302.011 3.43-.3 6.853-.93 10.224a20.764 20.764 0 0 1-2.696 7.54 5.344 5.344 0 0 1-4.628 2.647 5.458 5.458 0 0 1-4.41-1.954 15.55 15.55 0 0 1-2.66-5.732 58.919 58.919 0 0 1-1.603-9.475l5.685-2.245c.07 2.4.424 4.784 1.056 7.101.456 1.314 1.057 1.972 1.823 1.972.765 0 1.403-.84 1.913-2.501.573-2.173.83-4.417.765-6.664a22.715 22.715 0 0 0-.747-6.572c-.474-1.57-1.148-2.337-1.986-2.337a3.351 3.351 0 0 0-1.822 1.004l.291-12.122c.236.111.488.18.747.201.73 0 1.367-.712 1.822-2.117.527-1.627.78-3.33.748-5.04a14.21 14.21 0 0 0-.565-4.472c-.365-1.095-.875-1.661-1.53-1.661-.657 0-1.222.602-1.64 1.825a26.796 26.796 0 0 0-.857 6.354l-5.466-2.867A36.206 36.206 0 0 1 29.663 7.03a5.896 5.896 0 0 1 2.082-2.92 5.878 5.878 0 0 1 3.385-1.17l-.073-.073Zm.073-1.752c-2.114 0-5.066.894-7.052 5.13a37.485 37.485 0 0 0-2.751 12.359 1.829 1.829 0 0 0 .966 1.825l5.466 2.885c.267.128.56.197.856.2.32.003.634-.079.911-.237a1.825 1.825 0 0 0 .911-1.497c.036-1.842.25-3.676.638-5.476.226 1.092.33 2.207.31 3.322a13.826 13.826 0 0 1-.638 4.436c-.096.264-.212.52-.346.767a1.822 1.822 0 0 0-.547 0 1.82 1.82 0 0 0-.984.274 1.825 1.825 0 0 0-.838 1.497l-.291 12.122a1.827 1.827 0 0 0 1.038 1.698c.245.118.512.18.784.182a1.82 1.82 0 0 0 1.184-.438 5.11 5.11 0 0 1 .529-.42c.165.287.293.594.382.913.508 1.966.729 3.995.656 6.025a21.743 21.743 0 0 1-.692 6.134 4.907 4.907 0 0 1-.2.566.456.456 0 0 0 0-.128 27.086 27.086 0 0 1-.948-6.609 1.83 1.83 0 0 0-.838-1.424 1.82 1.82 0 0 0-.984-.274 1.674 1.674 0 0 0-.656.128l-5.886 2.118a1.823 1.823 0 0 0-1.148 1.825c.276 3.303.831 6.576 1.659 9.785a16.957 16.957 0 0 0 3.006 6.39A7.453 7.453 0 0 0 35.81 67.8a7.442 7.442 0 0 0 5.77-3.428 22.19 22.19 0 0 0 2.97-8.216c.65-3.485.974-7.024.966-10.57a42.268 42.268 0 0 0-.602-7.65 18.063 18.063 0 0 0-1.822-5.476 7.667 7.667 0 0 0-1.13-1.552 21.3 21.3 0 0 0 1.677-4.837c.538-2.483.801-5.018.783-7.558.11-4.049-.546-8.08-1.931-11.885a7.796 7.796 0 0 0-2.81-4.055 7.77 7.77 0 0 0-4.679-1.55l.128.092ZM48.303 66.926a.875.875 0 0 1-.656-.292.896.896 0 0 1-.255-.694l5.12-63.147a.914.914 0 0 1 .911-.84h2.916a.872.872 0 0 1 .656.292.822.822 0 0 1 .236.694l-5.138 63.148a.914.914 0 0 1-.91.84h-2.88Z"/><path fill="#000" d="M56.339 2.866 51.2 66.014h-2.878l5.12-63.148h2.915-.018Zm.018-1.825h-2.915a1.82 1.82 0 0 0-1.822 1.68l-5.102 63.147a1.828 1.828 0 0 0 .474 1.387 1.823 1.823 0 0 0 1.33.584H51.2a1.82 1.82 0 0 0 1.823-1.68L58.16 3.013a1.829 1.829 0 0 0-.474-1.387 1.822 1.822 0 0 0-1.33-.584ZM68 65.886a.91.91 0 0 1-.911-.913V28.187a20.248 20.248 0 0 1-1.039 1.716 21.237 21.237 0 0 1-3.425 3.925.928.928 0 0 1-.601.238.984.984 0 0 1-.383-.092.893.893 0 0 1-.529-.821V19.242a.879.879 0 0 1 .274-.657 18.624 18.624 0 0 0 4.391-6.408 42.363 42.363 0 0 0 2.46-9.457.932.932 0 0 1 .91-.767h4.702a.91.91 0 0 1 .91.913v62.07a.913.913 0 0 1-.91.913l-5.85.037Z"/><path fill="#000" d="M73.758 2.866v62.07H68V24.28a35.609 35.609 0 0 1-2.697 5.112 20.724 20.724 0 0 1-3.28 3.76v-13.91a19.281 19.281 0 0 0 4.501-6.737 44.103 44.103 0 0 0 2.533-9.657h4.7v.018Zm0-1.844h-4.701a1.82 1.82 0 0 0-1.822 1.534 41.56 41.56 0 0 1-2.405 9.256 17.29 17.29 0 0 1-4.082 6.17 1.827 1.827 0 0 0-.546 1.333v13.91a1.828 1.828 0 0 0 1.822 1.826 1.82 1.82 0 0 0 1.22-.474 25.05 25.05 0 0 0 2.934-3.195v33.591A1.827 1.827 0 0 0 68 66.799h5.758a1.82 1.82 0 0 0 1.822-1.826V2.903a1.827 1.827 0 0 0-1.822-1.826v-.055ZM91.778 66.926a6.424 6.424 0 0 1-4.045-1.332A10.15 10.15 0 0 1 85 61.833a28.604 28.604 0 0 1-1.695-5.33A63.464 63.464 0 0 1 82.25 49.2a.914.914 0 0 1 .62-.968l5.757-1.825a.727.727 0 0 1 .273 0c.189 0 .373.058.529.164a.858.858 0 0 1 .382.712c.046 2.034.358 4.054.93 6.006.455 1.26.856 1.534.984 1.534.127 0 .6-.365 1.075-2.027.584-2.542.835-5.15.746-7.758a29.074 29.074 0 0 0-.746-7.741c-.42-1.387-.912-1.826-1.203-1.826-.292 0-.456.22-.838.804-.508.92-.894 1.901-1.148 2.92a.895.895 0 0 1-.492.566.692.692 0 0 1-.383 0 .87.87 0 0 1-.364 0l-4.847-2.08a.93.93 0 0 1-.546-.895L84.8 3.925a.913.913 0 0 1 .91-.858h13.52a.91.91 0 0 1 .911.913v13.546a.93.93 0 0 1-.91.913h-8.31l-.309 5.732.31-.237a4.077 4.077 0 0 1 2.368-.84c2.46 0 4.428 2.081 5.85 6.17a44.546 44.546 0 0 1 1.967 14.24 65.628 65.628 0 0 1-1.002 11.538 24.567 24.567 0 0 1-2.934 8.58 6.204 6.204 0 0 1-5.393 3.304Z"/><path fill="#000" d="M99.212 3.907v13.546h-9.11l-.492 9.128a8.449 8.449 0 0 1 1.822-2.008 3.185 3.185 0 0 1 1.822-.676c2.04 0 3.644 1.826 4.974 5.477a43.215 43.215 0 0 1 1.932 13.947c.005 3.814-.33 7.62-1.002 11.374a23.984 23.984 0 0 1-2.788 8.343 5.346 5.346 0 0 1-4.628 2.866 5.46 5.46 0 0 1-3.48-1.15 8.833 8.833 0 0 1-2.442-3.304 26.689 26.689 0 0 1-1.64-5.149 65.31 65.31 0 0 1-1.057-7.156l5.758-1.826c.042 2.129.373 4.242.984 6.28.51 1.425 1.13 2.137 1.822 2.137.692 0 1.44-.895 1.95-2.684.615-2.625.878-5.32.783-8.014a29.15 29.15 0 0 0-.784-7.997c-.528-1.697-1.22-2.555-2.076-2.555-.547 0-1.094.42-1.604 1.223a13.103 13.103 0 0 0-1.257 3.158l-4.847-2.081 1.822-32.861h13.52l.018-.018Zm-.018-1.808h-13.52a1.82 1.82 0 0 0-1.822 1.716L82.03 36.676a1.83 1.83 0 0 0 1.111 1.826l4.847 2.081c.225.096.466.146.71.146.27 0 .537-.056.784-.164a1.823 1.823 0 0 0 .966-1.132c.23-.941.58-1.849 1.039-2.702.154.296.276.608.364.931.573 2.445.812 4.957.71 7.467a29.007 29.007 0 0 1-.71 7.503c-.06.235-.133.467-.219.694l-.109-.256a21.945 21.945 0 0 1-.875-5.75 1.828 1.828 0 0 0-1.822-1.735c-.185.002-.37.033-.546.091l-5.776 1.826a1.823 1.823 0 0 0-1.24 1.917c.221 2.452.58 4.89 1.076 7.302a29.018 29.018 0 0 0 1.822 5.477 10.771 10.771 0 0 0 2.988 4.108 7.28 7.28 0 0 0 4.61 1.533 7.096 7.096 0 0 0 6.177-3.651 25.842 25.842 0 0 0 3.043-8.982A65.962 65.962 0 0 0 102 43.504a45.455 45.455 0 0 0-2.022-14.605c-1.55-4.49-3.809-6.773-6.706-6.773a4.894 4.894 0 0 0-1.676.329l.164-3.158h7.434a1.826 1.826 0 0 0 1.822-1.826V3.907a1.826 1.826 0 0 0-1.822-1.826V2.1ZM12.773 187.087a5.693 5.693 0 0 1-4.956-2.884 22.985 22.985 0 0 1-2.733-7.503c-.6-3.086-.99-6.209-1.167-9.348-.273-3.925-.419-8.306-.419-12.998 0-11.647.73-19.935 2.15-24.645 1.513-5.039 3.973-7.595 7.289-7.595a5.149 5.149 0 0 1 4.081 1.826 12.787 12.787 0 0 1 2.35 4.253 37.297 37.297 0 0 1 1.35 5.276c.369 2.103.63 4.224.783 6.353.382 4.564.583 9.384.583 14.313 0 11.1-.638 19.351-1.822 24.554-1.476 5.569-3.954 8.398-7.49 8.398Zm0-51.865s-.674.438-1.13 3.487a127.843 127.843 0 0 0-.62 15.682c-.116 5.273.11 10.548.675 15.791.492 2.939 1.057 3.432 1.148 3.505.27-.362.473-.77.601-1.205a23.05 23.05 0 0 0 .893-5.476c.2-2.574.291-6.664.291-12.141.135-5.406-.09-10.816-.674-16.193-.546-3.012-1.166-3.413-1.239-3.45h.055Z"/><path fill="#000" d="M12.937 123.027a4.294 4.294 0 0 1 3.407 1.515 12.186 12.186 0 0 1 2.168 3.962c.56 1.67.998 3.378 1.312 5.111.328 1.826.583 3.889.784 6.281.376 4.539.565 9.286.565 14.239 0 11.088-.608 19.199-1.822 24.335-1.276 5.13-3.426 7.704-6.505 7.704a4.82 4.82 0 0 1-4.191-2.464 22.047 22.047 0 0 1-2.606-7.211 67.065 67.065 0 0 1-1.148-9.22c-.267-3.906-.407-8.215-.419-12.925 0-11.611.699-19.734 2.096-24.371 1.403-4.637 3.553-6.956 6.413-6.956h-.054Zm-.11 51.555c.584 0 1.075-.603 1.495-1.826.55-1.864.868-3.79.947-5.732.194-2.592.292-6.657.292-12.195a120.717 120.717 0 0 0-.693-16.43c-.455-2.775-1.148-4.181-2.059-4.181-.91 0-1.64 1.424-2.059 4.272a130.167 130.167 0 0 0-.62 15.809c-.122 5.322.11 10.647.693 15.938.456 2.848 1.13 4.254 2.005 4.254v.091Zm.165-53.472c-3.754 0-6.487 2.775-8.145 8.252-1.476 4.856-2.187 12.998-2.187 24.901 0 4.728.146 9.128.42 13.053a70.68 70.68 0 0 0 1.184 9.493 23.434 23.434 0 0 0 2.879 7.814 6.638 6.638 0 0 0 5.703 3.286c4.008 0 6.796-3.067 8.272-9.128 1.294-5.331 1.931-13.437 1.931-24.774 0-4.965-.2-9.803-.583-14.404a64.199 64.199 0 0 0-.802-6.426 36.06 36.06 0 0 0-1.384-5.476 13.61 13.61 0 0 0-2.515-4.564 6.129 6.129 0 0 0-4.774-2.136v.109Zm-.201 50.222c0-.365-.164-.766-.237-1.259a116.44 116.44 0 0 1-.674-15.646c-.11-5.186.091-10.374.601-15.536 0-.565.183-1.022.255-1.387.091.365.182.803.274 1.333.566 5.329.785 10.689.656 16.047 0 5.476 0 9.511-.292 12.067a31.65 31.65 0 0 1-.583 4.381ZM36.733 186.047a.912.912 0 0 1-.911-.913v-10.497h-9.475a.93.93 0 0 1-.91-.913v-13.966a1.067 1.067 0 0 1 0-.237l10.367-36.75a.952.952 0 0 1 .893-.657h4.956a.913.913 0 0 1 .911.913v36.621h1.658a.911.911 0 0 1 .91.913v13.163a.912.912 0 0 1-.91.913h-1.658v10.497a.913.913 0 0 1-.911.913h-4.92Zm-.911-26.399v-11.793l-3.37 11.793h3.37Z"/><path fill="#000" d="M41.69 123.027v37.534h2.568v13.163H41.69v11.41h-4.974v-11.41H26.347v-13.966l10.368-36.731h4.974Zm-10.441 37.534h5.466v-19.223l-5.466 19.223Zm10.44-39.36h-4.974a1.823 1.823 0 0 0-1.822 1.315l-10.368 36.749a2.308 2.308 0 0 0 0 .493v13.966a1.821 1.821 0 0 0 1.822 1.825h8.546v9.585a1.821 1.821 0 0 0 1.822 1.825h4.974a1.821 1.821 0 0 0 1.822-1.825v-9.585h.747a1.821 1.821 0 0 0 1.822-1.825v-13.163a1.821 1.821 0 0 0-1.822-1.825h-.747v-35.709a1.827 1.827 0 0 0-1.822-1.826Zm-8.035 37.535 1.239-4.364v4.364h-1.24ZM48.303 187.087a.871.871 0 0 1-.656-.292.904.904 0 0 1-.255-.694l5.12-63.147a.916.916 0 0 1 .911-.84h2.916a.873.873 0 0 1 .656.292.83.83 0 0 1 .236.694l-5.138 63.147a.913.913 0 0 1-.91.84h-2.88Z"/><path fill="#000" d="M56.339 123.027 51.2 186.174h-2.878l5.12-63.147h2.915-.018Zm.018-1.826h-2.915a1.824 1.824 0 0 0-1.822 1.68l-5.102 63.147a1.83 1.83 0 0 0 .474 1.388 1.821 1.821 0 0 0 1.33.584H51.2a1.824 1.824 0 0 0 1.823-1.68l5.138-63.147a1.83 1.83 0 0 0-1.09-1.82 1.829 1.829 0 0 0-.732-.152h.018ZM69.421 187.087a6.255 6.255 0 0 1-5.102-2.3 16.317 16.317 0 0 1-2.842-6.061 60.468 60.468 0 0 1-1.622-9.621.934.934 0 0 1 .565-.949l5.703-2.246c.109-.017.22-.017.328 0a.864.864 0 0 1 .63.231.878.878 0 0 1 .281.609c.061 2.319.391 4.622.984 6.864.364 1.004.729 1.369.948 1.369.218 0 .565-.328 1.038-1.825.535-2.086.774-4.237.71-6.39a22.462 22.462 0 0 0-.692-6.316c-.328-1.059-.747-1.68-1.111-1.68 0 0-.346 0-1.257.785a.997.997 0 0 1-.602.201.88.88 0 0 1-.662-.262.88.88 0 0 1-.249-.669l.31-12.122a.915.915 0 0 1 .911-.895.97.97 0 0 1 .365 0l.382.128c.219 0 .62-.474.984-1.515.875-2.896.944-5.976.2-8.909-.254-.712-.528-1.041-.674-1.041-.145 0-.455.256-.783 1.205a25.603 25.603 0 0 0-.802 6.098.928.928 0 0 1-.455.748.977.977 0 0 1-.456.11.833.833 0 0 1-.419-.11l-5.466-2.866a.909.909 0 0 1-.474-.894 37.281 37.281 0 0 1 2.66-12.049 6.786 6.786 0 0 1 6.232-4.601c1.5.002 2.958.493 4.154 1.399a6.916 6.916 0 0 1 2.478 3.622 31.197 31.197 0 0 1 1.822 11.556 33.836 33.836 0 0 1-.747 7.302 19.727 19.727 0 0 1-1.822 5.203 6.914 6.914 0 0 1 1.458 1.826 18.544 18.544 0 0 1 1.676 5.203 42.16 42.16 0 0 1 .529 7.631 54.868 54.868 0 0 1-.966 10.387 21.666 21.666 0 0 1-2.824 7.887 6.232 6.232 0 0 1-5.32 2.957Z"/><path fill="#000" d="M68.984 123.027a6.039 6.039 0 0 1 3.644 1.252 6.063 6.063 0 0 1 2.15 3.202 30.109 30.109 0 0 1 1.822 11.21 32.004 32.004 0 0 1-.729 7.156 18.279 18.279 0 0 1-2.186 5.623 6.242 6.242 0 0 1 1.822 2.044 17.015 17.015 0 0 1 1.585 4.93c.4 2.413.589 4.856.565 7.302a53.334 53.334 0 0 1-.947 10.223 20.569 20.569 0 0 1-2.697 7.54 5.355 5.355 0 0 1-4.628 2.647 5.463 5.463 0 0 1-4.41-1.953 15.713 15.713 0 0 1-2.642-5.733 55.106 55.106 0 0 1-1.603-9.474l5.685-2.246a29.74 29.74 0 0 0 1.038 7.102c.474 1.314 1.081 1.971 1.822 1.971.766 0 1.403-.84 1.822-2.501.574-2.173.831-4.417.766-6.663a23.045 23.045 0 0 0-.729-6.591c-.492-1.551-1.148-2.318-1.986-2.318a3.387 3.387 0 0 0-1.822.986l.291-12.122c.233.121.486.195.747.219.748 0 1.367-.712 1.822-2.136a15.29 15.29 0 0 0 .748-5.039 14.627 14.627 0 0 0-.565-4.454c-.383-1.114-.893-1.662-1.53-1.662-.638 0-1.221.603-1.64 1.826a25.602 25.602 0 0 0-.857 6.353l-5.466-2.866a35.915 35.915 0 0 1 2.569-11.757 5.95 5.95 0 0 1 2.093-2.898 5.927 5.927 0 0 1 3.373-1.173h.073Zm-.073-1.826c-2.132 0-5.084.877-7.051 5.13a37.382 37.382 0 0 0-2.752 12.36 1.825 1.825 0 0 0 .966 1.825l5.466 2.866c.263.143.558.218.857.219.313-.001.62-.082.892-.237a1.818 1.818 0 0 0 .93-1.497c.024-1.843.238-3.678.637-5.477.226 1.087.33 2.195.31 3.305a13.167 13.167 0 0 1-.656 4.436 3.786 3.786 0 0 1-.346.785 1.728 1.728 0 0 0-.547 0 1.83 1.83 0 0 0-1.804 1.789l-.31 12.122a1.826 1.826 0 0 0 1.04 1.698c.247.106.513.162.783.164.432.005.852-.144 1.184-.42.237-.201.42-.328.547-.42.157.291.285.597.382.913a28.498 28.498 0 0 1 0 12.159l-.2.565v-.127a27.953 27.953 0 0 1-.93-6.609 1.822 1.822 0 0 0-.837-1.424 1.827 1.827 0 0 0-.984-.274 2.176 2.176 0 0 0-.674.11l-5.685 2.264a1.82 1.82 0 0 0-1.148 1.825 60.039 60.039 0 0 0 1.658 9.785 16.915 16.915 0 0 0 3.006 6.408 7.426 7.426 0 0 0 11.953-.84 22.276 22.276 0 0 0 2.988-8.197c.651-3.485.974-7.024.966-10.57a42.262 42.262 0 0 0-.601-7.649 18.552 18.552 0 0 0-1.822-5.477 7.602 7.602 0 0 0-1.112-1.552 22.2 22.2 0 0 0 1.677-4.837c.531-2.484.788-5.018.765-7.558a32.206 32.206 0 0 0-1.822-11.885 7.78 7.78 0 0 0-7.489-5.605l-.237-.073ZM91.742 187.087a5.665 5.665 0 0 1-4.938-2.884 23.36 23.36 0 0 1-2.751-7.503 71.987 71.987 0 0 1-1.167-9.348c-.273-3.906-.419-8.269-.419-12.998 0-11.647.73-19.935 2.15-24.645 1.531-5.039 3.973-7.595 7.289-7.595a5.215 5.215 0 0 1 4.081 1.826 13.097 13.097 0 0 1 2.332 4.253 35.005 35.005 0 0 1 1.367 5.276c.31 1.826.583 3.944.783 6.353.383 4.546.565 9.366.565 14.313 0 11.1-.637 19.37-1.822 24.554-1.44 5.569-3.936 8.398-7.47 8.398Zm0-51.865s-.693.438-1.148 3.487a131.671 131.671 0 0 0-.62 15.682 117.91 117.91 0 0 0 .693 15.791c.473 2.939 1.056 3.432 1.13 3.505.27-.365.48-.772.619-1.205.5-1.786.8-3.623.893-5.476.182-2.574.291-6.664.291-12.141a125.45 125.45 0 0 0-.674-16.193c-.528-3.012-1.166-3.414-1.22-3.45h.036Z"/><path fill="#000" d="M91.906 123.027a4.296 4.296 0 0 1 3.389 1.515 11.853 11.853 0 0 1 2.168 3.962 34.41 34.41 0 0 1 1.33 5.111c.31 1.826.565 3.889.765 6.28.39 4.54.583 9.287.583 14.24 0 11.088-.607 19.199-1.822 24.335-1.214 5.136-3.383 7.704-6.505 7.704a4.782 4.782 0 0 1-4.172-2.464 22.447 22.447 0 0 1-2.624-7.211 67.065 67.065 0 0 1-1.148-9.22c-.28-3.906-.419-8.215-.419-12.925 0-11.611.705-19.734 2.114-24.371 1.409-4.638 3.547-6.956 6.413-6.956h-.072Zm-.11 51.555c.583 0 1.094-.603 1.513-1.826.533-1.867.844-3.791.929-5.732.206-2.592.31-6.657.31-12.195a123.862 123.862 0 0 0-.693-16.43c-.455-2.775-1.148-4.181-2.077-4.181-.93 0-1.622 1.424-2.04 4.272a129.008 129.008 0 0 0-.638 15.809c-.123 5.322.109 10.647.692 15.938.474 2.848 1.13 4.254 2.004 4.254v.091Zm.182-53.472c-3.753 0-6.504 2.775-8.162 8.252-1.458 4.856-2.187 12.998-2.187 24.901 0 4.728.146 9.128.42 13.053a67.387 67.387 0 0 0 1.202 9.493 23.31 23.31 0 0 0 2.86 7.814 6.674 6.674 0 0 0 5.703 3.286c4.01 0 6.797-3.067 8.273-9.128 1.312-5.331 1.949-13.437 1.949-24.774 0-4.965-.2-9.803-.583-14.404-.2-2.428-.473-4.582-.801-6.426a38.428 38.428 0 0 0-1.385-5.476 13.636 13.636 0 0 0-2.533-4.564 6.094 6.094 0 0 0-4.756-2.136v.109Zm-.218 50.222c0-.365-.164-.766-.237-1.259a119.724 119.724 0 0 1-.674-15.646c-.107-5.186.1-10.374.62-15.536.057-.467.143-.93.254-1.387 0 .365.164.803.255 1.333.576 5.328.801 10.689.675 16.047 0 5.476-.11 9.511-.292 12.067a28.367 28.367 0 0 1-.601 4.381ZM94.165 76.821h-2.733a.912.912 0 0 0-.911.913v32.915c0 .505.408.913.91.913h2.734a.912.912 0 0 0 .911-.913V77.734a.912.912 0 0 0-.911-.913Z"/><path fill="#000" d="M94.165 77.734v32.861h-2.733V77.734h2.733Zm0-1.826h-2.733a1.82 1.82 0 0 0-1.822 1.826v32.861a1.821 1.821 0 0 0 1.822 1.825h2.733a1.821 1.821 0 0 0 1.822-1.825V77.734a1.827 1.827 0 0 0-1.822-1.826Z"/><path fill="#EEB033" d="M10.185 65.886a5.695 5.695 0 0 1-4.937-2.866 23.067 23.067 0 0 1-2.752-7.522 68.9 68.9 0 0 1-1.166-9.347c-.273-3.907-.419-8.27-.419-12.998 0-11.647.729-19.936 2.15-24.627C4.591 3.469 7.033.913 10.35.913a5.166 5.166 0 0 1 4.082 1.825 12.605 12.605 0 0 1 2.332 4.29 36.38 36.38 0 0 1 1.348 5.258c.328 1.826.602 3.962.802 6.353.383 4.583.565 9.402.565 14.331 0 11.1-.638 19.352-1.913 24.536-1.367 5.55-3.845 8.38-7.38 8.38Zm0-51.847s-.692.42-1.148 3.487a131.697 131.697 0 0 0-.619 15.663 122.24 122.24 0 0 0 .674 15.792c.492 2.939 1.057 3.45 1.148 3.505.27-.363.474-.77.601-1.205.52-1.782.82-3.621.893-5.477.2-2.592.31-6.663.31-12.14.13-5.407-.1-10.817-.692-16.193-.529-3.012-1.148-3.414-1.203-3.432h.036Z"/><path fill="#000" d="M10.331 1.826a4.311 4.311 0 0 1 3.408 1.533 11.891 11.891 0 0 1 2.168 3.943 34.63 34.63 0 0 1 1.312 5.13c.328 1.826.583 3.889.783 6.262.389 4.564.577 9.317.565 14.258 0 11.087-.607 19.193-1.822 24.317-1.257 5.148-3.426 7.704-6.505 7.704a4.785 4.785 0 0 1-4.173-2.446 21.77 21.77 0 0 1-2.623-7.303 67.431 67.431 0 0 1-1.148-9.219c-.28-3.907-.42-8.221-.42-12.943 0-11.611.705-19.735 2.114-24.372 1.41-4.637 3.541-6.956 6.396-6.956l-.055.092Zm-.11 51.481c.584 0 1.076-.602 1.513-1.825.533-1.868.845-3.792.93-5.733.194-2.616.297-6.687.31-12.213.13-5.456-.102-10.914-.693-16.339-.474-2.793-1.166-4.18-2.077-4.18S8.582 14.44 8.163 17.27a129.006 129.006 0 0 0-.638 15.81 120.19 120.19 0 0 0 .693 15.937c.455 2.848 1.13 4.272 2.004 4.272v.018ZM10.387-.11c-3.754 0-6.487 2.775-8.145 8.252C.765 12.998.055 21.14.055 33.043c0 4.747.145 9.128.419 13.072.175 3.182.577 6.349 1.202 9.474a23.305 23.305 0 0 0 2.861 7.814 6.62 6.62 0 0 0 5.703 3.286c4.009 0 6.796-3.049 8.272-9.128 1.294-5.33 1.932-13.436 1.932-24.755 0-4.966-.182-9.822-.583-14.404-.183-2.428-.456-4.6-.784-6.444a35.849 35.849 0 0 0-1.403-5.477 13.626 13.626 0 0 0-2.514-4.564 6.16 6.16 0 0 0-4.774-2.154v.127Zm-.128 50.095c0-.347-.164-.767-.236-1.26a116.067 116.067 0 0 1-.675-15.645c-.115-5.187.092-10.375.62-15.536 0-.548.164-1.004.237-1.37.085.342.176.78.273 1.315.574 5.329.8 10.69.674 16.047 0 5.477-.11 9.53-.31 12.067a30.794 30.794 0 0 1-.583 4.382Z"/><path fill="#EEB033" d="M32.852 65.886a6.33 6.33 0 0 1-5.12-2.264 16.755 16.755 0 0 1-2.824-6.06 57.171 57.171 0 0 1-1.622-9.64.896.896 0 0 1 .565-.931l5.685-2.246a.745.745 0 0 1 .346 0 .91.91 0 0 1 .474.146.894.894 0 0 1 .437.712c.059 2.313.39 4.611.984 6.846.365 1.023.729 1.37.93 1.37.2 0 .582-.329 1.038-1.826a22.33 22.33 0 0 0 .729-6.408 22.312 22.312 0 0 0-.693-6.298c-.328-1.059-.747-1.698-1.13-1.698 0 0-.346 0-1.257.785a.855.855 0 0 1-.583.22 1.072 1.072 0 0 1-.4 0 .949.949 0 0 1-.51-.84l.29-12.123a.933.933 0 0 1 .42-.748.964.964 0 0 1 .492-.146.818.818 0 0 1 .364 0c.119.066.249.11.383.128.219 0 .62-.384 1.002-1.516.489-1.527.722-3.124.693-4.728a13.35 13.35 0 0 0-.565-4.29c-.237-.73-.51-1.059-.674-1.059-.164 0-.438.256-.766 1.205a24.871 24.871 0 0 0-.801 6.098.914.914 0 0 1-.474.748.764.764 0 0 1-.438.128.91.91 0 0 1-.437-.11l-5.375-2.884a.876.876 0 0 1-.474-.877 36.68 36.68 0 0 1 2.66-12.048 6.79 6.79 0 0 1 2.385-3.285A6.77 6.77 0 0 1 32.415.913a6.915 6.915 0 0 1 4.167 1.404 6.937 6.937 0 0 1 2.483 3.634 31.09 31.09 0 0 1 1.823 11.538 34.125 34.125 0 0 1-.748 7.303 20.213 20.213 0 0 1-1.913 5.203 6.495 6.495 0 0 1 1.44 1.825 17.586 17.586 0 0 1 1.694 5.203c.41 2.467.598 4.966.565 7.467a55.254 55.254 0 0 1-.947 10.406c-.431 2.78-1.39 5.45-2.825 7.868a6.236 6.236 0 0 1-5.302 3.122Z"/><path fill="#000" d="M32.47 1.826a6.097 6.097 0 0 1 3.646 1.257 6.116 6.116 0 0 1 2.166 3.197 30.54 30.54 0 0 1 1.822 11.21 32.174 32.174 0 0 1-.729 7.174 19.448 19.448 0 0 1-2.186 5.623 6.293 6.293 0 0 1 1.822 2.026 16.27 16.27 0 0 1 1.585 4.947c.41 2.412.599 4.857.565 7.303a54.568 54.568 0 0 1-.93 10.223 20.763 20.763 0 0 1-2.696 7.54 5.325 5.325 0 0 1-4.628 2.647 5.458 5.458 0 0 1-4.41-1.953 15.42 15.42 0 0 1-2.66-5.733 58.212 58.212 0 0 1-1.603-9.475l5.703-2.245c.056 2.4.405 4.785 1.038 7.102.474 1.314 1.075 1.971 1.822 1.971.748 0 1.404-.821 1.823-2.483.572-2.179.83-4.429.765-6.681a22.824 22.824 0 0 0-.73-6.572c-.491-1.552-1.165-2.337-2.003-2.337a3.352 3.352 0 0 0-1.822 1.004l.291-12.122c.232.12.487.188.747.2.747 0 1.367-.693 1.822-2.117.535-1.624.788-3.329.747-5.039a14.632 14.632 0 0 0-.546-4.454c-.383-1.114-.893-1.68-1.549-1.68-.656 0-1.203.621-1.64 1.826a25.81 25.81 0 0 0-.838 6.353l-5.466-2.884a36.209 36.209 0 0 1 2.587-11.74 5.97 5.97 0 0 1 2.091-2.905 5.951 5.951 0 0 1 3.375-1.183h.018ZM32.45 0c-2.113 0-5.065.895-7.051 5.13a38.02 38.02 0 0 0-2.733 12.378 1.83 1.83 0 0 0 .947 1.825L29.08 22.2c.264.143.558.218.857.22a1.91 1.91 0 0 0 .893-.238 1.824 1.824 0 0 0 .929-1.497c.035-1.841.242-3.675.62-5.477.235 1.091.339 2.207.31 3.323a13.828 13.828 0 0 1-.639 4.436c-.089.273-.205.535-.346.785a1.436 1.436 0 0 0-.546 0 1.674 1.674 0 0 0-.966.292 1.824 1.824 0 0 0-.857 1.497l-.291 12.122a1.828 1.828 0 0 0 1.038 1.68c.244.122.512.184.784.182a1.82 1.82 0 0 0 1.184-.438c.173-.152.355-.293.547-.42.146.294.268.6.364.913a21.07 21.07 0 0 1 .656 6.024 21.744 21.744 0 0 1-.692 6.134c-.05.198-.111.393-.182.585v-.146a26.5 26.5 0 0 1-.93-6.59 1.829 1.829 0 0 0-.856-1.425 1.82 1.82 0 0 0-1.64-.164l-5.685 2.245a1.822 1.822 0 0 0-1.148 1.826c.276 3.303.831 6.576 1.659 9.785a17.047 17.047 0 0 0 3.006 6.408 7.453 7.453 0 0 0 6.188 2.599 7.442 7.442 0 0 0 5.765-3.439 22.19 22.19 0 0 0 2.97-8.215c.66-3.484.983-7.024.966-10.57a44.084 44.084 0 0 0-.583-7.631 18.281 18.281 0 0 0-1.823-5.477 6.717 6.717 0 0 0-1.13-1.57 21.164 21.164 0 0 0 1.695-4.82c.532-2.49.789-5.03.765-7.576A32.207 32.207 0 0 0 40.14 5.678a7.813 7.813 0 0 0-2.82-4.057A7.788 7.788 0 0 0 32.633.073L32.451 0Z"/><path fill="#EEB033" d="M45.734 65.886a.927.927 0 0 1-.868-.613.879.879 0 0 1-.043-.373l5.12-63.147a.895.895 0 0 1 .893-.84h2.915a.946.946 0 0 1 .675.292c.166.191.251.44.236.694l-5.156 63.147a.914.914 0 0 1-.911.84h-2.86Z"/><path fill="#000" d="m53.751 1.826-5.156 63.147h-2.86l5.12-63.147h2.915-.019ZM53.77 0h-2.916a1.82 1.82 0 0 0-1.822 1.68l-5.12 63.147a1.828 1.828 0 0 0 .474 1.387 1.823 1.823 0 0 0 1.33.585h2.879a1.82 1.82 0 0 0 1.822-1.68l5.138-63.147a1.829 1.829 0 0 0-.474-1.388A1.822 1.822 0 0 0 53.752 0h.019Z"/><path fill="#EEB033" d="M65.413 64.845a.91.91 0 0 1-.911-.913V27.11c-.318.583-.664 1.15-1.039 1.698a21.238 21.238 0 0 1-3.425 3.925.837.837 0 0 1-.602.237.818.818 0 0 1-.364 0 .893.893 0 0 1-.547-.84V18.201a.877.877 0 0 1 .273-.657 18.459 18.459 0 0 0 4.3-6.39 42.551 42.551 0 0 0 2.46-9.474.931.931 0 0 1 .911-.767h4.774a.91.91 0 0 1 .911.913v62.07a.914.914 0 0 1-.91.913l-5.831.036Z"/><path fill="#000" d="M71.243 1.826v62.07h-5.83V23.24a34.17 34.17 0 0 1-2.697 5.13 20.636 20.636 0 0 1-3.28 3.742v-13.91a19.5 19.5 0 0 0 4.519-6.7 43.355 43.355 0 0 0 2.514-9.676h4.774Zm0-1.826h-4.7a1.82 1.82 0 0 0-1.823 1.552 41.812 41.812 0 0 1-2.405 9.255 17.857 17.857 0 0 1-4.081 6.08 1.824 1.824 0 0 0-.565 1.314v13.911a1.827 1.827 0 0 0 1.822 1.826 1.82 1.82 0 0 0 1.22-.475 23.875 23.875 0 0 0 2.934-3.195v33.664a1.827 1.827 0 0 0 1.822 1.826h5.776a1.82 1.82 0 0 0 1.822-1.826V1.862A1.827 1.827 0 0 0 71.243.037V0Z"/><path fill="#EEB033" d="M89.19 65.886a6.351 6.351 0 0 1-4.044-1.333 9.785 9.785 0 0 1-2.715-3.76 26.525 26.525 0 0 1-1.713-5.331 63.444 63.444 0 0 1-1.057-7.303.914.914 0 0 1 .693-.967l5.757-1.826a.798.798 0 0 1 .292 0c.18.001.357.052.51.146a.93.93 0 0 1 .401.712c.026 2.036.339 4.058.93 6.006.437 1.26.837 1.534.965 1.534.127 0 .601-.365 1.093-2.027a30.27 30.27 0 0 0 .729-7.758 29.1 29.1 0 0 0-.729-7.723c-.437-1.405-.91-1.825-1.22-1.825-.31 0-.456.2-.82.785a12.1 12.1 0 0 0-1.167 2.939.914.914 0 0 1-.473.566.98.98 0 0 1-.401 0 .78.78 0 0 1-.346 0l-4.847-2.081a.911.911 0 0 1-.565-.877l1.822-32.86a.932.932 0 0 1 .911-.877h13.52a.91.91 0 0 1 .91.913v13.546a.914.914 0 0 1-.91.913h-8.29l-.31 5.732.31-.219a3.949 3.949 0 0 1 2.368-.84c2.46 0 4.446 2.063 5.85 6.153a44.17 44.17 0 0 1 1.93 14.185 65.458 65.458 0 0 1-1.002 11.52 25.098 25.098 0 0 1-2.915 8.67 6.258 6.258 0 0 1-5.466 3.286Z"/><path fill="#000" d="M96.625 2.866v13.546h-9.11l-.493 9.128a8.789 8.789 0 0 1 1.823-2.008 3.203 3.203 0 0 1 1.822-.657c2.04 0 3.644 1.825 4.992 5.477a43.398 43.398 0 0 1 1.913 13.965 64.13 64.13 0 0 1-.984 11.374 23.598 23.598 0 0 1-2.806 8.325 5.345 5.345 0 0 1-4.628 2.866 5.46 5.46 0 0 1-3.48-1.132 8.908 8.908 0 0 1-2.46-3.432 26.082 26.082 0 0 1-1.64-5.13 62.01 62.01 0 0 1-1.038-7.175l5.758-1.825a22.75 22.75 0 0 0 .965 6.261c.529 1.424 1.13 2.136 1.822 2.136.693 0 1.44-.894 1.968-2.683.6-2.627.857-5.321.766-8.015a29.266 29.266 0 0 0-.784-7.996c-.51-1.698-1.203-2.537-2.077-2.537-.547 0-1.075.401-1.585 1.205-.551.997-.98 2.057-1.276 3.158l-4.847-2.081L83.07 2.775h13.52l.036.091ZM96.588.95h-13.52a1.82 1.82 0 0 0-1.822 1.826l-1.822 32.86a1.828 1.828 0 0 0 1.112 1.826l4.847 2.081c.223.101.466.151.71.146.27 0 .537-.055.784-.164a1.823 1.823 0 0 0 .965-1.132 11.08 11.08 0 0 1 1.039-2.683c0 .2.219.51.365.93.554 2.449.787 4.959.692 7.467a30.036 30.036 0 0 1-.692 7.504c-.092.292-.164.51-.237.712a1.605 1.605 0 0 1 0-.274 21.164 21.164 0 0 1-.875-5.75 1.828 1.828 0 0 0-.802-1.407 1.82 1.82 0 0 0-1.02-.31 1.93 1.93 0 0 0-.565 0l-5.758 1.826a1.822 1.822 0 0 0-1.257 1.917c.23 2.451.588 4.889 1.075 7.302a28.588 28.588 0 0 0 1.822 5.477 10.807 10.807 0 0 0 2.988 4.107 7.279 7.279 0 0 0 4.61 1.534 7.094 7.094 0 0 0 3.582-.988 7.113 7.113 0 0 0 2.595-2.663 25.446 25.446 0 0 0 3.043-8.982 65.851 65.851 0 0 0 1.02-11.684 44.934 44.934 0 0 0-2.022-14.605c-1.549-4.49-3.808-6.773-6.705-6.773a4.495 4.495 0 0 0-1.677.329l.164-3.177h7.434a1.82 1.82 0 0 0 1.822-1.825V2.866a1.827 1.827 0 0 0-1.822-1.825l-.073-.092Z"/><path fill="#EEB033" d="M10.185 186.047a5.705 5.705 0 0 1-4.937-2.867 23.064 23.064 0 0 1-2.752-7.521 68.884 68.884 0 0 1-1.166-9.347c-.273-3.925-.419-8.288-.419-12.998 0-11.648.729-19.936 2.15-24.628 1.53-5.057 3.972-7.612 7.288-7.612a5.253 5.253 0 0 1 4.082 1.825 13.216 13.216 0 0 1 2.332 4.272 34.167 34.167 0 0 1 1.367 5.258c.31 1.825.583 3.943.783 6.353.383 4.564.565 9.383.565 14.313 0 11.099-.638 19.369-1.913 24.554-1.367 5.568-3.845 8.398-7.38 8.398Zm0-51.866s-.692.439-1.148 3.506a131.191 131.191 0 0 0-.619 15.663 117.93 117.93 0 0 0 .692 15.792c.474 2.939 1.057 3.45 1.13 3.505.273-.364.483-.771.62-1.205.501-1.786.795-3.624.874-5.477.2-2.574.31-6.645.31-12.14.132-5.407-.1-10.817-.692-16.193-.529-2.994-1.148-3.414-1.203-3.451h.036Z"/><path fill="#000" d="M10.35 122.041a4.35 4.35 0 0 1 3.389 1.515 11.855 11.855 0 0 1 2.168 3.962 34.635 34.635 0 0 1 1.312 5.13c.328 1.825.583 3.87.783 6.262.389 4.564.577 9.31.565 14.239 0 11.076-.607 19.187-1.822 24.336-1.215 5.148-3.383 7.716-6.505 7.704a4.776 4.776 0 0 1-4.173-2.465 21.932 21.932 0 0 1-2.623-7.193 67.372 67.372 0 0 1-1.148-9.237c-.274-3.889-.42-8.216-.42-12.926 0-11.61.705-19.734 2.114-24.371 1.41-4.637 3.547-6.956 6.414-6.956h-.055Zm-.128 51.573c.583 0 1.075-.602 1.512-1.825.532-1.868.843-3.792.93-5.733.194-2.616.297-6.687.31-12.213a123.507 123.507 0 0 0-.693-16.43c-.474-2.793-1.166-4.199-2.077-4.199s-1.622 1.424-2.041 4.272a128.998 128.998 0 0 0-.638 15.809c-.122 5.322.109 10.647.693 15.938.473 2.848 1.13 4.272 2.004 4.272v.109Zm.182-53.508c-3.753 0-6.505 2.775-8.163 8.252C.765 133.214.055 141.356.055 153.259c0 4.728.145 9.128.419 13.053a67.382 67.382 0 0 0 1.202 9.493 23.31 23.31 0 0 0 2.861 7.814 6.62 6.62 0 0 0 5.703 3.286c4.009 0 6.796-3.067 8.272-9.128 1.312-5.331 1.932-13.437 1.932-24.774 0-4.965-.182-9.803-.565-14.385-.2-2.428-.474-4.601-.802-6.445a36.107 36.107 0 0 0-1.403-5.477 13.512 13.512 0 0 0-2.514-4.564 6.206 6.206 0 0 0-2.143-1.593 6.174 6.174 0 0 0-2.613-.542v.109Zm-.146 50.094c0-.346-.164-.766-.236-1.259a119.511 119.511 0 0 1-.675-15.646c-.116-5.186.091-10.375.62-15.535 0-.548.164-1.005.237-1.37.085.341.176.779.273 1.315a122.7 122.7 0 0 1 .674 16.047c0 5.477-.11 9.529-.31 12.067a28.627 28.627 0 0 1-.583 4.381Z"/><path fill="#EEB033" d="M34.146 185.006a.91.91 0 0 1-.911-.913v-10.497h-9.366a.91.91 0 0 1-.91-.913v-13.947a1.118 1.118 0 0 1 0-.256l10.385-36.749a.914.914 0 0 1 .875-.657h4.956a.91.91 0 0 1 .91.912v36.567h1.659a.91.91 0 0 1 .91.913v13.162a.913.913 0 0 1-.91.913h-1.658v10.57a.913.913 0 0 1-.911.913l-5.03-.018Zm-.911-26.398v-11.793l-3.371 11.738 3.37.055Z"/><path fill="#000" d="M39.102 122.041v37.534h2.569v13.163h-2.57v11.373h-4.955v-11.41H23.869v-13.965l10.277-36.695h4.956Zm-10.44 37.534h5.465v-19.278l-5.466 19.224v.054Zm10.44-39.359h-4.956a1.818 1.818 0 0 0-1.822 1.332l-10.277 36.677a2.26 2.26 0 0 0 0 .492v13.966a1.827 1.827 0 0 0 1.822 1.826h8.546v9.602a1.826 1.826 0 0 0 1.822 1.826h4.956a1.826 1.826 0 0 0 1.822-1.826v-9.584h.747a1.826 1.826 0 0 0 1.822-1.826v-13.162a1.827 1.827 0 0 0-1.822-1.826h-.747v-35.672a1.821 1.821 0 0 0-1.822-1.825h-.091Zm-7.944 37.479 1.239-4.363v4.363h-1.24Z"/><path fill="#EEB033" d="M45.734 186.047a.946.946 0 0 1-.674-.292.887.887 0 0 1-.237-.694l5.12-63.148a.895.895 0 0 1 .893-.839h2.915a.905.905 0 0 1 .864.614.91.91 0 0 1 .047.371l-5.156 63.148a.915.915 0 0 1-.911.84h-2.86Z"/><path fill="#000" d="m53.751 122.041-5.156 63.148h-2.86l5.101-63.148h2.915Zm0-1.825h-2.915a1.826 1.826 0 0 0-1.822 1.679l-5.102 63.093a1.828 1.828 0 0 0 .474 1.387 1.81 1.81 0 0 0 1.348.584h2.86a1.826 1.826 0 0 0 1.822-1.679l5.157-63.148a1.829 1.829 0 0 0-.492-1.387 1.824 1.824 0 0 0-1.33-.584v.055Z"/><path fill="#EEB033" d="M66.78 186.047a6.315 6.315 0 0 1-5.12-2.282 16.284 16.284 0 0 1-2.825-6.08 57.913 57.913 0 0 1-1.64-9.621.952.952 0 0 1 .583-.949l5.685-2.245c.109-.018.22-.018.328 0a.78.78 0 0 1 .492.146.877.877 0 0 1 .42.712 28.626 28.626 0 0 0 1.001 6.846c.347 1.022.729 1.369.93 1.369.2 0 .564-.329 1.038-1.826a23.01 23.01 0 0 0 .729-6.408 22.315 22.315 0 0 0-.692-6.298c-.347-1.059-.766-1.698-1.13-1.698 0 0-.346 0-1.257.785a.888.888 0 0 1-.584.219.967.967 0 0 1-.4 0 .889.889 0 0 1-.51-.839l.291-12.122a.897.897 0 0 1 .42-.749.787.787 0 0 1 .491-.146.861.861 0 0 1 .364 0c.119.066.249.109.383.128.219 0 .62-.456 1.002-1.515a14.64 14.64 0 0 0 .693-4.729c.039-1.411-.133-2.82-.51-4.18-.237-.712-.51-1.041-.675-1.041-.164 0-.455.256-.783 1.205a25.608 25.608 0 0 0-.802 6.098.935.935 0 0 1-.456.748.989.989 0 0 1-.455.11.85.85 0 0 1-.419 0l-5.466-2.885a.89.89 0 0 1-.474-.876 37.403 37.403 0 0 1 2.66-12.067 6.827 6.827 0 0 1 2.4-3.273 6.804 6.804 0 0 1 3.832-1.328 6.932 6.932 0 0 1 4.164 1.408 6.954 6.954 0 0 1 2.486 3.631 31.491 31.491 0 0 1 1.822 11.538 32.735 32.735 0 0 1-.747 7.302 20.778 20.778 0 0 1-1.822 5.221 6.78 6.78 0 0 1 1.44 1.826 17.404 17.404 0 0 1 1.676 5.221c.416 2.467.611 4.965.583 7.467a56.702 56.702 0 0 1-.947 10.406 21.94 21.94 0 0 1-2.843 7.868 6.214 6.214 0 0 1-5.357 2.903Z"/><path fill="#000" d="M66.397 122.041a6.038 6.038 0 0 1 5.794 4.455 30.133 30.133 0 0 1 1.822 11.209 33.119 33.119 0 0 1-.729 7.156 18.566 18.566 0 0 1-2.205 5.623 6.206 6.206 0 0 1 1.822 2.045 17.32 17.32 0 0 1 1.586 4.947c.41 2.412.599 4.856.565 7.302.01 3.43-.3 6.853-.93 10.224a21.102 21.102 0 0 1-2.697 7.539 5.63 5.63 0 0 1-6.983 2.261 5.628 5.628 0 0 1-2.127-1.567 15.55 15.55 0 0 1-2.66-5.732 56.948 56.948 0 0 1-1.604-9.475l5.685-2.246c.076 2.4.424 4.782 1.039 7.102.474 1.314 1.081 1.972 1.822 1.972.765 0 1.403-.822 1.822-2.501.573-2.173.83-4.417.765-6.664a22.711 22.711 0 0 0-.747-6.572c-.492-1.552-1.148-2.337-1.986-2.337a3.3 3.3 0 0 0-1.822 1.004l.292-12.122c.23.109.476.177.728.201.748 0 1.367-.712 1.823-2.117.526-1.627.778-3.33.747-5.039a14.014 14.014 0 0 0-.565-4.455c-.365-1.113-.875-1.679-1.53-1.679-.657 0-1.222.602-1.64 1.825a25.612 25.612 0 0 0-.857 6.335l-5.138-2.921a36.256 36.256 0 0 1 2.569-11.738 5.965 5.965 0 0 1 5.466-4.09l-.127.055Zm.127-1.88c-2.132 0-5.065.894-7.051 5.13a37.487 37.487 0 0 0-2.752 12.359 1.83 1.83 0 0 0 .966 1.826l5.466 2.884c.265.136.56.205.857.201.319.002.633-.08.91-.237a1.83 1.83 0 0 0 .912-1.497c.036-1.842.249-3.677.638-5.477.226 1.092.33 2.207.31 3.322a13.83 13.83 0 0 1-.639 4.437c-.096.263-.211.52-.346.766a1.975 1.975 0 0 0-1.53.201 1.828 1.828 0 0 0-.838 1.497l-.292 12.122a1.828 1.828 0 0 0 1.039 1.698c.242.124.51.187.783.182.428-.004.841-.159 1.166-.438.237-.201.42-.328.547-.42.165.287.294.594.382.913a21.07 21.07 0 0 1 .656 6.025 21.748 21.748 0 0 1-.692 6.134 4.988 4.988 0 0 1-.2.566 1.139 1.139 0 0 1 0-.128 26.115 26.115 0 0 1-.948-6.609 1.822 1.822 0 0 0-.838-1.424 1.828 1.828 0 0 0-.984-.274 1.624 1.624 0 0 0-.656.128l-5.703 2.246a1.819 1.819 0 0 0-1.13 1.825 58.98 58.98 0 0 0 1.64 9.785 17.631 17.631 0 0 0 3.007 6.408 7.456 7.456 0 0 0 9.491 1.567 7.47 7.47 0 0 0 2.48-2.407 22.512 22.512 0 0 0 2.97-8.215c.65-3.485.974-7.024.965-10.57a42.407 42.407 0 0 0-.6-7.649 18.57 18.57 0 0 0-1.823-5.477 7.666 7.666 0 0 0-1.13-1.552 22.393 22.393 0 0 0 1.677-4.819c.538-2.489.8-5.03.783-7.576a32.183 32.183 0 0 0-1.931-11.885 7.797 7.797 0 0 0-2.811-4.055 7.774 7.774 0 0 0-4.678-1.55l-.073.037Z"/><path fill="#EEB033" d="M89.154 186.047a5.706 5.706 0 0 1-4.938-2.867 23.103 23.103 0 0 1-2.733-7.521 68.048 68.048 0 0 1-1.184-9.347c-.273-3.907-.4-8.27-.4-12.998 0-11.648.71-19.936 2.131-24.628 1.53-5.057 3.99-7.612 7.288-7.612a5.227 5.227 0 0 1 4.082 1.825 13.024 13.024 0 0 1 2.35 4.272 36.395 36.395 0 0 1 1.349 5.258c.328 1.825.583 3.943.783 6.353.383 4.546.583 9.365.583 14.313 0 11.117-.656 19.369-1.913 24.554-1.367 5.568-3.845 8.398-7.398 8.398Zm0-51.866s-.692.439-1.13 3.506a127.474 127.474 0 0 0-.619 15.663c-.126 5.273.1 10.549.674 15.792.474 2.939 1.057 3.45 1.13 3.505a3.16 3.16 0 0 0 .62-1.205c.51-1.785.81-3.623.892-5.477.2-2.574.292-6.645.292-12.14a122.26 122.26 0 0 0-.674-16.193c-.529-2.994-1.148-3.414-1.221-3.451h.036Z"/><path fill="#000" d="M89.318 122.041a4.297 4.297 0 0 1 3.39 1.515 11.548 11.548 0 0 1 2.222 3.962 34.705 34.705 0 0 1 1.33 5.13c.31 1.825.584 3.87.766 6.262.389 4.564.583 9.31.583 14.239 0 11.076-.608 19.187-1.822 24.336-1.215 5.148-3.383 7.716-6.505 7.704a4.795 4.795 0 0 1-4.173-2.465 21.938 21.938 0 0 1-2.605-7.193 66.921 66.921 0 0 1-1.166-9.237c-.274-3.889-.401-8.216-.401-12.926 0-11.61.698-19.734 2.095-24.371 1.397-4.637 3.535-6.956 6.414-6.956h-.128Zm-.036 51.573c.565 0 1.075-.602 1.494-1.825.54-1.867.857-3.791.947-5.733.207-2.616.304-6.687.292-12.213a123.49 123.49 0 0 0-.692-16.43c-.456-2.793-1.148-4.199-2.078-4.199-.929 0-1.621 1.424-2.04 4.272a130.167 130.167 0 0 0-.62 15.809c-.132 5.322.1 10.647.693 15.938.455 2.848 1.13 4.272 2.004 4.272v.109Zm.164-53.508c-3.754 0-6.505 2.775-8.163 8.252-1.458 4.856-2.168 12.998-2.168 24.901 0 4.728.127 9.128.419 13.053.17 3.188.566 6.361 1.184 9.493a23.77 23.77 0 0 0 2.86 7.814 6.638 6.638 0 0 0 5.704 3.286c4.027 0 6.796-3.067 8.272-9.128 1.312-5.331 1.95-13.437 1.95-24.774 0-4.965-.2-9.803-.583-14.385-.2-2.428-.474-4.601-.802-6.445a36.091 36.091 0 0 0-1.385-5.477 14.144 14.144 0 0 0-2.514-4.564 6.222 6.222 0 0 0-4.774-2.136v.11Zm-.128 50.094c-.09-.346-.164-.766-.255-1.259a120.571 120.571 0 0 1-.656-15.646c-.11-5.186.091-10.374.602-15.535.09-.548.164-1.005.255-1.37.11.433.196.872.255 1.315.584 5.328.81 10.689.674 16.047 0 5.477-.091 9.529-.292 12.067a31.21 31.21 0 0 1-.583 4.381Z"/><path fill="#EEB033" d="M91.578 75.78h-2.733a.912.912 0 0 0-.912.913v32.916c0 .504.408.913.912.913h2.733a.912.912 0 0 0 .91-.913V76.693a.912.912 0 0 0-.91-.912Z"/><path fill="#000" d="M91.578 76.693v32.861h-2.734v-32.86h2.734Zm0-1.825h-2.734a1.82 1.82 0 0 0-1.822 1.825v32.861a1.827 1.827 0 0 0 1.822 1.826h2.734a1.823 1.823 0 0 0 1.822-1.826v-32.86a1.827 1.827 0 0 0-1.822-1.826Z"/></g><defs><clipPath id="clip0_2_7391"><path fill="#fff" d="M0 0h102v188H0z"/></clipPath></defs></svg>