<svg xmlns="http://www.w3.org/2000/svg" fill="none" viewBox="0 0 208 209"><g clip-path="url(#clip0_8_8179)"><path fill="#9567E8" d="m200.264 86.803-48.377-4.585a2.624 2.624 0 0 1-2.374-2.665c.008-.439.126-.868.342-1.25l23.93-42.41a1.676 1.676 0 0 0-1.255-2.48 1.667 1.667 0 0 0-1.05.22l-41.852 24.813a2.617 2.617 0 0 1-3.907-1.957l-5.577-48.366a1.677 1.677 0 0 0-1.409-1.479 1.667 1.667 0 0 0-1.785.99l-19.27 44.72a2.628 2.628 0 0 1-1.97 1.546 2.617 2.617 0 0 1-2.367-.812L60.5 17.186a1.67 1.67 0 0 0-2.862 1.492l10.627 47.514a2.628 2.628 0 0 1-1.79 3.08c-.417.128-.86.149-1.287.062L17.535 59.64a1.662 1.662 0 0 0-1.834.89 1.672 1.672 0 0 0 .398 2.002l36.456 32.213a2.628 2.628 0 0 1-.645 4.355L7.695 119.324a1.672 1.672 0 0 0-.948 1.799 1.676 1.676 0 0 0 1.485 1.386l48.391 4.585a2.626 2.626 0 0 1 2.032 3.915l-23.906 42.41a1.679 1.679 0 0 0 .288 2.016 1.669 1.669 0 0 0 2.018.245l41.847-24.833a2.606 2.606 0 0 1 2.908.164 2.624 2.624 0 0 1 1.028 1.798l5.504 48.375a1.67 1.67 0 0 0 1.405 1.484 1.664 1.664 0 0 0 1.784-.995l19.285-44.71c.175-.4.446-.751.79-1.02a2.618 2.618 0 0 1 3.542.291l32.832 35.893a1.671 1.671 0 0 0 2.862-1.498l-10.627-47.509a2.625 2.625 0 0 1 .682-2.409 2.604 2.604 0 0 1 2.39-.732l47.669 9.693a1.663 1.663 0 0 0 1.826-.893 1.68 1.68 0 0 0-.386-1.999l-36.456-32.217a2.621 2.621 0 0 1 .645-4.351l44.216-20.224a1.676 1.676 0 0 0 .44-2.744 1.67 1.67 0 0 0-.977-.441Z"/><path fill="#EEB033" d="M90.037 208.289a7.693 7.693 0 0 1-1.104-.083 7.192 7.192 0 0 1-4.17-2.12 7.216 7.216 0 0 1-1.988-4.241l-4.982-43.796-37.886 22.466a7.313 7.313 0 0 1-3.722 1.032 7.29 7.29 0 0 1-6.26-3.634 7.316 7.316 0 0 1-.054-7.249l21.644-38.412-43.81-4.15a7.26 7.26 0 0 1-4.27-1.914 7.294 7.294 0 0 1-1.472-8.752 7.272 7.272 0 0 1 3.407-3.211l40.045-18.31-33.003-29.17a7.3 7.3 0 0 1 .642-11.438 7.261 7.261 0 0 1 4.115-1.314c.502 0 1.002.05 1.494.152l43.147 8.778-9.621-43.012a7.217 7.217 0 0 1 .48-4.668 7.196 7.196 0 0 1 3.246-3.381 7.377 7.377 0 0 1 3.419-.847 7.148 7.148 0 0 1 5.328 2.383L94.398 45.9l17.444-40.478a7.147 7.147 0 0 1 6.632-4.404c.371.001.741.03 1.108.083a7.178 7.178 0 0 1 4.169 2.12 7.204 7.204 0 0 1 1.984 4.242l4.987 43.795 37.886-22.465a7.318 7.318 0 0 1 3.722-1.038 7.29 7.29 0 0 1 6.256 3.64 7.318 7.318 0 0 1 .053 7.248L157 77.04l43.811 4.15a7.26 7.26 0 0 1 4.27 1.913 7.295 7.295 0 0 1 1.472 8.753 7.275 7.275 0 0 1-3.408 3.21L163.1 113.379l33.003 29.169a7.301 7.301 0 0 1-.65 11.436 7.27 7.27 0 0 1-4.112 1.316 7.656 7.656 0 0 1-1.494-.151l-43.141-8.779 9.62 43.012a7.223 7.223 0 0 1-.483 4.668 7.208 7.208 0 0 1-3.248 3.382 7.349 7.349 0 0 1-3.418.846 7.14 7.14 0 0 1-5.328-2.383l-29.736-32.501-17.46 40.472a7.207 7.207 0 0 1-2.655 3.205 7.177 7.177 0 0 1-3.981 1.199l.02.02Zm-9.802-58.167a2.981 2.981 0 0 1 2.965 2.648l5.503 48.38a1.226 1.226 0 0 0 1.104 1.14c.078.006.156.006.234 0a1.177 1.177 0 0 0 1.153-.793l19.285-44.705a2.973 2.973 0 0 1 2.247-1.762 2.75 2.75 0 0 1 .488-.044 2.997 2.997 0 0 1 2.202.979l32.842 35.907a1.202 1.202 0 0 0 .914.44c.227-.005.451-.062.654-.166a1.24 1.24 0 0 0 .669-1.443l-10.626-47.51a2.99 2.99 0 0 1 .776-2.75 2.993 2.993 0 0 1 2.725-.836l47.654 9.698c.108.02.217.032.327.034a1.314 1.314 0 0 0 1.192-1.643 1.322 1.322 0 0 0-.396-.652l-36.456-32.212a2.997 2.997 0 0 1-.412-4.039 2.975 2.975 0 0 1 1.145-.923l44.221-20.19c.261-.119.477-.321.612-.575a1.307 1.307 0 0 0-1.028-1.915l-48.391-4.586a2.978 2.978 0 0 1-2.701-3.023c.008-.498.141-.986.386-1.42l23.901-42.41a1.234 1.234 0 0 0-.22-1.576 1.328 1.328 0 0 0-.889-.396 1.362 1.362 0 0 0-.689.205l-41.847 24.814a2.983 2.983 0 0 1-3.965-.858 3 3 0 0 1-.523-1.378l-5.504-48.375a1.228 1.228 0 0 0-1.103-1.145 1.554 1.554 0 0 0-.23 0 1.186 1.186 0 0 0-1.157.788L98.011 52.49a2.964 2.964 0 0 1-2.241 1.762 2.856 2.856 0 0 1-.489.045 3.008 3.008 0 0 1-2.197-.98L60.237 17.412a1.22 1.22 0 0 0-.908-.446 1.461 1.461 0 0 0-.655.172 1.222 1.222 0 0 0-.669 1.468l10.627 47.509a2.98 2.98 0 0 1-1.757 3.41 2.997 2.997 0 0 1-1.75.177l-47.654-9.699a1.55 1.55 0 0 0-.327-.034 1.312 1.312 0 0 0-1.157.884 1.318 1.318 0 0 0 .366 1.41l36.451 32.213a2.986 2.986 0 0 1-.732 4.962L7.856 119.661a1.308 1.308 0 0 0 .42 2.491l48.391 4.58a2.982 2.982 0 0 1 2.363 1.594 2.996 2.996 0 0 1-.048 2.854l-23.93 42.411a1.22 1.22 0 0 0 .225 1.57c.233.245.552.389.889.402.244-.005.483-.078.688-.211l41.848-24.809a2.99 2.99 0 0 1 1.533-.421Z"/><path fill="#000" d="M118.454 1.39c.353 0 .706.026 1.055.078 1.511.21 2.909.92 3.971 2.018a6.855 6.855 0 0 1 1.889 4.04l5.03 44.358 38.375-22.754a6.912 6.912 0 0 1 3.536-.979 6.92 6.92 0 0 1 5.941 3.457 6.958 6.958 0 0 1 .051 6.883l-21.917 38.887 44.372 4.208c1.514.142 2.94.78 4.054 1.818a6.918 6.918 0 0 1 1.399 8.31 6.906 6.906 0 0 1-3.236 3.05L162.44 113.31l33.399 29.536a6.93 6.93 0 0 1-.609 10.863 6.896 6.896 0 0 1-3.908 1.248 7.059 7.059 0 0 1-1.421-.147l-43.694-8.886 9.743 43.55a6.858 6.858 0 0 1-3.545 7.643 6.821 6.821 0 0 1-8.302-1.468l-30.117-32.922-17.684 40.992a6.85 6.85 0 0 1-5.142 4.081 6.955 6.955 0 0 1-2.208.019 6.833 6.833 0 0 1-3.97-2.018 6.855 6.855 0 0 1-1.89-4.04l-5.05-44.358-38.37 22.749a6.822 6.822 0 0 1-8.35-1.013 6.86 6.86 0 0 1-1.177-8.318l21.917-38.892-44.372-4.204a6.89 6.89 0 0 1-4.055-1.817 6.92 6.92 0 0 1-1.398-8.311 6.904 6.904 0 0 1 3.236-3.049l40.533-18.546-33.428-29.54a6.927 6.927 0 0 1-1.895-7.612 6.922 6.922 0 0 1 2.509-3.248 6.9 6.9 0 0 1 3.904-1.252c.477 0 .953.047 1.42.142l43.699 8.891-9.767-43.55a6.862 6.862 0 0 1 .457-4.435 6.844 6.844 0 0 1 3.083-3.213 6.987 6.987 0 0 1 3.228-.803 6.828 6.828 0 0 1 5.06 2.26l30.117 32.923 17.683-40.991a6.8 6.8 0 0 1 6.295-4.179l.083-.005ZM95.272 53.959a2.618 2.618 0 0 1-1.954-.852L60.476 17.205a1.573 1.573 0 0 0-1.182-.568c-.287.007-.57.08-.825.21a1.588 1.588 0 0 0-.855 1.85l10.627 47.515a2.629 2.629 0 0 1-1.42 2.936 2.612 2.612 0 0 1-1.656.205L17.51 59.66a1.954 1.954 0 0 0-.4-.044 1.673 1.673 0 0 0-1.508 1.118 1.681 1.681 0 0 0 .472 1.818L52.53 94.764a2.627 2.627 0 0 1 .855 2.353 2.63 2.63 0 0 1-1.5 2.002L7.67 119.343a1.674 1.674 0 0 0 .537 3.186l48.392 4.585a2.624 2.624 0 0 1 2.374 2.665 2.63 2.63 0 0 1-.343 1.249l-23.905 42.411a1.586 1.586 0 0 0 .288 2.016c.305.303.714.478 1.143.489.31-.006.611-.096.874-.259l41.872-24.839c.277-.162.582-.274.899-.328a2.668 2.668 0 0 1 1.601.24 2.634 2.634 0 0 1 1.436 2.051l5.504 48.375a1.592 1.592 0 0 0 1.411 1.468c.096.006.192.006.288 0a1.549 1.549 0 0 0 1.49-1.013l19.285-44.71a2.628 2.628 0 0 1 2.388-1.581 2.6 2.6 0 0 1 1.954.852l32.822 35.926c.144.175.325.315.529.412.204.098.427.149.653.151.286-.004.567-.076.82-.21a1.59 1.59 0 0 0 .86-1.85l-10.627-47.509a2.633 2.633 0 0 1 .512-2.212 2.616 2.616 0 0 1 2.042-.984c.174-.001.348.017.518.054l47.669 9.694c.131.028.265.042.4.044a1.682 1.682 0 0 0 1.04-2.936l-36.456-32.218a2.611 2.611 0 0 1-.859-2.351 2.617 2.617 0 0 1 1.504-1.999l44.216-20.224a1.676 1.676 0 0 0 .44-2.744 1.671 1.671 0 0 0-.977-.441l-48.377-4.585a2.616 2.616 0 0 1-2.079-1.404 2.634 2.634 0 0 1 .047-2.511l23.93-42.41a1.59 1.59 0 0 0-.288-2.016 1.573 1.573 0 0 0-2.017-.245l-41.852 24.814a2.618 2.618 0 0 1-3.932-1.962l-5.552-48.36a1.591 1.591 0 0 0-1.417-1.468 2.135 2.135 0 0 0-.283 0 1.555 1.555 0 0 0-1.494 1.012L97.68 52.354a2.627 2.627 0 0 1-2.394 1.585l-.014.02ZM118.469.656a7.498 7.498 0 0 0-6.969 4.62L94.26 45.228 64.907 13.144a7.538 7.538 0 0 0-5.597-2.5 7.753 7.753 0 0 0-3.565.885 7.568 7.568 0 0 0-3.406 3.557 7.589 7.589 0 0 0-.5 4.903l9.493 42.455-42.59-8.666a8.066 8.066 0 0 0-1.567-.157 7.632 7.632 0 0 0-4.322 1.382 7.655 7.655 0 0 0-2.779 3.593 7.673 7.673 0 0 0 2.1 8.423l32.583 28.792-39.518 18.076a7.638 7.638 0 0 0-3.58 3.371 7.66 7.66 0 0 0 1.54 9.192 7.624 7.624 0 0 0 4.482 2.014l43.249 4.096-21.366 37.904a7.683 7.683 0 0 0 2.838 10.397 7.631 7.631 0 0 0 3.794 1.033 7.63 7.63 0 0 0 3.907-1.086l37.403-22.172 4.918 43.233a7.566 7.566 0 0 0 2.075 4.478 7.539 7.539 0 0 0 4.39 2.24 7.666 7.666 0 0 0 2.438-.019 7.569 7.569 0 0 0 5.694-4.512l17.234-39.954 29.35 32.086a7.556 7.556 0 0 0 2.536 1.846 7.52 7.52 0 0 0 3.066.654 7.722 7.722 0 0 0 3.565-.89 7.562 7.562 0 0 0 3.407-3.554 7.579 7.579 0 0 0 .5-4.902l-9.494-42.454 42.585 8.661a7.717 7.717 0 0 0 1.567.161 7.631 7.631 0 0 0 4.333-1.381 7.656 7.656 0 0 0 2.783-3.602 7.66 7.66 0 0 0-2.125-8.434l-32.583-28.792 39.518-18.076a7.635 7.635 0 0 0 3.58-3.37 7.659 7.659 0 0 0-1.54-9.193 7.624 7.624 0 0 0-4.482-2.014l-43.249-4.096 21.361-37.904a7.694 7.694 0 0 0-.055-7.613 7.666 7.666 0 0 0-6.572-3.822 7.668 7.668 0 0 0-3.907 1.086l-37.403 22.176-4.918-43.232a7.57 7.57 0 0 0-2.081-4.466 7.545 7.545 0 0 0-4.385-2.233 7.735 7.735 0 0 0-1.162-.088h.02ZM95.286 54.673c.189-.001.376-.018.562-.049a3.332 3.332 0 0 0 2.515-1.957l19.271-44.705a.83.83 0 0 1 .82-.568h.176a.855.855 0 0 1 .796.827l5.504 48.375a3.33 3.33 0 0 0 1.836 2.623 3.342 3.342 0 0 0 3.194-.113l41.852-24.814c.147-.093.315-.147.488-.156a.93.93 0 0 1 .63.293.853.853 0 0 1 .161 1.13l-23.885 42.377a3.354 3.354 0 0 0 2.598 4.991l48.391 4.585a.93.93 0 0 1 .742 1.375.93.93 0 0 1-.444.411l-44.211 20.249a3.353 3.353 0 0 0-1.918 2.561 3.353 3.353 0 0 0 1.098 3.007l36.47 32.213a.957.957 0 0 1 .268 1.009.946.946 0 0 1-.82.645 1.266 1.266 0 0 1-.253-.029l-47.654-9.694a3.096 3.096 0 0 0-.665-.069 3.357 3.357 0 0 0-3.272 4.091l10.627 47.509a.85.85 0 0 1-.488 1.038 1.072 1.072 0 0 1-.489.127.833.833 0 0 1-.639-.323L115.69 155.74a3.355 3.355 0 0 0-2.471-1.092c-.187 0-.373.016-.557.049a3.322 3.322 0 0 0-2.515 1.958l-19.305 44.72a.818.818 0 0 1-.815.567.738.738 0 0 1-.176 0 .844.844 0 0 1-.796-.822l-5.504-48.375a3.353 3.353 0 0 0-5.035-2.51L36.67 175.049a1.01 1.01 0 0 1-.488.156.974.974 0 0 1-.63-.293.856.856 0 0 1-.162-1.136l23.9-42.405a3.358 3.358 0 0 0-1.043-4.436 3.342 3.342 0 0 0-1.555-.555l-48.381-4.6a.937.937 0 0 1-.743-1.376.94.94 0 0 1 .44-.415l44.216-20.224a3.346 3.346 0 0 0 1.925-2.56 3.358 3.358 0 0 0-1.1-3.009L16.592 61.984a.95.95 0 0 1 .552-1.654c.086 0 .17.01.254.03l47.654 9.693a3.345 3.345 0 0 0 3.283-1.19 3.36 3.36 0 0 0 .653-2.832L58.362 18.52a.858.858 0 0 1 .488-1.042c.151-.079.318-.123.488-.127a.83.83 0 0 1 .64.328l32.818 35.902a3.346 3.346 0 0 0 2.441 1.091h.05Z"/><path fill="#fff" d="M93.02 108.461a.352.352 0 0 1-.156-.035.353.353 0 0 1-.205-.279c-.235-1.57-1.055-4.477-1.983-5.872a.365.365 0 0 1 .05-.471.355.355 0 0 1 .146-.086c1.025-.309 1.582-.734 1.582-2.085v-5.128a214.351 214.351 0 0 1-7.785 13.246.345.345 0 0 1-.244.161h-.063a.357.357 0 0 1-.22-.073l-5.821-4.404a.361.361 0 0 1-.073-.489 138.205 138.205 0 0 0 8.98-14.049.371.371 0 0 1 .254-.181h.064c.088 0 .173.03.24.088l4.668 4.027v-7.31a.372.372 0 0 1 .366-.367h7.116a.37.37 0 0 1 .366.367v3.67h5.601a.365.365 0 0 1 .366.367v5.465a.366.366 0 0 1-.366.368h-5.601v4.252l5.093-.876h.064a.367.367 0 0 1 .317.19c.025.044.04.093.044.143.193 1.821.506 3.627.938 5.407a.36.36 0 0 1-.044.284.362.362 0 0 1-.239.166c-9.767 2.026-11.975 2.711-13.27 3.479a.368.368 0 0 1-.185.025Zm20.697-.137c-5.455 0-7.032-1.723-7.032-7.678v-15.37a.366.366 0 0 1 .366-.367h6.866a.372.372 0 0 1 .366.367v3.915h8.303a.37.37 0 0 1 .366.367v5.505a.37.37 0 0 1-.366.367h-8.303v5.187c0 1.394 0 1.394.674 1.394h2.042c.522 0 .732-.372.879-4.301a.36.36 0 0 1 .205-.313.355.355 0 0 1 .371.03c1.245.88 4.053 1.873 5.938 2.29.088.019.165.07.217.143a.372.372 0 0 1 .067.253c-.645 6.072-2.471 8.225-6.979 8.225l-3.98-.014ZM85.754 88.261a.361.361 0 0 1-.206-.064c-1.465-.978-4.395-2.569-8.912-4.849a.356.356 0 0 1-.19-.245.339.339 0 0 1 .063-.303l3.682-4.893a.367.367 0 0 1 .435-.118c2.93 1.248 7.057 3.122 9.186 4.306a.37.37 0 0 1 .183.393.366.366 0 0 1-.061.14l-3.907 5.467a.363.363 0 0 1-.273.186v-.02Zm6.47-3.518a.365.365 0 0 1-.366-.367V71.653l-3.125 4.105a.372.372 0 0 1-.294.142.336.336 0 0 1-.21-.068c-1.567-1.125-4.736-2.863-7.28-4.267l-1.393-.763a.37.37 0 0 1-.176-.41.371.371 0 0 1 .069-.143l3.834-4.786a.36.36 0 0 1 .44-.103c1.288.607 5.469 2.594 8.135 4.008v-2.32a.365.365 0 0 1 .225-.34.362.362 0 0 1 .141-.027h27.837a.367.367 0 0 1 .366.367v17.347a.37.37 0 0 1-.366.367l-27.837-.02Zm19.881-5.569v-.847H99.804v.847h12.301Zm0-6.092v-.847H99.804v.847h12.301Z"/><path fill="#000" d="M83.566 65.703c2.486 1.174 6.417 3.068 8.658 4.286v-2.936h27.837v17.342H92.224V70.596l-3.78 4.967c-1.894-1.356-6.021-3.567-8.707-5.055l3.829-4.786v-.02Zm15.871 7.785h13.035v-1.58H99.437v1.58Zm0 6.092h13.035V78H99.437v1.58Zm-18.953-1.4c2.633 1.131 6.964 3.074 9.152 4.292l-3.907 5.461c-1.953-1.307-6.168-3.474-8.951-4.893l3.682-4.894.024.035Zm33.433 7.096v4.287h8.669v5.5h-8.654v5.554c0 1.58.098 1.756 1.04 1.756h2.041c.894 0 1.094-.675 1.246-4.648 1.343.949 4.229 1.957 6.07 2.348-.65 6.093-2.442 7.898-6.617 7.898h-3.98c-5.426 0-6.666-1.805-6.666-7.31V85.276h6.866-.015Zm-13.967.225v4.017h5.968v5.466H99.95v5.055l5.523-.95c.19 1.842.505 3.668.943 5.467-9.997 2.074-12.087 2.75-13.381 3.518-.249-1.669-1.094-4.605-2.041-6.004 1.045-.313 1.84-.812 1.84-2.447V85.521h7.116v-.02Zm-12.39 3.543 5.075 4.38a213.929 213.929 0 0 1-8.259 14.126l-5.82-4.404c3.281-4.508 6.289-9.21 9.005-14.083v-.02Zm-3.98-24.056a.737.737 0 0 0-.571.274l-3.829 4.786a.744.744 0 0 0-.151.602.739.739 0 0 0 .366.49l1.397.767c2.534 1.4 5.69 3.132 7.237 4.243a.736.736 0 0 0 1.011-.152l2.442-3.24v11.647a.74.74 0 0 0 .713.734.724.724 0 0 0-.117.391v6.474l-4.063-3.508a.742.742 0 0 0-.489-.176H87.4a.737.737 0 0 0-.488.367 138.09 138.09 0 0 1-8.952 14.004.736.736 0 0 0 .147 1.023l5.816 4.404a.749.749 0 0 0 .445.147.54.54 0 0 0 .127 0 .697.697 0 0 0 .488-.328 213.543 213.543 0 0 0 7.11-12.003v3.709c0 1.14-.405 1.468-1.318 1.737a.72.72 0 0 0-.48.454.734.734 0 0 0 .084.657c.811 1.203 1.666 3.968 1.92 5.7a.748.748 0 0 0 .41.558c.1.044.208.068.317.069.131 0 .26-.036.371-.103 1.236-.729 3.517-1.429 13.186-3.425a.821.821 0 0 0 .288-.132c.796 2.378 2.686 3.528 6.876 3.528h3.956c4.693 0 6.681-2.315 7.325-8.554a.74.74 0 0 0-.571-.797c-1.851-.407-4.596-1.375-5.807-2.227a.74.74 0 0 0-.42-.137.73.73 0 0 0-.732.71c-.039 1.066-.132 3.552-.425 3.914h-2.393a8.048 8.048 0 0 1-.044-1.018v-4.82h7.951a.734.734 0 0 0 .732-.734v-5.44a.736.736 0 0 0-.732-.735h-7.922v-3.572a.925.925 0 0 0 0-.166h5.406a.737.737 0 0 0 .733-.734V67.058a.732.732 0 0 0-.733-.734H92.234a.732.732 0 0 0-.732.734v1.713c-2.667-1.385-6.408-3.161-7.614-3.734a.764.764 0 0 0-.313-.068l.005.02Zm16.605 7.653h11.569v.113H100.17v-.113h.015Zm0 6.093h11.569v.112H100.17v-.112h.015Zm.381 6.415h5.787a.58.58 0 0 0 0 .166v3.636a.749.749 0 0 0-.416-.127h-5.235V85.52a.725.725 0 0 0-.117-.392l-.019.02Zm.117 10.608h5.235a.746.746 0 0 0 .415-.127v4.566a23.233 23.233 0 0 1-.132-1.13.751.751 0 0 0-.283-.52.742.742 0 0 0-.445-.151h-.127l-4.663.803v-3.45.01Zm-20.199-18.31a.726.726 0 0 0-.586.293l-3.682 4.894a.72.72 0 0 0-.127.611.746.746 0 0 0 .38.49c4.528 2.275 7.434 3.85 8.88 4.83a.74.74 0 0 0 1.006-.186l3.877-5.462a.734.734 0 0 0-.24-1.066c-2.143-1.194-6.304-3.073-9.225-4.326a.736.736 0 0 0-.283-.059v-.02Z"/><path fill="#fff" d="M70.59 143.873a.353.353 0 0 1-.312-.176 12.217 12.217 0 0 0-2.647-2.73.369.369 0 0 1-.053-.56.366.366 0 0 1 .184-.101 25.39 25.39 0 0 0 4.977-1.526c-.405-.333-.874-.7-1.358-1.053a15.06 15.06 0 0 1-1.67.876.369.369 0 0 1-.4-.073 24.226 24.226 0 0 0-2.93-2.349.37.37 0 0 1 .068-.656 15.424 15.424 0 0 0 5.953-3.86H67.25a.366.366 0 0 1-.367-.367v-3.122a.368.368 0 0 1 .367-.367h5.274v-.578h-3.37a.358.358 0 0 1-.366-.367v-3.175a.364.364 0 0 1 .225-.341.358.358 0 0 1 .141-.026h.489a15.339 15.339 0 0 0-3.087-1.919.362.362 0 0 1-.224-.337.378.378 0 0 1 .224-.338 17.669 17.669 0 0 0 6.393-4.335.368.368 0 0 1 .278-.123h.054l4.884.778c.064.01.124.036.175.076.05.041.09.094.113.154a.374.374 0 0 1-.059.362c-.073.093-.151.181-.225.27h19.51a.357.357 0 0 1 .34.225.366.366 0 0 1 .027.142v2.936a.367.367 0 0 1-.367.367h-1.924a.35.35 0 0 1 .069.215v1.502h2.705a.365.365 0 0 1 .366.367v3.205a.368.368 0 0 1-.366.367h-2.706v.578H99.8a.37.37 0 0 1 .366.367v3.122a.371.371 0 0 1-.366.367h-4.537v.66h4.185a.366.366 0 0 1 .366.367v3.063a.368.368 0 0 1-.366.367h-4.185v.979h4.82a.368.368 0 0 1 .366.367v2.98a.368.368 0 0 1-.366.367h-4.82v2.368a.37.37 0 0 1-.366.367H90.06a.37.37 0 0 1-.366-.367v-2.368h-3.17a.316.316 0 0 1-.132.029h-4.659a.366.366 0 0 1-.327-.528 55.831 55.831 0 0 0 1.807-4.184.365.365 0 0 1-.361-.323c-2.335 3.915-6.422 6.616-12.175 8.064l-.088-.005Zm19.105-6.782v-.978H88.65c-.069.161-.328.807-.396.978h1.44Zm-14.304-1.414c.346.24.722.489 1.079.778.272-.246.531-.505.776-.778h-1.855Zm5.43-3.425a.364.364 0 0 1 .122.024l1.91.685v-.283a.364.364 0 0 1 .225-.341.358.358 0 0 1 .141-.026h6.476v-.646H77.867a.38.38 0 0 1-.054.249c-.093.147-.19.294-.298.441h2.583l.699-.084.024-.019Zm9.367-4.458v-.577h-.64v.577h.64Zm-5.748 0v-.577h-.713v.577h.713Zm-5.821 0v-.577h-.572v.577h.572Zm11.569-4.487v-1.502a.36.36 0 0 1 .073-.216h-.923a.36.36 0 0 1 .21.328v1.39h.64Zm-5.748 0v-1.39a.364.364 0 0 1 .205-.328h-1.128a.36.36 0 0 1 .21.328v1.39h.713Zm-5.821 0v-1.39a.367.367 0 0 1 .205-.328h-.904a.343.343 0 0 1 .127.274v1.444h.572Zm-6.105 0v-.646c-.37.225-.742.44-1.108.646h1.108Z"/><path fill="#000" d="m73.261 116.637 4.884.778c-.25.309-.532.588-.776.867h20.31v2.935H73.97c-.278.221-.6.416-.913.642h4.62v1.81h1.304v-1.757h4.395v1.757h1.465v-1.757h4.395v1.757h1.373V121.8h4.883v1.869h3.072v3.2h-3.072v1.312h4.342v3.122H75.596l1.953.416c-.215.337-.459.67-.708 1.008h3.257l.743-.089 2.398.867v-.813h6.837v-1.062h4.834v1.062h4.552v3.064H94.91v1.702h5.187v2.98h-5.201v2.736H90.06v-2.736h-3.668v.03h-4.659a57.041 57.041 0 0 0 2.012-4.712h-.527v-1.42c-2.295 4.894-6.983 7.751-12.629 9.171a12.576 12.576 0 0 0-2.754-2.843 24.56 24.56 0 0 0 5.577-1.787c-.532-.489-1.27-1.057-2.012-1.585-.59.366-1.204.692-1.836.979a24.856 24.856 0 0 0-2.999-2.398c2.72-1.033 5.186-2.677 6.598-4.57H67.24v-3.122h5.64v-1.312h-3.736v-3.18h3.736v-1.674c-.776.489-1.62.979-2.505 1.468a14.972 14.972 0 0 0-3.667-2.398 17.926 17.926 0 0 0 6.529-4.428l.024-.02Zm15.92 11.558h1.373v-1.326h-1.372v1.326Zm-5.82-.014h1.465v-1.312H83.36v1.312Zm-5.68 0h1.304v-1.312H77.68v1.312Zm.352 7.134h-3.795l-.034.029c.776.49 1.621 1.087 2.256 1.591a10.528 10.528 0 0 0 1.553-1.62h.02Zm9.645 2.148h2.363v-1.703h-1.64c-.25.588-.46 1.145-.709 1.703h-.014Zm-14.417-21.56a.73.73 0 0 0-.556.25 17.302 17.302 0 0 1-6.256 4.238.73.73 0 0 0-.446.675.738.738 0 0 0 .446.675c.81.375 1.582.824 2.31 1.341a.726.726 0 0 0-.318.607v3.18a.73.73 0 0 0 .279.578h-1.465a.73.73 0 0 0-.733.734v3.122a.736.736 0 0 0 .733.734h4.287a15.833 15.833 0 0 1-5.22 3.151.733.733 0 0 0-.42 1.007c.06.123.153.227.268.299a24.144 24.144 0 0 1 2.882 2.305c.13.128.305.202.488.206a.712.712 0 0 0 .298-.064 14.684 14.684 0 0 0 1.494-.768c.23.171.455.342.67.514a25.853 25.853 0 0 1-4.337 1.262.74.74 0 0 0-.572.573.734.734 0 0 0 .303.748c.977.74 1.835 1.624 2.544 2.623a.732.732 0 0 0 .626.352.523.523 0 0 0 .175-.024c5.226-1.311 9.206-3.763 11.682-7.149a56.059 56.059 0 0 1-1.367 3.083.726.726 0 0 0 .034.708.733.733 0 0 0 .62.344h4.659a.68.68 0 0 0 .2-.03h2.735v2.002a.736.736 0 0 0 .733.734h4.834a.735.735 0 0 0 .733-.734v-2.002h4.454a.732.732 0 0 0 .732-.734v-2.98a.736.736 0 0 0-.732-.734h-4.454v-.235h3.819a.73.73 0 0 0 .732-.734v-3.068a.738.738 0 0 0-.41-.66h.03a.733.733 0 0 0 .732-.734v-3.122a.73.73 0 0 0-.733-.734h-.815a.73.73 0 0 0 .278-.578v-3.175a.733.733 0 0 0-.732-.734h-2.29v-.979h1.464a.737.737 0 0 0 .733-.734v-2.936a.735.735 0 0 0-.733-.734H78.853a.726.726 0 0 0-.605-.856l-4.884-.778a.422.422 0 0 0-.112 0l.01-.035Zm8.073 16.148h1.587a.74.74 0 0 0-.376.436l-1.211-.436Zm7.584 4.458h.435v.235h-.528c.03-.078.059-.157.093-.235Z"/><path fill="#fff" d="M125.477 143.565a.366.366 0 0 1-.367-.367v-.979h-13.093v.979a.368.368 0 0 1-.366.367h-5.255a.358.358 0 0 1-.366-.367v-12.625a.38.38 0 0 1 .106-.261.358.358 0 0 1 .26-.106h24.623a.366.366 0 0 1 .367.367v12.625a.369.369 0 0 1-.367.367h-5.542Zm-.367-5.999v-2.75h-13.093v2.75h13.093Zm5.099-7.462a.365.365 0 0 1-.298-.152 18.822 18.822 0 0 0-1.514-1.82l-3.565.117c-14.543.489-17.166.582-19.085 1.091h-.093a.366.366 0 0 1-.351-.254 29.567 29.567 0 0 0-1.661-3.807.382.382 0 0 1 0-.338.373.373 0 0 1 .269-.201c.947-.176 1.641-.601 2.847-1.497a36.478 36.478 0 0 0 7.037-7.369.368.368 0 0 1 .303-.162.329.329 0 0 1 .117 0l5.186 1.757a.38.38 0 0 1 .151.095.388.388 0 0 1 .089.155.382.382 0 0 1-.078.337 50.51 50.51 0 0 1-6.183 5.921l10.505-.21a84.081 84.081 0 0 0-2.818-2.408.366.366 0 0 1-.137-.318.378.378 0 0 1 .195-.289l3.985-2.118a.354.354 0 0 1 .171-.044.34.34 0 0 1 .225.078c4.805 3.753 7.862 6.474 9.337 8.319a.36.36 0 0 1 .015.443.368.368 0 0 1-.117.105l-4.337 2.51a.366.366 0 0 1-.195.059Z"/><path fill="#000" d="m114.083 116.104 5.187 1.757a50.966 50.966 0 0 1-6.984 6.547l12.522-.25a89.462 89.462 0 0 0-3.526-3.039l3.985-2.118c3.106 2.446 7.374 5.872 9.278 8.25l-4.341 2.51a17.976 17.976 0 0 0-1.656-1.957c-17.991.611-20.779.665-22.894 1.223a30.164 30.164 0 0 0-1.694-3.875c1.059-.191 1.836-.695 2.998-1.561a36.874 36.874 0 0 0 7.125-7.487Zm16.936 14.494v12.625h-5.538v-1.366h-13.83v1.366h-5.255v-12.625h24.623Zm-19.368 7.34h13.83v-3.484h-13.83v3.484Zm2.442-22.588a.742.742 0 0 0-.606.323 36.644 36.644 0 0 1-6.954 7.281c-1.167.862-1.826 1.273-2.705 1.434a.738.738 0 0 0-.516.415.741.741 0 0 0 .027.662 29.19 29.19 0 0 1 1.636 3.743.727.727 0 0 0 .699.489.61.61 0 0 0 .185-.024c1.88-.489 4.498-.582 19.007-1.077l3.419-.112c.488.489.84.979 1.123 1.336h-22.953a.73.73 0 0 0-.733.734v12.625a.734.734 0 0 0 .733.734h5.255a.736.736 0 0 0 .732-.734v-.632h12.366v.632a.734.734 0 0 0 .732.734h5.538a.734.734 0 0 0 .733-.734v-12.625a.734.734 0 0 0-.401-.651l3.56-2.06a.731.731 0 0 0 .352-.489.76.76 0 0 0-.009-.315.729.729 0 0 0-.138-.282c-1.494-1.86-4.571-4.595-9.401-8.368a.714.714 0 0 0-.791-.069l-3.985 2.119a.732.732 0 0 0-.333.927c.046.112.118.21.211.287.694.567 1.395 1.16 2.105 1.776l-8.512.171a49.725 49.725 0 0 0 5.411-5.294.737.737 0 0 0 .156-.675.713.713 0 0 0-.182-.307.711.711 0 0 0-.306-.183l-5.186-1.756a.65.65 0 0 0-.235-.04l-.034.005Zm-1.709 19.838h12.365v2.016h-12.365v-2.016Z"/></g><defs><clipPath id="clip0_8_8179"><path fill="#fff" d="M.745.656h207v208h-207z"/></clipPath></defs></svg>