<svg xmlns="http://www.w3.org/2000/svg" fill="none" viewBox="0 0 208 209"><g clip-path="url(#clip0_8_8254)"><path fill="#45DCFF" d="m200.267 86.737-48.387-4.583a2.605 2.605 0 0 1-2.085-1.399 2.614 2.614 0 0 1 .054-2.514l23.9-42.383a1.676 1.676 0 0 0-.282-2.02 1.67 1.67 0 0 0-2.023-.245l-41.847 24.802a2.614 2.614 0 0 1-3.478-.749 2.616 2.616 0 0 1-.458-1.208l-5.504-48.33a1.668 1.668 0 0 0-3.189-.49L97.683 52.307a2.616 2.616 0 0 1-1.968 1.547 2.61 2.61 0 0 1-2.364-.819L60.504 17.151a1.67 1.67 0 0 0-2.857 1.496L68.27 66.132a2.629 2.629 0 0 1-1.785 3.078c-.417.129-.86.152-1.287.067l-47.654-9.694a1.669 1.669 0 0 0-1.972 1.962c.071.362.26.69.536.933l36.451 32.196a2.617 2.617 0 0 1-.644 4.348L7.698 119.236a1.669 1.669 0 0 0-.957 1.801 1.675 1.675 0 0 0 1.494 1.388l48.391 4.582a2.615 2.615 0 0 1 2.032 3.913l-23.9 42.383a1.673 1.673 0 0 0 .28 2.019c.262.258.603.422.969.466a1.67 1.67 0 0 0 1.051-.225l41.852-24.796c.274-.166.578-.277.894-.328a2.606 2.606 0 0 1 2.01.487 2.606 2.606 0 0 1 1.028 1.797l5.503 48.355a1.675 1.675 0 0 0 1.409 1.478 1.667 1.667 0 0 0 1.785-.989l19.285-44.687a2.62 2.62 0 0 1 3.253-1.441 2.61 2.61 0 0 1 1.079.708l32.847 35.854a1.664 1.664 0 0 0 2 .346 1.671 1.671 0 0 0 .857-1.843l-10.627-47.484a2.622 2.622 0 0 1 3.077-3.145l47.654 9.693a1.664 1.664 0 0 0 1.829-.895 1.675 1.675 0 0 0-.394-2l-36.455-32.186a2.62 2.62 0 0 1 .644-4.348l44.216-20.218a1.671 1.671 0 0 0 .948-1.798 1.675 1.675 0 0 0-1.485-1.386Z"/><path fill="#EEB033" d="M90.045 208.141c-.37 0-.739-.026-1.104-.079a7.185 7.185 0 0 1-4.17-2.119 7.208 7.208 0 0 1-1.988-4.239l-4.977-43.772-37.886 22.449a7.177 7.177 0 0 1-8.79-1.067 7.21 7.21 0 0 1-1.24-8.779l21.638-38.373-43.81-4.152a7.26 7.26 0 0 1-4.27-1.913 7.281 7.281 0 0 1-1.473-8.748 7.267 7.267 0 0 1 3.408-3.209l40.045-18.301-33.003-29.15a7.289 7.289 0 0 1-2-8.015 7.285 7.285 0 0 1 2.646-3.42 7.269 7.269 0 0 1 4.116-1.315 7.746 7.746 0 0 1 1.494.152l43.117 8.794-9.62-42.985a7.219 7.219 0 0 1 .481-4.669 7.204 7.204 0 0 1 3.25-3.382 7.414 7.414 0 0 1 3.418-.841 7.163 7.163 0 0 1 5.328 2.377L94.39 45.87 111.85 5.418a7.151 7.151 0 0 1 6.632-4.402c.371.001.741.029 1.108.083a7.201 7.201 0 0 1 6.158 6.358l4.982 43.773 37.886-22.454a7.319 7.319 0 0 1 3.722-1.032 7.285 7.285 0 0 1 6.259 3.636 7.316 7.316 0 0 1 .055 7.246L157.008 77l43.811 4.148a7.268 7.268 0 0 1 4.267 1.917 7.284 7.284 0 0 1 1.471 8.746 7.271 7.271 0 0 1-3.404 3.212l-40.045 18.301 33.003 29.149a7.288 7.288 0 0 1-.645 11.434 7.258 7.258 0 0 1-5.606 1.165l-43.146-8.774 9.62 42.985a7.194 7.194 0 0 1-3.731 8.045 7.341 7.341 0 0 1-3.394.846 7.182 7.182 0 0 1-5.328-2.377l-29.736-32.489-17.459 40.456a7.204 7.204 0 0 1-6.632 4.402l-.01-.024Zm-9.797-58.118a2.986 2.986 0 0 1 2.965 2.651l5.503 48.351a1.223 1.223 0 0 0 1.338 1.144 1.194 1.194 0 0 0 1.153-.792l19.285-44.687a2.975 2.975 0 0 1 2.242-1.761 2.984 2.984 0 0 1 2.686.939l32.847 35.884a1.21 1.21 0 0 0 .908.445 1.46 1.46 0 0 0 .659-.172 1.22 1.22 0 0 0 .664-1.467l-10.621-47.465a2.96 2.96 0 0 1 .781-2.743c.277-.284.609-.51.974-.665a2.996 2.996 0 0 1 1.155-.235c.201-.001.4.02.596.063l47.654 9.689c.107.023.217.035.327.034a1.305 1.305 0 0 0 1.159-.88 1.313 1.313 0 0 0-.368-1.409l-36.451-32.201a2.984 2.984 0 0 1 .733-4.959l44.216-20.214a1.305 1.305 0 0 0 .737-1.402 1.303 1.303 0 0 0-1.157-1.082l-48.387-4.583a2.987 2.987 0 0 1-2.702-3.025c.007-.498.139-.986.383-1.42l23.905-42.384a1.227 1.227 0 0 0-.225-1.575 1.316 1.316 0 0 0-.889-.4c-.244.007-.481.08-.688.21l-41.848 24.8a2.978 2.978 0 0 1-2.847.103 2.975 2.975 0 0 1-1.636-2.337l-5.494-48.336a1.22 1.22 0 0 0-1.338-1.144 1.185 1.185 0 0 0-1.153.792L98.029 52.477a2.992 2.992 0 0 1-2.241 1.76 2.977 2.977 0 0 1-2.686-.939L60.225 17.4a1.231 1.231 0 0 0-.913-.445 1.464 1.464 0 0 0-.654.171 1.216 1.216 0 0 0-.664 1.438l10.621 47.49a2.974 2.974 0 0 1-.776 2.743 2.99 2.99 0 0 1-2.725.836L17.47 59.95a1.578 1.578 0 0 0-.327-.034 1.308 1.308 0 0 0-1.194 1.639c.065.251.204.477.398.65l36.456 32.2a2.989 2.989 0 0 1-.738 4.96L7.85 119.578a1.306 1.306 0 0 0 .42 2.485l48.392 4.583a2.976 2.976 0 0 1 2.703 3.025c-.009.498-.142.987-.389 1.42l-23.9 42.384a1.224 1.224 0 0 0 .225 1.575c.235.24.553.382.889.396.242-.006.478-.077.683-.206l41.848-24.811a2.961 2.961 0 0 1 1.025-.371c.166-.027.335-.038.503-.035Z"/><path fill="#000" d="M118.457 1.368c.354.002.706.03 1.055.083 1.512.21 2.909.92 3.971 2.017a6.85 6.85 0 0 1 1.889 4.038l5.05 44.33 38.37-22.737a6.832 6.832 0 0 1 8.351 1.012 6.854 6.854 0 0 1 1.177 8.339l-21.917 38.867 44.372 4.201a6.907 6.907 0 0 1 6.163 5.732 6.923 6.923 0 0 1-.71 4.392 6.904 6.904 0 0 1-3.236 3.047l-40.534 18.536 33.428 29.526a6.916 6.916 0 0 1-4.522 12.105 7.02 7.02 0 0 1-1.416-.142l-43.698-8.887 9.767 43.528a6.852 6.852 0 0 1-3.541 7.64 6.996 6.996 0 0 1-3.228.802 6.84 6.84 0 0 1-5.059-2.26l-30.166-32.881-17.659 40.966a6.815 6.815 0 0 1-5.138 4.078 7.01 7.01 0 0 1-1.157.093 6.837 6.837 0 0 1-1.05-.078 6.849 6.849 0 0 1-5.86-6.055l-5.06-44.335-38.384 22.743a6.922 6.922 0 0 1-3.536.978 6.937 6.937 0 0 1-6.877-6.888 6.952 6.952 0 0 1 .885-3.447l21.932-38.867-44.377-4.201a6.896 6.896 0 0 1-4.055-1.816 6.918 6.918 0 0 1 1.838-11.355l40.533-18.54L12.63 66.41A6.923 6.923 0 0 1 10.73 58.8a6.919 6.919 0 0 1 2.511-3.249 6.904 6.904 0 0 1 3.908-1.25c.477.001.953.05 1.42.147l43.699 8.886-9.743-43.527a6.856 6.856 0 0 1 .459-4.43 6.842 6.842 0 0 1 3.082-3.21 6.955 6.955 0 0 1 3.223-.802 6.828 6.828 0 0 1 5.06 2.26l30.116 32.9 17.684-40.97a6.833 6.833 0 0 1 6.295-4.177l.014-.01ZM95.265 53.9a2.604 2.604 0 0 1-1.953-.85L60.465 17.165a1.569 1.569 0 0 0-1.182-.563 1.81 1.81 0 0 0-.82.21 1.588 1.588 0 0 0-.855 1.85L68.23 66.146a2.623 2.623 0 0 1-3.072 3.144l-47.654-9.693a2.009 2.009 0 0 0-.4-.04 1.673 1.673 0 0 0-1.507 1.118 1.68 1.68 0 0 0 .471 1.817l36.49 32.182a2.616 2.616 0 0 1-.644 4.347L7.698 119.236a1.673 1.673 0 0 0 .537 3.189l48.391 4.582a2.617 2.617 0 0 1 2.032 3.913l-23.905 42.384a1.59 1.59 0 0 0 .288 2.015 1.573 1.573 0 0 0 2.017.244l41.852-24.796c.274-.166.578-.277.894-.328a2.619 2.619 0 0 1 3.038 2.284l5.503 48.355a1.592 1.592 0 0 0 1.416 1.468 1.618 1.618 0 0 0 1.778-.979l19.285-44.687a2.601 2.601 0 0 1 1.954-1.545 2.613 2.613 0 0 1 2.363.812l32.862 35.854a1.563 1.563 0 0 0 1.177.562c.288-.004.57-.076.825-.21a1.587 1.587 0 0 0 .855-1.849l-10.627-47.484a2.633 2.633 0 0 1 .509-2.214 2.614 2.614 0 0 1 2.568-.931l47.654 9.694c.132.024.266.037.4.039a1.676 1.676 0 0 0 1.549-2.098 1.68 1.68 0 0 0-.514-.837l-36.455-32.186a2.623 2.623 0 0 1 .644-4.353l44.216-20.213a1.67 1.67 0 0 0 .948-1.798 1.675 1.675 0 0 0-1.485-1.386l-48.387-4.583a2.606 2.606 0 0 1-2.085-1.399 2.614 2.614 0 0 1 .054-2.513l23.9-42.384a1.605 1.605 0 0 0-.283-2.02 1.703 1.703 0 0 0-1.148-.489 1.746 1.746 0 0 0-.874.26l-41.847 24.8a2.612 2.612 0 0 1-3.079-.299 2.623 2.623 0 0 1-.857-1.662l-5.504-48.34a1.719 1.719 0 0 0-1.7-1.467 1.546 1.546 0 0 0-1.465 1.012L97.707 52.34a2.615 2.615 0 0 1-1.953 1.545 2.636 2.636 0 0 1-.435.035l-.054-.02ZM118.496.664a7.513 7.513 0 0 0-6.968 4.622L94.293 45.214l-29.35-32.069a7.536 7.536 0 0 0-5.601-2.494 7.771 7.771 0 0 0-3.565.885 7.556 7.556 0 0 0-3.407 3.552 7.571 7.571 0 0 0-.5 4.9l9.45 42.407-42.605-8.661a7.722 7.722 0 0 0-1.567-.162 7.635 7.635 0 0 0-4.324 1.38 7.653 7.653 0 0 0-3.038 8.128 7.655 7.655 0 0 0 2.356 3.883l32.583 28.778-39.518 18.066a7.64 7.64 0 0 0-3.58 3.369 7.654 7.654 0 0 0 1.54 9.187 7.624 7.624 0 0 0 4.482 2.014l43.249 4.093-21.36 37.884a7.685 7.685 0 0 0 .055 7.61 7.668 7.668 0 0 0 6.571 3.82 7.672 7.672 0 0 0 3.907-1.086l37.398-22.165 4.918 43.21a7.575 7.575 0 0 0 2.084 4.466 7.557 7.557 0 0 0 4.387 2.235c.383.057.77.085 1.157.083a7.56 7.56 0 0 0 6.969-4.617l17.234-39.933 29.356 32.069a7.503 7.503 0 0 0 5.596 2.499 7.754 7.754 0 0 0 3.565-.885 7.558 7.558 0 0 0 3.407-3.552 7.573 7.573 0 0 0 .5-4.9l-9.494-42.437 42.59 8.662a8.044 8.044 0 0 0 1.563.156 7.645 7.645 0 0 0 7.106-4.966 7.66 7.66 0 0 0-2.101-8.42l-32.549-28.777 39.523-18.067a7.649 7.649 0 0 0 4.355-8.222 7.65 7.65 0 0 0-2.323-4.328 7.634 7.634 0 0 0-4.474-2.02l-43.249-4.098 21.366-37.879a7.676 7.676 0 0 0-6.632-11.43 7.684 7.684 0 0 0-3.907 1.086l-37.413 22.19-4.917-43.21a7.561 7.561 0 0 0-2.079-4.468A7.543 7.543 0 0 0 119.62.747a7.762 7.762 0 0 0-1.163-.088l.039.005Zm-23.177 53.99a3.342 3.342 0 0 0 3.077-2L117.68 7.97a.82.82 0 0 1 .815-.572c.059-.004.118-.004.176 0a.842.842 0 0 1 .796.821l5.465 48.306a3.35 3.35 0 0 0 3.45 2.978 3.341 3.341 0 0 0 1.585-.468l41.852-24.797a.977.977 0 0 1 .489-.161c.239.014.464.12.63.293a.851.851 0 0 1 .161 1.135l-23.901 42.383a3.37 3.37 0 0 0-.054 3.206 3.35 3.35 0 0 0 2.657 1.788l48.387 4.578a.938.938 0 0 1 .743 1.375.94.94 0 0 1-.44.415l-44.216 20.213a3.347 3.347 0 0 0-1.925 2.558 3.355 3.355 0 0 0 1.099 3.008l36.456 32.201a.849.849 0 0 1 .22 1.12.836.836 0 0 1-.772.528 1.549 1.549 0 0 1-.254-.024l-47.644-9.674a3.343 3.343 0 0 0-3.283 1.19 3.37 3.37 0 0 0-.653 2.83l10.627 47.489a.854.854 0 0 1-.489 1.037 1.11 1.11 0 0 1-.488.127.825.825 0 0 1-.64-.327l-32.847-35.884a3.355 3.355 0 0 0-2.441-1.086 3.333 3.333 0 0 0-3.077 2.001L90.88 201.245a.83.83 0 0 1-.816.572 1.29 1.29 0 0 1-.176 0 .853.853 0 0 1-.8-.822l-5.519-48.365a3.363 3.363 0 0 0-1.098-2.12 3.349 3.349 0 0 0-2.228-.853 2.97 2.97 0 0 0-.556.049c-.407.067-.798.21-1.153.42l-41.847 24.796a.977.977 0 0 1-.488.157.933.933 0 0 1-.635-.294.848.848 0 0 1-.162-1.129l23.906-42.389a3.357 3.357 0 0 0-2.603-4.988l-48.392-4.583a.932.932 0 0 1-.742-1.374.932.932 0 0 1 .444-.411l44.216-20.214a3.351 3.351 0 0 0 1.922-2.562 3.361 3.361 0 0 0-1.101-3.008L16.6 61.93a.944.944 0 0 1 .552-1.648c.085-.001.17.007.254.024l47.653 9.694a3.375 3.375 0 0 0 3.891-2.372c.154-.539.17-1.107.046-1.654L58.37 18.491a.853.853 0 0 1 .488-1.037c.15-.08.318-.123.489-.127a.83.83 0 0 1 .64.323l32.846 35.888a3.372 3.372 0 0 0 2.471 1.086l.015.03Z"/><path fill="#fff" d="M93.024 108.369a.367.367 0 0 1-.157-.039.37.37 0 0 1-.205-.274c-.234-1.57-1.055-4.475-1.983-5.869a.376.376 0 0 1 .053-.472.369.369 0 0 1 .148-.086c1.025-.308 1.577-.733 1.577-2.088V94.44a213.57 213.57 0 0 1-7.78 13.234.386.386 0 0 1-.244.166h-.068a.356.356 0 0 1-.22-.073l-5.82-4.402a.372.372 0 0 1-.074-.513 137.09 137.09 0 0 0 8.98-14.047.362.362 0 0 1 .255-.18h.068c.087 0 .17.034.234.093l4.67 4V85.46a.367.367 0 0 1 .365-.367h7.116a.364.364 0 0 1 .26.106.36.36 0 0 1 .106.261v3.649h5.606a.367.367 0 0 1 .367.367v5.458a.366.366 0 0 1-.367.367h-5.606v4.264l5.094-.87h.063c.081 0 .16.025.225.073a.384.384 0 0 1 .141.26c.19 1.82.501 3.625.933 5.404a.359.359 0 0 1-.044.283.394.394 0 0 1-.234.167c-9.767 2.019-11.98 2.704-13.274 3.472a.366.366 0 0 1-.185.015Zm20.696-.137c-5.455 0-7.032-1.722-7.032-7.679V85.235a.366.366 0 0 1 .366-.367h6.891a.367.367 0 0 1 .366.367v3.913h8.302a.373.373 0 0 1 .366.367v5.458a.366.366 0 0 1-.366.367h-8.302v5.203c0 1.394 0 1.394.679 1.394h2.041c.518 0 .728-.371.874-4.294a.366.366 0 0 1 .206-.313.31.31 0 0 1 .161-.039.327.327 0 0 1 .21.069c1.25.875 4.053 1.868 5.938 2.284a.367.367 0 0 1 .288.396c-.644 6.074-2.471 8.226-6.983 8.226l-4.005-.034ZM85.762 88.18a.351.351 0 0 1-.205-.064c-1.465-.978-4.395-2.568-8.918-4.852a.367.367 0 0 1-.127-.547l3.682-4.891a.363.363 0 0 1 .435-.118c2.906 1.243 7.057 3.116 9.191 4.304a.363.363 0 0 1 .18.24.392.392 0 0 1-.058.293l-3.882 5.458a.367.367 0 0 1-.298.216v-.04Zm6.466-3.522a.366.366 0 0 1-.367-.367V71.575l-3.12 4.099a.368.368 0 0 1-.508.078c-1.568-1.125-4.737-2.866-7.282-4.265l-1.386-.768a.352.352 0 0 1-.181-.249.347.347 0 0 1 .073-.298l3.829-4.784a.358.358 0 0 1 .288-.137c.052 0 .104.012.151.035 1.29.606 5.475 2.592 8.136 4.005v-2.323a.372.372 0 0 1 .367-.367h27.812a.37.37 0 0 1 .366.367v17.328a.367.367 0 0 1-.366.367l-27.812-.005Zm19.885-5.56v-.808H99.807v.846l12.306-.039Zm0-6.095v-.826H99.807v.846l12.306-.02Z"/><path fill="#000" d="M83.574 65.653c2.486 1.168 6.417 3.066 8.654 4.284v-2.934h27.812V84.33H92.228V70.523l-3.78 4.964c-1.89-1.355-6.022-3.565-8.708-5.052l3.834-4.783Zm15.867 7.756h13.039v-1.58H99.44v1.58Zm0 6.094h13.039v-1.58H99.44v1.59-.01Zm-18.954-1.389c2.638 1.13 6.965 3.067 9.152 4.285l-3.877 5.463c-1.954-1.311-6.173-3.478-8.957-4.891l3.682-4.89v.033Zm33.458 7.121v4.285h8.658v5.458h-8.658v5.565c0 1.58.098 1.761 1.045 1.761h2.041c.894 0 1.094-.675 1.241-4.646 1.343.949 4.229 1.956 6.07 2.343-.645 6.093-2.442 7.898-6.617 7.898h-3.98c-5.421 0-6.666-1.805-6.666-7.312V85.235h6.866Zm-13.982.225v4.016h5.973v5.458h-5.973v5.052l5.524-.944c.191 1.839.508 3.662.947 5.458-10.001 2.074-12.092 2.754-13.386 3.521-.249-1.672-1.094-4.602-2.041-6.001 1.045-.317 1.84-.811 1.84-2.445V85.46h7.116Zm-12.39 3.517 5.075 4.377c-2.54 4.74-5.372 9.61-8.258 14.125l-5.822-4.402a139.479 139.479 0 0 0 9.006-14.1Zm-3.98-24.058a.716.716 0 0 0-.57.274l-3.834 4.783a.718.718 0 0 0-.019.885.737.737 0 0 0 .233.206l1.402.768c2.53 1.393 5.684 3.13 7.237 4.24a.722.722 0 0 0 .75.06c.1-.05.188-.123.257-.212l2.466-3.237V84.32a.731.731 0 0 1 .711.764.735.735 0 0 1-.115.366v6.465l-4.064-3.502a.717.717 0 0 0-.488-.18h-.132a.74.74 0 0 0-.513.361 136.141 136.141 0 0 1-8.951 13.998.733.733 0 0 0 .146 1.022l5.822 4.426a.756.756 0 0 0 .444.147h.127a.757.757 0 0 0 .488-.328 211.938 211.938 0 0 0 7.106-12.002v3.707c0 1.145-.406 1.467-1.319 1.736a.743.743 0 0 0-.488.46.747.747 0 0 0 .083.656c.81 1.198 1.665 3.966 1.924 5.697a.727.727 0 0 0 .41.553.732.732 0 0 0 .689-.029c1.23-.734 3.516-1.433 13.156-3.424a.725.725 0 0 0 .288-.127c.796 2.377 2.686 3.526 6.876 3.526h3.98c4.694 0 6.686-2.318 7.326-8.554a.726.726 0 0 0-.572-.792c-1.85-.41-4.595-1.374-5.801-2.23a.742.742 0 0 0-1.039.2.727.727 0 0 0-.119.372c-.039 1.071-.132 3.556-.425 3.937H114.673a7.858 7.858 0 0 1-.044-1.017v-4.818h7.926a.734.734 0 0 0 .732-.733V89.52a.735.735 0 0 0-.732-.734h-7.926v-3.55a.7.7 0 0 0 0-.172h5.406a.734.734 0 0 0 .732-.733V67.001a.735.735 0 0 0-.732-.733H92.223a.732.732 0 0 0-.733.733v1.717c-2.666-1.389-6.407-3.164-7.613-3.731a.687.687 0 0 0-.308-.069h.025Zm16.605 7.644h11.574v.103h-11.574v-.112.01Zm0 6.094h11.574v.113h-11.574v-.113Zm.385 6.407h5.783a.614.614 0 0 0 0 .171v3.634a.706.706 0 0 0-.411-.127h-5.24V85.46a.721.721 0 0 0-.112-.396h-.02Zm.113 10.603h5.24a.7.7 0 0 0 .41-.127v4.568c-.054-.4-.098-.782-.132-1.135a.704.704 0 0 0-.278-.513.752.752 0 0 0-.449-.152.527.527 0 0 0-.123 0l-4.668.802v-3.457.014ZM80.512 77.371a.736.736 0 0 0-.586.288l-3.682 4.891a.743.743 0 0 0 .01.895.723.723 0 0 0 .249.2c4.527 2.275 7.427 3.855 8.873 4.828a.726.726 0 0 0 1.006-.181l3.882-5.463a.735.735 0 0 0-.244-1.066c-2.139-1.189-6.304-3.072-9.22-4.319a.74.74 0 0 0-.288-.058v-.015Z"/><path fill="#fff" d="M83.735 142.375a.366.366 0 0 1-.366-.367v-11.587h-4.806v9.088a.367.367 0 0 1-.366.366h-5.186a.357.357 0 0 1-.34-.225.364.364 0 0 1-.027-.141v-13.391a.366.366 0 0 1 .226-.341.357.357 0 0 1 .14-.026H83.37v-1.986H70.256a.37.37 0 0 1-.366-.367v-3.937a.367.367 0 0 1 .366-.367h13.157c-.235-.44-.489-.89-.743-1.33-.17-.303-.341-.596-.488-.875a.377.377 0 0 1 .101-.456.366.366 0 0 1 .148-.077l5.118-1.218a.232.232 0 0 1 .083 0 .375.375 0 0 1 .308.161c.894 1.35 1.802 2.739 2.383 3.805h12.697c.097 0 .191.039.259.108a.365.365 0 0 1 .108.259v3.937a.37.37 0 0 1-.367.367H89.488v1.986h11.061a.366.366 0 0 1 .367.366v9.205c0 2.157-.684 3.291-2.354 3.912-1.67.622-3.853.69-6.442.69a.365.365 0 0 1-.237-.084.365.365 0 0 1-.124-.219 12.323 12.323 0 0 0-1.641-3.83.375.375 0 0 1 .317-.567c.64.039 1.846.083 3.966.083a.88.88 0 0 0 .425-.054v-4.842h-5.333v11.587a.373.373 0 0 1-.367.367h-5.391Z"/><path fill="#000" d="M87.613 115.495c.81 1.217 1.87 2.827 2.47 3.966h12.913v3.937H89.097v2.719h11.428v9.205c0 1.858-.489 2.969-2.115 3.58-1.626.611-3.706.665-6.314.665a12.953 12.953 0 0 0-1.695-3.966c1.412.083 3.492.083 3.985.083.567 0 .777-.113.777-.445v-5.184h-6.066v11.953h-5.372v-11.953h-5.528v9.453h-5.186v-13.391h10.744v-2.719H70.276v-3.937h13.762c-.46-.919-1.06-1.917-1.519-2.749l5.113-1.217h-.02Zm.02-.734a.698.698 0 0 0-.172 0l-5.113 1.218a.752.752 0 0 0-.488.42.733.733 0 0 0 .03.651c.15.279.317.572.487.875.171.304.298.519.44.783H70.281a.73.73 0 0 0-.733.734v3.937a.733.733 0 0 0 .733.733h12.746v1.252h-9.992a.735.735 0 0 0-.732.734v13.391a.734.734 0 0 0 .733.733h5.186a.734.734 0 0 0 .732-.733v-8.701h4.073v11.22a.733.733 0 0 0 .733.733h5.371a.73.73 0 0 0 .733-.733v-5.943a12.165 12.165 0 0 1 1.543 3.634.734.734 0 0 0 .723.602c2.627 0 4.776-.054 6.564-.714 2.29-.861 2.598-2.637 2.598-4.265v-9.205a.734.734 0 0 0-.733-.733H89.864v-1.252h13.186a.736.736 0 0 0 .732-.734v-3.937a.736.736 0 0 0-.732-.734H90.504c-.591-1.051-1.465-2.362-2.296-3.638a.718.718 0 0 0-.61-.328h.034Zm2.216 16.027h4.562v4.162c-2.11 0-3.307-.044-3.942-.083h-.043a.739.739 0 0 0-.572.274v-4.353h-.005Z"/><path fill="#fff" d="M119.185 142.511a.37.37 0 0 1-.366-.367v-3.942c-2.545 1.595-6.725 3.077-10.471 3.708h-.063a.385.385 0 0 1-.16-.036.393.393 0 0 1-.128-.101 19.63 19.63 0 0 0-3.067-2.984.36.36 0 0 1-.129-.174.374.374 0 0 1 .108-.403.356.356 0 0 1 .201-.083 45.927 45.927 0 0 0 7.858-1.394h-7.208a.37.37 0 0 1-.366-.367v-3.154a.37.37 0 0 1 .366-.367h13.068v-.68h-3.819v.299a.365.365 0 0 1-.366.366h-5.093a.368.368 0 0 1-.258-.109.376.376 0 0 1-.109-.257v-6.848c-.229.152-.459.294-.683.426a.37.37 0 0 1-.45-.064 14.827 14.827 0 0 0-3.457-2.611.37.37 0 0 1-.196-.328.37.37 0 0 1 .196-.328 24.257 24.257 0 0 0 8.341-7.126.364.364 0 0 1 .298-.156h.058l5.187.802a.374.374 0 0 1 .285.226.374.374 0 0 1-.051.361c-.303.401-.625.797-.947 1.183h2.632a19.8 19.8 0 0 0-.571-1.149.36.36 0 0 1 0-.328.379.379 0 0 1 .254-.205l4.834-1.051h.079c.059 0 .118.014.171.043a.354.354 0 0 1 .131.118 18.991 18.991 0 0 1 1.465 2.582h9.606c.097.002.19.041.258.109a.378.378 0 0 1 .109.258v3.052a.366.366 0 0 1-.367.367h-10.074 8.414a.365.365 0 0 1 .366.367v2.553a.364.364 0 0 1-.298.361c.084.015.16.059.214.125a.358.358 0 0 1 .084.232v2.553a.362.362 0 0 1-.366.367h-8.414v.064h10.743c.097.001.19.04.258.109a.376.376 0 0 1 .109.258v3.022a.376.376 0 0 1-.109.258.368.368 0 0 1-.258.109h-12.345v.68h13.185c.097.001.19.04.258.109a.376.376 0 0 1 .109.258v3.164a.378.378 0 0 1-.109.258.376.376 0 0 1-.258.109h-6.216c2.383.689 4.966 1.491 6.588 2.088a.368.368 0 0 1 .102.631l-3.282 2.582a.394.394 0 0 1-.229.079.359.359 0 0 1-.137-.03c-2.066-.851-6.5-2.333-9.743-3.345a.354.354 0 0 1-.249-.289.363.363 0 0 1 .142-.357l1.826-1.359h-1.987v5.38a.37.37 0 0 1-.367.366l-5.137.01Zm-.357-5.091v-.685h-1.885l1.885.685Zm1.802-9.009v-.044h-5.621v.054l5.621-.01Zm0-6.602h-5.621 5.621Z"/><path fill="#000" d="M124.972 115.632c.582.87 1.09 1.788 1.519 2.743h9.84v3.052H125.89v.748h8.791v2.553h-8.791v.719h8.791V128h-8.791v.778H137v3.022h-22.367v.666h-5.083v-7.542c-.386.274-.811.553-1.236.802a15.269 15.269 0 0 0-3.56-2.69 24.315 24.315 0 0 0 8.463-7.238l5.187.807a31.38 31.38 0 0 1-1.466 1.77h3.986a19.533 19.533 0 0 0-.811-1.687l4.835-1.056h.024Zm-10.363 6.543h6.349v-.748h-6.349v.748Zm0 3.272h6.349v-.719h-6.349v.719Zm0 3.331h6.349V128h-6.349v.778Zm9.669 3.243v1.193h13.596v3.164h-8.853c2.93.802 6.91 1.996 9.098 2.798l-3.277 2.582c-2.154-.89-6.671-2.387-9.767-3.355l2.715-2.025h-3.492v5.766h-5.118v-5.766h-13.405v-3.164h13.405v-1.193h5.118-.02Zm-9.293 4.401 3.775 1.36c-2.505 1.609-6.705 3.106-10.48 3.741a19.85 19.85 0 0 0-3.14-3.047c3.633-.337 7.726-1.11 9.845-2.054Zm9.982-21.519a.813.813 0 0 0-.156 0l-4.835 1.056a.737.737 0 0 0-.488 1.066c.107.196.215.401.312.607h-1.274c.156-.196.312-.396.488-.597a.744.744 0 0 0 .087-.723.747.747 0 0 0-.575-.446l-5.187-.802h-.112a.75.75 0 0 0-.601.313c-1.846 2.661-4.839 5.214-8.209 7.014a.727.727 0 0 0-.386.66.735.735 0 0 0 .41.645 14.71 14.71 0 0 1 3.351 2.534.73.73 0 0 0 .903.127l.132-.078v6.201h-3.043a.736.736 0 0 0-.732.734v3.164a.741.741 0 0 0 .732.734h3.981a55.053 55.053 0 0 1-4.679.641.729.729 0 0 0-.643.535.73.73 0 0 0 .277.79 19.527 19.527 0 0 1 2.998 2.934.726.726 0 0 0 .572.274c.04.005.081.005.122 0a33.152 33.152 0 0 0 10.045-3.423v3.311a.733.733 0 0 0 .733.733h5.118c.194 0 .38-.077.518-.214a.738.738 0 0 0 .214-.519v-2.993c3.219 1.007 7.521 2.445 9.533 3.276a.688.688 0 0 0 .279.059.735.735 0 0 0 .454-.156l3.281-2.583a.714.714 0 0 0 .269-.689.732.732 0 0 0-.488-.577c-1.085-.397-2.603-.891-4.2-1.375h3.706a.73.73 0 0 0 .733-.733v-3.189a.733.733 0 0 0-.733-.734h-.61a.726.726 0 0 0 .459-.68v-3.022a.733.733 0 0 0-.733-.734h-1.596v-2.597a.742.742 0 0 0-.093-.357.762.762 0 0 0 .093-.362v-2.567h.927a.733.733 0 0 0 .733-.734v-3.052a.73.73 0 0 0-.733-.733h-9.371a19.168 19.168 0 0 0-1.382-2.421.733.733 0 0 0-.606-.323l.005.005Zm.064 22.214h.547l-.547.406v-.406Z"/></g><defs><clipPath id="clip0_8_8254"><path fill="#fff" d="M.753.635h207v207.892h-207z"/></clipPath></defs></svg>