<svg xmlns="http://www.w3.org/2000/svg" fill="none" viewBox="0 0 208 208"><g clip-path="url(#clip0_8_8303)"><path fill="#FF789F" d="m199.583 85.97-48.391-4.576a2.616 2.616 0 0 1-2.086-1.397 2.608 2.608 0 0 1 .055-2.51l23.9-42.321a1.676 1.676 0 0 0-.284-2.012 1.67 1.67 0 0 0-2.016-.25L128.908 57.67a2.609 2.609 0 0 1-3.45-.758 2.604 2.604 0 0 1-.456-1.195l-5.504-48.28a1.672 1.672 0 0 0-3.194-.488L97.019 51.57a2.612 2.612 0 0 1-4.332.727L59.811 16.491a1.67 1.67 0 0 0-2.857 1.494L67.585 65.41a2.623 2.623 0 0 1-3.076 3.14l-47.674-9.69a1.67 1.67 0 0 0-1.436 2.892L51.856 93.9a2.62 2.62 0 0 1-.644 4.342L6.995 118.426a1.67 1.67 0 0 0 .537 3.184l48.386 4.576a2.614 2.614 0 0 1 2.38 2.659c-.01.438-.129.867-.348 1.248l-23.9 42.321a1.667 1.667 0 0 0 1.255 2.475 1.67 1.67 0 0 0 1.05-.219l41.867-24.775c.276-.164.581-.275.898-.327a2.602 2.602 0 0 1 2.009.486 2.61 2.61 0 0 1 1.024 1.795l5.494 48.284a1.67 1.67 0 0 0 3.19.488L110.12 156a2.624 2.624 0 0 1 1.967-1.544 2.625 2.625 0 0 1 2.365.811l32.847 35.836a1.674 1.674 0 0 0 2.74-.429 1.67 1.67 0 0 0 .117-1.065l-10.622-47.415a2.617 2.617 0 0 1 3.072-3.14l47.654 9.679a1.667 1.667 0 0 0 1.972-1.959 1.68 1.68 0 0 0-.536-.932l-36.452-32.148a2.615 2.615 0 0 1 .64-4.342l44.216-20.189c.337-.15.614-.408.788-.733a1.67 1.67 0 0 0-1.32-2.446l.014-.014Z"/><path fill="#EEB033" d="M89.356 207.219a7.692 7.692 0 0 1-1.103-.083 7.198 7.198 0 0 1-6.159-6.349l-4.98-43.708-37.888 22.416a7.292 7.292 0 0 1-3.72 1.035 7.298 7.298 0 0 1-7.248-7.241 7.295 7.295 0 0 1 .933-3.625l21.644-38.326-43.81-4.141A7.274 7.274 0 0 1 1.28 116.55a7.271 7.271 0 0 1 3.404-3.208L44.73 95.068 11.722 65.962a7.277 7.277 0 0 1 4.762-12.732 7.708 7.708 0 0 1 1.494.151l43.142 8.761-9.611-42.931a7.193 7.193 0 0 1 3.726-8.038 7.437 7.437 0 0 1 3.418-.84 7.185 7.185 0 0 1 5.333 2.373l29.736 32.437L111.181 4.75a7.138 7.138 0 0 1 6.627-4.395c.371 0 .742.028 1.109.083a7.194 7.194 0 0 1 6.158 6.348l4.981 43.708 37.892-22.42a7.325 7.325 0 0 1 3.721-1.03 7.29 7.29 0 0 1 6.31 10.865l-21.64 38.317 43.811 4.141a7.273 7.273 0 0 1 5.739 10.648 7.274 7.274 0 0 1-3.405 3.207l-40.045 18.274 33.008 29.106a7.269 7.269 0 0 1 2.003 8.003 7.274 7.274 0 0 1-6.764 4.724 7.654 7.654 0 0 1-1.495-.147l-43.141-8.761 9.62 42.922a7.19 7.19 0 0 1-3.731 8.033 7.384 7.384 0 0 1-3.418.845 7.186 7.186 0 0 1-5.333-2.373l-29.731-32.442-17.459 40.397a7.23 7.23 0 0 1-5.416 4.288 7.878 7.878 0 0 1-1.226.127Zm-9.801-58.056a2.984 2.984 0 0 1 2.964 2.647l5.504 48.279a1.214 1.214 0 0 0 1.104 1.143c.078.005.156.005.234 0a1.189 1.189 0 0 0 1.153-.792l19.285-44.621a2.972 2.972 0 0 1 3.932-1.54c.378.168.717.413.995.72l32.847 35.831a1.21 1.21 0 0 0 .914.444c.228-.005.452-.064.654-.171a1.225 1.225 0 0 0 .664-1.441l-10.626-47.414a2.986 2.986 0 0 1 3.525-3.575l47.654 9.674c.108.023.218.035.328.035a1.314 1.314 0 0 0 .796-2.286l-36.442-32.144a2.987 2.987 0 0 1-.978-2.675 2.978 2.978 0 0 1 1.711-2.277l44.196-20.183a1.298 1.298 0 0 0-.415-2.481l-48.391-4.576a2.978 2.978 0 0 1-2.315-4.44l23.9-42.32a1.219 1.219 0 0 0-.224-1.573 1.322 1.322 0 0 0-.889-.4c-.243.008-.479.08-.684.21L129.099 58a2.985 2.985 0 0 1-4.483-2.232L119.112 7.49a1.22 1.22 0 0 0-1.333-1.143 1.193 1.193 0 0 0-1.158.792l-19.29 44.597a2.97 2.97 0 0 1-2.73 1.797 2.988 2.988 0 0 1-2.197-.977l-32.847-35.83a1.224 1.224 0 0 0-.913-.445c-.227.006-.45.064-.65.17a1.216 1.216 0 0 0-.669 1.466l10.627 47.415a2.97 2.97 0 0 1-1.757 3.399 3.003 3.003 0 0 1-1.75.175l-47.654-9.674a1.557 1.557 0 0 0-.327-.034 1.31 1.31 0 0 0-.79 2.285l36.45 32.154a2.98 2.98 0 0 1-.733 4.952L7.176 118.772a1.302 1.302 0 0 0-.752 1.404 1.298 1.298 0 0 0 1.172 1.077l48.386 4.576a2.987 2.987 0 0 1 2.706 3.02c-.009.498-.141.986-.386 1.419l-23.905 42.321a1.222 1.222 0 0 0 .224 1.573c.235.24.553.382.89.395.243-.005.48-.076.688-.205l41.847-24.764c.314-.186.66-.312 1.02-.371.162-.032.325-.05.489-.054Z"/><path fill="#000" d="M117.769.732c.353-.001.706.025 1.055.078a6.838 6.838 0 0 1 5.86 6.046l5.045 44.264 38.375-22.703a6.92 6.92 0 0 1 3.536-.977 6.926 6.926 0 0 1 5.94 3.45 6.928 6.928 0 0 1 .052 6.869l-21.923 38.81 44.377 4.195a6.901 6.901 0 0 1 2.218 13.151l-40.534 18.509 33.428 29.482a6.905 6.905 0 0 1-4.522 12.087 7.012 7.012 0 0 1-1.416-.142l-43.699-8.873 9.743 43.464a6.834 6.834 0 0 1-3.541 7.628 6.96 6.96 0 0 1-3.223.801 6.84 6.84 0 0 1-5.059-2.257l-30.117-32.856-17.684 40.914a6.837 6.837 0 0 1-5.142 4.073 7.166 7.166 0 0 1-2.207 0 6.833 6.833 0 0 1-5.86-6.046l-5.08-44.245-38.37 22.709a6.84 6.84 0 0 1-8.35-1.011 6.835 6.835 0 0 1-1.178-8.327l21.918-38.809-44.343-4.195a6.905 6.905 0 0 1-6.164-5.724 6.902 6.902 0 0 1 3.947-7.428l40.534-18.508-33.433-29.483a6.91 6.91 0 0 1 4.517-12.091c.477 0 .953.05 1.421.146l43.698 8.874-9.767-43.464a6.836 6.836 0 0 1 3.54-7.628 6.978 6.978 0 0 1 3.224-.801 6.836 6.836 0 0 1 5.06 2.256l30.121 32.852 17.679-40.91A6.806 6.806 0 0 1 117.74.746l.029-.014ZM94.562 53.186a2.617 2.617 0 0 1-1.929-.85L59.811 16.492a1.568 1.568 0 0 0-1.182-.562 1.833 1.833 0 0 0-.82.21 1.587 1.587 0 0 0-.855 1.846L67.585 65.41a2.618 2.618 0 0 1-2.554 3.189c-.175 0-.35-.016-.522-.05l-47.674-9.688a1.959 1.959 0 0 0-.4-.04 1.676 1.676 0 0 0-1.035 2.931L51.855 93.9a2.618 2.618 0 0 1-.644 4.342L6.995 118.426a1.67 1.67 0 0 0 .537 3.184l48.386 4.576a2.614 2.614 0 0 1 2.032 3.907l-23.9 42.321a1.58 1.58 0 0 0 .283 2.012 1.579 1.579 0 0 0 2.022.244l41.867-24.774a2.694 2.694 0 0 1 1.333-.367c.405.001.804.095 1.167.274a2.62 2.62 0 0 1 1.431 2.046l5.494 48.284a1.713 1.713 0 0 0 1.7 1.465 1.545 1.545 0 0 0 1.465-1.011l19.285-44.621a2.62 2.62 0 0 1 1.967-1.54 2.633 2.633 0 0 1 2.365.807l32.847 35.836a1.56 1.56 0 0 0 1.181.562 1.84 1.84 0 0 0 .821-.21 1.589 1.589 0 0 0 .854-1.846l-10.621-47.415a2.609 2.609 0 0 1 1.416-2.934c.353-.17.74-.259 1.133-.26.175.001.35.019.522.054l47.654 9.679c.132.027.266.04.401.039a1.673 1.673 0 0 0 1.549-2.095 1.674 1.674 0 0 0-.514-.835l-36.451-32.149a2.604 2.604 0 0 1-.862-2.344 2.622 2.622 0 0 1 1.502-1.997l44.216-20.189a1.67 1.67 0 0 0 .963-1.795 1.665 1.665 0 0 0-1.496-1.384l-48.391-4.576a2.615 2.615 0 0 1-2.38-2.659 2.62 2.62 0 0 1 .348-1.248l23.901-42.32a1.59 1.59 0 0 0-.284-2.018 1.683 1.683 0 0 0-1.147-.488 1.716 1.716 0 0 0-.869.259l-41.853 24.764c-.403.24-.864.367-1.333.367a2.616 2.616 0 0 1-2.598-2.325l-5.504-48.279a1.584 1.584 0 0 0-1.416-1.465 1.616 1.616 0 0 0-1.778.977L96.955 51.56a2.608 2.608 0 0 1-1.953 1.543c-.144.024-.29.035-.435.034l-.005.05ZM117.744-.035a7.485 7.485 0 0 0-6.963 4.61l-17.235 39.87-29.34-31.988a7.535 7.535 0 0 0-5.602-2.49 7.76 7.76 0 0 0-3.56.883 7.55 7.55 0 0 0-3.907 8.44l9.494 42.374-42.59-8.649a7.73 7.73 0 0 0-1.567-.16 7.643 7.643 0 0 0-5.01 13.37L44.046 94.96 4.524 113a7.636 7.636 0 0 0-2.032 12.532 7.632 7.632 0 0 0 4.474 2.016l43.253 4.088-21.365 37.828a7.662 7.662 0 0 0 6.632 11.413 7.69 7.69 0 0 0 3.906-1.084l37.399-22.133 4.922 43.147a7.547 7.547 0 0 0 6.466 6.69c.384.057.77.085 1.158.083.428.001.856-.034 1.28-.102a7.589 7.589 0 0 0 5.694-4.508l17.253-39.889 29.35 32.022a7.523 7.523 0 0 0 5.602 2.495 7.781 7.781 0 0 0 3.565-.884 7.55 7.55 0 0 0 3.907-8.438l-9.499-42.375 42.59 8.649a7.737 7.737 0 0 0 1.563.156 7.638 7.638 0 0 0 5.005-13.366l-32.578-28.735 39.518-18.04a7.634 7.634 0 0 0-2.442-14.549l-43.249-4.092 21.361-37.823a7.662 7.662 0 0 0-6.612-11.398 7.691 7.691 0 0 0-3.907 1.084l-37.399 22.132-4.917-43.146a7.565 7.565 0 0 0-6.471-6.69 7.766 7.766 0 0 0-1.163-.084l-.044-.034ZM94.567 53.87a3.336 3.336 0 0 0 3.077-2.022l19.304-44.582a.831.831 0 0 1 .816-.571c.059-.005.117-.005.176 0a.854.854 0 0 1 .801.82l5.533 48.294a3.344 3.344 0 0 0 5.03 2.505l41.852-24.76a.979.979 0 0 1 .489-.16c.24.015.466.12.634.292a.853.853 0 0 1 .161 1.133L148.521 77.13a3.35 3.35 0 0 0 2.603 4.987l48.391 4.57a.936.936 0 0 1 .738 1.375.937.937 0 0 1-.44.413l-44.216 20.184a3.341 3.341 0 0 0-1.925 2.557 3.35 3.35 0 0 0 1.1 3.005l36.456 32.149a.853.853 0 0 1 .219 1.118.83.83 0 0 1-.771.527c-.085.007-.17.007-.254 0l-47.654-9.679a3.35 3.35 0 0 0-3.281 1.191 3.346 3.346 0 0 0-.655 2.823l10.626 47.42a.847.847 0 0 1-.488 1.035 1.152 1.152 0 0 1-.488.127.811.811 0 0 1-.64-.327l-32.847-35.826a3.38 3.38 0 0 0-3.028-1.04 3.356 3.356 0 0 0-2.52 1.953l-19.285 44.622a.82.82 0 0 1-.816.571 1.288 1.288 0 0 1-.175 0 .844.844 0 0 1-.796-.82l-5.509-48.284a3.353 3.353 0 0 0-3.882-2.921 3.366 3.366 0 0 0-1.148.42l-41.852 24.76a.85.85 0 0 1-1.133-.137.854.854 0 0 1-.161-1.128l23.905-42.321a3.35 3.35 0 0 0-2.603-4.986l-48.387-4.576a.942.942 0 0 1-.83-.776.937.937 0 0 1 .527-1.006l44.216-20.184a3.35 3.35 0 0 0 .826-5.563L15.888 61.215a.943.943 0 0 1 .552-1.646c.085-.001.17.007.254.024l47.653 9.68a3.419 3.419 0 0 0 3.063-.938 3.35 3.35 0 0 0 .874-3.081L57.657 17.839a.85.85 0 0 1 .488-1.035 1.05 1.05 0 0 1 .489-.127.836.836 0 0 1 .644.322l32.847 35.836a3.355 3.355 0 0 0 2.442 1.084v-.05Z"/><path fill="#fff" d="M92.17 108.161a.371.371 0 0 1-.361-.313c-.236-1.568-1.051-4.468-1.984-5.86a.377.377 0 0 1-.039-.328.364.364 0 0 1 .24-.229c1.025-.308 1.582-.733 1.582-2.08v-5.128a217.903 217.903 0 0 1-7.785 13.22.397.397 0 0 1-.244.161h-.063a.37.37 0 0 1-.225-.073l-5.821-4.396a.367.367 0 0 1-.069-.512 137.567 137.567 0 0 0 8.976-14.016.357.357 0 0 1 .26-.181h.063c.087 0 .172.031.239.088l4.669 4.02v-7.268a.366.366 0 0 1 .366-.366h7.11a.367.367 0 0 1 .367.366v3.643h5.606a.372.372 0 0 1 .366.367v5.435a.365.365 0 0 1-.366.366h-5.606v4.25l5.093-.875h.064a.363.363 0 0 1 .224.073.372.372 0 0 1 .142.26c.189 1.817.501 3.62.933 5.395a.364.364 0 0 1-.144.391.389.389 0 0 1-.135.059c-9.767 2.022-11.974 2.705-13.273 3.472a.394.394 0 0 1-.186.059Zm20.696-.137c-5.455 0-7.033-1.719-7.033-7.663v-15.32a.373.373 0 0 1 .367-.366h6.866a.373.373 0 0 1 .366.367v3.907h8.302a.37.37 0 0 1 .367.366v5.455a.37.37 0 0 1-.367.366h-8.302v5.177c0 1.387 0 1.387.679 1.387h2.042c.517 0 .727-.367.878-4.288a.357.357 0 0 1 .201-.313.388.388 0 0 1 .161-.039c.077 0 .152.024.215.069 1.245.874 4.048 1.865 5.933 2.28a.375.375 0 0 1 .289.4c-.645 6.061-2.472 8.21-6.984 8.21l-3.98.005ZM84.907 88.001a.35.35 0 0 1-.205-.063c-1.465-.977-4.37-2.564-8.912-4.84a.377.377 0 0 1-.196-.244.381.381 0 0 1 .064-.308l3.682-4.883a.376.376 0 0 1 .44-.118c2.93 1.246 7.056 3.116 9.186 4.298a.363.363 0 0 1 .122.532l-3.883 5.5a.367.367 0 0 1-.298.146V88Zm6.466-3.516a.366.366 0 0 1-.366-.366V71.42l-3.12 4.098a.373.373 0 0 1-.509.073c-1.567-1.123-4.732-2.862-7.276-4.258l-1.392-.767a.34.34 0 0 1-.18-.25.346.346 0 0 1 .073-.297l3.828-4.776a.377.377 0 0 1 .445-.103c1.284.606 5.47 2.588 8.13 4v-2.315a.366.366 0 0 1 .367-.366h27.812a.36.36 0 0 1 .366.366v17.298a.357.357 0 0 1-.225.34.359.359 0 0 1-.141.026l-27.812-.005Zm19.886-5.553v-.825H98.957v.845l12.302-.02Zm0-6.08v-.845H98.957v.845h12.302Z"/><path fill="#000" d="M82.72 65.488c2.485 1.172 6.416 3.062 8.653 4.278v-2.93h27.812v17.297H91.373V70.352l-3.78 4.957c-1.89-1.353-6.021-3.56-8.707-5.045l3.834-4.776Zm15.871 7.75h13.034v-1.577H98.591v1.577Zm0 6.066h13.034v-1.578H98.591v1.578Zm-18.958-1.397c2.637 1.128 6.964 3.067 9.157 4.283l-3.907 5.45c-1.953-1.309-6.168-3.468-8.957-4.884l3.683-4.883.024.034Zm33.409 7.086v4.346h8.658v5.455h-8.658v5.543c0 1.573.097 1.753 1.045 1.753h2.041c.894 0 1.094-.674 1.24-4.64 1.343.948 4.23 1.954 6.071 2.345-.645 6.08-2.442 7.882-6.618 7.882h-3.98c-5.42 0-6.666-1.802-6.666-7.296v-15.34h6.867v-.048Zm-13.982.273v4.01h5.973v5.435H99.06v5.05l5.523-.948a40.55 40.55 0 0 0 .948 5.45c-10.002 2.076-12.092 2.75-13.386 3.517-.25-1.666-1.094-4.596-2.037-5.992 1.04-.318 1.841-.811 1.841-2.442v-14.08h7.111Zm-12.385 3.517 5.074 4.37c-2.54 4.728-5.372 9.597-8.258 14.099l-5.821-4.395c3.28-4.5 6.288-9.194 9.005-14.055v-.02Zm-3.98-24.008a.734.734 0 0 0-.571.273l-3.834 4.776a.718.718 0 0 0 .22 1.09l1.392.766c2.534 1.392 5.689 3.126 7.242 4.234a.728.728 0 0 0 1.006-.151l2.466-3.233v11.618a.737.737 0 0 1 .6 1.128v6.461l-4.067-3.501a.713.713 0 0 0-.489-.176.605.605 0 0 0-.131 0 .713.713 0 0 0-.489.366 137.01 137.01 0 0 1-8.956 13.972.738.738 0 0 0 .146 1.026l5.822 4.395a.726.726 0 0 0 .444.146h.127a.734.734 0 0 0 .488-.327 216.124 216.124 0 0 0 7.11-11.98v3.702c0 1.138-.41 1.465-1.323 1.729a.733.733 0 0 0-.477.458.735.735 0 0 0 .082.656c.81 1.196 1.665 3.96 1.924 5.689a.715.715 0 0 0 .41.552.705.705 0 0 0 .313.073.741.741 0 0 0 .376-.102c1.23-.728 3.516-1.431 13.156-3.419a.663.663 0 0 0 .288-.127c.796 2.373 2.686 3.521 6.876 3.521h3.98c4.693 0 6.686-2.315 7.326-8.536a.734.734 0 0 0-.567-.796c-1.851-.406-4.6-1.373-5.806-2.227a.742.742 0 0 0-.425-.132.742.742 0 0 0-.733.703c-.039 1.07-.132 3.55-.425 3.931H113.803a8.118 8.118 0 0 1-.044-1.011v-4.81h7.926a.735.735 0 0 0 .733-.732v-5.44a.734.734 0 0 0-.733-.733h-7.926v-3.565a.612.612 0 0 0 0-.171h5.407a.734.734 0 0 0 .732-.733V66.841a.734.734 0 0 0-.732-.733H91.354a.732.732 0 0 0-.733.733v1.709c-2.666-1.387-6.407-3.16-7.608-3.726a.721.721 0 0 0-.313-.069l-.005.02ZM99.3 72.413h11.569v.112H99.299v-.112Zm0 6.08h11.569v.102H99.299v-.112.01Zm.381 6.397h5.782a.975.975 0 0 0 0 .171v3.629a.742.742 0 0 0-.41-.127h-5.24v-3.277a.732.732 0 0 0-.112-.396h-.02Zm.112 10.588h5.241a.74.74 0 0 0 .41-.122v4.556c-.054-.4-.098-.781-.127-1.128a.732.732 0 0 0-.733-.669h-.122l-4.668.801v-3.448.01ZM79.61 77.208a.727.727 0 0 0-.586.293l-3.678 4.884a.732.732 0 0 0 .254 1.099c4.527 2.27 7.428 3.843 8.874 4.815a.728.728 0 0 0 1.006-.18l3.882-5.45a.757.757 0 0 0-.01-.87.721.721 0 0 0-.234-.205c-2.139-1.192-6.305-3.072-9.22-4.317a.74.74 0 0 0-.288-.059v-.01Z"/><path fill="#fff" d="M69.705 139.855a.366.366 0 0 1-.367-.367v-9.034c-.317.244-.649.488-1.01.737a.374.374 0 0 1-.21.064h-.083a.367.367 0 0 1-.235-.181 22.193 22.193 0 0 0-2.617-3.463.341.341 0 0 1-.108-.297.364.364 0 0 1 .166-.274 21.31 21.31 0 0 0 6.315-6.275 28.098 28.098 0 0 1-3.009 2.007.382.382 0 0 1-.344.007.381.381 0 0 1-.13-.105 24.438 24.438 0 0 0-2.558-2.788.369.369 0 0 1-.127-.313.372.372 0 0 1 .19-.283c2.144-1.182 4.527-3.184 5.665-4.767a.36.36 0 0 1 .298-.151.289.289 0 0 1 .093 0l4.59 1.25a.356.356 0 0 1 .25.244.35.35 0 0 1-.069.342 29.75 29.75 0 0 1-3.965 3.849l4.395 1.113a.378.378 0 0 1 .249.21.356.356 0 0 1 0 .322c-.072.131-.15.262-.235.396h2.984v-1.25H76.6a.365.365 0 0 1-.366-.367v-3.125a.373.373 0 0 1 .366-.366h3.233v-2.257a.367.367 0 0 1 .367-.366h4.83a.367.367 0 0 1 .366.366v2.266h3.306a.373.373 0 0 1 .366.367v3.125a.367.367 0 0 1-.366.366h-3.306v1.251h3.765a.365.365 0 0 1 .366.366v.264a.367.367 0 0 1 .195-.059h9.704a.37.37 0 0 1 .366.366v3.365a.373.373 0 0 1-.366.366h-1.929v8.649c0 1.773-.332 3.013-1.987 3.697-1.5.654-3.419.708-5.646.708a.358.358 0 0 1-.361-.312 11.057 11.057 0 0 0-.684-2.301c-3.126.264-6.388.489-9.279.713l-3.833.284h-.03a.364.364 0 0 1-.361-.313l-.488-3.443a.368.368 0 0 1 .196-.377.387.387 0 0 1 .145-.038l1.803-.093c.874-.049 1.806-.092 2.788-.151v-1.841h-3.585a.367.367 0 0 1-.366-.366v-3.185a.37.37 0 0 1 .367-.366h3.584v-1.924h-3.8a.369.369 0 0 1-.366-.366v-1.807c-.288.391-.571.771-.854 1.128v14.436a.367.367 0 0 1-.366.366l-4.67-.019Zm21.336-4.498h.713v-8.581h-1.997a.371.371 0 0 1-.367-.366v-.371a.387.387 0 0 1-.195.059h-3.833v1.924h3.584a.371.371 0 0 1 .366.366v3.204a.367.367 0 0 1-.366.366h-3.584v1.465l4.009-.259a.37.37 0 0 1 .366.352l.059 1.811 1.245.03Zm-1.123-15.628a.371.371 0 0 1-.366-.366v-3.311a.373.373 0 0 1 .366-.366h8.927a.371.371 0 0 1 .366.366v3.311a.373.373 0 0 1-.366.366h-8.927Z"/><path fill="#000" d="M85.049 114.734v2.632h3.672v3.125H85.05v1.983h4.131v3.257H75.995v-2.969a30.206 30.206 0 0 1-1.587 2.159v14.567h-4.693v-9.796c-.51.425-1.039.824-1.588 1.196a22.51 22.51 0 0 0-2.68-3.54 21.535 21.535 0 0 0 6.773-6.959l4.551 1.147c-.175.313-.39.625-.566.938h4.024v-1.983h-3.6v-3.125h3.6v-2.632h4.83-.01Zm-13.518 0 4.586 1.25a31.185 31.185 0 0 1-7.76 6.461 24.964 24.964 0 0 0-2.613-2.838 19.635 19.635 0 0 0 5.787-4.873Zm27.304 1.328v3.311h-8.927v-3.311h8.927Zm.601 6.983v3.365h-2.295v9.015c0 1.719-.318 2.759-1.763 3.36-1.446.601-3.174.679-5.504.679a11.935 11.935 0 0 0-.81-2.632c-4.66.39-9.597.727-13.372 1.015l-.488-3.418c1.465-.078 3.106-.156 4.937-.264v-2.554h-3.95v-3.203h3.95v-2.266h4.835v2.266h3.95v3.203h-3.95v2.242l4.395-.284.068 2.164h2.105c.42 0 .562-.054.562-.366v-8.937h-2.364v-3.394h9.704l-.01.009Zm-27.905-9.044a.733.733 0 0 0-.334.081.73.73 0 0 0-.261.222c-1.11 1.543-3.444 3.501-5.543 4.659a.73.73 0 0 0-.377.566.747.747 0 0 0 .245.63c.908.845 1.749 1.76 2.515 2.735a.722.722 0 0 0 .581.283.726.726 0 0 0 .361-.093c.41-.234.826-.488 1.24-.761a21.119 21.119 0 0 1-4.922 4.395.718.718 0 0 0-.337.542.733.733 0 0 0 .215.601 21.981 21.981 0 0 1 2.559 3.379.73.73 0 0 0 .488.357h.166a.756.756 0 0 0 .416-.127l.44-.308v8.302a.732.732 0 0 0 .732.732h4.693a.734.734 0 0 0 .732-.732v-1.182a.739.739 0 0 0 .572.274h.058l3.844-.289c2.803-.205 5.953-.434 8.99-.683.254.63.443 1.285.567 1.953a.727.727 0 0 0 .723.63c2.241 0 4.229-.054 5.796-.737 1.827-.757 2.203-2.164 2.203-4.034v-8.302h1.563a.737.737 0 0 0 .732-.733v-3.325a.73.73 0 0 0-.733-.733h-9.561a.73.73 0 0 0-.714-.571h-3.418v-.518h2.93a.73.73 0 0 0 .733-.733v-.556c.135.116.31.177.488.171h8.927a.73.73 0 0 0 .733-.733v-3.311a.732.732 0 0 0-.733-.732h-8.927a.733.733 0 0 0-.733.732v.737a.74.74 0 0 0-.488-.166h-2.93v-1.889a.73.73 0 0 0-.733-.733H80.2a.73.73 0 0 0-.732.733v1.899h-2.954l.156-.18a.74.74 0 0 0-.371-1.182l-4.586-1.25a.817.817 0 0 0-.19-.025l.01.005Zm1.685 5.89a31.549 31.549 0 0 0 2.662-2.535v3.135a.306.306 0 0 0 0 .069l-2.667-.669h.005Zm4.2 1.333h2.06v.517h-2.021a.717.717 0 0 0-.03-.488l-.009-.029Zm-2.295 3.955.122-.156v.708a.73.73 0 0 0 .732.733h3.419v1.191h-3.218a.735.735 0 0 0-.733.733v3.204a.734.734 0 0 0 .733.732h3.218v1.133l-2.442.127-1.817.093h-.039v-8.498h.025Zm10.573 1.275h3.296a.734.734 0 0 0 .733.679h1.63v7.843h-1.24l-.044-1.465a.724.724 0 0 0-.244-.518.697.697 0 0 0-.488-.19h-.049l-3.594.234v-.723h3.218a.734.734 0 0 0 .732-.732v-3.174a.73.73 0 0 0-.732-.733h-3.218v-1.221Z"/><path fill="#fff" d="M105.716 139.83a.362.362 0 0 1-.185-.048 24.748 24.748 0 0 0-4.566-1.895.347.347 0 0 1-.254-.244.36.36 0 0 1 .073-.347c3.155-3.629 3.58-8.961 3.58-13.703v-7.712a.365.365 0 0 1 .366-.366h27.729a.37.37 0 0 1 .259.107.37.37 0 0 1 .107.259v7.038a.367.367 0 0 1-.109.257.365.365 0 0 1-.257.109h-22.176v.073h23.055a.365.365 0 0 1 .366.366v2.931a.365.365 0 0 1-.366.366h-3.204a29.633 29.633 0 0 1 3.697 2.593.368.368 0 0 1-.098.606l-2.812 1.225h.678c.097 0 .191.039.259.108a.363.363 0 0 1 .108.259v2.93a.366.366 0 0 1-.367.366h-7.603v.488h10.001a.366.366 0 0 1 .366.367v2.93a.36.36 0 0 1-.366.366h-25.433a.37.37 0 0 1-.26-.107.37.37 0 0 1-.107-.259v-2.852a14.618 14.618 0 0 1-2.173 3.609.363.363 0 0 1-.308.18Zm4.259-10.875a26.212 26.212 0 0 1-1.636 6.734.391.391 0 0 1 .2-.058h9.723v-.489h-7.501a.373.373 0 0 1-.258-.108.373.373 0 0 1-.108-.258v-2.93a.373.373 0 0 1 .108-.258.373.373 0 0 1 .258-.108h.361c-.214-.591-.713-1.69-1.142-2.525h-.005Zm18.684 2.505c-.288-.244-.63-.523-1.045-.85l-3.643.186v.664h4.688Zm-10.397 0v-.366c-2.442.146-3.907.259-4.883.366h4.883Zm-8.106-4.425c0 .274-.04.552-.069.84a6.188 6.188 0 0 0 1.836-.742l.171-.098h-1.938Zm9.185.367 3.351-.122a.394.394 0 0 1 0-.137.402.402 0 0 1 .024-.108h-2.793l-.582.367Zm7.565-7.873v-.258h-16.604v.258h16.604Z"/><path fill="#000" d="M132.464 115.881v7.038h-22.543v.805h23.441v2.931h-4.512a35.789 35.789 0 0 1 4.761 3.233l-4.126 1.797a20.46 20.46 0 0 0-1.729-1.465l-4.127.21v1.396h7.97v2.93h-7.97v1.226h10.368v2.93h-25.434v-2.93h10.09v-1.226h-7.868v-2.93h7.868v-1.118c-4.937.288-6.173.444-7.125.728a30.465 30.465 0 0 0-1.465-3.18 6.268 6.268 0 0 0 2.085-.805c.278-.157.737-.415 1.304-.782h-3.599c-.245 4.273-1.236 9.382-4.093 12.795a25.094 25.094 0 0 0-4.654-1.929c3.419-3.936 3.668-9.826 3.668-13.942v-7.712h27.729-.039Zm-22.504 4.015h17.356v-.977H109.96v.977Zm14.285 6.773h-4.396c-.595.391-1.196.782-1.831 1.148l5.86-.21-.776-.444 1.162-.489-.019-.005Zm8.277-11.515H104.74a.732.732 0 0 0-.733.732v7.712c0 4.673-.415 9.928-3.487 13.464a.721.721 0 0 0-.165.327.721.721 0 0 0 .198.67.743.743 0 0 0 .304.184c1.55.469 3.05 1.089 4.478 1.851a.726.726 0 0 0 .933-.161 13.683 13.683 0 0 0 1.529-2.256v1.265c0 .194.077.38.214.518a.735.735 0 0 0 .518.214h25.434c.194 0 .38-.077.518-.214a.735.735 0 0 0 .214-.518v-2.93a.732.732 0 0 0-.732-.733h-1.856a.73.73 0 0 0 .191-.488v-2.93a.759.759 0 0 0-.186-.489l1.758-.767a.72.72 0 0 0 .43-.556.736.736 0 0 0-.239-.664 24.671 24.671 0 0 0-2.672-1.954h1.954c.194 0 .38-.077.518-.214a.735.735 0 0 0 .214-.518v-2.931a.735.735 0 0 0-.214-.518.735.735 0 0 0-.518-.214h-.152v-7.155a.735.735 0 0 0-.214-.518.735.735 0 0 0-.518-.214l.063.005ZM108.9 135.245a26.087 26.087 0 0 0 1.28-5.064c.151.327.293.644.41.918a.734.734 0 0 0-.557.708v2.93a.728.728 0 0 0 .191.488l-1.324.02Zm16.39-4.171 2.212-.107.141.107h-2.353Z"/></g><defs><clipPath id="clip0_8_8303"><path fill="#fff" d="M.065-.001h207v207.586h-207z"/></clipPath></defs></svg>