<svg xmlns="http://www.w3.org/2000/svg" fill="none" viewBox="0 0 381 235"><g clip-path="url(#clip0_43_92)"><path fill="#000" d="m7.91 44.71 1.88-.34 5.69-1v2.19h-.85c-.71 0-2.59 0-4.54-.13l-3.53-.2 1.64 3.13a25.539 25.539 0 0 1 2.31 6.57l.25 1.71h1.75c4.27 0 7.64-.27 10.24-1.6a6.66 6.66 0 0 0 3.48-4.12 24.722 24.722 0 0 1 2.47 3.35l1 1.67 1.7-.92a68.911 68.911 0 0 0 6.76-4.17c2.41 4 5.39 6 8.87 6 4.91 0 7.61-2 9.12-7.21a39.093 39.093 0 0 1 4 2.92l1.78 1.54.26-.43c.086.33.153.663.2 1l.26 1.7h1.72c2.79 0 5.29-.1 7.47-1.28a5.84 5.84 0 0 0 2.87-3.93l1.47.88a15.61 15.61 0 0 1 4.31 3.95l1.36 2 1.7-1.71a33.443 33.443 0 0 0 5.41-7.11c.2 2.33.75 3.66 1.88 4.79a7.42 7.42 0 0 0 5.07 1.92h3.11a8.38 8.38 0 0 0 4-.88 6.1 6.1 0 0 0 3-3.67c.13-.416.234-.84.31-1.27l.91.77 5.78 4.83 1.82 1.53 1.19-2.06c1.08-1.85 2.16-3.78 3.23-5.76a20.426 20.426 0 0 1 1.65 5.62l.42 3.14 2.65-1.73c1-.68 3.19-1.4 11.87-3.4 1.12 2.32 3.35 3.57 7.57 3.57h4c4.41 0 6.55-2.07 7.64-5.48l3.08 4.68 1.91 2.9 1.55-3.1a21.777 21.777 0 0 1 2.78-4.53c.39.2.95.54 1.39.81.65.41 1.38.86 2.2 1.29 4.15 2.16 8.87 2.6 15.14 2.6 6 0 14.46-.31 18.55-.6l1.77-.13.09-1.77a27.423 27.423 0 0 1 2-6.87l1.43-3.35-3.6.6c-.88.15-1.86.28-2.9.41V30.38h-.59v-9.87H204v-9.43h-11.95c-.72-1.82-1.84-4-2.21-4.74l-.75-1.46-1.58.46-7 2-2.19.64.91 2.08c.14.32.28.65.42 1h-11.5v.42l-.45-1c-.62-1.35-1.25-2.74-1.79-4l-.76-1.65-1.76.65-6.22 2.27-1.93.7.75 1.91c.44 1.12 1 2.41 1.5 3.65.45 1.07.91 2.16 1.3 3.14h-4.56v10.37h3.45c-1 3-2 5.7-2.81 7.75l-.69 1.67V32.5h-8.59v-1.67h6.07v-23h-31.59V9.6c-2.3-1.27-4.74-2.54-5.67-3l-1.53-.8-1 1.4-3.8 5.23-1.27 1.75 1.85 1.13 1.39.85c2.48 1.5 5.57 3.38 7 4.54l1.67 1.32 1.21-1.75.11-.15v4.57c-2.26-1.32-6.07-3.22-8.8-4.5l-1.54-.73-1 1.41-3 4.39v-7h-.71l.85-.52-.71-1.6a40.849 40.849 0 0 0-5.61-8.25l-1-1.28-1.44.84-1 .55V5.93H85.4v6.14c0 2.06 0 4.17-.06 6.28h-2.62v-7.11h-7.46a45.781 45.781 0 0 0-1.83-4.41l-.67-1.43-1.55.32-6.56 1.39-2.33.49.88 2.2c.17.42.34.88.51 1.36h-7.76v5.55l-.47-.81c-1.55-2.66-4.88-6-7.47-8.25l-1.17-1-1.27.87-3.26 2.22V8.23l.05-2H30.83v2.12l-1.27-1.6-.86-1.09-1.32.42A114.323 114.323 0 0 1 8.01 10l-2.82.34 1.32 2.49a24.15 24.15 0 0 1 1.84 5.47l.21 1.21H6.84v10.76h8.67v1.77c-3.11.48-6 .85-8 1.11l-2.18.29.49 2.15 1.69 7.24.4 1.88Zm74.18-5.41c-.29-.73-.62-1.47-1-2.2v-8.44h3.46a46.13 46.13 0 0 1-2.46 10.64ZM15.51 19.41v.11h-.87l.87-.11Zm29.23.11h-2.12c-.06-.91-.11-1.82-.16-2.73.797.87 1.548 1.782 2.25 2.73h.03Zm2.13 23.8.3-.31c0 .293-.03.563-.09.81-.1-.16-.17-.32-.24-.5h.03ZM26.76 44.7v-3.51l2.18-.43 3.81-.74 1.28-.25c0 .14.07.28.11.41a49.274 49.274 0 0 1-7.41 4.52h.03Zm.3-14.42h-.3.3Zm-.3-10.76v-1.93c1.35-.28 2.84-.6 4.32-1 0 1 .11 1.93.17 2.9l-4.49.03Zm48.21 30.22v-.23l.45-.22-.45.45Zm31.54-1.08c.19-1.48.28-3.07.32-4.15l.07-1.51-1.39-.47a14.783 14.783 0 0 1-4.73-2.56l-1.75-1.68v-9.63h6l.8.44a95.243 95.243 0 0 1 8.66 5.18l.39.29a151.719 151.719 0 0 1-8 13.62l-.37.47Zm14.15-17.83v3.4l-1.85-1.77-.4-.37 1.66-2.57v1.31h.59Zm11.06 1.62v-1.62h3.06v1.62h-3.06Zm0 11.09v-1.11h3.06v.53l-3.06.58Zm13.87 2.93v-4h.33v.84c0 .62-.08 2.19-.18 3.15l-.15.01Zm26-26v8.9l-3.08-1.21c.9-2.63 1.77-5.34 2.5-7.65l.58-.04Zm-.54 19.76v3.18c-.15-.07-.29-.15-.43-.23l-.58-.31c.32-.81.66-1.69.97-2.6l.04-.04Zm-14.29-2.24h4.07a24.176 24.176 0 0 1-2.16 4.25 20.132 20.132 0 0 0-2.92 2.06l-1.33-.33a21.845 21.845 0 0 1-4.16-1.53h4v-4.41l2.5-.04ZM55.95 17.83v3.55h1.83v15.8h.61a39.374 39.374 0 0 1-1.43 5.21l-1-.42a16.74 16.74 0 0 1-5-3.54 47.313 47.313 0 0 0 3.37-5.19l1.1-1.94-2.05-.87-.37-.17h2.72V19.52h-2.22l1.37-.94 1.07-.75Z"/><path fill="#000" d="m201.93 26.08.68 1.21a52.993 52.993 0 0 1 3.18 7.5l1.09 3.57.9-1.09v19.37h10.81v-7.23l2.3 1.22a38.57 38.57 0 0 1 5 3.27l1.31 1.11 1.3-1.13a31.474 31.474 0 0 0 3.93-4.26v6.88h10.67v-7.62a23.631 23.631 0 0 1 2.2 4.06l.81 2.12 2-1.07 5.53-3 1.66-.89-.79-1.67a30.377 30.377 0 0 0-3.58-5.61h1.58v-9.37a45.687 45.687 0 0 1 3.12 5.73l1.11 2.65 1-.9v15.76h10.57v-3.11l5.38-.54c3.64-.36 7.7-.76 11.67-1.2.269.985.47 1.987.6 3l.19 1.78h1.8c3.2 0 6.27-.12 8.72-1.56 3.18-1.78 3.45-5.11 3.45-8.09V31.91h3.21V21.55h-14.35v-1.09h-.64v-1.87h14.17V8.32h-16.49v2.51h-2.81v-5h-10.77v5h-1.75l1-1.64-2.3-.85-6.42-2.37-1.63-.6-.83 1.46a29.509 29.509 0 0 1-7.1 8.22v-4.94h-13.53l.76-2.05-2.13-.56-6.31-1.73-1.69-.47-.66 1.67a20.548 20.548 0 0 1-3.92 6.23h-4.69c.32-.9.64-1.84 1-2.79l.66-2-2-.59-6.62-2-1.93-.57-.56 1.93c-1.95 6.76-5.37 13.57-8.93 17.78l-.93 1.12Zm66.37 15.66h4v1l-2.58.18-1.47.1.05-1.28Zm0-10.07v-1h4v1h-4Zm14.81 0v-1h2.66v1h-2.66Zm.67 10.07-.67.06v-.06h.67Zm4.86-.43v-9.4h.44v9.36l-.44.04Zm-34.4-13.19 2.38-2.39a30.67 30.67 0 0 1-3.78 4.1c.423-.604.891-1.176 1.4-1.71Zm11.7-10.8c.5-.59 1-1.2 1.47-1.81v2.32l-1.47-.51Zm-9 8-3.86-.56a35.112 35.112 0 0 1-5.56-1.27 29.058 29.058 0 0 0 3-4h2.89v-.17a47.192 47.192 0 0 1 2.68 4.1l1 1.73-.15.17Zm-5.53 6.64.58.77h-1c.13-.28.29-.54.45-.8l-.03.03Zm-32.85 16.83v-.46h.63l-.63.46ZM12.91 90.25v26h41.76v-11H24.36v-15h1.38v14.26h24V90.25h6.07V79.34h-6.07V68.62H38.23v10.72H36.9V68.18H25.74v11.16h-1.38V69.22H12.91v10.12h-6.4v10.91h6.42-.02Zm24 3.7v-3.7h1.33v3.7h-1.33Z"/><path fill="#000" d="M82.56 98.83v19.57h11.5v-13.48a36.28 36.28 0 0 0 4.77 2l1.58.52.8-1.45a26.978 26.978 0 0 1 4.39-5.61l2.8-2.54-3.68-.89a35.506 35.506 0 0 1-5.21-1.72h1.38V69.41h-40.2v25.82h1.51a36.087 36.087 0 0 1-5.58 2.1l-3.41 1 2.58 2.42a31.72 31.72 0 0 1 4.4 5.45l.85 1.42 1.55-.58a39.936 39.936 0 0 0 4.51-2c-.89 1.4-2.8 2.94-6.85 4.14l-3.56 1.06 2.82 2.39a24.221 24.221 0 0 1 4.42 5.25l.81 1.49 1.6-.55c8.59-3 12.95-8.52 12.95-16.55v-5.61h-1.18c.42-.46.83-.94 1.23-1.43h2.83c.42.54.86 1.06 1.32 1.58h-.94l.01 2.02Z"/><path fill="#000" d="M154.28 92.91v-2.3l.17.38c.513 1.208.96 2.443 1.34 3.7h-1.07v9.82h9.4a34.235 34.235 0 0 1-9.32 2.89l-4.06.7 3.06 2.76a28.178 28.178 0 0 1 4.3 5.44l.77 1.32 1.47-.39a31.133 31.133 0 0 0 13.63-7.6v8.75h11.21v-8.55a77.974 77.974 0 0 1 10.87 7.33l1.47 1.32 1.34-1.45 4.64-5 .2-.21.82.76 5.28 4.94 1.92 1.8 1.22-2.34c.37-.72.75-1.45 1.11-2.17l1.35.5a22.643 22.643 0 0 1 5.06 3l1.77 1.56 1.25-2a31.835 31.835 0 0 0 3-6.45l.06.08a20.16 20.16 0 0 1 2.21 5.06l.76 3.27 2.47-2.24c.87-.79 2.92-1.89 10.73-5.16a22.446 22.446 0 0 0 3.8 4.5l1.86 1.67 1.22-2.17a26.406 26.406 0 0 1 3.75-4.79l.47 3.48.26 1.91 1.92-.19c5.83-.56 15.59-1.5 24.36-2.47l1.81-.2v-3.3a24.848 24.848 0 0 1 2.07 5.92l.26 1.69h1.71c4.12 0 7.15-.28 9.54-1.65 3.18-1.78 3.62-4.94 3.62-8.1V90.44h3.21V79.83h-3.21V67.69h-10.92v12.14h-6.52v-1.58h-1.41l.34-.31 1.73-1.59 2.05-1.86-2.41-1.36-5.53-3.11-.71-.4v-1.83h-16.47v1.15l-1.35.92-4.19 2.86-1.9 1.3 1.55 1.7c.721.8 1.389 1.644 2 2.53h-2.32v7.38l-1.6-1.64-5-5.16c1.54-.39 3.07-.8 4.56-1.26l3.14-.94-2.28-2.36-5.67-5.87-.89-.92-1.2.42c-5.54 1.9-14.48 3.75-23.34 4.84l-1.76.21v.11c-2.33-1.58-5.52-3.38-7.45-4.44l-1.64-.9-1 1.59-3.36 5.28-1.07 1.68 1.69 1.08a76.825 76.825 0 0 1 8.33 5.82l1.75 1.56 1.25-2.06 1.47-2.43v7.59l-.91-.72a62.221 62.221 0 0 0-9.15-5.31l-1.65-.79-1.01 1.52-3.21 5.38c-.22-1-.45-1.89-.69-2.77l-.44-1.58c.85-1.15 1.65-2.3 2.37-3.43l1.14-1.77-1.84-1-4.94-2.81c.3-.61.57-1.21.81-1.79l.88-2.1-2.19-.6-5.73-1.58-1.89-.52-.56 1.88c-.445 1.457-1 2.877-1.66 4.25v-2.36h-3.81l.29-.64 1-2.37-2.55-.42-6.37-1-2.15-.35-.17 2.17a24.206 24.206 0 0 1-.37 2.64h-4.21l.29-.67-2.05-.7-5.48-1.87-2-.69-.58 2a32.388 32.388 0 0 1-3.51 7.74c-.67 1-1 1.14-1 1.15l-2.24.59.92 2.12a49.27 49.27 0 0 1 1.69 4.78l.4 1.46a2.363 2.363 0 0 1-.89.55l-1.55.35v-6H146l.4-.83h5.65V71.39h-16.12a20.59 20.59 0 0 0-1.64-3.39l-.69-1.12-1.3.19-7.55 1.08-2.81.4 1.32 2.51.17.33h-15.11v10.32h6.07c.12.26.25.54.37.83h-9.15v10.37h5.72v25.72h11.18v-1.58h15v1.58h11.56V92.91h5.21Zm31.17 11.6-.27.28v-.28h.27Zm92.87-15.25v.1h-.05l.05-.1Zm-23.05 9.87v7.13h-.47l-2.12.16v.09a19.156 19.156 0 0 1-3.7-5.82l.35-.25c1.33-.95 2.85-2 4.44-3l.84-.52v2.2l.66.01Zm-16.93 4.55v-1.61c.13.49.27 1 .41 1.45l-.41.16Zm7.58-15.12.79-.19-.6.84-.08.11c-.04-.25-.07-.49-.11-.76Zm-17.8 16.58v1.42a2.259 2.259 0 0 1-.78 1.93c.29-1.07.55-2.19.78-3.35Zm56.07.39 4.25-1.49v3.73c-1.13 0-2.89 0-4.58-.1l-1.77-.07v-1.32l2.1-.75Zm-27.68-17.5.39.48c.23.28.44.56.66.85h-2.93v5.47l-.43-.46-5-5.38-1-1c.93-.24 1.77-.49 2.56-.74l2.43-.77v1.56h3.32v-.01Zm23.69 16.11v-5h.44c.439 1.532.731 3.102.87 4.69v.23l-1.31.08Zm-61-15.23c0 2.95-.14 6-.46 9l-2.85-3 2.91-5.24.4-.76Zm-15.13 1.76a71.373 71.373 0 0 1 7.7 5 145.204 145.204 0 0 1-7.47 14.24l-1-.8a63.93 63.93 0 0 0-7.08-4.58h7.64v-8l1-.25-.24-1.77c-.15-1-.38-2.43-.68-3.91l.13.07ZM170.14 72.1v3.21l-1.16-.65c.27-.54.52-1.08.75-1.61l.41-.95Zm-43.52 9.61h7.33c-.08.28-.17.56-.26.83h-6.78c-.1-.28-.2-.55-.31-.83h.02ZM14.77 179.1h2v-7.49l1.42 3.84.49 1.3H25.12l.48-1.31 1.46-3.97v7.63h10.09v-31.77H26.49l-.47 1.33-4 11.26-4.15-11.28-.48-1.31H6.79v31.77h7.98ZM78.28 147.33h-11.7l-.5 1.24-2 5-.12.28-.16-.36-2.24-5-.53-1.17H39.51v31.77h20.73l.53-1.19 2.39-5.42c.07-.16.14-.33.22-.5l.24.53 2.59 5.44.54 1.14h12.06l-1.61-3-7.14-13.06 6.67-12.83 1.55-2.87Zm-27.77 2.94 6.7 12.53-7 13.09V149.7l.3.57ZM99.14 146.83c-8.95 0-14.73 6.39-14.73 16.26 0 10.06 5.78 16.56 14.73 16.56s14.73-6.5 14.73-16.56c0-9.9-5.78-16.26-14.73-16.26Zm3.94 16.26c0 3.3-1 6.81-3.94 6.81-3.62 0-3.9-5.21-3.9-6.81 0-2 .38-6.54 3.9-6.54s3.94 4.54 3.94 6.51v.03ZM132.74 147.33h-2v10.99l-5.15-9.91-.56-1.08h-10v31.77h10.34v-11.12l5.14 10.03.56 1.09h10.02v-31.77h-8.35ZM157.47 177.1v2H168.16v-22.25h7.54v-9.52h-25.73v9.52h7.5v20.25ZM191.82 179.1h10.61v-31.77h-10.61v10.56h-5.14v-10.56H175.99v31.77H186.68v-11.42h5.14v11.42ZM224.51 156.85h2v-9.52h-21.62v31.77h22.03v-9.6h-11.35v-1.89h9.3v-9.6h-9.3v-1.16h8.94ZM259.83 147.33h-2v2.86a14.93 14.93 0 0 0-9.5-3.39c-6.88 0-12.08 4.48-12.08 10.4 0 4.28 2.52 7.74 6.9 9.48l3.51 1.47.49.21a10.71 10.71 0 0 1 2.21 1.09c.004.04.004.08 0 .12a2.79 2.79 0 0 1-1.61.3 9.305 9.305 0 0 1-5.46-2.36l-1.55-1.31-1.29 1.57-3.77 4.59-1.17 1.47 1.39 1.28a17.508 17.508 0 0 0 11.74 4.52c6.26 0 12.6-3.67 12.6-10.7 0-4.48-2.27-7.67-6.74-9.47l-3.48-1.38-.42-.16a14.016 14.016 0 0 1-2.52-1.16 2.702 2.702 0 0 1 1.3-.23 7.077 7.077 0 0 1 4.51 1.72l1.56 1.17 1.21-1.52 2.22-2.8v1.73h7.51v22.25h10.68v-22.25h7.54v-9.5h-23.78ZM320.97 169.5v-1.9h9.3V158h-9.3v-1.17h10.94v-9.5h-21.62v29.17l-.22-.38-5.24-9.29a10.37 10.37 0 0 0 4.08-8.74c0-4-1.67-10.73-12.86-10.73h-12.2v31.77h10.66v-9.78l4.55 8.71.56 1.07h32.67v-9.6h-11.32v-.03Zm-22.59-11.44c0 .75 0 2-2.86 2h-1v-3.47h1c2.86 0 2.86.65 2.86 1.47ZM378.93 147.33H333.81v31.77h22.03v-9.6h-11.35v-1.89h9.3v-9.6h-9.3v-1.16h18.22v22.25h10.68v-22.25h7.54v-9.52h-2ZM45 216.23h-5.07l2.18-24.83h-11L8.3 215.96l-.18.2-.91 10.35h20.45l-.66 7.55h11.35l.67-7.55h5.07l.91-10.28Zm-24.71 0 9.14-9.75-.85 9.75h-8.29ZM57.06 191.4 42.8 234.75h7.32l14.32-43.35h-7.38ZM91.2 192.83a25.067 25.067 0 0 0-9.4-1.41 24.38 24.38 0 0 0-9.32 1.48 13.606 13.606 0 0 0-5.65 4.33 20.337 20.337 0 0 0-3.21 7.7l-.2.88 12.74 1 .15-.66a8.431 8.431 0 0 1 2-4.36 4.416 4.416 0 0 1 3.11-1.15 3.607 3.607 0 0 1 2.75 1.07 3.09 3.09 0 0 1 .87 2.55 6.001 6.001 0 0 1-1.52 3.18 36.66 36.66 0 0 1-6.64 5.42c-5.77 4-9.84 7.57-12.09 10.55a24.002 24.002 0 0 0-4.48 9.7l-.19.94h35.39l.94-10.72H80.11c.48-.39.91-.75 1.3-1.05.8-.6 2.4-1.69 4.78-3.25 4.1-2.72 7-5.27 8.72-7.57a14.742 14.742 0 0 0 2.92-7.45 11.1 11.1 0 0 0-1.44-6.73 10.729 10.729 0 0 0-5.19-4.45ZM117.37 223.67h17.88l.9-10.24h-17.89l-.89 10.24ZM192.43 216.23h-5.07l2.15-24.83h-11l-22.81 24.56-.19.2-.9 10.35h20.5l-.66 7.55h11.35l.66-7.55h5.05l.92-10.28Zm-24.71 0 9.14-9.75-.85 9.75h-8.29ZM204.49 191.4l-14.26 43.35h7.31l14.33-43.35h-7.38ZM240.4 211.71a8.83 8.83 0 0 0-1.95-.94 13.396 13.396 0 0 0 3.33-3 9.789 9.789 0 0 0 2-5.15 9.277 9.277 0 0 0-3.14-8.06c-2.35-2.12-6.18-3.15-11.7-3.15-4.73 0-8.54.95-11.33 2.84a15.788 15.788 0 0 0-6.06 8.16l-.31.86 12.08 2.2.17-.72a7.3 7.3 0 0 1 1.81-3.8 4.002 4.002 0 0 1 2.81-1 3.007 3.007 0 0 1 2.4.88 2.996 2.996 0 0 1 .64 2.36 4.108 4.108 0 0 1-1.51 2.81 4.728 4.728 0 0 1-3.28 1.22 10.77 10.77 0 0 1-1.33-.13l-.77-.12-1.6 10 1.18-.33a14.182 14.182 0 0 1 3.49-.63 3.898 3.898 0 0 1 3.19 1.27 5.006 5.006 0 0 1 .88 3.78 5.999 5.999 0 0 1-1.66 3.93 4.548 4.548 0 0 1-3.35 1.42 3.793 3.793 0 0 1-2.87-1.07c-.72-.74-1.2-2.17-1.42-4.24l-.09-.8-13 1.7.17.83a16.45 16.45 0 0 0 2.74 6.57 12.25 12.25 0 0 0 5.23 4.05 23.552 23.552 0 0 0 8.89 1.36c3.299.11 6.582-.515 9.61-1.83a14.937 14.937 0 0 0 6.07-5.26 15.352 15.352 0 0 0 2.57-7.13 10.245 10.245 0 0 0-.77-5.23 8.343 8.343 0 0 0-3.12-3.65Z"/><path fill="#EEB033" d="M41.81 51.06c-3.37 0-6.24-2.19-8.55-6.5a69.998 69.998 0 0 1-7.56 4.75l-.85.46-.49-.84a27.41 27.41 0 0 0-3.93-4.94c-.28 2.38-1.13 4.2-3.34 5.33-2.43 1.23-5.67 1.49-9.79 1.49h-.86l-.13-.86a26.33 26.33 0 0 0-2.41-6.93l-.82-1.57 1.76.1c2 .12 3.89.13 4.62.13h1.83v-4.36l-7.78 1.4-2.14-9.26 1.1-.14c2.19-.28 5.41-.7 8.85-1.24v-3.63H2.6v-8.76h8.69v-2.25c-2.3.31-4.31.53-6.12.69l-.92.08-.15-.91a25.08 25.08 0 0 0-1.94-5.74l-.65-1.27 1.41-.17a114.75 114.75 0 0 0 19.56-4l.66-.21 3.51 4.44v-4h9.53v4.42l5.47-3.71.59.5c2.53 2.19 5.77 5.45 7.26 8l.47.8-4.76 3.3h4.3v8.76h-6.58l5.86 2.52-.54 1a48.666 48.666 0 0 1-3.81 5.73l.47.51a17.58 17.58 0 0 0 5.47 3.9l.69.29-.09.75c-1.07 9.03-3.3 11.94-9.17 11.94Zm-1.3-12.8a8.23 8.23 0 0 0 1.86 3.36c.22-.54.59-2.06.8-6.33-.86 1.01-1.74 2-2.66 2.97Zm-20 3.19a51.182 51.182 0 0 0 9.52-5.7 88.363 88.363 0 0 1-2.12-11.3h-7.4v2.22l7-1.12.64 8.48-7.64 1.5v5.92Zm16.85-17c.16 1.12.34 2.26.54 3.36a30.947 30.947 0 0 0 2.15-3.36h-2.69Zm4-8.76a36.435 36.435 0 0 0-5.27-6.29c.047 2.073.15 4.17.31 6.29h4.96Zm-14.32 0c-.13-1.75-.23-3.48-.31-5.18-2.14.58-4.37 1-6.26 1.42v3.76h6.57Z"/><path fill="#000" d="m22.8 3.11 4.84 6.12c-2.52.74-5.28 1.34-8.1 1.88v5.58h8.64c-.34-4.45-.54-9-.54-13.33h7.5a132.03 132.03 0 0 0 .4 13.33h13v6.76H36.23c.34 2.37.69 4.64 1.13 6.71a33.613 33.613 0 0 0 3.71-5.43l6.32 2.72a50.483 50.483 0 0 1-8 10.56c1 3 2.17 4.74 3.21 4.74.84 0 1.38-2.32 1.63-7.9A18.63 18.63 0 0 0 50.05 39c-1.08 9-3.26 11.06-8.19 11.06-3.41 0-6.12-2.67-8.2-7a65.628 65.628 0 0 1-8.39 5.38 28.22 28.22 0 0 0-4.79-5.83 52.252 52.252 0 0 0 10.76-6.46 88.926 88.926 0 0 1-2.36-12.69h-9.37v4.37l7.11-1.13.5 6.51-7.61 1.49v7c0 3.66-.69 5.58-2.91 6.72-2.22 1.14-5.33 1.38-9.33 1.38a27.73 27.73 0 0 0-2.51-7.26c1.62.1 3.37.13 4.66.13h1.65c.89 0 1.19-.25 1.19-1v-5.52l-8 1.48-1.67-7.26c2.66-.34 6.07-.79 9.72-1.38v-5.48H3.6v-6.76h8.69v-4.4c-2.47.35-4.89.65-7.21.84a25.999 25.999 0 0 0-2-6 115.731 115.731 0 0 0 19.74-4l-.02-.08Zm18.71 1.24a37.448 37.448 0 0 1 7.06 7.75l-5.78 4c-1.13-2.32-4.09-5.73-6.66-8.1l5.38-3.65Zm-18-3.52-1.32.42A115.099 115.099 0 0 1 2.82 5.13L0 5.47l1.27 2.54a23.749 23.749 0 0 1 1.84 5.46l.21 1.22H1.6v10.76h8.69v1.77c-3.11.48-6 .85-8 1.11l-2.19.28.5 2.15 1.67 7.26.43 1.86 1.88-.35 5.69-1v2.19h-.84c-.72 0-2.59 0-4.55-.12l-3.53-.21L3 43.52a25.8 25.8 0 0 1 2.3 6.62l.25 1.71h1.73c4.27 0 7.64-.27 10.24-1.6A6.63 6.63 0 0 0 21 46.13a23.293 23.293 0 0 1 2.51 3.3l1 1.68 1.7-.93a68.837 68.837 0 0 0 6.76-4.16c2.41 4 5.39 6 8.88 6 6.38 0 9-3.36 10.18-12.82l.18-1.5-1.39-.58a16.701 16.701 0 0 1-5-3.55 48.294 48.294 0 0 0 3.38-5.18l1.09-1.94-2.05-.88-.37-.16h2.64V14.69h-2.18l1.37-1 1.52-1-.93-1.6c-1.55-2.66-4.88-6-7.48-8.26l-1.16-1-1.27.86-3.27 2.22V3.4l.05-2H25.64v2.12l-1.27-1.69-.86-1Zm-2 12c1.36-.27 2.84-.59 4.32-1 .05 1 .11 1.92.17 2.9h-4.49v-1.94.04Zm15.86 1.94c-.06-.92-.11-1.83-.15-2.73.85.93 1.63 1.86 2.28 2.73h-2.13Zm-28 0 .86-.11v.11h-.86Zm12.14 10.68h.31-.31Zm0 10.9 2.19-.42 3.8-.74 1.29-.26c0 .14.07.28.1.42a50.001 50.001 0 0 1-7.38 4.48v-3.51.03Zm20.12 2.14c.09-.11.19-.21.29-.32 0 .3-.03.57-.09.81l-.2-.49Z"/><path fill="#EEB033" d="M76.13 50.62a16.748 16.748 0 0 0-4.63-4.25l-1.13-.67 1-.91a25.357 25.357 0 0 0 3-3.39l-3.86 1.83-.23-1.29a28.078 28.078 0 0 0-1.42-4.71v6c0 2.9-.44 4.95-2.63 6.2-2 1.09-4.26 1.17-7 1.17h-.86l-.13-.85a20.583 20.583 0 0 0-.86-3.28l-.87 1.36-.88-.77c-1.456-1.21-3-2.31-4.62-3.29l-1-.52.6-.9c1.57-2.39 2.93-6.35 3.76-10.94h-.82v-15.8h-1.83V7.34h8.15c-.31-1-.64-1.91-1-2.72l-.36-1.11 8.5-1.79.34.72a45.485 45.485 0 0 1 2 4.9h7.16v7.11h4.6c.07-2.44.08-4.91.09-7.3v-5.1h8.71v2.86l3.19-1.86.55.64a40.287 40.287 0 0 1 5.48 8l.35.8-3.1 1.91h3.23v8.43h-6.8v20h.13c0-.14.06-.37.1-.74.09-.8.14-2.84.14-5.47v-2.39l1.69 1.63a15.78 15.78 0 0 0 5.1 2.78l.72.24v.75a32.673 32.673 0 0 1-.79 6.55 5.13 5.13 0 0 1-2.58 3.14 7.29 7.29 0 0 1-3.46.75h-3.11a6.5 6.5 0 0 1-4.36-1.63c-1.26-1.27-1.67-2.84-1.67-6.48v-1.61a34.45 34.45 0 0 1-7 10.41l-.85.85-.74-.99Zm-17-7.94h1.38v-3.72c-.43 1.31-.88 2.56-1.36 3.72h-.02Zm15.23-11.32a41.87 41.87 0 0 1 2.46 5.8 44.141 44.141 0 0 0 3.69-14.33h-5.4v-7.26h-.17v15.8l-.58-.01Zm-8-7.43v-1.16h-4.65v1.16h4.65Zm25.45-9.48a37.265 37.265 0 0 0-2.09-3.55c0 1.18-.07 2.37-.13 3.55h2.22Z"/><path fill="#000" d="M66.44 2.83a41.065 41.065 0 0 1 2.12 5.47h6.95v6.22H52.76V8.34h8.49a40.838 40.838 0 0 0-1.38-4.09l6.57-1.42Zm22.46.19v3.61l4-2.32a39.268 39.268 0 0 1 5.33 7.8l-4.89 3a40.136 40.136 0 0 0-4.49-7.28c-.05 2.52-.1 5.09-.25 7.65h10v6.35H88.16l-.2 1.68h3.85v18.61a4.63 4.63 0 0 0 .1 1.43.55.55 0 0 0 .49.25h.74a.579.579 0 0 0 .5-.2c.19-.1.29-.49.39-1.43.1-.94.15-3 .15-5.58a16.8 16.8 0 0 0 5.48 3 30.134 30.134 0 0 1-.74 6.27 4.161 4.161 0 0 1-2.08 2.57 6.41 6.41 0 0 1-3 .64h-3.11a5.51 5.51 0 0 1-3.65-1.33c-.94-.94-1.38-2.13-1.38-5.78v-7.21a35.7 35.7 0 0 1-8.74 15.31 17.56 17.56 0 0 0-4.93-4.55c6.41-6.07 8.73-14.56 9.62-23.69h-5.54v-6.37h5.92c.15-4.14.1-8.29.15-12.39h6.72v-.04Zm-15 13.27v14.07h-6.12v12.83c0 2.72-.4 4.35-2.12 5.33-1.72.98-3.8 1-6.52 1a23.997 23.997 0 0 0-1.73-5.53 22.402 22.402 0 0 1-1.18 2.22 39.19 39.19 0 0 0-4.72-3.38c1.93-2.91 3.26-7.45 4-11.8l5.73 1.24a54.845 54.845 0 0 1-3.56 11.35c1.28.05 2.67.05 3.16.05.49 0 .69-.15.69-.64V30.36h-6.91V16.29h19.35-.07Zm-13.19 8.64h6.71v-3.16h-6.71v3.16Zm12.05 5.53a36.82 36.82 0 0 1 3.65 8.83l-5.19 2.47a36.45 36.45 0 0 0-3.35-9.08l4.89-2.22ZM67.57.58l-1.54.33-6.52 1.38-2.33.49.89 2.21c.16.42.33.87.5 1.35h-7.76v10.22h1.83v15.8h.61a28.19 28.19 0 0 1-3.39 9.38l-1.19 1.81 1.89 1.05c1.562.941 3.05 2 4.45 3.17l1.78 1.53.27-.43c.08.36.15.69.19 1l.26 1.7h1.72c2.8 0 5.29-.09 7.47-1.28a5.79 5.79 0 0 0 2.87-3.92l1.47.87a15.35 15.35 0 0 1 4.31 4l1.36 2 1.71-1.7a34.252 34.252 0 0 0 5.4-7.11 7 7 0 0 0 1.88 4.79 7.47 7.47 0 0 0 5.07 1.92h3.11a8.542 8.542 0 0 0 4-.88 6.142 6.142 0 0 0 3-3.68 32.23 32.23 0 0 0 .85-6.84l.06-1.5-1.43-.48a15 15 0 0 1-4.73-2.55l-1.75-1.69v-9.69h6.76V13.45h-.7l.84-.52-.71-1.6a41.471 41.471 0 0 0-5.63-8.28l-1.15-1.22-1.45.84-.94.55V1.14H80.21v6.13c0 2.07 0 4.18-.07 6.28h-2.63V6.34h-7.45c-.49-1.39-1.13-3-1.77-4.33L67.61.58h-.04Zm8.37 23.25h3.46a45.905 45.905 0 0 1-2.49 10.64c-.3-.73-.63-1.47-1-2.2v-8.44h.03Zm-6.17 20.85.46-.22-.48.45v-.23h.02Z"/><path fill="#EEB033" d="M116.68 50.04a20.229 20.229 0 0 0-1.88-6.17l-.66-1.08 1.19-.4c.71-.23 1.15-.44 1.15-1.71v-2.94c-2.11 4.16-4.33 8.29-6.53 12.08l-.6 1-7.38-6.19.51-.74a154.426 154.426 0 0 0 8.87-15.29l.61-1.2 4.52 4.29v-6.73h-.6v-12.9l-2.53 3.67-.84-.66c-1.52-1.2-4.64-3.09-7.15-4.61l-2.31-1.41 4.94-6.81.76.4c1.14.59 4.52 2.36 7.13 3.84V4.04h29.63v21h-6.08v3.68h8.59v8h-6.12l1.44 1.12a18.23 18.23 0 0 0 5.65 2.39l.84.2-.08.87c-.67 7-2.72 9.54-7.56 9.54h-4c-4.14 0-6.11-1.26-7-3.74h-.06c-9.52 2.18-11.76 2.94-12.95 3.71l-1.33.87-.17-1.64Zm24.67-7.4c.227-1.362.344-2.74.35-4.12l.07-1.88h-2.37v6h1.95Zm-15.84-2.73 5.05-1v-2.37h-5.05v3.37Zm5.05-11.29v-3.63h-5.05v3.63h5.05Zm-20.72 0a96.65 96.65 0 0 0-8.77-5.25l-1-.54 4.76-6.94.77.37c2.91 1.37 7.06 3.44 9.18 4.74l.87.53-5 7.73-.81-.64Z"/><path fill="#000" d="M108.29 3.56c2.47 1.28 6.37 3.35 8.59 4.69V5.04h27.63v19h-27.6V8.94l-3.75 5.43c-1.87-1.48-6-3.9-8.64-5.53l3.8-5.23-.03-.05Zm15.78 8.54H137v-1.73h-12.96v1.73h.03Zm-.03 6.66h12.93v-1.73h-12.93v1.73Zm-18.81-1.53c2.62 1.24 6.91 3.36 9.09 4.69l-3.81 5.91a103.114 103.114 0 0 0-8.89-5.33l3.65-5.33-.04.06Zm33.21 7.74v4.69h8.59v6h-8.59v6.07c0 1.73.1 1.93 1 1.93h2c.88 0 1.08-.74 1.23-5.09a19.22 19.22 0 0 0 6 2.57c-.64 6.67-2.42 8.64-6.56 8.64h-4c-5.38 0-6.62-2-6.62-8v-16.8h6.81l.14-.01Zm-13.93.26v4.39h6v6h-6v5.53l5.48-1c.193 2.017.506 4.02.94 6-9.92 2.27-12 3-13.28 3.85a20.943 20.943 0 0 0-2-6.57 2.368 2.368 0 0 0 1.83-2.66V25.23h7.03Zm-12.29 3.85 5 4.78c-2.52 5.19-5.33 10.52-8.2 15.46l-5.77-4.84c3.27-4.958 6.251-10.1 8.93-15.4h.04ZM107.63.99l-1 1.39-3.8 5.23-1.28 1.76 1.85 1.13 1.39.84c2.48 1.51 5.58 3.38 7 4.55l1.67 1.32 1.22-1.76.1-.15v4.58c-2.26-1.33-6.07-3.22-8.79-4.51l-1.54-.72-1 1.4-3.65 5.33-1.24 1.82 1.92 1.06a93.213 93.213 0 0 1 8.66 5.19l.39.28a147.514 147.514 0 0 1-8 13.63l-1 1.49 1.38 1.16 5.78 4.84 1.82 1.52 1.19-2c1.08-1.85 2.16-3.79 3.23-5.76a20.469 20.469 0 0 1 1.65 5.61l.42 3.15 2.66-1.74c1-.68 3.18-1.4 11.86-3.4 1.12 2.32 3.35 3.58 7.58 3.58h4c6.26 0 7.95-4.18 8.55-10.45l.17-1.72-1.69-.41a22.159 22.159 0 0 1-4.16-1.54h4v-10h-8.59v-1.68h6.13v-23h-31.6v1.82c-2.3-1.27-4.74-2.55-5.66-3l-1.53-.79-.09-.05Zm5.54 26.26 1.65-2.57v1.31h.6v3.4l-1.86-1.76-.39-.38Zm13.3-1.26h3.06v1.63h-3.02v-1.63h-.04Zm0 11.6h3.06v.54l-3.06.58v-1.12Zm13.87.05h.33v.85c0 .62-.07 2.19-.18 3.15h-.12v-4h-.03Z"/><path fill="#EEB033" d="m148.63 42.69.54-.58a21.57 21.57 0 0 1 5-3.92 25.977 25.977 0 0 0 2.89-6h-7l.57-1.38c1-2.38 2.12-5.58 3.26-9.13h-3.83v-8.37h5c-.48-1.29-1.17-2.93-1.84-4.54-.53-1.26-1.06-2.52-1.49-3.62l-.38-1 8.07-2.94.37.86c.55 1.24 1.18 2.63 1.8 4 .75 1.62 1.45 3.15 2 4.36l.39.93-4.55 1.92h4.56V7.25h12c-.3-.8-.64-1.66-1-2.41l-.48-1.01 8.84-2.57.38.73a51.525 51.525 0 0 1 2.41 5.29h11.57v7.43h-4.15v11.87h.59v13.75c1.48-.16 2.86-.34 4.07-.54l1.8-.3-.71 1.68a28.239 28.239 0 0 0-2.1 7.21v.88l-.89.07c-4.07.28-12.46.59-18.48.59s-10.7-.41-14.67-2.48c-.79-.41-1.51-.86-2.15-1.25a8.202 8.202 0 0 0-2.13-1.11c-.37.13-1.66 1.64-3.45 5.22l-.78 1.56-6.03-9.17Zm14.88-4.19c.41.24.86.49 1.34.75.62.338 1.269.62 1.94.84V27.4a46.136 46.136 0 0 1-3.28 11.1Zm21.59-4v-1h-9.59v1h9.59Zm-17.76-8V14.68h-2.31c-.85 2.68-1.92 6-3 9.22l5 2-.1.62.41-.02Z"/><path fill="#000" d="M182.88 2.42a50.285 50.285 0 0 1 2.42 5.33l-1.58.5h13v5.43h-31.76V8.25h12.44c-.45-1.24-1-2.67-1.48-3.8l7-2-.04-.03Zm-23.96.13c1.18 2.71 2.81 6.12 3.75 8.34l-6.42 2.72c-.79-2.27-2.47-6-3.55-8.79l6.22-2.27Zm5.23 11.8c-1.09 3.45-2.32 7.3-3.55 10.76h.19l1-.2 4.15 1.68a44.773 44.773 0 0 1-3.71 12.34c.6.35 1.34.79 2.18 1.23 3.35 1.88 8.24 2.13 13.77 2.13 6.775-.043 13.539-.53 20.25-1.46a29.005 29.005 0 0 0-2.18 7.55c-4.19.29-12.63.59-18.41.59-6.46 0-10.61-.49-14.21-2.37-2.08-1.09-3.76-2.47-4.74-2.47-1.19 0-3.11 3.31-4.35 5.78l-4.64-7.08a20.355 20.355 0 0 1 4.94-3.85 27.152 27.152 0 0 0 3.55-7.75h-6.88c1.19-2.86 2.52-6.71 3.7-10.51h-4.19v-6.37h13.13Zm28.43.49v5h-24.22v-5h24.24-.02Zm.02 6.32v5h-24.24v-5h24.24Zm.59 6.42v13h-25.37v-13h25.37Zm-18.65 8h11.59v-3h-11.62v3h.03ZM159.97 0l-1.77.64-6.22 2.27-1.92.71.75 1.9c.44 1.12 1 2.41 1.5 3.66.45 1.07.9 2.16 1.3 3.14h-4.57v10.37h3.47c-1 3-2 5.69-2.82 7.74l-1.18 2.77h7.07a24.026 24.026 0 0 1-2.17 4.24 22.515 22.515 0 0 0-5 4l-1.08 1.15.86 1.32 4.64 7.06 1.91 2.9 1.55-3.11a21.771 21.771 0 0 1 2.79-4.52c.38.19.94.54 1.38.81.65.4 1.39.86 2.2 1.28 4.15 2.17 8.87 2.6 15.14 2.6 6 0 14.47-.31 18.55-.6l1.77-.12.09-1.77a27.793 27.793 0 0 1 2-6.87l1.42-3.36-3.59.6c-.89.15-1.87.29-2.91.41V25.55h-.59v-9.87h4.15V6.25h-11.82c-.73-1.83-1.85-4-2.21-4.74L183.9.04l-1.58.46-7 2-2.18.63.9 2.08c.14.32.28.66.42 1h-11.5v.41l-.45-1c-.61-1.35-1.25-2.74-1.79-4l-.75-1.72V0Zm5.82 15.68h.57v8.89l-3.07-1.24c.9-2.63 1.77-5.35 2.5-7.65Zm-1 22.39c.36-.84.7-1.73 1-2.64v3.18l-.43-.22-.58-.32h.01Z"/><path fill="#EEB033" d="M203.59 50.83V29.64l-1.48 1.81-.55-1.78a53.108 53.108 0 0 0-3.27-7.7l-.34-.61.45-.53c3.7-4.38 7.12-11.16 9.13-18.14l.28-1 8.57 2.56-.32 1c-.48 1.43-1 2.81-1.44 4.12h5.54v1a21.744 21.744 0 0 0 5.42-7.87l.33-.84 8.23 2.25-.37 1c-.18.47-.37.93-.58 1.37h14.07v7.33h-2.46a28.664 28.664 0 0 1-4.23 5.43 34.732 34.732 0 0 0 7.21 1.81l2 .29-1.41 1.41a27.28 27.28 0 0 0-3.81 5.52l-.35.69-.76-.17a35.382 35.382 0 0 1-6.53-2.14v2.38h9.48v8.12h-2.77a31.877 31.877 0 0 1 4.8 7l.39.86-7.39 4.02-.4-1.06a29.484 29.484 0 0 0-4.14-6.8v9.71h-8.66v-9a33.593 33.593 0 0 1-5.6 6.62l-.65.57-.65-.56a38.538 38.538 0 0 0-5.16-3.38l-1.4-.75 1.28-.94c.32-.24.64-.49.95-.76h-4.59v8.35h-8.82Zm16.57-11.74c.493-.667.947-1.361 1.36-2.08h-1.36v2.08Zm16.73-1.06 2.12-1h-2.12v1Zm-8.66-.46v-.56h-1.94l1.94.56Zm0-8.68v-2a54.81 54.81 0 0 1-5.34 1.83l-.56.16 5.9.01Zm-6.21 0-.32-.72a20.316 20.316 0 0 0-1.54-2.62v3.28l1.86.06Zm12.11-3.76-1-.55-1 .55h2Zm-14-4.5a43.801 43.801 0 0 0 5.87-1.85c-.34-.38-.66-.74-.95-1.1-.72.67-1.481 1.295-2.28 1.87l-.83.59-.58-.84c-.28-.42-.72-1-1.23-1.68v3.01Zm11.52-7c.39.37.8.75 1.25 1.12.42-.36.83-.73 1.22-1.12h-2.47Z"/><path fill="#000" d="m226.51 2.83 6.32 1.72a29.101 29.101 0 0 1-1.23 2.72h14.66v5.33h-2a26.864 26.864 0 0 1-5.48 6.76 33.99 33.99 0 0 0 8.89 2.47 27.985 27.985 0 0 0-4 5.78 33.838 33.838 0 0 1-10.46-4.25 47.564 47.564 0 0 1-10.57 4.34 28.99 28.99 0 0 0-3.45-5.23v19h-6v-31c-.54 1.38-1.13 2.76-1.72 4.1v35.26h-6.82v-23.1c-.69.94-1.38 1.82-2.07 2.66a55.89 55.89 0 0 0-3.35-7.89c3.8-4.5 7.3-11.51 9.33-18.52l6.61 2c-.59 1.78-1.24 3.6-1.93 5.43h6v2.12a22.563 22.563 0 0 0 7.27-9.7Zm9.87 9.77h-7a21.546 21.546 0 0 0 3.51 3.41 20.64 20.64 0 0 0 3.45-3.41h.04Zm-17.22 9.23a43.01 43.01 0 0 0 8.59-2.76 23.803 23.803 0 0 1-2.57-3c-.916.95-1.92 1.81-3 2.57-.64-.94-1.93-2.61-3.06-3.95v7.14h.04Zm16.69 4.24v3.76h9.48v6.12h-9.48v13.67h-6.66V35.99h-8.35v-6.16h8.35v-3.76h6.66Zm6.07 10.57a32.513 32.513 0 0 1 5.59 7.79l-5.53 3a31.923 31.923 0 0 0-5.23-8.19l5.23-2.52-.06-.08Zm-19.24.37 6.12 1.78a33.109 33.109 0 0 1-6.81 8.79 39.247 39.247 0 0 0-5.33-3.51 21.527 21.527 0 0 0 6-7.06h.02ZM225.31.5l-.66 1.67a20.754 20.754 0 0 1-3.91 6.24h-4.7c.33-.91.65-1.84 1-2.8l.65-2-2-.59-6.61-2-1.94-.58-.56 1.94c-1.95 6.75-5.37 13.57-8.93 17.77l-.9 1.07.68 1.21a53.849 53.849 0 0 1 3.19 7.5l1.09 3.57.89-1.1v19.43h10.81V44.6l2.29 1.22a37.9 37.9 0 0 1 5 3.27l1.32 1.1 1.29-1.13a31.996 31.996 0 0 0 3.94-4.25v6.87h10.66v-7.61a22.604 22.604 0 0 1 2.2 4.05l.81 2.12 2-1.07 5.52-3 1.66-.89-.78-1.7a29.87 29.87 0 0 0-3.58-5.61h1.64V27.83h-1.58a25.625 25.625 0 0 1 3.26-4.59l2.82-2.81-3.94-.58a35.241 35.241 0 0 1-5.57-1.26 29.686 29.686 0 0 0 3-4h2.9V5.31H234.7l.75-2-2.1-.58-6.32-1.72-1.73-.48.01-.03Zm-11.9 43h.63l-.63.46v-.46Z"/><path fill="#EEB033" d="M253.51 50.83v-17l-.54.51-1.05 1-.56-1.33a42.626 42.626 0 0 0-3.63-6.5l-.56-.75.72-.61a36.11 36.11 0 0 0 7.68-9.68c-.78.71-1.56 1.37-2.33 2l-.91.7-.57-1a44.654 44.654 0 0 0-3.54-5.23l-.69-.81.85-.64a30.497 30.497 0 0 0 7.81-8.9l.41-.77 8.39 3.1-.65 1c-.23.36-.46.73-.7 1.09h4.58v-5h8.76v5h4.81V4.48h14.49v8.27h-14.13v2.08h-5.13v1.75h5.78v1.09h14.36v8.37h-3.21v16.08c0 3.43-.5 5.85-3 7.24-2.21 1.3-5 1.41-8.19 1.41h-.9l-.09-.9a26.267 26.267 0 0 0-.86-4c-4.24.47-8.64.91-12.55 1.3l-5.34.53-.93.1v3l-8.58.03Zm30.85-9.14h.49V26.08h-3.31v-1.25h-4.66v3h5.53v8.07h-5.53v2.15l6.1-.54.1 4.2 1.28-.02Zm-22.29-2.48 2.51-.18 3.54-.25v-2.91h-5.53v-8.04h5.53v-3h-5.83v-2.64c-.07.13-.14.26-.22.39v16.63Zm6.15-22.62v-1.76h-3.6l1.09.38-.41 1c-.05.13-.11.26-.17.39l3.09-.01Zm-5-2.24V7.63a53.003 53.003 0 0 1-4.2 5.32l4.2 1.4Z"/><path fill="#000" d="M276.02 2.96v5h5.13v5.87h-5.13v3.75h5.78v6.25h-18.47v-5.62c-.69 1.38-1.43 2.76-2.22 4.09v27.53h-6.6V31.3c-.74.84-1.48 1.58-2.22 2.27a44.298 44.298 0 0 0-3.76-6.72 37.622 37.622 0 0 0 9.48-13.17l6.37 2.17c-.25.59-.54 1.18-.79 1.77h5.63v-3.79h-5V7.95h5v-5h6.76l.04.01Zm-18.95-.01 6.44 2.38a49.682 49.682 0 0 1-10.86 12.24A46.143 46.143 0 0 0 249 12.2a31.539 31.539 0 0 0 8.09-9.24l-.02-.01Zm38.23 2.53v6.27h-12.47V5.48h12.49-.02Zm.86 13.23v6.37h-3.21v17.08c0 3.26-.44 5.23-2.47 6.36-2.03 1.13-4.44 1.29-7.7 1.29a28.728 28.728 0 0 0-1.13-5c-6.52.74-13.43 1.38-18.71 1.93l-.69-6.52c2-.15 4.34-.29 6.91-.49v-4.84h-5.53v-6.06h5.53v-4.3h6.76v4.3h5.53v6.07h-5.53v4.25l6.12-.55.1 4.1h2.26c.233.012.467.012.7 0 .59 0 .79-.1.79-.69V25.08h-3.31v-6.37h13.58Zm-40-18.23-.82 1.54a29.536 29.536 0 0 1-7.53 8.57l-1.7 1.27 1.37 1.63a42.472 42.472 0 0 1 3.44 5.07l1 1.73a31.025 31.025 0 0 1-4.63 5l-1.43 1.22 1.12 1.5a41.44 41.44 0 0 1 3.51 6.29l1.11 2.65 1-.89v15.77h10.51v-3.12l5.38-.54c3.64-.36 7.7-.77 11.67-1.2a20.7 20.7 0 0 1 .6 3l.2 1.79h1.79c3.2 0 6.28-.12 8.72-1.56 3.18-1.79 3.45-5.12 3.45-8.09V27.08h3.21V16.71H283.8v-1.09h-.65v-1.87h14.17V3.48h-16.49v2.47h-2.81v-5h-10.76v5h-1.75l1-1.64-2.3-.85-6.41-2.37-1.64-.61Zm4.58 12c.5-.59 1-1.19 1.47-1.8v2.31l-1.47-.51Zm17.18 13.35h2.66v1h-2.66v-1Zm-14.81 0h4v1h-4v-1Zm20.34 1.29h.44v9.35h-.44v-9.39.04Zm-5.53 9.82h.67l-.67.06v-.06Zm-14.81 0h4v1l-2.58.18-1.47.11v-1.27l.05-.02Z"/><path fill="#EEB033" d="M8.72 110.38v-26H2.3v-8.91h6.42V65.38h9.46V75.5h3.38V64.35h9.15V75.5h3.33V64.83h9.56v10.71h6.07v8.91H43.6v14.27h-22V84.41h-3.38v17h30.29v9l-39.79-.03Zm25.32-20.27v-5.7h-3.33v5.7h3.33Z"/><path fill="#000" d="M29.71 65.34V76.5h5.33V65.83h7.56v10.71h6.07v6.91H42.6v14.27h-20V83.41h-5.38v19h30.29v7H9.72v-26H3.31V76.5h6.41V66.38h7.46V76.5h5.38V65.34h7.15Zm0 25.77h5.33v-7.7h-5.33v7.7Zm2-27.77H20.56V74.5h-1.38V64.38H7.72V74.5H1.31v10.91h6.41v26h41.79v-11h-30.3v-15h1.38v14.27h24V85.41h6.07V74.5h-6.07V63.83H33.04v10.71h-1.33v-11.2Zm0 22.07h1.33v3.7h-1.33v-3.7Z"/><path fill="#EEB033" d="M59.63 112.57a25.02 25.02 0 0 0-4.65-5.54l-1.42-1.2 1.78-.52c6.54-1.94 8-4.75 8.32-7.21a39.817 39.817 0 0 1-6.6 3.13l-.78.29-.42-.71a32.46 32.46 0 0 0-4.57-5.66L50 93.94l1.7-.48a36.423 36.423 0 0 0 9.25-4.06h-4.44V65.58h38.18V89.4H90a35.232 35.232 0 0 0 9.31 3.65l1.84.44-1.4 1.27a27.94 27.94 0 0 0-4.59 5.87l-.4.73-.79-.27a33.526 33.526 0 0 1-6.09-2.67v14.13h-9.5V92.97h2.27a32.726 32.726 0 0 1-3.15-3.57h-3.8a37.852 37.852 0 0 1-3.11 3.43h2.53v4.6c0 7.56-4.13 12.81-12.27 15.61l-.8.27-.42-.74Zm25.55-30.9v-.57h-5.16v.57h5.16Zm-14.41 0v-.57h-5.11v.57h5.11Zm14.41-7.84v-.52h-5.16v.52h5.16Zm-14.41 0v-.52h-5.11v.52h5.11Z"/><path fill="#000" d="M93.68 66.58V88.4h-7a33.61 33.61 0 0 0 12.39 5.62 28.784 28.784 0 0 0-4.79 6.13 31.938 31.938 0 0 1-7.41-3.51v14.91h-7.5V93.97h3.85a32.725 32.725 0 0 1-5.23-5.57H73.2a34.382 34.382 0 0 1-5.23 5.43h4.14v3.6c0 4.74-1.53 11.2-11.6 14.66a25.861 25.861 0 0 0-4.88-5.83c8-2.36 9.08-6.21 9.08-9.13v-.88a36.857 36.857 0 0 1-8 4 33.319 33.319 0 0 0-4.74-5.87 35.931 35.931 0 0 0 12.15-6h-6.61v-21.8h36.18-.01Zm-14.66 8.25h7.16v-2.52h-7.16v2.52Zm-14.36 0h7.11v-2.52h-7.11v2.52Zm14.36 7.85h7.16v-2.57h-7.16v2.57Zm-14.36 0h7.11v-2.57h-7.11v2.57Zm31-18.09H55.51v25.82h1.51a35.66 35.66 0 0 1-5.58 2.09l-3.41 1 2.59 2.42a31.602 31.602 0 0 1 4.39 5.44l.85 1.42 1.55-.57a42.861 42.861 0 0 0 4.52-2c-.9 1.4-2.81 2.94-6.86 4.14l-3.56 1 2.84 2.39a24.718 24.718 0 0 1 4.42 5.25l.8 1.49 1.6-.55c8.6-3 12.95-8.52 12.95-16.55v-5.55h-1.17c.41-.47.82-.94 1.22-1.43H77c.42.53.86 1.06 1.32 1.57h-.94v21.58h11.5v-13.47a36.274 36.274 0 0 0 4.77 2l1.58.53.81-1.46a27.141 27.141 0 0 1 4.38-5.61l2.8-2.54-3.68-.88a36.72 36.72 0 0 1-5.23-1.68h1.38V64.58l-.03.01Z"/><path fill="#EEB033" d="M133.36 112.83v-1.58h-17v1.58h-9.2V87.4h35.75v25.43h-9.55Zm0-9.45v-.55h-17v.47l17 .08Zm0-7.8v-.27h-17v.27h17Zm-31.94-8.46v-8.37h9.6c-.282-.87-.616-1.72-1-2.55l-.15-.29h-5.69v-8.32h15.62a18.555 18.555 0 0 0-.79-1.79l-.66-1.25 9.61-1.38.34.56a20.583 20.583 0 0 1 1.8 3.86h15.87v8.24h-5.28l-1.35 2.84h8.8v8.37l-46.72.08Zm27.79-8.37c.31-.9.61-1.9.86-2.84h-10.15c.415.923.773 1.872 1.07 2.84h8.22Z"/><path fill="#000" d="M127.4 64.21a19.799 19.799 0 0 1 1.92 4.34h15.6v6.28h-9.72l4.39.89-1.88 3.95h9.38v6.37h-44.67v-6.37h10a25.88 25.88 0 0 0-1.53-4l4.49-.84h-10.25v-6.32h16a25.9 25.9 0 0 0-1.33-3.25l7.55-1.09.05.04Zm3.95 10.62h-13a22.73 22.73 0 0 1 1.93 4.84h9.67a41.388 41.388 0 0 0 1.44-4.84h-.04Zm10.6 13.53v23.47h-7.55v-1.58h-19v1.58h-7.2V88.4h33.71l.04-.04Zm-26.6 8.18h19v-2.27h-19v2.27Zm0 7.8h19v-2.51h-19V104.34ZM128.41 62l-1.3.19-7.55 1.09-2.8.4 1.31 2.51c.063.103.119.21.17.32h-15.11v10.32h6.07c.13.26.25.54.37.84h-9.15v10.37h5.73v25.79h11.2v-1.58h15v1.58h11.56V88.08h5.18V77.71h-8.21l.4-.84h5.64V66.55h-16.18a20.59 20.59 0 0 0-1.64-3.39l-.69-1.12V62Zm-7 14.83h7.33c-.09.28-.17.56-.26.84h-6.77l-.3-.84Z"/><path fill="#EEB033" d="M169.78 112.55v-10.31a29.287 29.287 0 0 1-14.88 9.19l-.74.19-.38-.65a29.003 29.003 0 0 0-4.5-5.69l-1.53-1.38 2-.35c5.26-.9 10-2.74 12.61-4.87h-11.85v-7.85h1.39v-.11a38.167 38.167 0 0 0-1.71-5l-.5-1.11 1.19-.27c.8-.18 1.61-.95 2.73-2.21l.6-.69a3.71 3.71 0 0 0-.66.26l-1.11.61-.33-1.22c-.29-1.05-1.16-3.56-1.73-4.91l-.46-1.06 1.12-.3c.3-.08.81-.4 1.55-1.51a33.662 33.662 0 0 0 3.67-8.06l.29-1 7.5 2.56-.43 1c-.34.78-.73 1.59-1.16 2.41l3.48 1.95v-4.28h4.2c.252-1.178.432-2.37.54-3.57l.09-1.09 8.72 1.42-1.43 3.24h4.35v5.28a35.87 35.87 0 0 0 3.61-7.92l.28-.94 7.77 2.14-.44 1.05c-.35.83-.75 1.7-1.2 2.58l6.68 3.79-.57.89c-1.1 1.71-2.36 3.48-3.73 5.21l1.42-.33.26.93a82.085 82.085 0 0 1 1.9 9.21l.12.89-.85.21v7.79h-10.49a81.6 81.6 0 0 1 10.3 6.36l.84.67-6 6.55-.73-.66c-2.52-2.28-8-5.72-12-8l-.59-.32v9.24l-9.21.04Zm9.21-10.12 3.63-3.75h-3.63v3.75Zm-9.21-2.15v-1.6h-4.27l4.27 1.6Zm21.89-9.45v-.47c-1.83.18-3.23.34-4.32.47h4.32Zm-9.6 0c-.09-.3-.2-.68-.34-1.11h-2.74v1.11h3.08Zm-12.29 0v-1.11h-1.72l.07.56-2.3.55h3.95Zm-8.43 0s0-.72-.08-1c-3.18.44-5 .74-6.17 1h6.25Zm21.05-7.2a17.99 17.99 0 0 0 1.48-1.42c.18-.19.42-.45.67-.75a5.552 5.552 0 0 0-1.3.42l-.85.39v1.36Zm-8.27-1v-.42h-.17v.42h.17Zm-8.2-5.22c-.51.75-1.06 1.5-1.63 2.26l1.63-.37v-1.89Zm8.2-2v-.37h-.17v.37h.17Z"/><path fill="#000" d="m171.67 64.41 6.37 1-1.53 3.49h4.89v6.76a5.003 5.003 0 0 0 1.72-1.78 35.084 35.084 0 0 0 3.85-8.34l5.73 1.58a44.818 44.818 0 0 1-4.44 8l2.32-.2c.74-1.18 1.38-2.37 2-3.55l5.14 2.91a69.11 69.11 0 0 1-5.53 7.4l3.32-.85a82.062 82.062 0 0 1 1.88 9.09l-4.69 1.18c-.05-.54-.1-1.18-.2-1.82-7 .69-8.44 1-9.42 1.43-.3-1-1-3.46-1.68-5v3h-14.47V74.03a68.006 68.006 0 0 1-5.13 7.21l3.5-.79a75.272 75.272 0 0 1 1.73 9.08l-4.69 1.14c-.05-.6-.1-1.24-.2-1.93-6.91.94-8.34 1.29-9.27 1.78a38.645 38.645 0 0 0-1.78-5.18c1.08-.25 2-1.14 3.26-2.52.44-.5 1.28-1.48 2.27-2.82-1.226.073-2.43.358-3.56.84a51.715 51.715 0 0 0-1.77-5 4.228 4.228 0 0 0 2.12-1.93 33.902 33.902 0 0 0 3.8-8.34l5.48 1.88a46.49 46.49 0 0 1-4.44 7.8l1.62-.15a33.61 33.61 0 0 0 2.13-4l4.93 2.76v-5h4c.348-1.478.595-2.978.74-4.49v.04Zm1.28 11.96h2.18v-2.34h-2.18v2.37-.03Zm8.45 8.97a7.762 7.762 0 0 0 3.2-2.42 35.246 35.246 0 0 0 2.37-2.87c-1.419.103-2.815.42-4.14.94a40.05 40.05 0 0 0-1.43-4.24v8.59Zm-8.45-1.73h2.18v-2.42h-2.18v2.42Zm-14.16 1 2.66-.25c-.14-.79-.29-1.53-.44-2.27a60.89 60.89 0 0 1-2.22 2.52Zm30.26.34 2.66-.2c-.15-.74-.29-1.48-.44-2.17-.74.84-1.48 1.63-2.22 2.37Zm-11.06 4.88v2h18.66v5.83h-18.66v13.87h-7.21V97.68h-19.27v-5.85h19.25v-2H177.99Zm6.35 8.54a95.03 95.03 0 0 1 12.49 7.5l-4.64 5c-2.57-2.32-8.1-5.83-12.15-8.1l4.3-4.44v.04Zm-20.83.65 5.82 2.17a28.184 28.184 0 0 1-14.71 9.28 29.83 29.83 0 0 0-4.69-5.92c5.48-.94 10.81-3 13.58-5.53Zm6.31-36.93-.16 2.17c-.06.72-.19 1.64-.38 2.65h-4.21l.3-.67-2.05-.7-5.48-1.88-2-.68-.57 2a31.93 31.93 0 0 1-3.52 7.74c-.67 1-1 1.14-1 1.14l-2.23.6.92 2.12c.54 1.27 1.41 3.77 1.68 4.77l.39 1.48a2.176 2.176 0 0 1-.88.54l-2.38.54 1 2.23c.512 1.21.963 2.445 1.35 3.7h-1.09v9.83h9.4a34.59 34.59 0 0 1-9.31 2.89l-4.06.69 3 2.76a28.61 28.61 0 0 1 4.31 5.45l.76 1.31 1.47-.38a31 31 0 0 0 13.7-7.56v8.76h11.21v-8.53a77.368 77.368 0 0 1 10.88 7.32l1.47 1.33 1.34-1.46 4.64-5 1.46-1.59-1.69-1.33a61.53 61.53 0 0 0-7.08-4.58h7.64v-8l1-.24-.25-1.78a82.773 82.773 0 0 0-1.93-9.34l-.43-1.57c.84-1.15 1.64-2.3 2.36-3.43l1.11-1.86-1.84-1-4.94-2.8c.3-.61.57-1.21.82-1.8l.87-2.09-2.19-.61-5.72-1.62-1.89-.52-.56 1.88a31.265 31.265 0 0 1-1.66 4.25V66.9h-3.82l.29-.65 1.05-2.36-2.56-.42-6.37-1-2.15-.35-.02-.03Zm-6.04 7.74c.26-.55.51-1.09.74-1.62l.41-.94v3.2l-1.15-.64Zm16.21 29.85h.27l-.27.28v-.28Z"/><path fill="#EEB033" d="M215.93 112.74a23.601 23.601 0 0 0-5.37-3.22l-1.15-.43.66-1a30.995 30.995 0 0 0 4-11.47c-2.05 4.76-4.53 10-7.19 15.08l-.61 1.17-6.85-6.4.43-.69a144.712 144.712 0 0 0 7.95-15.2 61.241 61.241 0 0 0-8.43-5.57l-.89-.5 4.2-7 .83.4a60.473 60.473 0 0 1 9 5.2l.67.52-3.69 6.62 4.81 5.12c.549-4.247.796-8.528.74-12.81V71.83l-3.95 6.53-.9-.81a76.61 76.61 0 0 0-8.46-5.92l-.84-.54 4.39-6.91.82.45a76.673 76.673 0 0 1 8.94 5.52v-1.19l.88-.11a127.812 127.812 0 0 0 23.54-4.88l.6-.21 7.25 7.51-1.56.47a146.57 146.57 0 0 1-22.24 4.5v1.22l.47-.07v-.11h.86a75.694 75.694 0 0 0 14.35-3.35l.61-.23 7.12 7.3-1.55.49c-1.6.51-3.43 1-5.7 1.51.18 1.39.38 2.67.59 3.86a23.113 23.113 0 0 0 1.53-1.87l.72-1 6.64 7.17-1 .63c-1.62 1-3.15 2.09-4.49 3.06l-1 .71a18.53 18.53 0 0 0 5.71 8.21l1 .76-1 .8a26.65 26.65 0 0 0-4.76 5.8l-.61 1.09-.93-.84a21.99 21.99 0 0 1-4.09-5l-.53.23c-8.2 3.42-10.28 4.56-11.26 5.44l-1.24 1.12-.41-1.62a21.159 21.159 0 0 0-2.36-5.39l-.62-.88.92-.55a3.19 3.19 0 0 0 1.49-3V78.64l-.47-.47v4.3c0 9.27-1 22-6 30.05l-.62 1-.95-.78Zm16.22-12.46 2.66-1a71.945 71.945 0 0 1-2.66-12.33v13.33Z"/><path fill="#000" d="m239.74 64.9 5.68 5.87a146.012 146.012 0 0 1-23 4.59v7.11c0 8.44-.83 21.38-5.87 29.52a24.435 24.435 0 0 0-5.68-3.4c4.74-7.51 5.09-18.52 5.09-26.12V69.83c8.49-1 17.72-2.87 23.74-4.94l.04.01Zm-34.2.58a75.462 75.462 0 0 1 8.79 5.43l-3.52 5.92a82.785 82.785 0 0 0-8.58-6l3.35-5.28-.04-.07Zm33.97 9.35 5.53 5.68c-2 .64-4.24 1.18-6.51 1.68.29 2.32.64 4.59 1.08 6.76a33.32 33.32 0 0 0 3-3.41l5 5.38c-2.32 1.43-4.39 3-6.17 4.25 1.43 3.9 3.45 7.21 6.32 9.38a27.212 27.212 0 0 0-5 6.07c-6.37-5.73-8.64-15.6-10-27.4l-1.53.25v18.26l4.49-1.67c.293 1.895.758 3.76 1.39 5.57-8.74 3.66-10.52 4.69-11.56 5.63a21.883 21.883 0 0 0-2.51-5.73 4.119 4.119 0 0 0 2-3.8V78.28h.05-.05a76.528 76.528 0 0 0 14.47-3.45Zm-36.43 3.9a58.831 58.831 0 0 1 8.79 5.09l-3.36 6.01a62.806 62.806 0 0 0-8.64-5.73l3.2-5.38.01.01Zm5.66 12.1 4.59 4.88c-2.22 5.18-4.79 10.51-7.35 15.45l-5.29-4.94a144.742 144.742 0 0 0 8.05-15.39Zm31.55-28.27-1.2.41c-5.53 1.9-14.48 3.76-23.34 4.84l-1.75.22v.11c-2.34-1.59-5.52-3.38-7.46-4.44l-1.64-.9-1 1.58-3.39 5.32-1 1.69 1.68 1.07a75.105 75.105 0 0 1 8.33 5.83l1.8 1.6 1.19-2.06 1.47-2.43v7.54l-.92-.71a60.317 60.317 0 0 0-9.15-5.31l-1.65-.79-.93 1.57-3.21 5.38-1.03 1.75 1.77 1a71.373 71.373 0 0 1 7.7 5 144.501 144.501 0 0 1-7.56 14.39l-.87 1.39 1.2 1.13 5.28 4.93 1.93 1.8 1.21-2.34c.38-.72.75-1.44 1.12-2.17l1.34.51a22.802 22.802 0 0 1 5.06 3l1.78 1.57 1.24-2a32.078 32.078 0 0 0 3-6.45l.05.09a19.986 19.986 0 0 1 2.21 5.06l.81 3.23 2.48-2.24c.87-.78 2.91-1.88 10.72-5.15a22.687 22.687 0 0 0 3.83 4.52l1.85 1.66 1.22-2.17a25.195 25.195 0 0 1 4.54-5.52l1.91-1.62-2-1.51a16.92 16.92 0 0 1-5.09-7.06l.34-.24c1.34-1 2.85-2 4.44-3l2.07-1.28-1.65-1.79-5-5.38-.95-1c.92-.25 1.77-.49 2.56-.74l3.09-1-2.27-2.33-5-5.16c1.54-.38 3.07-.8 4.57-1.25l3.13-1-2.28-2.36-5.67-5.87-.89-.91-.02-.01Zm.44 21.13.79-.19-.59.83-.09.12c0-.25-.07-.51-.11-.76Zm-30.05 6.28 2.92-5.23.39-.7c0 2.94-.14 6-.46 9l-2.85-3v-.07Zm22.47 8.86v-1.6c.13.49.27 1 .42 1.45l-.42.15Zm-11 4.82c.293-1.08.553-2.2.78-3.36v1.42a2.281 2.281 0 0 1-.78 1.94Z"/><path fill="#EEB033" d="m280.15 112.65-.13-.85a25.25 25.25 0 0 0-2.31-6.49l-.84-1.55 1.76.08c2.3.09 4.73.09 5.53.09h.09v-6.1l-6.82 2.4-.09-1.31a37.045 37.045 0 0 0-2.89-10.45v4.87h-7.55v.22h7.11v6.89l1.86-.18.13 8.21-.91.1c-8.15.9-16.84 1.75-24.35 2.47l-1 .09-1.16-8.57 1.06-.07c2.47-.18 5.4-.41 8.6-.67v-.55h-7.21v-7.72h7.21v-.22h-7.85v-7.78h3.84c-.51-.78-1.13-1.64-1.8-2.47l-.68-.86H249V74.4h3.14a25.779 25.779 0 0 0-3.07-4.2l-.77-.85 5.82-4 .59.59.52.52v-2.54h14.58v2.24l.37-.61 7.59 4.26-1 .94-1.74 1.59c-.78.72-1.53 1.41-2.24 2h3v1.58h8.51V63.83h8.91v12.09h3.21v8.67h-3.21v19.29c0 3.29-.53 5.78-3.13 7.24-2.18 1.25-5.07 1.51-9 1.51l-.93.02ZM282 85.28a45.12 45.12 0 0 1 2.25 5.38v-6.05h-2.59l.34.67Zm-7.55.24v1.39l6.86-2.3h-7.18v-2.42h-.93l-.25.47c-.4.73-.78 1.45-1.15 2.15l-.37.71h3.02Zm-11.69 0 .08-.17-.3.17h.22Zm-1.38-3.33c.517.713.941 1.49 1.26 2.31l.26.72c.42-.91.87-1.94 1.3-3l-2.82-.03Z"/><path fill="#000" d="M292.16 64.83v12.09h3.21v6.67h-3.21v20.29c0 3.4-.59 5.23-2.62 6.36-2.03 1.13-4.73 1.39-8.54 1.39a26.258 26.258 0 0 0-2.41-6.82c2.32.1 4.73.1 5.57.1.84 0 1.09-.24 1.09-1v-20.3h-10.12v-6.67h10.12V64.83h6.91Zm-23.35 0v4.44a20.545 20.545 0 0 0 1.73-2.46l5.53 3.1c-2.17 2-4.2 3.9-5.78 5.19l-1.48-.94v1.13h5.93v5.83h-5.58l2.91 1c-.84 1.53-1.58 3-2.32 4.34h3.7v5.78h-7.55v2.22h7.11v5.72h-7.11v1.93c3-.3 6-.55 9-.84l.1 6.22c-8.49.94-17.67 1.83-24.33 2.47l-.89-6.57c2.71-.2 6-.44 9.53-.74v-2.47h-7.21v-5.72h7.21v-2.22h-7.85v-5.78h4.59a27.402 27.402 0 0 0-2.77-4.1l2.27-1.23h-5.48V75.3h6.23v-2.27l-2.67 1.88a23.126 23.126 0 0 0-3.75-5.48l4.19-2.86a28.31 28.31 0 0 1 2.23 2.47v-4.2h5.52V75.3h1.39V64.9h5.62l-.02-.07Zm-3.14 16.36h-6.27a14.62 14.62 0 0 1 2.32 3.65l-3 1.68h4.64a56.901 56.901 0 0 0 2.27-5.33h.04Zm15.41 4.54a35.833 35.833 0 0 1 3.56 10.86l-6.3 2.24a38.78 38.78 0 0 0-3.11-11.1l5.87-2h-.02Zm13.08-22.9h-10.91v12.09h-6.51v-1.58h-1.4l.34-.31 1.73-1.59 2.06-1.86-2.42-1.36-5.54-3.09-.71-.4V62.9h-16.52v1.16l-1.35.92-4.2 2.86-1.9 1.3 1.55 1.7c.718.798 1.386 1.64 2 2.52h-2.33v9.83h3.27l.38.48.66.85h-2.92v9.78h.64v7.12h-.47l-2.12.15.29 2.11.89 6.57.25 1.9 1.92-.18c5.83-.56 15.59-1.5 24.36-2.47l1.81-.2V106a24.134 24.134 0 0 1 2.07 5.92l.27 1.69h1.7c4.12 0 7.16-.28 9.54-1.65 3.18-1.78 3.62-4.95 3.62-8.1V85.61h3.21V74.94h-3.21V62.83h-.05ZM273.08 84.5l.05-.09v.09h-.05Zm1.93 9.78h.43c.448 1.518.749 3.075.9 4.65v.22l-1.35.14v-5l.02-.01Zm1.88 7.14 2.11-.74 4.25-1.49v3.72c-1.12 0-2.89 0-4.58-.09l-1.76-.08v-1.32h-.02Z"/><path fill="#EEB033" d="M22.88 173.26v-10.51c0-.59 0-1.23.06-1.91l-3.7 10.07h-5.06l-3.67-9.84v12.19h-8v-29.77h9l4.65 12.64c.25.72.48 1.47.69 2.21.22-.74.43-1.47.66-2.18l4.5-12.67h9v29.77h-8.13Z"/><path fill="#000" d="M29.96 144.49v27.77h-6.08v-9.51c.118-3.226.401-6.443.85-9.64h-.14l-2.32 6.65-3.76 10.15h-3.66l-3.77-10.15-2.24-6.65h-.15a91.31 91.31 0 0 1 .86 9.64v9.51h-6v-27.77h7.2l4.41 12c.56 1.61 1 3.36 1.53 5.08h.18c.56-1.72 1-3.47 1.53-5.08l4.26-12h7.3Zm1.94-2H21.31l-.48 1.33-4 11.26-4.14-11.25-.48-1.31H1.61v31.77h10v-7.49l1.42 3.84.49 1.3h6.44l.49-1.31 1.46-4v7.63h10.08v-31.77h-.09Z"/><path fill="#EEB033" d="M44.03 143.5h-8.68v29.77h8.68V143.5Z"/><path fill="#000" d="M43.03 144.49v27.77h-6.68v-27.77h6.68Zm2-2H34.35v31.77h10.68v-31.77Z"/><path fill="#EEB033" d="m62.22 173.26-2.84-6c-.4-.87-.79-1.73-1.19-2.64-.37.92-.73 1.76-1.1 2.61l-2.65 6h-9.46l8.19-15.29-7.74-14.48h9.75l2.5 5.56c.35.76.71 1.57 1.11 2.48.38-1 .73-1.79 1-2.47l2.26-5.57h9.38l-7.69 14.76 8.21 15-9.73.04Z"/><path fill="#000" d="m69.8 144.49-7.17 13.78 7.65 14h-7.43l-2.57-5.44c-.67-1.46-1.31-2.91-2.05-4.63h-.15c-.68 1.72-1.27 3.17-1.91 4.63l-2.39 5.41h-7.13l7.66-14.29-7.21-13.48h7.41l2.24 5c.6 1.3 1.23 2.76 2 4.55h.15c.63-1.79 1.23-3.25 1.79-4.55l2-5h7.06l.05.02Zm3.24-2.02H61.4l-.51 1.25-2 5c0 .09-.08.19-.12.28-.05-.12-.11-.24-.16-.35l-2.24-5-.53-1.18H43.77l1.57 3 6.7 12.53-7.15 13.35-1.58 2.94h11.78l.52-1.19 2.39-5.41c.08-.17.15-.34.22-.5l.24.53 2.59 5.43.54 1.14h12.07l-1.62-3-7.14-13.06 6.67-12.82 1.52-2.93-.05-.01Z"/><path fill="#EEB033" d="M93.96 173.83c-8.34 0-13.73-6.11-13.73-15.56s5.26-15.26 13.73-15.26 13.72 6 13.72 15.26c0 9.41-5.38 15.56-13.72 15.56Zm0-23.11c-3.07 0-4.9 2.82-4.9 7.55s1.87 7.81 4.9 7.81c3.03 0 4.93-3 4.93-7.81s-1.84-7.59-4.93-7.59v.04Z"/><path fill="#000" d="M93.96 143.97c7.57 0 12.72 5.19 12.72 14.26s-5.17 14.6-12.72 14.6c-7.55 0-12.73-5.45-12.73-14.56s5.15-14.26 12.73-14.26v-.04Zm0 23.11c3.65 0 5.93-3.4 5.93-8.81s-2.28-8.55-5.93-8.55-5.9 3.17-5.9 8.55c0 5.38 2.24 8.81 5.9 8.81Zm0-25.07c-8.95 0-14.73 6.38-14.73 16.26 0 10.06 5.78 16.56 14.73 16.56s14.72-6.5 14.72-16.56c0-9.88-5.78-16.26-14.72-16.26Zm0 23.07c-3.62 0-3.9-5.21-3.9-6.81 0-2 .38-6.55 3.9-6.55s3.93 4.58 3.93 6.55c0 3.29-1 6.81-3.93 6.81Z"/><path fill="#EEB033" d="m126.51 173.26-7.15-13.94-.42-.94c.15 1.57.26 3.16.26 4.66v10.22h-8.35v-29.77h8.4l7.19 13.83.35.81c-.13-1.52-.22-3.05-.22-4.46v-10.18h8.34v29.77h-8.4Z"/><path fill="#000" d="M133.9 144.49v27.77h-6.79l-6.87-13.43-2.73-6h-.18c.3 3.1.86 6.9.86 10.26v9.22h-6.35v-27.82h6.79l6.88 13.34 2.73 6.16h.18a88.074 88.074 0 0 1-.89-10.27v-9.18h6.34l.03-.05Zm1.97-1.95h-10.31v11l-5.15-9.91-.56-1.08h-10v31.77h10.35v-11.18l5.14 10 .56 1.08h10v-31.73l-.03.05Z"/><path fill="#EEB033" d="M153.29 173.27v-22.25h-7.51v-7.52h23.73v7.52h-7.54v22.25h-8.68Z"/><path fill="#000" d="M168.51 144.49v5.53h-7.54v22.24h-6.68v-22.24h-7.51v-5.53h21.73Zm2-2h-25.73v9.53h7.51v22.24h10.68v-22.24h7.54v-9.53Z"/><path fill="#EEB033" d="M187.64 173.27v-11.43h-7.15v11.43h-8.68V143.5h8.68v10.56h7.15V143.5h8.6v29.77h-8.6Z"/><path fill="#000" d="M195.24 144.49v27.77h-6.6v-11.43h-9.13v11.42h-6.7v-27.76h6.7v10.57h9.15v-10.57h6.6-.02Zm2.02-2h-10.6v10.57h-5.15v-10.57h-10.7v31.77h10.7v-11.43h5.15v11.42h10.6v-31.76Z"/><path fill="#EEB033" d="M200.7 173.27V143.5h19.62v7.52h-10.93v3.15h9.29v7.6h-9.29v3.9h11.35v7.6H200.7Z"/><path fill="#000" d="M219.32 144.49v5.53h-10.93v5.15h9.29v5.6h-9.29v5.89h11.34v5.6h-18v-27.77h17.62-.03Zm2.03-2H199.7v31.77h22v-9.6h-11.31v-1.89h9.29v-9.6h-9.29v-1.15h10.93v-9.53h.03Z"/><path fill="#EEB033" d="M242.4 173.83a16.468 16.468 0 0 1-11.06-4.26l-.69-.64 5-6.11.78.66a10.241 10.241 0 0 0 6.11 2.6c2.62 0 2.62-1.08 2.62-1.43 0-.76-.69-1.12-2.82-2l-4-1.7c-4-1.57-6.25-4.68-6.25-8.53 0-5.36 4.76-9.4 11.08-9.4a13.832 13.832 0 0 1 9.74 4l.63.63-4.49 5.64-.78-.58a7.997 7.997 0 0 0-5.1-1.93c-.87 0-2.33.17-2.33 1.31 0 .73 1.15 1.22 3.18 2l3.88 1.54c4.12 1.66 6.12 4.46 6.12 8.55-.02 4.73-4 9.65-11.62 9.65Z"/><path fill="#000" d="M243.15 143.97a12.914 12.914 0 0 1 9 3.66l-3.29 4.2a9.047 9.047 0 0 0-5.71-2.13c-2.06 0-3.33.82-3.33 2.31 0 1.49 1.76 2.13 4.22 3.1l3.47 1.38c3.44 1.39 5.49 3.7 5.49 7.62 0 4.63-3.88 8.7-10.6 8.7a15.572 15.572 0 0 1-10.38-4l3.77-4.59a11.25 11.25 0 0 0 6.76 2.84c2.46 0 3.62-.93 3.62-2.43s-1.53-2.13-3.92-3.13l-3.55-1.5c-2.91-1.15-5.63-3.58-5.63-7.61 0-4.67 4.18-8.4 10.08-8.4v-.02Zm0-1.98c-6.89 0-12.08 4.47-12.08 10.4 0 4.28 2.51 7.73 6.89 9.47l3.51 1.48.49.2c.774.281 1.515.647 2.21 1.09a.472.472 0 0 1 0 .13 3.005 3.005 0 0 1-1.61.3 9.305 9.305 0 0 1-5.46-2.36l-1.59-1.34-1.3 1.57-3.7 4.6-1.2 1.46 1.39 1.28a17.478 17.478 0 0 0 11.7 4.56c6.26 0 12.6-3.68 12.6-10.7 0-4.49-2.27-7.67-6.74-9.47l-3.48-1.39-.41-.16a12.752 12.752 0 0 1-2.52-1.16 2.653 2.653 0 0 1 1.3-.23 7.049 7.049 0 0 1 4.5 1.72l1.56 1.18 1.21-1.53 3.33-4.18 1.11-1.4-1.27-1.26a14.84 14.84 0 0 0-10.44-4.24v-.02Z"/><path fill="#EEB033" d="M261.15 173.27v-22.25h-7.5v-7.52h23.72v7.52h-7.54v22.25h-8.68Z"/><path fill="#000" d="M276.37 144.49v5.53h-7.54v22.24h-6.68v-22.24h-7.5v-5.53h21.72Zm2-2h-25.72v9.53h7.5v22.24h10.68v-22.24h7.54v-9.53Z"/><path fill="#EEB033" d="m295.07 173.26-5.11-9.77h-1.61v9.77h-8.68v-29.77h11.19c9.8 0 11.86 5.3 11.86 9.74a9.329 9.329 0 0 1-4.4 8.42l6.53 11.61h-9.78Zm-4.73-17c3.45 0 3.85-1.71 3.85-3s-.29-2.48-3.85-2.48h-2v5.47l2 .01Z"/><path fill="#000" d="M290.86 144.49c5.94 0 10.86 2 10.86 8.74 0 4.06-1.9 6.68-4.78 8l6.2 11h-7.47l-5.11-9.78h-3.21v9.78h-6.68v-27.74h10.19Zm-3.51 12.73h3c3.17 0 4.85-1.38 4.85-4s-1.68-3.48-4.85-3.48h-3V157.22Zm3.51-14.74h-12.19v31.77h10.68v-9.77l4.55 8.7.56 1.07h12.1l-1.67-3-5.25-9.31a10.383 10.383 0 0 0 4.08-8.74c0-4-1.67-10.74-12.86-10.74v.02Zm-1.51 9.26h1c2.85 0 2.85.65 2.85 1.48s0 2-2.85 2h-1v-3.48Z"/><path fill="#EEB033" d="M306.1 173.27V143.5h19.62v7.52h-10.94v3.15h9.3v7.6h-9.3v3.9h11.35v7.6H306.1Z"/><path fill="#000" d="M324.72 144.49v5.53h-10.94v5.15h9.3v5.6h-9.3v5.89h11.35v5.6h-18v-27.77h17.62-.03Zm2.03-2H305.1v31.77h22v-9.6h-11.32v-1.89h9.3v-9.6h-9.3v-1.15h10.94v-9.53h.03Z"/><path fill="#EEB033" d="M329.62 173.27V143.5h19.62v7.52h-10.93v3.15h9.29v7.6h-9.29v3.9h11.34v7.6h-20.03Z"/><path fill="#000" d="M348.24 144.49v5.53H337.3v5.15h9.3v5.6h-9.3v5.89h11.35v5.6h-18v-27.77h17.62-.03Zm2.03-2h-21.65v31.77h22v-9.6H339.3v-1.89h9.3v-9.6h-9.3v-1.15h10.94v-9.53h.03Z"/><path fill="#EEB033" d="M358.52 173.27v-22.25h-7.51v-7.52h23.73v7.52h-7.54v22.25h-8.68Z"/><path fill="#000" d="M373.74 144.49v5.53h-7.54v22.24h-6.69v-22.24h-7.5v-5.53h21.73Zm2-2h-25.73v9.53h7.5v22.24h10.68v-22.24h7.54v-9.53h.01Z"/><path fill="#fff" d="M23.35 220.89H2.9l.8-9.23 22.58-24.31h9.79l-2.18 24.83h5.08l-.77 8.71h-5.07l-.66 7.55h-9.78l.66-7.55Zm.76-8.71 1.11-12.72-11.92 12.72h10.81Z"/><path fill="#000" d="M33.19 229.22H21.83l.67-7.55H2.05l.9-10.35.18-.2 22.81-24.55h11l-2.17 24.83h5.07l-.9 10.27h-5.07l-.68 7.55Zm-9.68-1.56h8.22l.66-7.55h5.12l.62-7.15h-5.07l2.17-24.83h-8.59L4.51 211.99l-.71 8.12h20.45l-.74 7.55Zm1.29-14.7H11.51l14.7-15.68-1.41 15.68Zm-9.72-1.56h8.28l.86-9.75-9.14 9.75Z"/><path fill="#fff" d="M52.44 187.35h5.73l-13.8 41.78H38.7l13.74-41.78Z"/><path fill="#000" d="M44.93 229.91h-7.31l14.26-43.34h7.37l-14.32 43.34Zm-5.16-1.56h4l13.29-40.22h-4.05l-13.24 40.22Z"/><path fill="#fff" d="M89.58 228.44H55.9a23.2 23.2 0 0 1 4.33-9.38c2.22-2.927 6.193-6.387 11.92-10.38a36.773 36.773 0 0 0 6.8-5.57 6.84 6.84 0 0 0 1.7-3.61 3.896 3.896 0 0 0-1.09-3.15 4.35 4.35 0 0 0-3.32-1.31 5.2 5.2 0 0 0-3.63 1.35 9.07 9.07 0 0 0-2.25 4.77l-11.17-.91a19.382 19.382 0 0 1 3.08-7.4 12.596 12.596 0 0 1 5.33-4.08 23.369 23.369 0 0 1 9-1.42c3.092-.138 6.181.32 9.1 1.35a9.893 9.893 0 0 1 4.81 4.13 10.34 10.34 0 0 1 1.34 6.27 13.907 13.907 0 0 1-2.78 7c-1.64 2.24-4.48 4.703-8.52 7.39-2.393 1.56-4 2.653-4.82 3.28-.82.62-1.78 1.44-2.9 2.45h17.53l-.78 9.22Z"/><path fill="#000" d="M90.3 229.22H54.94l.19-.93a24.055 24.055 0 0 1 4.48-9.7c2.25-3 6.32-6.54 12.1-10.55a36.852 36.852 0 0 0 6.63-5.42 6.117 6.117 0 0 0 1.53-3.19 3.098 3.098 0 0 0-.88-2.54 3.562 3.562 0 0 0-2.75-1.07 4.38 4.38 0 0 0-3.1 1.14 8.39 8.39 0 0 0-2 4.37l-.15.66-12.74-1 .2-.88a20.365 20.365 0 0 1 3.21-7.69 13.512 13.512 0 0 1 5.65-4.33 24.223 24.223 0 0 1 9.32-1.48c3.198-.138 6.393.34 9.41 1.41a10.69 10.69 0 0 1 5.18 4.47 11.12 11.12 0 0 1 1.45 6.73 14.721 14.721 0 0 1-2.93 7.45c-1.69 2.31-4.62 4.86-8.71 7.58-2.39 1.55-4 2.64-4.78 3.25-.4.3-.83.65-1.3 1.05h16.3l-.95 10.67Zm-33.42-1.56h32l.67-7.59H70.82l1.51-1.36c1.13-1 2.12-1.86 3-2.49.88-.63 2.42-1.72 4.87-3.32 3.93-2.61 6.73-5 8.31-7.19a13.219 13.219 0 0 0 2.63-6.66 9.63 9.63 0 0 0-1.23-5.81 9.22 9.22 0 0 0-4.46-3.82 23.29 23.29 0 0 0-8.79-1.29 22.706 22.706 0 0 0-8.71 1.36 11.94 11.94 0 0 0-5 3.83 17.666 17.666 0 0 0-2.72 6.22l9.59.78a9 9 0 0 1 2.32-4.51 6.003 6.003 0 0 1 4.16-1.55 5.135 5.135 0 0 1 3.88 1.55 4.615 4.615 0 0 1 1.3 3.76 7.579 7.579 0 0 1-1.86 4c-1.09 1.34-3.37 3.21-7 5.72-5.64 3.92-9.59 7.36-11.74 10.21a22.71 22.71 0 0 0-4 8.16Z"/><path fill="#fff" d="M113.79 209.37h16.32l-.76 8.68h-16.32l.76-8.68Z"/><path fill="#000" d="M130.07 218.83h-17.89l.9-10.24h17.88l-.89 10.24Zm-16.18-1.56h14.74l.63-7.12h-14.75l-.62 7.12Z"/><path fill="#fff" d="M170.77 220.89h-20.45l.81-9.23 22.58-24.31h9.8l-2.17 24.83h5.07l-.76 8.71h-5.07l-.66 7.55h-9.81l.66-7.55Zm.77-8.71 1.11-12.72-11.92 12.72h10.81Z"/><path fill="#000" d="M180.61 229.22h-11.35l.66-7.55h-20.41l.91-10.35.18-.2 22.81-24.55h11l-2.18 24.83h5.08l-.9 10.27h-5.08l-.72 7.55Zm-9.64-1.56h8.21l.66-7.55h5.07l.63-7.15h-5.03l2.17-24.83h-8.59l-22.16 23.86-.71 8.12h20.45l-.7 7.55Zm1.28-14.7h-13.32l14.69-15.68-1.37 15.68Zm-9.74-1.56h8.29l.85-9.75-9.14 9.75Z"/><path fill="#fff" d="M199.87 187.35h5.73l-13.81 41.78h-5.67l13.75-41.78Z"/><path fill="#000" d="M192.36 229.91h-7.32l14.26-43.34h7.38l-14.32 43.34Zm-5.16-1.56h4l13.31-40.22h-4.09l-13.22 40.22Z"/><path fill="#fff" d="m217.51 199.72-10.4-1.89a15 15 0 0 1 5.76-7.77c2.667-1.8 6.297-2.7 10.89-2.7 5.267 0 8.993 1 11.18 3a8.459 8.459 0 0 1 2.88 7.41 8.897 8.897 0 0 1-1.85 4.74 13.715 13.715 0 0 1-4.65 3.72c1.217.265 2.385.721 3.46 1.35a7.757 7.757 0 0 1 2.85 3.27 9.512 9.512 0 0 1 .69 4.83 14.53 14.53 0 0 1-2.44 6.77 14.094 14.094 0 0 1-5.75 5 21.342 21.342 0 0 1-9.28 1.75 22.531 22.531 0 0 1-8.58-1.3 11.432 11.432 0 0 1-4.91-3.78 16.001 16.001 0 0 1-2.61-6.28l11.35-1.48c.25 2.26.79 3.82 1.64 4.7a4.598 4.598 0 0 0 3.43 1.31 5.358 5.358 0 0 0 3.91-1.66 6.839 6.839 0 0 0 1.89-4.41 5.707 5.707 0 0 0-1.07-4.35 4.703 4.703 0 0 0-3.79-1.55 14.51 14.51 0 0 0-3.7.67l1.28-8c.479.084.964.131 1.45.14a5.58 5.58 0 0 0 3.8-1.4 4.89 4.89 0 0 0 1.77-3.34 3.696 3.696 0 0 0-.84-3 3.819 3.819 0 0 0-2.94-1.1 4.828 4.828 0 0 0-3.33 1.2 8 8 0 0 0-2.09 4.15Z"/><path fill="#000" d="M220.85 229.91a23.434 23.434 0 0 1-8.89-1.36 12.234 12.234 0 0 1-5.23-4 16.632 16.632 0 0 1-2.74-6.58l-.17-.82 13-1.7.09.79c.22 2.08.7 3.5 1.42 4.24a3.815 3.815 0 0 0 2.87 1.07 4.558 4.558 0 0 0 1.829-.358 4.558 4.558 0 0 0 1.531-1.062 6.1 6.1 0 0 0 1.66-3.93 5.062 5.062 0 0 0-.88-3.78 4.001 4.001 0 0 0-3.2-1.27 14.338 14.338 0 0 0-3.49.64l-1.17.32 1.59-10 .77.11c.44.076.884.12 1.33.13a4.798 4.798 0 0 0 3.29-1.21 4.136 4.136 0 0 0 1.5-2.82 2.924 2.924 0 0 0-.64-2.35 2.996 2.996 0 0 0-2.36-.85 4.002 4.002 0 0 0-2.81 1 7.387 7.387 0 0 0-1.81 3.8l-.17.72-12.07-2.19.3-.87a15.889 15.889 0 0 1 6.06-8.16c2.79-1.88 6.6-2.83 11.33-2.83 5.52 0 9.35 1 11.7 3.15a9.236 9.236 0 0 1 3.14 8.06 9.761 9.761 0 0 1-2 5.14 13.23 13.23 0 0 1-3.33 3 9.138 9.138 0 0 1 1.95.93 8.486 8.486 0 0 1 3.13 3.59c.704 1.648.966 3.45.76 5.23a15.32 15.32 0 0 1-2.63 7.14c-1.499 2.28-3.6 4.1-6.07 5.26a22.065 22.065 0 0 1-9.59 1.82Zm-15.15-11.47a14.549 14.549 0 0 0 2.29 5.14 10.691 10.691 0 0 0 4.58 3.53 22.063 22.063 0 0 0 8.28 1.24c3.067.112 6.12-.458 8.94-1.67a13.41 13.41 0 0 0 5.44-4.72 13.754 13.754 0 0 0 2.31-6.4 8.762 8.762 0 0 0-.62-4.44 6.927 6.927 0 0 0-2.56-2.94 10.91 10.91 0 0 0-3.23-1.25l-2-.5 1.81-1a13.288 13.288 0 0 0 4.39-3.5 8.274 8.274 0 0 0 1.69-4.34 7.68 7.68 0 0 0-2.62-6.76c-2-1.83-5.61-2.75-10.66-2.75-4.41 0-7.93.86-10.45 2.57a14.005 14.005 0 0 0-5.14 6.52l8.81 1.6a7.859 7.859 0 0 1 2.1-3.88 5.602 5.602 0 0 1 3.85-1.4 4.529 4.529 0 0 1 3.51 1.36 4.432 4.432 0 0 1 1.05 3.54 5.66 5.66 0 0 1-2 3.85 6.37 6.37 0 0 1-4.32 1.6h-.79l-1 6.09a12.49 12.49 0 0 1 2.74-.39 5.475 5.475 0 0 1 4.39 1.82 6.465 6.465 0 0 1 1.24 4.93 7.598 7.598 0 0 1-2.11 4.89 6.1 6.1 0 0 1-4.46 1.89 5.308 5.308 0 0 1-4-1.55 7.717 7.717 0 0 1-1.76-4.37l-9.7 1.29Z"/></g><defs><clipPath id="clip0_43_92"><path fill="#fff" d="M0 0h380.93v234.75H0z"/></clipPath></defs></svg>