<svg xmlns="http://www.w3.org/2000/svg" fill="none" viewBox="0 0 38 37"><g fill="#000" clip-path="url(#clip0_8_8349)"><path d="M37.278 10.781a13.21 13.21 0 0 0-.85-4.487A9.334 9.334 0 0 0 31.09.962a13.405 13.405 0 0 0-4.431-.85C24.709.023 24.09 0 19.139 0c-4.95 0-5.584 0-7.52.111a13.405 13.405 0 0 0-4.43.85 9.34 9.34 0 0 0-5.338 5.333 13.26 13.26 0 0 0-.85 4.425c-.086 1.95-.113 2.567-.113 7.512 0 4.945 0 5.577.114 7.513.03 1.515.316 3.01.85 4.429a9.335 9.335 0 0 0 5.339 5.33c1.414.553 2.912.861 4.43.911 1.952.087 2.57.114 7.52.114 4.951 0 5.586 0 7.522-.114a13.372 13.372 0 0 0 4.431-.848 9.357 9.357 0 0 0 5.338-5.332c.533-1.418.82-2.912.85-4.43.087-1.947.113-2.565.113-7.512-.004-4.945-.004-5.573-.117-7.51Zm-18.15 16.802c-5.178 0-9.373-4.19-9.373-9.362S13.95 8.86 19.128 8.86c2.485 0 4.869.986 6.627 2.742a9.356 9.356 0 0 1 0 13.239 9.377 9.377 0 0 1-6.627 2.742Zm9.744-16.887a2.185 2.185 0 0 1-2.185-2.183 2.18 2.18 0 0 1 1.349-2.016 2.186 2.186 0 0 1 3.02 2.016 2.182 2.182 0 0 1-2.184 2.183Z"/><path d="M19.142 25.874c4.2 0 7.605-3.407 7.605-7.61a7.608 7.608 0 0 0-7.605-7.61 7.608 7.608 0 0 0-7.606 7.61 7.608 7.608 0 0 0 7.606 7.61Z"/></g><defs><clipPath id="clip0_8_8349"><path fill="#fff" d="M.888 0h36.507v36.528H.888z"/></clipPath></defs></svg>