<svg xmlns="http://www.w3.org/2000/svg" fill="none" viewBox="0 0 38 37"><g clip-path="url(#clip0_8_8352)"><path fill="#000" d="M7.402 0A6.654 6.654 0 0 0 .736 6.67v23.188a6.654 6.654 0 0 0 6.666 6.67h12.56v-14.28h-3.774v-5.142h3.774v-4.392c0-3.451 2.23-6.62 7.367-6.62 2.08 0 3.617.2 3.617.2l-.12 4.801s-1.57-.015-3.28-.015c-1.853 0-2.15.854-2.15 2.272v3.754h5.576l-.242 5.142h-5.334v14.28h5.18a6.654 6.654 0 0 0 6.666-6.67V6.67A6.654 6.654 0 0 0 30.578 0H7.402Z"/></g><defs><clipPath id="clip0_8_8352"><path fill="#fff" d="M.736 0h36.507v36.528H.736z"/></clipPath></defs></svg>