<svg xmlns="http://www.w3.org/2000/svg" viewBox="0 0 132.17 47.77"><defs><style>.cls-1{fill:#fff;}.cls-2{fill:#a5bac9;}.cls-3{fill:#6f7271;}.cls-4{fill:#5b7e96;}</style></defs><g id="圖層_2" data-name="圖層 2"><g id="圖層_1-2" data-name="圖層 1"><path class="cls-1" d="M5.44,38.52a22.44,22.44,0,0,0,1.74,2h34a22.44,22.44,0,0,0,1.74-2Z"/><path class="cls-1" d="M3.18,35a22.55,22.55,0,0,0,1.17,2H44c.42-.65.81-1.33,1.17-2Z"/><path class="cls-1" d="M36.78,44.12a22.84,22.84,0,0,0,2.74-2H8.82a22.84,22.84,0,0,0,2.74,2Z"/><path class="cls-1" d="M14.4,45.66a23.67,23.67,0,0,0,19.54,0Z"/><path class="cls-1" d="M.85,27.82c.11.69.24,1.36.41,2H47.08a19.71,19.71,0,0,0,.41-2Z"/><path class="cls-1" d="M1.69,31.39c.23.69.47,1.36.76,2H45.89c.28-.66.53-1.33.75-2Z"/><path class="cls-1" d="M81,26.29s-9.59-.58-16.64-4.73a7.5,7.5,0,0,0-3.89-1.15c-3,0-5.19,2-7.34,2-1.15,0-2.28-.56-3.49-2.29a15.72,15.72,0,0,0-3.06-3.39,23.6,23.6,0,0,0-46,7.48c0,.71,0,1.41.1,2.11H20.91l-.11,0ZM36,19.72c2.61-2.4,4.79-3.57,6.66-3.57a6.16,6.16,0,0,1,4.4,2.3v0l.14.16.09.1a17.36,17.36,0,0,1,1.54,1.93c1.28,1.84,2.64,2.7,4.26,2.7a9,9,0,0,0,3.43-.94,10.33,10.33,0,0,1,3.91-1h0a6.61,6.61,0,0,1,3.41,1,30.07,30.07,0,0,0,7.89,3h-45A31.49,31.49,0,0,0,36,19.72Z"/><path class="cls-1" d="M51.51,42.82h.57L53.25,45l.37.78h0c0-.38-.07-.83-.07-1.23V42.82h.52v3.69h-.57l-1.17-2.18L52,43.56h0c0,.38.08.81.08,1.21v1.74h-.53Z"/><path class="cls-1" d="M54.79,45.14A1.33,1.33,0,0,1,56,43.68c.7,0,1.08.53,1.08,1.31a1.12,1.12,0,0,1,0,.29H55.34a.82.82,0,0,0,.81.85,1.08,1.08,0,0,0,.63-.21l.19.37a1.53,1.53,0,0,1-.89.29A1.3,1.3,0,0,1,54.79,45.14Zm1.81-.26c0-.47-.21-.75-.59-.75a.74.74,0,0,0-.68.75Z"/><path class="cls-1" d="M57.4,43.75H58l.35,1.5c0,.26.09.52.14.78h0c.06-.26.11-.52.17-.78l.37-1.5h.52l.38,1.5c.06.26.11.52.18.78h0c.06-.26.1-.52.16-.78l.34-1.5h.52l-.68,2.76h-.67l-.33-1.36c-.07-.27-.11-.52-.17-.8h0c-.05.28-.1.54-.16.8l-.33,1.36h-.64Z"/><path class="cls-1" d="M63.5,43.3h-1v-.48H65.1v.48h-1v3.21H63.5Z"/><path class="cls-1" d="M65.12,45.78c0-.59.48-.9,1.58-1,0-.32-.11-.6-.5-.6a1.45,1.45,0,0,0-.77.28L65.22,44a2,2,0,0,1,1.07-.36c.66,0,1,.44,1,1.17v1.66H66.8l0-.31h0a1.31,1.31,0,0,1-.84.38A.75.75,0,0,1,65.12,45.78Zm1.58,0v-.68c-.78.1-1,.31-1,.62s.18.38.42.38A.94.94,0,0,0,66.7,45.8Z"/><path class="cls-1" d="M68,42.89a.33.33,0,0,1,.35-.34.34.34,0,0,1,.36.34.34.34,0,0,1-.36.34A.33.33,0,0,1,68,42.89Zm.08.86h.55v2.76H68Z"/><path class="cls-1" d="M69.4,43.75h.45l0,.3h0a1.32,1.32,0,0,1,.81-.37c.67,0,1,.56,1,1.41s-.54,1.49-1.14,1.49a1.08,1.08,0,0,1-.7-.31l0,.47v.89H69.4Zm1.8,1.35c0-.58-.18-.94-.62-.94a.89.89,0,0,0-.63.34v1.35a.83.83,0,0,0,.57.25C70.91,46.1,71.2,45.74,71.2,45.1Z"/><path class="cls-1" d="M72.23,45.14a1.33,1.33,0,0,1,1.21-1.46c.7,0,1.07.53,1.07,1.31a2.07,2.07,0,0,1,0,.29H72.77a.82.82,0,0,0,.82.85,1.08,1.08,0,0,0,.63-.21l.19.37a1.55,1.55,0,0,1-.89.29A1.3,1.3,0,0,1,72.23,45.14ZM74,44.88c0-.47-.21-.75-.59-.75s-.63.27-.68.75Z"/><path class="cls-1" d="M75.05,42.89a.35.35,0,0,1,.7,0,.35.35,0,0,1-.7,0Zm.07.86h.55v2.76h-.55Z"/><path class="cls-1" d="M77.42,44.67c0-1.2.7-1.92,1.6-1.92a1.34,1.34,0,0,1,1,.46l-.3.37a.93.93,0,0,0-.69-.33c-.61,0-1,.53-1,1.4s.4,1.42,1,1.42a1,1,0,0,0,.79-.39l.3.37a1.39,1.39,0,0,1-1.1.53C78.11,46.58,77.42,45.88,77.42,44.67Z"/><path class="cls-1" d="M80.59,42.89a.35.35,0,0,1,.7,0,.35.35,0,0,1-.7,0Zm.07.86h.55v2.76h-.55Z"/><path class="cls-1" d="M82.12,45.61v-1.4h-.38v-.43l.4,0,.07-.76h.46v.76h.69v.46h-.69v1.4c0,.33.11.51.39.51a.68.68,0,0,0,.28-.07l.1.43a1.6,1.6,0,0,1-.52.1C82.33,46.58,82.12,46.19,82.12,45.61Z"/><path class="cls-1" d="M85.09,46.68c-.21.59-.48,1-1,1a.78.78,0,0,1-.33-.06l.1-.45a.58.58,0,0,0,.19,0c.29,0,.46-.22.56-.52l.05-.19-1.05-2.74h.57l.49,1.42.24.78h0l.21-.78.42-1.42h.54Z"/><path class="cls-1" d="M87.46,44.67c0-1.2.7-1.92,1.6-1.92a1.34,1.34,0,0,1,1,.46l-.3.37a.93.93,0,0,0-.69-.33c-.61,0-1,.53-1,1.4s.4,1.42,1,1.42a1,1,0,0,0,.79-.39l.29.37a1.36,1.36,0,0,1-1.1.53C88.14,46.58,87.46,45.88,87.46,44.67Z"/><path class="cls-1" d="M90.62,45.49V43.75h.55v1.67c0,.47.13.66.44.66s.41-.12.64-.41V43.75h.55v2.76h-.45l0-.41h0a1.1,1.1,0,0,1-.87.48C90.86,46.58,90.62,46.19,90.62,45.49Z"/><path class="cls-1" d="M93.62,45.86V42.51h.55v3.38c0,.16.07.22.13.22h.09l.08.43a.78.78,0,0,1-.3,0C93.77,46.58,93.62,46.31,93.62,45.86Z"/><path class="cls-1" d="M95.13,45.61v-1.4h-.38v-.43l.4,0,.07-.76h.46v.76h.69v.46h-.69v1.4c0,.33.11.51.39.51a.68.68,0,0,0,.28-.07l.1.43a1.6,1.6,0,0,1-.52.1C95.34,46.58,95.13,46.19,95.13,45.61Z"/><path class="cls-1" d="M96.9,45.49V43.75h.56v1.67c0,.47.13.66.44.66s.41-.12.63-.41V43.75h.56v2.76h-.45l0-.41h0a1.1,1.1,0,0,1-.87.48C97.15,46.58,96.9,46.19,96.9,45.49Z"/><path class="cls-1" d="M99.91,43.75h.45l0,.5h0a.92.92,0,0,1,.75-.57.64.64,0,0,1,.3.06l-.1.5a.8.8,0,0,0-.27,0c-.21,0-.47.15-.64.59v1.72h-.55Z"/><path class="cls-1" d="M101.63,45.14a1.32,1.32,0,0,1,1.2-1.46c.7,0,1.08.53,1.08,1.31a2.07,2.07,0,0,1,0,.29h-1.72a.82.82,0,0,0,.82.85,1.13,1.13,0,0,0,.63-.21l.19.37a1.58,1.58,0,0,1-.9.29A1.3,1.3,0,0,1,101.63,45.14Zm1.8-.26c0-.47-.2-.75-.59-.75s-.62.27-.68.75Z"/><path class="cls-1" d="M105.64,42.82h2.1v.48H106.2v1.13h1.31v.49H106.2v1.59h-.56Z"/><path class="cls-1" d="M108,45.14a1.26,1.26,0,1,1,1.25,1.44A1.32,1.32,0,0,1,108,45.14Zm1.93,0c0-.59-.26-1-.68-1s-.67.39-.67,1,.26,1,.67,1S110,45.72,110,45.14Z"/><path class="cls-1" d="M111.13,45.49V43.75h.55v1.67c0,.47.13.66.45.66s.41-.12.63-.41V43.75h.55v2.76h-.45l0-.41h0a1.1,1.1,0,0,1-.86.48C111.38,46.58,111.13,46.19,111.13,45.49Z"/><path class="cls-1" d="M114.14,43.75h.45l0,.38h0a1.24,1.24,0,0,1,.87-.45c.56,0,.81.39.81,1.09v1.74h-.55V44.84c0-.47-.13-.66-.45-.66s-.41.13-.65.37v2h-.54Z"/><path class="cls-1" d="M117,45.14c0-.9.54-1.46,1.13-1.46a1,1,0,0,1,.71.31l0-.46v-1h.55v4h-.45l-.05-.31h0a1.1,1.1,0,0,1-.77.38C117.38,46.58,117,46.05,117,45.14Zm1.82.62V44.41a.83.83,0,0,0-.58-.25c-.37,0-.67.37-.67,1s.24,1,.65,1A.77.77,0,0,0,118.77,45.76Z"/><path class="cls-1" d="M120,45.78c0-.59.48-.9,1.58-1,0-.32-.11-.6-.5-.6a1.45,1.45,0,0,0-.77.28l-.2-.39a2,2,0,0,1,1.07-.36c.65,0,1,.44,1,1.17v1.66h-.46l0-.31h0a1.31,1.31,0,0,1-.84.38A.75.75,0,0,1,120,45.78Zm1.58,0v-.68c-.78.1-1,.31-1,.62s.17.38.41.38A.92.92,0,0,0,121.57,45.8Z"/><path class="cls-1" d="M122.91,45.61v-1.4h-.39v-.43l.41,0L123,43h.47v.76h.69v.46h-.69v1.4c0,.33.11.51.38.51a.73.73,0,0,0,.29-.07l.1.43a1.66,1.66,0,0,1-.52.1C123.11,46.58,122.91,46.19,122.91,45.61Z"/><path class="cls-1" d="M124.64,42.89a.35.35,0,0,1,.7,0,.35.35,0,0,1-.7,0Zm.07.86h.55v2.76h-.55Z"/><path class="cls-1" d="M125.9,45.14a1.26,1.26,0,1,1,1.24,1.44A1.31,1.31,0,0,1,125.9,45.14Zm1.92,0c0-.59-.26-1-.68-1s-.67.39-.67,1,.26,1,.67,1S127.82,45.72,127.82,45.14Z"/><path class="cls-1" d="M129,43.75h.45l0,.38h0a1.24,1.24,0,0,1,.87-.45c.56,0,.81.39.81,1.09v1.74h-.55V44.84c0-.47-.13-.66-.45-.66s-.41.13-.65.37v2H129Z"/><path class="cls-1" d="M54.31,30.49v.85h.34l.5-.55.88.87-.42.42h-1l1,.22a5.72,5.72,0,0,1-1.18,1.56h.46l.49-.53.76.76V30.52l1.3.22v.53a3.75,3.75,0,0,0,1.59-1l1,.9a5.83,5.83,0,0,1-2.62.86v1.33H58.9l.44-.4.75.72-.35.43h-.49v5.64L58,39.91V34.14h-.56v1.27A7.43,7.43,0,0,1,57.05,38a6.27,6.27,0,0,1-1,1.86l-.58-.44a11.55,11.55,0,0,0,.69-4.07v-1l-.32.32H54.2v.79h.45l.5-.55.88.87-.42.42H54.2l.55.24a12.48,12.48,0,0,1,1.16.8l-.81,1.35a11.49,11.49,0,0,0-.9-1.25v2.48l-1.32.14V38.18a8.77,8.77,0,0,1-1.14,1.14l-.45-.62a12.59,12.59,0,0,0,1.41-2.57H51.55l-.17-.74h1.5V34.6H51.43l-.17-.74h1.18a8.49,8.49,0,0,0-.76-1.37l.4-.41H51.5l-.17-.74h1.51V30.28Zm-.8,3.37a8.2,8.2,0,0,0,.78-1.78h-2a5.85,5.85,0,0,1,1.1,1l-.64.74Z"/><path class="cls-1" d="M65.46,30.64v9l-1.56.21V38.25c-.45.34-.92.7-1.46,1.08l-.81-1.54a18.37,18.37,0,0,0,2.27-.91v-2.8H62.17L62,33.24H63.9V30.43Zm4.85,2.11a5.9,5.9,0,0,1-2.46,1.92v3.26c0,.2.05.31.15.31h.53c.16,0,.27-.17.31-.52l.29-1.36.7.17a3.3,3.3,0,0,0-.1.8,1.44,1.44,0,0,0,.49,1.24,1.29,1.29,0,0,1-1.33,1H67.3a.9.9,0,0,1-1-1V30.42l1.53.25v2.68A14.8,14.8,0,0,0,69,31.62Z"/><path class="cls-1" d="M79.73,31l.88.88-.42.46h-8L72,31.53h3.44V30.35l1.67.24v.94h2.07ZM74,33.22v.46h1.49V32.4l1.67.21v1.07h1.31l.72-.78,1.4,1.15-.44.5v3.28c0,.75-.31,1.12-.92,1.12h-.84c0-.63-.36-1-1.08-1v-.73a4.42,4.42,0,0,0,1.06.12c.15,0,.22-.11.22-.31V34.46H77.11v5.17l-1.67.23v-5.4H74v4.41l-1.56.21V33Z"/><path class="cls-1" d="M87.4,30.62v1.17h2.14l.54-.57.89.89-.39.45h-.64a18.7,18.7,0,0,1-1.19,2.37,9.42,9.42,0,0,1-1.15,1.73,10.59,10.59,0,0,0,3.34,1.68l-1,1.45a12.2,12.2,0,0,1-3.42-2,6,6,0,0,1-1.38.93,12.22,12.22,0,0,1-2.4,1.07l-.37-.64a10.88,10.88,0,0,0,2.29-1.56,7.81,7.81,0,0,0,.93-.82,9.55,9.55,0,0,1-1.21-2.06,9.76,9.76,0,0,1-.65-2.14H82.61l-.17-.77h3.27V30.38Zm-.89,5.07a9.06,9.06,0,0,0,1.08-1.78,10.54,10.54,0,0,0,.58-1.35H84.63A8.05,8.05,0,0,0,86.51,35.69Z"/><path class="cls-1" d="M93.1,35.94l-.53-.55a14.5,14.5,0,0,0,1.82-5l1.69.32a16,16,0,0,1-.82,2.16v6.76l-1.54.19V35.31A4.13,4.13,0,0,1,93.1,35.94Zm5.16-5.27V34a9.7,9.7,0,0,0,1.29-2.34l1.6,1.05a7.51,7.51,0,0,1-2.89,2.6V37.9c0,.22.08.35.23.36h.82c.18,0,.29-.19.32-.57l.31-1.47.75.18a3.61,3.61,0,0,0-.12.86,1.46,1.46,0,0,0,.64,1.36,1.46,1.46,0,0,1-1.49,1.16H97.85a1.05,1.05,0,0,1-1.17-1.14V30.42Z"/><path class="cls-1" d="M110.49,38.34l.87.87-.4.45h-7.65l-.18-.78h3.25v-1h-1.47l-.15-.66a5.82,5.82,0,0,1-1.6.75l-.32-.73a5.55,5.55,0,0,0,1.69-1.46h-1.37L103,35h1.49V32h-1.13l-.17-.78h1.3v-.9l1.54.21v.69h2.33v-.9l1.54.21v.69H110l.49-.46.79.79-.41.45h-1v3h.28l.52-.52.86.85-.41.45h-1.61a9.67,9.67,0,0,0,2.07.73l-.68,1.72a6.9,6.9,0,0,1-2.79-2.45h-1.67A7.89,7.89,0,0,1,105,37.12h1.42v-1l1.56.22v.77h.21l.49-.47.81.81-.41.44h-1.1v1h2ZM106,32.49h2.33V32H106Zm0,.76v.52h2.33v-.52Zm0,1.28V35h2.33v-.49Z"/><path class="cls-1" d="M118.36,30.52c-.08.15-.14.29-.21.41a8.23,8.23,0,0,0,1.5,1,10.47,10.47,0,0,0,2.33.94l-1,1.57a10.39,10.39,0,0,1-1.07-.7l-.38.39h-1.28v1.43h2.1l.54-.57.87.87-.38.43H120l1.06.65a8.29,8.29,0,0,1-1.6,2h1l.53-.57.88.88-.37.43H113.3l-.16-.74H115A15.46,15.46,0,0,0,114,36.74l.59-.47h-1.19l-.17-.73h3.43V34.11h-1.41l-.08-.35a8.44,8.44,0,0,1-1.61.64l-.39-.78a7.4,7.4,0,0,0,3.43-3.39Zm-1.72,8.41V36.27H114.9A16.79,16.79,0,0,1,116.39,38l-1.13.91Zm2-5.55L119,33a11.53,11.53,0,0,1-1.29-1.33,6.57,6.57,0,0,1-1.24,1.23,6.94,6.94,0,0,1-.67.51Zm.48,5.55-.47-.49a8.57,8.57,0,0,0,.69-1.23,8.27,8.27,0,0,0,.4-.94h-1.44v2.66Z"/><path class="cls-1" d="M131.47,33.71l-.22.41v2.11l-.66.09.74.64-.29.42v2.3l-1.39.19v-.39h-3.78v.3l-1.39.19V36.48l-.28,0V33.08l-.48.11-.32-.6a12.31,12.31,0,0,0,3.89-2.31l1.58.4c-.11.1-.21.2-.31.28a6.32,6.32,0,0,0,1.43.5,10.08,10.08,0,0,0,2.18.36l-.4,1.28a6.2,6.2,0,0,1-1.28-.23Zm-6.68-.78.8.1v.26h4.12l.53-.51a3.79,3.79,0,0,1-.62-.23l-.24.35h-3.3l-.09-.38A11.28,11.28,0,0,1,124.79,32.93Zm.8,1.09v1.34h.82a6.67,6.67,0,0,0-.76-.91L126,34Zm4,2.5.3-.28V36.1h-4.29v.15l.28,0v.23Zm.07.73h-3.78v.37h3.78Zm0,1.11h-3.78v.39h3.78ZM126.07,34a4.21,4.21,0,0,1,1.06.67V34Zm.61,1.34h.45v-.55Zm.07-3.19h2l.1-.07a7.17,7.17,0,0,1-.85-.67A7.17,7.17,0,0,1,126.75,32.17ZM128.36,34v1.26A5.35,5.35,0,0,0,129,34Zm1.52.51a2.88,2.88,0,0,1-.84.83h.84Zm0-.51h-.63l.63.4Z"/><path class="cls-2" d="M4.87,38a24.16,24.16,0,0,0,1.74,2h34a24.27,24.27,0,0,0,1.75-2Z"/><path class="cls-2" d="M2.61,34.39c.36.69.75,1.37,1.17,2H43.42a22.64,22.64,0,0,0,1.18-2Z"/><path class="cls-2" d="M36.22,43.55a24.56,24.56,0,0,0,2.74-2H8.25a23.67,23.67,0,0,0,2.74,2Z"/><path class="cls-2" d="M13.84,45.09a23.55,23.55,0,0,0,19.53,0Z"/><path class="cls-2" d="M.28,27.25c.11.69.25,1.36.41,2H46.51a19.71,19.71,0,0,0,.41-2Z"/><path class="cls-2" d="M1.13,30.82c.22.69.47,1.37.75,2H45.33c.28-.66.53-1.34.75-2Z"/><path class="cls-2" d="M80.42,25.72s-9.6-.57-16.65-4.73a7.5,7.5,0,0,0-3.89-1.15c-3,0-5.19,2-7.34,2-1.15,0-2.28-.56-3.49-2.29A15.64,15.64,0,0,0,46,16.13,23.6,23.6,0,0,0,0,23.6c0,.71,0,1.42.1,2.11H20.34l-.11,0Zm-45-6.56c2.61-2.41,4.79-3.58,6.66-3.58a6.19,6.19,0,0,1,4.41,2.3h0l.14.15.09.1a18.34,18.34,0,0,1,1.54,1.93c1.29,1.84,2.64,2.7,4.26,2.7A9.12,9.12,0,0,0,56,21.82a10.11,10.11,0,0,1,3.9-1h0a6.58,6.58,0,0,1,3.41,1,30.07,30.07,0,0,0,7.89,3h-45A31.49,31.49,0,0,0,35.44,19.16Z"/><path class="cls-3" d="M50.94,42.25h.57l1.18,2.17.37.78h0c0-.38-.07-.83-.07-1.23V42.25h.53V46H53l-1.18-2.18L51.42,43h0c0,.38.07.81.07,1.21V46h-.53Z"/><path class="cls-3" d="M54.22,44.57a1.33,1.33,0,0,1,1.21-1.46c.7,0,1.08.53,1.08,1.31a1.12,1.12,0,0,1,0,.29H54.77a.82.82,0,0,0,.82.85,1.13,1.13,0,0,0,.63-.21l.19.37a1.58,1.58,0,0,1-.9.29A1.31,1.31,0,0,1,54.22,44.57ZM56,44.32c0-.48-.2-.76-.59-.76s-.62.27-.68.76Z"/><path class="cls-3" d="M56.83,43.18h.56l.35,1.5c0,.27.1.52.14.78h0c.06-.26.11-.52.18-.78l.37-1.5H59l.38,1.5c.06.27.12.52.18.78h0c.05-.26.09-.51.15-.78l.34-1.5h.52L59.87,46h-.66l-.34-1.37c-.06-.26-.11-.51-.17-.8h0c-.06.29-.1.54-.17.8L58.19,46h-.64Z"/><path class="cls-3" d="M62.93,42.74h-1v-.49h2.64v.49h-1V46h-.56Z"/><path class="cls-3" d="M64.55,45.21c0-.59.48-.9,1.58-1,0-.32-.11-.61-.5-.61a1.46,1.46,0,0,0-.77.29l-.2-.4a2,2,0,0,1,1.07-.36c.65,0,1,.44,1,1.17V46h-.45l0-.32h0a1.31,1.31,0,0,1-.84.38A.75.75,0,0,1,64.55,45.21Zm1.58,0v-.68c-.78.1-1,.31-1,.62s.17.38.41.38A.88.88,0,0,0,66.13,45.23Z"/><path class="cls-3" d="M67.38,42.32a.36.36,0,0,1,.71,0,.36.36,0,0,1-.71,0Zm.08.86H68V46h-.55Z"/><path class="cls-3" d="M68.83,43.18h.45l0,.3h0a1.32,1.32,0,0,1,.81-.37c.68,0,1,.56,1,1.41S70.66,46,70.06,46a1.05,1.05,0,0,1-.69-.31v1.37h-.55Zm1.8,1.35c0-.58-.18-.94-.62-.94a1,1,0,0,0-.63.34v1.35a.85.85,0,0,0,.58.25C70.34,45.53,70.63,45.18,70.63,44.53Z"/><path class="cls-3" d="M71.66,44.57a1.33,1.33,0,0,1,1.21-1.46c.7,0,1.08.53,1.08,1.31a1.12,1.12,0,0,1,0,.29H72.21a.82.82,0,0,0,.81.85,1.08,1.08,0,0,0,.63-.21l.2.37A1.58,1.58,0,0,1,73,46,1.31,1.31,0,0,1,71.66,44.57Zm1.81-.25c0-.48-.21-.76-.59-.76s-.63.27-.68.76Z"/><path class="cls-3" d="M74.48,42.32a.33.33,0,0,1,.35-.34.34.34,0,0,1,.36.34.35.35,0,0,1-.36.35A.34.34,0,0,1,74.48,42.32Zm.08.86h.55V46h-.55Z"/><path class="cls-3" d="M76.86,44.11c0-1.21.7-1.93,1.59-1.93a1.35,1.35,0,0,1,1,.47l-.31.37a.9.9,0,0,0-.69-.33c-.61,0-1,.53-1,1.4s.39,1.41,1,1.41a1,1,0,0,0,.78-.39l.3.37a1.38,1.38,0,0,1-1.1.53C77.54,46,76.86,45.32,76.86,44.11Z"/><path class="cls-3" d="M80,42.32a.33.33,0,0,1,.35-.34.34.34,0,0,1,.36.34.35.35,0,0,1-.36.35A.34.34,0,0,1,80,42.32Zm.08.86h.54V46H80.1Z"/><path class="cls-3" d="M81.55,45v-1.4h-.38v-.43l.41,0,.06-.76h.47v.76h.68v.46h-.68v1.41c0,.33.11.5.38.5a.64.64,0,0,0,.28-.07l.11.43a1.66,1.66,0,0,1-.52.1C81.76,46,81.55,45.62,81.55,45Z"/><path class="cls-3" d="M84.52,46.11c-.2.59-.48,1-1,1a1,1,0,0,1-.33-.05l.1-.46a.59.59,0,0,0,.2,0c.29,0,.45-.22.55-.51l0-.19-1-2.75h.56l.49,1.42.24.78h0l.2-.78L85,43.18h.54Z"/><path class="cls-3" d="M86.89,44.11c0-1.21.71-1.93,1.6-1.93a1.35,1.35,0,0,1,1,.47l-.31.37a.9.9,0,0,0-.69-.33c-.61,0-1,.53-1,1.4s.39,1.41,1,1.41a1,1,0,0,0,.78-.39l.3.37a1.39,1.39,0,0,1-1.1.53C87.58,46,86.89,45.32,86.89,44.11Z"/><path class="cls-3" d="M90.05,44.92V43.18h.55v1.67c0,.48.13.66.44.66s.42-.12.64-.41V43.18h.55V46h-.45l0-.42h0a1.1,1.1,0,0,1-.86.48C90.29,46,90.05,45.62,90.05,44.92Z"/><path class="cls-3" d="M93.05,45.3V41.94h.55v3.39c0,.15.07.21.14.21h.09l.07.44a1,1,0,0,1-.3,0C93.2,46,93.05,45.74,93.05,45.3Z"/><path class="cls-3" d="M94.56,45v-1.4h-.38v-.43l.41,0,.06-.76h.47v.76h.68v.46h-.68v1.41c0,.33.11.5.38.5a.64.64,0,0,0,.28-.07l.11.43a1.66,1.66,0,0,1-.52.1C94.77,46,94.56,45.62,94.56,45Z"/><path class="cls-3" d="M96.34,44.92V43.18h.55v1.67c0,.48.13.66.44.66s.42-.12.64-.41V43.18h.55V46h-.45l0-.42h0a1.1,1.1,0,0,1-.86.48C96.58,46,96.34,45.62,96.34,44.92Z"/><path class="cls-3" d="M99.34,43.18h.45l0,.5h0a.92.92,0,0,1,.75-.57.64.64,0,0,1,.3.06l-.1.51a.59.59,0,0,0-.27,0c-.21,0-.47.16-.64.59V46h-.55Z"/><path class="cls-3" d="M101.06,44.57a1.33,1.33,0,0,1,1.21-1.46c.7,0,1.07.53,1.07,1.31a2.07,2.07,0,0,1,0,.29H101.6a.82.82,0,0,0,.82.85,1.08,1.08,0,0,0,.63-.21l.19.37a1.55,1.55,0,0,1-.89.29A1.3,1.3,0,0,1,101.06,44.57Zm1.81-.25c0-.48-.21-.76-.59-.76s-.63.27-.68.76Z"/><path class="cls-3" d="M105.07,42.25h2.1v.49h-1.54v1.13h1.31v.48h-1.31V46h-.56Z"/><path class="cls-3" d="M107.47,44.57A1.26,1.26,0,1,1,108.71,46,1.31,1.31,0,0,1,107.47,44.57Zm1.92,0c0-.59-.26-1-.68-1s-.67.39-.67,1,.26,1,.67,1S109.39,45.15,109.39,44.57Z"/><path class="cls-3" d="M110.56,44.92V43.18h.56v1.67c0,.48.13.66.44.66s.41-.12.63-.41V43.18h.56V46h-.45l0-.42h0a1.1,1.1,0,0,1-.87.48C110.81,46,110.56,45.62,110.56,44.92Z"/><path class="cls-3" d="M113.57,43.18H114l0,.38h0a1.24,1.24,0,0,1,.87-.45c.57,0,.82.39.82,1.1V46h-.56V44.28c0-.48-.13-.67-.44-.67a.87.87,0,0,0-.65.38v2h-.55Z"/><path class="cls-3" d="M116.38,44.57c0-.9.54-1.46,1.14-1.46a1,1,0,0,1,.71.31l0-.45v-1h.56v4h-.45l0-.32h0a1.08,1.08,0,0,1-.77.38C116.81,46,116.38,45.48,116.38,44.57Zm1.82.63V43.85a.79.79,0,0,0-.58-.26c-.37,0-.67.37-.67,1s.24,1,.65,1A.76.76,0,0,0,118.2,45.2Z"/><path class="cls-3" d="M119.43,45.21c0-.59.48-.9,1.58-1,0-.32-.12-.61-.51-.61a1.4,1.4,0,0,0-.76.29l-.21-.4a2,2,0,0,1,1.07-.36c.66,0,1,.44,1,1.17V46h-.45l0-.32h0a1.33,1.33,0,0,1-.85.38A.74.74,0,0,1,119.43,45.21Zm1.58,0v-.68c-.79.1-1.05.31-1.05.62a.36.36,0,0,0,.41.38A.92.92,0,0,0,121,45.23Z"/><path class="cls-3" d="M122.34,45v-1.4H122v-.43l.41,0,.07-.76h.46v.76h.69v.46h-.69v1.41c0,.33.11.5.39.5a.68.68,0,0,0,.28-.07l.1.43a1.66,1.66,0,0,1-.52.1C122.55,46,122.34,45.62,122.34,45Z"/><path class="cls-3" d="M124.07,42.32a.33.33,0,0,1,.35-.34.34.34,0,0,1,.36.34.35.35,0,0,1-.36.35A.34.34,0,0,1,124.07,42.32Zm.08.86h.54V46h-.54Z"/><path class="cls-3" d="M125.33,44.57A1.26,1.26,0,1,1,126.57,46,1.31,1.31,0,0,1,125.33,44.57Zm1.92,0c0-.59-.26-1-.68-1s-.67.39-.67,1,.26,1,.67,1S127.25,45.15,127.25,44.57Z"/><path class="cls-3" d="M128.46,43.18h.45l0,.38h0a1.24,1.24,0,0,1,.87-.45c.57,0,.82.39.82,1.1V46h-.56V44.28c0-.48-.13-.67-.44-.67A.87.87,0,0,0,129,44v2h-.55Z"/><path class="cls-4" d="M53.75,29.93v.85h.34l.49-.56.89.87-.43.42h-1l1,.23a5.8,5.8,0,0,1-1.17,1.55h.46l.48-.53.77.77V30l1.3.21v.53a3.78,3.78,0,0,0,1.58-1l1,.9a5.83,5.83,0,0,1-2.61.86v1.33h1.45l.44-.4.76.73-.35.43h-.5v5.63l-1.24.14V33.58h-.56v1.27a7.12,7.12,0,0,1-.4,2.56,6.15,6.15,0,0,1-1,1.86l-.57-.44a11.47,11.47,0,0,0,.69-4.07v-1l-.32.33H53.64v.79h.45l.49-.56.89.87-.43.42h-1.4c.22.09.4.18.55.25a13.15,13.15,0,0,1,1.16.79L54.54,38a14.79,14.79,0,0,0-.9-1.24v2.47l-1.33.15V37.62a9.28,9.28,0,0,1-1.13,1.13l-.45-.62a12.09,12.09,0,0,0,1.4-2.57H51l-.17-.73h1.5V34H50.86l-.17-.75h1.19a8.47,8.47,0,0,0-.77-1.37l.4-.41h-.57l-.18-.73h1.51V29.71Zm-.81,3.36a8,8,0,0,0,.79-1.78h-2a6.19,6.19,0,0,1,1.1,1l-.64.74Z"/><path class="cls-4" d="M64.89,30.07v9l-1.56.21V37.68c-.44.35-.92.7-1.46,1.08l-.81-1.54a16.39,16.39,0,0,0,2.27-.91V33.52H61.61l-.19-.84h1.91V29.86Zm4.86,2.12a6,6,0,0,1-2.46,1.91v3.26c0,.21,0,.31.15.31H68c.17,0,.28-.17.31-.51l.3-1.36.69.16a3.32,3.32,0,0,0-.09.8A1.47,1.47,0,0,0,69.65,38a1.29,1.29,0,0,1-1.33,1H66.74a.91.91,0,0,1-1-1V29.85l1.54.25v2.68a15.24,15.24,0,0,0,1.12-1.73Z"/><path class="cls-4" d="M79.16,30.42l.88.88-.42.46h-8l-.17-.8h3.43V29.78l1.67.24V31h2.07Zm-5.78,2.24v.46h1.49V31.83l1.67.21v1.08h1.32l.71-.79L80,33.49l-.44.5v3.27c0,.76-.31,1.12-.92,1.12h-.84c0-.63-.36-1-1.07-1V36.7a4.81,4.81,0,0,0,1.05.11c.15,0,.23-.1.23-.31V33.89H76.54v5.17l-1.67.23v-5.4H73.38V38.3l-1.55.22V32.45Z"/><path class="cls-4" d="M86.83,30.05v1.17H89l.54-.57.89.89L90,32h-.64a18.69,18.69,0,0,1-1.18,2.37A10,10,0,0,1,87,36.09a10.65,10.65,0,0,0,3.35,1.68l-1,1.45a12.13,12.13,0,0,1-3.41-2,6.08,6.08,0,0,1-1.38.93,12,12,0,0,1-2.41,1.07l-.36-.64A10.76,10.76,0,0,0,84.09,37,9.7,9.7,0,0,0,85,36.2a10,10,0,0,1-1.21-2.07A9.73,9.73,0,0,1,83.16,32H82l-.17-.77h3.28V29.81ZM86,35.12A10.14,10.14,0,0,0,87,33.34,12.17,12.17,0,0,0,87.61,32H84.06A7.89,7.89,0,0,0,86,35.12Z"/><path class="cls-4" d="M92.53,35.38,92,34.83a14.35,14.35,0,0,0,1.82-5l1.69.32a14.72,14.72,0,0,1-.82,2.16v6.76l-1.53.19V34.74A5.49,5.49,0,0,1,92.53,35.38ZM97.7,30.1v3.29A9.7,9.7,0,0,0,99,31.05l1.61,1.05a7.65,7.65,0,0,1-2.89,2.6v2.63c0,.23.07.35.23.36h.81c.18,0,.29-.19.33-.56l.3-1.48.76.19a3.06,3.06,0,0,0-.12.86,1.5,1.5,0,0,0,.63,1.36,1.46,1.46,0,0,1-1.49,1.15H97.28a1,1,0,0,1-1.17-1.13V29.85Z"/><path class="cls-4" d="M109.92,37.77l.88.87-.41.45h-7.65l-.18-.78h3.25v-1h-1.47l-.15-.65a6.09,6.09,0,0,1-1.6.74l-.32-.72A5.61,5.61,0,0,0,104,35.23h-1.37l-.17-.77h1.48v-3h-1.12l-.18-.78h1.3v-.9l1.55.22v.68h2.33v-.9l1.53.22v.68h.12l.49-.46.79.79-.4.45h-1v3h.28l.52-.52.86.84-.4.45H109A9.07,9.07,0,0,0,111,36l-.69,1.72a7,7,0,0,1-2.79-2.45h-1.67a7.48,7.48,0,0,1-1.48,1.32h1.41v-1l1.56.23v.76h.21l.49-.47.81.81-.4.44h-1.11v1h2Zm-4.47-5.85h2.33v-.48h-2.33Zm0,.77v.51h2.33v-.51Zm0,1.28v.49h2.33V34Z"/><path class="cls-4" d="M117.79,30l-.21.41a9.91,9.91,0,0,0,1.5,1,10.67,10.67,0,0,0,2.33.93l-1,1.57c-.37-.22-.73-.45-1.06-.69l-.39.39h-1.27V35h2.1l.53-.56.88.87-.39.42h-1.4l1.07.65a8.34,8.34,0,0,1-1.6,2h1l.53-.57.89.88-.38.43h-8.22l-.17-.74h1.91a15.31,15.31,0,0,0-1.06-2.18l.59-.48h-1.2l-.17-.73h3.43V33.55h-1.41l-.08-.36a8.35,8.35,0,0,1-1.6.64l-.4-.77a7.32,7.32,0,0,0,3.43-3.4Zm-1.72,8.4V35.7h-1.74a15.51,15.51,0,0,1,1.49,1.75l-1.12.91Zm2-5.55.37-.41a11.63,11.63,0,0,1-1.3-1.33,6.51,6.51,0,0,1-1.23,1.23,6.7,6.7,0,0,1-.68.51Zm.48,5.55-.46-.49a7.93,7.93,0,0,0,.68-1.22,9.24,9.24,0,0,0,.4-.95h-1.43v2.66Z"/><path class="cls-4" d="M130.9,33.15l-.22.41v2.1l-.65.1.73.63-.29.42v2.3l-1.38.19v-.38H125.3v.29l-1.39.2v-3.5l-.27,0V32.51l-.49.12-.31-.61a12.16,12.16,0,0,0,3.88-2.31l1.58.4-.31.29a7.06,7.06,0,0,0,1.43.5,11.49,11.49,0,0,0,2.18.36l-.39,1.27a6,6,0,0,1-1.28-.23Zm-6.67-.79.8.1v.26h4.11l.54-.5a3.92,3.92,0,0,1-.63-.24l-.24.35h-3.3l-.09-.38A9.27,9.27,0,0,1,124.23,32.36Zm.8,1.09v1.34h.82a7.41,7.41,0,0,0-.77-.91l.32-.43Zm4,2.5.3-.28v-.14H125v.15l.27,0V36Zm.08.74H125.3v.36h3.79Zm0,1.1H125.3v.39h3.79Zm-3.58-4.34a4.32,4.32,0,0,1,1,.67v-.67Zm.6,1.34h.45v-.55Zm.08-3.19h2l.1-.07a6.5,6.5,0,0,1-.86-.66A8.2,8.2,0,0,1,126.19,31.6Zm1.6,1.85v1.26a4.55,4.55,0,0,0,.66-1.26Zm1.52.52a3,3,0,0,1-.84.82h.84Zm0-.52h-.63l.63.4Z"/></g></g></svg>