<svg xmlns="http://www.w3.org/2000/svg" xmlns:xlink="http://www.w3.org/1999/xlink" viewBox="0 0 226.07 46.41"><defs><style>.cls-1{fill:#fff;}.cls-2{fill:#e50012;}.cls-3{fill:#6fb92c;}.cls-4{fill:url(#linear-gradient);}.cls-5{fill:url(#linear-gradient-2);}.cls-6{fill:#ec6c00;}</style><linearGradient id="linear-gradient" x1="23.63" y1="43.62" x2="23.63" y2="3.61" gradientUnits="userSpaceOnUse"><stop offset="0" stop-color="#7dccf3"/><stop offset="1" stop-color="#0068b6"/></linearGradient><linearGradient id="linear-gradient-2" x1="29.08" y1="43.7" x2="29.08" y2="7.88" xlink:href="#linear-gradient"/></defs><g id="圖層_2" data-name="圖層 2"><g id="圖層_1-2" data-name="圖層 1"><path class="cls-1" d="M189.47,42.63a2.42,2.42,0,0,0-.45-1c-.31-.19-.33-.58-.61-.84a.36.36,0,0,0-.42-.08c-.06,0-.12-.06-.14,0a1.29,1.29,0,0,0,.22.56c.06.14-.11.2-.17.28s-.31-.14-.39-.28c-.11-.5-.76-.34-1.07-.73-.25.06-.31-.22-.45-.33s0-.4-.19-.46-.42-.3-.73-.33c-.23-.28-.53-.34-.73-.62a.77.77,0,0,1-.39-.64c0-.09.11-.06.14-.11,0-.29-.42-.29-.48-.57-.36-.14-.5-.67-.93-.5a2,2,0,0,0,.51.56v0c.06.14.22.22.25.39a.46.46,0,0,1-.14.34c-.33.06-.53-.28-.81-.37s-.5-.33-.67-.59c-.34-.19-.31.28-.62.26s-.17-.37-.17-.56-.23,0-.31-.14,0-.15,0-.23c-.39-.36-.92-.53-1.29-.92-.14-.34-.33.08-.5-.12-.09-.47-.65-.53-1-.78a.67.67,0,0,1-.33-.31c0-.11.08-.11.14-.14-.09-.37-.51-.45-.79-.51,0,.06,0,.06.06.09a.19.19,0,0,1,0,.28c-.31.14-.56-.11-.81-.28s-.51,0-.56-.37c-.23,0-.2-.33-.43-.25a2,2,0,0,0-.81-.11.17.17,0,0,1-.17-.23c0-.05-.08-.05-.14-.05-.22.05-.16-.25-.39-.23a.17.17,0,0,1-.11-.25c0-.08-.14-.11-.23-.14-.36-.36-.92-.48-1.29-.81-.28.06-.45-.26-.73-.23s-.47,0-.61-.19c.14-.45-.31-.09-.42-.37-.29,0-.51-.19-.76-.22-.11-.25-.42-.14-.62-.2-.17-.22-.5-.19-.7-.31a3.07,3.07,0,0,1-.93-.67c-.08-.14-.19.08-.3,0s-.39-.11-.42-.34.36-.44.28-.78a3,3,0,0,0,.56-.76c.06-.14.25-.17.28-.31a7.67,7.67,0,0,0,.64-.75c.23,0,.31-.29.48-.45,0-.14.22-.17.2-.34a2,2,0,0,0,.56-.95c-.06-.25.25-.31.17-.59.22-.17.11-.48.36-.65,0-.19,0-.45.22-.59a1.54,1.54,0,0,0,.06-.95.66.66,0,0,0,.11-.39.61.61,0,0,0,0-.51c-.08-.16.09-.34.06-.53s-.2,0-.28-.08-.17-.09-.14-.2,0-.19.11-.22a.15.15,0,0,1,.19.05c.06,0,.09.06.12,0a1.73,1.73,0,0,0-.37-.39.5.5,0,0,1-.14-.48c-.25-.2-.11-.56-.25-.84a1.65,1.65,0,0,0-.08-.87c-.09-.14.14-.39-.12-.45a4,4,0,0,0-1.06-1.12,1.67,1.67,0,0,1-.59-.56c-.26-.14-.65-.06-.82-.42-.14,0-.28-.2-.41-.14l0-.11a1.18,1.18,0,0,0-.71-.23c-.27-.2-.61.08-.87-.14s-.69-.14-1-.45c-.28-.11-.22-.48-.22-.78a2.66,2.66,0,0,0,.17-.82,6.44,6.44,0,0,1,.31-1.26c.11-.42.22-.89.31-1.34l-.06-.4-.2-.31c0-.36-.36-.56-.53-.84l-.06-.28c-.25,0-.33-.34-.53-.45s-.06,0-.09-.08c-.25-.09-.14-.42-.36-.51-.42-.36-.53-1-.81-1.4a1,1,0,0,0-.76-.14c-.25,0-.34.34-.59.25a2.82,2.82,0,0,0-.11.84c.22.18.39.57.7.57.16-.12.39-.09.53-.2.45,0,.2.56.31.87a7.89,7.89,0,0,1-.28.9,3.07,3.07,0,0,1-.08.89c0,.14-.09.23-.12.34.09.31-.22.56-.2.87-.27.28-.13.7-.24,1s0,.48-.14.64a2.48,2.48,0,0,1-.29.87c0,.06,0,.12-.05.14.08.25-.23.31-.26.53.06.4-.39.59-.33,1-.28.14-.25.45-.37.67a.67.67,0,0,0,0,.37c-.14.22,0,.5-.08.7a.63.63,0,0,0,.2.5c.08.26.34.17.44.37s.34.16.54.19a1.28,1.28,0,0,0,.76.12c.16-.2.33.06.56-.06s0-.42.33-.48.37-.3.56-.42c.28.09.46-.11.62-.3.45-.15.79.08,1.24.13.16,0,.28.2.44.14.09.12.26,0,.31.15.25,0,.37.3.62.27.17.28.53.23.76.4.39,0,.53.45.95.42.34.14.2.59.53.73a.92.92,0,0,1,.31,1l-.05.11a.68.68,0,0,1-.09.65c.09.22-.08.45,0,.7-.11.11-.08.23-.08.37s0,.33-.12.5-.19.31-.19.48A.72.72,0,0,1,168,23l-.09.36c0,.2-.31.2-.28.39.14.34-.16.48-.31.74s-.39.61-.47.95-.42.31-.48.59c-.2.5-.64.7-1,1.06-.23.12-.23.51-.53.37s-.08.17-.14.25a.21.21,0,0,1-.23,0l-.59-.31c-.5-.06-.89-.48-1.4-.56a6.6,6.6,0,0,0-1.54-.59c-.37-.25-.87-.23-1.24-.45-.39.11-.64-.22-1-.28s-.42-.25-.67-.14c0,.39.48.37.7.5a1.13,1.13,0,0,1,.51.14c.3,0,.47.26.78.23s.53.31.87.28c.31.2.7.25,1,.45a5.87,5.87,0,0,1,1,.28c.06,0,.12.14.23.11.2.2.56.28.73.5a.47.47,0,0,1,0,.29c-.31.39-.59-.2-.87-.29-.11-.25-.36,0-.53-.19a.58.58,0,0,1-.45-.06,0,0,0,0,0,0,0s-.06.06-.09.06v-.09c-.7-.14-1.37-.42-2.07-.5l-.31-.22a3.43,3.43,0,0,1-1.32-.79c-.2-.11-.48-.06-.64-.2a2.34,2.34,0,0,1-1-.5c0-.06,0-.09,0-.14a.45.45,0,0,1,.48,0,1.57,1.57,0,0,0,.48.05.47.47,0,0,0-.11-.25,1.75,1.75,0,0,1-.87-.37,11.32,11.32,0,0,0-1.83-.5c-.16-.17-.45-.06-.59-.28-.39.11-.62-.28-1-.23-.17,0-.31-.13-.47,0-.17-.25-.48-.17-.76-.2-.11,0-.23-.19-.39-.11a2,2,0,0,1-.65-.37c0-.25-.42-.22-.33-.53a.83.83,0,0,0-.54-.31c-.28-.13-.53.06-.84-.08-.11-.14-.31,0-.42-.14-.53,0-1-.25-1.51-.22a1.27,1.27,0,0,0-.68-.37c-.14-.08-.28,0-.42-.08-.19-.23-.53-.15-.78-.12a.11.11,0,0,1-.11-.14c.05-.11-.09-.13-.15-.16-.33.05-.56-.17-.89-.15a3.28,3.28,0,0,0-1.35-.33,1.69,1.69,0,0,0-.59.81c-.19.14-.14.34-.19.54.22.25.16.67.22.95s.25.56.11.87a3.2,3.2,0,0,1,.28,1c.06.16,0,.45.11.64s.09.73.29,1a2.72,2.72,0,0,1,.13.93.59.59,0,0,1,.15.56.78.78,0,0,1,0,.56,4.47,4.47,0,0,1,.23,1c.14.19.11.45.17.67-.09.08-.06.2,0,.31.22.11,0,.45.2.59,0,.36.08.7.13,1a3.24,3.24,0,0,1,.25,1.18c.2.45.32.93.51,1.35,0,.06.11.11.06.17s0,.22.17.25l-.06,0s.06.11.08.14c0,.23.26.36.37.56s.36.51.33.87c.09.11.26.25.29.39.27.14.42.45.64.65s.51.22.65.47c.3.17.64.37,1,.53a.64.64,0,0,0,.53.26s0-.14.14-.2a7.31,7.31,0,0,0,.81,0,1.2,1.2,0,0,1,.54-.05c.22-.14.5.05.76-.06.08.06.16.14.25.14v-.11c.33-.42,1-.22,1.43-.42a5.65,5.65,0,0,1,1.17-.48,2,2,0,0,0,1.07-.47c-.14-.31.22-.34.37-.48s.27.08.42.11l.36-.28c.08-.06.17,0,.23-.14.36-.17.61-.59,1.12-.56.19-.08.28-.34.53-.37.08,0,.17,0,.22.09s0,.17-.08.22c-.39.34-.95.56-1.23,1,.47,0,.81-.48,1.17-.72a5.83,5.83,0,0,0,1.63-1.13c.23,0,.34-.33.56-.36a2.78,2.78,0,0,1,.87-.76c.11.06.23-.06.31-.14s.14.06.25,0a.71.71,0,0,0,.37-.39c.17-.28.53-.31.7-.59,0-.31.33-.39.5-.65s.51-.25.62-.56c.31.06.22-.39.53-.39s.45-.64.9-.64c.06-.06.17-.14.17-.26s.22-.33.44-.3.23,0,.34,0c.29.14.59.25.87.39a.4.4,0,0,0,.34.14c.45.42,1.06.42,1.46.92.36,0,.36.48.73.4.19.08.25.36.5.3a9.38,9.38,0,0,0,1.15.65l.51,0c.14.17.17.4.42.4a11.45,11.45,0,0,0,1,.56c.39.22.84.36,1.23.62.14.08.17.22.31.25.33.25.7.37,1,.64s-.34.12-.45.26a2.48,2.48,0,0,0,.45.33c.08,0,.2.14.28,0l-.11-.08a.35.35,0,0,1,.11-.39c.14,0,.22.11.31.22.36.06.56.42.89.48l.57.42c.08.11.22.17.25.31-.23,0,.08.25-.17.28l.25.14V37c0-.08.14,0,.2,0s.22-.05.33-.05a10.16,10.16,0,0,1,1.1.75c0,.09,0,.14-.11.14-.28,0-.51-.33-.79-.44,0,0-.06.08-.06.11.2.28.57.36.73.64l.17-.16a.19.19,0,0,1,.26,0c0,.09,0,.17-.09.23.11,0,.28,0,.31.22s0,.06,0,.06.25.11.36,0c.11.11.37.16.31.34.17.11.31.25.5.16s.29.26.51.26a1.3,1.3,0,0,1,.53.22c.17.17.26.42.54.42,0,0,0,.08.11,0-.11-.14-.28-.12-.39-.25s-.17-.26-.31-.34c-.17-.34-.59-.25-.85-.5,0-.06,0-.15.06-.2.23-.2.23.17.37.22a.58.58,0,0,1,.56.31c.25,0,.33.25.5.4s.34.36.62.36a4.45,4.45,0,0,1,.79.45c.11,0,0,.19,0,.25a.27.27,0,0,1-.26,0,.18.18,0,0,0,0,.11c-.06.17-.2,0-.29,0s.15.14.23.22.28.09.42.23c.17-.06.31.08.45.14.22.36.67.39.87.73a6.8,6.8,0,0,1,.95.67.67.67,0,0,1,.42.22c.2.06.34.34.62.29a.35.35,0,0,1,.19.28c.14.19.17.53.45.61s.31-.19.48,0,.11.06.17,0c.34-.08,0-.36.25-.47.06-.14-.05-.28,0-.42S189.47,42.83,189.47,42.63ZM163.22,29.08a4.29,4.29,0,0,0-.53.68c0,.19,0,.39-.06.53.09.25-.14.42-.08.62.11.39-.39.25-.48.5-.25.23-.42.62-.78.65-.17.11-.34.19-.31.42-.14.13-.34,0-.4.25-.25,0-.47.39-.75.2-.17.08-.31-.12-.39-.2s.08-.28.05-.39A6.62,6.62,0,0,0,158,33.43c-.78.64-1.62,1.12-2.41,1.68a.41.41,0,0,1-.25.28c-.56-.11-.9.48-1.35.65-.08.08-.17.19-.28.14s-.06,0-.08,0c-.06.28-.4.19-.51.42s-.59.08-.73.39c-.44.14-.81.51-1.26.62-.2.11-.34-.11-.48.08a.36.36,0,0,0-.45.17c-.16,0-.31-.11-.42.06-.39,0-.73.17-1.12.14a1.62,1.62,0,0,0-.28-.2.23.23,0,0,1-.31.09c-.5-.26-.92-.59-1.4-.9a.76.76,0,0,1-.25-.56c-.31-.23-.28-.62-.42-.93-.14-.62-.48-1.12-.65-1.77-.16-.44-.25-.95-.42-1.43a11.38,11.38,0,0,1-.53-2c-.2-.45,0-1-.34-1.46a7.74,7.74,0,0,0-.22-1.29,4.76,4.76,0,0,1-.06-.65c-.11-.34-.2-.73-.31-1.07a4.82,4.82,0,0,0-.28-1.68c0-.28,0-.59,0-.87l.06-.64a.44.44,0,0,1,.42-.14c.06.11.2.08.3.14.18-.09.31.14.48,0s.17.16.31.22.25,0,.31-.11c.06.05.06.14,0,.16.17.2.45,0,.61.2l.37,0c.19.28.53.25.79.45.16-.06.39,0,.47-.14a.6.6,0,0,1,.59.19c.14,0,.25-.11.37,0a4,4,0,0,0,1.37.51,4.6,4.6,0,0,0,.84.28,3.27,3.27,0,0,0,.7.25.11.11,0,0,0,.14,0c.17,0,.34.15.48.12.09.14.31,0,.42.19.08,0,.14-.08.22-.08.17.2.4.2.59.31s.56.08.79.28c.34-.06.47.31.81.25.06.06.09,0,.14,0a.46.46,0,0,0,.31.17c.11,0,.25-.23.4-.09s.25.23.36.31c.11-.08.22,0,.33-.06.15.15.26.4.48.31-.08-.14-.39-.11-.31-.33a.6.6,0,0,1,.68-.06c.11.06.25-.14.36,0,.17.34.62.14.84.39.17.06.26.23.34.34s.45,0,.64.14c0,.11.2.2.09.31-.39.2-.62-.34-1-.28a1.19,1.19,0,0,0-.45-.08,7.47,7.47,0,0,0-.79-.29c.14.17.34.48.65.42a3,3,0,0,1,1.32.59c.25.09.58,0,.75.25.4.15.73.37,1.13.48,0,0,.08,0,.11-.08-.25-.28-.65-.31-.9-.56a.32.32,0,0,1-.06-.17c.28-.17.51.11.79.2a4.35,4.35,0,0,1,1.38.53c.3.11.55.42.89.53A.25.25,0,0,1,163.22,29.08Zm18.26,9.42a3.74,3.74,0,0,0-.81-.1c-.09,0-.06-.15,0-.2a.52.52,0,0,1,.5,0c.08.14.28.08.36.22S181.51,38.5,181.48,38.5Zm4.1,3c-.32-.08-.54-.34-.82-.45a.26.26,0,0,1,0-.19s.06-.09.11-.09a.79.79,0,0,1,.34.28c.17.09.4.14.48.31A.16.16,0,0,1,185.58,41.45Zm3,1.12c-.06,0-.12.06-.14,0-.29-.28-.68-.28-1-.45-.08-.14-.25-.22-.19-.42s.19,0,.28,0c.25.2.61.23.75.53.09,0,.15.09.23.12A.19.19,0,0,1,188.58,42.57Z"/><path class="cls-1" d="M166.64,30.6c-.25-.2-.62-.11-.87-.31,0,.11.17.08.12.2s.22.13.33.22a1.65,1.65,0,0,0,.76.08C166.92,30.68,166.76,30.65,166.64,30.6Z"/><path class="cls-1" d="M170.32,32.28a1.7,1.7,0,0,1-.51-.17,1,1,0,0,0-1-.47c-.2,0-.14-.26-.31-.32s-.56-.25-.84-.25c-.08-.08-.22-.05-.31,0l0,.05a4.08,4.08,0,0,1,.56.22c.17.2.45.23.67.32.2.27.51.25.71.47,0,.31.36.23.5.31.37-.08.56.31.87.25C170.6,32.53,170.4,32.45,170.32,32.28Z"/><path class="cls-1" d="M174,32.59a10.81,10.81,0,0,1,1.35.59c.11.08.28.22.42.19a.22.22,0,0,0-.06-.14c-.39-.14-.61-.47-1-.56a1.8,1.8,0,0,0-.79-.25C173.82,32.51,173.91,32.56,174,32.59Z"/><path class="cls-1" d="M171.41,33a1.27,1.27,0,0,0-.65-.28v.05c.26,0,.4.28.65.31.06,0,.14.11.11.2a1.17,1.17,0,0,0,.62.33s0,0,0,0l0,0c.22,0,.28.33.53.22v-.17a2.06,2.06,0,0,0-.5-.28A1.29,1.29,0,0,0,171.41,33Z"/><path class="cls-1" d="M173.26,34.3c.14.28.54.28.84.31v-.14a.89.89,0,0,0-.42-.17C173.6,34.1,173.37,34.19,173.26,34.3Z"/><path class="cls-1" d="M174.49,34.69c-.11-.14-.22,0-.27.09s0,0,.08,0,.08.09.11.06c.14-.28.23.11.39,0C174.8,34.78,174.58,34.78,174.49,34.69Z"/><path class="cls-1" d="M176.54,35.87h0Z"/><path class="cls-1" d="M176.57,35.88c0,.27.31.24.45.35s.09.09.17.09c.19.22.45.2.7.25,0,0-.06-.08-.06-.11A7.54,7.54,0,0,0,176.57,35.88Z"/><path class="cls-1" d="M182.35,36.71a1.62,1.62,0,0,0-.59-.36c-.11,0-.25-.12-.31,0,.34.08.56.39.9.42Z"/><path class="cls-1" d="M185.18,38.84c.14.2.48.2.51.54.17,0,.25.41.47.25.14,0,.23.16.34.19s.17.09.25.06,0,0,0-.06c-.42,0-.42-.42-.78-.58-.25,0-.36-.23-.59-.29s-.17-.28-.36-.25l0,.09S185.13,38.87,185.18,38.84Z"/><path class="cls-1" d="M202.23,19c-.25-.06-.57-.06-.69-.38-1-.18-2,.38-2.95.44-.82.32-1.7.69-2.57,1a8.42,8.42,0,0,1-1.82.06,2.31,2.31,0,0,0-.95-.25c-.5-.38.13-.75,0-1.13s-.37-1.07,0-1.57a1.65,1.65,0,0,1,.19-1.32c-.19-.37.25-.75-.13-1,.38-.75,0-1.82.57-2.51.25-.51.82-.44,1.2-.88.69,0,.81-.69,1.38-1,.31-.37.25-.75.62-1.12.07-.26.19-.51.07-.76s.12-.56.31-.75.06-.57.13-.88c.37-.37.12-.88,0-1.32-.32-.44-.38.38-.76.5-.69.26-.94,1-1.63,1.26a.49.49,0,0,1-.63-.19A1.27,1.27,0,0,1,194.51,6c-.31-.57.38-1,.12-1.64-.06-.75.38-1.44.19-2.19.13-.44-.37-.82-.5-1.2-.25-1.06-.88.19-1.57-.06a6.12,6.12,0,0,0-.25,1.45c.38-.13.5-.57.94-.63.25.06.38.31.5.5-.06.63.26,1.25-.18,1.82a2.47,2.47,0,0,1,.31,1.76,4.52,4.52,0,0,1,0,2.07c-.38,1-1.44,1-2.32,1.07-.32,0-.5-.25-.69-.5a6.16,6.16,0,0,1-.44-1.64c-.63,1.07-.25,2.64-.07,3.7.07.26.38.39.38.7.56.62,1.38.94,1.95,1.57a9,9,0,0,1,0,2.2c0,.62-.38,1.12-.13,1.75-.44.38-.06.82-.19,1.25s-.12.76.07,1.14a2.61,2.61,0,0,0,.56,2c.06.12.31.25.31.43.95.51,1.89.07,3-.06.81-.31,1.57-1.25,2.57-.81.06.94-1,1.32-1.57,1.94.63-.19,1.44-.31,1.82-1,.5.06.75-.44,1.13-.63a.69.69,0,0,1,.69-.12c.69-.13,1.76-.07,2-1C202.92,19.46,202.55,19.27,202.23,19Z"/><path class="cls-1" d="M182.83,1.82a1.42,1.42,0,0,0-.69,1.26c.38.81-.63.69-.69,1.31-.44.44-.56,1.14-.94,1.64-.63.25-.37.94-.88,1.19-.12.56-.75.75-1.13,1-.06.57-.88.76-.88,1.32s-.56.63-.94.69-.31.5-.69.57c-.44.75-1.38.75-1.82,1.5-.44.13-.94.51-1.44.44a1.61,1.61,0,0,0-.69,1.32c.44.5,1.07.5,1.63.82.44-.07.94.13,1.38-.13,1.44-.31,3-.5,4.2-1.57a4,4,0,0,0,1.2-1.38c.5-.19.69-.82,1.19-1A7.69,7.69,0,0,0,182.71,9,1.88,1.88,0,0,1,183,8c.19-.31-.06-.56-.06-.81.63-.38.13-1,.44-1.57-.06-.25.31-.44.12-.69a1.14,1.14,0,0,0-.12-1c.19-.5-.19-1,.19-1.38a3.21,3.21,0,0,0-.32-1.88A1.66,1.66,0,0,0,182.83,1.82Z"/><path class="cls-1" d="M182,18.14a5.93,5.93,0,0,0-.07-1.5,3.22,3.22,0,0,1,0-.76c-1,.25-.88-.87-1.44-1.25-.31.06-.19.38-.19.62-.38.38,0,.82-.25,1.26-.13.13.06.38-.13.5a4.34,4.34,0,0,1-.25,1.38c-.12.38.07.76-.19,1.07.19.5-.56.88-.19,1.38-.06.63-.18,1.38-.24,2,.31.25,0,.63.31.88-.19.31,0,.69.06.94.57.25.13,1.19.94,1.32a.74.74,0,0,0,.57-.57c-.06-.37.37-.75.31-1.19-.37-.69.38-1.06.31-1.69,0-.95.38-1.63.32-2.58A3,3,0,0,0,182,18.14Z"/><path class="cls-1" d="M210.52,11.82c.52-.13,1.23.2,1.68-.26a2.4,2.4,0,0,1,1.36-.06,2.21,2.21,0,0,1,1.67.32,1.28,1.28,0,0,1,.52,1.1,7,7,0,0,1-.84,1.1,12.61,12.61,0,0,0-1,1.61c-.2.13-.26.45-.46.64.14.26-.38.45-.13.71a4.66,4.66,0,0,0,1.62.52c.45.13,1,.32,1.16.84-.13.45-.32,1-.77,1a9.36,9.36,0,0,0-3.36,1.55c-.71.26-1.36.9-2.19.58a3,3,0,0,1-.45-1.87c.38-.71.38-1.68,1.28-2.07.65-.64.2-1.41.07-2.12,0-.07.06-.13.19-.13a1.31,1.31,0,0,0,.65.77c.39.07.58-.45.78-.77,0-.65,1.22-1.29.38-1.88a4.48,4.48,0,0,1-2.84-1,1.67,1.67,0,0,1,.2-1.22C210.13,11.37,210.2,11.76,210.52,11.82Z"/><path class="cls-1" d="M209.3,14.28c-.13.51-.39,1-.46,1.41-.26.78-.32,1.68-.58,2.46-.06,1-.58,1.74-.64,2.64-.65.84-.52,1.87-1.1,2.77-.19.59-.19,1.43-.77,1.75a25.57,25.57,0,0,1-1.23,2.32.4.4,0,0,0,.13.45c1,.46,1.74-.71,2.64-1s1.43-1.1,2.33-1.23c.13-.45.77-.38,1.09-.71.72-.06,1-.64,1.81-.64a20.47,20.47,0,0,1,3.36-1.22c.51,0,1-.33,1.54-.2.46-.19,1,.06,1.55-.19.33-.07.71.19,1,0,.9.13,2.06.13,3,.25a3.61,3.61,0,0,1,2.32,1c.39.19.52.7.65,1.16h-.07c.26.19-.06.58.13.77-.19.32-.38.77-.77.84-.39.65-.91,1.29-1.29,1.87-.45,1-.78,2-1.3,2.91a4.77,4.77,0,0,0-.38,1.22,6.26,6.26,0,0,0-.71,1.81c-.26.58-.65,1.09-.91,1.61s-.38.64-.44,1c-.39.51-.65,1-1,1.42-.64.58-.9,1.55-1.87,1.61-.39,0-.52.26-.84.32a2.53,2.53,0,0,1-2.19-.77c-.45-.07-.71-.64-1-.84a12.2,12.2,0,0,1-2.38-2.45c-.33-.19-.39-.58-.78-.78-.25-.38-.58-1-1.22-1-.26.06-.39-.2-.58-.33-.19-.45.58-1,0-1.41.13.12.25.06.45.06a2.22,2.22,0,0,0,.71-1.1,4,4,0,0,0,1-2.77c-.51-.39-.84.32-1.29.45-.45.39-1,.71-1.09,1.29-.26.26-.52.52-.52.77l.06.33c-.51,0-.71.58-1.22.64a1.24,1.24,0,0,1-.84-.26c-.07-.45-.84-.38-.65-1a1.25,1.25,0,0,1,.07-1.09.31.31,0,0,1,.45-.07c.19.19.06.65.45.71.9-.26,1.48-1.16,2.39-1.55a4.34,4.34,0,0,1,4-1.22c.32.19.77.45.84.84a.25.25,0,0,0-.26.13.13.13,0,0,0,.13.12l.19-.06c.19.45-.26.77-.52,1a20.93,20.93,0,0,1-1.16,1.93c-.06.13-.06.46.2.46a6.53,6.53,0,0,0,1.87-.33c.51.13,1.29.13,1.55.84.13.52-.45.71-.71.91a10.11,10.11,0,0,1-2.19.51c-.52.33-1.23,0-1.75.26-.19,0-.39-.06-.51.07-.13.51.45,1,.83,1.35.26,0,.26.32.59.26.7.45,1.22,1.22,2.13,1.42.38.51,1.16.26,1.67.51.84.2,1.36-.25,2-.45s1-.58,1.23-1.16.58-.84.9-1.29a41.18,41.18,0,0,0,2.06-5c.39-.71.72-1.61,1.1-2.38.13-1,1-1.75.9-2.91a1,1,0,0,0,.07-.64c-.13-.33-.13-.78-.39-1-.9-.58-2.13-.39-3.09-.39a8.34,8.34,0,0,0-2.13.13c-.71.19-1.23.39-1.94.52-.71.32-1.48.38-2.13.71-1,.32-1.8.9-2.84,1.16a12,12,0,0,1-2.39,1.22,3.59,3.59,0,0,1-1.35.65c-.26.45-.84.26-1.1.58-.7.45-1.54,0-2.25.45a13.31,13.31,0,0,0-1.36,1.94c-.58.45-.64,1.42-1.29,1.67-.19.72-1,.72-1.35,1.23a1.28,1.28,0,0,1-.91.26c-.19-.2-.13-.32-.13-.52a11.81,11.81,0,0,1,.78-1.1A7.21,7.21,0,0,0,201,30.53c.65-.64,1.1-1.54,1.81-2.25a6.75,6.75,0,0,1,1.35-2.2c.26-.45.52-.9.84-1.35-.19-.33.2-.33.26-.58a22.1,22.1,0,0,1,1-2.13c.2-1.17,1-1.94,1.23-3.1a10.56,10.56,0,0,0,.71-2c.13-.2.06-.51.32-.71.13-.39.06-.84.39-1.23-.13-.38.13-.64.32-1C209.36,14,209.3,14.15,209.3,14.28Z"/><path class="cls-1" d="M39.55,17.56c-1.27-3.52-5.14-5-6.69-8-1.21-2.23-5.32-2.69-3.31-1.48-2.87-1.93-4.27-.88-5.91-2.69a2.76,2.76,0,0,1-.54-1.08,11.27,11.27,0,0,0-4.55.18A3.34,3.34,0,0,0,17.12,5a11,11,0,0,1-3.21.89,11.44,11.44,0,0,0-5.26,2A3.61,3.61,0,0,0,7.05,9.1a4.72,4.72,0,0,1-2,1.45,5.86,5.86,0,0,0-2.75,2.51,4.29,4.29,0,0,0,.14,3.32A3.46,3.46,0,0,0,4.84,18.6c.13-.09.26-.19.41-.28a13.43,13.43,0,0,1,1.21-.72,11.81,11.81,0,0,1,1.37-.77,11.14,11.14,0,0,1,2.78-1c.46-.09.84-.15,1.18-.24.11,0,.4-.14.34-.09.23-.11.43-.23.67-.33A4.4,4.4,0,0,1,16.1,15a9.76,9.76,0,0,0,1.28.54,3.26,3.26,0,0,1,1.44,1.08,22.66,22.66,0,0,0,1.53,2.27,2.44,2.44,0,0,0,.81.58c-.08,0,.51-.08.77-.26.89-.28.8-.79,1.95-1.48a20.72,20.72,0,0,1,4.66-1.89,3.36,3.36,0,0,1,1.6.63c.23.13.44.29.66.43l0,.06,0,0L31,17c.05.2.28.3.51.39l.2.1.83.6-.07,0,.14.07.36.26a1.07,1.07,0,0,1,.15.22c.07.09.15.07.24.06a13.14,13.14,0,0,0,2.9,1.28l.24.19a11.51,11.51,0,0,0,1.89.38c.78.13,1.57.27,2.37.44,0-.26-.09-.52-.14-.78C40.28,19.19,39.86,18.38,39.55,17.56ZM38,20.08a1.05,1.05,0,0,1,.43.07A2.41,2.41,0,0,1,38,20.08Zm1.51.31a.9.9,0,0,0-.22-.14l.47.1C39.68,20.39,39.61,20.45,39.52,20.39Z"/><path class="cls-1" d="M40.74,21h0c-.8-.17-1.59-.31-2.37-.44a11.51,11.51,0,0,1-1.89-.38c.15.11.33.26.42.34l-.27,0v0c-.76-.14-1.64-.2-2.37-.39L34,20c-.15-.07-.28-.15-.42-.23l-.61-.46c-.25-.26-.81-.19-1.33-.46-.09,0,.1-.24-.09-.29a5.94,5.94,0,0,1-1-.38c-.19,0-.22-.44-.4-.48-.39-.17-1.32-.19-.86,0,.64.29,1.33.67,1.87.93a17.08,17.08,0,0,1-1.94-.9l-.62-.35a.45.45,0,0,0-.18.07c-.3.19-.67.47-1.09.77-.25.15-.51.31-.79.45.3-.1-.3.24-.45.33-.39.21-.79.41-1.19.6-.07.06-.28.23-.26.27a4.2,4.2,0,0,1-.95.88,7.32,7.32,0,0,1-1.75.85l-.67.11h-.16l-.54-.07h0l-.15-.06-.28-.12a3.74,3.74,0,0,1-1.05-.59,10.27,10.27,0,0,1-2.13-2.53c-.26-.31-.16-.23-.32-.33s-.32-.12-.57-.21c-.84-.31-.4-.19-.66-.3a2.12,2.12,0,0,0-1,.06,2,2,0,0,0-.68.25,7.49,7.49,0,0,1-1.31.51c-.76.2-1.37.35-1.81.52A16.86,16.86,0,0,1,7.63,20a3.06,3.06,0,0,0-.9.38s0,0,0,.06l-.06,0c-1,.58-1.81,1.5-1.37,1.41a21.06,21.06,0,0,1-3.35,1.45,7.29,7.29,0,0,0-.84,3.8A21.92,21.92,0,0,0,2,34.51c.56,1.78,1,2.78,1.47,3A3.46,3.46,0,0,1,5,38.74a6.16,6.16,0,0,0,1.81,1.6,7.75,7.75,0,0,0,3.06,1.07,4.32,4.32,0,0,1,2.61,1.34,3.07,3.07,0,0,0,1.93,1.13,1.31,1.31,0,0,1-.25-.32l-.44-.05c-.14-.16-.05-.29,0-.42a4.9,4.9,0,0,1,1.35.88h0a9,9,0,0,1,2.88.55,19.06,19.06,0,0,0,5.85.36c-.21-.13-.43-.34-.59-.27a13.22,13.22,0,0,0-1.66.21c-.26.08-.16-.4-.29-.36-.79,0-1.53.45-2,.22a9.8,9.8,0,0,1-1-.54,3.76,3.76,0,0,0,.75.29A17,17,0,0,0,22,44.36a19.79,19.79,0,0,0,3.29-.21c.69-.1-.07.42-.71.68a14.23,14.23,0,0,0,7.1-3.28,17.94,17.94,0,0,0,5.87-4.48c.3-.55.61-1.11,1-1.67C41.68,30.9,41.57,25.83,40.74,21Z"/><path class="cls-1" d="M23.83,44.89c.1.06.21.11.29.07a1.84,1.84,0,0,0,.45-.13l-.31,0Z"/><path class="cls-1" d="M18.91,46l.76.19a1.33,1.33,0,0,1-.35-.25C19.17,45.82,19.06,45.91,18.91,46Zm-3.47-1.63a5.37,5.37,0,0,0-1.73-1.25c0,.13-.12.26,0,.42l.44.05a2,2,0,0,0,1.61.9l-.15-.34C15.29,44,15.19,44.11,15.44,44.34Zm6.31,2.06a3.37,3.37,0,0,0-.7-.06A1.7,1.7,0,0,0,21.75,46.4ZM24.12,45c.62-.08,2-.93,1.16-.81a19.79,19.79,0,0,1-3.29.21,17,17,0,0,1-2.95.08,3.76,3.76,0,0,1-.75-.29,9.8,9.8,0,0,0,1,.54c.49.23,1.23-.23,2-.22.13,0,0,.44.29.36a13.22,13.22,0,0,1,1.66-.21C23.49,44.51,23.87,45.07,24.12,45ZM45,18.72c-1.51-6-5.83-10.13-10.93-14-2-1.61-6.72-2.49-9.12-2.4-1.76.45-2,1.3-1.86,2a2.76,2.76,0,0,0,.54,1.08c1.64,1.81,3,.76,5.91,2.69-2-1.21,2.1-.75,3.31,1.48,1.55,2.92,5.42,4.44,6.69,8,.31.82.73,1.63,1.05,2.61,0,.26.1.52.14.78.83,4.88.94,10-2.23,14.45-.81,1.24-1.35,2.52-2.15,3.6a10.13,10.13,0,0,1-2.23,1.57c-1,.68-1,.88,0,.12.7-.47-.13.84-.57,1.28-.14.24-.77-.1-.92.11-.47.23-.79.69-1.29,1-.18.19-.34-.29-.44-.19-.66.4-1.05,1.19-1.59,1.18a10.67,10.67,0,0,1-1.09.06,2.8,2.8,0,0,0-.64.08l-.4.2a12.4,12.4,0,0,1-3.36,1l0,0a6,6,0,0,1,2.07.22c-.32-.09-.28-.23.06-.28l.29.22a2.07,2.07,0,0,1-1.8,0l-.4.17c-.19-.07-.18-.23-.22-.36l-.4,0a5.29,5.29,0,0,0,1.19.58,24.3,24.3,0,0,0,5-.71c.09-.13.15-.26.32-.25a1.29,1.29,0,0,0,.42.06,3.83,3.83,0,0,0,.68-.21l.23-.12h0c.11-.1,0-.16-.06-.2a1.41,1.41,0,0,0,.41,0l.23-.12a1,1,0,0,1,.78-.16c-.42.17-.86.29-1.29.44l-.07,0-.1.08c.52-.19,1-.33,1.55-.55A2.67,2.67,0,0,0,33,44.2c.33-.24.64-.47,1-.36l.27-.13h.05l1.08-.6a19.74,19.74,0,0,0,2.09-1.37A20.76,20.76,0,0,0,45.36,27.9,24.6,24.6,0,0,0,45,18.72ZM20.64,46.35h0a2.84,2.84,0,0,0,.41,0,.89.89,0,0,1-.36-.19C20.76,46.24,20.79,46.33,20.64,46.35Z"/><path class="cls-1" d="M23.4,13.51A3.43,3.43,0,1,1,20,10.06,3.43,3.43,0,0,1,23.4,13.51Z"/><path class="cls-1" d="M25.5,39l-.13,0A.17.17,0,0,0,25.5,39Zm10.27-5.2c-.3,0-.27-.41-.47-.56,0-.23-.19-.38-.24-.62-.18-.08-.13-.42-.37-.4a.71.71,0,0,0-.72-.3c-.15,0-.2-.24-.38-.16-.18.32-.55.19-.81.35s-.41-.23-.62-.24c-.25-.35-.66-.28-.93-.59a.41.41,0,0,1-.38-.16c-.34-.07-.59-.25-.9-.29s-.43-.35-.68-.57H29c-.08.07-.19.18-.31.13a.56.56,0,0,1-.21-.28c-.24-.25-.46,0-.7-.07a2.15,2.15,0,0,1-.92-.42.63.63,0,0,1-.38.07,1.38,1.38,0,0,0-.69-.23c-.2.12-.35-.23-.56-.25a1.1,1.1,0,0,0-.31,0,.93.93,0,0,1,.26-.51,16.78,16.78,0,0,0,.49-2c.68-1.18.18-2.41.5-3.66a7.44,7.44,0,0,0-2.06-2.52,4.81,4.81,0,0,0,.51-.54s.19-.21.26-.27c.4-.19.8-.39,1.19-.6.15-.09.75-.43.45-.33.28-.14.54-.3.79-.45.42-.3.79-.58,1.09-.77a.45.45,0,0,1,.18-.07l.62.35a17.08,17.08,0,0,0,1.94.9c-.54-.26-1.23-.64-1.87-.93-.46-.22.47-.2.86,0,.18,0,.21.44.4.48a5.94,5.94,0,0,0,1,.38c.19.05,0,.27.09.29.52.27,1.08.2,1.33.46l.61.46c.14.08.27.16.42.23l.3.07c.73.19,1.61.25,2.37.39v0a2.87,2.87,0,0,1-1.23-.59c.17.12.12.19-.11.13l-.11-.19a1.61,1.61,0,0,1,1.09.42h.27c.11.08.08.16.09.24l.27,0c-.17-.15-.66-.53-.66-.53a13.14,13.14,0,0,1-2.9-1.28c-.09,0-.17,0-.24-.06a1.07,1.07,0,0,0-.15-.22l-.36-.26-.14-.07h0c-.08,0-.09,0-.07.1l.07.17s0-.11-.07-.17a1,1,0,0,0-.15-.2,2.85,2.85,0,0,1-.37-.23,1,1,0,0,1,.37.23l.23.1.07,0-.83-.6-.2-.1c-.23-.09-.46-.19-.51-.39l-.16-.11,0,0,0-.06c-.22-.14-.43-.3-.66-.43a3.36,3.36,0,0,0-1.6-.63,20.72,20.72,0,0,0-4.66,1.89c-1.15.69-1.06,1.2-1.95,1.48-.26.18-.85.23-.77.26a2.44,2.44,0,0,1-.81-.58,22.66,22.66,0,0,1-1.53-2.27,3.26,3.26,0,0,0-1.44-1.08A9.76,9.76,0,0,1,16.1,15a4.4,4.4,0,0,0-3.3.26c-.24.1-.44.22-.67.33.06,0-.23.06-.34.09-.34.09-.72.15-1.18.24a11.14,11.14,0,0,0-2.78,1,11.81,11.81,0,0,0-1.37.77,13.43,13.43,0,0,0-1.21.72c-.69.45-1.29,1-1.88,1.42A13,13,0,0,0,1,21.46c-1.22,2.28.78,1.82.76,1.88,1.35-.28,1.47-.6,3.57-1.5C4.7,22,6.47,20.25,7.63,20a16.86,16.86,0,0,0,2.9-1.11c.44-.17,1.05-.32,1.81-.52a7.49,7.49,0,0,0,1.31-.51,2,2,0,0,1,.68-.25,2.12,2.12,0,0,1,1-.06c.26.11-.18,0,.66.3.25.09.49.17.57.21s.06,0,.32.33a10.27,10.27,0,0,0,2.13,2.53,3.74,3.74,0,0,0,1.05.59l.28.12.15.06h0l.54.07h.16l.67-.11a7.63,7.63,0,0,0,.74-.29c.12.92-.12,1.88,0,2.82-.7.73-.12,1.8-.65,2.44a6.54,6.54,0,0,1-.65,2.05c-.25,0-1.57.05-1.79,0,.1.13.37.1.42.33s.07.43-.06.58a.25.25,0,0,1-.22,0,1.3,1.3,0,0,0-.69.07,3.74,3.74,0,0,1,.89.08l1.06.22c-.64,1.15-1.81,2.78-2.77,3-.6.95-2,.69-2.69,1.57-.65-.14-1,.5-1.46.35a6.18,6.18,0,0,1-3.56.44c-.37-.07-.72.11-.92-.28a3.12,3.12,0,0,1-2.71-1.46c-.47-.21-.58-.83-.86-1.13.19.3.11.54.21.93.19.14.74.13.66.44-.09.08-.09.16-.18.16a3.57,3.57,0,0,0,.41,1.38,7.59,7.59,0,0,1,1.06,1.2c.82.13,1.21.81,2.13.71,1.31.81,3.22.43,4.86.22.54-.18,1.19,0,1.64-.45.81-.18,1.44-.75,2.35-.93.26-.32.81-.34,1-.81.91-.27,1.15-1.21,2.06-1.39a17.86,17.86,0,0,0,2.15-3.15,1.44,1.44,0,0,1,.43-.06c.2.21.59.21.71.53.33,0,.71-.2,1-.06a12.56,12.56,0,0,0,1.83.59c.15.25.46.09.61.35.21,0,.38.19.59.24a5.09,5.09,0,0,0,.71.44c.14.22.4.13.49.39a2.46,2.46,0,0,1,.5.18c.29.21.46.46.75.63s.26.48.53.56c.21.24.56.38.68.74s-.33.43-.42.64-.56.12-.78.34-.52.29-.82.25c-.09.37-.43.24-.62.49-.35,0-.6.3-.93.36s-.4-.43-.69-.3-.1.45-.37.54a.13.13,0,0,1-.21,0c-.25-.11-.29.17-.46.22a6.59,6.59,0,0,1-1.54.28,1.13,1.13,0,0,1-.86.18c-.13.18-.42,0-.51.25a.3.3,0,0,1-.37,0l-.17.11c-.31.2-.78,0-1,.27l.24,0c.37,0,.7-.3,1-.06.24-.05.49.09.78,0a.19.19,0,0,1,.1.13.36.36,0,0,1-.07.1,1.63,1.63,0,0,1,1.09.07c.06-.28.4-.17.53-.39a1.47,1.47,0,0,1,.75,0c.1-.18.29-.13.44-.21.58-.16,1.15-.28,1.69-.47.5.16.8-.51,1.3-.32.29-.16.61,0,.89-.12a.59.59,0,0,0,.14-.42.27.27,0,0,1,.24-.05c.12,0,.11.19.14.28s.21.22.32.11a1.13,1.13,0,0,1,.56-.42c.17-.08.3-.07.46-.15s.27-.09.39-.1a2.42,2.42,0,0,0,.79-.25c0-.13.19-.22.11-.41a.48.48,0,0,1,.36-.34c.18-.28.56-.45.46-.88A2.59,2.59,0,0,0,35.77,33.79ZM29.16,16.14a3.91,3.91,0,0,0-.88-.2A.6.6,0,0,1,29.16,16.14ZM17.33,29.29H17a.65.65,0,0,0-.48.08c.16.09.36,0,.52.09.23-.09.46.09.66,0a4.43,4.43,0,0,0,.5.12l-.14-.19A2.06,2.06,0,0,1,17.33,29.29Zm-2.65-.65-.18,0v.07C14.56,28.65,14.63,28.71,14.68,28.64ZM6.45,30.36a2.19,2.19,0,0,1,1.2-.31c.31-.27.78-.08,1-.5.12-.08.27,0,.43,0,.07-.17.4.07.37-.23-.11-.13-.24-.32-.42-.23a1.29,1.29,0,0,1-.61.23c-.31.19-.72,0-1.06.17-.18.08-.39,0-.53.15-.39,0-.53.38-.69.63a.09.09,0,0,0,.07.13C6.26,30.28,6.33,30.44,6.45,30.36Zm9.86-1c-.2-.25-.55.15-.65-.27a.36.36,0,0,1,.21-.26c.57,0,1.14,0,1.69,0,.26-.13.49.08.79.05.08-.1.26-.09.41-.1v-.07a.51.51,0,0,0-.27,0c-.43-.09-.93.09-1.36,0-.28.17-.59-.14-.91,0-.12,0-.18,0-.27,0a3.41,3.41,0,0,0-.78.11c.27.24-.19.45-.14.68A4,4,0,0,0,16.31,29.32Zm-2.89,0a.71.71,0,0,0-.62.06c.15,0,.2.15.35.17.28-.16.69,0,1-.17a1,1,0,0,1-.25-.41.4.4,0,0,1,.18-.32v-.06a.52.52,0,0,0-.65.13c.07.09.18,0,.27,0s.11.16.18.22C13.74,29.16,13.64,29.34,13.42,29.36Zm-2,0a2,2,0,0,0,1.2,0,.43.43,0,0,1-.27,0c-.17-.19-.44-.23-.44-.53-.19-.09-.33,0-.46-.09-.09,0-.22-.08-.24,0-.07-.1-.18.05-.21,0s-.15.08-.23.13A.75.75,0,0,1,11,29c.13.12,0,.24,0,.37S11.23,29.4,11.38,29.39Zm28.39-9-.47-.1a.9.9,0,0,1,.22.14C39.61,20.45,39.68,20.39,39.77,20.35ZM38,20.08a2.41,2.41,0,0,0,.43.07A1.05,1.05,0,0,0,38,20.08Zm1.6,1c-.32-.14-.8.16-1.33.13,0,0,0-.26-.18-.23a5.16,5.16,0,0,1-1.18,0c-.19,0-.38-.32-.56-.32-.4-.05-1.56,0-1,.15a10.3,10.3,0,0,0,2.41.43c.63,0,1.29,0,2,0a3,3,0,0,1,.52.13Zm-34.32.73a1.67,1.67,0,0,0,.41-.17Z"/><path class="cls-1" d="M59.6,17.17a1.11,1.11,0,0,1,.58.15.52.52,0,0,1,.24.42,1.09,1.09,0,0,1-.07.32,16.54,16.54,0,0,1-1,2h1.19a.55.55,0,0,1,.62.62c0,.46-.21.69-.62.69H58.1v1.52h2.66a.53.53,0,0,1,.61.6c0,.46-.2.69-.61.69H58.1v.15l2.27,2.71a.87.87,0,0,1,.18.45.67.67,0,0,1-.75.76.59.59,0,0,1-.51-.3L58.1,26.22v3.63a.68.68,0,1,1-1.36,0V26.49c-.22.34-.42.63-.62.9a11.88,11.88,0,0,1-1.58,1.67c-.36.36-.63.53-.8.53-.5,0-.75-.23-.75-.68a.92.92,0,0,1,.41-.76,16.58,16.58,0,0,0,2.43-2.66,10.74,10.74,0,0,0,.81-1.29H53.81c-.41,0-.62-.23-.62-.69a.54.54,0,0,1,.62-.6h2.93V21.39H54.08c-.41,0-.61-.23-.61-.69a.54.54,0,0,1,.61-.62H58a.71.71,0,0,1,.05-.22,17.19,17.19,0,0,0,1.09-2.35A.45.45,0,0,1,59.6,17.17Zm-2.25-2.9q.75,0,.75.69v.71h2.73a.54.54,0,0,1,.61.62c0,.46-.2.69-.61.69h-7c-.41,0-.62-.23-.62-.69a.55.55,0,0,1,.62-.62h2.86V15A.61.61,0,0,1,57.35,14.27ZM55,17.17a.88.88,0,0,1,.48.14,9.73,9.73,0,0,1,.82,1.51,1.27,1.27,0,0,1,.07.36c0,.41-.22.61-.67.61a.61.61,0,0,1-.36-.14c-.28-.49-.57-1-.88-1.45a.92.92,0,0,1-.14-.33A.61.61,0,0,1,55,17.17ZM68.25,15a.62.62,0,0,1,.68.64.51.51,0,0,1-.54.53,14.62,14.62,0,0,1-4.29.42c-.28,0-.41.23-.41.69v2.2h5c.41,0,.61.22.61.64s-.2.69-.61.69H67.44v9.08q0,.69-.75.69a.61.61,0,0,1-.69-.69V20.77H63.69v.88A17.9,17.9,0,0,1,63,26.91a8.62,8.62,0,0,1-1.31,2.74A.92.92,0,0,1,61,30q-.72,0-.75-.69a1.45,1.45,0,0,1,.21-.45,7.71,7.71,0,0,0,1.22-2.65,15.17,15.17,0,0,0,.62-4.55v-5.1a1,1,0,0,1,1.09-1.11A17.77,17.77,0,0,0,68.25,15Z"/><path class="cls-1" d="M76.12,14.41q.75,0,.75.69V29.85q0,.69-.75.69a.61.61,0,0,1-.68-.69V27.8a14,14,0,0,1-1.82.76c-.6.22-1.36.45-2.3.69a1.73,1.73,0,0,1-.31.05.73.73,0,0,1-.82-.83.75.75,0,0,1,.48-.75c1.27-.28,2-.46,2.33-.56a11.77,11.77,0,0,0,2-.75.93.93,0,0,1,.41-.14V19.51H71.15c-.46,0-.69-.25-.69-.76a.61.61,0,0,1,.69-.69h4.29v-3A.61.61,0,0,1,76.12,14.41Zm9.13,2.14a.73.73,0,0,1,.84.82.91.91,0,0,1-.36.69,14.19,14.19,0,0,1-2.39,2,21.42,21.42,0,0,1-2.47,1.37,1.31,1.31,0,0,1-.25.09v6.07a.81.81,0,0,0,.34.76,4.87,4.87,0,0,0,1.77.2,4,4,0,0,0,1.87-.24.85.85,0,0,0,.38-.72V25.94c0-.53.25-.8.68-.83s.73.34.75.95a7.94,7.94,0,0,1-.27,2.86,1.43,1.43,0,0,1-.86.8,7.58,7.58,0,0,1-2.55.27,5.66,5.66,0,0,1-2.91-.48,1.91,1.91,0,0,1-.63-1.66V15.1a.6.6,0,0,1,.68-.69q.75,0,.75.69V20A22.24,22.24,0,0,0,82.7,18.7a11.81,11.81,0,0,0,2.14-2A.86.86,0,0,1,85.25,16.55Z"/><path class="cls-1" d="M95.71,14.15a.67.67,0,0,1,.75.76v1.22h6.67a.61.61,0,0,1,.69.69.61.61,0,0,1-.69.69H88.42a.61.61,0,0,1-.69-.69.61.61,0,0,1,.69-.69H95V14.91A.67.67,0,0,1,95.71,14.15ZM90.12,20H95V18.56a.61.61,0,0,1,.69-.69q.75,0,.75.69V20h5.17q1.44,0,1.44,1.38v6.53c0,1.15-.71,1.73-2.12,1.73a7.37,7.37,0,0,1-2.52-.56.62.62,0,0,1-.48-.62c0-.55.19-.82.55-.82a1.61,1.61,0,0,1,.56.12,5.54,5.54,0,0,0,1.76.43.72.72,0,0,0,.81-.81V22a.6.6,0,0,0-.68-.69H96.46v8.76q0,.69-.75.69a.61.61,0,0,1-.69-.69V21.3H90.66c-.4,0-.61.23-.61.69v7.1q0,.69-.75.69a.61.61,0,0,1-.68-.69v-7.7Q88.62,20,90.12,20Z"/><path class="cls-1" d="M112.09,15.6a.61.61,0,0,1,.68.69.61.61,0,0,1-.68.69h-2.32v3.43h1.71a.54.54,0,0,1,.61.62c0,.46-.2.69-.61.69h-1.71v5.36c.56-.25,1.2-.57,1.91-.95l.27-.07c.46,0,.69.25.69.76,0,.17-.14.36-.41.57a16.91,16.91,0,0,1-2.63,1.36,25.75,25.75,0,0,1-3.81,1.34,1.3,1.3,0,0,1-.51.12c-.46,0-.69-.25-.69-.77a.75.75,0,0,1,.55-.76l.41-.1V20.34a.68.68,0,1,1,1.36,0V28.2c.52-.17,1-.34,1.38-.48a.34.34,0,0,0,.12-.06V17h-2.93a.61.61,0,0,1-.68-.69.61.61,0,0,1,.68-.69Zm2.45-1.33q.75,0,.75.69t-.12,1.59h5.23a.6.6,0,0,1,.68.69.6.6,0,0,1-.68.69h-.68a17.7,17.7,0,0,1-.29,2.84,17.9,17.9,0,0,1-1,3.74,17.11,17.11,0,0,1-.86,1.6,8.66,8.66,0,0,0,.93,1A20.76,20.76,0,0,0,121.22,29a.55.55,0,0,1,.27.5.77.77,0,0,1-.86.87,1.31,1.31,0,0,1-.5-.13,17.71,17.71,0,0,1-2.76-2.17l-.7-.76a6.11,6.11,0,0,1-.56.58,13.82,13.82,0,0,1-3.53,2.42,1.36,1.36,0,0,1-.49.13c-.54,0-.82-.25-.82-.75a.58.58,0,0,1,.34-.56,14,14,0,0,0,3.55-2.48c.21-.22.42-.44.61-.67l-.17-.35a12.76,12.76,0,0,1-1.19-3.48,8.59,8.59,0,0,1-.22-1.08,12.5,12.5,0,0,1-1,2,1,1,0,0,1-.68.34.6.6,0,0,1-.68-.69,1.39,1.39,0,0,1,.08-.34A12.32,12.32,0,0,0,113.35,19a24.54,24.54,0,0,0,.51-4A.61.61,0,0,1,114.54,14.27Zm.51,3.66a19.71,19.71,0,0,0,.48,3.51,13.67,13.67,0,0,0,1.11,3.17.11.11,0,0,1,0,.06q.28-.54.54-1.11a18.41,18.41,0,0,0,1.07-5.63Z"/><path class="cls-1" d="M130.65,14.15a.67.67,0,0,1,.75.76v.62h5.93a.59.59,0,0,1,.68.67.6.6,0,0,1-.68.69H124.86a.48.48,0,0,0-.54.55v5a39.8,39.8,0,0,1-.27,5,19.87,19.87,0,0,1-.55,2.62.72.72,0,0,1-.68.48q-.72,0-.75-.69c.28-1.28.5-2.43.65-3.43a29.66,29.66,0,0,0,.23-3.94V16.82a1.15,1.15,0,0,1,1.3-1.29h5.66v-.62C129.91,14.4,130.15,14.15,130.65,14.15Zm-2.52,3.29c.46,0,.68.19.68.56a1.28,1.28,0,0,1-.06.34,21.7,21.7,0,0,1-.82,2.67v9c0,.41-.23.62-.68.62a.55.55,0,0,1-.62-.62V23.68a14.16,14.16,0,0,1-.81,1.21.88.88,0,0,1-.55.22c-.45,0-.68-.2-.68-.62a1.27,1.27,0,0,1,.14-.43,14.39,14.39,0,0,0,1.58-2.65,18.74,18.74,0,0,0,1.21-3.6C127.58,17.56,127.78,17.44,128.13,17.44Zm9.54,1.88a.69.69,0,0,1,0,1.38h-1.56v8.14c0,1.13-.8,1.7-2.39,1.7a6.85,6.85,0,0,1-2.45-.62.67.67,0,0,1-.55-.69.64.64,0,0,1,.63-.69,2.09,2.09,0,0,1,.38.07,7.63,7.63,0,0,0,2,.55q1,0,1-.69V20.7H129.5a.69.69,0,1,1,0-1.38h5.24v-1a.69.69,0,1,1,1.37,0v1ZM130,21.92a.74.74,0,0,1,.55.3,15.47,15.47,0,0,1,1.84,3.5,3.59,3.59,0,0,1,.06.62c0,.36-.27.55-.81.55-.25,0-.44-.16-.55-.48a15.91,15.91,0,0,0-1.7-3.59,1.51,1.51,0,0,1-.07-.41C129.36,22.09,129.59,21.92,130,21.92Z"/><path class="cls-2" d="M188.91,42.06a2.47,2.47,0,0,0-.46-1c-.3-.2-.33-.59-.61-.84a.36.36,0,0,0-.42-.09c-.06,0-.11,0-.14,0a1.37,1.37,0,0,0,.22.56c.06.14-.11.2-.17.29s-.3-.15-.39-.29c-.11-.5-.76-.33-1.06-.73-.26.06-.31-.22-.45-.33s0-.39-.2-.45-.42-.31-.73-.34c-.22-.28-.53-.33-.73-.62a.75.75,0,0,1-.39-.64c0-.08.11-.06.14-.11,0-.28-.42-.28-.48-.56-.36-.14-.5-.68-.92-.51a2.14,2.14,0,0,0,.5.57v0c.06.14.23.23.26.4a.48.48,0,0,1-.14.33c-.34.06-.54-.28-.82-.36s-.5-.34-.67-.59c-.34-.2-.31.28-.62.25s-.17-.36-.17-.56-.22,0-.3-.14,0-.14,0-.22c-.4-.37-.93-.54-1.29-.93-.14-.34-.34.08-.51-.11-.08-.48-.64-.54-1-.79a.69.69,0,0,1-.34-.31c0-.11.08-.11.14-.14-.08-.36-.5-.45-.79-.5,0,.05,0,.05.06.08s.09.22,0,.28c-.3.14-.56-.11-.81-.28s-.5,0-.56-.36c-.22,0-.2-.34-.42-.26a2.09,2.09,0,0,0-.82-.11c-.11,0-.22-.08-.16-.22s-.09-.06-.14-.06c-.23.06-.17-.25-.4-.22A.17.17,0,0,1,173,32c0-.09-.14-.12-.23-.14-.36-.37-.92-.48-1.28-.82-.28.06-.45-.25-.73-.22s-.48,0-.62-.2c.14-.45-.31-.08-.42-.36-.28,0-.51-.2-.76-.23-.11-.25-.42-.14-.62-.19-.16-.23-.5-.2-.69-.31a3.14,3.14,0,0,1-.93-.68c-.08-.14-.2.09-.31,0s-.39-.11-.42-.33.36-.45.28-.79a2.82,2.82,0,0,0,.56-.76c.06-.14.25-.16.28-.3a9.19,9.19,0,0,0,.64-.76c.23,0,.31-.28.48-.45,0-.14.23-.17.2-.34a2,2,0,0,0,.56-.95c-.06-.25.25-.31.17-.59.22-.17.11-.48.36-.64,0-.2,0-.45.23-.59a1.65,1.65,0,0,0,.06-1A.66.66,0,0,0,170,21a.63.63,0,0,0,0-.5c-.08-.17.09-.34.06-.54s-.19,0-.28-.08-.17-.09-.14-.2,0-.19.11-.22a.17.17,0,0,1,.2.05c.05,0,.08.06.11,0a1.92,1.92,0,0,0-.36-.39.49.49,0,0,1-.14-.47c-.26-.2-.12-.56-.26-.85a1.52,1.52,0,0,0-.08-.86c-.09-.15.14-.4-.11-.46A4.08,4.08,0,0,0,168,15.33a1.59,1.59,0,0,1-.59-.56c-.25-.14-.64-.06-.81-.42-.14,0-.28-.19-.42-.14l0-.11a1.25,1.25,0,0,0-.7-.23c-.28-.19-.62.09-.87-.14s-.7-.14-1-.44c-.29-.12-.23-.48-.23-.79a2.59,2.59,0,0,0,.17-.81,6.53,6.53,0,0,1,.31-1.27c.11-.42.22-.89.31-1.34l-.06-.39-.2-.31c0-.37-.36-.56-.53-.85l-.06-.28c-.25,0-.33-.33-.53-.45,0,0,0,0-.08-.08-.26-.08-.14-.42-.37-.5-.42-.37-.53-1-.81-1.41a1,1,0,0,0-.76-.13c-.25,0-.33.33-.59.25-.14.28-.05.59-.11.84.23.17.39.56.7.56s.39-.09.54-.2c.44,0,.19.56.3.87a6.29,6.29,0,0,1-.28.9,3.14,3.14,0,0,1-.08.9c0,.14-.09.22-.11.33.08.31-.23.57-.2.87-.28.28-.14.7-.25,1s0,.48-.14.65a2.77,2.77,0,0,1-.28.87s0,.11-.06.14c.09.25-.22.31-.25.53.06.39-.39.59-.34.95-.28.14-.25.45-.36.67a.52.52,0,0,0,0,.37c-.14.22,0,.5-.09.7a.64.64,0,0,0,.2.51c.09.25.34.16.45.36s.33.17.53.2a1.36,1.36,0,0,0,.76.11c.17-.19.34.06.56-.06s.06-.42.33-.47.37-.31.57-.42c.28.08.45-.12.62-.31.44-.14.78.08,1.23.14.17,0,.28.19.45.14.08.11.25,0,.31.14.25,0,.36.31.61.28.17.28.54.22.76.39.39,0,.53.45.95.42.34.14.2.59.54.73a.92.92,0,0,1,.3,1l-.05.11a.66.66,0,0,1-.09.64c.09.23-.08.45,0,.71-.11.1-.08.22-.08.36s0,.33-.11.5-.2.31-.2.48a.68.68,0,0,1-.39.56l-.09.36c0,.2-.3.2-.27.4s-.17.48-.31.73-.4.62-.48.95-.42.31-.48.59c-.2.5-.64.7-1,1.06-.22.12-.22.51-.53.37s-.08.17-.14.25a.19.19,0,0,1-.22,0l-.6-.31c-.5,0-.89-.48-1.4-.56a6.28,6.28,0,0,0-1.54-.59c-.36-.25-.87-.22-1.23-.45-.39.12-.65-.22-1-.28s-.42-.25-.68-.14c0,.39.48.37.71.51a.92.92,0,0,1,.5.14c.31,0,.48.25.79.22s.53.31.87.28c.3.2.7.26,1,.45a6.47,6.47,0,0,1,1,.28c.05,0,.11.14.22.11.2.2.57.28.73.51a.44.44,0,0,1,0,.28c-.31.39-.59-.2-.87-.28-.11-.25-.36,0-.53-.2-.17.09-.36,0-.45-.05s0,0,0,0-.06.06-.08.06v-.08c-.71-.14-1.38-.42-2.08-.51l-.31-.22a3.5,3.5,0,0,1-1.32-.79c-.19-.11-.47-.06-.64-.19a2.54,2.54,0,0,1-1-.51c0-.05,0-.08,0-.14a.46.46,0,0,1,.47,0,1.58,1.58,0,0,0,.48.06.47.47,0,0,0-.11-.26,1.83,1.83,0,0,1-.87-.36,11.55,11.55,0,0,0-1.82-.51c-.17-.17-.45-.05-.59-.28-.39.11-.62-.28-1-.22-.17,0-.31-.14-.48-.06-.17-.25-.48-.17-.76-.19-.11,0-.22-.2-.39-.12a1.85,1.85,0,0,1-.64-.36c0-.25-.43-.22-.34-.54a.8.8,0,0,0-.54-.3c-.28-.14-.53.05-.84-.09-.11-.14-.3,0-.42-.14-.53,0-1-.25-1.51-.22a1.31,1.31,0,0,0-.67-.37c-.15-.08-.28,0-.43-.08-.19-.22-.53-.14-.78-.11-.06,0-.14-.06-.11-.14s-.09-.14-.14-.17c-.34.05-.56-.17-.9-.14a3.14,3.14,0,0,0-1.35-.34,1.74,1.74,0,0,0-.59.81c-.19.14-.13.34-.19.54.22.25.17.67.22.95s.26.56.11.87a3,3,0,0,1,.29,1c.05.17,0,.45.11.64s.08.74.28,1a3,3,0,0,1,.14.93.57.57,0,0,1,.14.56.84.84,0,0,1,0,.56,4.16,4.16,0,0,1,.22,1,2,2,0,0,1,.17.67c-.09.09-.06.2,0,.31.23.12,0,.45.2.59,0,.37.08.7.14,1a3.61,3.61,0,0,1,.25,1.18c.2.45.31.92.51,1.34,0,.06.11.11.05.17s0,.22.17.25l-.06,0c0,.06.06.11.09.14,0,.23.25.37.36.56s.37.51.34.87c.08.11.25.26.28.39.28.14.42.45.64.65s.51.22.65.48c.31.16.64.36,1,.53a.63.63,0,0,0,.53.25c.06,0,.06-.14.14-.19.26,0,.56,0,.82,0a1,1,0,0,1,.53-.06c.22-.14.51.06.76,0,.08,0,.16.14.25.14v-.12c.34-.42,1-.22,1.43-.42A5.48,5.48,0,0,1,153.4,37a2.11,2.11,0,0,0,1.06-.48c-.14-.31.23-.34.37-.48s.28.09.42.12l.36-.29c.09,0,.17,0,.23-.14.36-.16.61-.59,1.12-.56.2-.08.28-.33.53-.36.09,0,.17,0,.23.08s0,.17-.09.23c-.39.33-.95.56-1.23,1,.48,0,.81-.48,1.18-.73a5.65,5.65,0,0,0,1.62-1.13c.23,0,.34-.33.56-.36a3,3,0,0,1,.87-.76c.12.06.23,0,.31-.13s.14.05.25,0a.76.76,0,0,0,.37-.4c.17-.28.53-.31.7-.59s.34-.39.51-.64.5-.26.61-.56c.31.05.23-.4.54-.4s.45-.64.89-.64c.06-.06.17-.14.17-.25s.23-.34.45-.31.22,0,.34,0c.28.14.59.25.87.39a.34.34,0,0,0,.33.14c.45.42,1.07.42,1.46.93.37,0,.37.47.73.39.2.08.25.36.51.31a8.52,8.52,0,0,0,1.14.64l.51.06c.14.17.17.39.42.39.31.25.7.34,1,.57s.84.36,1.23.61c.14.09.17.23.31.25a11.61,11.61,0,0,1,1,.65c.17.34-.34.11-.45.25a3.12,3.12,0,0,0,.45.34c.08,0,.2.14.28,0L175.5,35a.35.35,0,0,1,.11-.39c.14,0,.22.11.31.23.36,0,.56.41.89.47l.57.42c.08.11.22.17.25.31-.22.06.09.25-.17.28l.26.14v-.06c0-.08.14,0,.19,0s.23-.06.34-.06a9.71,9.71,0,0,1,1.09.76c0,.08,0,.14-.11.14-.28-.06-.5-.34-.79-.45,0,.06-.05.08-.05.11.19.28.56.37.73.65l.16-.17a.18.18,0,0,1,.26,0c.06.08,0,.16-.09.22.12.06.28.06.31.23s0,0,0,0,.25.11.37,0c.11.11.36.17.3.34.17.11.31.25.51.17s.28.25.5.25a1.34,1.34,0,0,1,.54.22c.17.17.25.42.53.42,0,0,.05.09.11,0-.11-.14-.28-.11-.39-.25s-.17-.25-.31-.34c-.17-.33-.59-.25-.84-.5,0-.06,0-.14.06-.2s.22.17.36.22a.59.59,0,0,1,.56.31c.25,0,.34.26.5.4s.34.36.62.36a4.45,4.45,0,0,1,.79.45c.11.06,0,.2,0,.25a.25.25,0,0,1-.25,0s0,.06,0,.12-.2,0-.28,0,.14.14.22.23.28.08.42.22c.17-.05.31.08.45.14.23.37.67.39.87.73a7.86,7.86,0,0,1,1,.67.63.63,0,0,1,.41.23c.2.05.34.34.62.28.08.06.2.14.2.28s.17.53.45.62.31-.2.47,0,.12.05.17,0c.34-.08,0-.37.25-.48.06-.14-.05-.28,0-.42S188.91,42.26,188.91,42.06ZM162.65,28.52a4.22,4.22,0,0,0-.53.67c0,.2,0,.39-.06.53.09.25-.14.42-.08.62.11.39-.39.25-.48.5-.25.23-.42.62-.78.65-.17.11-.34.19-.31.42-.14.14-.34,0-.39.25-.26,0-.48.4-.76.2-.17.08-.31-.12-.39-.2s.08-.28,0-.39a6.94,6.94,0,0,0-1.46,1.09c-.78.65-1.62,1.12-2.41,1.69a.41.41,0,0,1-.25.28c-.56-.12-.9.47-1.35.64-.08.09-.16.2-.27.14s-.06,0-.09,0c-.06.28-.39.2-.51.42s-.58.09-.72.39c-.45.15-.82.51-1.27.62-.2.11-.33-.11-.47.08a.35.35,0,0,0-.45.18c-.17,0-.31-.12-.42.05-.39,0-.73.17-1.13.14-.08-.05-.19-.17-.27-.19a.23.23,0,0,1-.31.08,16,16,0,0,1-1.41-.9.78.78,0,0,1-.25-.56c-.31-.22-.28-.62-.42-.93-.14-.61-.48-1.12-.64-1.76-.17-.45-.26-1-.42-1.43a11.5,11.5,0,0,1-.54-2c-.2-.45,0-1-.33-1.46A7.8,7.8,0,0,0,143.3,27a4.76,4.76,0,0,1-.06-.65c-.11-.33-.19-.73-.3-1.06a4.83,4.83,0,0,0-.29-1.68c0-.29,0-.59,0-.88l.06-.64a.44.44,0,0,1,.42-.14c.06.11.2.08.31.14.17-.09.31.14.48,0s.16.17.31.22.25,0,.3-.11a.13.13,0,0,1,0,.17c.17.2.45,0,.62.2l.36,0c.2.28.53.26.79.45.17-.05.39,0,.48-.14a.6.6,0,0,1,.58.2c.14,0,.26-.11.37,0a4,4,0,0,0,1.37.5,4.6,4.6,0,0,0,.84.28,3.53,3.53,0,0,0,.7.26.15.15,0,0,0,.15,0c.16,0,.33.14.47.11.09.14.31,0,.42.2.09,0,.14-.09.23-.09.16.2.39.2.59.31s.56.09.78.28c.34-.05.48.31.82.25.05.06.08,0,.13,0a.42.42,0,0,0,.31.17c.12,0,.25-.23.4-.08s.25.22.36.3c.11-.08.23,0,.34,0,.14.14.25.39.47.31-.08-.14-.39-.11-.3-.34a.58.58,0,0,1,.67-.06c.11.06.25-.13.36,0,.17.34.62.14.85.4.16.05.25.22.33.33s.45,0,.65.14c0,.11.19.2.08.31-.39.2-.62-.34-1-.28a1.19,1.19,0,0,0-.45-.08,6.09,6.09,0,0,0-.78-.28c.14.17.33.48.64.42a2.74,2.74,0,0,1,1.32.59c.25.08.59,0,.76.25.39.14.73.37,1.12.48,0,0,.08,0,.11-.09-.25-.28-.64-.31-.89-.56a.29.29,0,0,1-.06-.17c.28-.17.5.11.78.2a4.5,4.5,0,0,1,1.38.53c.3.11.56.42.9.53A.28.28,0,0,1,162.65,28.52Zm18.26,9.42a4.5,4.5,0,0,0-.81-.11c-.08,0-.06-.14,0-.2a.52.52,0,0,1,.5,0c.09.14.28.08.37.23S180.94,37.94,180.91,37.94Zm4.1,2.94c-.31-.08-.53-.33-.82-.44,0-.06-.05-.15,0-.2a.14.14,0,0,1,.11-.08.77.77,0,0,1,.34.28c.16.08.39.14.47.3A.16.16,0,0,1,185,40.88ZM188,42c-.06,0-.11.05-.14,0-.28-.28-.67-.28-1-.44-.09-.14-.26-.23-.2-.43s.2,0,.28,0c.25.2.62.23.76.54.08,0,.14.08.22.11A.18.18,0,0,1,188,42Z"/><path class="cls-2" d="M166.08,30c-.26-.19-.62-.11-.87-.31,0,.12.16.09.11.2s.22.14.33.22a1.83,1.83,0,0,0,.76.09C166.36,30.12,166.19,30.08,166.08,30Z"/><path class="cls-2" d="M169.75,31.71a1.7,1.7,0,0,1-.51-.17,1,1,0,0,0-1-.47c-.19,0-.14-.25-.3-.31a5.55,5.55,0,0,0-.84-.25.29.29,0,0,0-.31,0l0,.05a4,4,0,0,1,.55.23c.17.2.45.22.68.31.19.28.5.25.7.47,0,.31.36.23.5.31.37-.08.57.31.87.26C170,32,169.84,31.88,169.75,31.71Z"/><path class="cls-2" d="M173.4,32a13.29,13.29,0,0,1,1.34.59c.12.08.28.22.42.2a.18.18,0,0,0,0-.14c-.39-.14-.62-.48-1-.56a1.65,1.65,0,0,0-.79-.26C173.26,31.94,173.34,32,173.4,32Z"/><path class="cls-2" d="M170.84,32.47a1.24,1.24,0,0,0-.64-.28v.05c.25,0,.39.29.64.32.06,0,.14.11.11.19a1.31,1.31,0,0,0,.62.34s0-.06,0-.06l0,0c.22,0,.28.34.53.22v-.16a2.1,2.1,0,0,0-.5-.29A1.35,1.35,0,0,0,170.84,32.47Z"/><path class="cls-2" d="M172.69,33.73c.14.28.54.28.85.31V33.9a1.11,1.11,0,0,0-.43-.17C173,33.53,172.8,33.62,172.69,33.73Z"/><path class="cls-2" d="M173.93,34.12c-.11-.14-.23,0-.28.09s0,0,.08,0,.09.09.11.06c.14-.28.23.11.4.06C174.24,34.21,174,34.21,173.93,34.12Z"/><path class="cls-2" d="M176,35.3h0Z"/><path class="cls-2" d="M176,35.31c0,.27.3.25.44.36a.23.23,0,0,0,.17.08c.19.22.45.2.7.25,0,0-.06-.08-.06-.11A7.83,7.83,0,0,0,176,35.31Z"/><path class="cls-2" d="M181.78,36.15c-.14-.2-.39-.26-.59-.37s-.25-.11-.31,0c.34.09.57.4.9.42Z"/><path class="cls-2" d="M184.62,38.27c.14.2.47.2.5.54.17,0,.25.42.48.25.14,0,.22.17.33.2s.17.08.25.05,0,0,0-.05c-.42,0-.42-.42-.79-.59-.25,0-.36-.22-.59-.28s-.16-.28-.36-.25l.06.08A.12.12,0,0,0,184.62,38.27Z"/><path class="cls-2" d="M201.67,18.46c-.26-.07-.57-.07-.7-.38-1-.19-2,.38-2.95.44-.81.31-1.69.69-2.57,1a8.4,8.4,0,0,1-1.82.06,2.61,2.61,0,0,0-.94-.25c-.5-.37.12-.75,0-1.13s-.38-1.06,0-1.57a1.61,1.61,0,0,1,.18-1.32c-.18-.37.26-.75-.12-1,.38-.75,0-1.82.56-2.51.26-.5.82-.44,1.2-.88.69,0,.81-.69,1.38-.94.31-.38.25-.76.63-1.13.06-.25.19-.5.06-.75s.13-.57.32-.76.06-.56.12-.88c.38-.37.12-.87,0-1.31-.31-.44-.38.37-.76.5-.68.25-.94,1-1.63,1.25a.48.48,0,0,1-.62-.18,1.29,1.29,0,0,1-.07-1.26c-.31-.56.38-1,.13-1.63-.06-.76.38-1.45.19-2.2.12-.44-.38-.81-.5-1.19-.26-1.07-.89.19-1.57-.07a5.75,5.75,0,0,0-.26,1.45c.38-.13.51-.57.94-.63.26.06.38.31.51.5-.07.63.25,1.26-.19,1.82a2.38,2.38,0,0,1,.31,1.76,4.52,4.52,0,0,1,0,2.07c-.37,1-1.44,1-2.32,1.07-.31,0-.5-.25-.69-.5a6.16,6.16,0,0,1-.44-1.64c-.63,1.07-.25,2.64-.06,3.71.06.25.37.38.37.69.57.63,1.38.94,1.95,1.57a8.53,8.53,0,0,1,0,2.2c0,.62-.38,1.13-.12,1.75-.45.38-.07.82-.19,1.26s-.13.75.06,1.13a2.65,2.65,0,0,0,.56,2c.07.12.32.25.32.44.94.5,1.88.06,2.95-.06.82-.32,1.57-1.26,2.57-.82.07.94-1,1.32-1.56,2,.62-.19,1.44-.32,1.81-1,.51.06.76-.44,1.14-.63a.66.66,0,0,1,.68-.12c.69-.13,1.76-.06,1.95-1C202.35,18.89,202,18.7,201.67,18.46Z"/><path class="cls-2" d="M182.27,1.25a1.42,1.42,0,0,0-.7,1.26c.38.81-.62.69-.68,1.32-.45.44-.57,1.13-.95,1.63-.62.25-.37.94-.87,1.19-.13.57-.76.75-1.13,1-.07.56-.88.75-.88,1.32s-.57.62-.94.69-.32.5-.69.56C175,11,174,11,173.6,11.74c-.43.12-.94.5-1.44.44a1.63,1.63,0,0,0-.69,1.31c.44.51,1.07.51,1.63.82.44-.06.94.13,1.38-.13,1.45-.31,3-.5,4.21-1.56a4.22,4.22,0,0,0,1.19-1.39c.51-.18.69-.81,1.19-1a7.69,7.69,0,0,0,1.07-1.82,2,2,0,0,1,.32-1c.18-.31-.07-.56-.07-.81.63-.38.13-1,.44-1.57-.06-.25.32-.44.13-.69a1.18,1.18,0,0,0-.13-1c.19-.5-.19-1,.19-1.37a3.33,3.33,0,0,0-.31-1.89A1.68,1.68,0,0,0,182.27,1.25Z"/><path class="cls-2" d="M181.39,17.58a6.49,6.49,0,0,0-.06-1.51,2.76,2.76,0,0,1,0-.76c-1,.26-.89-.87-1.45-1.25-.31.06-.19.38-.19.63-.37.37,0,.81-.25,1.25-.12.13.07.38-.12.51a5.11,5.11,0,0,1-.25,1.38c-.13.37.06.75-.19,1.06.19.51-.57.88-.19,1.39-.07.62-.19,1.37-.25,2,.31.25,0,.63.31.88-.19.32,0,.69.06.94.57.26.13,1.2.95,1.32a.73.73,0,0,0,.56-.56c-.06-.38.38-.76.31-1.2-.37-.69.38-1.06.32-1.69,0-.94.38-1.63.31-2.57A3,3,0,0,0,181.39,17.58Z"/><path class="cls-2" d="M210,11.26c.52-.13,1.23.19,1.68-.26a2.4,2.4,0,0,1,1.36-.07,2.2,2.2,0,0,1,1.68.33,1.28,1.28,0,0,1,.51,1.09,6.53,6.53,0,0,1-.84,1.1,14.71,14.71,0,0,0-1,1.61c-.19.13-.26.46-.45.65.13.26-.39.45-.13.71a4.74,4.74,0,0,0,1.61.51c.45.13,1,.33,1.16.84-.13.45-.32,1-.77,1a9.13,9.13,0,0,0-3.35,1.54c-.72.26-1.36.91-2.2.58a3,3,0,0,1-.45-1.87c.39-.71.39-1.67,1.29-2.06.64-.65.19-1.42.07-2.13,0-.07.06-.13.19-.13.06.39.38.58.64.78s.58-.46.78-.78c0-.65,1.22-1.29.38-1.87a4.53,4.53,0,0,1-2.83-1,1.64,1.64,0,0,1,.19-1.23C209.57,10.8,209.63,11.19,210,11.26Z"/><path class="cls-2" d="M208.73,13.71a14.32,14.32,0,0,0-.45,1.42c-.26.77-.33,1.67-.58,2.45-.07,1-.58,1.74-.65,2.64-.65.84-.51,1.88-1.09,2.78-.2.58-.2,1.42-.78,1.74-.32.84-.84,1.55-1.22,2.32a.41.41,0,0,0,.12.46c1,.45,1.74-.72,2.65-1s1.42-1.09,2.32-1.22c.13-.45.78-.39,1.1-.71.71-.07,1-.65,1.8-.65a21.43,21.43,0,0,1,3.36-1.22c.52,0,1-.32,1.55-.2.45-.19,1,.07,1.55-.19.32-.07.71.19,1,0,.9.13,2.06.13,3,.26a3.63,3.63,0,0,1,2.32,1c.39.19.52.71.65,1.16h-.07c.26.19-.06.58.14.77-.2.33-.39.78-.78.84-.39.65-.91,1.3-1.29,1.87-.45,1-.77,2-1.29,2.91a4.44,4.44,0,0,0-.39,1.22,6.49,6.49,0,0,0-.71,1.81c-.26.58-.64,1.1-.9,1.61s-.39.65-.45,1c-.39.52-.65,1-1,1.42-.65.58-.91,1.55-1.88,1.61-.38,0-.51.26-.84.32a2.53,2.53,0,0,1-2.19-.77c-.45-.06-.71-.64-1-.84A12.26,12.26,0,0,1,210.34,36c-.32-.19-.39-.58-.77-.77-.26-.39-.58-1-1.23-1-.25.06-.39-.19-.58-.32-.19-.45.58-1,0-1.42.13.13.26.06.45.06a2.13,2.13,0,0,0,.71-1.09,4,4,0,0,0,1-2.78c-.51-.39-.83.32-1.29.45-.45.39-1,.71-1.09,1.29-.26.26-.52.52-.52.77l.07.33c-.52,0-.72.58-1.23.64a1.27,1.27,0,0,1-.84-.25c-.06-.45-.84-.39-.64-1a1.29,1.29,0,0,1,.06-1.09.31.31,0,0,1,.45-.07c.19.19.07.65.45.71.91-.25,1.49-1.16,2.39-1.54a4.34,4.34,0,0,1,4-1.23c.32.19.78.45.84.84a.27.27,0,0,0-.26.13.15.15,0,0,0,.13.13l.2-.07c.19.45-.26.77-.52,1-.39.71-.77,1.36-1.16,1.94-.07.13-.07.45.19.45a6.8,6.8,0,0,0,1.87-.32c.52.13,1.29.13,1.55.84.13.52-.45.71-.71.9a9.9,9.9,0,0,1-2.19.52c-.52.32-1.23,0-1.75.25-.19,0-.38-.06-.51.07-.13.51.45,1,.84,1.35.25,0,.25.33.58.26.71.46,1.22,1.23,2.13,1.42.38.52,1.16.26,1.68.52.83.19,1.35-.26,2-.45s1-.59,1.22-1.17.58-.83.9-1.29a41.08,41.08,0,0,0,2.07-5c.39-.71.71-1.62,1.1-2.39.12-1,1-1.74.9-2.9a1.12,1.12,0,0,0,.06-.65c-.13-.32-.13-.77-.38-1-.91-.58-2.13-.38-3.1-.38a7.91,7.91,0,0,0-2.13.13c-.71.19-1.22.38-1.94.51-.7.32-1.48.39-2.13.71-1,.32-1.8.9-2.83,1.16A12.3,12.3,0,0,1,208,26.55a3.77,3.77,0,0,1-1.36.64c-.26.46-.84.26-1.09.58-.71.45-1.55,0-2.26.45A13.31,13.31,0,0,0,202,30.16c-.58.45-.64,1.42-1.28,1.68-.2.71-1,.71-1.36,1.22a1.18,1.18,0,0,1-.9.26c-.2-.19-.14-.32-.14-.51a13,13,0,0,1,.78-1.1A7.3,7.3,0,0,0,200.41,30c.64-.64,1.09-1.54,1.8-2.25a6.71,6.71,0,0,1,1.36-2.2,14.19,14.19,0,0,1,.84-1.35c-.2-.32.19-.32.25-.58a23.35,23.35,0,0,1,1-2.13c.19-1.16,1-1.94,1.22-3.1a10.32,10.32,0,0,0,.71-2c.13-.19.07-.51.32-.71.14-.38.07-.84.39-1.22-.13-.39.13-.65.32-1C208.79,13.45,208.73,13.58,208.73,13.71Z"/><path class="cls-3" d="M39,17c-1.27-3.52-5.15-5-6.7-8C31.08,6.8,27,6.35,29,7.55c-2.87-1.92-4.27-.87-5.91-2.69a3,3,0,0,1-.53-1.08A11.27,11.27,0,0,0,18,4a3.25,3.25,0,0,0-1.43.44,11.17,11.17,0,0,1-3.22.89,11.52,11.52,0,0,0-5.26,2,3.73,3.73,0,0,0-1.6,1.23,4.65,4.65,0,0,1-2,1.45A5.88,5.88,0,0,0,1.7,12.49a4.29,4.29,0,0,0,.13,3.32A3.49,3.49,0,0,0,4.27,18l.41-.29c.32-.21,1-.64,1.21-.71a10.07,10.07,0,0,1,1.38-.78,11.34,11.34,0,0,1,2.77-1c.46-.08.84-.15,1.19-.24.1,0,.39-.13.34-.09a6.72,6.72,0,0,1,.66-.32,4.42,4.42,0,0,1,3.31-.27,11.47,11.47,0,0,0,1.28.55A3.21,3.21,0,0,1,18.25,16a24.22,24.22,0,0,0,1.53,2.26,2.47,2.47,0,0,0,.82.58c-.09,0,.5-.08.77-.26.88-.27.79-.79,1.94-1.47A20.35,20.35,0,0,1,28,15.23a3.22,3.22,0,0,1,1.59.62c.23.13.45.29.66.43l.05.07,0,0,.15.1c.06.2.29.3.51.4l.2.09.84.6-.08,0,.14.07.37.27a.93.93,0,0,1,.14.22c.07.08.15.06.25.06a13.54,13.54,0,0,0,2.89,1.28l.24.18a11.51,11.51,0,0,0,1.89.38c.78.14,1.57.27,2.37.44,0-.26-.09-.52-.13-.78C39.71,18.62,39.29,17.81,39,17Zm-1.55,2.52a1.21,1.21,0,0,1,.43.07A1.93,1.93,0,0,1,37.44,19.51Zm1.51.32a1,1,0,0,0-.22-.15l.47.1C39.11,19.82,39.05,19.88,39,19.83Z"/><path class="cls-2" d="M40.17,20.38h0c-.8-.17-1.59-.3-2.37-.44a11.51,11.51,0,0,1-1.89-.38l.42.34-.27,0v0c-.75-.14-1.63-.2-2.37-.39l-.3-.07a2.67,2.67,0,0,1-.41-.22c-.19-.15-.4-.29-.61-.46s-.81-.19-1.33-.46c-.09,0,.09-.25-.09-.29a6.09,6.09,0,0,1-1-.39c-.18,0-.22-.44-.4-.47-.39-.17-1.31-.19-.86,0,.64.29,1.34.67,1.88.94a16.57,16.57,0,0,1-1.95-.91L28,16.85a.45.45,0,0,0-.18.07c-.29.19-.66.47-1.09.77a8.55,8.55,0,0,1-.79.45c.3-.09-.29.24-.44.33-.39.21-.8.41-1.2.6-.07.07-.28.23-.26.28a4.2,4.2,0,0,1-.95.88,7.34,7.34,0,0,1-1.75.84l-.67.12h-.15c-1.09-.13-.3,0-.55-.06h0l-.14-.06L19.53,21a4,4,0,0,1-1.05-.59,10.46,10.46,0,0,1-2.13-2.54c-.25-.3-.16-.23-.31-.32s-.33-.13-.57-.22c-.85-.31-.41-.19-.67-.3a2.12,2.12,0,0,0-1,.06,2.57,2.57,0,0,0-.68.25,7,7,0,0,1-1.3.51c-.76.2-1.37.35-1.82.52a15.26,15.26,0,0,1-2.89,1.11,3.11,3.11,0,0,0-.9.38s0,0,0,.06l-.05,0c-.95.58-1.82,1.5-1.38,1.42-2,.84-2.19,1.18-3.34,1.44a7.32,7.32,0,0,0-.85,3.8,22.17,22.17,0,0,0,.9,7.42c.56,1.78,1.05,2.78,1.47,3a3.47,3.47,0,0,1,1.54,1.25,6.29,6.29,0,0,0,1.81,1.61,7.91,7.91,0,0,0,3.06,1.07,4.28,4.28,0,0,1,2.61,1.33,3.07,3.07,0,0,0,1.93,1.13A1.37,1.37,0,0,1,13.6,43l-.43-.05c-.15-.16-.06-.29,0-.42a4.82,4.82,0,0,1,1.34.89h0a9.63,9.63,0,0,1,2.87.55,19.09,19.09,0,0,0,5.85.36c-.2-.12-.42-.34-.59-.27a13.18,13.18,0,0,0-1.65.22c-.27.08-.17-.41-.3-.37-.79,0-1.53.45-2,.22a11.06,11.06,0,0,1-1-.54,3.63,3.63,0,0,0,.76.29,15.94,15.94,0,0,0,2.94-.08,18,18,0,0,0,3.3-.21c.68-.1-.07.43-.72.68A14.36,14.36,0,0,0,31.11,41,18,18,0,0,0,37,36.5c.3-.55.61-1.11,1-1.66C41.11,30.33,41,25.27,40.17,20.38Z"/><path class="cls-4" d="M23.26,44.32a.32.32,0,0,0,.3.07,1.51,1.51,0,0,0,.44-.13l-.31,0Z"/><path class="cls-5" d="M18.34,45.41l.76.18a1.29,1.29,0,0,1-.34-.25C18.6,45.25,18.49,45.34,18.34,45.41Zm-3.47-1.64a5.6,5.6,0,0,0-1.72-1.25c0,.13-.13.26,0,.42l.43.05a2,2,0,0,0,1.62.9l-.16-.34C14.73,43.44,14.63,43.54,14.87,43.77Zm6.31,2.07a2.31,2.31,0,0,0-.69-.06A1.85,1.85,0,0,0,21.18,45.84Zm2.38-1.45c.61-.08,2-.93,1.16-.81a18,18,0,0,1-3.3.21,15.94,15.94,0,0,1-2.94.08,3.63,3.63,0,0,1-.76-.29,11.06,11.06,0,0,0,1,.54c.49.23,1.23-.23,2-.22.13,0,0,.45.3.37a13.18,13.18,0,0,1,1.65-.22C22.92,44,23.3,44.5,23.56,44.39ZM44.45,18.15c-1.52-6-5.84-10.13-10.94-14-2-1.61-6.72-2.49-9.12-2.39-1.75.45-2,1.29-1.85,2a3,3,0,0,0,.53,1.08c1.64,1.82,3,.77,5.91,2.69-2-1.2,2.1-.75,3.31,1.48,1.55,2.92,5.43,4.44,6.7,8,.3.82.72,1.63,1,2.61,0,.26.09.52.13.78.83,4.89.94,10-2.23,14.46-.81,1.24-1.35,2.52-2.14,3.59A10.42,10.42,0,0,1,33.56,40c-1,.68-1,.88,0,.13.69-.47-.14.83-.57,1.27-.15.24-.77-.1-.93.12-.47.22-.79.69-1.29,1-.18.19-.34-.28-.43-.19-.67.41-1.06,1.19-1.6,1.19s-.74.06-1.08,0a2.91,2.91,0,0,0-.65.09l-.4.19a12.45,12.45,0,0,1-3.35,1v0a6,6,0,0,1,2.07.22c-.31-.08-.28-.23.06-.28l.29.22a2,2,0,0,1-1.8,0l-.4.16c-.19-.07-.18-.23-.22-.36l-.4,0a5.45,5.45,0,0,0,1.19.59,24.79,24.79,0,0,0,5-.72c.09-.13.15-.26.33-.25a1.26,1.26,0,0,0,.41.07c.24-.05.46-.14.69-.21l.22-.13h0c.11-.1.05-.16-.05-.19a1.09,1.09,0,0,0,.4,0l.23-.11a1,1,0,0,1,.78-.17c-.42.18-.86.3-1.29.45l-.07,0-.09.08c.51-.18,1-.33,1.54-.55l.29-.18c.32-.24.64-.48,1-.37l.27-.12-.07,0h.12l1.09-.61a19.1,19.1,0,0,0,2.08-1.37A20.77,20.77,0,0,0,44.8,27.33,25,25,0,0,0,44.45,18.15ZM20.08,45.79h0c.13,0,.28,0,.42,0a1.1,1.1,0,0,1-.37-.2C20.19,45.67,20.22,45.76,20.08,45.79Z"/><path class="cls-6" d="M22.84,12.94A3.44,3.44,0,1,1,19.4,9.49,3.44,3.44,0,0,1,22.84,12.94Z"/><path class="cls-1" d="M24.94,38.42l-.13,0A.12.12,0,0,0,24.94,38.42Zm10.27-5.2c-.31,0-.28-.41-.47-.56s-.19-.38-.24-.61c-.19-.08-.13-.43-.38-.4a.68.68,0,0,0-.71-.3c-.16,0-.21-.25-.38-.17-.19.32-.56.19-.81.35s-.42-.23-.63-.24c-.24-.35-.66-.28-.93-.58a.43.43,0,0,1-.38-.17c-.33-.07-.59-.24-.9-.28s-.42-.36-.68-.57h-.27c-.09.07-.2.19-.32.13a.58.58,0,0,1-.21-.28c-.23-.25-.45,0-.7-.07a2.15,2.15,0,0,1-.91-.41.9.9,0,0,1-.39.07,1.27,1.27,0,0,0-.68-.24c-.2.12-.36-.23-.57-.25a1.1,1.1,0,0,0-.31,0,.93.93,0,0,1,.26-.51,17.09,17.09,0,0,0,.49-2c.69-1.19.19-2.42.51-3.67a7.6,7.6,0,0,0-2.07-2.52,5.92,5.92,0,0,0,.51-.53c0-.05.19-.21.26-.28.4-.19.81-.39,1.2-.6.15-.09.74-.42.44-.33a8.55,8.55,0,0,0,.79-.45c.43-.3.8-.58,1.09-.77a.45.45,0,0,1,.18-.07l.62.35a16.57,16.57,0,0,0,1.95.91c-.54-.27-1.24-.65-1.88-.94-.45-.21.47-.19.86,0,.18,0,.22.43.4.47A6.09,6.09,0,0,0,31,18c.18,0,0,.27.09.29.52.27,1.07.19,1.33.46s.42.31.61.46a2.67,2.67,0,0,0,.41.22l.3.07c.74.19,1.62.25,2.37.39v0a3.07,3.07,0,0,1-1.23-.6c.17.12.12.19-.11.13l-.11-.19a1.64,1.64,0,0,1,1.1.42H36c.11.08.08.17.09.25l.27,0c-.16-.15-.66-.52-.66-.52a13.54,13.54,0,0,1-2.89-1.28c-.1,0-.18,0-.25-.06a.93.93,0,0,0-.14-.22L32,17.55l-.14-.07h0c-.09,0-.1,0-.08.1l.08.18s-.06-.12-.08-.18a.55.55,0,0,0-.15-.2,1.56,1.56,0,0,1-.36-.23,1.12,1.12,0,0,1,.36.23l.23.1.08,0-.84-.6-.2-.09c-.22-.1-.45-.2-.51-.4l-.15-.1,0,0-.05-.07c-.21-.14-.43-.3-.66-.43A3.22,3.22,0,0,0,28,15.23a20.35,20.35,0,0,0-4.67,1.89c-1.15.68-1.06,1.2-1.94,1.47-.27.18-.86.23-.77.26a2.47,2.47,0,0,1-.82-.58A24.22,24.22,0,0,1,18.25,16a3.21,3.21,0,0,0-1.43-1.08,11.47,11.47,0,0,1-1.28-.55,4.42,4.42,0,0,0-3.31.27,6.72,6.72,0,0,0-.66.32s-.24.06-.34.09c-.35.09-.73.16-1.19.24a11.34,11.34,0,0,0-2.77,1A10.07,10.07,0,0,0,5.89,17c-.17.07-.89.5-1.21.71-.69.45-1.29,1-1.88,1.42A13,13,0,0,0,.39,20.89c-1.21,2.28.78,1.82.77,1.88,1.35-.28,1.46-.6,3.56-1.49-.59.11,1.18-1.59,2.35-1.84A15.26,15.26,0,0,0,10,18.33c.45-.17,1.06-.32,1.82-.52a7,7,0,0,0,1.3-.51,2.57,2.57,0,0,1,.68-.25,2.12,2.12,0,0,1,1-.06c.26.11-.18,0,.67.3.24.09.48.17.57.22s.06,0,.31.32a10.46,10.46,0,0,0,2.13,2.54,4,4,0,0,0,1.05.59l.29.11.14.06h0c.25,0-.54-.07.55.06h.15l.67-.12a6.74,6.74,0,0,0,.74-.29c.12.92-.11,1.88,0,2.83-.71.72-.13,1.79-.66,2.43a6.68,6.68,0,0,1-.65,2.06c-.25,0-1.56,0-1.79,0,.1.12.37.1.42.33s.07.42-.06.57-.15,0-.22,0a1.17,1.17,0,0,0-.68.06,5.05,5.05,0,0,1,.88.08l1.06.23c-.63,1.15-1.81,2.78-2.76,3-.61.95-2,.69-2.7,1.57-.65-.13-1,.5-1.46.36a6.24,6.24,0,0,1-3.55.43c-.37-.06-.73.11-.93-.28A3.13,3.13,0,0,1,6.26,33c-.46-.22-.57-.84-.86-1.14.19.31.11.54.21.93.19.15.74.13.66.44-.09.08-.09.16-.18.16a3.63,3.63,0,0,0,.42,1.39,6.7,6.7,0,0,1,1,1.2c.83.13,1.22.81,2.13.7,1.31.81,3.22.43,4.87.22.54-.18,1.19,0,1.63-.45.82-.18,1.44-.75,2.35-.93.26-.32.82-.34,1-.81.91-.26,1.15-1.2,2.06-1.39a17.34,17.34,0,0,0,2.15-3.15,1.86,1.86,0,0,1,.43-.06c.2.22.59.22.72.54.33,0,.7-.2,1-.07a12.35,12.35,0,0,0,1.84.6c.14.25.46.09.6.34.22,0,.38.2.6.25a4.41,4.41,0,0,0,.7.43c.14.22.4.13.49.39a2.46,2.46,0,0,1,.5.18c.29.21.47.46.75.64s.26.48.54.55c.2.25.55.38.67.74s-.32.43-.42.64-.56.12-.78.35-.51.28-.82.24c-.08.38-.42.24-.61.5-.36,0-.61.29-.93.36s-.41-.44-.69-.31-.11.45-.37.54a.15.15,0,0,1-.22,0c-.25-.11-.28.16-.46.21a6,6,0,0,1-1.54.28,1.11,1.11,0,0,1-.85.18c-.14.18-.42,0-.52.25a.3.3,0,0,1-.37,0l-.16.12c-.32.19-.79,0-1,.26l.24,0c.36,0,.69-.3,1-.07.24-.05.5.09.79,0a.15.15,0,0,1,.09.12.19.19,0,0,1-.06.1,1.6,1.6,0,0,1,1.08.07c.06-.27.4-.17.53-.38a1.4,1.4,0,0,1,.76,0c.1-.18.28-.13.43-.21.58-.15,1.15-.28,1.7-.46.5.15.79-.52,1.29-.33.29-.16.61,0,.9-.12a.7.7,0,0,0,.14-.41.29.29,0,0,1,.23-.06c.12,0,.11.19.15.29s.2.21.31.1a1.3,1.3,0,0,1,.56-.42c.18-.08.3-.06.47-.14s.26-.1.38-.11a2.57,2.57,0,0,0,.79-.24c0-.14.19-.22.11-.42a.48.48,0,0,1,.36-.33c.19-.29.56-.45.46-.88A2.61,2.61,0,0,0,35.21,33.22ZM28.59,15.58a3.34,3.34,0,0,0-.88-.2A.59.59,0,0,1,28.59,15.58ZM16.77,28.72h-.3a.6.6,0,0,0-.48.07c.16.09.36,0,.52.09.24-.09.47.09.66,0a4.43,4.43,0,0,0,.5.12l-.14-.18A2,2,0,0,1,16.77,28.72Zm-2.65-.65-.19,0v.07C14,28.08,14.07,28.14,14.12,28.07ZM5.88,29.8a2.12,2.12,0,0,1,1.2-.32c.31-.27.78-.08,1-.5.12-.07.27,0,.42,0,.08-.18.4.06.37-.24-.1-.12-.24-.31-.41-.22a1.49,1.49,0,0,1-.62.22c-.31.2-.72,0-1.06.17-.17.08-.39,0-.53.15-.39,0-.53.39-.69.64,0,.07,0,.13.07.12S5.77,29.88,5.88,29.8Zm9.87-1.05c-.21-.25-.56.16-.66-.27a.35.35,0,0,1,.22-.26c.57,0,1.14,0,1.68,0,.26-.13.49.08.79.06.08-.11.26-.09.41-.11v-.07a.72.72,0,0,0-.28,0c-.43-.09-.93.09-1.36,0-.28.16-.58-.15-.9-.05-.12,0-.19,0-.28,0a3.41,3.41,0,0,0-.77.11c.26.24-.2.45-.14.68A4,4,0,0,0,15.75,28.75Zm-2.89,0a.74.74,0,0,0-.63.06c.15,0,.2.15.35.17.29-.16.69,0,1-.16a1.12,1.12,0,0,1-.25-.42.39.39,0,0,1,.18-.31v-.07a.55.55,0,0,0-.65.13c.07.1.19,0,.28,0s.11.16.17.22C13.17,28.6,13.07,28.77,12.86,28.79Zm-2,0a2.13,2.13,0,0,0,1.2,0,.43.43,0,0,1-.27,0c-.17-.19-.45-.23-.45-.53-.18-.09-.33,0-.46-.09-.08,0-.21-.08-.24,0-.07-.09-.17,0-.21-.05s-.15.09-.23.13a.75.75,0,0,1,.29.17c.13.12,0,.24,0,.37S10.67,28.84,10.82,28.82Zm28.38-9-.47-.1a1,1,0,0,1,.22.15C39.05,19.88,39.11,19.82,39.2,19.78Zm-1.76-.27a1.93,1.93,0,0,0,.43.07A1.21,1.21,0,0,0,37.44,19.51Zm1.6,1c-.32-.15-.8.15-1.33.12,0,0,0-.26-.17-.23a5.16,5.16,0,0,1-1.18,0c-.19,0-.39-.32-.57-.32-.4-.05-1.55,0-.95.15a10.3,10.3,0,0,0,2.41.43c.63,0,1.29,0,2,0a2.83,2.83,0,0,1,.52.14Zm-34.32.73a2,2,0,0,0,.41-.17Z"/><path class="cls-2" d="M59,16.6a1,1,0,0,1,.58.16.49.49,0,0,1,.24.41.93.93,0,0,1-.07.33,13.94,13.94,0,0,1-1,2H60a.54.54,0,0,1,.61.62c0,.46-.2.69-.61.69H57.53v1.52h2.66a.53.53,0,0,1,.61.6c0,.46-.2.69-.61.69H57.53v.16l2.27,2.7a1,1,0,0,1,.19.45.67.67,0,0,1-.75.76.57.57,0,0,1-.51-.29l-1.2-1.76v3.64a.68.68,0,1,1-1.36,0V25.93c-.21.33-.42.63-.61.89A12,12,0,0,1,54,28.49c-.36.36-.63.54-.8.54q-.75,0-.75-.69a.94.94,0,0,1,.41-.76,17.21,17.21,0,0,0,2.44-2.65,13.33,13.33,0,0,0,.8-1.3H53.24c-.41,0-.61-.23-.61-.69a.53.53,0,0,1,.61-.6h2.93V20.82H53.51c-.41,0-.61-.23-.61-.69a.54.54,0,0,1,.61-.62h3.9a.75.75,0,0,1,.06-.22A18.94,18.94,0,0,0,58.56,17,.44.44,0,0,1,59,16.6Zm-2.25-2.89c.5,0,.75.23.75.68v.71h2.73a.54.54,0,0,1,.61.62c0,.46-.2.69-.61.69h-7c-.41,0-.61-.23-.61-.69a.54.54,0,0,1,.61-.62H56.1v-.71A.6.6,0,0,1,56.78,13.71ZM54.47,16.6a.92.92,0,0,1,.47.14,9.85,9.85,0,0,1,.82,1.52.92.92,0,0,1,.07.36q0,.6-.66.6a.56.56,0,0,1-.36-.14c-.29-.49-.58-1-.89-1.45a.81.81,0,0,1-.13-.32C53.79,16.84,54,16.6,54.47,16.6Zm13.22-2.21a.63.63,0,0,1,.68.64c0,.32-.2.5-.55.54a15.09,15.09,0,0,1-4.29.41c-.27,0-.41.23-.41.69v2.21h5a.55.55,0,0,1,.62.63c0,.46-.21.69-.62.69H66.87v9.09q0,.69-.75.69a.61.61,0,0,1-.68-.69V20.2H63.12v.88a18.26,18.26,0,0,1-.66,5.26,9.08,9.08,0,0,1-1.31,2.74.91.91,0,0,1-.69.34.68.68,0,0,1-.75-.69,1.56,1.56,0,0,1,.21-.44,8,8,0,0,0,1.23-2.66,15.47,15.47,0,0,0,.61-4.55V16a1,1,0,0,1,1.09-1.1A17.42,17.42,0,0,0,67.69,14.39Z"/><path class="cls-2" d="M75.55,13.84q.75,0,.75.69V29.29q0,.69-.75.69a.61.61,0,0,1-.68-.69V27.23a13.47,13.47,0,0,1-1.82.76,23.36,23.36,0,0,1-2.3.69,1.13,1.13,0,0,1-.31.05.73.73,0,0,1-.82-.82.76.76,0,0,1,.48-.76c1.27-.28,2.05-.46,2.34-.55a13,13,0,0,0,2-.76,1.08,1.08,0,0,1,.41-.14V18.94H70.58c-.46,0-.68-.25-.68-.75a.6.6,0,0,1,.68-.69h4.29v-3A.61.61,0,0,1,75.55,13.84ZM84.68,16a.74.74,0,0,1,.84.83.94.94,0,0,1-.36.69,14.55,14.55,0,0,1-2.38,2,23.92,23.92,0,0,1-2.47,1.38l-.26.08V27a.81.81,0,0,0,.34.76,4.58,4.58,0,0,0,1.77.21A3.86,3.86,0,0,0,84,27.73a.84.84,0,0,0,.37-.72V25.37c0-.52.25-.8.68-.82s.73.34.75.94a8,8,0,0,1-.27,2.87,1.42,1.42,0,0,1-.85.79,7.65,7.65,0,0,1-2.56.27,5.66,5.66,0,0,1-2.91-.48,1.9,1.9,0,0,1-.63-1.65V14.53a.61.61,0,0,1,.68-.69q.75,0,.75.69v4.86a20.88,20.88,0,0,0,2.08-1.26,11.5,11.5,0,0,0,2.14-2A1,1,0,0,1,84.68,16Z"/><path class="cls-2" d="M95.14,13.58a.67.67,0,0,1,.75.76v1.23h6.68a.61.61,0,0,1,.68.69.61.61,0,0,1-.68.69H87.85a.6.6,0,0,1-.68-.69.6.6,0,0,1,.68-.69h6.54V14.34A.67.67,0,0,1,95.14,13.58Zm-5.59,5.86h4.91V18a.61.61,0,0,1,.68-.69q.75,0,.75.69v1.44h5.18a1.24,1.24,0,0,1,1.43,1.38v6.54c0,1.14-.71,1.72-2.11,1.72a7.24,7.24,0,0,1-2.52-.55.63.63,0,0,1-.48-.62c0-.55.18-.83.54-.83a1.71,1.71,0,0,1,.57.12,5.18,5.18,0,0,0,1.75.43.72.72,0,0,0,.82-.81V21.43a.61.61,0,0,0-.68-.69h-4.5v8.75q0,.69-.75.69a.61.61,0,0,1-.68-.69V20.74H90.1c-.41,0-.62.23-.62.69v7.1q0,.69-.75.69a.61.61,0,0,1-.68-.69V20.82Q88.05,19.44,89.55,19.44Z"/><path class="cls-2" d="M111.52,15a.6.6,0,0,1,.68.69.6.6,0,0,1-.68.69h-2.31v3.43h1.7a.54.54,0,0,1,.61.62c0,.46-.2.69-.61.69h-1.7v5.36c.55-.25,1.19-.57,1.9-1l.28-.07c.45,0,.68.26.68.76,0,.17-.14.36-.41.57A15.93,15.93,0,0,1,109,28.18a26.37,26.37,0,0,1-3.82,1.35,1.26,1.26,0,0,1-.51.12c-.46,0-.68-.26-.68-.78a.74.74,0,0,1,.54-.76A3.52,3.52,0,0,0,105,28V19.77a.68.68,0,1,1,1.36,0v7.86q.8-.25,1.38-.48a.33.33,0,0,0,.12,0V16.41h-2.93a.61.61,0,0,1-.68-.69.61.61,0,0,1,.68-.69ZM114,13.71c.5,0,.75.23.75.68s-.08,1.1-.12,1.59h5.23a.61.61,0,0,1,.68.69.61.61,0,0,1-.68.69h-.69a18.71,18.71,0,0,1-.28,2.84,19.23,19.23,0,0,1-1,3.74,17.33,17.33,0,0,1-.87,1.61,8.63,8.63,0,0,0,.94,1,20.49,20.49,0,0,0,2.7,1.93.54.54,0,0,1,.28.5.78.78,0,0,1-.87.88,1.36,1.36,0,0,1-.5-.14,17.13,17.13,0,0,1-2.76-2.17l-.69-.76a5.27,5.27,0,0,1-.57.59A13.91,13.91,0,0,1,112,29.77a1.47,1.47,0,0,1-.5.14c-.54,0-.81-.26-.81-.76a.54.54,0,0,1,.34-.55,14.09,14.09,0,0,0,3.54-2.49,7.68,7.68,0,0,0,.61-.67c0-.11-.11-.23-.17-.34a13.35,13.35,0,0,1-1.19-3.48c-.09-.35-.16-.71-.22-1.09a11.37,11.37,0,0,1-1,2,1,1,0,0,1-.68.34.6.6,0,0,1-.68-.68,1.17,1.17,0,0,1,.09-.35,12.17,12.17,0,0,0,1.44-3.43,25.57,25.57,0,0,0,.52-4A.6.6,0,0,1,114,13.71Zm.51,3.65a20.9,20.9,0,0,0,.47,3.52,14,14,0,0,0,1.11,3.17.08.08,0,0,1,0,.05q.28-.54.54-1.11a18.37,18.37,0,0,0,1.08-5.63Z"/><path class="cls-2" d="M130.09,13.58a.67.67,0,0,1,.75.76V15h5.93a.6.6,0,0,1,.68.68.6.6,0,0,1-.68.68H124.3a.49.49,0,0,0-.55.56v5a39.69,39.69,0,0,1-.27,5,19.53,19.53,0,0,1-.55,2.62.72.72,0,0,1-.68.49q-.72,0-.75-.69c.29-1.29.5-2.43.65-3.43a29.71,29.71,0,0,0,.24-3.95V16.26a1.14,1.14,0,0,1,1.29-1.3h5.66v-.62A.67.67,0,0,1,130.09,13.58Zm-2.52,3.3c.45,0,.68.18.68.55a1,1,0,0,1-.07.34,21.7,21.7,0,0,1-.82,2.67v9c0,.42-.23.62-.68.62a.54.54,0,0,1-.61-.62v-6.3c-.25.41-.53.81-.82,1.2a.86.86,0,0,1-.55.23c-.45,0-.68-.21-.68-.62a1.15,1.15,0,0,1,.14-.43,14.48,14.48,0,0,0,1.58-2.66,17.86,17.86,0,0,0,1.21-3.6C127,17,127.21,16.88,127.57,16.88Zm9.54,1.88a.69.69,0,0,1,0,1.37h-1.57v8.14c0,1.14-.8,1.71-2.39,1.71a6.91,6.91,0,0,1-2.45-.63.67.67,0,0,1-.54-.68q0-.66.63-.69a1.41,1.41,0,0,1,.37.07,8.19,8.19,0,0,0,2,.55c.69,0,1-.23,1-.69V20.13h-5.25a.69.69,0,0,1,0-1.37h5.25v-1a.68.68,0,1,1,1.36,0v1Zm-7.64,2.6a.74.74,0,0,1,.55.29,15.08,15.08,0,0,1,1.84,3.5,3.79,3.79,0,0,1,.07.62c0,.37-.27.55-.82.55-.25,0-.43-.16-.55-.48a15.91,15.91,0,0,0-1.7-3.59,2.05,2.05,0,0,1-.07-.41C128.79,21.52,129,21.36,129.47,21.36Z"/></g></g></svg>