<svg xmlns="http://www.w3.org/2000/svg" viewBox="0 0 184.55 44.3"><defs><style>.cls-1,.cls-2{fill:#fff;}.cls-2,.cls-3,.cls-4,.cls-5,.cls-6,.cls-7{fill-rule:evenodd;}.cls-3{fill:#e8c418;}.cls-4{fill:#5dae50;}.cls-5{fill:#d94f21;}.cls-6{fill:#2c6cad;}.cls-7{fill:#9f9c97;}</style></defs><g id="圖層_2" data-name="圖層 2"><g id="圖層_1-2" data-name="圖層 1"><path class="cls-1" d="M182.32,16.39v.36c-.07.8-.85,1-1.68.95-.19.05-.22.21-.41.17a3.33,3.33,0,0,0-.37,1.29.39.39,0,0,1,.17.23c-.09,1.25.17,2.17.14,3.37,0,.14.1.13.1.24a1.65,1.65,0,0,0-.36,1.48c0,.17.11.36.12.5s-.07.12-.06.17.11.15.12.23,0,.06-.06.14.08.23.06.29-.06.28-.06.36.17.26.17.4-.11.16-.2.33a1.48,1.48,0,0,1,0,.27c-.05.11-.15.22-.17.3-.09.4.23.91.2,1.28s-.65.75-.9,1.07c0,.09.11.25,0,.33a10.82,10.82,0,0,1-1.52,0v-.23a3.11,3.11,0,0,0-.9-.17c-.66-.11-.82-.85-1.55-.89-.43-.39-.72-.92-1.33-1.15a1.93,1.93,0,0,0-.34-.67v-.12c.47.11,1.19-.08,1.41.29.39,0,.74.22,1.08.27s.44,0,.67,0a1.59,1.59,0,0,0,.37.06c1-.09,1.08-1.86,1-2.82.47-.71.25-2,.33-3.08a1.24,1.24,0,0,0,.06-.29c0-.22-.12-.45-.12-.67,0-.49.1-1,.12-1.54a2,2,0,0,1-.16-.7c-.34-.48-.65-.11-1.16,0a12.65,12.65,0,0,1-1.28.12c-.26.05-.51.21-.73.25s-.38,0-.54,0-.34.25-.53.16-.09.17-.2.2a2.58,2.58,0,0,1-.29,0h-.05V18.2c.23-.11.28-.25.61-.33.17,0,.29-.27.51-.34a9.39,9.39,0,0,0,1.9-.69c.22-.09.37-.34.57-.42s.47,0,.56-.26-.09-.25-.12-.37.26-.27.32-.47-.18-.25-.2-.46.17-.34.14-.56-.56-.48-.67-.79c0-.15-.15-.43-.17-.54-.07-.68.48-.93.58-1.58a1.58,1.58,0,0,1,1.28-.43c.2,0,.28.34.53.29a1.09,1.09,0,0,0,.57.64c.12.26-.08.44-.11.66s.31.73,0,1c.2.24.08.79.4.9,0,.25.1.34.17.5a1.34,1.34,0,0,1,.5.23,2,2,0,0,1,0,.29c.19.22.46.13.7.2s.48.5.72.67Zm-8.82,9.73c.36-.46.76-.9,1.15-1.33-.16-.48.21-.57.15-1a.6.6,0,0,0-.38-.15,1.17,1.17,0,0,0-.92-.6v3.12Zm0-17V6.89c.54,0,1-.42,1.61-.33.11,0,.22.13.36.16s.15,0,.2,0a1.17,1.17,0,0,0,.53.2,1.25,1.25,0,0,1,1,.7c-.34.27-.46.75-.92.92-.25-.07-.36,0-.59,0a.69.69,0,0,0-.14.27c-.16,0-.17-.11-.33-.09A3.64,3.64,0,0,1,173.5,9.07Zm0,17.93a1.29,1.29,0,0,0-.15-.17.2.2,0,0,0,.15.05V27Zm0-7.89a1.87,1.87,0,0,0-.35.28c-.11,0-.14.06-.27,0-.35.4-1,.47-1.34.9-.75.06-.88.73-1.69.73.06-.36.43-.41.62-.64-.11-.18,0-.37.11-.49.6.09.65-.37,1-.5v-.26a5.18,5.18,0,0,0,.93-.43c.09-.07.15-.22.26-.3a4,4,0,0,1,.67-.23h0v.91Zm0-12.22h-.15a1,1,0,0,1-.42.35h-.34c-.12.48-.67.36-1.16.47-.16,0-.23.25-.39.14a2.17,2.17,0,0,1-1.1.46,1.62,1.62,0,0,1-1.16.36c-.14.25-.43.21-.72.31-.1,0-.17.11-.27.12a2.67,2.67,0,0,1-.4,0,5,5,0,0,0-.76.29c-.25.1-.51.07-.65.18-.66,0-1,.27-1.59.29-.11,0-.11.17-.23.17-.51.14-1.13.12-1.66.26-.09,0-.14.1-.23.11-.34,0-.68-.14-1-.08-.13,0-.2.14-.3.17a.65.65,0,0,1-.2,0v.29c.44.06.76.51,1.19.59.17,0,.36-.05.53,0,.56,0,.91.37,1.36.42a8.36,8.36,0,0,0,1.95-.33c.34-.18.59-.54,1.12-.43,0,.17.21.31.2.49s-.14.19-.2.35,0,.17,0,.23c-.17.35-.61.63-.79,1-.07.09,0,.21-.07.32s-.35.42-.46.64c0,0,0,.17,0,.23-.09.23-.42.32-.29.7-.08.12-.31.17-.41.29s0,.2-.06.26-.25.17-.31.27,0,.27-.09.4-.2.15-.26.26-.07.3-.14.43-.34.34-.33.65a4.7,4.7,0,0,0-.93,1,3.39,3.39,0,0,0-.23,1.13c0,.56.68.3,1.16.24a2.1,2.1,0,0,1,.87-.44c.17-.15.17-.51.45-.55.15-.64.71-.84,1.13-1.2-.1-.37.32-.54.49-.86.08-.13,0-.34.14-.5s.26-.14.39-.26.14-.25.23-.36.22-.11.28-.17.06-.28.15-.4.42-.28.47-.46,0-.42,0-.59.34-.5.29-.79c0-.14-.15-.28-.18-.43a12.14,12.14,0,0,0-.17-1.23c-.31-.23-.68-.37-.7-.89.25-.36,1-.24,1.25-.56a1,1,0,0,0,.37-.08c.11-.05.14-.18.27-.23a2.65,2.65,0,0,0,1.28-.33,5.83,5.83,0,0,1,.7-.09c.34-.12.34-.4.73-.4s.91,0,1.37,0V6.89Zm0,16.11a4.26,4.26,0,0,0-2.16.2c-.33.12-.7.26-.76.52.14.08.18.27.46.38.65.24,2-.19,1.64.75a.4.4,0,0,1-.29.1,2.23,2.23,0,0,1-.39.63c-.29.65-.83,1-1.07,1.75.28.25.51-.09.67-.26.54-.13.85-.67,1.55-.44l.35-.51V23Zm-12.72-3.33V17.22a.65.65,0,0,1,.13.16c0,.23.11.62-.06.76,0,.08.18.06.2.15a4.45,4.45,0,0,1-.27,1.38ZM173,3.75c0,.82-1.62.52-2.41.62-.17.14-.34.06-.61.07s-.89.31-1.22.3-.51-.25-.76-.33-.54,0-.72-.14-.31-.63-.73-.69c.17-.28-.39-.31-.23-.7.83-.17,1.9.06,2.44-.43a7.63,7.63,0,0,0,1.89-.06c.63,0,1.7.15,2,.57,0,.06.06.2.14.32s.26.31.26.47ZM168.4,22.21c.18.25-.1.45-.14.69s0,.21,0,.3-.16.35-.2.55.06.64-.13.9c.14.08,0,.3.1.5s.17.28.17.43a2.53,2.53,0,0,1-.11.33c-.09.46,0,1.31-.68,1.3-.33,0-.41-.27-.7-.34,0-.39-.56-.82-.54-1.4,0-.14.12-.26.14-.42s-.05-.44,0-.66c0-.42-.11-.84-.06-1.13,0-.12.13-.19.15-.29.09-.34-.14-.64-.15-.93,0-.11,0-.19,0-.27-.08-.24-.58-.51-.2-.82-.08-.2-.44-.24-.44-.43s.37-.36.56-.34c.39.05.56.59.77.73,0,.51.39.71.56,1.1v.29C167.87,22.35,168,22.05,168.4,22.21Zm-7.62-11.7v.29h-.2c0-.06,0-.11-.06-.13s.14-.15.26-.15Zm0,6.71v2.45a3.47,3.47,0,0,0-.23,1.7c-.51.3-.09,1.38-.49,1.63a.65.65,0,0,1-.14.43c0,.48.09.82,0,1.16,0,.12-.24.19-.3.33a1.05,1.05,0,0,0,0,.8c-.23.22-.14.57-.43.71.18.34-.17.61-.2.93-.45.14-.56.65-1.06.73.11-.61.42-.82.47-1.49.28-.15.14-.45.2-.72,0-.11.14-.19.19-.33s0-.25.07-.34.16-.2.2-.33c.08-.3-.06-.6.16-.78a.35.35,0,0,0,.4-.17,3.35,3.35,0,0,1-.17-1.17c.06-.4-.08-.82,0-1.19,0-.15.22-.31.23-.46a4.78,4.78,0,0,0,0-.82c0-.22-.29-.45-.32-.7a2.53,2.53,0,0,1,0-.46c0-.34-.11-.7-.11-1,0-.47.06-.74-.23-1,.15-.23,0-.59-.13-.76a.76.76,0,0,0-.37-1.13c.1-.23,0-.68.14-.84,0,0,0,0,0,.05a6.82,6.82,0,0,1,2.09,2.71S160.77,17.21,160.78,17.22Z"/><path class="cls-1" d="M156.17,28.43a2,2,0,0,1-1.21-.06,1.09,1.09,0,0,1-1-.14c-.83,0-1.57-.58-2.43-.65-.55,0-1.08.12-1.26-.42-1.15-.36-1.58-1.42-2.48-2-.29-.51-.56-1.06-.91-1.57-.17-.24-.44-.41-.59-.65l-.05-.07V17.35a2.9,2.9,0,0,0,.16-.47c.07-.43-.08-.89.2-1.25.73-.14,1.19.53,1.58,1a1.59,1.59,0,0,1,.54,1.5,4.11,4.11,0,0,1-.88,1.23,13.4,13.4,0,0,0-1,1.13,4,4,0,0,1,0,.61c.42.16.53.62.79,1,.62.76,1.64,1.12,2.29,1.88.88.21,1.13,1.06,2,1.3,1.06,1.43,3.24,1.76,4.32,3.17ZM145.19,14l1-.82a1.27,1.27,0,0,1,.22-.13c.25-.12.52-.17.76-.28s.55-.15.64-.2a4.86,4.86,0,0,0,.72-.31A6.73,6.73,0,0,0,150,11.16c.35-.26.48-.22.68-.42a2.52,2.52,0,0,1,1-.11c.33.11.49.47.85.65,0,.19.13.37.07.56a4.71,4.71,0,0,1-.72.68,6.47,6.47,0,0,1-1.71.48c-.3.06-.59.09-.89.12s-.42.06-.7.12-.55.15-.7.19a3.15,3.15,0,0,1-.55.12c-.11,0-.37.1-.44.1a2.23,2.23,0,0,0-.64.24l-.8.15Zm1-3.92V5.37c1,.09,2.14.16,2.25,1,.06.48-.36.74-.62,1-.28.62-.73,1.11-1,1.73A5.4,5.4,0,0,1,146.22,10.09Zm0,12.74c-.12-.24-.26-.64-.54-.68s-.77.38-1,.58a10.61,10.61,0,0,1-.79.82,1.29,1.29,0,0,1-.31.13c-.32.25-.57.55-.93.82a2,2,0,0,1-.51.34c-.14.08-.2.18-.45.14-.07,0,0,.18-.09.17-.54,0-.7.48-1.07.68a2.72,2.72,0,0,1-.34.11c-.26.12-.38.31-.68.37v-.48c.37-.39,1-.67,1.22-1.16.1,0,.07.14.14.14a3.38,3.38,0,0,1,1.3-1.19c.31-.64.95-.89,1.44-1.47a3.14,3.14,0,0,0,.76-1.16c.09-.61-.43-1.2-.71-1.58a4.73,4.73,0,0,0-.59-.72,5,5,0,0,0-1.38-1,2.4,2.4,0,0,1,1.49.35,11.2,11.2,0,0,1,1.3.64c.29.2.45.57.93.48a3,3,0,0,0,.51-1.12c.08-.25.2-.49.29-.74v5.48Zm0-17.46v4.72a1.77,1.77,0,0,1-.12.17,9.82,9.82,0,0,1-1.78,2c-.37-.09-.34-.43-.31-.93a3.75,3.75,0,0,1,0-.48,4.88,4.88,0,0,1,.26-.46,10.27,10.27,0,0,0,.45-1.78c.08-.31.31-.6.39-.9,0-.12,0-.28.06-.4s.2-.37.25-.54a3.51,3.51,0,0,0,0-1.13c.14-.2.37-.06.53-.25a1.73,1.73,0,0,0,.32,0Zm0,7.82v.38c-.31.11-.52.45-.85.59a2.76,2.76,0,0,1-.4.06,7.38,7.38,0,0,1-1,.28,3.88,3.88,0,0,0-1.49.31c-.17-.06-.45,0-.6-.08-.09-.45.25-.62.4-.91.3-.22.5.19.76.23s.34-.11.62-.17.56-.06.76-.14.29-.24.43-.31.51,0,.84,0a1.64,1.64,0,0,0,.49-.21Zm-6.7,11.08a.46.46,0,0,0,.31-.38,1.6,1.6,0,0,0-.31-.74Zm0,2h-.18v-.26a.58.58,0,0,1,.18-.23v.48Zm0-3.16v1.12a1.27,1.27,0,0,1-.18.06V23c.06,0,.12.07.14.11s0,0,0,0Zm-.18-4.55V14.83a1.55,1.55,0,0,1,.1.52,7.46,7.46,0,0,1-.09,1c-.06.62.11,1.33,0,1.91C139.37,18.35,139.35,18.48,139.34,18.6Zm0,7.72h-.13a.67.67,0,0,1,.13-.25v.26Zm0-11.49V18.6a9.83,9.83,0,0,1-.24,1.26c-.46.12-.71-.25-1.06-.27-.13-.38-.61-.45-.55-.93.3-.12.73-.32.79-.71a5.68,5.68,0,0,0,0-.59,14.42,14.42,0,0,0-.11-3.28c.5-.18,1,.22,1.2.75Zm0,8.17-.24-.14c-.58-.37-.82.06-1.47.34a9.07,9.07,0,0,1-1.2.42c-.51.1-1.46.1-1.67-.28s0-1.15,0-1.57-.08-1.08-.07-1.64c0-1.2,0-2.33.1-3.45a.66.66,0,0,1,0-.68c-.22-.26-.06-.65-.06-1s-.11-.76-.14-1.16.06-.88,0-1.24-.58-1-.2-1.5a9.29,9.29,0,0,1,1.16-.34c.24-.09.43-.31.68-.37a8.18,8.18,0,0,0,.86-.17c.28-.14.41-.45.71-.51s1.23.11,1.38-.25-.28-.65-.51-.79-.56-.2-.79-.31c-.45-.18-.68-.32-1-.2-.11,0-.24,0-.37.08s-.44.22-.69.31-.52.14-.79.23c-.44.16-.83.5-1.23.62s-.58.12-.85.2a4.58,4.58,0,0,1-1.24.2c-.78,0-1.46.48-2.29.31,0,.36.35.45.65.45a.73.73,0,0,0,.14.43,2.79,2.79,0,0,0,1.3.79,1.62,1.62,0,0,0,1.19-.2c.46.17.42.71.48,1.3a9.79,9.79,0,0,1,.14,1c0,.78-.23,1.56-.2,2.38,0,.67-.17,1.34-.17,2,0,.3.06.61,0,.89s-.13.39-.14.58,0,.32,0,.47c0,.38-.16.73-.2,1.06a2,2,0,0,0,.11.93,4.26,4.26,0,0,0,0,.48c.06.34.29.61.23.92-.14.79-1.5.58-2.18.68-.22,0-.36.16-.56.1-.28-.65.23-1.4.34-2.25.08-.48,0-1,.11-1.47-.25-.31-.31-.86-.65-1.3-.11-.14-.33-.21-.45-.34-.32-.35-.54-.88-1-.54-.08.33.15.53.13.85s-.13.39-.13.58.09.24.1.37a2.92,2.92,0,0,1-.17,1c-.06.24-.09.49-.14.72-.1.45-.32.86-.44,1.3s-.19.82-.35,1.23a9.11,9.11,0,0,0-.38,1.19c.43.66.69,1.61,1.55,1.72.63.07.83-.45,1.25-.65.09-.05.22-.05.34-.11a1.31,1.31,0,0,1,.28-.17c.12-.05.31,0,.45-.06.43-.16.79-.48,1.08-.56s.42,0,.59-.06a2.23,2.23,0,0,1,1.13-.28,10.68,10.68,0,0,1,2.54-.57,2.7,2.7,0,0,1,.47-.17c.13,0,.27,0,.38,0,.48,0,.86-.31,1.4-.24.1-.12.33-.15.55-.21Z"/><path class="cls-1" d="M96.25,23.92c.06.39-.22.62-.2,1-.14,0,0-.17-.19-.13,0,.2.16.19.16.36,0,.88-.18,1.52-1,1.72a8.32,8.32,0,0,1-1.78-.14c-.11,0-.17,0-.25,0-.26,0-.49-.14-.72-.17a4.3,4.3,0,0,0-1.49.2c-.26.08-.49.07-.71.13s-.31.18-.45.18c-.39,0-.56-.58-.71-1,0-.13-.16-.24-.17-.32a2.5,2.5,0,0,1,.09-1.33c.06-.28.16-.47.23-.82.11-.56.48-1,.56-1.43,0-.2,0-.44,0-.65s.17-.46.23-.68.1-.51.16-.77c.14-.62.35-1,.45-1.62.06-.5.42-1.12.52-1.68.08-.38.27-1.3-.17-1.33-.21,0-.24.19-.38.31A6.47,6.47,0,0,0,89,16.93,8.55,8.55,0,0,0,87.88,18c-.28.35-.44.79-.84,1-.39.53-.77,1.08-1.21,1.59-.14.17-.35.3-.48.45s-.17.33-.29.48-.39.33-.42.68c-.4.24-.51.78-.91,1,0,.12-.09.15-.09.26a7.74,7.74,0,0,0-1.07,1.4,5.31,5.31,0,0,0-1.16,1.42c-.84.51-1.29,1.72-2.25,2a1,1,0,0,1-.58,0c-.13,0-.22-.14-.36-.17-.34-.11-.46-.11-.65-.39A6.76,6.76,0,0,0,77,26c-.09-.18-.28-.37-.3-.54a2.4,2.4,0,0,1,.27-.76c.23-.31.71-.34,1-.57a1,1,0,0,0,.87-.43c0-.54.06-1.05,0-1.52a2.44,2.44,0,0,1-.06-.26c0-.25.22-.48.09-.74s-.46-.1-.51-.33a2.21,2.21,0,0,1-1-.09c-.07-.19-.31-.2-.44-.33s-.13-.23-.24-.35-.23-.13-.29-.2-.19-.42-.33-.59-.34-.33-.48-.51c-.32-.47-.15-1.16-.65-1.49-.07-.18-.07-.34-.13-.49s-.17-.11-.16-.36c.31.09.39.42.59.62.09,0,.26,0,.29,0a7.27,7.27,0,0,0,1.61,1.1c.31,0,.53.17.79.09s.14-.2.25-.34.23,0,.26-.17A11.45,11.45,0,0,1,78.78,16c0-.12,0-.23,0-.35s.07-.2.09-.3a3.21,3.21,0,0,0-.09-.71c0-.21,0-.46,0-.65,0-.37-.16-.72-.24-1.19A5.48,5.48,0,0,0,78,11.48c.56-.08.7.26,1.23.22a5.52,5.52,0,0,1,1.1.88,4.32,4.32,0,0,1,.72.86,6.26,6.26,0,0,1,.28,3.41c0,.11.09.11.08.23s0,.37,0,.59c0,.46-.21.93-.25,1.36a4.61,4.61,0,0,1-.2,1.81c.14.53-.18,1.07,0,1.5.51.16.56-.38,1-.46.48-.57,1.14-1,1.68-1.55.19-.17.31-.42.51-.56s.33-.14.47-.23c.54-.39.85-1.07,1.55-1.33v-.32a11.72,11.72,0,0,0,1.85-1.81c.2-.21.47-.36.65-.58.61-.59,1.32-1.08,1.94-1.71.58,0,.75-.33,1-.69,0-.31-.08-.57.09-.75-.18-.28-.06-.65-.09-1a9.87,9.87,0,0,1-.32-2c.26-.26.71-.34,1-.57a1.56,1.56,0,0,0,.91-.24,5.3,5.3,0,0,1,.48,1.63c0,.2,0,.59,0,.83s.24.25.32.39a1,1,0,0,1,.5.17,2,2,0,0,1,.92.74c.61,0,.41,1,.14,1.3a1.75,1.75,0,0,1-.68.48c-.45.19-1,.11-1.24.5s0,.91-.32,1.1c.06.54-.29.68-.23,1.2-.11.13-.14.3-.25.39-.32,2.11-1.1,3.89-1.56,5.93.31.35.91,0,1.45-.06.23,0,.48,0,.71,0a3.8,3.8,0,0,1,.47-.18,7,7,0,0,1,1.1.1,1.82,1.82,0,0,1,.32,0C95.5,23,96.2,23.56,96.25,23.92Z"/><path class="cls-2" d="M113.18,8.1c1,.72,2.21,0,3.45-.62,1.23-.17,2.48-1.32,3.55-.58a15.47,15.47,0,0,0,2.58-.38c1,0,1.84.4,1.82,1.58,0,.85-.56,1.14-1.28,1.25A4.27,4.27,0,0,1,121,9.5a4.28,4.28,0,0,0-3.67,1c-1.24.53-2.48,0-3.73.78-.25.09-.22,1.18-.2,1.4,0,.51.06,1.3-.2,1.4a1.35,1.35,0,0,1,1.44-.56c.51-.19,1-.27,1.57-.47a2.11,2.11,0,0,1,1.61-.32,4.31,4.31,0,0,1,1.58.75c-.06.69-.08,1.33-.1,2,0,.31,0,1.26-.08,2-.09,1.17-.31,3.8-.92,3.74-.61.88-1.62,2.31-3.3,1.29-.29-1.28-.62-.95-.94-1.15-.32-.45-.63-.37-.86-1.25a6.1,6.1,0,0,0-.29,2.69c0,.46,0,.88,0,1.6s0,.92.08,1.26c0,.1,0,.68.06,1.05s0,.73,0,1.06,0,.61,0,.79a4.32,4.32,0,0,1,0,.5c0,.53,0,.88-.08.83,0,.22-.08.24-.13.61a1.31,1.31,0,0,1-.48.86c-.2,0-.46.51-.79.74a6.15,6.15,0,0,0-.49-1.35,7.52,7.52,0,0,0-.31-.92,2.41,2.41,0,0,0-.16-.53c0-.22,0-.28,0-.6s0-.46,0-.68c0,0,0-.51,0-.59,0-.39,0-.5,0-.63a5,5,0,0,1,.14-1.07,10.1,10.1,0,0,0,.17-1.18c.06-.47.12-1.09.18-1.45s.11-.94.16-1.29a18.68,18.68,0,0,0,.07-3.9c-1.13,0-1.72,1.6-2.37,2.49-.64,1.89-1.33,2.3-2.63,2.71-.23-.85-.37-.2-.44-1.22a7.27,7.27,0,0,1,0-1.64,10.65,10.65,0,0,1,.32-1.85,6.73,6.73,0,0,1,.54-1.84c.21-1.35.44-.21.68-1.95.23-1.27.47-1.48.7-.89.34-.44.81-.15,1.31-1.14A9.92,9.92,0,0,0,111,11.9V10.7a6.57,6.57,0,0,0,3.45-.33A26.29,26.29,0,0,1,117,8.7c-1.2-.08-2.43,1-3.64.69s-2.42,1.38-3.59,1.43c-1.17.6-2.3,1.15-3.36,1.68-1.12,1.07-2.23.89-3.08,1.22-.85,0-1.45-.57-1.52-2.42,1,.18,2-.5,3-.2,1,0,2-.79,3-1.15,1-.53,1.92-1.34,2.81-1.25-.27.36-.89.26-1.2-.6.59.24.65-1.17.48-2.22-.17-.84-.57-2.1-.88-1.57a3.28,3.28,0,0,1,3.27.47C113.12,6.31,113.59,6.22,113.18,8.1Zm-1.79,7.6c0-1.3.2-.83.23-2,0-1.4-.09-1.64-.63-1.56-.38.37-.73,1.49-1,1.19-.31.23-.58,1.3-.8,1.11-.22,1.06-.39.71-.49,1.75a4.25,4.25,0,0,0-.06,1.34c.42-.06.89.11,1.37-.92A1.48,1.48,0,0,1,111.39,15.7Zm1.59.8a16,16,0,0,1,0,2.59c.68.89,1.28-.49,1.78.43.51.65.92-.36,1.22-.75a6.38,6.38,0,0,0,.51-1.54,6.78,6.78,0,0,0-.31-1.93,6.75,6.75,0,0,0-1.77.42C113.87,15.88,113.4,16.44,113,16.5Z"/><path class="cls-2" d="M53,5a3.56,3.56,0,0,1-.16,1.49,5.18,5.18,0,0,1-.58,1.07,2.52,2.52,0,0,0-.55,1.09c.1.32.24,0,.39.27s.33-.07.51-.06.39,0,.59-.26.42-.14.64-.34.43-.27.63-.2a.46.46,0,0,0,.6-.14.53.53,0,0,1,.53.17,2.15,2.15,0,0,1,.41.78c-.3.09-.67.82-1.08.87a2.63,2.63,0,0,1-1.34.5,10,10,0,0,1-1.42.24c-.47,0-.92.08-1.32.11A5,5,0,0,0,51,9.37,9.05,9.05,0,0,0,50.87,8c-.08-.11-.2-1.08-.36-1.36a6.35,6.35,0,0,0-.58-1.2,1.94,1.94,0,0,0-.79-.9,1.2,1.2,0,0,1,.79-.82c.32-.43.69.06,1.06.14.38-.1.76.23,1.11.58S52.76,4.76,53,5Z"/><path class="cls-1" d="M50.37,11l.11-.51a4.78,4.78,0,0,0,.13-1.12,9.08,9.08,0,0,0-.11-1.24,2.57,2.57,0,0,1-.14-.54,4.13,4.13,0,0,0-.19-.74,3.76,3.76,0,0,0-.4-.87,3.51,3.51,0,0,1-.18-.34A1.5,1.5,0,0,0,49,4.91l-.24-.18.06-.31a1.69,1.69,0,0,1,.93-1,.88.88,0,0,1,1.12,0,.87.87,0,0,0,.19.1c.56-.06,1.07.44,1.35.71a1.08,1.08,0,0,0,.41.24,1.56,1.56,0,0,1,.49.28l.11.1V5a3,3,0,0,1-.08,1.22l-.08.39a4.89,4.89,0,0,1-.64,1.19l-.11.12a1.75,1.75,0,0,0-.29.58.94.94,0,0,1,.12.09.8.8,0,0,1,.33-.08l.13,0,.15-.15A.82.82,0,0,1,53.48,8c.08,0,.09,0,.11,0l.11-.07.15-.08a.92.92,0,0,1,.75-.14l.12,0,.09-.1L55,7.53a.93.93,0,0,1,.88.28,2.38,2.38,0,0,1,.5.93l.12.37-.37.12a2.85,2.85,0,0,0-.25.25,1.72,1.72,0,0,1-.78.61,3,3,0,0,1-1.45.52,10.31,10.31,0,0,1-1.43.24c-.47.06-.92.09-1.33.11Zm1-2.24a5.93,5.93,0,0,1,0,.61,6.56,6.56,0,0,1-.05.79l.81-.07a13,13,0,0,0,1.37-.23,2.48,2.48,0,0,0,1.2-.43l.08-.07h.1c.1,0,.31-.26.42-.38l.24-.26a1.13,1.13,0,0,0-.22-.36l-.08-.06a.83.83,0,0,1-.92.11s-.06.07-.12.1l-.15.08a.85.85,0,0,1-.42.18c-.09,0-.09,0-.12.05-.38.47-.71.51-.94.44a.58.58,0,0,1-.75-.08h0a.53.53,0,0,1-.48-.4ZM49.62,4.44a2.07,2.07,0,0,1,.66.87l.16.29a4.45,4.45,0,0,1,.44,1,4.15,4.15,0,0,1,.24.89,2.48,2.48,0,0,0,.09.4l.06.08,0,0c0,.24.06.44.08.63l0-.06A2.76,2.76,0,0,1,52,7.28a4.41,4.41,0,0,0,.51-.93L52.56,6a2.16,2.16,0,0,0,.08-.8l-.15-.06a1.89,1.89,0,0,1-.66-.4c-.15-.15-.55-.53-.74-.49l-.09,0-.08,0a1.65,1.65,0,0,1-.47-.19A.89.89,0,0,0,50.23,4l-.08.11L50,4.11A.65.65,0,0,0,49.62,4.44Z"/><path class="cls-2" d="M71.92,12.3v.86c-.35.18-.71.36-1.08.53l-1.13.48c-.38.41-.76.27-1.15.47-.38-.07-.76.58-1.14.47a1.19,1.19,0,0,0-1.11.5c-.36-.08-.71.54-1,.56.26.14.48.8.68,1a1.57,1.57,0,0,1,.27.47c.09.21.16.53.23.76a2.75,2.75,0,0,1,.2.75c0,.61.1-.12.15.67,0,.41.06.76.08.51a2.5,2.5,0,0,0,.07.52c0-.21,0,.46,0,.45,0-.4,0,.78,0,.64,0,.1,0,.36,0,.55,0,.64,0,0,0,.57v.6a5.17,5.17,0,1,0,0,.54A7.42,7.42,0,0,1,67,25c0,.22,0,.14,0,.78,0,.15,0-.15,0,.45s0-.21,0,.45a2.7,2.7,0,0,1-.07.62,3.4,3.4,0,0,1,0,.54c0,.75,0,.53,0,.38s-.07.25-.1.55c0,.64-.08.76-.11.8,0,.2-.08.36-.12.59-.17.89-.35,1.7-.53,2.39-1.47,0-1.68-1.33-2.15-2.36a1,1,0,0,0,.7-.06.39.39,0,0,1,.59-.16c0-.37-.05-.78-.08-1.23,0-.14,0-.56-.06-1.34a6.2,6.2,0,0,1,0-.71c0,.14,0-.07,0-.69s0-.58,0-.6c0-.41,0-.46,0-.29s0-.56,0-.54c0-.36,0-.32,0-.8v-.65c0-.25,0-.82,0-1.07V19c0-.24,0-.46,0-.68V17.7c0-.38,0-1,0-1.1a4.27,4.27,0,0,1-1.07,0,9,9,0,0,1-3-.21,15.39,15.39,0,0,0-.24,1.53c-.07.72-.12,1.25-.17,1.73s-.1,1.38-.16,1.78c-.06.77-.13,1-.22,1.73a14.65,14.65,0,0,1-.35,1.54c-.44,1.4-1.17,2.33-2.51,2.22-.67-.74.68-.74.86-1.29.11-.35.21-.73.31-1.14s.2-.84.29-1.3a8,8,0,0,0,.25-1.4c.07-.33.13-1.24.18-1.49a13.77,13.77,0,0,0,.1-1.51c0-.5,0-.89,0-1.51a14.08,14.08,0,0,0-.14-1.47,9.42,9.42,0,0,0-.75-2.64,19.52,19.52,0,0,1,1.27-2.35l.71-1.11a.88.88,0,0,1,.35-.48c.11,0,.22-.28.34-.64.11-.65.22-.42.33-.64s.21-.45.31-.53.2-.69.29-.62c.09-.38.18-.67.26-.63a6.65,6.65,0,0,1,.24-.81,3.79,3.79,0,0,0,.19-.57c.29-.2.63-.34.93.28a2.88,2.88,0,0,1,.44.53c.13.21.25.18.35.65s.16.33.2.7a1.91,1.91,0,0,1,0,.63,3.07,3.07,0,0,1-.47.95,2.28,2.28,0,0,1-.91.89,4.51,4.51,0,0,1-1.15.84,1.53,1.53,0,0,0-1.19.79,11.77,11.77,0,0,0-1,.76,2.66,2.66,0,0,0-.63.71c.56,1,1.72,1.43,1.71,3a11,11,0,0,0,2.72-1.17c.45-.26.91-.77,1.37-.81s.93-.69,1.39-.78.94-.39,1.41-.64c.47-.07.94-.62,1.42-.37a4.57,4.57,0,0,1,1.43,0A4.46,4.46,0,0,1,71.92,12.3Z"/><path class="cls-1" d="M66.2,32.89h-.31c-1.48,0-1.92-1.16-2.27-2.07-.07-.18-.14-.36-.22-.53l-.32-.71.76.18a.64.64,0,0,0,.37,0,.82.82,0,0,1,.41-.28c0-.24,0-.5,0-.77a9.87,9.87,0,0,1-.06-1.31c0-.08,0-.24,0-.74,0-.17,0-.39,0-.7v-.57c0-.14,0-.24,0-.3v0h0v0a.81.81,0,0,1,0-.16h0V23.5h0v0h0v0c0-.11,0-.23,0-.37V20.86c0-.42,0-.7,0-.9h0l0-2.52c0-.14,0-.28,0-.42l-.32,0a2.07,2.07,0,0,0-.35,0h-.36A10.14,10.14,0,0,1,61,16.87c-.06.31-.11.67-.16,1.09-.07.71-.12,1.24-.17,1.72l0,.53c0,.48-.08,1-.12,1.27,0,.5-.09.8-.14,1.16,0,.16,0,.34-.08.56A12.82,12.82,0,0,1,60,24.8c-.55,1.77-1.54,2.61-2.9,2.5l-.15,0-.1-.11a.88.88,0,0,1-.28-.73c.06-.37.41-.55.69-.69.11-.06.34-.18.36-.25.11-.33.21-.71.31-1.11s.2-.83.29-1.28a8.65,8.65,0,0,0,.24-1.37c0-.22.08-.58.11-.9s0-.51.07-.62a10.63,10.63,0,0,0,.09-1.45c0-.49,0-.88,0-1.49s-.07-1-.14-1.42a9.64,9.64,0,0,0-.72-2.54l-.08-.16.07-.16a21.59,21.59,0,0,1,1.31-2.39l.51-.81.19-.3a1.17,1.17,0,0,1,.49-.62,2.29,2.29,0,0,0,.16-.41c.07-.41.16-.6.38-.74A1.42,1.42,0,0,0,61,7.5a1.57,1.57,0,0,1,.18-.31c0-.05,0-.12.07-.19a1.23,1.23,0,0,1,.21-.46,1.46,1.46,0,0,1,.26-.63,4.7,4.7,0,0,1,.21-.7,4,4,0,0,0,.18-.52l0-.15.13-.08a1,1,0,0,1,.82-.21,1.1,1.1,0,0,1,.64.58,3.65,3.65,0,0,1,.44.55,1.15,1.15,0,0,0,.08.1,1.29,1.29,0,0,1,.33.69,1.27,1.27,0,0,0,.08.28,1,1,0,0,1,.13.44,2.35,2.35,0,0,1,0,.75,2.91,2.91,0,0,1-.49,1,2.79,2.79,0,0,1-1.06,1.07l-.15.13a3.87,3.87,0,0,1-1.07.74l-.11,0a1.1,1.1,0,0,0-.9.62l-.1.1a11.21,11.21,0,0,0-1,.73,3.47,3.47,0,0,0-.43.43,5.93,5.93,0,0,0,.53.61A3.32,3.32,0,0,1,61.09,15a11.75,11.75,0,0,0,2.18-1,4.85,4.85,0,0,0,.43-.3,2.17,2.17,0,0,1,1.1-.55l.45-.31a2.51,2.51,0,0,1,.9-.47l.23-.11c.36-.15.71-.3,1.07-.49l.13,0a1.71,1.71,0,0,0,.41-.18,1.39,1.39,0,0,1,1.11-.21,4.68,4.68,0,0,1,1.45,0,4.91,4.91,0,0,1,1.56.57l.2.11v1.32l-.21.11c-.36.19-.73.37-1.1.54l-1.07.46a1.52,1.52,0,0,1-.86.38,1.59,1.59,0,0,0-.33.1l-.12.06-.13,0a1.37,1.37,0,0,0-.26.17,1.07,1.07,0,0,1-.91.29.83.83,0,0,0-.71.37l-.14.18-.23,0a1.51,1.51,0,0,0-.26.2l-.12.1.15.27a1.64,1.64,0,0,0,.2.32,2.39,2.39,0,0,1,.36.6c.06.16.12.36.17.54l.11.38a2.84,2.84,0,0,1,.17.68v.07a1,1,0,0,1,.15.64c0,.22,0,.43,0,.5h0a2.43,2.43,0,0,0,0,.34,1.35,1.35,0,0,1,.07.41v.06a2.35,2.35,0,0,1,0,.5c0,.12,0,.24,0,.29h0c0,.09,0,.32,0,.52s0,.31,0,.34h0a1.42,1.42,0,0,1,0,.3V24.2a3,3,0,0,1,0,.53V25l0,.19c0,.09,0,.19,0,.6l0,.4v.05a1.42,1.42,0,0,1,0,.36v.09a3.37,3.37,0,0,1-.06.56.25.25,0,0,0,0,.1v.18a3.27,3.27,0,0,1,0,.35c0,.41,0,.66-.13.78l0,.15a2.6,2.6,0,0,1-.13.91l0,.18c0,.1,0,.2-.06.33-.16.86-.34,1.7-.54,2.42Zm-1.87-2.36h0c.34.85.59,1.41,1.28,1.55.16-.63.31-1.33.44-2.05,0-.13,0-.24.07-.35l.13-.41s0-.12,0-.58l0-.18a1.57,1.57,0,0,1,.13-.59v-.15h.21l-.2,0c0-.05,0-.17,0-.29v-.22l0-.21a1.51,1.51,0,0,0,0-.4,1.27,1.27,0,0,1,0-.34v-.09a4.09,4.09,0,0,1,0-.51c0-.41,0-.52,0-.61v-.14a2,2,0,0,1,0-.39,2.48,2.48,0,0,0,0-.34v-.48s0-.09,0-.14V23.5h0v-.7h0a3,3,0,0,1,0-.31c0-.23,0-.43,0-.52h0a3.27,3.27,0,0,1,0-.35V21.4a1.23,1.23,0,0,1,0-.31,1.42,1.42,0,0,1,0-.19h0a3.2,3.2,0,0,1-.06-.34,3.36,3.36,0,0,1-.09-.72c0-.08,0-.14,0-.19a.88.88,0,0,1-.14-.48,2.52,2.52,0,0,0-.12-.52L66,18.23a4.15,4.15,0,0,0-.15-.46,1.23,1.23,0,0,0-.21-.37,1.91,1.91,0,0,1-.3-.47c0-.06-.08-.15-.13-.23,0,.16,0,.47,0,.75l0,2.51v1h0v2.53h0v0h0v0a1.21,1.21,0,0,1,0,.19v.79h0c0,.08,0,.17,0,.26V25h0v0a3.11,3.11,0,0,1,0,.32h0a4.11,4.11,0,0,1,0,.61c0,.41,0,.63,0,.68h0c0,.46,0,.6,0,.65,0,1,0,1.27.06,1.34,0,.49.06.9.09,1.27l0,.69-.61-.32s-.05,0-.09,0l-.07.09-.11.05A1.71,1.71,0,0,1,64.33,30.53ZM58.59,13.16a9.8,9.8,0,0,1,.71,2.58c.07.48.12,1,.15,1.51s0,1,0,1.54a6.37,6.37,0,0,1-.12,1.64s0,.25,0,.49-.08.75-.12.94a10.43,10.43,0,0,1-.25,1.42c-.09.44-.19.88-.29,1.29s-.21.81-.32,1.16a1.35,1.35,0,0,1-.75.7l-.19.1c.87,0,1.44-.65,1.85-2a10.34,10.34,0,0,0,.33-1.48c0-.22.06-.4.09-.57.05-.33.09-.62.13-1.13,0-.31.08-.78.12-1.24l0-.55c.06-.48.11-1,.17-1.72a15.27,15.27,0,0,1,.26-1.58l.07-.31-.08,0v-.49a2.46,2.46,0,0,0-.91-1.86,6,6,0,0,1-.7-.85C58.7,12.92,58.64,13,58.59,13.16Zm5.2,3c.14,0,.27,0,.41,0a2.09,2.09,0,0,0,.42,0l-.73-.42,1.35-.05a1.8,1.8,0,0,0,.25-.18,1.31,1.31,0,0,1,.65-.37,1.54,1.54,0,0,1,1.31-.51h0a.67.67,0,0,0,.32-.15,1.2,1.2,0,0,1,.71-.32,1.68,1.68,0,0,1,.45-.12.79.79,0,0,0,.49-.22l.13-.09,1.12-.48c.29-.14.58-.27.86-.42v-.39a3.88,3.88,0,0,0-2.44-.4H69l-.11-.05c-.1-.05-.27,0-.52.16a2.81,2.81,0,0,1-.59.24c-.36.19-.72.34-1.08.49l-.3.13a2.05,2.05,0,0,0-.68.37,3.47,3.47,0,0,1-.74.43,1.8,1.8,0,0,0-.8.41,4.4,4.4,0,0,1-.52.36,11,11,0,0,1-2.81,1.22l-.17,0,.22.08a7.24,7.24,0,0,0,2.51.19h.4ZM60.63,9.58s0,.07-.13.28l-.22.35-.51.81-.23.38c.22-.18.5-.38.86-.63a1.92,1.92,0,0,1,1.38-.9,3.92,3.92,0,0,0,.8-.58l.28-.23a1.87,1.87,0,0,0,.75-.74A3,3,0,0,0,64,7.5,1.62,1.62,0,0,0,64,7,.44.44,0,0,0,64,6.79a1.84,1.84,0,0,1-.15-.47A.53.53,0,0,0,63.67,6a1.29,1.29,0,0,1-.17-.21,2.33,2.33,0,0,0-.37-.44l-.08-.11C62.94,5,62.87,5,62.87,5L62.8,5c0,.16-.1.28-.15.41a6.23,6.23,0,0,0-.24.81l-.1.46-.11,0a1.5,1.5,0,0,1-.06.22L62,7.44l-.1-.07a1,1,0,0,1-.1.23l-.09.11a.58.58,0,0,1,0,.13,1.69,1.69,0,0,1-.19.32.55.55,0,0,1-.21.22s0,.08-.05.27c-.16.5-.31.83-.59.93Z"/><path class="cls-2" d="M49.35,10.36c.11.56-3,2.69-3.65,1.08A24.32,24.32,0,0,0,49.35,10.36Z"/><path class="cls-1" d="M46.65,12.41a1.32,1.32,0,0,1-1.3-.82l-.18-.4.43-.12c.37-.11.74-.2,1.12-.29A14.3,14.3,0,0,0,49.19,10l.45-.21.09.48c.13.7-1.32,1.69-2.32,2A2.77,2.77,0,0,1,46.65,12.41Zm-.17-.78a.72.72,0,0,0,.21,0,2.68,2.68,0,0,0,1.09-.33l-.87.22Z"/><path class="cls-2" d="M41.4,23a37.84,37.84,0,0,0,4.1-1.33l1.3-.52a1.67,1.67,0,0,0,1.28-.53,1.88,1.88,0,0,0,1.28-.53c.42.09.85-.32,1.28-.53,0-.42-.17-.91-.46-1-.29-.42-.7-.2-1.14-.2a4,4,0,0,0-1.38.08,1.68,1.68,0,0,1-1.19-.2,1.18,1.18,0,0,1-.56-1c.51-.09,1,.29,1.5-.18a3.82,3.82,0,0,0,1.41-.42c.45-.3.87,0,1.26-.63a13,13,0,0,1,1-.82,3.44,3.44,0,0,0,1-3.32c-.72.84-1.31,1.81-2,2.65a7.27,7.27,0,0,1-.78.79,4.5,4.5,0,0,1-1.26-.25,1.53,1.53,0,0,1-.56-1,2.14,2.14,0,0,1,.1-1.17c2.83,1.66,4.18-3.64,6.88-.86.05.17,0,.43.22.43a7.75,7.75,0,0,1-2.8,2.8c.73.49,2.3-1.54,3.23-.22a3.79,3.79,0,0,1-1.92,1.52c-.39.18-.79.36-1.17.56a1.89,1.89,0,0,0-1,.72c.33.19.69.62,1.08.53a3.75,3.75,0,0,0,1.22-.17c.42-.12.84-.27,1.24-.37a2.5,2.5,0,0,1,1.14-.08,1.66,1.66,0,0,1,.91.73c-.24.38-.53.63-.85.59a5.68,5.68,0,0,1-1,.15,7.32,7.32,0,0,0-1.06.11c-.34,0-.66.31-.93.44v1.5a1.57,1.57,0,0,0,1.05.62c.43-.06.89.29,1.31.36a1.08,1.08,0,0,1,1,.63,1.93,1.93,0,0,1,.27,1.4,1.49,1.49,0,0,1-1-.39c-.3.09-.57-.29-.82-.57a4.74,4.74,0,0,1-.77-.63c-.26-.09-.54-.62-.84-.56A8.13,8.13,0,0,1,53,24a5.92,5.92,0,0,1-.37,1.7A4.92,4.92,0,0,1,52,27a1.94,1.94,0,0,1-.89.77c-.32.4-.68.15-1-.09a12.52,12.52,0,0,1-1.14-1.22c.26-.35.58-.14.93-.12s.69.31,1-.09V22.4a2.2,2.2,0,0,0-1.1.6A4.66,4.66,0,0,0,49,24.05c-.23.35-.43,1-.62,1.19a5.3,5.3,0,0,0-.62,1.06c-.21.41-.45.66-.74.61-.47-.08-.64-.67-.66-.87a3,3,0,0,1,.23-1.25,2.82,2.82,0,0,0,.21-.89A1.16,1.16,0,0,0,48,23.56,6.34,6.34,0,0,0,49,23l.91-.66a9.26,9.26,0,0,1,1-.59,1.64,1.64,0,0,0,0-.63,1.19,1.19,0,0,0-.2-.44l-1.31.45a8.67,8.67,0,0,1-1.23.7c-2,1.28-4,2.89-6.7,1.43Z"/><path class="cls-1" d="M50.74,28.39a1.71,1.71,0,0,1-.85-.33L49.78,28l-.29-.29a8.66,8.66,0,0,1-.87-1l-.18-.22.17-.23a.93.93,0,0,1,1.06-.32l.2,0a1.43,1.43,0,0,1,.37.07l.23,0V23a2.15,2.15,0,0,0-.45.33,4.43,4.43,0,0,0-.72,1,5.84,5.84,0,0,0-.28.56,2.92,2.92,0,0,1-.38.69l-.08.07a2.32,2.32,0,0,0-.24.46c-.09.16-.17.34-.26.48s-.48.9-1.13.79a1.33,1.33,0,0,1-1-1.21,3.51,3.51,0,0,1,.25-1.44c0-.11.07-.24.11-.36a.85.85,0,0,0,.08-.33l-.06-.55a4.9,4.9,0,0,1-5.11.2l-.2-.11v-.75l.29-.07a34.92,34.92,0,0,0,4-1.32l1.29-.51.13,0a1.32,1.32,0,0,0,1-.41l.13-.13h.18a1.63,1.63,0,0,0,1-.45l.14-.11.17,0c.16,0,.39-.11.63-.26l.18-.11a.68.68,0,0,0-.19-.43l-.12-.05-.07-.1c-.07-.1-.11-.11-.44-.07a2.33,2.33,0,0,1-.37,0H49l-.06,0a1.86,1.86,0,0,0-.77,0l-.43.06a1.92,1.92,0,0,1-1.3-.18l-.11-.05a1.54,1.54,0,0,1-.79-1.35l0-.34.34-.06a2.05,2.05,0,0,1,.66,0c.32.05.46.06.63-.1l.12-.11h.16a2,2,0,0,0,.92-.26l.34-.14a1.41,1.41,0,0,1,.59-.19.54.54,0,0,0,.48-.29,3.25,3.25,0,0,1,.72-.6,2.8,2.8,0,0,0,.37-.29,3.32,3.32,0,0,0,1-2.05c-.14.19-.28.37-.41.56-.33.45-.66.92-1,1.35a7.17,7.17,0,0,1-.82.83l-.13.12-.18,0-.44-.06a2.38,2.38,0,0,1-1-.24,1.92,1.92,0,0,1-.75-1.2,2.64,2.64,0,0,1,.12-1.39l.17-.42.39.23c1.11.65,1.93,0,2.88-.69s2.41-1.82,4.08-.11l.09.17a.4.4,0,0,1,0,.15h.41l-.24.53a5.1,5.1,0,0,1-1.27,1.67,1.36,1.36,0,0,1,1.66.53l.14.19-.11.21A4.24,4.24,0,0,1,53.4,17l-.32.15c-.28.13-.56.25-.82.4a1.83,1.83,0,0,0-.61.32c.14.11.32.24.41.21h.13a3.44,3.44,0,0,0,1.08-.15l.52-.16c.24-.08.49-.16.73-.22a2.91,2.91,0,0,1,1.32-.07,2,2,0,0,1,1.14.89l.14.21-.13.2a1.35,1.35,0,0,1-1.15.78,7.42,7.42,0,0,1-1,.14h-.14a7.11,7.11,0,0,0-.86.09h-.12c-.14,0-.27.11-.4.21l-.1.07V21.2a1.23,1.23,0,0,0,.69.35,2.34,2.34,0,0,1,.91.22,2,2,0,0,0,.43.15,1.46,1.46,0,0,1,1.32.83,2.31,2.31,0,0,1,.29,1.66l0,.27-.27,0a1.64,1.64,0,0,1-1.16-.37c-.38,0-.67-.33-.89-.58l-.08-.09a4.59,4.59,0,0,1-.61-.48l-.13-.12-.19-.13a5,5,0,0,1,0,1.11,4.23,4.23,0,0,1-.22,1.23c0,.13-.09.27-.14.47a5.82,5.82,0,0,1-.72,1.5,2.52,2.52,0,0,1-1,.86A.76.76,0,0,1,50.74,28.39Zm-1.11-1.67.4.41.3.3c.38.24.4.21.48.12l.06-.08.09,0a1.82,1.82,0,0,0,.72-.64,5.28,5.28,0,0,0,.61-1.26c.05-.2.1-.36.15-.5a3.66,3.66,0,0,0,.19-1.11,7.21,7.21,0,0,0,0-1.69l-.05-.36.16,0a1.63,1.63,0,0,1-.27-.31l-.06-.1V19.58l.21-.11a.9.9,0,0,0,.22-.14,1.66,1.66,0,0,1,.85-.34,5.85,5.85,0,0,1,.92-.09h.14a5.16,5.16,0,0,0,1-.15h.14c.09,0,.2-.07.32-.2a1.12,1.12,0,0,0-.54-.37,2.15,2.15,0,0,0-.93.08l-.69.2-.54.17a4,4,0,0,1-1.3.18,1.48,1.48,0,0,1-1.08-.42l-.23-.17L50.52,18l.24-.34A2.32,2.32,0,0,1,52,16.8c.22-.12.52-.26.81-.39l.31-.15a3.89,3.89,0,0,0,1.61-1.13c-.3-.23-.69-.08-1.36.26s-1.12.56-1.6.23l-.3-.2,0,0a3.25,3.25,0,0,1-.49.38,2.5,2.5,0,0,0-.53.43,1.25,1.25,0,0,1-1,.58A.85.85,0,0,0,49,17l-.39.17a3.27,3.27,0,0,1-1.09.31,1.4,1.4,0,0,1-1.15.2h0a.86.86,0,0,0,.3.3h0a1.16,1.16,0,0,0,.8.14l.1,0L48,18a2.59,2.59,0,0,1,1,0l.24,0a1.1,1.1,0,0,1,1.11.31,1.55,1.55,0,0,1,.6,1.33v.24l-.21.1-.35.2a1.94,1.94,0,0,1-1,.38h0a2.36,2.36,0,0,1-1.25.52,2,2,0,0,1-1.35.52l-1.24.5c-1.24.47-2.34.84-3.4,1.14,1.95.7,3.45-.27,5-1.31l.61-.39c.18-.11.35-.19.53-.28a3.07,3.07,0,0,0,.67-.39l.12-.07,1.58-.55.17.23a1.74,1.74,0,0,1,.26.59,1.92,1.92,0,0,1,0,.75v.13h0V26.4l-.08.11a1,1,0,0,1-1.12.28,1,1,0,0,0-.21,0ZM47.1,24.35l-.06.17c0,.11-.07.23-.11.38A2.9,2.9,0,0,0,46.71,26c0,.12.14.48.35.51h0s.15-.07.33-.41c.09-.15.16-.3.23-.44a2.23,2.23,0,0,1,.45-.71,3.64,3.64,0,0,0,.25-.49,3.82,3.82,0,0,1,.33-.64c.05-.1.11-.19.16-.28a4.56,4.56,0,0,1-.61.33A1.63,1.63,0,0,1,47.1,24.35Zm8.44-.83.12.11a3,3,0,0,0,.44.26,1.43,1.43,0,0,0-.23-.73.72.72,0,0,0-.73-.47,2.56,2.56,0,0,1-.66-.21,1.34,1.34,0,0,0-.58-.16l.08.06.12.07.18.17a2.79,2.79,0,0,0,.52.41l.1.08.12.14a1.6,1.6,0,0,0,.34.32Zm-9.16-.15.51.17a.79.79,0,0,0,.84-.26l.11-.07a5.78,5.78,0,0,0,.93-.53l.53-.38.37-.27c.22-.15.5-.34.82-.52a.72.72,0,0,0,0-.29.19.19,0,0,0,0-.07l-.93.33a3.72,3.72,0,0,1-.77.45,4.78,4.78,0,0,0-.45.23l-.6.39C47.26,22.83,46.83,23.12,46.38,23.37Zm1.51-9.88a1.68,1.68,0,0,0,0,.55,1.17,1.17,0,0,0,.41.71,2.48,2.48,0,0,0,.62.11l.29,0a7.32,7.32,0,0,0,.6-.63c.35-.41.68-.86,1-1.3l.28-.38C50.24,13.24,49.19,14,47.89,13.49Zm4.62-1.77v.06a3.66,3.66,0,0,1-.63,3.08l.21-.16a6.93,6.93,0,0,0,2.15-2.09.8.8,0,0,1-.09-.33h0A1.54,1.54,0,0,0,52.51,11.72Z"/><path class="cls-1" d="M44.89,42.31V42a1.91,1.91,0,0,0,.54-.06.21.21,0,0,0,.08-.1,3.51,3.51,0,0,0,.05-.64c0-.6,0-1.06,0-1.37V38.23a3.23,3.23,0,0,0,0-.74.27.27,0,0,0-.07-.08,2.22,2.22,0,0,0-.57-.09V37h1.58c.59.74,1.24,1.54,2,2.41q.73.87,1.26,1.44v-1.5c0-.57,0-1.06,0-1.47a1.45,1.45,0,0,0-.06-.45.1.1,0,0,0-.08-.06,4,4,0,0,0-.53-.06V37h1.83v.31a3.08,3.08,0,0,0-.51.06.24.24,0,0,0-.08.06.2.2,0,0,0,0,.08,3.06,3.06,0,0,0,0,.59l0,1.51v1.52c0,.41,0,.81,0,1.22l0,.06c-.31-.06-.52-.1-.65-.11-.65-.72-1.43-1.62-2.34-2.71-.47-.55-.84-1-1.13-1.38v1.47c0,.4,0,.88,0,1.44a4.29,4.29,0,0,0,.05.72.09.09,0,0,0,.06.06,1.85,1.85,0,0,0,.55.08v.32l-.88,0Z"/><path class="cls-1" d="M55.84,41.58l.11.11-.17.36a2.38,2.38,0,0,1-.59.25,2.34,2.34,0,0,1-.66.09,1.75,1.75,0,0,1-1.3-.48,1.86,1.86,0,0,1-.47-1.35,2.42,2.42,0,0,1,.14-.91,1.08,1.08,0,0,1,.37-.48,4.14,4.14,0,0,1,.6-.37,1.64,1.64,0,0,1,.74-.17,1.52,1.52,0,0,1,1,.35A1.38,1.38,0,0,1,56,40.09c0,.06,0,.16,0,.29l-.62.11c-.19,0-.46,0-.83,0h-.81a1.47,1.47,0,0,0,.38,1,1.18,1.18,0,0,0,.85.33,1.59,1.59,0,0,0,.43-.06A1.9,1.9,0,0,0,55.84,41.58Zm-2.11-1.47.68,0,.63,0v-.18a1.07,1.07,0,0,0-.17-.68.55.55,0,0,0-.46-.21.6.6,0,0,0-.35.1.62.62,0,0,0-.22.28A2.85,2.85,0,0,0,53.73,40.11Z"/><path class="cls-1" d="M57.75,39v-.31c.32,0,.71,0,1.19,0s.66,0,.93,0V39h-.24a.77.77,0,0,0-.25,0,.14.14,0,0,0-.05.11s0,.21.13.56l.37,1.37.76-1.67c.17-.38.29-.66.35-.83h.4c.17.47.53,1.31,1.07,2.5l.34-1a4.93,4.93,0,0,0,.25-.9.14.14,0,0,0-.07-.13,2.52,2.52,0,0,0-.47,0v-.31c.36,0,.63,0,.83,0s.46,0,.74,0V39a1.24,1.24,0,0,0-.36,0,.2.2,0,0,0-.09.11,10.16,10.16,0,0,0-.51,1.34c-.2.55-.39,1.15-.58,1.79h-.62c-.28-.72-.62-1.52-1-2.38-.44.89-.79,1.69-1.06,2.38h-.62c-.11-.46-.28-1.08-.5-1.86s-.36-1.2-.4-1.27a.22.22,0,0,0-.07-.09A1.51,1.51,0,0,0,57.75,39Z"/><path class="cls-1" d="M70.18,42.31V42a2.28,2.28,0,0,0,.45,0,.27.27,0,0,0,.16-.06.34.34,0,0,0,.07-.16c0-.11,0-.51,0-1.19,0-.49,0-1,0-1.5,0-1,0-1.51,0-1.53s-.09,0-.26,0c-.35,0-.66,0-.91,0l-.25,0a.43.43,0,0,0,0,.07s0,.25-.06.66h-.33A11.46,11.46,0,0,0,69,37l0,0c.79,0,1.56.05,2.31.05S73,37,73.88,37l0,.06c0,.34-.08.75-.1,1.21h-.31a3.49,3.49,0,0,0-.07-.69s-.06,0-.12-.05a8,8,0,0,0-1.2,0c-.05,0-.08,0-.09,0a.59.59,0,0,0,0,.2l0,2.54c0,.74,0,1.19,0,1.35s0,.27.09.31a2.88,2.88,0,0,0,.6.08v.32c-.37,0-.77,0-1.18,0S70.53,42.29,70.18,42.31Z"/><path class="cls-1" d="M79.14,42v.31l-.29,0h-.46c-.24,0-.47,0-.68,0l0-.05,0-.51-.79.59a1.8,1.8,0,0,1-.37,0,.8.8,0,0,1-.62-.24,1,1,0,0,1-.22-.7.94.94,0,0,1,.3-.79,4.53,4.53,0,0,1,1.7-.54,1.09,1.09,0,0,0-.15-.65.76.76,0,0,0-.64-.28l-.21,0a.65.65,0,0,0-.22.08l-.17.4-.26-.06v-.49a5.3,5.3,0,0,1,.83-.45,1.48,1.48,0,0,1,.52-.07,1.82,1.82,0,0,1,.72.13.93.93,0,0,1,.41.37,1.35,1.35,0,0,1,.13.67c0,.13,0,.35,0,.67s0,.59,0,.79a5.16,5.16,0,0,0,0,.57.16.16,0,0,0,.08.1A2.11,2.11,0,0,0,79.14,42Zm-1.43-1.56a2.12,2.12,0,0,0-.86.32.56.56,0,0,0-.2.45.48.48,0,0,0,.13.36.42.42,0,0,0,.32.14.89.89,0,0,0,.61-.34Z"/><path class="cls-1" d="M80.94,42.31V42a1.4,1.4,0,0,0,.49-.06s.08-.09.09-.21,0-.51,0-1c0-.23,0-.45,0-.65v-.44a.45.45,0,0,0,0-.27s-.12-.06-.26-.06h-.28V39a4.77,4.77,0,0,0,1.5-.33l.1.08q-.06.72-.06,2.1a8.53,8.53,0,0,0,0,1,.21.21,0,0,0,.06.15,2.78,2.78,0,0,0,.5.07v.31l-1.06,0Zm1-5.49a.58.58,0,0,1,.42.18.57.57,0,0,1,.17.41.59.59,0,1,1-1.18,0,.57.57,0,0,1,.17-.41A.58.58,0,0,1,82,36.82Z"/><path class="cls-1" d="M84.87,39.24V39a6.29,6.29,0,0,0,1.1-.18l.4-.12s.06,0,.06.09,0,.11,0,.2v.35L87,38.8a1.09,1.09,0,0,1,.65-.15,1.38,1.38,0,0,1,1,.39,1.47,1.47,0,0,1,.39,1.07,2.51,2.51,0,0,1-.1.66,1.69,1.69,0,0,1-.23.52,2.18,2.18,0,0,1-.46.45c-.38.3-.61.48-.68.52a1.08,1.08,0,0,1-.52.13,1.33,1.33,0,0,1-.34,0,1.16,1.16,0,0,1-.34-.12l0,1.15a1,1,0,0,0,.08.48,1.14,1.14,0,0,0,.56.07v.31l-1,0-1.17,0v-.31a1.55,1.55,0,0,0,.46,0,.13.13,0,0,0,.06-.07,4.9,4.9,0,0,0,0-.78c0-.64,0-1.11,0-1.43V40.1a3.23,3.23,0,0,0,0-.75.13.13,0,0,0,0-.07A1.47,1.47,0,0,0,84.87,39.24Zm1.53,2.24a1.4,1.4,0,0,0,.37.33,1,1,0,0,0,.44.11.73.73,0,0,0,.63-.34,1.78,1.78,0,0,0,.25-1.07,1.41,1.41,0,0,0-.25-.91.8.8,0,0,0-.65-.31.81.81,0,0,0-.39.1,1.39,1.39,0,0,0-.4.28Z"/><path class="cls-1" d="M94.17,41.58l.1.11-.16.36a2.55,2.55,0,0,1-.59.25,2.39,2.39,0,0,1-.66.09,1.75,1.75,0,0,1-1.3-.48,1.82,1.82,0,0,1-.47-1.35,2.42,2.42,0,0,1,.14-.91,1.08,1.08,0,0,1,.37-.48,4.61,4.61,0,0,1,.59-.37,1.72,1.72,0,0,1,.75-.17A1.52,1.52,0,0,1,94,39a1.38,1.38,0,0,1,.41,1.11c0,.06,0,.16,0,.29l-.62.11c-.19,0-.47,0-.83,0h-.82a1.52,1.52,0,0,0,.39,1,1.16,1.16,0,0,0,.85.33,1.59,1.59,0,0,0,.43-.06A1.9,1.9,0,0,0,94.17,41.58Zm-2.11-1.47c.23,0,.45,0,.68,0l.63,0v-.18a1.07,1.07,0,0,0-.17-.68.56.56,0,0,0-.46-.21.58.58,0,0,0-.35.1.62.62,0,0,0-.22.28A2.85,2.85,0,0,0,92.06,40.11Z"/><path class="cls-1" d="M96.29,42.31V42a1.4,1.4,0,0,0,.49-.06s.08-.09.09-.21,0-.51,0-1c0-.23,0-.45,0-.65v-.44a.45.45,0,0,0,0-.27s-.12-.06-.26-.06h-.28V39a4.77,4.77,0,0,0,1.5-.33l.09.08c0,.48,0,1.18,0,2.1,0,.53,0,.86,0,1s0,.13.07.15a2.78,2.78,0,0,0,.5.07v.31l-1.06,0Zm1-5.49a.62.62,0,0,1,.59.59.58.58,0,0,1-.18.42.57.57,0,0,1-.41.17.58.58,0,0,1-.59-.59.57.57,0,0,1,.17-.41A.58.58,0,0,1,97.34,36.82Z"/><path class="cls-1" d="M108.6,41.49l.1.08c-.07.13-.12.26-.18.39a4,4,0,0,1-.84.33,4.31,4.31,0,0,1-.93.09,3.6,3.6,0,0,1-1.68-.35,2.53,2.53,0,0,1-1-1,2.79,2.79,0,0,1-.37-1.45,2.5,2.5,0,0,1,.83-1.93,3.34,3.34,0,0,1,2.3-.75,5.23,5.23,0,0,1,1,.09,5.64,5.64,0,0,1,1,.27l0,.05a2.24,2.24,0,0,0-.1.39,7.59,7.59,0,0,0-.08.82h-.32a5.1,5.1,0,0,0,0-.65.8.8,0,0,0-.21-.2,1.37,1.37,0,0,0-.5-.24,3,3,0,0,0-.7-.08,1.85,1.85,0,0,0-1.43.56,2.13,2.13,0,0,0-.54,1.55,2.46,2.46,0,0,0,.64,1.75,2.17,2.17,0,0,0,1.63.62,3.52,3.52,0,0,0,.75-.08A4.7,4.7,0,0,0,108.6,41.49Z"/><path class="cls-1" d="M110.57,42.31V42a1.46,1.46,0,0,0,.49-.06s.07-.09.09-.21,0-.51,0-1c0-.23,0-.45,0-.65v-.44c0-.15,0-.24,0-.27a.38.38,0,0,0-.26-.06h-.28V39a4.91,4.91,0,0,0,1.5-.33l.09.08q-.06.72-.06,2.1a8.53,8.53,0,0,0,0,1,.21.21,0,0,0,.07.15,2.58,2.58,0,0,0,.49.07v.31l-1,0Zm1.05-5.49A.54.54,0,0,1,112,37a.53.53,0,0,1,.17.41.57.57,0,0,1-.17.42.57.57,0,0,1-.42.17.57.57,0,0,1-.41-.17.61.61,0,0,1-.17-.42.57.57,0,0,1,.17-.41A.54.54,0,0,1,111.62,36.82Z"/><path class="cls-1" d="M114.39,39.27l.5-.33c0-.45,0-.84,0-1.17a7,7,0,0,0,1-.39l.12.09a12,12,0,0,0-.12,1.47,2.07,2.07,0,0,0,.35,0,4.65,4.65,0,0,0,.69,0l0,0,0,.14a2.08,2.08,0,0,0-.08.39c-.3,0-.51,0-.65,0l-.31,0v.67a7.11,7.11,0,0,0,.07,1.45c0,.12.17.17.36.17a.55.55,0,0,0,.18,0l.21,0,.06.14c-.15.17-.3.35-.44.53l-.26,0-.21,0a1.19,1.19,0,0,1-.53-.11A.68.68,0,0,1,115,42a1,1,0,0,1-.1-.52c0-.12,0-.44,0-.95s0-.81,0-1.07h-.2l-.3,0Z"/><path class="cls-1" d="M118.28,39v-.31l1.11,0,1,0V39a1.73,1.73,0,0,0-.42,0,.14.14,0,0,0-.06.12,6.18,6.18,0,0,0,.37,1.05l.41,1,.35-.82a6.36,6.36,0,0,0,.47-1.28.11.11,0,0,0-.06-.11,1.61,1.61,0,0,0-.41,0v-.31h.24l.51,0,.71,0V39a.68.68,0,0,0-.31.06l-.08.08c0,.06-.2.41-.48,1l-.7,1.61-.66,1.49a2.69,2.69,0,0,1-.39.64,1.25,1.25,0,0,1-.39.27,1.14,1.14,0,0,1-.46.09,1.33,1.33,0,0,1-.55-.13,7,7,0,0,0,.14-.72l.1,0a.67.67,0,0,0,.52.25.6.6,0,0,0,.41-.16,4.25,4.25,0,0,0,.5-.94l-.84-2.14-.46-1.15a.46.46,0,0,0-.13-.18A1.26,1.26,0,0,0,118.28,39Z"/><path class="cls-1" d="M131.06,40.45v-.31l1.23,0,1.08,0v.24l-.32.13a5.48,5.48,0,0,0,0,.65c0,.13,0,.38,0,.76a9.34,9.34,0,0,1-1.25.37,6,6,0,0,1-1.05.09,3.22,3.22,0,0,1-2.28-.76,2.75,2.75,0,0,1,0-3.94,3.52,3.52,0,0,1,2.42-.75A6.06,6.06,0,0,1,132,37a5.14,5.14,0,0,1,1,.27l0,.05a7.83,7.83,0,0,0-.17,1.2h-.31a5.75,5.75,0,0,0-.05-.64,1.43,1.43,0,0,0-.62-.42,2.74,2.74,0,0,0-.9-.14,2.09,2.09,0,0,0-1.55.59,2.24,2.24,0,0,0-.57,1.62,2.56,2.56,0,0,0,.6,1.76,2,2,0,0,0,1.5.66,2.41,2.41,0,0,0,1-.23,5.21,5.21,0,0,0,0-.55c0-.39,0-.6-.07-.64A2.78,2.78,0,0,0,131.06,40.45Z"/><path class="cls-1" d="M135.44,40.51a1.67,1.67,0,0,1,1.87-1.88,1.89,1.89,0,0,1,1.38.43,1.81,1.81,0,0,1,.43,1.35,2,2,0,0,1-.5,1.46,1.86,1.86,0,0,1-1.39.52,1.77,1.77,0,0,1-1.34-.48A2,2,0,0,1,135.44,40.51Zm1-.26a3,3,0,0,0,.26,1.44.65.65,0,0,0,.6.33.61.61,0,0,0,.54-.28,1.93,1.93,0,0,0,.19-1,2.94,2.94,0,0,0-.23-1.41.71.71,0,0,0-1.15,0A1.7,1.7,0,0,0,136.48,40.25Z"/><path class="cls-1" d="M140.84,39v-.31l1,0,1.05,0V39a2,2,0,0,0-.42,0,.11.11,0,0,0-.06.11.86.86,0,0,0,0,.17l.23.64.5,1.3.5-1.16a4.14,4.14,0,0,0,.34-.95.1.1,0,0,0-.06-.1,1.71,1.71,0,0,0-.44,0v-.31l.81,0,.72,0V39a.79.79,0,0,0-.38.08,5.54,5.54,0,0,0-.43.84c-.25.52-.59,1.31-1,2.37h-.66c-.17-.46-.42-1.11-.75-1.94-.22-.55-.37-.91-.44-1.07a.47.47,0,0,0-.15-.21A.9.9,0,0,0,140.84,39Z"/><path class="cls-1" d="M149.89,41.58l.11.11-.17.36a2.31,2.31,0,0,1-.58.25,2.39,2.39,0,0,1-.66.09,1.74,1.74,0,0,1-1.3-.48,1.83,1.83,0,0,1-.48-1.35,2.64,2.64,0,0,1,.14-.91,1.1,1.1,0,0,1,.38-.48,4.61,4.61,0,0,1,.59-.37,1.71,1.71,0,0,1,.74-.17,1.53,1.53,0,0,1,1,.35,1.38,1.38,0,0,1,.4,1.11c0,.06,0,.16,0,.29l-.62.11c-.19,0-.47,0-.83,0h-.82a1.52,1.52,0,0,0,.39,1,1.15,1.15,0,0,0,.85.33,1.52,1.52,0,0,0,.42-.06A1.9,1.9,0,0,0,149.89,41.58Zm-2.1-1.47c.23,0,.45,0,.68,0l.63,0v-.18a1.13,1.13,0,0,0-.17-.68.56.56,0,0,0-.46-.21.58.58,0,0,0-.35.1.62.62,0,0,0-.22.28A2.41,2.41,0,0,0,147.79,40.11Z"/><path class="cls-1" d="M151.86,42.31V42a2.42,2.42,0,0,0,.44,0,.16.16,0,0,0,.07-.07,1.37,1.37,0,0,0,0-.4c0-.37,0-.71,0-1,0-.58,0-.93,0-1a.19.19,0,0,0-.07-.14,1.46,1.46,0,0,0-.48,0V39a5.86,5.86,0,0,0,1.09-.18l.39-.15s0,0,0,.07v0c0,.16,0,.39,0,.69a4.14,4.14,0,0,0,.43-.47,1.43,1.43,0,0,1,.3-.28.85.85,0,0,1,.35-.06.67.67,0,0,1,.24,0c0,.25,0,.6,0,1l-.17.06a.56.56,0,0,0-.19-.21.68.68,0,0,0-.27,0,.64.64,0,0,0-.39.11.53.53,0,0,0-.21.27,5.22,5.22,0,0,0,0,.77,10.57,10.57,0,0,0,0,1.12.21.21,0,0,0,.07.15,2.14,2.14,0,0,0,.57.08v.31l-.42,0h-1.35Z"/><path class="cls-1" d="M156.4,42.31V42a1.35,1.35,0,0,0,.46-.07s.06-.09.07-.19c0-.26,0-.71,0-1.35,0-.32,0-.59,0-.82a1.3,1.3,0,0,0,0-.25l-.06,0a2.76,2.76,0,0,0-.45,0V39a3.5,3.5,0,0,0,.64-.09,4.34,4.34,0,0,0,.73-.21l.1,0s0,0,0,.09v0c0,.07,0,.25,0,.55l.58-.5a.57.57,0,0,1,.23-.12,1.5,1.5,0,0,1,.4,0,1.4,1.4,0,0,1,.66.14.85.85,0,0,1,.37.38,1.82,1.82,0,0,1,.12.76c0,.15,0,.33,0,.53,0,.41,0,.76,0,1.06a1,1,0,0,0,0,.35.24.24,0,0,0,.08.09l.42.06v.31l-.47,0H160l-.77,0-.05-.05a10.22,10.22,0,0,0,.1-1.48,3.71,3.71,0,0,0-.11-1.18.58.58,0,0,0-.56-.29.72.72,0,0,0-.44.13.64.64,0,0,0-.25.28,2.27,2.27,0,0,0,0,.38c0,.92,0,1.44,0,1.57a.45.45,0,0,0,.06.25,1.68,1.68,0,0,0,.51.08v.31l-1.11,0Z"/><path class="cls-1" d="M162.54,42.31V42a1.56,1.56,0,0,0,.44,0,.19.19,0,0,0,.07-.14,7.29,7.29,0,0,0,0-.87,13,13,0,0,0,0-1.58c0-.07-.1-.1-.26-.11h-.24V39c.31,0,.57-.08.79-.13a4.12,4.12,0,0,0,.59-.18l.08,0s.05,0,.05.09a1.56,1.56,0,0,1,0,.2v.32l.62-.46a1,1,0,0,1,.59-.15,1.1,1.1,0,0,1,.64.16.92.92,0,0,1,.36.5l.65-.51a.78.78,0,0,1,.51-.15,1.19,1.19,0,0,1,.88.29,1.38,1.38,0,0,1,.28.95v.31c0,.35,0,.66,0,.93a4.26,4.26,0,0,0,0,.7.2.2,0,0,0,.08.13,1.65,1.65,0,0,0,.42.06v.31l-.82,0-.7,0-.05-.08a12.3,12.3,0,0,0,.1-1.58,2.83,2.83,0,0,0-.14-1.15.55.55,0,0,0-.5-.23.74.74,0,0,0-.42.12.54.54,0,0,0-.23.27,2.7,2.7,0,0,0,0,.66c0,.66,0,1.13,0,1.38a.33.33,0,0,0,.07.22,1.4,1.4,0,0,0,.48.08v.31l-1,0c-.4,0-.75,0-1.07,0V42c.25,0,.4,0,.44-.11a3.42,3.42,0,0,0,.07-1,11.74,11.74,0,0,0,0-1.19.57.57,0,0,0-.19-.36.6.6,0,0,0-.4-.12.73.73,0,0,0-.6.33.49.49,0,0,0-.06.27V40c0,.08,0,.27,0,.6v.45c0,.43,0,.68,0,.76a.17.17,0,0,0,.06.11,2.31,2.31,0,0,0,.42.07v.31c-.3,0-.64,0-1,0Z"/><path class="cls-1" d="M174,41.58l.11.11-.17.36a2.48,2.48,0,0,1-.58.25,2.41,2.41,0,0,1-.67.09,1.75,1.75,0,0,1-1.3-.48,1.86,1.86,0,0,1-.47-1.35,2.64,2.64,0,0,1,.14-.91,1.15,1.15,0,0,1,.37-.48,4.14,4.14,0,0,1,.6-.37,1.64,1.64,0,0,1,.74-.17,1.5,1.5,0,0,1,1,.35,1.38,1.38,0,0,1,.41,1.11c0,.06,0,.16,0,.29l-.61.11c-.2,0-.47,0-.83,0h-.82a1.43,1.43,0,0,0,.39,1,1.14,1.14,0,0,0,.84.33,1.54,1.54,0,0,0,.43-.06A1.9,1.9,0,0,0,174,41.58Zm-2.11-1.47.68,0,.63,0v-.18a1.13,1.13,0,0,0-.17-.68.58.58,0,0,0-.47-.21.6.6,0,0,0-.35.1.62.62,0,0,0-.22.28A3.47,3.47,0,0,0,171.84,40.11Z"/><path class="cls-1" d="M176.05,42.31V42a1.44,1.44,0,0,0,.47-.07.32.32,0,0,0,.06-.19c0-.26,0-.71,0-1.35,0-.32,0-.59,0-.82a1.3,1.3,0,0,0,0-.25.1.1,0,0,0-.06,0,2.76,2.76,0,0,0-.45,0V39a3.5,3.5,0,0,0,.64-.09,4.34,4.34,0,0,0,.73-.21l.1,0s0,0,0,.09v0c0,.07,0,.25,0,.55l.58-.5a.64.64,0,0,1,.23-.12,1.56,1.56,0,0,1,.4,0,1.4,1.4,0,0,1,.66.14.85.85,0,0,1,.37.38,1.82,1.82,0,0,1,.12.76c0,.15,0,.33,0,.53,0,.41,0,.76,0,1.06a1,1,0,0,0,0,.35.2.2,0,0,0,.09.09l.41.06v.31l-.46,0h-.3l-.78,0,0-.05a11.86,11.86,0,0,0,.1-1.48,3.33,3.33,0,0,0-.12-1.18.57.57,0,0,0-.55-.29.77.77,0,0,0-.45.13.61.61,0,0,0-.24.28,1.3,1.3,0,0,0,0,.38c0,.92,0,1.44,0,1.57a.45.45,0,0,0,.06.25,1.68,1.68,0,0,0,.51.08v.31l-1.11,0Z"/><path class="cls-1" d="M182,39.27l.5-.33q0-.67,0-1.17a7,7,0,0,0,1-.39l.11.09c-.05.37-.09.86-.11,1.47a2.07,2.07,0,0,0,.35,0,4.86,4.86,0,0,0,.69,0l0,0,0,.14a3.56,3.56,0,0,0-.09.39c-.29,0-.51,0-.65,0l-.3,0c0,.25,0,.48,0,.67a6.72,6.72,0,0,0,.08,1.45c0,.12.17.17.36.17a.62.62,0,0,0,.18,0l.2,0,.07.14c-.15.17-.3.35-.44.53l-.26,0-.22,0a1.22,1.22,0,0,1-.53-.11.79.79,0,0,1-.31-.29,1.15,1.15,0,0,1-.09-.52c0-.12,0-.44,0-.95s0-.81,0-1.07h-.19l-.31,0Z"/><path class="cls-2" d="M9.39,13.11l2.66.56-.14,1.12,2.73.49L17.51,1.22S12.19-.88,9.39,2.47V6.53h.28A3.63,3.63,0,0,1,14,4.29l-1.47,6.86-3.15-.63Zm-1-9S2.67,4.08,1.2,11.57l8.19,1.54V10.52L4.77,9.61C5.4,6.88,8.48,6.53,9.39,6.53V2.47A6.42,6.42,0,0,0,8.41,4.15Z"/><path class="cls-2" d="M11.91,14.79l-.28,1.05-4.48-.91v2.66l3.92.84L9.81,25.29a3.82,3.82,0,0,1-2.66-1.82V28a10.17,10.17,0,0,0,4.76,1.47l2.73-14.21Zm-4.76.14L.85,13.67c-1.54,7.49,3.78,9.59,3.78,9.59A5.35,5.35,0,0,0,7.15,28V23.47a4.66,4.66,0,0,1-.49-1.89s-4-1.47-3.43-4.76l3.92.77Z"/><path class="cls-2" d="M26.82,7.86A5.41,5.41,0,0,0,24.23,3V7.79a4.1,4.1,0,0,1,.42,1.82s4,1.47,3.43,4.69l-3.85-.77v2.59l6.37,1.33C32.14,10,26.82,7.86,26.82,7.86ZM24.23,3a10.94,10.94,0,0,0-4.76-1.33L16.74,15.84l2.8.63.28-1.19,4.41.84V13.53l-3.92-.77L21.5,5.9a3.6,3.6,0,0,1,2.73,1.89Z"/><path class="cls-2" d="M22.13,28.58A4.72,4.72,0,0,0,23,27s5.74.07,7.14-7.49l-8-1.54v2.66l4.62.91c-.56,2.66-3.57,3-4.62,3.08Zm-2.8-11.06.21-1.05-2.8-.63L13.94,30s5.46,2.1,8.19-1.4V24.66h-.35a3.53,3.53,0,0,1-4.27,2.24L18.91,20l3.22.63V18Z"/><path class="cls-2" d="M.85,31.59S5,30.54,7,35.09a14.37,14.37,0,0,1,1.75,4.76s-2.38-.7-4.06-4.06A11.38,11.38,0,0,0,.85,31.59Z"/><path class="cls-2" d="M13,30.47s-4.48,4.62-2.38,8.26c0,0,1,.7,1.75-.77,0,0-1.61,0-1.05-2A17.8,17.8,0,0,1,13,30.47Z"/><path class="cls-2" d="M10.44,42.23s7.28-9.94,16-6.09a53.51,53.51,0,0,0-6.65,2.45S15,42.23,10.44,42.23Z"/><path d="M170.83,8.87c.34-.12.34-.4.73-.4s.91,0,1.38,0a3.66,3.66,0,0,0,1.67-.32c.15,0,.17.11.32.09a.59.59,0,0,1,.14-.26c.23,0,.34-.11.59,0,.46-.17.59-.65.93-.93a1.27,1.27,0,0,0-1-.7,1.11,1.11,0,0,1-.53-.2s-.14,0-.2,0-.25-.14-.35-.15c-.59-.1-1.07.27-1.61.32h-.16a1,1,0,0,1-.42.36H172c-.12.48-.66.35-1.16.46-.15.05-.23.25-.38.14a2.08,2.08,0,0,1-1.1.46,1.63,1.63,0,0,1-1.16.36c-.14.25-.44.22-.73.31-.09,0-.17.11-.26.12a2.81,2.81,0,0,1-.41,0,3.78,3.78,0,0,0-.75.3c-.25.09-.52.06-.65.17-.67,0-1,.28-1.6.29-.11,0-.11.17-.23.17-.51.14-1.13.13-1.66.27-.09,0-.14.09-.23.1-.34,0-.68-.14-1-.07-.12,0-.2.14-.29.17h-.2c-.13,0-.24,0-.27.16s.07.06.07.12a.71.71,0,0,1,.2,0c.43.06.75.51,1.19.58a3,3,0,0,0,.52,0c.56,0,.92.37,1.37.42a9,9,0,0,0,1.95-.32c.34-.19.58-.55,1.11-.44,0,.17.22.31.2.5s-.14.18-.2.34,0,.17,0,.23c-.17.36-.6.63-.79,1-.06.09,0,.22-.06.33s-.36.41-.47.63c0,0,0,.17,0,.23-.09.23-.41.33-.29.7-.08.12-.31.17-.4.29s0,.2-.07.27-.24.17-.3.26,0,.28-.1.4-.2.16-.26.26-.06.3-.14.44-.34.34-.32.65a4.24,4.24,0,0,0-.93,1,3.15,3.15,0,0,0-.24,1.13c0,.55.69.29,1.17.23a1.89,1.89,0,0,1,.86-.43c.17-.16.17-.52.45-.56.16-.64.71-.84,1.13-1.19-.09-.37.33-.54.5-.87.07-.12,0-.34.13-.5s.27-.13.39-.26.14-.25.23-.35.22-.11.28-.17.06-.28.16-.41.42-.27.46-.46a5.81,5.81,0,0,0,0-.59c.06-.31.34-.49.3-.79,0-.14-.16-.28-.19-.43a9.68,9.68,0,0,0-.17-1.22c-.31-.24-.68-.38-.7-.9.25-.36,1-.23,1.26-.56a.77.77,0,0,0,.37-.08c.11,0,.14-.18.26-.23A2.83,2.83,0,0,0,170.14,9C170.37,8.87,170.61,8.94,170.83,8.87Z"/><path d="M172.12,24.29a.45.45,0,0,1-.3.09,2.21,2.21,0,0,1-.38.63c-.3.65-.84,1-1.07,1.75.28.25.51-.09.66-.26.54-.12.85-.67,1.55-.43q.16-.26.36-.51c.35-.47.75-.9,1.14-1.34-.15-.47.22-.57.16-1a.66.66,0,0,0-.39-.16,1.2,1.2,0,0,0-.91-.6,4.42,4.42,0,0,0-2.17.2c-.33.12-.7.26-.76.53.14.07.19.26.47.37C171.13,23.78,172.43,23.34,172.12,24.29Z"/><path d="M166.41,20.34c-.22-.14-.39-.68-.78-.73-.18,0-.55.17-.55.34s.35.24.43.44c-.37.31.12.57.2.82,0,.07-.05.15,0,.26,0,.29.25.59.15.93,0,.11-.14.17-.15.29-.05.3.08.71.06,1.13,0,.22,0,.45,0,.67s-.12.28-.14.42c0,.57.53,1,.54,1.39.3.08.38.32.7.34.71,0,.59-.84.68-1.3a1.82,1.82,0,0,0,.11-.33c0-.15-.14-.29-.17-.43s0-.42-.09-.49c.18-.27.07-.61.12-.9a4.27,4.27,0,0,0,.2-.56c0-.09,0-.2,0-.29.05-.25.33-.45.14-.7-.36-.15-.53.14-.87.09v-.29C166.79,21.05,166.44,20.85,166.41,20.34Z"/><path d="M181.76,15.87v0c-.25-.17-.42-.55-.73-.66s-.51,0-.7-.2a1.21,1.21,0,0,0,0-.3,1.47,1.47,0,0,0-.49-.23c-.08-.15-.22-.25-.17-.5-.33-.1-.2-.66-.41-.89.31-.33,0-.7,0-1.06s.24-.4.11-.66a1.09,1.09,0,0,1-.57-.64c-.25.05-.33-.24-.53-.29a1.65,1.65,0,0,0-1.28.43c-.09.65-.65.9-.57,1.58a4.07,4.07,0,0,0,.17.54c.11.31.6.45.66.79s-.15.37-.14.56.2.25.2.46-.23.3-.32.47.14.18.12.37-.35.17-.55.26-.36.33-.58.42a10,10,0,0,1-1.9.7c-.22.06-.34.29-.51.34-.33.08-.37.21-.6.32h0a5.24,5.24,0,0,0-.67.23c-.1.08-.17.24-.26.3a4.33,4.33,0,0,1-.93.43v.27c-.4.12-.45.58-1.05.49-.08.12-.22.31-.11.5-.18.23-.55.27-.62.63.81,0,.95-.67,1.69-.73.31-.43,1-.49,1.35-.89.12,0,.15,0,.26,0a1.88,1.88,0,0,1,.36-.27l0,0c.11,0,.17,0,.3,0s.07-.18.2-.2.35-.12.52-.15a3.36,3.36,0,0,1,.55,0,7.48,7.48,0,0,1,.72-.25c.42-.05.9-.05,1.29-.13s.82-.48,1.16,0a1.91,1.91,0,0,0,.15.7c0,.51-.12,1-.12,1.55,0,.21.12.45.12.66a.77.77,0,0,1-.06.3c-.08,1.06.14,2.36-.32,3.08.06,1,0,2.72-1,2.81a1.24,1.24,0,0,1-.37-.06c-.23,0-.46,0-.66,0a4.7,4.7,0,0,0-1.09-.26c-.21-.37-.94-.19-1.4-.3a.27.27,0,0,1-.16,0,.66.66,0,0,1,.16.17,2.06,2.06,0,0,1,.34.66c.6.24.89.76,1.33,1.15.72,0,.88.79,1.54.9a2.71,2.71,0,0,1,.9.17v.23a9.52,9.52,0,0,0,1.52,0c.08-.08,0-.23,0-.33.25-.32.85-.55.9-1.06s-.3-.89-.21-1.29c0-.08.13-.18.17-.29a1.86,1.86,0,0,0,0-.28c.09-.17.2-.14.2-.33s-.16-.23-.17-.4.06-.23.06-.35-.06-.2-.06-.3.07-.06.06-.14-.11-.14-.13-.23.07-.12.07-.17-.11-.32-.13-.49a1.71,1.71,0,0,1,.36-1.49c0-.11-.13-.09-.09-.23,0-1.21-.24-2.12-.14-3.38-.05-.09-.08-.18-.17-.23a3,3,0,0,1,.37-1.28c.18,0,.21-.13.4-.17.83.06,1.61-.16,1.69-1Z"/><path d="M166,3c.42.06.42.54.73.7s.48,0,.73.14.48.3.76.32.8-.28,1.22-.29c.26,0,.43.06.6-.08.79-.09,2.43.2,2.42-.62,0-.15-.16-.26-.27-.46s-.09-.27-.14-.33c-.24-.42-1.31-.6-2-.57a7.55,7.55,0,0,1-1.88.06c-.55.5-1.61.26-2.45.43C165.59,2.7,166.14,2.73,166,3Z"/><path d="M160.34,16.81a.61.61,0,0,0-.12-.15s0,0,0-.05a7.08,7.08,0,0,0-2.09-2.71s0,0,0,0c-.18.15,0,.6-.14.83a.77.77,0,0,1,.37,1.13c.11.17.28.53.12.76.3.28.23.56.23,1,0,.26.1.62.11,1a2.64,2.64,0,0,0,0,.47c0,.24.29.48.33.69a6.08,6.08,0,0,1,0,.82c0,.16-.2.31-.24.47-.07.37.07.79,0,1.19a3.51,3.51,0,0,0,.17,1.16.35.35,0,0,1-.4.17c-.21.18-.08.48-.15.79-.05.12-.16.2-.2.32s0,.23-.08.34-.17.22-.19.33c-.06.28.08.57-.2.73,0,.66-.35.88-.46,1.48.49-.08.6-.59,1-.73,0-.32.39-.58.2-.92.3-.14.2-.5.43-.72a1.05,1.05,0,0,1,0-.8c.07-.14.25-.2.3-.33.12-.34,0-.68,0-1.16a.63.63,0,0,0,.14-.43c.4-.25,0-1.33.49-1.62a3.62,3.62,0,0,1,.24-1.71,4.76,4.76,0,0,0,.26-1.37c0-.1-.16-.08-.2-.16C160.45,17.43,160.36,17,160.34,16.81Z"/><path d="M143.44,13.93a6.53,6.53,0,0,0,1-.27c.13,0,.28,0,.4-.07a1.13,1.13,0,0,0,.26-.16l.59-.1a2,2,0,0,1,.64-.25c.08,0,.33-.08.44-.1a4.11,4.11,0,0,0,.55-.11,5.35,5.35,0,0,1,.7-.2c.28-.06.41-.07.71-.11a6.67,6.67,0,0,0,.88-.13,6.55,6.55,0,0,0,1.72-.48,5.13,5.13,0,0,0,.71-.68c.06-.18-.09-.37-.06-.55-.37-.18-.53-.55-.85-.65s-.62.06-1,.1c-.2.21-.33.17-.67.42A6.83,6.83,0,0,1,148,11.71a5.54,5.54,0,0,1-.72.31c-.09,0-.55.17-.64.2s-.51.15-.76.28a1.19,1.19,0,0,0-.22.12,2,2,0,0,1-.49.22c-.33,0-.57-.07-.84,0s-.26.24-.43.31-.49.06-.76.14-.45.2-.62.17-.46-.45-.75-.24-.5.47-.41.92c.16.06.44,0,.61.07A3.83,3.83,0,0,1,143.44,13.93Z"/><path d="M137.58,13.52a15,15,0,0,1,.11,3.28c0,.17.06.4,0,.59-.07.38-.5.58-.79.71-.06.48.42.54.54.93.35,0,.6.38,1.07.26a12.57,12.57,0,0,0,.23-1.25c0-.13,0-.25,0-.39.07-.57-.1-1.29,0-1.91a7.7,7.7,0,0,0,.1-1,1.57,1.57,0,0,0-.11-.53C138.55,13.73,138.07,13.33,137.58,13.52Z"/><path d="M151.29,24.69c-.87-.23-1.12-1.08-2-1.3-.65-.76-1.67-1.11-2.29-1.87-.26-.34-.37-.81-.79-1a4.09,4.09,0,0,0,0-.62c.25-.34.64-.71,1-1.13a4.2,4.2,0,0,0,.88-1.22,1.58,1.58,0,0,0-.54-1.5c-.39-.5-.85-1.17-1.58-1-.28.36-.12.82-.2,1.26a2.1,2.1,0,0,1-.16.46c-.09.25-.21.5-.29.74a3,3,0,0,1-.51,1.12c-.48.09-.63-.28-.93-.48a12.08,12.08,0,0,0-1.3-.64,2.52,2.52,0,0,0-1.48-.35,5,5,0,0,1,1.37,1,4.12,4.12,0,0,1,.59.71c.28.39.81,1,.71,1.58a3.11,3.11,0,0,1-.75,1.16c-.5.59-1.13.83-1.44,1.47a3.31,3.31,0,0,0-1.3,1.19c-.08,0,0-.12-.14-.14-.27.5-.85.77-1.23,1.16a.84.84,0,0,0-.18.23.82.82,0,0,0-.12.25.23.23,0,0,0,.12,0l.18,0c.3-.06.42-.25.69-.37.1-.05.24-.05.34-.11.37-.2.52-.68,1.06-.68.11,0,0-.15.1-.17.24.05.31-.06.45-.14a1.82,1.82,0,0,0,.51-.34c.35-.26.6-.57.92-.82a1.32,1.32,0,0,0,.31-.12c.25-.17.5-.56.79-.82s.73-.64,1-.59.42.45.54.68a.35.35,0,0,1,0,.08c.16.23.42.4.59.65a18,18,0,0,1,.91,1.56c.9.62,1.33,1.69,2.48,2,.18.54.71.37,1.27.42.85.08,1.59.67,2.43.65a1.05,1.05,0,0,0,1,.14,2,2,0,0,0,1.2.06C154.52,26.45,152.34,26.13,151.29,24.69Z"/><path d="M143.75,11.64a9.82,9.82,0,0,0,1.78-2,.66.66,0,0,0,.12-.17,4.63,4.63,0,0,0,.59-1c.31-.62.76-1.11,1-1.73.26-.29.68-.56.62-1-.11-.8-1.29-.86-2.25-1l-.32,0c-.15.19-.39.05-.53.25a3.25,3.25,0,0,1,0,1.13c0,.17-.19.34-.25.54s0,.28-.06.4c-.08.3-.31.59-.39.9a9.86,9.86,0,0,1-.44,1.78,4.16,4.16,0,0,0-.27.47c0,.07,0,.29,0,.48C143.41,11.21,143.38,11.55,143.75,11.64Z"/><path d="M136.45,24.18c.12,0,.26,0,.37,0,.48,0,.87-.31,1.41-.23.09-.13.32-.16.54-.22a.64.64,0,0,0,.18-.06.44.44,0,0,0,.31-.37,1.54,1.54,0,0,0-.31-.75s0,0,0,0a1.14,1.14,0,0,0-.14-.11,2.32,2.32,0,0,1-.23-.14c-.59-.37-.82.06-1.47.34a7.57,7.57,0,0,1-1.21.42c-.51.11-1.45.11-1.67-.28s.05-1.14,0-1.56-.08-1.09-.06-1.64c0-1.21,0-2.34.09-3.45a.66.66,0,0,1,0-.68c-.22-.27-.06-.65-.06-1s-.11-.75-.14-1.16.06-.88,0-1.23c-.08-.5-.57-1-.2-1.51a9.29,9.29,0,0,1,1.16-.34c.25-.09.43-.31.68-.37s.63-.06.87-.17.4-.45.71-.51,1.22.11,1.38-.25-.28-.65-.52-.78-.55-.21-.78-.31c-.45-.19-.69-.33-1-.21a3,3,0,0,1-.37.08c-.22.06-.44.22-.68.31s-.53.14-.79.23c-.45.16-.84.5-1.24.62-.25.08-.57.13-.85.2a4.22,4.22,0,0,1-1.24.2c-.77,0-1.45.48-2.29.31,0,.36.36.45.65.45a.84.84,0,0,0,.14.44,3,3,0,0,0,1.3.79,1.66,1.66,0,0,0,1.19-.21c.47.17.42.72.48,1.3a7.59,7.59,0,0,1,.14,1c0,.78-.23,1.57-.2,2.39,0,.66-.17,1.33-.17,2,0,.31.06.62,0,.9s-.12.38-.14.57,0,.32,0,.48a7.83,7.83,0,0,1-.2,1,2.18,2.18,0,0,0,.11.93,4.12,4.12,0,0,0,0,.48c.06.34.29.62.23.93-.14.79-1.5.57-2.18.68-.22,0-.36.15-.56.09-.28-.65.24-1.39.34-2.24.08-.48,0-1,.11-1.47-.25-.31-.31-.87-.65-1.3-.11-.14-.32-.22-.45-.34-.32-.36-.54-.89-1-.55-.08.33.15.53.14.86a5.27,5.27,0,0,0-.14.57c0,.14.09.25.11.37a3.14,3.14,0,0,1-.17,1,7.17,7.17,0,0,0-.14.73c-.11.45-.33.85-.45,1.3s-.19.82-.34,1.22a7.87,7.87,0,0,0-.39,1.19c.43.67.7,1.61,1.55,1.72.63.08.83-.45,1.25-.65.09-.05.22-.05.34-.11s.17-.14.28-.17.31,0,.45-.06c.43-.16.79-.48,1.08-.56s.42,0,.59-.06a2.28,2.28,0,0,1,1.13-.28,10.79,10.79,0,0,1,2.54-.57A2.52,2.52,0,0,1,136.45,24.18Z"/><path d="M94.67,22.41a1.91,1.91,0,0,0-.32,0,6.89,6.89,0,0,0-1.1-.09c-.17,0-.31.14-.46.17s-.48,0-.72,0c-.54.08-1.14.42-1.45.06.46-2,1.24-3.82,1.56-5.93.11-.09.14-.26.25-.38-.06-.53.29-.67.23-1.21.28-.19.2-.74.33-1.1s.79-.31,1.24-.49a2,2,0,0,0,.68-.48c.26-.33.46-1.27-.14-1.3a2.11,2.11,0,0,0-.93-.75,1.14,1.14,0,0,0-.5-.17c-.07-.14-.27-.23-.32-.38s0-.64,0-.84A5.84,5.84,0,0,0,92.51,8a1.51,1.51,0,0,1-.91.23c-.3.23-.75.31-1,.57a10.6,10.6,0,0,0,.32,2c0,.33-.09.7.1,1-.17.18-.08.45-.1.76-.21.35-.38.72-1,.68-.62.63-1.33,1.13-1.93,1.72-.19.21-.45.37-.65.57a11.78,11.78,0,0,1-1.86,1.81v.32c-.7.27-1,.95-1.55,1.33-.14.1-.32.13-.46.24a5.35,5.35,0,0,0-.51.55c-.55.56-1.21,1-1.69,1.55-.39.08-.43.62-.94.47-.16-.44.17-1,0-1.51a5,5,0,0,0,.2-1.81c0-.43.21-.89.25-1.36,0-.21-.07-.38,0-.59s-.09-.12-.08-.23a6.31,6.31,0,0,0-.27-3.4,4.43,4.43,0,0,0-.73-.87,5.32,5.32,0,0,0-1.1-.88c-.53,0-.67-.3-1.22-.22A6.84,6.84,0,0,1,78,12.27c.08.47.18.82.23,1.2,0,.18,0,.43,0,.65a3.14,3.14,0,0,1,.09.71c0,.09-.07.2-.09.29s0,.23,0,.36a11.08,11.08,0,0,0-.33,1.68c0,.13-.17.08-.26.17s-.06.28-.25.34-.48-.07-.78-.09A6.29,6.29,0,0,1,75,16.48c0-.06-.21,0-.3,0-.2-.2-.28-.52-.59-.62,0,.25.11.27.16.36s.06.31.14.49c.49.33.32,1,.65,1.49.14.19.34.32.48.51s.18.42.32.59.22.11.3.2.14.28.23.36.37.13.45.32a2,2,0,0,0,1,.09c.05.24.38.19.51.33s-.07.49-.09.74a2,2,0,0,0,.06.26c0,.47,0,1,0,1.52a1,1,0,0,1-.86.43c-.3.24-.78.27-1,.58a2.48,2.48,0,0,0-.26.75c0,.17.2.36.29.55A6.31,6.31,0,0,1,77,27.18c.19.27.31.27.65.38.14,0,.23.14.36.17a.92.92,0,0,0,.59,0c1-.29,1.4-1.5,2.24-2A5.31,5.31,0,0,1,82,24.33c.39-.45.59-1,1.07-1.39,0-.11.09-.14.09-.27.4-.23.51-.77.91-1,0-.36.24-.47.42-.68s.19-.36.3-.48.34-.28.48-.45c.43-.51.82-1.07,1.2-1.6.41-.21.56-.66.84-1a9.35,9.35,0,0,1,1.08-1.1,6.16,6.16,0,0,1,1.55-1.08c.14-.13.17-.31.39-.31.43,0,.24.94.17,1.33-.11.55-.47,1.17-.53,1.67a16.78,16.78,0,0,1-.45,1.62c-.06.27-.08.51-.15.78s-.19.45-.24.68,0,.45,0,.65c-.07.4-.44.86-.55,1.42-.08.36-.17.54-.24.82a2.72,2.72,0,0,0-.09,1.33c0,.08.13.19.17.33.16.37.33.94.71,1a1.49,1.49,0,0,0,.45-.19c.22-.06.45-.05.71-.12a3.9,3.9,0,0,1,1.49-.2c.23,0,.46.14.73.17.07,0,.14,0,.24,0a7.73,7.73,0,0,0,1.78.14c.78-.2.92-.84,1-1.72,0-.17-.19-.15-.16-.35s0,.15.19.12c0-.42.26-.65.2-1S94.94,22.46,94.67,22.41Z"/><path d="M108.42,3.74l.25-.1C108.58,3.59,108.5,3.61,108.42,3.74Z"/><path d="M122.19,6a16.54,16.54,0,0,1-2.58.39c-1.07-.74-2.32.41-3.55.57-1.23.58-2.45,1.34-3.44.63.4-1.89-.07-1.8-.92-3.33a3.45,3.45,0,0,0-3-.57,3.87,3.87,0,0,1,.63,1.68c.17,1,.11,2.46-.48,2.22a1.26,1.26,0,0,0,.5.68,1.9,1.9,0,0,1,.7-.09.5.5,0,0,1-.7.09,15.47,15.47,0,0,0-2.11,1.16c-1,.37-2,1.19-3,1.15-1-.29-2,.38-3,.2.07,1.85.66,2.44,1.51,2.42.85-.32,2-.15,3.08-1.22,1.07-.53,2.2-1.07,3.37-1.68,1.16,0,2.37-1.76,3.58-1.43s2.44-.76,3.64-.69a27.58,27.58,0,0,0-2.54,1.67,6.47,6.47,0,0,1-3.45.33v1.2a9.81,9.81,0,0,1-1.48.66c-.5,1-1,.7-1.32,1.14-.23-.59-.46-.38-.7.9-.23,1.73-.46.59-.67,1.94a6.66,6.66,0,0,0-.55,1.85,11.5,11.5,0,0,0-.32,1.85,6.6,6.6,0,0,0,0,1.64c.07,1,.21.36.43,1.21,1.31-.41,2-.82,2.64-2.71.64-.89,1.24-2.46,2.36-2.48a18.58,18.58,0,0,1-.07,3.89c0,.36-.1.81-.16,1.29s-.12,1-.18,1.46a10.47,10.47,0,0,1-.17,1.18,5.05,5.05,0,0,0-.13,1.07,3.91,3.91,0,0,0,0,.62c0,.08,0,.59,0,.6,0,.21,0,.43,0,.67a4.75,4.75,0,0,0,0,.6,2.29,2.29,0,0,1,.15.54,5.19,5.19,0,0,1,.31.91,6.3,6.3,0,0,1,.49,1.36c.33-.24.59-.73.8-.74a1.33,1.33,0,0,0,.47-.86c0-.38.1-.39.13-.62,0,.05.07-.3.09-.83,0-.19,0-.32,0-.5s0-.41,0-.79,0-.56,0-1.06,0-.95-.07-1c0-.34,0-.64-.08-1.27s0-1.14-.05-1.6a5.87,5.87,0,0,1,.3-2.68c.22.88.53.8.85,1.24.32.21.66-.13,1,1.15,1.67,1,2.68-.41,3.29-1.28.62.05.83-2.58.92-3.74.05-.73.07-1.69.08-2,0-.64,0-1.28.1-2a4.13,4.13,0,0,0-1.58-.74,2.11,2.11,0,0,0-1.61.31c-.53.21-1.06.28-1.56.48a1.36,1.36,0,0,0-1.32.4,3.54,3.54,0,0,0,.08-1.25c0-.22,0-1.31.2-1.4,1.24-.78,2.49-.25,3.72-.78a4.29,4.29,0,0,1,3.67-1c.72.33,1.61,0,2.33-.15S124,8.38,124,7.54C124,6.35,123.17,6,122.19,6ZM111.05,13.1c0,1.21-.2.74-.23,2a1.48,1.48,0,0,0-1.42.87c-.49,1-1,.86-1.38.93a4.07,4.07,0,0,1,.07-1.35c.09-1,.26-.68.48-1.75.22.19.49-.88.81-1.1.31.29.66-.83,1-1.2C111,11.45,111.08,11.69,111.05,13.1Zm2.79,2.05a7.74,7.74,0,0,1,1.78-.42,6.69,6.69,0,0,1,.3,1.93,6.24,6.24,0,0,1-.51,1.54c-.3.39-.71,1.4-1.21.75-.51-.92-1.11.47-1.78-.42a18.8,18.8,0,0,0,0-2.6C112.83,15.88,113.31,15.31,113.84,15.15Z"/><path d="M49,5.07a3.45,3.45,0,0,0,.19.34,5,5,0,0,1,.4.88A4.7,4.7,0,0,1,49.8,7a3.18,3.18,0,0,0,.13.55A7.61,7.61,0,0,1,50,8.8a4.69,4.69,0,0,1-.12,1.12l-.07.51.52,0c.4,0,.83-.05,1.29-.1A10.17,10.17,0,0,0,53.09,10a3,3,0,0,0,1.45-.52,1.68,1.68,0,0,0,.77-.6,2.16,2.16,0,0,1,.25-.26l.37-.11-.11-.37a2.25,2.25,0,0,0-.51-.94A.93.93,0,0,0,54.43,7l-.19.09-.08.1-.13,0a1,1,0,0,0-.75.15l-.14.07L53,7.41l-.1,0a.86.86,0,0,0-.57.33.7.7,0,0,1-.14.15l-.14,0a.7.7,0,0,0-.33.07.36.36,0,0,0-.12-.08,1.87,1.87,0,0,1,.29-.59L52,7.16A4.72,4.72,0,0,0,52.66,6l.08-.39a3,3,0,0,0,.08-1.22V4.24l-.11-.1a1.46,1.46,0,0,0-.49-.28,1.2,1.2,0,0,1-.41-.23,1.86,1.86,0,0,0-1.35-.72l-.19-.09a.88.88,0,0,0-1.12,0,1.65,1.65,0,0,0-.93,1l-.06.32.24.17A1.5,1.5,0,0,1,49,5.07Z"/><path d="M69.36,13.93l1.07-.46c.38-.17.75-.35,1.1-.54l.21-.11V11.51l-.2-.11A4.62,4.62,0,0,0,70,10.82a5.37,5.37,0,0,0-1.45,0,1.36,1.36,0,0,0-1.11.22,2.11,2.11,0,0,1-.41.17l-.13,0a10.41,10.41,0,0,1-1.08.5l-.22.1a2.54,2.54,0,0,0-.89.47c-.19.14-.39.28-.45.31a2.24,2.24,0,0,0-1.11.55,3.73,3.73,0,0,1-.43.3,12.36,12.36,0,0,1-2.17,1,3.46,3.46,0,0,0-1.09-1.9,4.94,4.94,0,0,1-.52-.61,2.88,2.88,0,0,1,.43-.43,11.05,11.05,0,0,1,1-.72l.11-.11a1.1,1.1,0,0,1,.89-.62l.11,0a3.87,3.87,0,0,0,1.07-.74l.16-.14A2.86,2.86,0,0,0,63.73,8.1a3.06,3.06,0,0,0,.48-1,2,2,0,0,0,0-.74,1.33,1.33,0,0,0-.12-.45A.8.8,0,0,1,64,5.6a1.22,1.22,0,0,0-.33-.69l-.07-.1a3.58,3.58,0,0,0-.45-.55,1.05,1.05,0,0,0-.64-.58,1,1,0,0,0-.82.21L61.56,4l0,.14a2.14,2.14,0,0,1-.18.52,5.8,5.8,0,0,0-.21.71,1.52,1.52,0,0,0-.26.62,1.23,1.23,0,0,0-.21.46.84.84,0,0,1-.07.19,1.92,1.92,0,0,0-.18.32c0,.06-.06.12-.12.22-.23.14-.32.33-.39.74a2.21,2.21,0,0,1-.16.42,1.24,1.24,0,0,0-.49.61L58.55,10a21.46,21.46,0,0,0-1.3,2.39l-.08.16.08.16A8.94,8.94,0,0,1,58,15.29a12.65,12.65,0,0,1,.14,1.42c0,.61,0,1,0,1.49A10.51,10.51,0,0,1,58,19.65c0,.11,0,.36-.08.62a8.52,8.52,0,0,1-.11.9,8.22,8.22,0,0,1-.24,1.37c-.09.45-.19.88-.29,1.28s-.2.78-.3,1.12a1.48,1.48,0,0,1-.37.24c-.28.15-.62.33-.69.69a1,1,0,0,0,.28.74l.1.11h.15c1.37.11,2.36-.73,2.91-2.49a11.87,11.87,0,0,0,.36-1.61c0-.22.06-.4.08-.57.06-.35.1-.65.14-1.15,0-.29.08-.77.12-1.24l0-.56c0-.47.11-1,.17-1.72,0-.41.1-.77.16-1.09a9.71,9.71,0,0,0,2.38.11h.35a2,2,0,0,1,.35,0l.32,0v.43l0,2.51a9.72,9.72,0,0,0,0,1h0v2.11c0,.14,0,.26,0,.36v0h0v0h0l0,1.36h0c0,.06,0,.11,0,.16v0h0v0c0,.07,0,.17,0,.31v.57c0,.31,0,.53,0,.7a7.14,7.14,0,0,0,0,.75c0,1,0,1.24.06,1.3,0,.27,0,.53,0,.77a.8.8,0,0,0-.41.29.7.7,0,0,1-.38,0L62.52,29l.31.72c.08.17.15.34.22.52.35.91.79,2,2.28,2.07h.3l.08-.29c.19-.72.37-1.56.53-2.42l.1-.51a2.52,2.52,0,0,0,.13-.9l0-.16c.11-.12.12-.37.13-.77a3.31,3.31,0,0,0,0-.34v-.2a.58.58,0,0,0,0-.1,2,2,0,0,0,.06-.56V26a1.42,1.42,0,0,0,0-.36v-.05l0-.4c0-.41,0-.51,0-.59v-.19c0-.13,0-.2,0-.24a3.21,3.21,0,0,0,0-.52V22.48a2.91,2.91,0,0,0,0-.3h0V21.9c0-.2,0-.47,0-.58h0V21a2.87,2.87,0,0,0,0-.5v-.07a1.35,1.35,0,0,0-.07-.41,2.39,2.39,0,0,1,0-.33h0c0-.08,0-.29,0-.51s0-.5-.15-.63,0-.05,0-.07a3.41,3.41,0,0,0-.16-.68l-.12-.38a5,5,0,0,0-.17-.54,2.27,2.27,0,0,0-.36-.61,2.44,2.44,0,0,1-.19-.32c0-.09-.1-.18-.16-.27l.12-.1a3.15,3.15,0,0,1,.26-.2l.23.05.15-.19a.85.85,0,0,1,.7-.37,1.06,1.06,0,0,0,.92-.29,1.58,1.58,0,0,1,.26-.17l.13,0,.12-.06a1,1,0,0,1,.33-.09A1.55,1.55,0,0,0,69.36,13.93Z"/><path d="M46.08,11.85a2.75,2.75,0,0,0,.76-.13c1-.3,2.45-1.3,2.32-2l-.09-.49-.45.21a13.48,13.48,0,0,1-2.47.76L45,10.5l-.42.12.17.4A1.33,1.33,0,0,0,46.08,11.85Z"/><path d="M56.26,23.84a2.24,2.24,0,0,0-.3-1.65,1.41,1.41,0,0,0-1.32-.83,3,3,0,0,1-.43-.16,2.25,2.25,0,0,0-.9-.22,1.26,1.26,0,0,1-.7-.35V19.47l.11-.07c.13-.09.29-.23.4-.21h.11a4.74,4.74,0,0,1,.87-.09h.13a5.92,5.92,0,0,0,1-.15,1.34,1.34,0,0,0,1.15-.77l.13-.21-.13-.21a2.08,2.08,0,0,0-1.15-.89,2.8,2.8,0,0,0-1.32.08l-.74.21-.51.16a3,3,0,0,1-1.08.15H51.5c-.1,0-.27-.1-.42-.21a1.94,1.94,0,0,1,.61-.32c.26-.14.54-.27.82-.4l.33-.15a4.26,4.26,0,0,0,2.09-1.68L55,14.5l-.14-.2a1.36,1.36,0,0,0-1.66-.52,5.07,5.07,0,0,0,1.27-1.67l.24-.53h-.4a.75.75,0,0,0,0-.16l-.09-.16c-1.67-1.72-3-.71-4.08.11s-1.77,1.33-2.88.68l-.39-.22-.16.42a2.51,2.51,0,0,0-.13,1.38,2,2,0,0,0,.76,1.21,2.5,2.5,0,0,0,.94.23l.44.06.18,0L49,15a6.42,6.42,0,0,0,.81-.83c.37-.43.71-.9,1-1.35.14-.18.27-.37.41-.56a3.32,3.32,0,0,1-1,2.06,2.57,2.57,0,0,1-.37.28,3.94,3.94,0,0,0-.72.6.54.54,0,0,1-.48.29,1.41,1.41,0,0,0-.59.19l-.34.14a2,2,0,0,1-.92.26h-.16l-.12.12c-.17.16-.31.14-.63.1a1.78,1.78,0,0,0-.66,0l-.34.07,0,.33a1.56,1.56,0,0,0,.8,1.36l.1,0a1.82,1.82,0,0,0,1.3.18c.15,0,.29,0,.44-.06a1.64,1.64,0,0,1,.76,0h.12a2.21,2.21,0,0,0,.37,0c.34,0,.37,0,.45.08l.06.1.12,0a.7.7,0,0,1,.2.44,1.18,1.18,0,0,0-.19.11,1.29,1.29,0,0,1-.62.26l-.18,0-.14.11a1.5,1.5,0,0,1-1,.45h-.19l-.13.13a1.29,1.29,0,0,1-1,.41l-.12,0-1.29.51a34.43,34.43,0,0,1-4.06,1.32l-.29.08v.74l.2.11a4.88,4.88,0,0,0,5.11-.2l.07.55a1,1,0,0,1-.09.33c0,.12-.08.25-.1.36a3.36,3.36,0,0,0-.26,1.45,1.38,1.38,0,0,0,1,1.21c.65.08,1-.59,1.14-.8s.17-.31.25-.48A3.34,3.34,0,0,1,48,25l.08-.07a3.23,3.23,0,0,0,.38-.7,5.64,5.64,0,0,1,.28-.55,4.6,4.6,0,0,1,.72-1,2.79,2.79,0,0,1,.46-.33v3.14s-.11,0-.23,0a2.32,2.32,0,0,0-.38-.07,1.38,1.38,0,0,1-.2,0,.91.91,0,0,0-1.06.31l-.16.23.17.23a9.46,9.46,0,0,0,.87,1l.29.29.12.09a1.64,1.64,0,0,0,.84.33.82.82,0,0,0,.6-.27,2.53,2.53,0,0,0,1-.87,5.74,5.74,0,0,0,.72-1.49c0-.21.1-.35.14-.48a3.86,3.86,0,0,0,.22-1.23,5.42,5.42,0,0,0,.06-1.11l.19.13.12.11a4.12,4.12,0,0,0,.62.5l.07.08c.22.25.51.59.89.59a1.69,1.69,0,0,0,1.16.37l.27,0Zm-6.34-2.9c-.31.17-.58.36-.82.52l-.38.28-.52.37a5.38,5.38,0,0,1-.93.53l-.11.07a.77.77,0,0,1-.83.26l-.52-.17c.45-.25.89-.54,1.32-.82l.6-.39a4.78,4.78,0,0,1,.45-.23,4,4,0,0,0,.78-.45l.93-.32s0,0,0,.06A.75.75,0,0,1,49.92,20.94Z"/><path d="M48.45,36.44v.32l.53.05a.1.1,0,0,1,.08.06,1.45,1.45,0,0,1,.06.45c0,.42,0,.91,0,1.47v1.5q-.53-.57-1.26-1.44c-.73-.86-1.39-1.67-2-2.41l-.72,0-.87,0v.32a2,2,0,0,1,.57.08.16.16,0,0,1,.07.09,3.12,3.12,0,0,1,0,.73v1.6c0,.3,0,.76,0,1.36a2.72,2.72,0,0,1-.05.64.21.21,0,0,1-.08.1,1.78,1.78,0,0,1-.54.06v.32l.94,0,.87,0v-.32a2.62,2.62,0,0,1-.55-.07.18.18,0,0,1,0-.07,2.7,2.7,0,0,1-.05-.71c0-.57,0-1,0-1.45V37.65c.28.38.65.84,1.12,1.39q1.38,1.62,2.34,2.7l.65.11,0-.05c0-.41,0-.82,0-1.23V39.05l0-1.51a2.92,2.92,0,0,1,0-.58.19.19,0,0,1,0-.09l.08,0a1.75,1.75,0,0,1,.51-.06v-.32l-1,0Z"/><path d="M54,38.06a1.56,1.56,0,0,0-.74.18,4.76,4.76,0,0,0-.6.36,1.12,1.12,0,0,0-.37.49,2.6,2.6,0,0,0-.14.91,1.82,1.82,0,0,0,.48,1.34,1.71,1.71,0,0,0,1.29.48,2.41,2.41,0,0,0,.67-.09,2.12,2.12,0,0,0,.58-.25l.17-.36L55.27,41a1.9,1.9,0,0,1-.42.18,1.55,1.55,0,0,1-.43.07,1.14,1.14,0,0,1-.84-.33,1.55,1.55,0,0,1-.39-1h1.65l.62-.12c0-.13,0-.22,0-.29a1.38,1.38,0,0,0-.4-1.11A1.53,1.53,0,0,0,54,38.06Zm.43,1.48-.62,0c-.23,0-.46,0-.68,0a2.56,2.56,0,0,1,.11-.69.6.6,0,0,1,.21-.28.61.61,0,0,1,.36-.1.55.55,0,0,1,.46.22,1.11,1.11,0,0,1,.17.68Z"/><path d="M61.89,38.15v.31a1.74,1.74,0,0,1,.47,0,.12.12,0,0,1,.08.12,5.45,5.45,0,0,1-.26.9l-.33,1c-.55-1.19-.9-2-1.07-2.5h-.4c-.07.17-.19.45-.36.83l-.75,1.67-.37-1.36c-.09-.35-.14-.54-.14-.57a.11.11,0,0,1,.05-.1.47.47,0,0,1,.25,0h.25v-.31l-.94,0-1.18,0v.31a1.23,1.23,0,0,1,.43.06.24.24,0,0,1,.08.09c0,.07.17.5.39,1.28s.39,1.39.5,1.85h.62c.27-.69.63-1.49,1.06-2.38.41.87.75,1.66,1,2.38h.62c.19-.64.38-1.23.57-1.79.27-.76.44-1.21.51-1.34a.3.3,0,0,1,.09-.1.84.84,0,0,1,.36,0v-.31l-.73,0Z"/><path d="M70.8,36.5q-1.12,0-2.31-.06l0,0a12,12,0,0,1,0,1.25h.33c0-.41,0-.64.06-.67a.1.1,0,0,1,0-.06.61.61,0,0,1,.25,0q.38,0,.9,0,.25,0,.27,0s0,.52,0,1.52c0,.51,0,1,0,1.5,0,.69,0,1.08,0,1.19a.27.27,0,0,1-.07.16.26.26,0,0,1-.15.06,2.42,2.42,0,0,1-.45,0v.32c.34,0,.78,0,1.33,0s.81,0,1.18,0v-.32a2.45,2.45,0,0,1-.6-.08s-.07-.13-.09-.3,0-.62,0-1.36l0-2.54a.82.82,0,0,1,0-.2.14.14,0,0,1,.09,0,9.68,9.68,0,0,1,1.2,0q.1,0,.12.06a2.61,2.61,0,0,1,.07.69h.32c0-.47,0-.87.1-1.22l0-.06Q71.93,36.5,70.8,36.5Z"/><path d="M78.1,41.27a3.07,3.07,0,0,1,0-.58c0-.2,0-.46,0-.79s0-.54,0-.66a1.39,1.39,0,0,0-.13-.68.88.88,0,0,0-.4-.36,1.69,1.69,0,0,0-.73-.14,1.64,1.64,0,0,0-.51.07,5.27,5.27,0,0,0-.84.45v.49l.27.06.17-.4a.9.9,0,0,1,.21-.08.93.93,0,0,1,.85.25,1.19,1.19,0,0,1,.16.65,4.4,4.4,0,0,0-1.7.54,1,1,0,0,0-.3.8,1,1,0,0,0,.22.69.78.78,0,0,0,.61.24,1.89,1.89,0,0,0,.38,0l.79-.59,0,.52,0,0c.21,0,.43,0,.67,0h.75v-.31a1.49,1.49,0,0,1-.4-.07A.13.13,0,0,1,78.1,41.27Zm-.95-.47a.87.87,0,0,1-.61.34.49.49,0,0,1-.33-.13.54.54,0,0,1-.13-.37.56.56,0,0,1,.2-.45,2.22,2.22,0,0,1,.87-.31Z"/><path d="M81.94,41.21a8.4,8.4,0,0,1,0-1q0-1.38.06-2.1l-.1-.08a4.77,4.77,0,0,1-1.5.33v.29h.29c.14,0,.22,0,.25.06A.45.45,0,0,1,81,39v.44c0,.2,0,.42,0,.65q0,.82,0,1a.3.3,0,0,1-.08.22,2.18,2.18,0,0,1-.5,0v.31l1.08,0c.25,0,.6,0,1,0v-.31a1.89,1.89,0,0,1-.49-.07S82,41.29,81.94,41.21Z"/><path d="M81.84,37.26a.57.57,0,0,0,.17-.41.57.57,0,0,0-.17-.42.59.59,0,0,0-.42-.17.57.57,0,0,0-.41.17.54.54,0,0,0-.17.42.58.58,0,0,0,.58.58A.57.57,0,0,0,81.84,37.26Z"/><path d="M87.09,38.08a1,1,0,0,0-.64.16l-.61.48v-.34c0-.09,0-.16,0-.21s0-.09,0-.09l-.41.13a5.56,5.56,0,0,1-1.09.17v.3a2,2,0,0,1,.48,0,.22.22,0,0,1,.06.07,4.17,4.17,0,0,1,0,.76V41c0,.31,0,.78,0,1.42a3.83,3.83,0,0,1-.05.78.13.13,0,0,1,0,.07,1.86,1.86,0,0,1-.46,0v.31q.33,0,1.17,0l1,0v-.31a1.26,1.26,0,0,1-.56-.07.93.93,0,0,1-.09-.49V41.65a1.51,1.51,0,0,0,.33.13,2.09,2.09,0,0,0,.34,0,1,1,0,0,0,.52-.13,8.14,8.14,0,0,0,.68-.52,2,2,0,0,0,.46-.45,1.69,1.69,0,0,0,.23-.52,2.07,2.07,0,0,0,.1-.66,1.44,1.44,0,0,0-.39-1.06A1.32,1.32,0,0,0,87.09,38.08ZM87.28,41a.77.77,0,0,1-.64.33.89.89,0,0,1-.43-.11,1,1,0,0,1-.37-.33V39.1a1.58,1.58,0,0,1,.39-.28,1,1,0,0,1,.4-.1.81.81,0,0,1,.64.31,1.41,1.41,0,0,1,.25.91A1.9,1.9,0,0,1,87.28,41Z"/><path d="M92.37,38.06a1.53,1.53,0,0,0-.74.18,4.13,4.13,0,0,0-.6.36,1.05,1.05,0,0,0-.37.49,2.6,2.6,0,0,0-.14.91A1.85,1.85,0,0,0,91,41.34a1.75,1.75,0,0,0,1.3.48,2.29,2.29,0,0,0,.66-.09,2.06,2.06,0,0,0,.59-.25l.17-.36L93.6,41a1.9,1.9,0,0,1-.42.18,1.55,1.55,0,0,1-.43.07,1.14,1.14,0,0,1-.84-.33,1.45,1.45,0,0,1-.39-1h1.64l.62-.12c0-.13,0-.22,0-.29a1.38,1.38,0,0,0-.41-1.11A1.52,1.52,0,0,0,92.37,38.06Zm.43,1.48-.63,0-.68,0a3.77,3.77,0,0,1,.11-.69.62.62,0,0,1,.22-.28.6.6,0,0,1,.35-.1.53.53,0,0,1,.46.22,1,1,0,0,1,.17.68Z"/><path d="M96.77,37.43a.58.58,0,0,0,.59-.58.57.57,0,0,0-.17-.42.59.59,0,0,0-.42-.17.57.57,0,0,0-.41.17.54.54,0,0,0-.18.42.54.54,0,0,0,.18.41A.53.53,0,0,0,96.77,37.43Z"/><path d="M97.29,41.21a8.4,8.4,0,0,1,0-1q0-1.38.06-2.1l-.1-.08a4.77,4.77,0,0,1-1.5.33v.29H96c.14,0,.22,0,.25.06a.45.45,0,0,1,0,.27v.44c0,.2,0,.42,0,.65q0,.82,0,1a.3.3,0,0,1-.08.22,2.18,2.18,0,0,1-.5,0v.31l1.08,0c.25,0,.6,0,1,0v-.31a1.89,1.89,0,0,1-.49-.07S97.3,41.29,97.29,41.21Z"/><path d="M106.22,36.81a2.5,2.5,0,0,1,.69.09,1.37,1.37,0,0,1,.5.23c.13.09.2.16.21.2a4.43,4.43,0,0,1,0,.65H108c0-.32,0-.59.08-.81a1.86,1.86,0,0,1,.1-.39l0-.06a5.39,5.39,0,0,0-.95-.27,6.22,6.22,0,0,0-1-.08,3.3,3.3,0,0,0-2.3.75,2.46,2.46,0,0,0-.84,1.92,2.87,2.87,0,0,0,.37,1.45,2.55,2.55,0,0,0,1,1,3.73,3.73,0,0,0,1.68.34,4.31,4.31,0,0,0,.93-.09,3.62,3.62,0,0,0,.85-.33c.05-.13.11-.26.17-.38l-.09-.09a3.78,3.78,0,0,1-.78.29,3,3,0,0,1-.75.08,2.1,2.1,0,0,1-1.62-.62,2.41,2.41,0,0,1-.65-1.75,2.13,2.13,0,0,1,.54-1.55A1.89,1.89,0,0,1,106.22,36.81Z"/><path d="M111.46,37.26a.54.54,0,0,0,.18-.41.54.54,0,0,0-.18-.42.57.57,0,0,0-.41-.17.61.61,0,0,0-.42.17.57.57,0,0,0-.17.42.58.58,0,0,0,.59.58A.53.53,0,0,0,111.46,37.26Z"/><path d="M111.56,41.21c0-.11,0-.43,0-1,0-.92,0-1.62,0-2.1l-.09-.08a4.77,4.77,0,0,1-1.5.33v.29h.28c.14,0,.23,0,.26.06a.45.45,0,0,1,0,.27v.44c0,.2,0,.42,0,.65q0,.82,0,1c0,.12,0,.19-.09.22a2.06,2.06,0,0,1-.49,0v.31l1.07,0c.25,0,.6,0,1.06,0v-.31a2,2,0,0,1-.5-.07S111.58,41.29,111.56,41.21Z"/><path d="M115.6,38.4a2,2,0,0,1-.34,0c0-.61.06-1.1.11-1.47l-.11-.08a6,6,0,0,1-1,.38c0,.34,0,.73,0,1.17l-.5.33v.2a1.84,1.84,0,0,1,.31,0h.19c0,.27,0,.62,0,1.07s0,.84,0,1a1,1,0,0,0,.1.52.71.71,0,0,0,.31.28,1.19,1.19,0,0,0,.53.11h.22l.25,0,.44-.52-.06-.15a1.66,1.66,0,0,1-.21.06l-.18,0a.34.34,0,0,1-.35-.18,6.6,6.6,0,0,1-.08-1.44c0-.2,0-.42,0-.68h.3l.65,0a3.39,3.39,0,0,1,.08-.39l0-.14,0,0A3.6,3.6,0,0,1,115.6,38.4Z"/><path d="M120.66,38.16h-.24v.31a1.76,1.76,0,0,1,.41,0,.12.12,0,0,1,.07.11,6.53,6.53,0,0,1-.48,1.28l-.35.82-.41-1a6.62,6.62,0,0,1-.37-1,.11.11,0,0,1,.07-.12,1.19,1.19,0,0,1,.41,0v-.31l-.94,0-1.11,0v.31a1.06,1.06,0,0,1,.38.06.37.37,0,0,1,.13.19l.46,1.14.85,2.14a3.89,3.89,0,0,1-.51.94.56.56,0,0,1-.41.16.69.69,0,0,1-.52-.24l-.1,0a6.6,6.6,0,0,1-.13.73,1.34,1.34,0,0,0,1,0,1.2,1.2,0,0,0,.38-.28,2.46,2.46,0,0,0,.4-.64l.65-1.48.7-1.61c.28-.64.44-1,.48-1a.2.2,0,0,1,.09-.09.81.81,0,0,1,.3,0v-.31l-.71,0Z"/><path d="M130.5,39.57v.31a2.94,2.94,0,0,1,.81.1,1.65,1.65,0,0,1,.06.64,5.55,5.55,0,0,1,0,.56,2.58,2.58,0,0,1-1,.23,2,2,0,0,1-1.5-.67,2.54,2.54,0,0,1-.6-1.76,2.26,2.26,0,0,1,.57-1.62,2.08,2.08,0,0,1,1.55-.58,2.67,2.67,0,0,1,.9.13,1.62,1.62,0,0,1,.62.42,4.06,4.06,0,0,1,.05.64h.32a7.65,7.65,0,0,1,.16-1.19l0-.06a4.94,4.94,0,0,0-1-.27,7.23,7.23,0,0,0-1.06-.08,3.57,3.57,0,0,0-2.42.74,2.53,2.53,0,0,0-.84,2,2.55,2.55,0,0,0,.82,2,3.29,3.29,0,0,0,2.29.75,5.83,5.83,0,0,0,1-.09,7.75,7.75,0,0,0,1.25-.37c0-.38,0-.63,0-.76a5.6,5.6,0,0,1,0-.65,2.08,2.08,0,0,1,.32-.12v-.25c-.38,0-.74,0-1.07,0S131,39.59,130.5,39.57Z"/><path d="M136.74,38.06a1.68,1.68,0,0,0-1.87,1.88,1.94,1.94,0,0,0,.46,1.4,1.75,1.75,0,0,0,1.33.48,1.81,1.81,0,0,0,1.39-.52,2,2,0,0,0,.5-1.46,1.84,1.84,0,0,0-.43-1.35A1.93,1.93,0,0,0,136.74,38.06Zm.58,3.11a.64.64,0,0,1-.55.28.67.67,0,0,1-.6-.33,3,3,0,0,1-.25-1.44,1.67,1.67,0,0,1,.2-1,.64.64,0,0,1,.55-.29.67.67,0,0,1,.6.31,2.91,2.91,0,0,1,.24,1.41A2,2,0,0,1,137.32,41.17Z"/><path d="M142.92,38.15v.31a1.84,1.84,0,0,1,.43,0,.11.11,0,0,1,.06.11,4.52,4.52,0,0,1-.34,1l-.49,1.15-.51-1.3-.22-.63a.65.65,0,0,1,0-.18.1.1,0,0,1,.07-.1,1.31,1.31,0,0,1,.41,0v-.31l-1,0-1,0v.31a.88.88,0,0,1,.34.06.57.57,0,0,1,.14.21c.08.17.22.52.44,1.07.34.84.59,1.48.75,1.94h.67c.44-1.06.78-1.85,1-2.36a6,6,0,0,1,.43-.85.73.73,0,0,1,.38-.07v-.31l-.72,0Z"/><path d="M148.1,38.06a1.53,1.53,0,0,0-.74.18,4.13,4.13,0,0,0-.6.36,1.05,1.05,0,0,0-.37.49,2.38,2.38,0,0,0-.14.91,1.81,1.81,0,0,0,.47,1.34,1.75,1.75,0,0,0,1.3.48,2.39,2.39,0,0,0,.66-.09,2.18,2.18,0,0,0,.59-.25l.17-.36-.11-.11a1.9,1.9,0,0,1-.42.18,1.61,1.61,0,0,1-.43.07,1.18,1.18,0,0,1-.85-.33,1.55,1.55,0,0,1-.39-1h1.65l.62-.12c0-.13,0-.22,0-.29a1.38,1.38,0,0,0-.41-1.11A1.52,1.52,0,0,0,148.1,38.06Zm.43,1.48-.63,0-.68,0a3,3,0,0,1,.11-.69.62.62,0,0,1,.22-.28.6.6,0,0,1,.35-.1.53.53,0,0,1,.46.22,1,1,0,0,1,.17.68Z"/><path d="M153.54,38.13a1,1,0,0,0-.31.27,4.15,4.15,0,0,1-.42.47c0-.3,0-.52,0-.68v0s0-.08,0-.08l-.39.15a5.86,5.86,0,0,1-1.09.18v.29a2,2,0,0,1,.49,0,.2.2,0,0,1,.06.14,9.29,9.29,0,0,1,0,1c0,.31,0,.64,0,1a1,1,0,0,1,0,.4.12.12,0,0,1-.07.07,1.63,1.63,0,0,1-.44,0v.31h2.2v-.31a1.77,1.77,0,0,1-.57-.08.19.19,0,0,1-.07-.14,10.71,10.71,0,0,1,0-1.12,5,5,0,0,1,0-.77.46.46,0,0,1,.21-.27.65.65,0,0,1,.39-.12.54.54,0,0,1,.27.06.61.61,0,0,1,.19.2l.17-.06c0-.43,0-.77,0-1a1.18,1.18,0,0,0-.25,0A.66.66,0,0,0,153.54,38.13Z"/><path d="M159.71,41.28a.94.94,0,0,1,0-.35c0-.3,0-.65,0-1.06,0-.2,0-.38,0-.53a1.85,1.85,0,0,0-.12-.76.85.85,0,0,0-.37-.38,1.4,1.4,0,0,0-.66-.14,1.56,1.56,0,0,0-.4,0,.54.54,0,0,0-.23.13l-.58.49c0-.29,0-.48,0-.55v0c0-.06,0-.09,0-.09l-.1,0a5.68,5.68,0,0,1-.73.2,3.5,3.5,0,0,1-.64.09v.29l.45,0a.09.09,0,0,1,.06,0,1.44,1.44,0,0,1,0,.25c0,.23,0,.5,0,.82,0,.64,0,1.09,0,1.35a.32.32,0,0,1-.06.19,1.44,1.44,0,0,1-.47.07v.31c.48,0,.8,0,1,0s.67,0,1.11,0v-.31a1.27,1.27,0,0,1-.5-.08s-.06-.11-.07-.24,0-.66,0-1.57a1.34,1.34,0,0,1,0-.39.61.61,0,0,1,.24-.28.85.85,0,0,1,.45-.13.57.57,0,0,1,.55.29,3.33,3.33,0,0,1,.12,1.18,11.86,11.86,0,0,1-.1,1.48l0,.05.78,0h.3l.46,0v-.31a1.62,1.62,0,0,1-.41-.06A.13.13,0,0,1,159.71,41.28Z"/><path d="M168,41.25a5,5,0,0,1,0-.7c0-.28,0-.59,0-.93V39.3a1.33,1.33,0,0,0-.28-.95,1.18,1.18,0,0,0-.87-.29.81.81,0,0,0-.52.15l-.64.51a1,1,0,0,0-.36-.5,1.22,1.22,0,0,0-.65-.16,1,1,0,0,0-.59.15l-.62.47v-.14a.92.92,0,0,1,0-.19c0-.08,0-.14,0-.19s0-.1-.06-.1l-.08,0a3.76,3.76,0,0,1-.59.18,6.19,6.19,0,0,1-.79.13v.29h.24c.16,0,.25,0,.27.1s0,.61,0,1.58a7.63,7.63,0,0,1,0,.88.19.19,0,0,1-.07.13,1.56,1.56,0,0,1-.44,0v.31l1,0c.36,0,.69,0,1,0v-.31a1.41,1.41,0,0,1-.41-.07.14.14,0,0,1-.07-.11c0-.08,0-.33,0-.76V40a5.66,5.66,0,0,0,0-.59V39.3a.43.43,0,0,1,.06-.26.77.77,0,0,1,.26-.25.67.67,0,0,1,.34-.09.63.63,0,0,1,.41.12.56.56,0,0,1,.18.36,9.33,9.33,0,0,1,0,1.19,3,3,0,0,1-.07,1c0,.07-.18.11-.43.11v.31c.31,0,.67,0,1.06,0s.64,0,1,0v-.31a1.4,1.4,0,0,1-.48-.08s-.06-.1-.07-.22,0-.71,0-1.38a3.4,3.4,0,0,1,0-.66.61.61,0,0,1,.24-.27.71.71,0,0,1,.41-.12.54.54,0,0,1,.5.23,2.68,2.68,0,0,1,.14,1.15,14.39,14.39,0,0,1-.09,1.59l0,.07c.24,0,.48,0,.7,0s.51,0,.82,0v-.31a1.75,1.75,0,0,1-.42-.06A.18.18,0,0,1,168,41.25Z"/><path d="M172.15,38.06a1.56,1.56,0,0,0-.74.18,5.6,5.6,0,0,0-.6.36,1.12,1.12,0,0,0-.37.49,2.6,2.6,0,0,0-.14.91,1.82,1.82,0,0,0,.48,1.34,1.74,1.74,0,0,0,1.3.48,2.39,2.39,0,0,0,.66-.09,2,2,0,0,0,.58-.25l.17-.36-.11-.11a1.9,1.9,0,0,1-.42.18,1.54,1.54,0,0,1-.42.07,1.15,1.15,0,0,1-.85-.33,1.55,1.55,0,0,1-.39-1H173l.62-.12c0-.13,0-.22,0-.29a1.38,1.38,0,0,0-.4-1.11A1.53,1.53,0,0,0,172.15,38.06Zm.43,1.48-.62,0c-.23,0-.46,0-.68,0a2.56,2.56,0,0,1,.11-.69.58.58,0,0,1,.57-.38.54.54,0,0,1,.46.22,1.11,1.11,0,0,1,.17.68Z"/><path d="M179.36,41.28a1.22,1.22,0,0,1,0-.35c0-.3,0-.65,0-1.06,0-.2,0-.38,0-.53a1.85,1.85,0,0,0-.12-.76.8.8,0,0,0-.37-.38,1.39,1.39,0,0,0-.65-.14,1.58,1.58,0,0,0-.41,0,.51.51,0,0,0-.22.13l-.59.49c0-.29,0-.48,0-.55v0q0-.09-.06-.09l-.1,0a5.26,5.26,0,0,1-.73.2,3.5,3.5,0,0,1-.64.09v.29l.45,0a.09.09,0,0,1,.06,0,.58.58,0,0,1,0,.25c0,.23,0,.5,0,.82q0,1,0,1.35a.26.26,0,0,1-.06.19,1.44,1.44,0,0,1-.47.07v.31c.48,0,.8,0,1,0s.68,0,1.11,0v-.31a1.27,1.27,0,0,1-.5-.08s-.06-.11-.07-.24,0-.66,0-1.57a1.34,1.34,0,0,1,0-.39.68.68,0,0,1,.24-.28.85.85,0,0,1,.45-.13.56.56,0,0,1,.55.29,3.33,3.33,0,0,1,.12,1.18,10.22,10.22,0,0,1-.1,1.48l0,.05.78,0h.3l.46,0v-.31a1.73,1.73,0,0,1-.41-.06A.13.13,0,0,1,179.36,41.28Z"/><path d="M184,38.35a3.6,3.6,0,0,1-.69,0,2.07,2.07,0,0,1-.35,0A12,12,0,0,1,183,36.9l-.12-.08a5.93,5.93,0,0,1-1,.38c0,.34,0,.73,0,1.17l-.5.33v.2a1.73,1.73,0,0,1,.3,0h.2c0,.27,0,.62,0,1.07s0,.84,0,1a1,1,0,0,0,.1.52.66.66,0,0,0,.31.28,1.19,1.19,0,0,0,.53.11h.21l.26,0c.14-.18.29-.35.44-.52l-.06-.15-.21.06-.18,0q-.28,0-.36-.18a7,7,0,0,1-.07-1.44v-.68h.31l.65,0a2.08,2.08,0,0,1,.08-.39l0-.14Z"/><path class="cls-3" d="M8.82,12.55l2.66.56-.14,1.12,2.73.49L16.94.65s-5.32-2.1-8.12,1.26V6H9.1a3.62,3.62,0,0,1,4.34-2.24L12,10.59,8.82,10Zm-1-9S2.1,3.52.63,11l8.19,1.54V10L4.2,9.05C4.83,6.32,7.91,6,8.82,6V1.91A6.25,6.25,0,0,0,7.84,3.59Z"/><path class="cls-4" d="M11.34,14.23l-.28,1-4.48-.91V17l3.92.84L9.24,24.73a3.82,3.82,0,0,1-2.66-1.82v4.55a10.17,10.17,0,0,0,4.76,1.47l2.73-14.21Zm-4.76.14L.28,13.11C-1.26,20.6,4.06,22.7,4.06,22.7a5.35,5.35,0,0,0,2.52,4.76V22.91A4.66,4.66,0,0,1,6.09,21s-4-1.47-3.43-4.76L6.58,17Z"/><path class="cls-5" d="M26.25,7.3a5.43,5.43,0,0,0-2.59-4.83V7.23a4.1,4.1,0,0,1,.42,1.82s4,1.47,3.43,4.69L23.66,13v2.59L30,16.89C31.57,9.4,26.25,7.3,26.25,7.3ZM23.66,2.47A11.1,11.1,0,0,0,18.9,1.14L16.17,15.28l2.8.63.28-1.19,4.41.84V13l-3.92-.77,1.19-6.86a3.6,3.6,0,0,1,2.73,1.89Z"/><path class="cls-6" d="M21.56,28a4.72,4.72,0,0,0,.91-1.54s5.74.07,7.14-7.49l-8-1.54v2.66l4.62.91c-.56,2.66-3.57,3-4.62,3.08ZM18.76,17,19,15.91l-2.8-.63-2.8,14.14s5.46,2.1,8.19-1.4V24.1h-.35a3.53,3.53,0,0,1-4.27,2.24l1.4-6.86,3.22.63V17.45Z"/><path class="cls-7" d="M.28,31S4.41,30,6.44,34.53a14.37,14.37,0,0,1,1.75,4.76s-2.38-.7-4.06-4.06A11.38,11.38,0,0,0,.28,31Z"/><path class="cls-7" d="M12.46,29.91S8,34.53,10.08,38.17c0,0,1,.7,1.75-.77,0,0-1.61,0-1.05-2A17.8,17.8,0,0,1,12.46,29.91Z"/><path class="cls-7" d="M9.87,41.67s7.28-9.94,16-6.09A53.51,53.51,0,0,0,19.25,38S14.42,41.67,9.87,41.67Z"/></g></g></svg>