<svg xmlns="http://www.w3.org/2000/svg" viewBox="0 0 79.95 56.48"><defs><style>.cls-1{fill:#fff;}.cls-1,.cls-4,.cls-5{fill-rule:evenodd;}.cls-2{fill:#00abc8;}.cls-3,.cls-4{fill:#231815;}.cls-5{fill:#007853;}</style></defs><g id="圖層_2" data-name="圖層 2"><g id="圖層_1-2" data-name="圖層 1"><path class="cls-1" d="M2.19,12.32,38.83.63A2.6,2.6,0,0,1,41,.58L77.62,12.27a2.66,2.66,0,0,1,2,2.6V53.72a2.55,2.55,0,0,1-2.55,2.42H2.86a2.53,2.53,0,0,1-2.5-2.5V14.85C.31,13.88.62,13,2.19,12.32Z"/><path class="cls-2" d="M40,0a3.48,3.48,0,0,1,1.08.23h0L64.81,7.82l12.9,4.12h0a2.86,2.86,0,0,1,1.7,1.16A3.54,3.54,0,0,1,80,14.85v0h0V53.79l0,.07a2.82,2.82,0,0,1-2.85,2.62H40v-.71H77a2.17,2.17,0,0,0,2.19-2l0,0V14.89a2.93,2.93,0,0,0-.44-1.39,2.26,2.26,0,0,0-1.3-.89h0L64.61,8.49,40.85.9v0h0v0A3.37,3.37,0,0,0,40,.72ZM2.08,12,38.72.29h0A4.37,4.37,0,0,1,40,0V.72A3.55,3.55,0,0,0,39,1l0,0L2.32,12.67a2.51,2.51,0,0,0-1.34,1,1.87,1.87,0,0,0-.27,1.17l0,0V53.64h0a2.15,2.15,0,0,0,1.15,1.88,3.14,3.14,0,0,0,.46.18,3.33,3.33,0,0,0,.54.07H40v.71H2.82a4.52,4.52,0,0,1-.67-.09,2.36,2.36,0,0,1-.59-.24A2.83,2.83,0,0,1,0,53.64H0V14.85H0a2.77,2.77,0,0,1,.36-1.57A3.53,3.53,0,0,1,2,12Z"/><path class="cls-3" d="M5.26,51.6H5.6l-.34-1.16v-.27h.18l.71,2.19H5.84l-.16-.52H5.26Zm0-1.16h0L4.92,51.6h.34v.24H4.84l-.16.52H4.39l.69-2.19h.18v.27Z"/><path class="cls-3" d="M7.18,50.17h.27v.27H7.18v-.27Zm.27,2.19H7.19V50.84h.26Z"/><path class="cls-3" d="M8.91,51.06h0C9,51,9,51,9,50.93s.05-.07.11-.09a.35.35,0,0,1,.13,0h.14v.25H9.33s0,0,0,0h0a.34.34,0,0,0-.16,0c-.05,0-.09.05-.11.09a.22.22,0,0,0-.05.14.34.34,0,0,0,0,.15v.9H8.66V50.84h.25Z"/><polygon class="cls-3" points="10.99 52.36 10.99 50.17 12.07 50.17 12.07 50.43 11.26 50.43 11.26 51.11 12.02 51.11 12.02 51.37 11.26 51.37 11.26 52.36 10.99 52.36"/><path class="cls-3" d="M13.64,52.18a.24.24,0,0,0,.17,0A.17.17,0,0,0,13.9,52a.81.81,0,0,0,0-.21c0-.07,0-.18,0-.31a.82.82,0,0,0,0-.25.38.38,0,0,0,0-.16.38.38,0,0,0-.11-.08.25.25,0,0,0-.13,0v-.19a.67.67,0,0,1,.31,0,.39.39,0,0,1,.18.18.66.66,0,0,1,.07.25,1.83,1.83,0,0,1,0,.33,3.47,3.47,0,0,1,0,.4.61.61,0,0,1-.13.23.51.51,0,0,1-.18.11.93.93,0,0,1-.24,0Zm0,0h0v.2h0a.68.68,0,0,1-.21,0,.39.39,0,0,1-.31-.34,1.11,1.11,0,0,1,0-.4c0-.11,0-.22,0-.33a.92.92,0,0,1,.08-.25.39.39,0,0,1,.18-.18.65.65,0,0,1,.3,0h0V51h0a.22.22,0,0,0-.12,0,.28.28,0,0,0-.11.08.38.38,0,0,0-.06.16,1.42,1.42,0,0,0,0,.25c0,.13,0,.24,0,.31a.81.81,0,0,0,.05.21c0,.06,0,.1.09.11A.23.23,0,0,0,13.64,52.18Z"/><path class="cls-3" d="M15.67,51.06h0a.37.37,0,0,1,.07-.13.87.87,0,0,1,.11-.09.35.35,0,0,1,.12,0h.17v.25h-.08s0,0,0,0h0a.48.48,0,0,0-.18,0l-.11.09a1.09,1.09,0,0,0-.05.14v1h-.26V50.84h.26Z"/><path class="cls-3" d="M18,51.33a.42.42,0,0,0,0-.16l-.05-.09a.11.11,0,0,0-.08-.06s-.05,0-.07,0a.27.27,0,0,0-.13,0,.2.2,0,0,0-.1.08.4.4,0,0,0-.08.16c0,.07,0,.14,0,.25a2.63,2.63,0,0,0,0,.31.33.33,0,0,0,.06.21c0,.06,0,.1.09.11s.09,0,.16,0a.07.07,0,0,0,.06,0,.15.15,0,0,0,.07,0L18,52a.44.44,0,0,0,0-.17h.25a.53.53,0,0,1,0,.26.74.74,0,0,1-.12.16.53.53,0,0,1-.16.09.44.44,0,0,1-.15,0,.82.82,0,0,1-.23,0,.31.31,0,0,1-.18-.11.5.5,0,0,1-.13-.23,2,2,0,0,1,0-.4,1.83,1.83,0,0,1,0-.33.66.66,0,0,1,.07-.25.48.48,0,0,1,.17-.18.74.74,0,0,1,.32,0,.41.41,0,0,1,.34.12.54.54,0,0,1,.13.4Z"/><path class="cls-3" d="M20.33,51.49a1,1,0,0,0,0-.27.29.29,0,0,0-.05-.14.23.23,0,0,0-.09-.08H20v-.18h0a1,1,0,0,1,.27,0,.39.39,0,0,1,.16.15.48.48,0,0,1,.09.23,1.62,1.62,0,0,1,0,.33v.12H20v-.18Zm-.31.89v-.2h0a.22.22,0,0,0,.11,0,.16.16,0,0,0,.07-.07.1.1,0,0,0,.05-.09.22.22,0,0,0,0-.11h.27c0,.18,0,.31-.14.38a.61.61,0,0,1-.38.11ZM20,51h-.11a.23.23,0,0,0-.09.08.4.4,0,0,0-.07.16.83.83,0,0,0,0,.25H20v.18h-.29a.94.94,0,0,0,0,.26l.05.16a.49.49,0,0,0,.11.07.23.23,0,0,0,.11,0v.2a.65.65,0,0,1-.2,0,.44.44,0,0,1-.2-.11.49.49,0,0,1-.1-.23,1.09,1.09,0,0,1-.06-.4,1.83,1.83,0,0,1,0-.33,1.49,1.49,0,0,1,.07-.25.62.62,0,0,1,.18-.18.6.6,0,0,1,.29,0Z"/><polygon class="cls-3" points="22.71 52.36 22.46 52.36 22.46 50.17 22.91 50.17 23.45 52 23.45 52 24.01 50.17 24.47 50.17 24.47 52.36 24.2 52.36 24.2 50.43 24.2 50.43 23.58 52.36 23.33 52.36 22.73 50.43 22.71 50.43 22.71 52.36"/><path class="cls-3" d="M25.71,50.17H26v.27h-.27v-.27ZM26,52.36h-.26V50.84H26Z"/><rect class="cls-3" x="27.18" y="50.17" width="0.25" height="2.19"/><path class="cls-3" d="M28.62,50.17h.27v.27h-.27v-.27Zm.25,2.19h-.23V50.84h.23Z"/><path class="cls-3" d="M30.12,50.84v-.3l.25-.11v.41h.33V51h-.33v1s0,0,0,.06,0,0,.07,0a.28.28,0,0,0,.13,0l.06,0h.05v.18a.22.22,0,0,1-.11,0,.32.32,0,0,1-.13,0,.5.5,0,0,1-.25-.07.29.29,0,0,1-.09-.2V51h-.25v-.18Z"/><path class="cls-3" d="M32.51,51.6h-.29v-.18h0a1.22,1.22,0,0,1,.27,0v-.16a.25.25,0,0,0,0-.13A.41.41,0,0,0,32.4,51a.35.35,0,0,0-.16,0h0v-.18h0a.83.83,0,0,1,.24,0,.48.48,0,0,1,.16.09.51.51,0,0,1,.07.15.52.52,0,0,1,0,.18V52a4300552969355.14,4300552969355.14,0,0,0,0,.36h-.27v-.22h0a.33.33,0,0,1-.17.18l-.12.06v-.2a.16.16,0,0,0,.09,0,.27.27,0,0,0,.11-.09,1.36,1.36,0,0,0,.07-.18A1.15,1.15,0,0,0,32.51,51.6Zm-.29,0s-.06,0-.09,0a.2.2,0,0,0-.13.09s-.05.09-.05.18a.39.39,0,0,0,.05.2.23.23,0,0,0,.18.07h0v.2h-.11a.33.33,0,0,1-.2,0,.38.38,0,0,1-.13-.09,1,1,0,0,1-.05-.16.71.71,0,0,1,0-.2.38.38,0,0,1,.09-.27.44.44,0,0,1,.18-.15.8.8,0,0,1,.26,0v.18Zm0-.79V51a.22.22,0,0,0-.17.07.42.42,0,0,0,0,.2h-.27a.52.52,0,0,1,.14-.36A.61.61,0,0,1,32.22,50.81Z"/><path class="cls-3" d="M34.28,51.06h0c0-.06,0-.11.09-.13a.26.26,0,0,1,.09-.09.53.53,0,0,1,.12,0h.17v.25h-.08s0,0,0,0h0a.48.48,0,0,0-.18,0,.26.26,0,0,0-.09.09.18.18,0,0,0-.06.14.66.66,0,0,0,0,.15v.9H34V50.84h.26Z"/><polygon class="cls-3" points="36.26 52.07 36.26 52.07 36.64 50.84 36.9 50.84 36.21 52.94 35.96 52.94 36.14 52.36 35.61 50.84 35.9 50.84 36.26 52.07"/><polygon class="cls-3" points="38.61 52.36 38.61 50.17 38.88 50.17 38.88 51.13 38.88 51.13 39.64 50.17 39.97 50.17 39.17 51.17 40 52.36 39.66 52.36 38.88 51.22 38.88 51.22 38.88 52.36 38.61 52.36"/><path class="cls-3" d="M41,50.17h.29v.27H41v-.27Zm.27,2.19H41V50.84h.26Z"/><path class="cls-3" d="M43.31,52.36V51.29a.18.18,0,0,0,0-.1.16.16,0,0,0,0-.09.23.23,0,0,0-.09-.08A.27.27,0,0,0,43,51a.29.29,0,0,0-.14,0,.5.5,0,0,0-.1.11.78.78,0,0,1,0,.14v1.07H42.5V51a.34.34,0,0,0,0-.15h.27V51h0a.39.39,0,0,1,.18-.16.38.38,0,0,1,.22,0,.64.64,0,0,1,.2,0,.38.38,0,0,1,.12.09.29.29,0,0,1,.06.17.62.62,0,0,1,0,.19v1.07Z"/><path class="cls-3" d="M45.59,51.53a.41.41,0,0,0,0-.16.53.53,0,0,0,0-.18.42.42,0,0,0-.07-.13A.21.21,0,0,0,45.3,51h0v-.19a.29.29,0,0,1,.14,0,.54.54,0,0,1,.15.15h0v-.82h.23v2.19h-.23v-.18h0a.25.25,0,0,1-.15.14.18.18,0,0,1-.14.06v-.2h0a.25.25,0,0,0,.16,0,.46.46,0,0,0,.09-.15.78.78,0,0,0,0-.22A.9.9,0,0,0,45.59,51.53ZM45.28,51a.29.29,0,0,0-.14,0,.24.24,0,0,0-.09.13.48.48,0,0,0,0,.18,1.23,1.23,0,0,0,0,.27v.18c0,.07,0,.13,0,.18a.32.32,0,0,0,.09.15.23.23,0,0,0,.16,0v.2h-.05a.52.52,0,0,1-.18,0,.41.41,0,0,1-.17-.11,1.25,1.25,0,0,1-.11-.23,3.47,3.47,0,0,1,0-.4v-.29c0-.09,0-.18,0-.25a.46.46,0,0,1,.16-.2.45.45,0,0,1,.29-.07h0Z"/><path class="cls-3" d="M47.32,51.06h0a.37.37,0,0,1,.07-.13.87.87,0,0,1,.11-.09.42.42,0,0,1,.13,0h.16v.25h-.07l0,0h0a.42.42,0,0,0-.16,0l-.11.09,0,.14s0,.09,0,.15v.9h-.23V50.84h.23Z"/><path class="cls-3" d="M49.69,51.49a1.06,1.06,0,0,0,0-.27l-.05-.14a.28.28,0,0,0-.11-.08H49.4v-.18h0a1,1,0,0,1,.27,0,.46.46,0,0,1,.16.15.61.61,0,0,1,.09.23c0,.09,0,.2,0,.33v.12H49.4v-.18Zm-.29.89v-.2h0a.23.23,0,0,0,.11,0,.16.16,0,0,0,.07-.07.73.73,0,0,0,0-.09.22.22,0,0,0,0-.11h.27a.46.46,0,0,1-.14.38.61.61,0,0,1-.38.11Zm0-1.39h-.13l-.09.08a.76.76,0,0,0,0,.16.83.83,0,0,0,0,.25h.29v.18h-.29a.94.94,0,0,0,0,.26,1,1,0,0,0,0,.16l.09.07a.3.3,0,0,0,.13,0v.2a.82.82,0,0,1-.22,0,.51.51,0,0,1-.18-.11.49.49,0,0,1-.12-.23,2,2,0,0,1,0-.4,1.83,1.83,0,0,1,0-.33.52.52,0,0,1,.07-.25.44.44,0,0,1,.18-.18.58.58,0,0,1,.29,0Z"/><path class="cls-3" d="M52,51.53a.81.81,0,0,0,0-.16.52.52,0,0,0,0-.18,1,1,0,0,1-.09-.13.21.21,0,0,0-.16-.06h0v-.19a.27.27,0,0,1,.12,0A.54.54,0,0,1,52,51h0v-.82h.24v2.19H52v-.18h0a.25.25,0,0,1-.15.14.17.17,0,0,1-.12.06v-.2h0a.25.25,0,0,0,.16,0,.75.75,0,0,0,.09-.15,1.46,1.46,0,0,0,0-.22ZM51.68,51a.35.35,0,0,0-.17,0,.43.43,0,0,0-.09.13.48.48,0,0,0,0,.18,1.23,1.23,0,0,0,0,.27.55.55,0,0,0,0,.18,1,1,0,0,0,0,.18.45.45,0,0,0,.11.15.26.26,0,0,0,.17,0v.2H51.6a.58.58,0,0,1-.18,0,.38.38,0,0,1-.16-.11.82.82,0,0,1-.11-.23,2.1,2.1,0,0,1,0-.4v-.29a.66.66,0,0,1,.07-.25.32.32,0,0,1,.14-.2.43.43,0,0,1,.29-.07h.06Z"/><polygon class="cls-3" points="54.87 52.36 54.55 52.36 53.92 50.17 54.22 50.17 54.71 52.09 54.73 52.09 55.23 50.17 55.51 50.17 54.87 52.36"/><path class="cls-3" d="M56.48,50.17h.27v.27h-.27v-.27Zm.27,2.19H56.5V50.84h.25Z"/><rect class="cls-3" x="57.96" y="50.17" width="0.23" height="2.19"/><rect class="cls-3" x="59.41" y="50.17" width="0.25" height="2.19"/><path class="cls-3" d="M61.65,51.6h-.27v-.18h0a1.22,1.22,0,0,1,.27,0v-.16a.25.25,0,0,0,0-.13,1.05,1.05,0,0,0-.07-.11.35.35,0,0,0-.16,0h0v-.18h0a.78.78,0,0,1,.24,0,.31.31,0,0,1,.14.09c0,.06.08.09.09.15a.52.52,0,0,1,0,.18v.92s0,.11,0,.18h-.27v-.22h0a.39.39,0,0,1-.15.18l-.12.06v-.2a.1.1,0,0,0,.07,0,.19.19,0,0,0,.11-.09.34.34,0,0,0,.07-.18A.63.63,0,0,0,61.65,51.6Zm-.27,0-.09,0a.2.2,0,0,0-.13.09.26.26,0,0,0,0,.18.53.53,0,0,0,0,.2.2.2,0,0,0,.18.07h0v.2h-.11a.34.34,0,0,1-.2,0,.38.38,0,0,1-.13-.09,1.11,1.11,0,0,1-.07-.16.68.68,0,0,1,0-.2.34.34,0,0,1,.08-.27.5.5,0,0,1,.2-.15.66.66,0,0,1,.25,0v.18Zm0-.79V51a.2.2,0,0,0-.16.07.19.19,0,0,0-.06.2h-.27A.44.44,0,0,1,61,50.9.58.58,0,0,1,61.38,50.81Z"/><path class="cls-3" d="M64,51.58V51.4a.53.53,0,0,0,0-.18.29.29,0,0,0-.07-.16.28.28,0,0,0-.18-.06v-.19a.19.19,0,0,1,.13,0A.27.27,0,0,1,64,51h0v-.18h.23V52.5a.47.47,0,0,1,0,.22.28.28,0,0,1-.11.13.75.75,0,0,1-.18.07.75.75,0,0,0-.2,0v-.2h0a.27.27,0,0,0,.2-.07.33.33,0,0,0,.07-.18v-.33h0a.29.29,0,0,1-.14.15l-.13,0v-.2h0a.19.19,0,0,0,.16,0,.2.2,0,0,0,.09-.15.44.44,0,0,0,0-.18ZM63.69,51h0a.2.2,0,0,0-.16.06.24.24,0,0,0-.09.14.53.53,0,0,0,0,.18v.17a1.37,1.37,0,0,0,0,.3c0,.08,0,.13,0,.18a1,1,0,0,0,.09.1h.13v.2a.06.06,0,0,1,0,0,.4.4,0,0,1-.26-.07.36.36,0,0,1-.14-.16,1.14,1.14,0,0,1-.09-.26c0-.11,0-.21,0-.32a1,1,0,0,1,.07-.42.91.91,0,0,1,.13-.22.43.43,0,0,1,.16-.09h.2V51Zm0,1.74v.2h0a.65.65,0,0,1-.18,0,.37.37,0,0,1-.14-.07.75.75,0,0,1-.11-.13.5.5,0,0,1,0-.18h.27a.25.25,0,0,0,.08.17A.22.22,0,0,0,63.69,52.74Z"/><path class="cls-3" d="M66.29,51.49a1.06,1.06,0,0,0,0-.27.46.46,0,0,0,0-.14.23.23,0,0,0-.11-.08H66v-.18h0a1,1,0,0,1,.27,0,.5.5,0,0,1,.17.15.85.85,0,0,1,.09.23c0,.09,0,.2,0,.33v.12H66v-.18Zm-.29.89v-.2h0a.22.22,0,0,0,.11,0,.12.12,0,0,0,.07-.07l.06-.09a.41.41,0,0,0,0-.11h.28a.47.47,0,0,1-.15.38.61.61,0,0,1-.38.11ZM66,51h-.12a.57.57,0,0,0-.09.08.68.68,0,0,0-.06.16.83.83,0,0,0,0,.25H66v.18h-.29a.94.94,0,0,0,0,.26.91.91,0,0,0,.06.16.2.2,0,0,0,.09.07.25.25,0,0,0,.12,0v.2a.75.75,0,0,1-.21,0,.38.38,0,0,1-.18-.11.5.5,0,0,1-.13-.23,2,2,0,0,1,0-.4,1.83,1.83,0,0,1,0-.33.66.66,0,0,1,.07-.25.44.44,0,0,1,.18-.18.63.63,0,0,1,.29,0Z"/><polygon class="cls-3" points="69.94 50.17 69.94 52.36 69.56 52.36 68.7 50.46 68.7 50.46 68.7 52.36 68.44 52.36 68.44 50.17 68.84 50.17 69.69 52.03 69.69 52.03 69.69 50.17 69.94 50.17"/><path class="cls-3" d="M71.73,52.18c.07,0,.13,0,.16,0A.19.19,0,0,0,72,52a.56.56,0,0,0,0-.21,1.33,1.33,0,0,0,0-.31.9.9,0,0,0,0-.25A.59.59,0,0,0,72,51.1a.23.23,0,0,0-.09-.08.34.34,0,0,0-.15,0v-.19a.74.74,0,0,1,.33,0,.55.55,0,0,1,.16.18.68.68,0,0,1,.09.25v.33a1.14,1.14,0,0,1,0,.4.49.49,0,0,1-.12.23.38.38,0,0,1-.18.11.93.93,0,0,1-.24,0Zm0-1.18a.3.3,0,0,0-.13,0,.23.23,0,0,0-.09.08.59.59,0,0,0-.07.16.9.9,0,0,0,0,.25,1.33,1.33,0,0,0,0,.31.56.56,0,0,0,0,.21c0,.06,0,.1.11.11s.09,0,.14,0v.2a.86.86,0,0,1-.22,0,.38.38,0,0,1-.18-.11.49.49,0,0,1-.12-.23,1.09,1.09,0,0,1-.06-.4c0-.11,0-.22,0-.33a.68.68,0,0,1,.09-.25.55.55,0,0,1,.16-.18.69.69,0,0,1,.31,0Z"/><polygon class="cls-3" points="73.54 52.03 73.84 52.03 73.57 52.74 73.38 52.74 73.54 52.03"/><path class="cls-3" d="M75.62,52.36h-.29V50.57l-.31.22v-.27l.07,0,.09-.07a.23.23,0,0,1,.11-.07l.07-.08h.26Z"/><path class="cls-3" d="M30.36,46.47v.05a.39.39,0,0,0,0,.18,1.31,1.31,0,0,0,.07.13.28.28,0,0,0,.13.07l.13,0,.16,0a.28.28,0,0,0,.13-.07.42.42,0,0,0,.07-.11.32.32,0,0,0,0-.16.37.37,0,0,0-.07-.2.62.62,0,0,0-.18-.14,1.34,1.34,0,0,0-.23-.13,1.38,1.38,0,0,1-.24-.14.84.84,0,0,1-.18-.2.5.5,0,0,1-.07-.27,1.09,1.09,0,0,1,0-.26.79.79,0,0,1,.14-.18.49.49,0,0,1,.2-.11.66.66,0,0,1,.25,0,.53.53,0,0,1,.6.63h-.29a.42.42,0,0,0-.06-.29.31.31,0,0,0-.27-.11.25.25,0,0,0-.12,0,.14.14,0,0,0-.11.06.11.11,0,0,0-.07.09.38.38,0,0,0,0,.16.48.48,0,0,0,.07.2l.18.14a1.12,1.12,0,0,1,.24.13.88.88,0,0,1,.23.14.43.43,0,0,1,.18.2.4.4,0,0,1,.08.27.57.57,0,0,1-.06.29.37.37,0,0,1-.14.2.63.63,0,0,1-.22.09.93.93,0,0,1-.25,0,1,1,0,0,1-.27,0,.44.44,0,0,1-.18-.09.76.76,0,0,1-.11-.14c0-.06,0-.09-.06-.15a.86.86,0,0,1,0-.16v-.11Z"/><path class="cls-3" d="M33.3,46.34h.34l-.34-1.13v-.28h.18l.71,2.17h-.31l-.16-.5H33.3Zm0-1.15h0l-.34,1.15h.36v.26h-.41l-.17.5h-.29l.69-2.17h.18v.26Z"/><polygon class="cls-3" points="36.79 44.93 36.79 47.1 36.41 47.1 35.56 45.22 35.54 45.22 35.54 47.1 35.31 47.1 35.31 44.93 35.69 44.93 36.53 46.8 36.55 46.8 36.55 44.93 36.79 44.93"/><path class="cls-3" d="M39.06,45.53v-.18a.5.5,0,0,0-.05-.13l0,0-.08,0s0,0-.07,0h-.05a.34.34,0,0,0-.15,0l-.09.06a.18.18,0,0,0-.07,0,.07.07,0,0,1,0,0s0,0,0,0a.28.28,0,0,1,0,.06,1.13,1.13,0,0,0,0,.14v.8a1.57,1.57,0,0,0,0,.32.38.38,0,0,0,.09.18.19.19,0,0,0,.12.07.34.34,0,0,0,.15,0,.18.18,0,0,0,.09,0,.15.15,0,0,0,.11,0,.36.36,0,0,0,.1-.13.82.82,0,0,0,0-.25h.29a1.12,1.12,0,0,1,0,.29.52.52,0,0,1-.09.2.25.25,0,0,1-.12.11.52.52,0,0,1-.15.07l-.12,0h-.09a.78.78,0,0,1-.22,0,.7.7,0,0,1-.24-.09.83.83,0,0,1-.16-.27,1.24,1.24,0,0,1-.07-.49v-.62a1.32,1.32,0,0,1,0-.37.89.89,0,0,1,.13-.24.45.45,0,0,1,.23-.13.89.89,0,0,1,.29,0,.56.56,0,0,1,.46.16.63.63,0,0,1,.1.47Z"/><polygon class="cls-3" points="40.62 47.1 40.62 44.93 40.89 44.93 40.89 45.87 41.67 45.87 41.67 44.93 41.94 44.93 41.94 47.1 41.67 47.1 41.67 46.11 40.89 46.11 40.89 47.1 40.62 47.1"/><path class="cls-3" d="M43.91,46.92a.52.52,0,0,0,.18,0,.22.22,0,0,0,.12-.09.46.46,0,0,0,.08-.2,1.7,1.7,0,0,0,0-.28v-.75a.58.58,0,0,0,0-.25.3.3,0,0,0-.13-.14.17.17,0,0,0-.12-.06.75.75,0,0,1-.11,0h0V44.9h0a.65.65,0,0,1,.52.18.79.79,0,0,1,.16.52v.71a1,1,0,0,1-.16.65.69.69,0,0,1-.52.2h0v-.24Zm0-1.81-.09,0a.24.24,0,0,0-.15.06.61.61,0,0,0-.11.14.58.58,0,0,0-.05.25v.75a1,1,0,0,0,0,.28.36.36,0,0,0,.07.2.22.22,0,0,0,.12.09.5.5,0,0,0,.17,0v.24a.68.68,0,0,1-.51-.2,1,1,0,0,1-.16-.65V45.6a.79.79,0,0,1,.16-.52.64.64,0,0,1,.51-.18Z"/><polygon class="cls-3" points="47.39 44.93 47.39 47.1 47.02 47.1 46.16 45.22 46.15 45.22 46.15 47.1 45.91 47.1 45.91 44.93 46.29 44.93 47.14 46.8 47.16 46.8 47.16 44.93 47.39 44.93"/><path class="cls-3" d="M49.76,45.51a.53.53,0,0,0-.09-.29.35.35,0,0,0-.29-.11.75.75,0,0,1-.11,0,.17.17,0,0,0-.12.06.3.3,0,0,0-.13.14.47.47,0,0,0-.05.25v.75a1,1,0,0,0,0,.28.66.66,0,0,0,.07.2.28.28,0,0,0,.13.09.5.5,0,0,0,.18,0,.58.58,0,0,0,.24,0,.38.38,0,0,0,.14-.06v-.65h-.4v-.25H50V47a.73.73,0,0,1-.29.11,1,1,0,0,1-.36.06.69.69,0,0,1-.52-.2,1,1,0,0,1-.17-.65V45.6a.79.79,0,0,1,.17-.52.65.65,0,0,1,.52-.18.68.68,0,0,1,.51.14.56.56,0,0,1,.16.47Z"/><rect class="cls-3" x="4.36" y="45.82" width="23.4" height="0.4"/><rect class="cls-3" x="52.2" y="45.82" width="23.42" height="0.4"/><path class="cls-4" d="M47.18,31.62l7.46-1.07c1.3.2,2.6.35,3.92.56.13,0,.2.15.2.22v1.25L54.64,32,47,33.08V31.85A.24.24,0,0,1,47.18,31.62Z"/><path class="cls-4" d="M68.7,37.47V36l2.38.35v-8l-2.38.34V27.43l2.38-.33V25.57a.24.24,0,0,1,.22-.24h1a.23.23,0,0,1,.23.24v1.55l1,.14a.22.22,0,0,1,.18.24v1.16l-1.17-.2v8.18a1.24,1.24,0,0,1-1.36,1.18h0l-2.43-.35Zm0-4q.21.48.39,1l1.2-.5a30,30,0,0,0-1.59-3.62Zm-6.83-6.06h1.44V25.58a.22.22,0,0,1,.22-.21h1a.23.23,0,0,1,.23.23v1.84H66a.23.23,0,0,1,.23.22V28.8H64.72v.32c.74,1.18,1.48,2.3,2.22,3.38l-1.14.8a11.51,11.51,0,0,1-1.08-1.63v6a.34.34,0,0,1,0,.2h-1.3s-.06-.09-.06-.2V32.07a7.92,7.92,0,0,1-1,1.59l-1.3-.49a16.81,16.81,0,0,0,2.23-4.37H61.65V27.66a.25.25,0,0,1,.22-.22Zm6.83,0v1.33L67,29V27.86a.22.22,0,0,1,.18-.22l1.52-.21Zm0,2.94V33.5a26.56,26.56,0,0,0-1.59-3.15c.34-.18.66-.38,1-.54a.21.21,0,0,1,.3.09c.07.11.15.27.26.47Zm0,5.67v1.43l-.91-.12L68,36Z"/><path class="cls-4" d="M13,26.31V25.6c0-.14-.1-.27-.2-.27h-.51v2.22l.65.09v3.18c0,.91,0,1.41,1.05,1.41H17.2c.53,0,.87-1.1.94-1.48H14.4V27.86l2.39.34v.71a1,1,0,0,0,.21.65l.91.92c.12.05.2,0,.23-.07V27.26c0-.19-.12-.23-.27-.25l-.79-.11L13,26.31Zm-.71,11.56V32.56l4.95.72a.23.23,0,0,1,.22.24v1.13L13,34v2.51h5a.23.23,0,0,1,.21.24v1.1Zm0-12.54h-.51c-.1,0-.19.13-.19.27v.71l-4.23.61L6.67,27c-.13,0-.25.06-.25.25v3.15c0,.09.09.12.21.07l.91-.92a.93.93,0,0,0,.21-.65V28.2l2.51-.36a4.39,4.39,0,0,1-.74,2.55A2.33,2.33,0,0,1,7.93,31c-.9.11-1.08-.05-1,.06l.61,1.53s2.44-.18,3.33-1.26.84-2.28.95-3.72l.49-.08h0V25.33Zm0,7.23v5.31h-6v-1.1a.24.24,0,0,1,.24-.24h5a.82.82,0,0,1,0-.23V34l-4.45.63V33.5a.24.24,0,0,1,.2-.22c1.66-.23,3.31-.49,5-.72v.83h0v-.83Z"/><path class="cls-4" d="M29.16,36.73l3.82.53V36.1a.24.24,0,0,0-.22-.24l-3.6-.48v1.35Zm0-2.08h2.71a.08.08,0,0,0,.08-.07V30.06a.22.22,0,0,0-.24-.21H29.16v1h1.49v.83H29.16v1h1.49v.88H29.16v1Zm0-5.56h1.95v-1a.23.23,0,0,0-.23-.24H29.16v1.25Zm0-2V25.69l2.33.35h0l1.09.16c.12,0,.25.05.25.23v3.15c0,.11-.09.12-.22.07l-.9-.9a1.13,1.13,0,0,1-.22-.65v-.73Zm-2.83,10.8h1.3s.05-.09.05-.18V36.53l1.48.2V35.38l-1.48-.2v-.53h1.48v-1H27.68v-.88h1.48v-1H27.68v-.83h1.48v-1H27.68v-.76h1.48V27.84H27.68v-1l1.48.22V25.69L27,25.39l-2.19.3v1.38l1.48-.22v1H24.79v1.25h1.48v.76H24.79v1h1.48v.83H24.79v1h1.48v.88H24.79v1h1.48v.53c-.47,0-1,.12-1.48.2v1.37l1.48-.22v1.16C26.27,37.78,26.29,37.87,26.33,37.87ZM24.79,25.69,22.46,26h0l-1.08.16c-.13,0-.26.05-.26.23v3.15c0,.11.09.12.22.07l.9-.9a1.06,1.06,0,0,0,.22-.65v-.73l2.33-.3V25.69Zm0,2.15v1.25H22.84v-1a.23.23,0,0,1,.22-.24Zm0,2H22.24a.21.21,0,0,0-.23.21v4.52a.08.08,0,0,0,.07.07h2.71v-1H23.31v-.88h1.48v-1H23.31v-.83h1.48v-1Zm0,5.53-3.63.52a.22.22,0,0,0-.2.22v1.17l3.83-.54Z"/><path class="cls-3" d="M42.21,29.23H38c.07-.23.15-.47.2-.7h3.9l.15.7Zm-.53-4.75H38.36l-.18-.7h3.67l-.17.7ZM41.5,26.7H38.61l-.16-.7h3.2Z"/><path class="cls-3" d="M41.76,34c-.29.07-.62.13-1,.18v-.63l.8-.16a2.71,2.71,0,0,0,.23.45c0,.07.07.11.07.14s0,0,0,0l-.09,0Zm-1,.72H42.1l-.13.6H40.78v-.6Zm0,.92h.92v2.37h-.92v-.54h.38v-.44h-.38v-.41h.38v-.43h-.38v-.55Zm0,2.7H41.9l-.14.57h-1v-.57Zm0,1h1.3l.13.58H40.78Zm0-5.17-.36.05v.49h.36v.6h-.36v.32h.36v.55h-.36v.43h.36v.41h-.36v.44h.36v.54h-.36v.33h.36V39h-.36v.44h.36V40H39.43v-.58h.36V39h-.36v-.57h.36v-.33h-.36v-.54h.36v-.44h-.36v-.41h.36v-.43h-.36v-.55h.36v-.32h-.36v-.6h.36v-.43c-.13,0-.24,0-.36,0v-.59c.47-.06.92-.11,1.35-.18ZM39.43,40H38c0-.2.09-.38.15-.58h1.32V40Zm0-1h-1l-.14-.57h1.16V39Zm0-.9h-.91V35.68h.91v.55h-.37v.43h.37v.41h-.37v.44h.37v.54Zm0-2.69h-1.2l-.16-.6h1.36v.6Zm0-1-1,.06a2.64,2.64,0,0,0-.14-.6c.38,0,.76,0,1.14,0Z"/><path class="cls-5" d="M35.14,7.61l3.24,1.33,1.5,3.64-1.5,3.64-3.24,1.34V16.32l1.23-1c.26-.2,0-.61-.21-.47l-1,.6V13.3l1.23-1c.26-.18,0-.61-.21-.45l-1,.6V10.37l1.23-1c.26-.2,0-.62-.21-.47l-1,.59V7.61Zm-.83,10-3.23-1.34-1.5-3.64,1.5-3.64,3.23-1.33V9.52l-1-.59c-.25-.15-.45.27-.22.47l1.23,1v2.08l-1-.6c-.25-.16-.45.27-.22.45l1.23,1v2.17l-1-.6c-.25-.14-.45.27-.22.47l1.23,1Z"/><path class="cls-5" d="M45.64,7.61l3.24,1.33,1.5,3.64-1.5,3.64-3.24,1.34V16.32l1.23-1c.25-.2,0-.61-.22-.47l-1,.6V13.3l1.23-1c.25-.18,0-.61-.22-.45l-1,.6V10.37l1.23-1c.25-.2,0-.62-.22-.47l-1,.59V7.61Zm-.83,10-3.22-1.34-1.5-3.64,1.5-3.64,3.22-1.33V9.52l-1-.59c-.25-.15-.45.27-.22.47l1.23,1v2.08l-1-.6c-.25-.16-.45.27-.22.45l1.23,1v2.17l-1-.6c-.25-.14-.45.27-.22.47l1.23,1Z"/></g></g></svg>