<svg xmlns="http://www.w3.org/2000/svg" fill="none" viewBox="0 0 421 316"><g clip-path="url(#clip0_314_264)"><path fill="#F5C749" d="M29.473 83.913c52.778 5.603 58.696-1.384 28.036-35.047 47.198 23.34 57.85 20.128 52.155-15.766 29.526 33.903 42.744 35.066 65.195 6.717 4.345 35.935 16.239 41.758 59.164 28.207-23.616 27.672-16.221 35.964 36.243 40.614-43.711 12.665-42.352 21.687 5.641 44.394-52.778-5.603-58.697 1.385-28.036 35.047-47.198-23.34-57.85-20.128-52.156 15.766-29.525-33.902-42.743-35.066-65.194-6.717-4.346-35.935-16.239-41.758-59.164-28.207 23.615-27.672 16.22-35.964-36.244-40.613 43.795-12.641 42.353-21.688-5.64-44.395Z"/><path fill="#000" d="m129.754 199.859-.316-2.59c-2.077-17.201-5.834-26.395-12.597-30.757-7.986-5.148-21.077-4.162-45.147 3.438l-3.639 1.219 2.47-2.897c10.322-12.187 14.069-19.893 11.96-25.068-2.864-7.028-16.628-11.006-47.484-13.725l-5.81-.521 5.609-1.604c20.884-6.068 30.396-11.063 30.81-16.258.592-7.459-18.185-17.384-36.625-26.12l-5.824-2.751 6.396.69c20.322 2.15 41.52 3.463 44.901-3.214 2.344-4.66-3.15-13.878-17.808-29.902l-3.92-4.313 5.216 2.575c27.764 13.726 41.59 17.495 47.696 12.992 4.475-3.249 5.394-11.84 2.885-27.623l-.591-3.759 2.469 2.985c16.56 19.004 27.197 26.666 36.695 26.504 8.036-.198 16.059-6.077 26.815-19.684l1.634-2.048.296 2.584c2.077 17.202 5.834 26.395 12.597 30.757 7.986 5.148 21.077 4.162 45.146-3.438l3.639-1.22-2.469 2.898c-10.323 12.187-14.069 19.893-11.96 25.068 2.864 7.028 16.607 11 47.483 13.725l5.811.521-5.609 1.604c-20.884 6.068-30.396 11.063-30.81 16.258-.592 7.459 18.185 17.384 36.625 26.12l5.823 2.751-6.396-.69c-20.321-2.15-41.52-3.463-44.9 3.214-2.344 4.659 3.15 13.879 17.807 29.902l3.928 4.292-5.217-2.575c-27.765-13.726-41.589-17.495-47.696-12.992-4.475 3.249-5.394 11.84-2.885 27.623l.591 3.759-2.469-2.985c-16.561-19.004-27.176-26.66-36.696-26.504-8.035.198-16.059 6.078-26.814 19.684l-1.62 2.075Zm-17.163-37.619a20.761 20.761 0 0 1 5.438 2.435c6.99 4.519 11.014 13.494 13.241 29.786 10.48-12.733 18.528-18.309 26.86-18.513 9.744-.227 20.29 6.887 36 24.441-1.951-14.576-.625-22.46 4.279-26.016 6.566-4.915 19.305-1.937 44.924 10.351-12.859-14.641-17.055-22.94-14.509-28.222 3.01-5.943 14.646-7.462 40.914-5.025-23.689-11.594-32.837-18.917-32.296-25.574.47-5.859 8.394-10.768 27.022-16.558-28.256-2.853-40.67-7.032-43.727-14.57-2.313-5.642.672-13.068 9.927-24.383-22.544 6.792-35.272 7.383-43.47 2.106-6.99-4.518-11.014-13.494-13.24-29.786-10.48 12.732-18.529 18.31-26.861 18.513-9.744.227-20.29-6.887-36-24.441 1.952 14.576.625 22.46-4.279 26.016-6.566 4.915-19.304 1.937-44.923-10.35 12.858 14.64 17.055 22.939 14.403 28.19-3.01 5.944-14.646 7.463-40.913 5.026C59.07 97.26 68.218 104.583 67.676 111.24c-.47 5.86-8.394 10.769-27.02 16.559 28.276 2.859 40.663 7.052 43.726 14.569 2.313 5.643-.673 13.069-9.927 24.384 18.18-5.419 29.957-6.875 38.136-4.511Z"/><path fill="#E75194" d="M120.601 125.197a3.018 3.018 0 0 1-.858-.248l-5.287-3.118a2.515 2.515 0 0 1-1.365-1.939 3.62 3.62 0 0 1 1.254-2.93l3.722-3.466a366.468 366.468 0 0 0 6.454-6.175c-3.11 2.213-5.533 3.852-8.271 5.717l-4.798 3.269a5.986 5.986 0 0 1-4.643.929 4.058 4.058 0 0 1-.69-.199l-2.746-1.634a2.616 2.616 0 0 1-1.241-1.745 3.963 3.963 0 0 1 .866-2.997c1.046-1.423 1.948-2.661 2.78-3.738 1.798-2.456 3.295-4.498 5.193-7.22a323.88 323.88 0 0 1-6.775 6.422c-1.102 1.067-2.305 2.172-3.701 3.472a4.918 4.918 0 0 1-4.53 1.325 2.916 2.916 0 0 1-.733-.211l-5.406-3.176a2.892 2.892 0 0 1-1.43-2.185 3.391 3.391 0 0 1 1.155-2.822l3.122-2.959c8.512-7.964 17.31-16.209 23.607-26.311a3.828 3.828 0 0 1 4.278-1.784c.276.034.544.111.795.23l8.328 4.905a4.09 4.09 0 0 1 1.531 2.23 4.11 4.11 0 0 1-.19 2.7 70.528 70.528 0 0 1-7.609 15.424c-.388.637-.831 1.304-1.213 1.92l2.259-1.618A83.31 83.31 0 0 0 137.75 85.55a4.363 4.363 0 0 1 4.256-1.472c.231.033.456.098.669.193l8.308 4.9a3.617 3.617 0 0 1 1.625 2.218 4.044 4.044 0 0 1-.447 2.96c-6.427 10.315-15.211 18.745-23.64 26.892l-3.134 3.001a5.101 5.101 0 0 1-2.272 1.089 5.102 5.102 0 0 1-2.514-.134Z"/><path fill="#000" d="M120.257 72.204c.179.029.355.08.522.151l8.329 4.906a3.074 3.074 0 0 1 .881 3.616 69.158 69.158 0 0 1-7.5 15.206 93.563 93.563 0 0 1-1.98 3.084l-.64.882c-.619.889-1.031 1.451-1.031 1.451-.457.64-.581.99-.435 1.032.147.043.545-.16 1.16-.641l1.023-.794.957-.723c.69-.504 2.3-1.606 3.569-2.625a82.057 82.057 0 0 0 13.444-11.852 3.426 3.426 0 0 1 3.167-1.152c.137.018.271.057.397.115l8.313 4.879a2.687 2.687 0 0 1 .795 3.681c-7.098 11.461-17.257 20.494-26.701 29.642a4.029 4.029 0 0 1-3.671.937 2.917 2.917 0 0 1-.606-.175l-5.4-3.196c-1.051-.599-.926-1.971.208-3.074 4.962-4.698 7.507-6.914 12.323-11.813 1.093-1.115 2.834-2.906 3.825-3.982l.865-.953c.305-.303.594-.621.865-.954.555-.612.783-.932.686-.96 0 0-.339.152-.846.573-1.074.893-4.398 3.452-4.506 3.512-.108.06-1.218.92-2.51 1.863-5.858 4.19-8.955 6.201-14.947 10.306a4.907 4.907 0 0 1-3.736.851 1.414 1.414 0 0 1-.418-.121l-2.774-1.619c-.925-.563-1.009-1.996-.141-3.198 3.77-5.201 5.772-7.734 9.366-13.032a228.827 228.827 0 0 0 2.64-3.96l.71-1.044 1.275-1.903c.43-.625.596-.963.533-.981-.062-.018-.368.257-.855.843 0 0-.52.621-1.457 1.668-.937 1.046-.958 1.04-.958 1.04-.727.79-2.243 2.35-3.304 3.588-4.68 4.665-7.213 6.999-12.046 11.484a3.883 3.883 0 0 1-3.48 1.061l-.48-.139-5.38-3.19a1.942 1.942 0 0 1-.101-3.254c9.578-9.064 19.781-18.015 26.927-29.486a2.77 2.77 0 0 1 3.074-1.382l.049-.168Zm.557-1.928a4.893 4.893 0 0 0-3.143.208 4.912 4.912 0 0 0-2.37 2.082c-6.207 9.947-14.965 18.135-23.397 26.054l-3.127 2.98a4.371 4.371 0 0 0-1.465 3.733 3.92 3.92 0 0 0 1.966 2.998l3.466 2.046 1.94 1.129c.297.177.616.315.948.41a5.99 5.99 0 0 0 5.581-1.589c.712-.657 1.363-1.264 1.96-1.841-.345.491-.712.975-1.091 1.502a4.954 4.954 0 0 0-.941 3.884c.098.512.303.997.602 1.423.298.427.683.786 1.13 1.053l1.242.723 1.531.897c.282.174.586.308.905.397a7.024 7.024 0 0 0 5.565-1.139l1.778-1.212-.252.245a4.628 4.628 0 0 0-1.584 3.835 3.575 3.575 0 0 0 1.758 2.779l.23.066 5.167 3.061c.346.192.712.344 1.093.452a6.136 6.136 0 0 0 5.773-1.465l3.128-2.98c8.552-8.179 17.395-16.661 23.897-27.159a5.072 5.072 0 0 0 .579-3.807 4.725 4.725 0 0 0-2.134-2.888l-5.561-3.265-2.753-1.613a3.488 3.488 0 0 0-.884-.392 5.502 5.502 0 0 0-5.367 1.787 73.932 73.932 0 0 1-10.837 9.813 65.597 65.597 0 0 0 5.921-12.642 5.22 5.22 0 0 0-1.827-6.228l-4.009-2.363-4.319-2.543a4.514 4.514 0 0 0-1.009-.428l-.09-.003Z"/><path fill="#E75194" d="M143.699 147.068a2.326 2.326 0 0 1-.627-.182l-6.063-3.569a4.36 4.36 0 0 1-1.445-4.96c4.464-14.267 12.225-24.651 19.824-34.082a4.653 4.653 0 0 1 2.02-1.385 4.624 4.624 0 0 1 2.44-.165c.222.041.439.104.649.188l5.633 3.331a2.379 2.379 0 0 1 1.172 1.747 3.753 3.753 0 0 1-1.121 3.015c-8.18 10.263-15.295 19.902-18.794 33.653-.589 1.805-2.14 2.856-3.688 2.409Z"/><path fill="#000" d="M159.588 103.626c.13.016.258.053.376.109l5.66 3.317c.946.569.842 1.947-.194 3.101-8.516 10.642-15.596 20.473-19.1 34.086-.388 1.342-1.387 2.053-2.328 1.78l-.356-.102-6.083-3.576a3.236 3.236 0 0 1-.929-3.766c4.195-13.413 11.086-23.14 19.644-33.771a3.555 3.555 0 0 1 3.31-1.178Zm.606-2.096a5.71 5.71 0 0 0-5.505 1.793c-7.639 9.488-15.499 19.98-20.029 34.477a5.391 5.391 0 0 0 1.897 6.295l6.084 3.575c.269.149.554.269.848.359a4.19 4.19 0 0 0 4.364-1.713c.315-.458.536-.973.65-1.517 3.504-13.613 10.52-23.144 18.666-33.213a4.802 4.802 0 0 0 1.321-3.865 3.5 3.5 0 0 0-1.693-2.533l-2.928-1.709-2.71-1.601a3.329 3.329 0 0 0-.9-.26l-.065-.088Z"/><path fill="#E75194" d="M192.474 166.049a3.804 3.804 0 0 1-.795-.229l-8.659-5.092a6.273 6.273 0 0 1-2.737-5.039c-.021-3.299-.09-5.022-.257-8.522a1.713 1.713 0 0 0-.15-.657l-.234.183c-2.472 1.965-3.792 2.923-6.442 4.723a5.795 5.795 0 0 1-4.711.615 4.673 4.673 0 0 1-1.024-.456l-8.893-5.227a2.594 2.594 0 0 1-1.419-2.227 2.706 2.706 0 0 1 1.543-2.28 122.846 122.846 0 0 0 17.196-11.267 4.378 4.378 0 0 0 1.132-3.443l-.362-2.512c-.951-6.906-1.552-11.1-2.577-18.686a2.926 2.926 0 0 1 .775-2.683 2.002 2.002 0 0 1 1.901-.382c.252.04.498.111.732.212l7.762 4.514a6.542 6.542 0 0 1 2.671 4.951c.213 3.105.336 4.64.606 7.783.008.17.035.338.082.501a370.355 370.355 0 0 0 4.34-4.9 4.059 4.059 0 0 1 4.121-1.239c.28.045.554.124.816.236l7.51 4.442a2.973 2.973 0 0 1 1.619 2.239 2.93 2.93 0 0 1-.903 2.419 312.974 312.974 0 0 0-3.728 3.646c-2.858 2.831-5.134 5.057-8.948 8.451a4.568 4.568 0 0 0-1.03 3.563l.377 2.38a189.715 189.715 0 0 1 2.658 21.072 2.797 2.797 0 0 1-.894 2.467 2.18 2.18 0 0 1-2.078.444Z"/><path fill="#000" d="m176.551 103.829.481.139 7.762 4.515a5.655 5.655 0 0 1 2.127 4.089c.213 3.105.336 4.639.6 7.804.086.956.419 1.53.858 1.656.44.127.695-.049 1.064-.464a248.977 248.977 0 0 0 4.406-4.972 3.009 3.009 0 0 1 3.004-.903l.565.163 7.51 4.442a1.76 1.76 0 0 1 .996 1.343 1.775 1.775 0 0 1-.57 1.574c-5.004 4.844-7.364 7.364-12.565 12.106a5.504 5.504 0 0 0-1.321 4.569 205.536 205.536 0 0 1 3.036 23.294c.094 1.321-.606 2.096-1.61 1.805a1.846 1.846 0 0 1-.544-.157l-8.639-5.086a5.193 5.193 0 0 1-2.237-4.099c.003-3.383-.066-5.106-.245-8.564-.044-.944-.377-1.517-.879-1.663a1.46 1.46 0 0 0-1.267.384c-2.439 1.929-3.711 2.879-6.382 4.673a4.659 4.659 0 0 1-1.8.638 4.653 4.653 0 0 1-1.903-.141 3.443 3.443 0 0 1-.764-.335l-8.893-5.227c-1.235-.744-1.192-1.912.081-2.634a122.425 122.425 0 0 0 17.338-11.363 5.18 5.18 0 0 0 1.532-4.44c-1.172-8.492-1.781-12.733-2.914-21.282-.187-1.394.376-2.163 1.275-1.903l-.102.039Zm.708-2.135a3.055 3.055 0 0 0-1.539-.077 3.057 3.057 0 0 0-1.38.687 3.844 3.844 0 0 0-1.06 3.668c1.002 7.353 1.589 11.519 2.501 18.006l.432 3.213a3.27 3.27 0 0 1-.697 2.411 121.337 121.337 0 0 1-17.082 11.187 3.755 3.755 0 0 0-2.085 3.213 3.599 3.599 0 0 0 1.96 3.178l4.453 2.627 4.433 2.621c.399.235.826.419 1.27.549a6.789 6.789 0 0 0 5.531-.786c2.168-1.463 3.454-2.385 5.206-3.741.125 2.625.17 4.273.208 7.123a7.357 7.357 0 0 0 3.305 5.974l4.319 2.543 4.319 2.543c.32.198.664.351 1.025.456a3.337 3.337 0 0 0 3.059-.547 3.932 3.932 0 0 0 1.299-3.395 189.705 189.705 0 0 0-2.664-21.209l-.377-2.381a3.69 3.69 0 0 1 .613-2.593c3.848-3.43 6.165-5.644 9.008-8.502l3.708-3.652a3.866 3.866 0 0 0 1.226-3.302 4.15 4.15 0 0 0-2.065-3.05l-7.51-4.442a4.6 4.6 0 0 0-1.031-.434 5.163 5.163 0 0 0-5.258 1.569 143.416 143.416 0 0 1-2.671 3.044c-.16-1.955-.28-3.42-.436-5.782a7.69 7.69 0 0 0-1.086-3.286 7.658 7.658 0 0 0-2.418-2.473l-7.761-4.514a3.442 3.442 0 0 0-.962-.437l.207-.009Z"/></g><g clip-path="url(#clip1_314_264)"><path fill="#00A75C" d="M253.287 158.849a79.432 79.432 0 0 1-16.753-8.259c-8.693-5.162-14.331-8.18-19.247-6.39l-5.939-18.909c12.275-4.36 23.202 2.06 32.863 7.796 6.313 3.76 12.279 7.316 17.61 7.343 5.825.113 11.341-4.029 17.846-8.522 6.842-4.918 14.595-10.51 24.114-11.599 7.865-.852 15.415 1.574 21.989 3.735 5.222 1.725 10.151 3.357 14.532 3.133 7.62-.524 15.38-6.358 24.37-18.718l13.699 12.944c-7.672 10.56-19.815 24.696-36.586 25.589-7.328.42-14.231-1.886-20.33-3.888-5.52-1.837-10.717-3.549-15.276-3.043-5.492.641-10.933 4.56-16.711 8.708-7.607 5.474-16.21 11.672-27.037 11.611a31.546 31.546 0 0 1-9.144-1.531Z"/><path fill="#000" d="M351.126 146.052a32.91 32.91 0 0 1-9.375 1.89c-7.455.466-14.462-1.913-20.628-3.935-5.447-1.797-10.553-3.476-14.916-2.996-5.242.596-10.598 4.463-16.26 8.526-7.717 5.578-16.454 11.868-27.592 11.787a32.38 32.38 0 0 1-9.334-1.486 79.229 79.229 0 0 1-16.996-8.325c-8.438-4.992-13.893-7.943-18.418-6.336l-.971.345-6.561-20.871 1.136-.403c12.55-4.458 23.629 2.127 33.418 7.948 6.216 3.707 12.078 7.191 17.165 7.217 5.496.034 10.993-3.904 17.26-8.444 6.94-4.997 14.791-10.667 24.572-11.762 8.147-.93 15.696 1.562 22.368 3.775 5.13 1.692 9.968 3.291 14.202 3.053 7.327-.42 14.861-6.195 23.642-18.307l.631-.857 15.141 14.266-.558.765c-6.287 8.716-15.541 19.751-27.926 24.15Zm-49.002-6.166a16.796 16.796 0 0 1 3.791-.888c4.747-.552 10.06 1.206 15.696 3.155 6.032 1.983 12.82 4.177 19.982 3.815 15.99-.856 27.703-14.205 35.32-24.419l-12.247-11.583c-8.909 12.026-16.699 17.827-24.453 18.246-4.582.23-9.578-1.422-14.867-3.166-6.465-2.069-13.837-4.58-21.611-3.695-9.269 1.11-16.924 6.557-23.681 11.423-6.756 4.867-12.259 8.851-18.377 8.71-5.581-.047-11.644-3.655-18.079-7.481-9.229-5.453-19.699-11.708-31.167-8.027l5.323 16.966c5.055-1.271 10.693 1.746 19.094 6.751a78.35 78.35 0 0 0 16.595 8.139 30.822 30.822 0 0 0 8.827 1.427c10.541.054 19.009-6.054 26.499-11.443a57.234 57.234 0 0 1 13.355-7.93Z"/><path fill="#00A75C" d="M246.163 204.399a73.226 73.226 0 0 1-10.281-12.063c-5.088-6.923-8.447-11.121-12.642-11.617l.882-15.876c10.513 1.155 16.827 9.891 22.468 17.556 3.582 5.057 7.067 9.8 11.129 11.718 4.348 2.123 9.664 1.238 15.804.193 6.53-1.098 13.928-2.35 21.366.311 6.19 2.167 11.122 6.723 15.464 10.681a39.502 39.502 0 0 0 10.027 7.526c5.835 2.467 13.319.966 23.549-4.764l6.619 14.368c-8.666 4.868-21.831 10.767-34.671 5.331-5.216-2.547-9.999-6.011-14.153-10.251-3.643-3.333-7.06-6.463-10.618-7.731-4.29-1.532-9.489-.667-14.994.263-7.245 1.22-15.454 2.607-23.559-1.367a28.403 28.403 0 0 1-6.39-4.278Z"/><path fill="#000" d="M339.938 228.514c-7.328 2.603-15.957 3.813-24.436.211-5.309-2.562-10.18-6.063-14.409-10.357-3.558-3.254-6.903-6.278-10.296-7.539-4.064-1.46-9.147-.615-14.537.296-7.378 1.245-15.74 2.666-24.113-1.454a29.146 29.146 0 0 1-6.615-4.481 73.937 73.937 0 0 1-10.408-12.215c-4.913-6.68-8.162-10.786-11.991-11.215l-.909-.114.999-17.947 1.007.101c10.841 1.235 17.332 10.148 23.106 17.984 3.546 4.939 6.995 9.563 10.801 11.442 3.806 1.878 9.25 1.079 15.249.105 6.646-1.116 14.159-2.388 21.824.346 6.415 2.305 11.371 6.874 15.768 10.878a37.832 37.832 0 0 0 9.777 7.44c5.567 2.388 12.8.866 22.755-4.699l.886-.49 7.473 16.225-.849.477a74.036 74.036 0 0 1-11.082 5.006Zm-115.707-48.738c4.132.955 7.504 5.192 12.386 11.839a72.607 72.607 0 0 0 10.128 11.9 27.651 27.651 0 0 0 6.183 4.198c7.82 3.771 15.9 2.494 23.01 1.3 5.621-.949 10.931-1.853 15.445-.248 3.747 1.354 7.226 4.549 10.929 7.948 4.074 4.14 8.763 7.52 13.874 10.001 12.072 5.119 24.484-.119 33.064-4.804l-5.771-12.53c-10.046 5.467-17.523 6.857-23.48 4.324a39.472 39.472 0 0 1-10.301-7.69c-4.245-3.906-9.073-8.324-15.123-10.496-7.225-2.563-14.506-1.396-20.903-.258-6.396 1.137-11.742 1.988-16.34-.286-4.19-2.07-7.742-6.897-11.482-12.007-5.337-7.272-11.349-15.482-20.81-17.054l-.809 13.863Z"/><path fill="#00A75C" d="M228.089 233.648a75.71 75.71 0 0 1-4.454-14.132c-1.865-7.741-3.228-12.583-6.563-14.781l6.129-12.348c8.259 5.469 10.617 15.217 12.699 23.863 1.36 5.629 2.641 10.936 5.296 14.227 2.885 3.58 7.668 5.133 13.054 6.996 5.386 1.863 12.35 4.17 17.633 9.54 3.917 4.433 7.038 9.606 9.208 15.259a41.53 41.53 0 0 0 5.766 10.393c4.023 4.508 10.744 6.551 21.181 6.402l.635 14.397c-8.905.108-21.779-.863-30.59-10.785-3.465-4.262-6.27-9.095-8.309-14.314a37.305 37.305 0 0 0-6.222-10.885c-2.984-3.109-7.639-4.642-12.532-6.287-6.41-2.089-13.617-4.658-19.097-11.333a30.472 30.472 0 0 1-3.834-6.212Z"/><path fill="#000" d="m309.701 294.431-.994.004c-9.083.127-22.219-.839-31.316-11.096-3.526-4.299-6.392-9.175-8.491-14.445a36.751 36.751 0 0 0-6.003-10.505c-2.925-2.912-7.452-4.425-12.155-6.05-6.55-2.213-13.983-4.724-19.56-11.648a30.958 30.958 0 0 1-4.01-6.455 74.926 74.926 0 0 1-4.533-14.323c-1.805-7.478-3.119-12.163-6.132-14.17l-.766-.513 7.031-14.175.864.566c8.588 5.68 10.927 15.762 13.118 24.435 1.33 5.53 2.594 10.712 5.096 13.839 2.503 3.127 7.291 4.897 12.592 6.681 5.91 1.982 12.582 4.261 18.029 9.769 4.021 4.51 7.214 9.796 9.408 15.582a40.03 40.03 0 0 0 5.615 10.097c3.816 4.298 10.324 6.242 20.456 6.092l.933-.005.818 16.32Zm-91.335-90.047c3.09 2.591 4.459 7.453 6.239 14.852a73.496 73.496 0 0 0 4.388 13.916 29.26 29.26 0 0 0 3.701 6.041c5.218 6.485 12.353 8.883 18.653 11.011 5.008 1.691 9.718 3.27 12.909 6.524a37.98 37.98 0 0 1 6.41 11.102 52.533 52.533 0 0 0 8.127 14.051c8.246 9.272 20.222 10.496 28.89 10.473l-.545-12.313c-10.156.006-16.907-2.136-20.96-6.742a41.93 41.93 0 0 1-5.948-10.656c-2.116-5.541-5.166-10.614-8.996-14.964-5.125-5.186-11.565-7.373-17.268-9.276-5.703-1.903-10.425-3.521-13.48-7.325-2.794-3.482-4.112-8.907-5.502-14.633-1.937-8.043-4.169-17.247-11.404-22.622l-5.214 10.561Z"/><path fill="#fff" d="M345.877 185.524c5.001-3.566 11.596-1.936 16.837 1.31a32.282 32.282 0 0 1 6.222 5.254c-2.45-4.347-2.175-9.879-1-14.727 1.052-4.324 2.511-8.378 3.337-12.775-2.987 1.061-7.079 2.886-10.287 2.628-4.561-.366-8.195-4.663-11.686-7.701.573 7.502 3.364 21.112-3.423 26.011Z"/><path fill="#000" d="m373.933 199.109-5.744-6.276a30.892 30.892 0 0 0-6.034-5.103c-4.485-2.903-11.024-4.815-15.787-1.333l-1.098-1.793c5.338-3.86 4.195-14.084 3.347-21.553-.124-1.265-.26-2.439-.36-3.495l-.205-2.459 1.776 1.552a80.168 80.168 0 0 1 2.031 1.854c2.834 2.617 5.709 5.371 9.118 5.623a20.597 20.597 0 0 0 7.588-1.757l2.272-.807 1.539-.547-.329 1.711a83.095 83.095 0 0 1-1.966 7.77c-.481 1.677-.999 3.366-1.377 5.05-.946 3.938-1.581 9.554.881 13.94l4.348 7.623Zm-24.522-16.303c4.788-.796 9.679.325 13.745 3.15a28.107 28.107 0 0 1 3.316 2.467 26.143 26.143 0 0 1 .477-11.301c.42-1.743.969-3.465 1.408-5.149.438-1.684 1.098-3.839 1.544-5.831l-.623.222a22.15 22.15 0 0 1-8.424 1.879c-4.018-.319-7.32-3.402-10.245-6.117l-.054-.177c.084.275.059.59.107.878.674 6.374 1.579 14.565-1.196 19.959l-.055.02Z"/><path fill="#fff" d="M324.303 112.168c9.251.883 16.754 9.851 20.692 19.518a59.773 59.773 0 0 1 3.659 13.062c.454-7.931 5.41-14.428 10.928-19.16 4.955-4.183 10.187-7.591 14.924-12.089-4.69-2.045-11.57-4.01-15.492-7.724-5.686-5.292-6.759-14.427-8.735-21.867-5.352 9.912-13.14 29.572-25.976 28.26Z"/><path fill="#000" d="m349.106 153.645-1.398-8.736a58.774 58.774 0 0 0-3.604-12.819c-3.491-8.538-10.578-18.069-19.889-18.887l.159-2.065c10.458.978 17.5-12.764 22.634-22.99.878-1.709 1.676-3.28 2.449-4.668l1.129-2.082.7 2.283c.429 1.398.722 2.887 1.059 4.382 1.498 6.344 3.037 12.89 7.391 17.019 2.864 2.715 7.481 4.523 11.618 6.088 1.267.488 2.491.97 3.588 1.432l1.449.62-1.175 1.137a112.934 112.934 0 0 1-8.985 7.405c-1.975 1.509-4.018 3.064-5.969 4.717-4.581 3.81-10.117 10.142-10.632 18.335l-.524 8.829Zm-19.393-41.129c7.516 3.245 13.137 11.31 16.162 18.726a62.72 62.72 0 0 1 2.717 8.333c2.056-5.902 5.676-11.027 10.413-14.743 1.982-1.686 4.055-3.273 6.049-4.789a151.619 151.619 0 0 0 7.602-6.149l-2.028-.786c-4.265-1.65-9.083-3.518-12.178-6.587-4.797-4.517-6.469-11.693-7.967-18.036l-.493-2.008-1.277 2.462c-4.507 8.825-10.401 20.348-18.939 23.38l-.061.197Z"/></g><defs><clipPath id="clip0_314_264"><path fill="#fff" d="M46.928 0 305.35 74.697 258.421 237.05 0 162.354z"/></clipPath><clipPath id="clip1_314_264"><path fill="#fff" d="m193 130.717 170.934-60.716 56.718 185.02-170.934 60.717z"/></clipPath></defs></svg>