<svg xmlns="http://www.w3.org/2000/svg" fill="none" viewBox="0 0 254 231"><g clip-path="url(#clip0_2_7768)"><path fill="#00A75C" stroke="#000" stroke-miterlimit="10" d="M161.625 203.08c-39.738 9-81.711-18.314-95.678-58.071C44.961 87.883 79.914 25.785 135.854 13.366c46.636-7.447 86.253 17.392 107.24 59.624 18.63 39.733 9.327 89.411-18.655 121.721-23.318 24.84-53.608 37.259-86.254 34.761-39.616-4.973-79.306-29.812-93.224-72.044C30.97 112.723 33.3 60.57 68.643 27.071 79.89 15.209 83.97 11.74 88.367 8.708a75.088 75.088 0 0 1 13.918-7.568c-34.006 19.673-57.324 56.931-61.988 99.163-4.664 62.098 39.617 119.248 97.888 124.196 34.978 2.426 67.599-14.894 90.918-44.706 30.289-44.705 20.986-106.73-20.987-141.588-25.626-19.867-58.296-24.84-86.229-12.42a92.794 92.794 0 0 0-40.582 36.482 92.61 92.61 0 0 0-13.026 52.954c2.308 49.679 48.896 91.934 95.557 76.992a74.616 74.616 0 0 0 40.451-29.019 74.447 74.447 0 0 0 13.157-47.973c-2.429-19.89-6.996-37.259-20.987-49.678-25.626-22.365-65.267-22.365-88.561 7.447a62.787 62.787 0 0 0-2.429 69.545c16.323 22.365 41.949 27.313 62.935 14.893 13.991-9.921 23.319-27.313 20.987-44.705-2.429-24.84-27.982-37.26-48.969-27.314a35.652 35.652 0 0 1 23.909 3.965 35.579 35.579 0 0 1 15.83 18.327c6.995 24.84-16.323 49.679-39.642 44.73-11.635-2.425-20.962-9.945-27.957-19.89a44.409 44.409 0 0 1-2.429-34.76c9.327-29.813 39.617-42.232 65.267-29.813 25.626 14.894 34.953 49.679 23.294 76.992-11.635 24.839-37.285 37.259-65.267 32.311-44.28-9.946-60.725-64.597-39.617-104.306 27.982-47.204 90.917-47.204 121.207-2.425 27.982 44.73 11.659 106.731-33.812 125.19a102.09 102.09 0 0 1-19.578 7.35Z"/><path fill="#E75194" d="M52.588 212.346h-2.09a46.662 46.662 0 0 1-15.035-2.765 46.618 46.618 0 0 1-17.367-12.129 63.041 63.041 0 0 1-14.688-26.156 62.985 62.985 0 0 1-.93-29.974A67.462 67.462 0 0 1 15.16 112.38a67.586 67.586 0 0 1 24.48-20.01 55.665 55.665 0 0 1 23.27-5.045 55.93 55.93 0 0 1 24.22 5.374 55.858 55.858 0 0 1 19.502 15.318c14.89 18.969 16.517 48.756 3.886 70.83a67.669 67.669 0 0 1-24.53 24.398 67.782 67.782 0 0 1-33.401 9.101Z"/><path fill="#000" d="M62.911 88.635a54.472 54.472 0 0 1 23.745 5.212 54.395 54.395 0 0 1 19.102 15.019c14.89 18.993 15.886 48.32 3.79 69.472a66.388 66.388 0 0 1-24.133 23.928 66.498 66.498 0 0 1-32.827 8.867h-2.04a46.582 46.582 0 0 1-14.575-2.619 46.159 46.159 0 0 1-17.002-11.765c-30.169-31.874-16.663-85.603 21.18-103.141a54.375 54.375 0 0 1 22.76-4.851v-.122Zm0-2.304a57.049 57.049 0 0 0-23.804 5.142 68.895 68.895 0 0 0-24.908 20.386 68.773 68.773 0 0 0-12.912 29.463 64.319 64.319 0 0 0 .969 30.526 64.384 64.384 0 0 0 14.941 26.648 48.014 48.014 0 0 0 17.83 12.346 47.865 47.865 0 0 0 15.423 2.79h2.138a69.077 69.077 0 0 0 34.028-9.188 68.965 68.965 0 0 0 25.045-24.772c12.849-22.486 11.173-52.832-3.984-72.189a56.987 56.987 0 0 0-19.963-15.684 57.073 57.073 0 0 0-24.803-5.468Z"/><path fill="#F6C848" stroke="#000" stroke-miterlimit="10" d="M30.314 183.796a224.014 224.014 0 0 1-6.607-7.593 34.48 34.48 0 0 1-3.328-4.851 37.525 37.525 0 0 1-2.429-5.434 24.213 24.213 0 0 1-.996-3.954 18.097 18.097 0 0 1 .219-7.277 48.824 48.824 0 0 1 3.182-8.49c.607-1.358 1.36-2.644 2.016-3.978.656-1.334 1.385-2.911 2.089-4.39.704-1.48 1.384-2.863 2.016-4.318.632-1.456.947-2.426 1.409-3.639.461-1.213.777-2.013 1.117-3.032.608-1.843 1.166-3.711 1.75-5.579l.655-1.916a19.397 19.397 0 0 1 6.291-9.921 37.782 37.782 0 0 1 3.595-2.62 35.516 35.516 0 0 1 4.858-2.62 23.605 23.605 0 0 1 8.939-1.771c3.525-.07 7.049.215 10.517.849 1.935.396 3.848.89 5.733 1.48 1.603.461 3.181.946 4.736 1.528a34.28 34.28 0 0 1 3.328 1.504c1.069.534 2.113 1.14 3.182 1.698a21.105 21.105 0 0 1 6.582 5.943c1.506 2.013 2.818 4.197 4.178 6.355a64.336 64.336 0 0 1 2.43 4.367c.752 1.479 1.287 2.425 1.894 3.76.607 1.334 1.287 2.619 1.846 3.978.729 1.771 1.384 3.59 2.065 5.385.267.752.51 1.504.728 2.28a27.305 27.305 0 0 1 .875 10.673 14.038 14.038 0 0 1-2.696 6.428 82.043 82.043 0 0 1-9.716 10.504c-3.28 3.08-6.753 5.942-10.08 8.975a55.494 55.494 0 0 0-4.859 5.021 39.226 39.226 0 0 1-7.821 6.525c-2.308 1.48-4.591 3.008-6.923 4.463a7.558 7.558 0 0 1-2.016.777 28.498 28.498 0 0 1-9.352 1.309 10.352 10.352 0 0 1-4.129-1.091 54.634 54.634 0 0 1-6.922-4.633 58.38 58.38 0 0 1-6.729-5.482l-1.287-1.31-.34.097Zm40.71-19.77c.704-1.067 1.409-2.062 2.064-3.129.948-1.625 1.895-3.25 2.794-4.851.533-.962.98-1.968 1.336-3.008a25.95 25.95 0 0 0 1.19-6.113 41.71 41.71 0 0 0-.534-9.387 36.81 36.81 0 0 0-1.433-5.337 12.99 12.99 0 0 0-1.094-2.426c-1.263-2.159-2.599-4.245-3.862-6.379a2.978 2.978 0 0 0-1.992-1.456 3.381 3.381 0 0 0-3.193 1.117 3.37 3.37 0 0 0-.62 3.322c.234.59.519 1.158.85 1.698.146.267.389.461.51.728.753 1.625 1.895 2.984 2.624 4.657a24.869 24.869 0 0 1 1.894 6.574c.328 2.412.385 4.853.17 7.277a13.356 13.356 0 0 1-1.141 4.342c-.802 1.65-1.7 3.275-2.575 4.852a11.675 11.675 0 0 1-3.814 4.366 11.476 11.476 0 0 1-6.29 1.965 46.299 46.299 0 0 1-9.717-1.116 3.57 3.57 0 0 0-3.862 1.504 3.168 3.168 0 0 0-.51 2.668 3.417 3.417 0 0 0 2.696 2.717c1.603.315 3.23.655 4.858.825 3.047.549 6.163.615 9.23.194a18.743 18.743 0 0 0 3.79-1.068 13.14 13.14 0 0 0 3.789-2.256c.947-.8 1.894-1.528 2.842-2.28Zm-10.445-49.533a3.751 3.751 0 0 0-2.7-1.258 3.746 3.746 0 0 0-2.765 1.113 4.216 4.216 0 0 0-.146 5.919 3.528 3.528 0 0 0 4.257 1.111 3.51 3.51 0 0 0 1.257-.942 4.136 4.136 0 0 0 1.292-2.956 4.14 4.14 0 0 0-1.22-2.987h.025Zm-21.715 28.478a3.768 3.768 0 0 0-5.587.388 4.41 4.41 0 0 0 .68 6.137 4.085 4.085 0 0 0 5.174-.509 4.411 4.411 0 0 0-.291-6.016h.024Z"/></g><defs><clipPath id="clip0_2_7768"><path fill="#fff" d="M0 0h254v231H0z"/></clipPath></defs></svg>