<svg xmlns="http://www.w3.org/2000/svg" fill="none" viewBox="0 0 253 240"><path fill="#E75194" stroke="#000" stroke-width="2" d="m125.606 78.392.894 1.783.894-1.783 36.109-72.03L150.3 85.818l-.328 1.97 1.774-.918 71.648-37.095-57.476 56.522-1.428 1.404 1.981.298L246.276 120l-79.805 12.002-1.981.297 1.428 1.405 57.476 56.522-71.648-37.095-1.774-.919.328 1.971 13.203 79.454-36.109-72.029-.894-1.783-.894 1.783-36.109 72.029 13.203-79.454.328-1.971-1.774.919-71.648 37.095 57.476-56.522 1.428-1.405-1.98-.297L6.723 120l79.805-12.002 1.98-.298-1.427-1.404-57.476-56.522 71.648 37.095 1.774.918-.328-1.97L89.497 6.363l36.109 72.029Z"/></svg>