<svg xmlns="http://www.w3.org/2000/svg" fill="none" viewBox="0 0 50 50"><rect width="48" height="48" x="1" y="1" fill="#EEB033" stroke="#000" stroke-width="2" rx="24"/><g fill="#000" clip-path="url(#clip0_247_315)"><path d="M34.991 24.273v.452c0 .114-.013.224-.022.335a8.467 8.467 0 0 1-.134.94c-.02.101-.043.187-.07.294-.025.106-.05.186-.078.284-.027.097-.06.187-.09.273-.033.086-.066.187-.102.265-.035.079-.074.17-.113.253a4.908 4.908 0 0 1-.263.476c-.049.075-.095.152-.147.223-.053.07-.105.144-.159.213-.054.069-.112.138-.17.204-.057.065-.119.128-.186.187-.067.057-.127.123-.186.186-.06.064-.114.1-.174.146-.06.047-.12.096-.186.14-.065.045-.127.09-.186.133-.06.043-.133.086-.202.127a7.86 7.86 0 0 1-.209.12l-.218.112-.225.105-.233.097a5.289 5.289 0 0 1-.239.09l-.248.082a5.59 5.59 0 0 1-.253.073c-.086.022-.172.047-.26.067l-.262.058c-.09.019-.186.036-.27.05l-.276.042c-.09.012-.184.023-.28.033H28.05l-.244-.013-.244-.018c-.082 0-.162-.013-.244-.023l-.242-.026-.242-.032-.241-.037-.24-.041a3.959 3.959 0 0 1-.235-.045l-.235-.05-.231-.055-.228-.06-.225-.063-.22-.068-.215-.07-.212-.077c-.07-.024-.138-.053-.205-.079l-.227-.095-.22-.1-.211-.104-.203-.108a2.747 2.747 0 0 1-.196-.112c-.063-.038-.125-.077-.186-.116l-.178-.122-.17-.125a3.4 3.4 0 0 1-.16-.13c-.052-.044-.102-.085-.15-.13-.049-.045-.097-.09-.142-.136-.045-.047-.091-.092-.134-.139a4.193 4.193 0 0 1-.237-.29c-.035-.05-.07-.097-.104-.147a2.344 2.344 0 0 1-.194-.338c-.032-.068-.062-.124-.09-.188-.028-.063-.056-.125-.082-.187-.026-.061-.05-.128-.074-.186-.025-.058-.045-.133-.066-.2a3.264 3.264 0 0 1-.055-.206c-.017-.071-.034-.138-.049-.211a4.089 4.089 0 0 1-.04-.217c-.01-.075-.021-.148-.03-.223a4.6 4.6 0 0 1-.023-.23c-.006-.076-.013-.157-.015-.237-.002-.08 0-.163 0-.245v-.25c0-.085 0-.172.01-.26.009-.088 0-.176.016-.266.017-.09.017-.187.026-.275l.017-.159c0-.052.013-.104.02-.155l.021-.15.024-.147c.01-.049.017-.095.024-.142l.028-.14.03-.135c.01-.045.02-.09.032-.134l.033-.13a2.51 2.51 0 0 1 .036-.125c.013-.04.024-.084.037-.125l.04-.12.042-.12.045-.115c.015-.04.03-.077.046-.114l.049-.112c.063-.136.132-.27.207-.404.076-.131.158-.26.248-.385.09-.126.186-.247.285-.374.099-.127.207-.234.319-.344a6.546 6.546 0 0 1 .734-.628 7.146 7.146 0 0 1 1.303-.754c.157-.07.315-.134.477-.187.162-.052.326-.115.494-.166.168-.05.336-.095.507-.135a7.102 7.102 0 0 1 1.051-.172c.18-.016.357-.03.537-.033.181-.004.36 0 .54 0h.374a8.091 8.091 0 0 1 1.105.181c.173.043.358.092.531.148.174.056.347.116.517.187a8.199 8.199 0 0 1 .973.464c.154.087.303.186.45.278.148.092.288.198.426.305a6.817 6.817 0 0 1 .758.682c.116.122.226.247.33.374a5.42 5.42 0 0 1 .755 1.232 4.361 4.361 0 0 1 .284.892c0 .03.013.06.018.09.006.03.011.06.015.091.004.032.011.06.015.092.004.031.01.061.013.093l.011.093c0 .032 0 .064.01.096.009.032 0 .065 0 .097v.408l.018.172Zm-6.883.656a.117.117 0 0 0 .035 0 .156.156 0 0 0 .039-.011l.04-.021a27.463 27.463 0 0 0 .494-.404c.135-.114.26-.228.383-.344.123-.116.248-.23.373-.359l.44-.424a.517.517 0 0 1 .099-.077.875.875 0 0 1 .242-.105.423.423 0 0 1 .114-.012h.911l.42-.014.488-.015a.234.234 0 0 0 .091-.016.185.185 0 0 0 .07-.041.15.15 0 0 0 .038-.06.137.137 0 0 0 0-.073l-.044-.187-.036-.15-.035-.147-.041-.169a.145.145 0 0 0-.03-.058.288.288 0 0 0-.129-.077.429.429 0 0 0-.085-.012h-.053l-.186.017-.16.013-.16.013-.187.013h-.02a.121.121 0 0 1-.062-.017.04.04 0 0 1-.022-.036.1.1 0 0 1 .02-.052.283.283 0 0 1 .062-.065l.154-.131.135-.112.134-.11.156-.128a.71.71 0 0 0 .144-.176.353.353 0 0 0 .035-.091.168.168 0 0 0 0-.08l-.043-.172-.035-.152-.037-.155-.045-.187a.13.13 0 0 0-.011-.032.121.121 0 0 0-.019-.022.07.07 0 0 0-.026-.013.069.069 0 0 0-.028 0 .087.087 0 0 0-.037 0 .18.18 0 0 0-.041.013.257.257 0 0 0-.043.026.244.244 0 0 0-.045.035l-.4.374-.343.318-.35.301-.4.374a.712.712 0 0 1-.216.129.775.775 0 0 1-.123.036.403.403 0 0 1-.114.01c-.205-.012-.386-.024-.559-.039a14.108 14.108 0 0 1-.964-.116c-.171-.026-.354-.057-.559-.093h-.046a.245.245 0 0 0-.079 0 .148.148 0 0 0-.06.03.104.104 0 0 0-.031.049.12.12 0 0 0 0 .063l.048.206c.015.062.028.12.043.177.015.058.026.114.041.176l.05.208c.008.028.02.054.04.076a.383.383 0 0 0 .168.12c.034.015.07.024.108.028l.216.022.186.015.186.013.215.012c.03 0 .058.007.086.018a.066.066 0 0 1 .037.041.079.079 0 0 1-.013.058.275.275 0 0 1-.065.07l-.187.14-.153.118-.156.117-.187.131a.494.494 0 0 0-.143.17.42.42 0 0 0-.034.096.236.236 0 0 0 0 .088l.049.201.04.172.042.172c.015.06.03.128.046.202a.173.173 0 0 0 .015.038.12.12 0 0 0 .025.028.078.078 0 0 0 .03.017.11.11 0 0 0 .035 0l.019.01Zm4.889 1.82c.026-.04.056-.087.084-.138a3.996 3.996 0 0 0 .152-.31 1.82 1.82 0 0 0 .05-.135v-.16c0-.041 0-.086-.01-.131-.012-.045-.015-.092-.023-.131a1.341 1.341 0 0 0-.033-.151c-.01-.04-.02-.085-.034-.133l-.039-.15-.041-.15-.037-.13-.187-.634a.172.172 0 0 0-.039-.073.246.246 0 0 0-.067-.056.418.418 0 0 0-.088-.037.584.584 0 0 0-.104-.015H32.436l-.053.013-3.728 1.121a.56.56 0 0 0-.27.17.374.374 0 0 0-.063.117.21.21 0 0 0 0 .117l.128.453.04.13.044.148.045.15.04.129s0 .024.018.054.024.071.039.116a2.574 2.574 0 0 0 .108.267l.043.082.02.042v.016c.025.027.058.056.094.088l.12.098.133.093c.041.029.083.056.127.08l.054.028a1.578 1.578 0 0 0 .343.118c.087.02.177.034.267.04h.067c.097.005.195.005.292 0 .1 0 .205-.012.313-.034a5.132 5.132 0 0 0 1.04-.277c.112-.041.217-.084.316-.127.098-.043.186-.092.281-.14a2.772 2.772 0 0 0 .446-.305c.054-.049.1-.093.136-.13.035-.038.063-.074.082-.096l.03-.041M15.354 18.948h1.437c.037.01.074.02.11.034l.11.037.11.043.11.047.108.05.108.055.106.058.105.06.102.065.103.067.099.071.098.075.097.079c.032.026.064.052.093.08l.094.084.087.086.043.043.041.043.041.045.041.045.041.045.04.046c.014.015.028.03.04.047l.04.047.039.047.037.046.04.05.036.046.04.048.037.047.037.047.037.049.04.048.039.049.037.045.035.04c.012.016.025.029.036.042l.035.04.034.035.033.035.032.032.034.032.031.03.034.028.031.028.034.026.032.026.033.024.028.02.026.018.028.018.03.02.028.016.03.019.032.017.031.016.034.019.033.017.036.017.037.018.037.017.041.019.041.019.043.018c.013.075.026.15.037.225l.034.228c.011.076.02.153.028.231.008.079.017.157.024.236a9.876 9.876 0 0 1 .036.482c.003.083 0 .163.009.247.01.084 0 .166 0 .25v.78c0 .09 0 .187-.013.267-.013.08-.01.188-.017.273l-.02.279a18.453 18.453 0 0 1-.056.57h-.082l-.082-.011-.082-.017-.08-.02-.084-.025-.082-.028-.082-.032-.082-.033-.082-.038-.082-.039-.082-.04-.082-.044-.082-.043-.08-.045c-.029-.013-.055-.03-.083-.045l-.08-.044-.132-.075c-.091-.05-.186-.103-.27-.157-.084-.055-.174-.11-.258-.169a3.188 3.188 0 0 1-.248-.187c-.082-.069-.158-.125-.234-.187a3.761 3.761 0 0 1-.226-.201 4.669 4.669 0 0 1-.414-.436 3.117 3.117 0 0 1-.186-.234c-.056-.08-.121-.16-.187-.245-.065-.084-.113-.168-.167-.254a6.087 6.087 0 0 1-.157-.265c-.05-.09-.097-.187-.143-.277a3.667 3.667 0 0 1-.133-.286c-.04-.1-.084-.187-.12-.297-.038-.11-.076-.204-.11-.307a5.66 5.66 0 0 1-.098-.318l-.039-.13a3.293 3.293 0 0 0-.078-.259l-.04-.13-.042-.13-.043-.128-.043-.13-.045-.128-.046-.13c-.017-.042-.03-.085-.047-.128s-.03-.086-.047-.13l-.048-.126-.05-.128-.05-.127-.051-.127a3.58 3.58 0 0 1-.052-.127V19.031a.053.053 0 0 1 0-.019v-.019a.053.053 0 0 1 0-.018v-.134h.363l-.104.107ZM15.154 25.08h.071l.049.012.046.01.05.014.049.015.048.015.05.017.051.018.05.019.05.019.051.02.052.02.05.021.05.02.051.023.052.02.05.023.042.017.04.019.042.018.043.017.04.017.044.019.04.017.043.017.041.016.043.017.041.015.041.015.043.015.041.013.041.013.041.013.088.025.087.026.09.026.088.026.087.028.088.028.087.03.088.032.088.032.085.035.086.036.084.037.086.041.082.041c.028.015.056.03.082.047l.082.047.078.05.078.055.075.054.073.058.072.058.07.06.068.061.066.062.065.063.061.064.062.064.06.063c.018.022.038.043.057.064l.056.063.054.064.052.061v.012l.01.01v.012a.033.033 0 0 1 .009.013l.01.011v.012l.009.01v.012l.009.011v.011l.01.012v.01l.008.012v.011l.01.012v.01l.037.047.038.047.039.047.037.047.04.045.042.044.043.044.044.042.049.04.048.039.053.035a.536.536 0 0 0 .054.036l.056.032.06.028.063.024c.021.01.044.017.067.023a.233.233 0 0 1 0 .039.458.458 0 0 1 0 .052V28.961c0 .05 0 .105-.013.16-.013.053 0 .111-.011.171-.012.06-.012.118-.015.187-.004.07-.012.125-.017.187l-.02.204-.012.123-.011.122-.011.123c0 .041-.01.082-.013.123l-.013.124-.012.125c0 .041-.009.082-.013.123-.003.042-.009.085-.013.126-.003.04 0 .082-.013.125s-.009.084-.013.125c-.004.041-.01.084-.013.127-.003.043 0 .084-.013.127-.013.044-.01.087-.015.13a2.88 2.88 0 0 0-.013.127c-.003.043-.01.086-.013.129l-.015.13H19.274l-.028-.009h-.026l-.026-.01h-.026l-.028-.009-.254-.102-.244-.105-.237-.107-.225-.106c-.075-.038-.15-.073-.22-.11l-.211-.113-.201-.114-.187-.117a4.478 4.478 0 0 1-.186-.12 5.494 5.494 0 0 0-.187-.122c-.065-.04-.115-.082-.171-.125l-.164-.127-.159-.13-.15-.134-.144-.138c-.047-.045-.093-.093-.138-.14l-.097-.107a2.563 2.563 0 0 1-.091-.108c-.03-.037-.06-.071-.086-.107l-.041-.222c-.026-.036-.05-.073-.075-.11l-.067-.113a1.684 1.684 0 0 1-.061-.112 1.278 1.278 0 0 1-.056-.114c-.017-.04-.035-.076-.05-.116a1.262 1.262 0 0 1-.045-.116l-.04-.117a2.854 2.854 0 0 1-.057-.24l-.022-.121c-.008-.041-.012-.082-.015-.124-.004-.04 0-.082 0-.125V26.523a.26.26 0 0 1 0-.037.21.21 0 0 0 0-.035V26.378a.232.232 0 0 0 0-.038v-.035a.26.26 0 0 1 0-.038V25.08h-.105ZM33.15 31.156v.297l.01.075.012.075.011.076c0 .025.01.05.013.077.004.026.011.052.015.079l.017.078.017.08c0 .027.01.055.018.083.008.028.013.054.019.082l.022.086.023.086c0 .03.016.06.024.09l.028.095H34.926l.026-.01.026-.009.028-.013.026-.015.028-.017.015-.01.013-.01.015-.011.013-.012h.013l.013-.01.013-.012.013-.011.013-.011.012-.011.013-.012.013-.013.01-.011.012-.011.011-.011.013-.012h.01v-.01h.019v-.008h.008v-.01h.028v-.01h.019l.019-.01.017-.011.018-.012.019-.01h.02l.019-.008H35.813l.032.009h.032l.03.013.031.013.03.015.028.017.028.017.026.02.026.02.024.021.023.023.022.024.034.043.031.047c0 .017.019.034.026.05a.453.453 0 0 1 .043.107.522.522 0 0 1 .03.112.508.508 0 0 1 0 .058v.3c0 .02-.01.038-.015.057a.514.514 0 0 1-.019.058.522.522 0 0 1-.022.058l-.03.062-.033.06-.038.057-.04.055-.045.054c-.017.017-.032.033-.049.048a.577.577 0 0 1-.048.047l-.054.043a.548.548 0 0 1-.054.04l-.056.037-.058.03a.331.331 0 0 1-.058.028.398.398 0 0 1-.06.022l-.06.019-.059.013h-.06.055H34.029l.036.019.022.022.02.03h-.026l-.03.037-.063.025-.063.024-.062.024.025.068c0 .024.016.046.026.069l.026.067c0 .023.017.043.026.066.01.022.015.044.024.067l.026.065c0 .023.017.043.025.066.007.022.016.043.026.065l.024.064c0 .022.017.043.024.065.008.023.017.041.026.064.01.022.017.04.024.063.008.023.017.041.026.064l.025.062c0 .02.017.04.024.063.007.023.017.041.024.062l.02.048.02.05c0 .016.012.033.02.05l.019.05.02.05c0 .017.013.034.02.05l.02.051c0 .017.014.034.02.05a.628.628 0 0 0 .02.053l.02.05a.427.427 0 0 0 .021.053l.019.052.02.053c0 .017.013.035.02.052l.021.054c0 .017.013.036.02.054l.034.09H36.63c.047.066.091.135.132.206a3.033 3.033 0 0 1 .194.398c.026.066.05.127.072.187l.07.187c.022.062.044.123.065.187.02.064.039.121.058.187.018.065.037.12.054.187.016.067.033.118.048.187s.03.116.045.174c.015.058.026.114.037.172l.032.168.028.168c.009.054.013.112.018.166.006.055.012.11.015.165.004.054 0 .108 0 .16H30.626l-.295-.01c0-.072-.01-.144-.015-.215-.005-.072 0-.142-.015-.215-.015-.073-.013-.142-.018-.214l-.02-.213c-.008-.07-.014-.144-.021-.215l-.025-.213-.024-.211c-.007-.07-.018-.142-.026-.213l-.028-.211-.028-.212-.028-.209-.028-.21-.031-.209c-.012-.069-.02-.138-.03-.207a7.789 7.789 0 0 1-.03-.208c-.01-.069-.02-.138-.032-.207l-.028-.199c0-.067-.018-.132-.03-.2l-.027-.198c-.012-.067-.021-.134-.03-.2l-.028-.202-.028-.202-.028-.201c-.01-.068-.017-.135-.026-.202-.01-.068-.017-.137-.024-.204l-.025-.204-.022-.204c0-.067-.015-.134-.02-.203-.006-.07-.016-.137-.021-.204l-.019-.206-.017-.204c0-.069 0-.136-.013-.205l.08-.015.082-.015.083-.015.082-.017.083-.017.082-.017.082-.016.082-.017.082-.017.082-.017.08-.019.083-.016.082-.02.08-.016.08-.017.08-.018.142-.03.142-.032.141-.03.142-.032.143-.03.144-.028.143-.03.144-.028.143-.026.144-.026.145-.024.144-.023.144-.022.145-.02.143-.02.15-.465ZM17.11 32.334h.261l.085.01.084.012.086.015.084.017.082.019.082.02.082.023.082.024.08.026.078.028.08.03.077.032.078.035.023.012.024.01.024.012.024.011.023.011.024.012.022.013.024.011.025.013.022.011.024.013.023.012.024.013.024.013.023.011.022.011.05.028.052.026.05.027.053.028.05.024.052.026.053.024.052.025.052.024.054.023.054.02.054.02.056.02.054.016.056.017.058.015c-.02.1-.043.202-.065.303-.023.1-.045.202-.07.3-.024.1-.048.203-.074.302-.026.099-.05.2-.078.3-.028.102-.054.199-.084.298l-.088.297-.091.296c-.03.099-.065.186-.097.293-.032.107-.067.187-.102.292l-.107.291c-.035.096-.072.187-.111.288l-.116.288c-.041.101-.078.187-.12.286-.04.1-.081.187-.122.282l-.13.283-.133.278-.034.07a1.303 1.303 0 0 1-.035.07l-.036.07-.035.069-.037.067-.04.066-.039.067-.043.064a.736.736 0 0 1-.042.063.705.705 0 0 1-.047.06.707.707 0 0 1-.047.06l-.05.056a.723.723 0 0 1-.052.054.74.74 0 0 1-.054.052c-.017.017-.037.032-.056.049l-.06.045-.074.048-.079.045-.082.038-.082.035-.085.028-.09.026-.09.02-.09.018-.096.015-.095.01h-2.093l-.216-.014-.21-.015-.206-.02-.201-.023-.187-.024-.186-.028-.186-.032-.187-.036-.175-.037-.173-.041-.166-.045-.164-.047-.16-.05-.157-.054-.155-.058c.017-.034.032-.068.047-.101.014-.034.031-.068.046-.101l.045-.103c.015-.034.03-.067.043-.101l.045-.103.043-.103.04-.102.043-.102a1.68 1.68 0 0 1 .041-.102l.04-.103c.012-.036.027-.07.04-.103l.04-.103.039-.103.039-.102.04-.101.038-.103.03-.077.028-.076a.916.916 0 0 0 .03-.077l.03-.077c.009-.026.018-.052.03-.076.01-.025.018-.053.03-.079.01-.026.018-.05.03-.077l.029-.076.032-.079c.009-.026.02-.052.03-.076l.031-.079.03-.077.032-.076.031-.077c.011-.026.023-.05.032-.077l.034-.076c.04-.097.084-.187.126-.284.043-.097.088-.187.13-.273.044-.086.09-.176.137-.26.046-.084.091-.166.138-.247.046-.08.095-.157.143-.234a5.06 5.06 0 0 1 .148-.22c.05-.071.1-.142.15-.21.051-.067.105-.132.157-.187.052-.054.106-.123.16-.186.055-.064.11-.116.165-.172.054-.056.113-.109.17-.16a3.27 3.27 0 0 1 .36-.283c.07-.045.122-.085.187-.124.065-.04.125-.075.187-.11.061-.036.128-.07.186-.101l.06-.028.06-.026.06-.026.062-.025.062-.022.061-.023.064-.022.063-.02.063-.02.064-.016.065-.017.065-.015.066-.015.065-.015.067-.011.065-.011H17.121l-.011-.03ZM22.105 30.48l.263.033.263.037.259.038.259.04.255.046.256.046.253.049.254.052.251.055.252.056.252.06.251.063.252.066.252.069.253.07.254.075v1.291a.059.059 0 0 0 0 .018v.019l.015.015a.07.07 0 0 0 .016.017l.02.014.025.015.03.014.035.013.041.015.047.013.054.015.06.013.067.015.076.015H27.056a.202.202 0 0 0 .047 0H27.768l.017-.01h.013l.011-.009.01-.011.024-.026.022-.029.02-.026.02-.026.04-.052a.249.249 0 0 1 .03-.032l.022-.022.02-.015.02-.011.022-.014h.02l.025-.009.022-.01H28.46l.035.01.035.013.036.015.033.015.032.019.03.02.028.023.028.024.024.026.022.028.02.032.016.034v.03a.037.037 0 0 1 0 .015v.601c0 .014 0 .029-.01.042l-.01.039a.321.321 0 0 1-.014.04l-.013.035c0 .013-.01.024-.015.035l-.016.036a.306.306 0 0 1-.02.033l-.027.049c-.01.017-.02.03-.03.045l-.031.04-.032.033a.242.242 0 0 1-.032.03.243.243 0 0 1-.035.026l-.036.022-.035.019-.04.015-.038.013h-.498l-.08-.01h-.16l-.083-.01-.084-.012-.083-.013-.086-.011-.086-.013-.087-.013-.088-.015-.09-.013-.09-.017-.094-.015-.093-.015-.097-.017-.097-.017-.172-.03.017.178V35.652l.015.13h1.432l.128-.01.13-.011.131-.012.133-.01.134-.012.134-.013c0 .048.017.095.026.144.01.048.017.097.024.146l.024.145.025.148.024.15.022.15c0 .05.013.1.02.15.008.051.016.102.021.152l.019.153.017.154.017.155c0 .052.009.105.013.157.003.052 0 .105.013.157.013.052 0 .106.009.159.01.052 0 .106 0 .159v.16l-.349.055-.346.048-.345.04-.345.031-.345.025-.345.018-.343.013h-2.072c-.118 0-.233 0-.35-.01l-.351-.012-.355-.013H21.527l.578-7.869Z"/></g><path fill="#000" d="m25.417 7.5 4.69 8.125h-9.381l4.69-8.125Z"/><defs><clipPath id="clip0_247_315"><path fill="#fff" d="M11.667 18.333H37.5v20.833H11.667z"/></clipPath></defs></svg>