<?xml version="1.0" encoding="utf-8"?>
<!-- Generator: Adobe Illustrator 26.1.0, SVG Export Plug-In . SVG Version: 6.00 Build 0)  -->
<svg version="1.1" id="圖層_1" xmlns="http://www.w3.org/2000/svg" xmlns:xlink="http://www.w3.org/1999/xlink" x="0px" y="0px"
	 viewBox="0 0 532.9 301.6" style="enable-background:new 0 0 532.9 301.6;" xml:space="preserve">
<style type="text/css">
	.st0{fill:#EEB033;}
	.st1{fill:#FFFFFF;}
	.st2{fill:#231815;}
</style>
<g id="a">
</g>
<g id="b">
	<g id="c">
		<g>
			<g>
				<path d="M218.4,35l1.2,3.4l1.2-1.4v22h11.5V48.8c1.6,0.9,3.5,2.2,4.4,2.9l1.8,1.5l0.8-1.2c0.7,1.7,1.3,3.8,1.5,5.1l0.3,1.8h1.9
					c3.2,0,6.6-0.2,9.3-1.8c3.3-1.9,3.8-5.3,3.8-8.7V43c0.7,2.5,1.1,5,1.3,6.9l0.2,2.7l2.6-0.9l7.4-2.6l1.7-0.6l-0.2-1.7
					c-0.7-4.5-2.4-10.5-4.5-15.4l0.4,0.1l2,0.4l0.4-2c0.1-0.4,0.2-0.9,0.3-1.4l1.7,0.9c4.6,2.6,7.8,4.4,9.2,5.5l0.4,0.3
					c-3.1,6-6.5,11.5-8.5,14.5l-1.1,1.6l1.5,1.2l6.1,5.2l1.9,1.6l1.3-2.2c1.1-2,2.3-4,3.4-6.1c0.7,1.3,1.5,4.2,1.8,6l0.5,3.3
					l2.8-1.8c1.1-0.7,3.5-1.5,12.6-3.6c1.2,2.5,3.6,3.8,8.1,3.8h4.2c5.8,0,7.9-3.4,8.8-8.7h9.7v-4.8h4.2c-0.9,2.2-2.1,4.1-3.5,5.7
					l-1.5,1.8l1.9,1.4c1,0.7,3.1,3,3.8,4l1.5,2.3l1.8-2c1-1.1,1.9-2.2,2.7-3.5c0.1,0.7,0.2,1.4,0.2,1.9l0.1,2l2,0.1c0.5,0,1,0,1.4,0
					c1.2,0,2.5-0.1,3.9-0.5c1.6-0.4,2.8-1.2,3.8-2.5v3.2h10.5v-7.4c0.6,0,1.2-0.1,1.7-0.2h0.1c1.6-0.3,2.8-0.9,3.8-1.7
					c1.7-1.4,2.6-3.7,2.9-7.2l0.6,0.2c2,0.8,5.4,2.5,7.1,3.7l1.7,1.2l0.2-0.2l1.3,2.2c1.1,2,2.4,5.4,2.8,7.3l0.3,1.7h1.7
					c0.4,0,0.8,0,1.2,0c5.6,0,8.9-0.5,11.5-1.6c4.3-2,4.9-5.8,4.9-9.7v-25l0.2,0.4c4.3,8.4,7.7,17.9,8.6,23.6l0.4,2.6l2.5-1l8.4-3.3
					l1.6-0.7l-0.3-1.7c-1.4-7.4-6.1-17.4-10-24.4l-0.9-1.6l-1.7,0.6l-7.5,2.8l-1.3,0.5V5.6H394v41.3c-0.4,0-0.9,0-1.5,0
					c-2.2,0-4.5-0.1-6.3-0.2l-2.5-0.2l0.3-0.4c3.5-4.9,6.5-13,9.1-24.6l0.5-2.2l-2.2-0.4l-8.7-1.5l-2.1-0.4l-0.3,2.1
					c-0.9,6-3.2,14.7-6.8,19.8c-0.1-3.1-0.6-6.7-2.3-10.6c0.8-3.4,1.9-8.8,3.3-16.5l0.3-1.5l-1.3-0.8l-4.6-2.6L368,6.7l-0.8,0.2
					l-0.6,0.2h-30.2v2.2h-14.1v36.5l-1.2-0.3c-1.3-0.3-3.1-1-4.4-1.6h4.2V33.3h-9.1v-1.8h6.5V7.1h-33.6V9c-2.5-1.3-5-2.7-6-3.2
					L277.1,5L276,6.5l-4,5.6l-1.4,1.9l2,1.2c0.5,0.3,1,0.6,1.5,0.9c2.6,1.6,5.9,3.6,7.5,4.9l1.8,1.4l1.3-1.9l0.1-0.2V25
					c-2.4-1.4-6.5-3.4-9.4-4.8l-1.6-0.8l-1,1.5l-3.9,5.7l-0.7,1.1c0.6-3,1.3-6.9,1.8-10.6l0.3-2l-2-0.4l-5.4-0.9l-0.4-0.1l-0.4,0.1
					l-1,0.2H248c0.5-1.4,0.9-2.8,1.4-4.4l0.6-2.2l-2.2-0.5L240,5.1l-2-0.5l-0.5,2c-0.1,0.4-0.2,0.8-0.3,1.2l-1.4-0.4l-7.2-2.3
					l-2-0.6l-0.7,1.9c-2.4,6.9-6.6,13.9-10.9,18.3l-1.2,1.2l1,1.4C215.9,29.1,217.8,33.2,218.4,35L218.4,35z M285.1,31.5v3.6l-2-1.9
					l-0.4-0.4l1.8-2.7v1.4C284.5,31.5,285.1,31.5,285.1,31.5z M296.9,33.2v-1.7h3.2v1.7H296.9z M296.9,45v-1.2h3.2v0.6L296.9,45z
					 M311.7,48.1v-4.2h0.4v0.9c0,0.7-0.1,2.3-0.2,3.3H311.7L311.7,48.1z M235.2,32.4c-0.7,3.1-1.7,6.1-2.9,8.5v-11
					c1,0.8,1.9,1.7,2.6,2.3L235.2,32.4L235.2,32.4z M244.3,25.2v5.1l-4.3-0.9c0.9-1.3,1.8-2.7,2.6-4.2H244.3z M242.3,47.2
					c0.7-1.4,1.3-2.9,1.9-4.4v4.5C243.7,47.2,243,47.2,242.3,47.2z M256.1,30.1v-4.9h1c-0.1,1.2-0.3,2.2-0.4,3l-0.2,1.8L256.1,30.1
					L256.1,30.1z"/>
				<path d="M430.6,24v4.5c0,6.6-0.6,15.2-5.6,23l-1.2,1.8l1.8,1.1c1.6,1,3.9,2.7,5.1,3.9l1.8,1.9L434,58c0.5-0.7,0.9-1.3,1.3-2
					c0,0.1,0,0.3,0,0.4l0.1,2h2c0.5,0,1,0,1.5,0c1.9,0,3.3-0.1,4.4-0.3c2.3-0.5,3.8-1.5,5.1-3.4c0.2-0.2,0.3-0.5,0.5-0.8
					c0.8,1,1.7,2.4,2.1,3.2l1.1,2.7l2.2-1.8c0.9-0.8,3.3-1.8,12.1-5.3l0.2-0.1c1.2,1.8,2.5,3.3,4.1,4.7l2,1.7l1.2-2.3
					c1-1.9,3.2-4.6,4.6-5.7l2.1-1.7l-2.2-1.6c-2.1-1.6-3.8-4-5.2-7.4c1.6-1.3,3.2-2.8,4.7-4.3c1.4,1.6,3.7,4.6,4.6,6l1.3,2l1.7-1.4
					V59h11.9V30c0.2-0.3,0.4-0.5,0.6-0.8v4.7h14.4V47c-2.5,0-4.5-0.1-6-0.2l-3.5-0.2l1.5,3.2c0.9,2.1,1.9,5.2,2.1,7.2l0.2,1.9h1.9
					c4.7,0,8.4-0.1,11.4-1.5c4-1.8,4.5-5.4,4.5-9.1V33.8h6.9V22.3h-28.8l1.2-2.1l-2.3-0.9l-0.2-0.1h28.8V7.7h-29.8v0.5L500,8.1
					L492.6,5L491,4.3l-1,1.4c-2.4,3.5-7.2,8-11.2,10.5l-0.2,0.1v-5.6h-15c0.2-0.7,0.4-1.3,0.5-2l0.5-2.2l-2.2-0.4L455,4.7l-2.1-0.4
					l-0.4,2.1c-0.4,2.2-1.1,4.3-1.8,6.2h-5.1c-0.5-2.1-1.6-4.8-2.6-6.9l-0.8-1.6l-1.7,0.5L434,6.8l-2.3,0.7l1,2.2
					c0.4,0.9,0.8,2,1.1,3H426V24H430.6L430.6,24z M478.6,19.9c1.1,1.4,2.8,3.9,3.6,5.5l1.1,2.1l1.9-1.3h0.1c-2.2,2.4-4.6,4.5-7,6.2
					l-4.3-3.9c1-0.4,1.9-0.7,2.8-1.1l3-1.3l-2.4-2.2l-2-1.8h3.2L478.6,19.9L478.6,19.9z M461.2,43v-4.2c0.3,1.3,0.6,2.6,0.9,3.8
					L461.2,43z M500.5,17.1v1.7l-4.6-1.8c1.7-1.7,3.2-3.5,4.6-5.3V17.1L500.5,17.1z"/>
				<path d="M205.6,123.6c5.8,0,8.4-3.3,9.7-8.1l0.8,1.2c1.1,1.7,2.2,4.8,2.7,6.7l0.4,1.8l1.8-0.2c18.5-1.6,38.6-5.8,47.2-24.6
					l0.5-1.1v0.5h11c-0.7,6.6-2.4,11.3-11,14.5l-3.4,1.3l2.8,2.4c1.5,1.2,3.4,3.8,4.1,5.5l0.8,1.9l1.9-0.8
					c13.6-5.5,16.3-15.1,17.3-24.7h2.8v12.5c0,9.7,4,11.6,10.5,11.6h5.7c5.4,0,8-2.4,9.3-6.8c1.4,1.8,3.4,4.9,4.1,6.4l0.8,1.7
					l1.8-0.5c8.1-2.2,14.8-5.4,20.4-9.5c5.5,4.1,11.9,7.1,19.5,9.1l1.6,0.4l0.8-1.4c1.1-2.1,3.3-5.2,4.8-6.6l2.8-2.8l-3.9-0.8
					c-6.3-1.4-11.8-3.6-16.5-6.6c3.5-4.4,6.3-9.5,8.5-15.4h7.1l-0.7,0.6l1,1.6c1.2,1.8,3.1,5.9,3.7,7.6l1.1,3l2.3-2.2
					c0.1-0.1,0.2-0.2,0.3-0.3V125h11.5V86c1.6-2.8,2.9-5.4,4-7.8v33.1c0,10.6,4.1,12.7,11.3,12.7h8.1c9.6,0,11-7.3,11.6-16.2
					l0.1-1.8l-1.8-0.4c-1.7-0.4-4.4-1.7-5.9-2.8l-3.2-2.4l-0.2,4c-0.1,2.7-0.4,7.8-1.1,8.6c0,0-0.1,0-0.2,0h-6.6c-0.2,0-0.4,0-0.5,0
					c0-0.3,0-0.9,0-1.6V96.3h18.2v-2.7l0.5,0.3c2,1.1,5.2,3.2,6.5,4.4l0.3,0.3v8.5h13.6v4.8h-19.9v11.7h52.1V118l0.9,0.7l6.5,5.2
					l1.9,1.5l1.3-2.1c2.8-4.6,5.5-9.4,8-14.3v15.8h11v-2.1h9.9v1.9h11.5V98.9h-10.6v-1.3h12.8V86h-12.8v-2.3
					c3.4-0.8,6.6-1.8,9.7-2.9l3-1.2l-2.2-2.3l-5.8-6l-1-1l-1.3,0.6c-5.2,2.2-13.9,4-23.4,4.9l-1.7,0.2c-2.1-1.2-4.9-2.6-7.1-3.7
					l-1-0.5l-1.6-0.8l-1.1,1.4l-4.3,5.5l-1.5,1.9l2.1,1.2c0.8,0.5,1.7,1,2.6,1.6c2.5,1.4,5.2,3.1,6.6,4.1l1.7,1.3l1.3-1.7l3.3-4.5
					c0.4,1.1,0.6,2.2,0.8,3L498,86h-4.1v4.4c-2.7-1.4-6.5-3.2-8.9-4.3l-1.6-0.7l-1,1.4l-4.1,5.7l-1.4,2l2.2,1.1
					c4.2,2.2,7.3,4,9.1,5.1c-3.3,6.2-7,12-9.3,15.1l-0.5,0.7v-4.7h-20V107h15.1V95.4h-15.1v-3.8h17.2V79.9h-17.2v-9.1h-12.2v2.8
					l-1.8-0.4l-7.9-1.8l-2-0.5l-0.5,2c-1.8,7.1-5.1,13.8-8.6,17.6v-5.8H407V71.8h-11.6v1.8l-0.4-0.2l-7.1-2.4l-1.9-0.7l-0.8,1.9
					c-2.6,6.6-7,13.2-11.6,17.5V79.4h-18c-0.7-2.5-2.2-5.9-3.4-8.2l-0.8-1.5l-1.7,0.5l-8.2,2.4l-2.4,0.7l1.1,2.2
					c0.5,1.1,1.1,2.5,1.5,3.8h-20.9V91h9c2.5,6.1,5.4,11.2,8.8,15.6c-4.7,3-10.3,5.2-17.2,6.8h-0.2c0.2-1.2,0.3-2.6,0.4-4.1l0.1-1.8
					l-1.7-0.4c-2-0.5-5-1.7-6.2-2.8l-3.3-2.7l-0.1,4.2c-0.1,1.9-0.2,5.2-0.5,6.6h-2.7c0-0.1,0-0.2,0-0.2V99.9h13.4V88.3h-51.8v10.3
					l-1.4-0.8l-5.3-3l-0.8-0.4l-0.8,0.2l-1.1,0.3H257l2.1-2.5l-3.4-0.8l-2.8-0.6c3.7-3,6.7-6.4,8.8-10.3l1-1.8l-1.8-1.1l-5-2.9
					l-0.8-0.4l-0.8,0.2l-1,0.2H249l1.4-1.5l-3.6-0.8l-8.2-1.9l-1.2-0.3l-0.8,0.9c-3.8,4.2-10.1,7.9-17.6,10.5l-4,1.4l3.5,2.4
					c1.4,0.9,3.5,3.2,4.6,4.8l0.8,1.2c-1.8,0.3-3.6,0.7-5.5,0.9l-3.7,0.5V82.7h-13.2v-11h-12.2v32.1l-1.6,0.5V71.6h-12.2v11.2H164
					V88h-15.2v-3.4c3.8-0.8,8.7-2,13.1-3.8l3-1.2l-2.3-2.3l-5.8-5.6l-1.1-1l-1.3,0.7c-3.5,1.7-9.3,3.5-15.2,4.6h-7.3
					c-0.5-1.4-1.1-2.9-1.6-4.3l-0.7-1.7l-1.8,0.4l-7.7,1.8l-2.3,0.6l0.8,2.2c0.1,0.3,0.2,0.6,0.3,1h-7.6v10.4h2.7
					c0.1,0.3,0.2,0.7,0.3,1.2h-3.4v-4.1h-1.5v-8.7H90.7V71H78.4v3.8H59.8v8.7h-1.5v15.8h7c0.4,1.3,0.9,2.8,1.2,3.8
					c-1.4,0.5-2.5,0.7-3.7,0.9l-2.6,0.4l0.9,2.5c0.6,1.6,1.5,4.6,1.7,5.8l0.2,1.2c-1.3,0.6-2.6,1.2-3.9,1.7l-0.5,0.2l2.2-1.9
					l-2.9-1.4c-2.1-1.1-4.3-2.5-6.2-4.1h5.8V97h-1.3c0.1,0,0.2-0.1,0.2-0.1l1.5-0.6l-0.2-1.7c-0.1-1-0.2-2.5-0.3-3.9
					c-0.1-0.9-0.1-1.7-0.2-2.3l0,0h0.2V73H21.6v-2.2H10.4v9.6H5.7v11.2h4.6v4.6c-1.4,0.4-2.7,0.7-3.8,1l-2.1,0.5L5,99.8l1.7,7.3
					l0.5,2.3l2.2-0.8l0.9-0.3v4.9c-0.8,0-1.7,0-2.6-0.1l-3.5-0.2l1.4,3.2c0.8,1.8,1.6,4.8,1.7,6.4l0.2,1.9h1.9c0.2,0,0.5,0,0.7,0
					c3.8,0,6.2-0.5,8.1-1.8c1.7-1.1,2.5-2.6,2.9-4.3c0.9,1.1,1.8,2.2,2.3,3.1l1.1,1.8l1.8-1c2.2-1.2,4.3-2.8,6.2-4.8v7.5h11.8v-8.3
					c2,2,4.2,3.8,6.4,5.1l1.8,1.1l1.1-1.8c0.6-1,1.7-2.4,2.8-3.6l2,1.5c1.5,1.1,4.2,3.6,5.4,4.9l1.1,1.2l1.4-0.8
					c2.3-1.2,4.8-2.7,7.1-4.3c0.4,1.2,0.8,2.3,1,3.2l0.4,1.7h1.7c4.2,0,7.4-0.1,10.2-1.3c3.3-1.4,4.3-3.9,4.5-6.6
					c3.6,2.2,7.7,4.9,9.7,6.8l1.2,1.1l1.4-0.9l6.3-4.2l1.9-1.3c1.1,0.7,2.4,1.6,3,2.2l1.9,1.6l1.3-2.1c0.6-0.9,1.2-2.1,1.8-3.2v7.6
					h11.7v-8.4c0.1,0.2,0.2,0.4,0.3,0.6l0.8,1.9l-0.4,0.6l2.1,1.1c1.3,0.7,4.2,2.9,5.3,4l1.8,2l1.5-2.3c2.3-3.5,3.9-8.4,4.7-14.7
					v15.5h11.7V99.3h4.4v-4.6h11.3v13.7c-4.6,1.5-8.8,2.8-11.9,3.7l-2.4,0.7l1,2.2l3.4,7.9l0.8,1.9l1.9-0.7
					c6.6-2.5,14.3-5.6,21.4-8.5c1.1,6.7,4.8,8.2,10.2,8.2L205.6,123.6L205.6,123.6z M496.9,100.9v2.6l-4.5-4l1.5-2.2v0.2h13.5v1.3
					h-10.5V100.9z M507.3,85.7V86h-2.1C505.9,85.9,506.6,85.8,507.3,85.7z M508,111.6V110h9.9v1.6H508z M342.5,91h9.2
					c-1.2,2.7-2.6,5.2-4.3,7.4C345.6,96.2,343.9,93.7,342.5,91L342.5,91z M437.1,95.3c0.8-1.1,1.5-2.4,2.3-3.8h6.7v3.8H437.1
					L437.1,95.3z M446.1,74.8v5h-1.5c0.5-1.4,0.9-2.8,1.3-4.1L446.1,74.8z M246.5,105.8h2.1c-0.4,0.3-0.8,0.5-1.2,0.8
					C247.1,106.3,246.8,106,246.5,105.8z M240.3,85.7h0.2H240.3L240.3,85.7L240.3,85.7z M228.4,89.8c0.2,0.1,0.3,0.3,0.5,0.4
					c-1,0.3-2,0.5-3.1,0.8C226.7,90.6,227.6,90.2,228.4,89.8L228.4,89.8z M234.8,110.8c0.1,0.1,0.3,0.2,0.4,0.4
					c-0.9,0.2-1.8,0.4-2.7,0.6C233.4,111.4,234.1,111.1,234.8,110.8L234.8,110.8z M216.9,95.8c1.1,1.4,2.5,4.2,3.2,6l0.6,1.7
					l1.4-0.2l-1.8,0.5l3.1,2.6c1.3,1.1,3.3,3.6,4.1,5.2l0.4,0.8c-3.1,0.4-6.4,0.7-10.1,0.9l-2,0.1c0.4-2.3,0.6-4.8,0.8-7.4l0.1-1.8
					l-1.8-0.4c-1.7-0.4-4.8-1.8-6.4-3.1l-3.3-2.7l-0.1,4.2c-0.1,3-0.3,7.9-0.7,9.4h-2.9c0-0.5,0-1,0-1.3V94.4h13.2v-1.6L216.9,95.8
					L216.9,95.8z M112.8,107.3h0.5c-1,2.6-2.3,5.2-3.6,6.9l-0.7,1.1c-1-0.7-2.2-1.5-3.5-2.3l3.7-2.5l1.9-1.3l-1.4-1.8
					c-1.9-2.5-5.3-5.8-8.4-8.6h9.4v8.3L112.8,107.3L112.8,107.3z M124.9,86.1h0.5c-0.1,0.2-0.2,0.5-0.3,0.7
					C125,86.6,125,86.4,124.9,86.1z M137.2,86.1v1.2h-0.7c0.2-0.4,0.3-0.8,0.5-1.2H137.2L137.2,86.1z M98.9,93.8v0.5l-0.6-0.5H98.9z
					 M32.6,96.7v0.2h-0.4C32.4,96.9,32.5,96.8,32.6,96.7z M21.6,111.6V108h4.7C24.9,109.3,23.3,110.6,21.6,111.6z"/>
				<polygon points="275.8,74.2 273.6,74.2 273.6,76.3 273.6,83.7 273.6,85.8 275.8,85.8 313.4,85.8 315.5,85.8 315.5,83.7 
					315.5,76.3 315.5,74.2 313.4,74.2 				"/>
				<polygon points="222.2,189.3 224.4,189.3 231,189.3 233.1,189.3 233.1,187.1 233.1,156.8 233.1,154.7 231,154.7 223.1,154.7 
					221.6,154.7 221.1,156.1 216.7,168.5 212.1,156.1 211.6,154.7 210.1,154.7 202.2,154.7 200.1,154.7 200.1,156.8 200.1,187.1 
					200.1,189.3 202.2,189.3 208.8,189.3 210.9,189.3 210.9,187.1 210.9,180.8 212.5,185.3 213.1,186.7 214.5,186.7 218.5,186.7 
					220,186.7 220.5,185.3 222.2,180.7 222.2,187.1 				"/>
				<path d="M278,154.7h-12.6l-0.5,1.3l-2.2,5.4c-0.1,0.1-0.1,0.3-0.2,0.4c-0.1-0.2-0.1-0.3-0.2-0.5l-2.4-5.4l-0.6-1.2h-23.4v34.6
					h22.5l0.6-1.3l2.6-5.9c0.1-0.2,0.2-0.4,0.3-0.7c0.1,0.2,0.2,0.5,0.3,0.7l2.8,5.9l0.6,1.2h13l-1.7-3.1l-7.8-14.3l7.3-14
					L278,154.7L278,154.7z M247.8,157.8l7.3,13.7l-7.8,14.5v-29L247.8,157.8z"/>
				<polygon points="291.7,154.7 291.7,156.8 291.7,187.1 291.7,189.3 293.8,189.3 301.1,189.3 303.2,189.3 303.2,187.1 
					303.2,156.8 303.2,154.7 301.1,154.7 293.8,154.7 				"/>
				<path d="M323.4,189.3h10.9v-34.6h-11.2v12.1l0,0l-5.7-11l-0.6-1.1H306v34.6h11.2V177l5.7,11.2L323.4,189.3L323.4,189.3z"/>
				<polygon points="363.8,189.3 363.8,187.1 363.8,165 369.9,165 372.1,165 372.1,162.8 372.1,156.8 372.1,154.7 369.9,154.7 
					346.2,154.7 344.1,154.7 344.1,156.8 344.1,162.8 344.1,165 346.2,165 352.3,165 352.3,187.1 352.3,189.3 354.4,189.3 
					361.7,189.3 				"/>
				<polygon points="401.2,189.3 401.2,187.1 401.2,156.8 401.2,154.7 399.1,154.7 391.9,154.7 389.8,154.7 389.8,156.8 
					389.8,166.2 384,166.2 384,156.8 384,154.7 381.9,154.7 374.6,154.7 372.5,154.7 372.5,156.8 372.5,187.1 372.5,189.3 
					374.6,189.3 381.9,189.3 384,189.3 384,187.1 384,176.8 389.8,176.8 389.8,187.1 389.8,189.3 391.9,189.3 399.1,189.3 				"/>
				<polygon points="425.4,165 427.5,165 427.5,162.8 427.5,156.8 427.5,154.7 425.4,154.7 406.2,154.7 404,154.7 404,156.8 
					404,187.1 404,189.3 406.2,189.3 425.9,189.3 428,189.3 428,187.1 428,181 428,178.9 425.9,178.9 415.6,178.9 415.6,176.7 
					423.6,176.7 425.8,176.7 425.8,174.6 425.8,168.5 425.8,166.3 423.6,166.3 415.6,166.3 415.6,165 				"/>
				<path d="M466.2,189.3h11.5v-34.6h-11.5v5.3l-1.2-1.3c-1.7-1.7-5.3-4.6-10.7-4.6c-4.5,0-8.6,1.7-11.6,4.8c-3.2,3.3-5,7.9-5,13.2
					c0,12.2,8.2,17.7,16.4,17.7c4.6,0,8.6-1.8,11.5-5.2l0.7-0.8L466.2,189.3L466.2,189.3z M465.6,181.8l-3.8-4.6l-1.6-1.9l-1.6,1.8
					c-0.9,0.9-2.3,2.1-4.2,2.1c-4.4,0-4.9-5.2-4.9-7.4c0-4.4,2-7.3,5-7.3c1.3,0,2.4,0.5,3.8,1.8l1.6,1.5l1.4-1.7l3.8-4.6l1.1-1.4
					v22.5L465.6,181.8L465.6,181.8z"/>
				<path d="M511,189.3h11.5v-12.4l9-19.2l1.4-3h-12.4l-0.5,1.4l-2.5,6.7l-0.6,1.6c-0.2-0.5-0.4-1-0.5-1.5l-2.5-6.8l-0.5-1.4h-35
					V165h8.2v24.3h11.5V165h7.5l5.5,11.9L511,189.3L511,189.3z"/>
			</g>
			<g>
				<g>
					<g>
						<path class="st0" d="M237.9,53.7l-0.1-0.9c-0.3-2-1.4-5.2-2.4-7.2c-0.2,0.3-0.3,0.5-0.5,0.8l-0.7,1l-0.9-0.8
							c-1.3-1.1-4.4-3-6.2-3.9v10.9h-9.4V29.9c-0.2,0.2-1.9,2.1-1.9,2.1l-0.6-1.7c-0.7-1.9-2.7-6-3.9-7.8l-0.5-0.7l0.6-0.6
							c4.4-4.5,8.7-11.6,11.1-18.7l0.3-1l9.3,2.9l-0.4,1.1c-1.3,3.5-2.9,7.1-4.7,10.4v2.4c3-4,5.5-9.7,7.1-15.8l0.3-1l9.6,2.2
							l-0.3,1.1c-0.6,2.1-1.2,4-1.9,5.8h14.7l1.2-0.2l6.6,1.1l-0.1,1c-0.6,4.8-1.6,10-2.3,13l-0.2,1l-3.4-0.6
							c2.4,5.1,4.5,11.9,5.3,16.9l0.1,0.9l-9.5,3.3l-0.1-1.4c-0.3-3.7-1.7-9.1-3.4-13.8v12.3c0,3.5-0.6,6.2-3.2,7.8
							c-2.6,1.5-5.7,1.7-8.8,1.7L237.9,53.7L237.9,53.7z M236.3,44c1.9,0,3.9,0,4.7,0V31.8C239.9,36.3,238.2,40.6,236.3,44z
							 M227.1,40.5c2.1-3,4-7.6,5.1-12.8l-0.7-0.7c-1-1-2.8-2.5-4.4-3.7L227.1,40.5L227.1,40.5z M241.1,27.3v-7.5h-3.3
							c-1.2,2.2-2.5,4.2-3.8,6L241.1,27.3z M250.8,27.3l5.1-1.7l-2.6-0.5l0.1-1c0.1-1.1,0.4-2.6,0.6-4.2h-3.2L250.8,27.3L250.8,27.3
							z"/>
						<path d="M235.2,2.9l7.5,1.7c-0.7,2.4-1.5,4.8-2.4,7.1h16.4l1.2-0.2l5.4,0.9c-0.6,4.5-1.5,9.6-2.3,12.9l-6.5-1.2
							c0.2-1.5,0.5-3.4,0.7-5.5h-5.5v25.5c0,3.5-0.5,5.6-2.7,6.8c-2.1,1.2-4.8,1.5-8.2,1.5c-0.3-2.2-1.5-5.6-2.6-7.7
							c2.1,0,4.2,0,5,0c0.7,0,0.9-0.2,0.9-0.8V18.8h-5c-1.5,2.9-3.2,5.5-4.9,7.5c-1.4-1.4-4.4-3.9-6.1-5
							C230.1,17,233.4,9.9,235.2,2.9 M223.6,2.9l7.2,2.3c-1.3,3.5-2.9,7.1-4.8,10.6v36.8h-7.2V27c-0.8,1-1.7,2-2.6,3
							c-0.7-1.9-2.7-6.1-4-8C216.7,17.4,221.1,10.2,223.6,2.9 M257.3,26.2c2.6,5.4,4.6,12.2,5.3,16.9l-7.4,2.6
							c-0.4-4.6-2.4-11.8-4.8-17.2L257.3,26.2 M233.4,26.8l7.4,1.5c-1.4,6.6-4,13.3-6.9,17.5c-1.4-1.2-4.7-3.2-6.5-4.1
							C230.3,38.2,232.4,32.4,233.4,26.8 M222.3,0.3l-0.7,2c-2.4,6.9-6.6,13.9-10.9,18.3l-1.2,1.2l1,1.4c1.1,1.7,3.1,5.8,3.8,7.6
							l1.2,3.4l1.2-1.4v22h11.5V44.5c1.6,0.9,3.5,2.2,4.4,2.9l1.8,1.5l0.8-1.2c0.7,1.7,1.3,3.8,1.5,5.1l0.3,1.8h1.9
							c3.2,0,6.6-0.2,9.3-1.8c3.3-1.9,3.8-5.3,3.8-8.7v-5.4c0.7,2.5,1.1,5,1.3,6.9l0.2,2.7l2.6-0.9l7.4-2.6l1.7-0.6l-0.2-1.7
							c-0.7-4.5-2.4-10.5-4.5-15.4l0.4,0.1l2,0.4l0.4-2c0.7-3,1.7-8.2,2.3-13.1l0.3-2l-2-0.4l-5.4-0.9l-0.4-0.1l-0.4,0.1l-1,0.2
							h-13.1c0.5-1.4,0.9-2.8,1.4-4.4l0.6-2.2l-2.2-0.5l-7.5-1.7l-2-0.5l-0.5,2c-0.1,0.4-0.2,0.8-0.3,1.2l-1.4-0.4l-7.2-2.3
							L222.3,0.3L222.3,0.3L222.3,0.3z M251.8,20.9h0.9c-0.1,1.2-0.3,2.2-0.4,3l-0.2,1.8l-0.3,0.1V20.9L251.8,20.9L251.8,20.9z
							 M238.4,20.9h1.6V26l-4.3-0.9C236.6,23.8,237.5,22.4,238.4,20.9L238.4,20.9z M228.1,36.6v-11c1,0.8,1.9,1.7,2.6,2.3l0.3,0.3
							C230.3,31.2,229.3,34.2,228.1,36.6L228.1,36.6L228.1,36.6z M238.1,42.9c0.7-1.4,1.3-2.9,1.9-4.4V43
							C239.5,42.9,238.8,42.9,238.1,42.9L238.1,42.9z"/>
					</g>
					<g>
						<path class="st0" d="M282.2,52.8c-0.3-2-1.2-5.2-2-6.6l-0.7-1.1l1.3-0.4c0.8-0.2,1.2-0.5,1.2-1.8v-3.1
							c-2.2,4.4-4.6,8.8-7,12.9l-0.6,1.1l-7.9-6.6l0.5-0.8c2.2-3.3,6.1-9.6,9.4-16.3l0.6-1.3l4.8,4.6v-7.2h-0.6V12.4l-2.7,3.9
							l-0.9-0.7c-1.6-1.3-4.9-3.3-7.6-4.9l-2.5-1.5l5.3-7.2l0.8,0.4c1.2,0.6,4.8,2.5,7.6,4.1V3.9h31.5v22.3h-6.5v3.9h9.1v8.5H309
							l1.5,1.2c1.2,1,4.1,2.1,6,2.5l0.9,0.2l-0.1,0.9c-0.7,7.4-2.9,10.2-8,10.2h-4.2c-4.4,0-6.5-1.3-7.4-4h-0.1
							c-10.1,2.3-12.5,3.1-13.8,4l-1.4,0.9L282.2,52.8L282.2,52.8z M308.4,44.9c0.2-0.7,0.3-3.2,0.4-4.4l0.1-2h-2.5V44
							c0,0.2,0,0.7,0,1L308.4,44.9L308.4,44.9z M291.6,42l5.4-1v-2.5h-5.4V42z M297,30v-3.9h-5.4V30H297z M274.9,30
							c-1.5-1.1-4.6-3-9.3-5.6l-1-0.6l5.1-7.4l0.8,0.4c3.1,1.5,7.5,3.6,9.8,5l0.9,0.6l-5.3,8.2L274.9,30L274.9,30z"/>
						<path d="M273.2,3.3c2.6,1.4,6.8,3.6,9.1,5V4.9h29.4v20.2h-29.4V9l-4,5.8c-2-1.6-6.4-4.1-9.2-5.9L273.2,3.3 M290,12.4h13.8
							v-1.8H290V12.4 M290,19.5h13.8v-1.8H290V19.5 M270,17.9c2.8,1.3,7.4,3.6,9.7,5l-4.1,6.4c-2-1.5-6.5-4-9.5-5.7L270,17.9
							 M305.3,26.2v5h9.1v6.4h-9.1V44c0,1.8,0.1,2,1.1,2h2.1c1,0,1.2-0.8,1.3-5.4c1.4,1.1,4.5,2.3,6.4,2.7c-0.7,7.1-2.6,9.2-7,9.2
							H305c-5.7,0-7-2.1-7-8.5V26.1L305.3,26.2 M290.5,26.4v4.7h6.3v6.4h-6.3v5.9l5.8-1.1c0.2,1.9,0.6,4.8,1,6.4
							c-10.6,2.4-12.8,3.2-14.1,4.1c-0.3-1.9-1.1-5.4-2.1-7c1.1-0.4,1.9-0.9,1.9-2.8V26.4H290.5 M277.4,30.5l5.4,5.1
							c-2.7,5.5-5.7,11.2-8.7,16.4l-6.1-5.2C270.6,43,274.3,36.7,277.4,30.5 M272.6,0.6l-1.1,1.5l-4,5.6l-1.4,1.9l2,1.2
							c0.5,0.3,1,0.6,1.5,0.9c2.6,1.6,5.9,3.6,7.5,4.9l1.8,1.4l1.3-1.9l0.1-0.2v4.9c-2.4-1.4-6.5-3.4-9.4-4.8l-1.6-0.8l-1,1.5
							l-3.9,5.7l-1.3,1.9l2,1.1c4.6,2.6,7.8,4.4,9.2,5.5l0.4,0.3c-3.1,6-6.5,11.5-8.5,14.5l-1.1,1.6l1.5,1.2l6.1,5.2l1.9,1.6
							l1.3-2.2c1.1-2,2.3-4,3.4-6.1c0.7,1.3,1.5,4.2,1.8,6l0.5,3.3l2.8-1.8c1.1-0.7,3.5-1.5,12.6-3.6c1.2,2.5,3.6,3.8,8.1,3.8h4.2
							c6.7,0,8.5-4.4,9.1-11.1l0.2-1.8l-1.8-0.4c-1.3-0.3-3.1-1-4.4-1.6h4.2V29h-9.1v-1.8h6.5V2.8h-33.6v1.9c-2.5-1.3-5-2.7-6-3.2
							L272.6,0.6L272.6,0.6L272.6,0.6z M278.5,28.6l1.8-2.7v1.4h0.6v3.6l-2-1.9L278.5,28.6L278.5,28.6z M292.6,27.2h3.2V29h-3.2
							V27.2L292.6,27.2z M292.6,39.6h3.2v0.6l-3.2,0.6V39.6L292.6,39.6z M307.4,39.6h0.4v0.9c0,0.7-0.1,2.3-0.2,3.3h-0.1L307.4,39.6
							L307.4,39.6L307.4,39.6z"/>
					</g>
					<g>
						<path class="st0" d="M333.5,53.4c-0.8-1.2-3-3.5-4.1-4.3l-0.9-0.7l0.8-0.9c1.8-2.1,3.2-4.6,4.2-7.5h-6.8v4.8H319V6.1h14.1V3.9
							h29.2l1.2-0.3l5.6,3.2L369,7.5c-1.5,7.9-2.6,13.4-3.4,16.8c2.1,4.6,2.4,8.6,2.4,12c0,4.3-0.8,7-2.6,8.4
							c-0.8,0.7-1.9,1.2-3.3,1.4c-0.8,0.1-1.6,0.2-2.7,0.2v7.3h-8.3v-10c-0.2,3.2-0.6,4.9-1.1,5.9c-1.1,2.1-2.2,3-4.1,3.5
							c-0.9,0.3-2,0.4-3.6,0.4c-0.5,0-0.9,0-1.4,0h-1v-1c-0.1-1.2-0.4-3.1-0.9-4.7c-1.1,2.2-2.4,4-3.8,5.6l-0.9,1L333.5,53.4
							L333.5,53.4z M340.4,44.8c0.7,0,1.3,0,1.8,0h0.1c0,0,0.1-0.1,0.3-0.5c0.5-1,0.6-5.1,0.7-7.5h-0.7
							C342.1,39.8,341.3,42.4,340.4,44.8L340.4,44.8z M334.1,38c0.1-0.4,0.2-0.8,0.3-1.2h-0.3V38z M359.5,37.8
							c0.1-0.3,0.2-0.9,0.2-2.6c0-1.3,0-2.7-0.2-4.2V37.8z M335.6,28.4c0.1-1.2,0.1-2.5,0.1-3.9h-1.6v3.9H335.6z M335.7,16v-3.6
							h-1.6V16H335.7z M359.5,13.4c0.1-0.4,0.1-0.9,0.2-1.3h-0.2V13.4z"/>
						<path d="M363.4,4.7l4.6,2.6c-1,5.4-2.4,12.8-3.5,17.1c2.1,4.5,2.5,8.5,2.5,11.9c0,4-0.7,6.4-2.2,7.6c-0.7,0.6-1.7,1-2.8,1.2
							c-0.7,0.1-1.5,0.2-2.5,0.2c0-1.6-0.3-4-1-5.8v13.2h-6.2V4.9h10.2L363.4,4.7 M360.9,11h-2.4v28h0.9c0.3,0,0.7-0.1,1-0.5
							c0.4-0.5,0.5-1.6,0.5-3.4c0-2.7-0.1-6.3-1.9-10.2C359.6,21.3,360.4,15.3,360.9,11 M350.8,4.9c0,0,0,2.4,0,3.2
							c-0.2,28.5-0.2,38.6-1.6,41.1c-1,1.9-1.9,2.6-3.4,2.9c-1,0.3-2.1,0.4-3.4,0.4c-0.4,0-0.9,0-1.4,0c-0.1-1.9-0.7-4.7-1.7-6.6
							c1.1,0.1,2,0.1,2.8,0.1h0.1c0.5,0,0.9-0.3,1.3-1.2s0.7-3.4,0.8-9h-2.7c-1.1,6.2-3.3,12.5-7.4,17c-0.8-1.3-3.2-3.7-4.4-4.6
							c3.1-3.6,4.8-7.9,5.7-12.4h-1.6v-6.4h2.4c0.2-2.1,0.2-4.1,0.2-6h-2.6V17h2.6v-5.8h-2.6V4.9H350.8 M342.8,17.1h1.9v-5.8h-1.9
							V17.1 M344.7,23.4h-1.8c0,1.8-0.1,3.9-0.3,6h2L344.7,23.4 M333.1,7.1V39h-7.5v4.8h-5.5V7.1H333.1 M325.6,32h1.8V14h-1.8V32
							 M363.7,2.5l-0.8,0.2l-0.6,0.2H332V5h-14v40.9h9.8v-4.8h4.2c-0.9,2.2-2.1,4.1-3.5,5.7l-1.5,1.8l1.9,1.4c1,0.7,3.1,3,3.8,4
							l1.5,2.3l1.8-2c1-1.1,1.9-2.2,2.7-3.5c0.1,0.7,0.2,1.4,0.2,1.9l0.1,2l2,0.1c0.5,0,1,0,1.4,0c1.2,0,2.5-0.1,3.9-0.5
							c1.6-0.4,2.8-1.2,3.8-2.5V55h10.5v-7.4c0.6,0,1.2-0.1,1.7-0.2h0.1c1.6-0.3,2.8-0.9,3.8-1.7c2-1.7,3-4.5,3-9.2
							c0-3.4-0.3-7.5-2.4-12.1c0.8-3.4,1.9-8.8,3.3-16.5l0.3-1.5l-1.3-0.8L364.5,3L363.7,2.5L363.7,2.5L363.7,2.5z"/>
					</g>
					<g>
						<path class="st0" d="M383.9,53.6l-0.2-0.9c-0.4-2-1.7-5.5-2.9-7.6l-1-1.7l2,0.1c1.8,0.1,4.2,0.2,6.4,0.2c0.9,0,1.5,0,1.9,0
							s0.5,0,0.6-0.1c0,0,0-0.1,0-0.3V2.4h10.5v41c0,4-0.7,7-4.2,8.7c-2.5,1.1-5.7,1.5-11.1,1.5C385.5,53.6,383.8,53.6,383.9,53.6
							L383.9,53.6z M412.1,41.9c-0.9-5.9-4.4-15.5-8.7-24l-0.5-1.1l9.5-3.5l0.4,0.8c3.8,6.9,8.4,16.8,9.8,24.1l0.2,0.9l-10.5,4.1
							L412.1,41.9L412.1,41.9z M377.3,41.5c-1.8-1.3-5.2-3-7.3-3.9l-1.3-0.5l0.9-1.1c3.9-5.2,6.4-14.5,7.4-20.8l0.2-1.1l10.9,1.8
							l-0.2,1.1c-2.6,11.5-5.5,19.4-9,24.2l-0.6,0.9L377.3,41.5L377.3,41.5z"/>
						<path d="M400.1,3.5v39.9c0,4.4-1,6.5-3.6,7.7c-2.5,1.1-6,1.4-10.6,1.4c-0.4,0-0.8,0-1.2,0c-0.4-2.2-1.8-5.8-3-7.9
							c2.2,0.1,4.7,0.2,6.5,0.2c0.9,0,1.6,0,2,0c1.2,0,1.6-0.4,1.6-1.4V3.5H400.1 M411.8,14.7c4.1,7.5,8.4,17,9.7,23.7l-8.4,3.3
							c-1-6.5-4.8-16.4-8.8-24.3L411.8,14.7 M378,15.3l8.7,1.5c-1.8,8-4.6,18-8.8,23.9c-1.9-1.4-5.4-3.2-7.5-4
							C374.4,31.4,377,22.1,378,15.3 M402.3,1.3h-12.7v41.3c-0.4,0-0.9,0-1.5,0c-2.2,0-4.5-0.1-6.3-0.2l-2.5-0.2l0.3-0.4
							c3.5-4.9,6.5-13,9.1-24.6l0.5-2.2l-2.2-0.4l-8.7-1.5l-2.1-0.4l-0.3,2.2c-0.9,6.3-3.4,15.3-7.1,20.4l-1.7,2.2l2.6,1
							c2,0.8,5.4,2.5,7.1,3.7l1.7,1.2l0.2-0.2l1.3,2.2c1.1,2,2.4,5.4,2.8,7.3l0.3,1.7h1.7c0.4,0,0.8,0,1.2,0c5.6,0,8.9-0.5,11.5-1.6
							c4.3-2,4.9-5.8,4.9-9.7v-25l0.2,0.4c4.3,8.4,7.7,17.9,8.6,23.6l0.4,2.6l2.5-1l8.4-3.3l1.6-0.7l-0.3-1.7
							c-1.4-7.4-6.1-17.4-10-24.4l-0.9-1.6l-1.7,0.6l-7.5,2.8l-1.3,0.5L402.3,1.3L402.3,1.3L402.3,1.3z"/>
					</g>
					<g>
						<path class="st0" d="M427.3,53.5c-1.3-1.3-3.6-3-5.3-4.1l-0.9-0.6l0.6-0.9c5.2-8,5.8-16.8,5.8-23.6v-5.6h-4.6V9.5h8.2
							c-0.4-1.5-1-3.1-1.6-4.5l-0.6-1l8.6-2.7l0.4,0.8c1.1,2.2,2.2,5.2,2.7,7.2v0.2h5.3v2.8c1.6-2.9,2.8-6.3,3.5-9.9l0.2-1l9.5,1.8
							l-0.2,1.1c-0.3,1.1-0.6,2.2-0.9,3.3h15.4v9h-4.8l5.2,4.8l-1.5,0.6c-1.3,0.6-2.8,1.1-4.4,1.7l6.6,6l-0.8,0.8
							c-1.8,1.8-3.8,3.6-5.7,5.2c1.5,4,3.4,6.8,5.8,8.6l1.1,0.8l-1,0.9c-1.7,1.4-3.9,4.2-4.9,6l-0.6,1.1l-1-0.8
							c-1.9-1.6-3.5-3.6-4.8-5.8l0.2,0.7l-0.8,0.3c-9.1,3.7-11.3,4.6-12.4,5.5l-1.1,0.9l-0.5-1.3c-0.6-1.4-2.4-3.9-3.5-4.8
							c-0.2,1-0.5,1.7-0.9,2.3c-1.1,1.7-2.4,2.5-4.4,3c-1,0.2-2.4,0.3-4.2,0.3c-0.5,0-1,0-1.4,0h-1l-0.1-1c-0.1-1-0.3-2.2-0.6-3.5
							c-0.7,1.5-1.6,3-2.6,4.5l-0.7,1.1L427.3,53.5L427.3,53.5z M445.7,22.5c0,0.6,0,1.6,0,2.2c-0.3,10.9-0.5,17.3-1.1,21.1
							c0.7-0.8,1.9-2.4,1.9-5V23.1C446.3,22.9,446,22.7,445.7,22.5L445.7,22.5z M433.3,44.8c0.6,0,1.2,0,1.6,0c0.2,0,0.4,0,0.7-0.4
							c0.7-1,1-9.9,1.1-14.7h-0.6C435.8,35.4,434.8,40.4,433.3,44.8L433.3,44.8z M455.9,40.2l3.3-1.2c-1.2-4-1.9-8.2-2.4-12.2
							c-0.3,0.1-0.6,0.1-0.9,0.2V40.2z M465.3,24.6c0.1,0.4,0.1,0.9,0.2,1.3c0.4-0.5,0.8-1,1.1-1.5l0.2-0.3
							C466.4,24.2,465.9,24.4,465.3,24.6L465.3,24.6z M443.5,20.7c-0.6-0.5-1.2-0.9-1.7-1.1l-1.2-0.8l0.1-0.1h-4.4v2H443.5z
							 M454.3,16.7c-0.5,0.9-1,1.8-1.5,2.6c3-0.8,5.9-1.6,8.4-2.6H454.3z"/>
						<path d="M437,2.6c1.1,2.2,2.1,5,2.6,7l-3,1.1h8.4V16c2.7-3.6,4.6-8.4,5.6-13.3l7.4,1.4c-0.4,1.6-0.8,3.1-1.3,4.6h15.8v6.9
							h-18.6c-1,1.9-2,3.7-3.3,5.3c5.8-1.3,11.7-3.2,15.6-5.1l5.7,5.3c-2.3,1-4.9,1.9-7.6,2.7c0.2,1.5,0.4,3,0.7,4.5
							c1-1.1,1.9-2.3,2.7-3.3l5.3,4.8c-1.9,1.9-4.1,3.9-6.2,5.6c1.5,4.2,3.5,7.6,6.4,9.8c-1.7,1.4-4,4.4-5.1,6.4
							c-6.4-5.4-8.8-14.7-10.2-26.1c-0.9,0.3-1.9,0.5-2.8,0.6v15.7l5.7-2c0,2.1,0.4,5.2,0.8,6.9c-9.6,3.8-11.5,4.7-12.7,5.6
							c-0.6-1.5-2.6-4.2-3.8-5.2c1.3-1.1,2.7-3.2,2.7-6.2V22.6c-1.5-1.3-3.8-3-5.2-3.9c0.4-0.3,0.7-0.7,1-1h-8.2v4.1h9.5
							c0,0,0,1.9,0,2.8c-0.4,16.5-0.8,22.8-2.2,24.8c-1.1,1.6-2.3,2.2-3.8,2.5c-1,0.2-2.4,0.3-4,0.3c-0.5,0-0.9,0-1.4,0
							c-0.1-1.8-0.7-4.4-1.6-6.2c-0.9,2.3-2.1,4.5-3.6,6.7c-1.3-1.4-3.7-3.2-5.5-4.3c5.3-8.2,6-17.3,6-24.2v-6.7h-4.6v-7h8.5
							c-0.4-1.9-1.2-4.2-2-6L437,2.6 M437.8,28.7h-2.7c-0.3,5.4-1.1,11.4-3.4,17.1c1.3,0.1,2.4,0.2,3.1,0.2c0.6,0,1-0.2,1.5-0.8
							C437.1,44,437.5,39.8,437.8,28.7 M438,0l-1.7,0.5l-6.6,2l-2.3,0.7l1,2.2c0.4,0.9,0.8,2,1.1,3h-7.8v11.3h4.6v4.5
							c0,6.6-0.6,15.2-5.6,23l-1.2,1.8l1.8,1.1c1.6,1,3.9,2.7,5.1,3.9l1.8,1.9l1.5-2.2c0.5-0.7,0.9-1.3,1.3-2c0,0.1,0,0.3,0,0.4
							l0.1,2h2c0.5,0,1,0,1.5,0c1.9,0,3.3-0.1,4.4-0.3c2.3-0.5,3.8-1.5,5.1-3.4c0.2-0.2,0.3-0.5,0.5-0.8c0.8,1,1.7,2.4,2.1,3.2
							l1.1,2.7l2.2-1.8c0.9-0.8,3.3-1.8,12.1-5.3l0.2-0.1c1.2,1.8,2.5,3.3,4.1,4.7l2,1.7l1.2-2.3c1-1.9,3.2-4.6,4.6-5.7l2.1-1.7
							l-2.2-1.6c-2.1-1.6-3.8-4-5.2-7.4c1.8-1.5,3.6-3.2,5.2-4.8l1.6-1.6l-1.7-1.5l-4.5-4c1-0.4,1.9-0.7,2.8-1.1l3-1.3l-2.4-2.2
							l-2-1.8h3.2V6.6h-15c0.2-0.7,0.4-1.3,0.5-2l0.5-2.2L458.2,2l-7.4-1.4l-2.1-0.4l-0.4,2.1c-0.4,2.2-1.1,4.3-1.8,6.2h-5.1
							c-0.5-2.1-1.6-4.8-2.6-6.9L438,0L438,0L438,0z M457,38.7v-4.2c0.3,1.3,0.6,2.6,0.9,3.8L457,38.7L457,38.7z"/>
					</g>
					<g>
						<path class="st0" d="M482.5,53.7V36.1c-0.5,0.5-1.1,1-1.6,1.4l-0.9,0.8l-0.6-1c-1-1.6-3.5-5-5-6.5l-0.9-0.9l1-0.7
							c4.9-3.4,10-8.8,13.3-14c-2.4,2.3-4.9,4.3-7.3,5.9l-1,0.7l-0.6-1c-1-1.8-2.9-4.7-4.1-6.1l-0.8-0.9l1-0.7
							c4.1-2.6,9.1-7.3,11.6-10.8l0.5-0.7l9.4,3.9l-0.8,1.1c-1.7,2.3-3.8,4.6-6,6.8l8.6,3.3l-0.6,1.1c-0.3,0.5-0.6,1-0.9,1.5h29.6
							v9.4h-6.9v15.5c0,3.9-0.7,6.7-3.9,8.1c-2.7,1.2-6.4,1.3-10.9,1.3h-1l-0.1-0.9c-0.2-2.1-1.2-5.3-2.2-7.5l-0.7-1.6l1.8,0.1
							c1.7,0.1,4,0.2,6.9,0.2c0.1,0,0.1,0,0.2,0V28.5h-14.4v-6.9c-0.9,1.2-1.8,2.5-2.8,3.8v28.3L482.5,53.7L482.5,53.7z M497.3,13.9
							V4.6H525V14h-27.7V13.9z"/>
						<path d="M487.5,2.7l7.4,3c-4,5.2-9.8,10.8-15,14.4c-1-1.7-2.9-4.8-4.2-6.3C480,11.1,485.1,6.3,487.5,2.7 M523.9,5.6v7.2h-25.6
							V5.6H523.9 M489.5,14.3l7.2,2.8c-1.5,2.6-3.4,5.4-5.5,8v27.6h-7.7v-19c-1.2,1-2.3,2.1-3.4,3c-1-1.6-3.6-5.1-5.1-6.7
							C480.4,26.3,486.1,20.2,489.5,14.3 M525.3,20.2v7.2h-6.9V44c0,3.9-0.7,6-3.3,7.1c-2.5,1.2-6,1.3-10.5,1.3
							c-0.3-2.3-1.3-5.6-2.3-7.8c2.6,0.2,6,0.2,7,0.2s1.3-0.2,1.3-1V27.5h-14.4v-7.2L525.3,20.2 M486.8,0.1l-1,1.4
							c-2.4,3.5-7.2,8-11.2,10.5l-2.1,1.3l1.6,1.9c1.1,1.3,3,4.2,4,5.9l1.1,2.1l1.9-1.3h0.1c-2.3,2.4-4.8,4.7-7.3,6.4l-2.1,1.4
							l1.7,1.8c1.4,1.4,3.9,4.8,4.9,6.3l1.3,2l1.7-1.4v16.4h11.9v-29c0.2-0.3,0.4-0.5,0.6-0.8v4.6h14.4v13.1c-2.5,0-4.5-0.1-6-0.2
							l-3.5-0.2l1.5,3.2c0.9,2.1,1.9,5.2,2.1,7.2l0.2,1.9h1.9c4.7,0,8.5-0.1,11.4-1.5c4-1.8,4.5-5.4,4.5-9.1V29.6h6.9V18.1h-28.8
							l1.2-2.1l-2.3-0.9l-0.2-0.1H526V3.5h-29.8V4l-0.5-0.2l-7.4-3L486.8,0.1L486.8,0.1L486.8,0.1z M491.6,12.8
							c1.7-1.7,3.2-3.5,4.6-5.3v7.1L491.6,12.8L491.6,12.8L491.6,12.8z"/>
					</g>
				</g>
				<g>
					<g>
						<path class="st0" d="M29.4,119.6v-9.1c-2.4,2.8-5,4.9-7.8,6.5l-0.9,0.5l-0.5-0.9c-0.9-1.4-2.6-3.5-4-4.8
							c-0.2,2.5-0.8,4.5-2.7,5.8c-1.8,1.1-4,1.6-7.6,1.6H4.2l-0.1-1c-0.2-1.8-1-4.8-1.8-6.8l-0.7-1.6l1.7,0.1c1.5,0.1,3,0.1,3.7,0.1
							v-7.5l-3.4,1.2l-2.2-9.5l1-0.2c1.3-0.3,2.9-0.7,4.6-1.2v-6.4H2.5v-9.1h4.6v-9.6h9.1v9.6h1.9v-7.5h34V83h-0.3l0.1,1.2
							c0.1,0.7,0.1,1.5,0.2,2.3c0.1,1.4,0.2,2.9,0.3,3.9l0.1,0.8l-0.8,0.3c-1,0.4-2.5,0.5-4.3,0.5h-3.9c-1.9,0-3.4-0.2-4.6-0.6v2.2
							H52v8.9h-7.5c2.5,2.4,5.5,4.6,8.5,6.1l1.5,0.7l-1.2,1.1c-1.6,1.3-3.8,4-4.9,5.7l-0.6,0.9l-0.9-0.6c-2.7-1.7-5.5-4.1-8-6.9v10
							L29.4,119.6L29.4,119.6z M16.3,109.1c3-1.5,5.9-3.8,8.2-6.5h-6.2v-3.9c-0.7,0.2-1.4,0.5-2.1,0.7v9.7H16.3z M29.4,93.7v-2.9
							c-1.9,1.1-4.4,1.9-7.8,2.6l-0.9,0.2l-0.3-0.9c-0.3-0.9-0.9-2-1.5-3.1l0.7,4.1L29.4,93.7L29.4,93.7z M16.3,89.9l2.4-0.8
							c-0.5-0.8-1.1-1.5-1.5-2l-0.8-0.8L16.3,89.9L16.3,89.9z M35.7,88.8c-0.7-1.4-1-3.2-1-5c-0.5,1.9-1.3,3.6-2.7,5H35.7z
							 M19.4,85.1c2.8-0.5,4.4-1.1,5.4-1.8h-5.4V85.1z M47.4,83.7c1.1,0,2.5-0.2,3.2-0.4l1-0.3h-8l0,0c0,0.3,0,0.5,0,0.6L47.4,83.7
							L47.4,83.7z"/>
						<path d="M15.2,68.6v9.6h3.1v7h-3.1v6.2l2.8-0.9l1.2,6.8c-1.3,0.5-2.6,0.9-4,1.4v11.5c0,3.3-0.5,5.2-2.3,6.4
							c-1.7,1.1-3.9,1.4-7,1.4c-0.2,0-0.4,0-0.7,0c-0.2-1.9-1-5-1.9-7.1c1.7,0.1,3.4,0.1,4,0.1s0.8-0.2,0.8-0.9V101l-3.7,1.3L2.8,95
							c1.6-0.4,3.4-0.9,5.4-1.5v-8.3H3.6v-7h4.6v-9.6H15.2 M51.1,70.7v11.2h-7.4v-4.8H26.2v5.1h-7V70.7H51.1 M42.5,78.5V83
							c0,1.2,0.2,1.7,1,1.7h3.9c1.1,0,2.6-0.2,3.5-0.4c0.2,1.7,0.3,4.7,0.5,6.3C50.4,91,49,91,47.5,91h-3.9c-6.4,0-7.9-2.1-7.9-8
							v-4.5H42.5 M34.3,78.6c-0.4,7.3-2,11.7-12.9,13.8c-0.6-1.7-2.3-4.5-3.6-5.9c8.6-1.2,9.4-3.2,9.6-7.9H34.3 M38,89.9v4.9h13.1
							v6.8h-8.9c2.8,3.3,6.7,6.2,10.5,8.1c-1.6,1.4-4,4.1-5.1,5.9c-3.5-2.2-6.8-5.4-9.6-9v11.9h-7.5v-11.1c-2.6,3.5-5.8,6.6-9.4,8.6
							c-1-1.7-3.3-4.4-4.8-5.7c4.1-1.9,7.8-5.1,10.4-8.7h-7.3v-6.8h11.1v-4.9L38,89.9 M17.4,66.5H6.1v9.6H1.5v11.2h4.6v4.6
							c-1.4,0.4-2.7,0.7-3.8,1l-2.1,0.5l0.5,2.1l1.7,7.3L3,105l2.2-0.8l0.9-0.3v4.9c-0.8,0-1.7,0-2.6-0.1L0,108.6l1.4,3.2
							c0.8,1.8,1.6,4.8,1.7,6.4l0.2,1.9h1.9c0.2,0,0.5,0,0.7,0c3.8,0,6.2-0.5,8.1-1.8c1.7-1.1,2.5-2.6,2.9-4.3
							c0.9,1.1,1.8,2.2,2.3,3.1l1.1,1.8l1.8-1c2.2-1.2,4.3-2.8,6.2-4.8v7.5h11.8v-8.3c2,2,4.2,3.8,6.4,5.1l1.8,1.1l1.1-1.8
							c1-1.6,3.2-4.2,4.6-5.4l2.5-2.1l-2.9-1.4c-2.1-1.1-4.3-2.5-6.2-4.1h5.8v-11H52c0.1,0,0.2-0.1,0.2-0.1l1.5-0.6l-0.2-1.7
							c-0.1-1-0.2-2.5-0.3-3.9c-0.1-0.9-0.1-1.7-0.2-2.3l0,0h0.2V68.6H17.3L17.4,66.5L17.4,66.5L17.4,66.5z M28,92.7
							c0.1-0.1,0.3-0.1,0.4-0.2v0.2H28z M17.4,103.7h4.7c-1.5,1.4-3,2.6-4.7,3.6L17.4,103.7L17.4,103.7z"/>
					</g>
					<g>
						<path class="st0" d="M71.6,119.4l-0.2-0.8c-0.3-1.3-0.9-3-1.6-4.6c-2.5,1.8-5.4,3.6-8,5l-0.7,0.4l-0.5-0.6
							c-1.2-1.3-3.9-3.8-5.5-5l-1.6-1.2l1.8-0.7c2.6-1,5.4-2.4,7.7-3.8c-0.9,0.2-1.5,0.3-2.1,0.5l-1.1,0.4l-0.3-1.2
							c-0.3-1.2-1.1-4.3-1.7-5.9l-0.5-1.2l1.3-0.2c1.6-0.2,3-0.6,4.8-1.3l-0.1-0.4c-0.2-1-1-3.4-1.5-5.1h-6.7V80h20.1v-0.1H56.6
							v-8.6h18.6v-3.8h10.2v3.8h18.5v8.6H85.4V80h20v13.6h-9.7v-1.1c0,0-1.4,0.8-1.6,0.9c3,2.6,8.1,7.2,10.5,10.4l0.7,0.9l-6.1,4
							c2.3,1.4,4.4,2.8,6,3.9l1.2,0.9l-8.2,5.6l-0.6-0.6c-2.4-2.2-7.5-5.5-11.5-7.8v0.2c0,3.3-0.7,5.9-3.9,7.2
							c-2.6,1.1-5.7,1.2-9.8,1.2h-0.8V119.4z M74.2,110.5c0.5,0,1,0,1.4,0s0.7,0,0.9,0c0.1,0,0.1,0,0.2,0v-3.7
							c-1.7,0.1-3.2,0.2-4.7,0.3l4.1,1.7l-1.2,1.1C74.6,110.1,74.4,110.3,74.2,110.5L74.2,110.5z M86.1,108.2l3.8-2.4l-3.8,0.2
							V108.2z M95.3,106.5c-0.3-0.3-0.5-0.6-0.8-0.9l-0.7,0.1C94.2,105.9,94.8,106.2,95.3,106.5z M86.5,97.6
							c-0.9,0.4-1.8,0.9-2.8,1.3l4-0.2C87.5,98.5,86.5,97.6,86.5,97.6z M95.7,92.3v-3.8h-4.6L95.7,92.3z M83.1,89.1
							c-1.3,0.9-2.8,1.7-4.3,2.6l1.9-0.1c2.2-1.1,4.1-2.2,5.6-3.2h-2.2L83.1,89.1L83.1,89.1z M64.5,90.9c0.5-0.2,1.1-0.5,1.7-0.8
							s1.7-0.9,3.1-1.6h-4.8C64.5,88.5,64.5,90.9,64.5,90.9z"/>
						<path d="M84.3,68.6v3.8h18.5v6.5H84.3v2.2h20v11.5h-7.6v-5.2H81.5l1.1,0.8c-2.5,1.6-5.5,3.3-8.6,4.7l7-0.2
							c2.8-1.5,5.6-3.1,7.9-4.7l5.2,4.3c-5.1,3.1-10.7,5.7-16.4,7.9l12.5-0.6c-0.8-0.8-1.5-1.5-2.3-2.2l5.3-3.3
							c3.5,3.1,8.3,7.4,10.6,10.4l-5.7,3.8c-0.7-1.1-1.9-2.5-3.2-3.9l-9.8,0.6v6c0,3.3-0.7,5.2-3.3,6.2c-2.5,1.1-5.6,1.1-9.4,1.1
							c-0.4-1.7-1.3-4.2-2.2-6c-2.9,2.2-6.2,4.3-8.9,5.7c-1.3-1.4-4-3.9-5.7-5.2c4-1.5,8.6-4,11.3-6.4c-3.9,0.4-5.2,0.7-6.4,1.1
							c-0.3-1.2-1.2-4.4-1.8-6c2.2-0.3,4.1-0.9,7.3-2.2c0.9-0.3,2.3-0.9,4.1-1.6c-3.8,0.3-4.9,0.5-5.7,0.8c-0.3-1.2-1.2-4.2-1.8-5.9
							h-6.4V81.1h20.1v-2.2H57.6v-6.5h18.6v-3.8H84.3 M73.2,87.4h-9.8v5c1-0.3,2-0.7,3.3-1.4C67.7,90.5,70.4,89.1,73.2,87.4
							 M75.6,111.5c0.4,0,0.8,0,1,0c0.9,0,1.2-0.2,1.2-0.7v-5.2c-4.6,0.3-7.9,0.6-10.2,0.8l6.6,2.7c-0.8,0.8-1.8,1.6-2.8,2.4
							C72.9,111.5,74.5,111.5,75.6,111.5 M91.9,105.8c3.9,2.1,9.7,5.5,12.7,7.8l-6.3,4.2c-2.6-2.3-8.1-5.9-12.2-8.3L91.9,105.8
							 M86.5,66.4H74.1v3.8H55.5v8.7H54v15.8h7c0.4,1.3,0.9,2.8,1.2,3.8c-1.4,0.5-2.5,0.7-3.7,0.9l-2.6,0.4l0.9,2.5
							c0.6,1.6,1.5,4.6,1.7,5.8l0.2,1.2c-1.3,0.6-2.6,1.2-3.9,1.7l-3.7,1.4l3.1,2.3c1.5,1.1,4.2,3.6,5.4,4.9l1.1,1.2l1.4-0.8
							c2.3-1.2,4.8-2.7,7.1-4.3c0.4,1.2,0.8,2.3,1,3.2l0.4,1.7h1.7c4.2,0,7.4-0.1,10.2-1.3c3.3-1.4,4.3-3.9,4.5-6.6
							c3.6,2.2,7.7,4.9,9.7,6.8l1.2,1.1l1.4-0.9l6.3-4.2l2.5-1.7l-2.4-1.8c-1.2-0.9-2.8-2-4.6-3.1l3.7-2.5l1.9-1.3l-1.4-1.8
							c-1.9-2.5-5.3-5.8-8.4-8.6h9.4V78.9H105v-8.7H86.5V66.4L86.5,66.4z M94.1,89.5h0.6V90L94.1,89.5L94.1,89.5z"/>
					</g>
					<g>
						<path class="st0" d="M136.4,119.1c-1.1-1.2-4.1-3.5-5.6-4.2l-1.1-0.5l0.6-1c0.3-0.5,0.6-1,0.8-1.5l-1.9,1.2l-0.5-1.2
							c-0.5-1.2-1.4-2.9-2.3-4.6v11.8h-9.5v-11.2c-1.2,2.6-2.6,5.3-3.8,7.3l-0.7,1.1l-0.9-0.8c-1.1-0.9-3.4-2.6-4.8-3.3l-1-0.6
							l0.7-1c1.5-2.2,3.1-5.5,4.2-8.6h-3.1v-8.5h9.4v-1.1h-9.8v-8.3h4.2c-0.3-1.2-0.7-2.4-0.9-3l-0.1-0.3H108v-8.3h7.9
							c-0.3-0.9-0.5-1.7-0.8-2.4l-0.4-1.1l9.7-2.3l0.3,0.9c0.6,1.6,1.3,3.4,1.9,5h7.3v8.3H132l-0.1,0.1c-0.4,0.8-0.7,1.5-1,2.3
							c-0.1,0.3-0.3,0.6-0.4,0.9h3.4V72.7l0.9-0.2c6-1.2,11.9-2.9,15.5-4.7l0.7-0.3l7.5,7.3l-1.5,0.6c-4.7,1.9-10,3.2-13.8,3.9v5.4
							h15.4v9.2h-4.4v25.4h-9.5V93.9h-1.4c-0.1,11.7-1.8,19.9-5.2,25.1l-0.8,1.1L136.4,119.1L136.4,119.1z M132.4,102
							c0.3,0.5,0.7,1.1,1,1.6c0.1-0.5,0.1-1.1,0.2-1.6H132.4L132.4,102z M116.9,102.4V102h-1.4L116.9,102.4z M126.4,102.4l0.6-0.4
							h-0.6V102.4z M133.8,93.5v6.8c0.2-2.5,0.2-5.1,0.2-7.6v-0.3h-7.6v1.1H133.8L133.8,93.5z M121.4,84.1c0.4-1,0.8-2.2,1.2-3.3
							h-3.4c0.4,1.3,0.7,2.3,0.9,3.1v0.2C120.1,84.1,121.4,84.1,121.4,84.1z"/>
						<path d="M123.8,67.9c0.7,1.7,1.5,3.9,2.1,5.7h7v6.2H127l4,0.7c-0.8,1.7-1.5,3.3-2.1,4.7h4.8v6.2h-8.4v3.2h7.4v6.4h-7.3v17H118
							v-17.1h-9.4v-6.4h9.4v-3.2h-9.8v-6.2h4.5c-0.3-1.3-0.8-3.1-1.2-4.4l4.1-1H109v-6.2h8.3c-0.4-1.3-0.8-2.7-1.2-3.8L123.8,67.9
							 M124,79.8h-6.3c0.5,1.5,1.1,3.2,1.3,4.4l-3.8,1.1h6.9C122.8,83.5,123.6,81.4,124,79.8 M150.8,68.8l5.8,5.6
							c-4.3,1.7-9.5,3.1-14.4,4v7.3h15.4v7h-4.4v25.4h-7.4V92.8h-3.6c0,7.8-0.7,19-5,25.6c-1.2-1.3-4.3-3.7-5.9-4.5
							c0.9-1.4,1.5-3,2.1-4.7l-3.6,2.3c-0.8-2-2.6-5.2-4-7.5l4.9-2.8c1.2,1.7,2.4,3.7,3.4,5.5c1-4.6,1.1-9.7,1.1-13.9V73.6
							C140.8,72.5,146.9,70.7,150.8,68.8 M111.7,102l5.8,1.7c-1.4,3.7-3.6,8.1-5.3,10.9c-1.1-0.9-3.5-2.6-4.9-3.4
							C108.9,108.8,110.6,105.1,111.7,102 M125.1,65.4l-1.8,0.4l-7.7,1.8l-2.3,0.6l0.8,2.2c0.1,0.3,0.2,0.6,0.3,1h-7.6v10.4h2.7
							c0.1,0.3,0.2,0.7,0.3,1.2H106v10.5h0.4v9.6h2.6c-1,2.6-2.3,5.2-3.6,6.9l-1.3,1.9l2.1,1.1c1.2,0.7,3.6,2.3,4.6,3.2l1.9,1.6
							l1.3-2.1c0.6-0.9,1.2-2.1,1.8-3.2v7.6h11.7v-8.4c0.1,0.2,0.2,0.4,0.3,0.6l0.8,1.9l-0.4,0.6l2.1,1.1c1.3,0.7,4.2,2.9,5.3,4
							l1.8,2l1.5-2.3c2.3-3.5,3.9-8.4,4.7-14.7v15.5h11.7V94.9h4.4V83.6h-15.4v-3.4c3.8-0.8,8.7-2,13.1-3.8l3-1.2l-2.3-2.3l-5.8-5.6
							l-1.1-1l-1.3,0.7c-3.5,1.7-9.3,3.5-15.2,4.6h-7.3c-0.5-1.4-1.1-2.9-1.6-4.3L125.1,65.4L125.1,65.4L125.1,65.4z M132.7,81.9
							h0.2V83h-0.7C132.4,82.7,132.5,82.3,132.7,81.9L132.7,81.9L132.7,81.9z M120.6,81.9h0.5c-0.1,0.2-0.2,0.5-0.3,0.7
							C120.8,82.4,120.7,82.1,120.6,81.9L120.6,81.9z"/>
					</g>
					<g>
						<path class="st0" d="M158.2,109.1l1.2-0.3c3.2-0.9,7.6-2.3,12.2-3.8l0.5-0.2V89.2h-11.5v-9.8h11.5V68.3h10.1v33.1l2.1-0.7
							l1.7,8.6c-0.1-0.9-0.1-1.9-0.1-3V68.4H196v11h13.2v9.8H196v17.2c0,0.6,0,2,0.2,2.3l0,0c0.1,0,0.2,0,0.5,0h3.8
							c0.9,0,1.1-6.1,1.3-10.5l0.1-2.1l1.6,1.3c1.8,1.4,5.1,2.9,6.9,3.3l0.9,0.2l-0.1,0.9c-0.6,10.7-2.4,16.5-9.9,16.5h-5.9
							c-6.1,0-8.8-2.3-9.4-8.7l-0.8,0.3c-7.1,2.9-15.2,6.2-21.8,8.7l-0.9,0.4L158.2,109.1L158.2,109.1z"/>
						<path d="M181.1,69.4v33.5l2.4-0.8l1.4,6.9c-7.4,3.1-15.4,6.3-21.8,8.7l-3.4-7.9c3.5-0.9,8.3-2.5,13.5-4.2V88.2h-11.5v-7.6
							h11.5V69.4H181.1 M195,69.4v11h13.2V88H195v18.2c0,3,0.2,3.4,1.7,3.4h3.8c1.7,0,2.1-2.4,2.4-11.5c1.8,1.5,5.2,3.1,7.3,3.5
							c-0.6,11-2.4,15.4-8.8,15.4h-5.9c-6.5,0-8.5-2.6-8.5-10.9V69.4H195 M183.3,67.2H171v11.2h-11.5v11.9H171V104
							c-4.6,1.5-8.8,2.8-11.9,3.7l-2.4,0.7l1,2.2l3.4,7.9l0.8,1.9l1.9-0.7c6.6-2.5,14.3-5.6,21.4-8.5c1.1,6.7,4.8,8.2,10.2,8.2h5.9
							c9.2,0,10.4-8.2,10.9-17.4l0.1-1.8l-1.8-0.4c-1.7-0.4-4.8-1.8-6.4-3.1l-3.3-2.7l-0.1,4.2c-0.1,3-0.3,7.9-0.7,9.4h-2.9
							c0-0.5,0-1,0-1.3V90.2h13.2V78.3h-13.2v-11h-12.2v32.1l-1.6,0.5L183.3,67.2L183.3,67.2L183.3,67.2z"/>
					</g>
					<g>
						<path class="st0" d="M215.6,118.9c-0.5-2-1.7-5.3-2.9-7l-1-1.5l1.8-0.1c7.8-0.4,14.3-1.3,19.7-2.8c-0.7-0.7-1.6-1.4-2.5-2.1
							c-1.6,0.7-3.5,1.5-5.4,2.1l-0.9,0.3L224,107c-0.9-1.8-3-4.4-4.4-5.6l-1.5-1.3l1.9-0.6c5.1-1.5,9.6-3.4,13.4-5.7
							c-4.6,1.7-9.8,3.1-15.4,4.1l-0.9,0.2l-0.3-0.8c-0.7-1.9-2.1-4.8-3.3-6.4l-1.2-1.5l1.9-0.3c4.5-0.6,8.7-1.5,12.5-2.7
							c-0.8-0.8-1.7-1.6-2.4-2.2c-1.1,0.5-2.1,1.1-3.3,1.6l-0.8,0.3l-0.5-0.8c-1.1-1.7-3.4-4.1-4.9-5.2l-1.7-1.2l2-0.7
							c7.7-2.7,14.1-6.5,18-10.7l0.4-0.5l10.6,2.4l-1.3,1.3c-0.2,0.2-0.4,0.4-0.6,0.6h6.9l1.6-0.4l6.3,3.7l-0.5,0.9
							c-2.4,4.4-5.9,8.2-10.3,11.4l6.7,1.5l-1.2,1.3c-0.5,0.6-0.9,1.1-1.4,1.6h4.9l1.6-0.4l6.5,3.7l-0.4,0.9
							c-8.4,18.3-28.1,22.3-46.3,23.9l-0.9,0.1L215.6,118.9L215.6,118.9z M239.5,100.7c1.2,0.9,2.5,2,3.5,2.9c1.7-1,3.2-2,4.5-3.1
							h-7.7C239.7,100.5,239.6,100.6,239.5,100.7L239.5,100.7z M233.2,80.4c0.9,0.8,1.9,1.6,2.7,2.4c1.5-0.8,2.9-1.6,4.1-2.4H233.2z
							"/>
						<path d="M233.9,68.4l8.2,1.9c-0.8,0.8-1.6,1.6-2.5,2.4h9.7l1.3-0.3l5,2.9c-2.8,5.1-7,9.2-12,12.4l7.4,1.7
							c-1,1.2-2,2.3-3.1,3.3h7.5l1.4-0.4l5.3,3c-7.5,16.3-24.4,21.5-45.4,23.3c-0.5-2.1-1.8-5.5-3-7.3c8.1-0.4,15.4-1.4,21.7-3.3
							c-1.2-1.3-2.8-2.7-4.4-3.9c-1.8,0.8-3.8,1.6-5.9,2.4c-0.9-1.8-3.1-4.6-4.6-5.9c9.7-2.8,16.5-6.9,20.7-11.3
							c-6.8,3.8-14.8,6.2-23.3,7.7c-0.7-1.9-2.2-5-3.5-6.7c5-0.7,9.9-1.7,14.3-3.2c-1.2-1.3-2.7-2.7-4.2-4c-1.3,0.6-2.5,1.3-3.9,1.8
							c-1.1-1.7-3.5-4.3-5.1-5.5C224,76.5,230.2,72.4,233.9,68.4 M243.1,79.4H231l-0.4,0.3c1.8,1.5,3.8,3.1,5.1,4.6
							C238.5,82.8,241,81.2,243.1,79.4 M250.2,99.4h-10.7c-0.6,0.4-1.3,0.8-1.9,1.2c1.9,1.4,3.8,3,5.2,4.4
							C245.7,103.4,248.2,101.6,250.2,99.4 M233.2,66l-0.8,0.9c-3.8,4.2-10.1,7.9-17.6,10.5l-4,1.4l3.5,2.4c1.4,0.9,3.5,3.2,4.6,4.8
							l0.8,1.2c-1.8,0.3-3.6,0.7-5.5,0.9l-3.7,0.5l2.4,2.9c1.1,1.4,2.5,4.2,3.2,6l0.6,1.7l1.4-0.2l-1.8,0.5l3.1,2.6
							c1.3,1.1,3.3,3.6,4.1,5.2l0.4,0.8c-3.1,0.4-6.4,0.7-10.1,0.9l-3.6,0.2l2,3.1c1.1,1.7,2.2,4.8,2.7,6.7l0.4,1.8l1.8-0.2
							c18.5-1.6,38.6-5.8,47.2-24.6l0.8-1.8l-1.7-1l-5.3-3L257,90l-0.8,0.2l-1.1,0.3h-2.4l2.1-2.5l-3.4-0.8l-2.8-0.6
							c3.7-3,6.6-6.4,8.8-10.3l1-1.8l-1.8-1.1l-5-2.9l-0.8-0.4l-0.8,0.2l-1,0.2h-4.3l1.4-1.5l-3.6-0.8l-8.2-1.9L233.2,66L233.2,66
							L233.2,66z M236,81.5h0.2H236L236,81.5L236,81.5L236,81.5z M221.6,86.8c0.9-0.4,1.8-0.8,2.6-1.2c0.2,0.1,0.3,0.3,0.5,0.4
							C223.7,86.3,222.6,86.5,221.6,86.8L221.6,86.8L221.6,86.8z M242.3,101.5h2.1c-0.4,0.3-0.8,0.5-1.2,0.8
							C242.9,102.1,242.6,101.8,242.3,101.5L242.3,101.5z M228.3,107.5c0.8-0.3,1.6-0.6,2.3-0.9c0.1,0.1,0.3,0.2,0.4,0.4
							C230.2,107.1,229.3,107.3,228.3,107.5L228.3,107.5L228.3,107.5z"/>
					</g>
					<g>
						<path class="st0" d="M268.8,118.8c-0.8-1.8-2.8-4.5-4.4-5.9l-1.4-1.2l1.7-0.6c9.7-3.6,11.2-9.1,11.8-16.5h-11V85h49.7v9.5
							h-13.4V108c0,0.8,0,1.1,0.1,1.3c0.1,0,0.3,0,0.6,0h3.6c0.2,0,0.2,0,0.2,0c0.5-0.4,0.7-4.9,0.8-7.6l0.1-2.1l1.7,1.3
							c1.4,1.1,4.5,2.4,6.6,2.9l0.9,0.2l-0.1,0.9c-0.7,9-2.3,13.6-9.5,13.6h-5.7c-7.9,0-9.4-3.7-9.4-10.5V94.6H287
							c-1,10-3.2,19.3-16.8,24.8l-1,0.4L268.8,118.8L268.8,118.8z M270.4,80.5V71h39.7v9.5H270.4z"/>
						<path d="M309.1,72.1v7.3h-37.6v-7.3H309.1 M314.1,86.1v7.4h-13.4v14.6c0,2.1,0.2,2.4,1.7,2.4h3.6c1.6,0,1.8-1.3,2.1-8.6
							c1.6,1.3,5,2.6,7,3.2c-0.7,9.7-2.6,12.6-8.4,12.6H301c-6.7,0-8.4-2.4-8.4-9.5V93.5H286c-1,10.8-3.2,19.6-16.2,24.8
							c-0.8-1.9-2.9-4.8-4.7-6.2c10.8-4,12-10.6,12.6-18.6h-11.1v-7.4L314.1,86.1 M311.2,69.9h-41.9v11.6h41.9V69.9L311.2,69.9z
							 M316.3,83.9h-51.8v11.7h11c-0.7,6.6-2.4,11.3-11,14.5l-3.4,1.3l2.8,2.4c1.5,1.2,3.4,3.8,4.1,5.5l0.8,1.9l1.9-0.8
							c13.6-5.5,16.3-15.1,17.3-24.7h2.8v12.5c0,9.7,4,11.6,10.5,11.6h5.7c7.9,0,9.8-5.1,10.5-14.6l0.1-1.8l-1.7-0.4
							c-2-0.5-5-1.7-6.2-2.8l-3.3-2.7l-0.1,4.2c-0.1,1.9-0.2,5.2-0.5,6.6h-2.7c0-0.1,0-0.2,0-0.2V95.6h13.4V83.9H316.3L316.3,83.9z"
							/>
					</g>
					<g>
						<path class="st0" d="M321.2,118.9c-0.8-1.7-3-5.2-4.5-7l-1.1-1.3l1.7-0.4c7.5-1.7,13.6-4.2,18.6-7.6c-3.8-4.6-7-10.2-9.6-16.9
							h-8.6v-9.6H339c-0.5-1.8-1.3-3.8-2-5.4l-0.5-1.1l10.2-3l0.4,0.8c1.2,2.3,2.8,5.8,3.4,8.2l0.1,0.5h17.7v9.6H360
							c-2.3,6.5-5.4,12-9.3,16.7c5,3.4,11,5.9,17.9,7.4l1.9,0.4l-1.4,1.4c-1.6,1.5-3.8,4.7-5,6.9l-0.4,0.7l-0.8-0.2
							c-7.8-2-14.3-5.1-19.8-9.4c-5.6,4.3-12.4,7.5-20.7,9.8l-0.9,0.2L321.2,118.9L321.2,118.9z M336.6,85.7c1.8,3.8,4,7.2,6.7,10.2
							c2.4-3,4.4-6.4,5.9-10.2H336.6L336.6,85.7z"/>
						<path d="M346.1,67.9c1.3,2.5,2.8,5.8,3.3,8l-4.2,1.3h22.1v7.5h-7.9c-2.5,7.1-5.8,13.1-10.1,18c5.2,3.8,11.6,6.6,19.2,8.2
							c-1.7,1.7-4,5-5.1,7.1c-8.1-2.1-14.7-5.4-20.1-9.7c-5.7,4.5-12.7,7.8-21,10.1c-0.8-1.8-3.1-5.4-4.6-7.2
							c8-1.8,14.6-4.5,19.9-8.4c-4.4-5-7.7-11.1-10.5-18.2h-8.3v-7.5h21.6c-0.5-2.1-1.5-4.8-2.5-6.9L346.1,67.9 M350.7,84.7H335
							c2,4.8,4.8,9.1,8.4,12.9C346.4,94,348.9,89.7,350.7,84.7 M347.2,65.4l-1.7,0.5l-8.2,2.4l-2.4,0.7l1.1,2.2
							c0.5,1.1,1.1,2.5,1.5,3.8h-20.9v11.7h9c2.5,6.1,5.4,11.2,8.8,15.6c-4.7,3-10.3,5.2-17.2,6.8l-3.4,0.8l2.2,2.7
							c1.4,1.7,3.6,5.1,4.3,6.7l0.8,1.7l1.8-0.5c8.1-2.2,14.8-5.4,20.4-9.5c5.5,4.1,11.9,7.1,19.5,9.1l1.6,0.4l0.8-1.4
							c1.1-2.1,3.3-5.2,4.8-6.6l2.8-2.8l-3.9-0.8c-6.3-1.4-11.8-3.6-16.5-6.6c3.5-4.4,6.3-9.5,8.5-15.4h8.6V75.1h-18
							c-0.7-2.5-2.2-5.9-3.4-8.2L347.2,65.4L347.2,65.4L347.2,65.4z M338.3,86.8h9.2c-1.2,2.7-2.6,5.2-4.3,7.4
							C341.3,92,339.7,89.5,338.3,86.8L338.3,86.8L338.3,86.8z"/>
					</g>
					<g>
						<path class="st0" d="M376.8,119.5v-25c-0.6,0.7-1.3,1.4-2.1,2.1l-1.2,1.1l-0.6-1.5c-0.7-1.8-2.6-6-3.8-7.8l-0.5-0.8l0.7-0.6
							c5-4.4,9.9-11.5,12.7-18.6l0.4-0.9l9.1,3.1l-0.4,1.1c-1.2,3-2.8,6.2-4.9,9.9v38C386.1,119.5,376.8,119.5,376.8,119.5z
							 M402.5,118.7c-7.8,0-10.3-2.8-10.3-11.6V68.6h9.5v12.9h18.2v9.4h-18.2v16.2c0,1.8,0.6,2.7,1.7,2.7h6.6c1.4,0,1.9-0.8,2.4-9.7
							l0.1-2l1.6,1.2c1.6,1.2,4.5,2.6,6.3,3l0.9,0.2l-0.1,0.9c-0.8,10.1-2.6,15.2-10.6,15.2L402.5,118.7L402.5,118.7z"/>
						<path d="M383,68.8l7.1,2.4c-1.4,3.3-3.1,6.7-5,10v37.2h-7.2V91.6c-1.3,1.6-2.6,2.9-3.9,4.2c-0.7-1.8-2.7-6.1-3.9-8
							C375.1,83.3,380.1,76.1,383,68.8 M400.7,69.6v12.9h18.2v7.3h-18.2v17.3c0,3.3,0.3,3.7,2.7,3.7h6.6c2.6,0,3-2.1,3.5-10.7
							c1.7,1.3,4.8,2.7,6.7,3.2c-0.8,10.3-2.6,14.2-9.5,14.2h-8.1c-7.2,0-9.2-2.4-9.2-10.6V69.6H400.7 M381.7,66.1L381,68
							c-2.7,6.9-7.5,13.9-12.4,18.2l-1.4,1.2l1,1.6c1.2,1.8,3.1,5.9,3.7,7.6l1.1,3l2.3-2.2c0.1-0.1,0.2-0.2,0.3-0.3v23.5h11.5V81.7
							c1.6-2.8,2.9-5.4,4-7.8V107c0,10.6,4.1,12.7,11.3,12.7h8.1c9.6,0,11-7.3,11.6-16.2l0.1-1.8l-1.8-0.4c-1.7-0.4-4.4-1.7-5.9-2.8
							l-3.2-2.4l-0.2,4c-0.1,2.7-0.4,7.8-1.1,8.6c0,0-0.1,0-0.2,0h-6.6c-0.2,0-0.4,0-0.5,0c0-0.3,0-0.9,0-1.6V92H421V80.4h-18.2
							V67.5h-11.6v1.8l-0.4-0.2l-7.1-2.4L381.7,66.1L381.7,66.1L381.7,66.1z"/>
					</g>
					<g>
						<path class="st0" d="M423.1,118.1v-9.6H443v-6.9h-13.6v-7.9l-0.7-0.6c-1.5-1.3-4.9-3.5-6.7-4.5l-1.2-0.7l1-1
							c3.7-4,7.1-10.8,8.9-18.1l0.2-1l10,2.3l-0.3,1.1c-0.5,1.7-1.1,3.5-1.8,5.5h4.1v-9.1H453v9.1h17.2v9.6H453v5.9h15.1v9.5H453
							v6.9h20v9.6L423.1,118.1L423.1,118.1z M442.9,92.1v-5.9h-8.4c-1.3,2.4-2.5,4.3-3.7,5.9H442.9L442.9,92.1z"/>
						<path d="M452,68.6v9.1h17.2v7.5H452v8h15.1v7.3H452v9h20v7.5h-47.8v-7.5H444v-9h-13.6v-7.3H444v-8h-10.1
							c-1.5,2.7-3,5.2-4.6,7.1c-1.5-1.3-4.9-3.6-6.9-4.6c4-4.3,7.4-11.5,9.2-18.6l7.9,1.8c-0.6,2.3-1.4,4.6-2.3,6.8h6.7v-9.1
							L452,68.6 M454.1,66.5h-12.2v2.8l-1.8-0.4l-7.9-1.8l-2-0.5l-0.5,2c-1.8,7.1-5.1,13.9-8.7,17.7l-1.9,2l2.4,1.3
							c2,1.1,5.2,3.2,6.5,4.4l0.3,0.3v8.5h13.6v4.8H422v11.7h52.1v-11.7h-20v-4.8h15.1V91.1h-15.1v-3.8h17.2V75.6h-17.2V66.5
							L454.1,66.5L454.1,66.5z M440.3,75.6c0.5-1.4,0.9-2.8,1.3-4.1l0.2-0.8v5L440.3,75.6L440.3,75.6z M435.2,87.3h6.7v3.8h-9
							C433.6,90,434.4,88.7,435.2,87.3L435.2,87.3L435.2,87.3z"/>
					</g>
					<g>
						<path class="st0" d="M493.7,119.5V95.6h10.5v-3.4h-13.5v-2.7l-3.9,5.8l6.5,5.8l-0.4,0.7c-2.8,5.6-6,11.3-9.2,16.5l-0.6,1
							l-8.2-6.5l0.6-0.8c2.4-3.3,6.4-9.6,9.8-16.1l-0.2-0.1c-1.6-1.1-5-3.1-9.8-5.6l-1.1-0.6l5.3-7.4l0.8,0.4
							c2.8,1.2,7.7,3.6,10.2,5.1l0.2,0.1v-5.1h13.5v-2.5c-2.7,0.4-5.6,0.7-8.4,0.9l-1,0.1l-0.1-1c-0.2-1.4-0.9-3.5-1.5-5.1l-5.1,6.9
							l-0.9-0.6c-1.5-1.1-4.3-2.7-6.8-4.2c-0.9-0.6-1.8-1.1-2.6-1.5l-1-0.6l5.6-7.2l1.8,0.9c2.6,1.3,6,3,8.1,4.3l-0.2-0.5l1.5-0.1
							c9.6-0.9,18.5-2.8,23.8-5l0.7-0.3l7.5,7.7l-1.5,0.6c-3.3,1.3-6.8,2.3-10.3,3.1v4.2h12.8v9.4h-12.8v3.4h10.6v23.7H515v-1.9h-12
							v2.1L493.7,119.5L493.7,119.5z M514.7,108.4v-3.8h-12v3.8H514.7z"/>
						<path d="M517.6,68.5l5.8,6c-3.4,1.3-7.1,2.4-11,3.2v6.2h12.8v7.3h-12.8v5.6H523v21.5h-7.2v-1.9h-14.2v2.1h-6.9V96.7h10.5v-5.6
							h-13.5v-7.3h13.5V79c-3.2,0.5-6.5,0.8-9.6,1.1c-0.3-1.8-1.3-4.8-2-6.5C502.4,72.7,511.8,70.9,517.6,68.5 M501.6,109.4h14.2
							v-5.9h-14.2L501.6,109.4 M482.6,69.3c2.8,1.4,7.4,3.7,9.7,5.2l-4.5,6.1c-2-1.5-6.6-4-9.5-5.8L482.6,69.3 M479.9,83.7
							c2.9,1.3,7.7,3.6,10.1,5l-4.2,6.4c-2.1-1.5-6.8-4-9.9-5.7L479.9,83.7 M486.3,96.4l5.6,5.1c-2.8,5.5-5.9,11.2-9.1,16.4
							l-6.5-5.2C479.1,108.9,483.1,102.5,486.3,96.4 M518.2,65.9l-1.3,0.6c-5.2,2.2-13.9,4-23.4,4.9l-1.7,0.2
							c-2.1-1.2-4.9-2.6-7.1-3.7l-1-0.5l-1.6-0.8L481,68l-4.3,5.5l-1.5,1.9l2.1,1.2c0.8,0.5,1.7,1,2.6,1.6c2.5,1.4,5.2,3.1,6.6,4.1
							l1.7,1.3l1.3-1.7l3.3-4.5c0.4,1.1,0.6,2.2,0.8,3l0.2,1.3h-4.1v4.4c-2.7-1.4-6.5-3.2-8.9-4.3l-1.6-0.7l-1,1.4l-4.1,5.7l-1.4,2
							l2.2,1.1c4.2,2.2,7.3,4,9.1,5.1c-3.3,6.2-7,12-9.3,15.1l-1.2,1.6l1.6,1.3l6.5,5.2l1.9,1.5l1.3-2.1c2.8-4.6,5.5-9.4,8-14.3
							v15.8h11.1v-2.1h9.9v1.9h11.5V94.6h-10.6v-1.3h12.8V81.7h-12.8v-2.3c3.4-0.8,6.6-1.8,9.7-2.9l3-1.2L525,73l-5.8-6L518.2,65.9
							L518.2,65.9L518.2,65.9z M501,81.7c0.7-0.1,1.4-0.2,2.1-0.3v0.3H501z M488.2,95.2l1.5-2.2v0.2h13.5v1.3h-10.5v4.7L488.2,95.2
							L488.2,95.2z M503.8,105.7h9.9v1.6h-9.9L503.8,105.7L503.8,105.7L503.8,105.7z"/>
					</g>
				</g>
				<g>
					<g>
						<path class="st0" d="M219,183.9v-11.5c0-0.7,0-1.4,0.1-2.3l-4.1,11.1h-5.5l-4.1-10.9c0,0.7,0.1,1.4,0.1,2v11.5h-8.6v-32.4h9.7
							l5.1,13.8c0.3,0.8,0.5,1.7,0.8,2.5c0.2-0.8,0.5-1.7,0.8-2.5l4.9-13.8h9.7v32.4L219,183.9L219,183.9z"/>
						<path d="M226.8,152.6v30.3h-6.6v-10.4c0-3,0.6-7.5,0.9-10.5h-0.2l-2.5,7.2l-4.1,11.1h-4l-4.1-11.1l-2.4-7.2h-0.2
							c0.4,3,0.9,7.5,0.9,10.5v10.4H198v-30.3h7.9l4.8,13.1c0.6,1.8,1.1,3.7,1.7,5.5h0.2c0.6-1.9,1.1-3.8,1.7-5.5l4.6-13.1H226.8
							 M228.9,150.4h-11.5l-0.5,1.4l-4.4,12.4l-4.6-12.5l-0.5-1.4h-11.5V185h10.8v-8.4l1.7,4.5l0.5,1.4h7l0.5-1.4l1.7-4.6v8.6H229
							L228.9,150.4L228.9,150.4L228.9,150.4z"/>
					</g>
					<g>
						<rect x="232.6" y="151.5" class="st0" width="9.4" height="32.4"/>
						<path d="M241,152.6v30.3h-7.3v-30.3H241 M243.2,150.4h-11.6V185h11.6V150.4L243.2,150.4z"/>
					</g>
					<g>
						<path class="st0" d="M262,183.9l-3.1-6.5c-0.4-1-0.9-1.9-1.3-2.9c-0.4,1-0.8,2-1.2,2.9l-2.9,6.6h-10.3l8.9-16.7l-8.4-15.8
							h10.6l2.7,6.1c0.4,0.9,0.8,1.8,1.2,2.8c0.4-1.1,0.8-2,1.1-2.8l2.5-6.1H272l-8.4,16.1l8.9,16.4L262,183.9L262,183.9z"/>
						<path d="M270.2,152.6l-7.8,15l8.4,15.3h-8.1l-2.8-5.9c-0.7-1.6-1.4-3.2-2.2-5.1h-0.2c-0.7,1.9-1.4,3.5-2.1,5.1l-2.6,5.9H245
							l8.4-15.6l-7.9-14.7h8.1l2.4,5.4c0.6,1.4,1.3,3,2.2,5h0.2c0.7-2,1.3-3.6,2-5l2.2-5.4H270.2 M273.7,150.4h-12.6l-0.5,1.3
							l-2.2,5.4c-0.1,0.1-0.1,0.3-0.2,0.4c-0.1-0.2-0.1-0.3-0.2-0.5l-2.4-5.4l-0.6-1.2h-13l1.7,3.1l7.3,13.7l-7.8,14.6l-1.7,3.1
							h12.7l0.6-1.3l2.6-5.9c0.1-0.2,0.2-0.4,0.3-0.7c0.1,0.2,0.2,0.5,0.3,0.7l2.8,5.9l0.6,1.2h13l-1.7-3.1l-7.8-14.3l7.3-14
							L273.7,150.4L273.7,150.4L273.7,150.4z"/>
					</g>
					<g>
						<rect x="288.5" y="151.5" class="st0" width="9.4" height="32.4"/>
						<path d="M296.8,152.6v30.3h-7.3v-30.3H296.8 M299,150.4h-11.5V185H299V150.4L299,150.4z"/>
					</g>
					<g>
						<path class="st0" d="M319.8,183.9l-7.8-15.2l-0.5-1.2c0.2,1.8,0.3,3.6,0.3,5.2v11.1h-9.1v-32.4h9.1l7.8,15.1l0.5,1
							c-0.1-1.7-0.3-3.4-0.3-5v-11.1h9v32.4L319.8,183.9L319.8,183.9z"/>
						<path d="M327.9,152.6v30.3h-7.4l-7.5-14.6l-3-6.6h-0.2c0.3,3.4,0.9,7.5,0.9,11.2V183h-6.9v-30.3h7.4l7.5,14.5l3,6.7h0.2
							c-0.4-3.2-1-7.6-1-11.2v-10L327.9,152.6 M330,150.4h-11.2v12.1l0,0l-5.7-11l-0.6-1.1h-10.8V185h11.2v-12.3l5.7,11.2l0.6,1.2
							H330V150.4L330,150.4L330,150.4z"/>
					</g>
					<g>
						<polygon class="st0" points="349.1,183.9 349.1,159.6 340.9,159.6 340.9,151.5 366.7,151.5 366.7,159.6 358.5,159.6 
							358.5,183.9 						"/>
						<path d="M365.7,152.6v6h-8.2v24.3h-7.3v-24.3H342v-6H365.7 M367.8,150.4h-28v10.3h8.2V185h11.5v-24.3h8.2L367.8,150.4
							L367.8,150.4L367.8,150.4z"/>
					</g>
					<g>
						<polygon class="st0" points="386.6,183.9 386.6,171.5 378.7,171.5 378.7,183.9 369.3,183.9 369.3,151.5 378.7,151.5 
							378.7,163 386.6,163 386.6,151.5 395.9,151.5 395.9,183.9 						"/>
						<path d="M394.9,152.6v30.3h-7.2v-12.5h-10v12.5h-7.3v-30.3h7.3v11.5h10v-11.5H394.9 M397,150.4h-11.5v11.5h-5.7v-11.5h-11.5
							V185h11.5v-12.5h5.7V185H397V150.4L397,150.4z"/>
					</g>
					<g>
						<polygon class="st0" points="400.9,183.9 400.9,151.5 422.2,151.5 422.2,159.6 410.3,159.6 410.3,163.1 420.4,163.1 
							420.4,171.4 410.3,171.4 410.3,175.7 422.7,175.7 422.7,183.9 						"/>
						<path d="M421.1,152.6v6h-11.9v5.6h10.1v6.1h-10.1v6.4h12.4v6.1h-19.7v-30.3L421.1,152.6 M423.3,150.4h-23.5V185h23.9v-10.4
							h-12.4v-2.2h10.1V162h-10.1v-1.4h11.9L423.3,150.4L423.3,150.4L423.3,150.4z"/>
					</g>
					<g>
						<path class="st0" d="M449.8,184.5c-7.6,0-15.3-5.1-15.3-16.6c0-8.4,5.3-17,15.5-17c5,0,8.4,2.7,10,4.3l0.7,0.7l-5.1,6.2
							l-0.8-0.8c-1.6-1.5-2.9-2.1-4.5-2.1c-3.6,0-6.1,3.4-6.1,8.4c0,5.3,2.2,8.5,6,8.5c2.3,0,4-1.3,5-2.4l0.8-0.9l5.2,6.2l-0.6,0.7
							C457.7,182.8,454,184.5,449.8,184.5L449.8,184.5z"/>
						<path d="M450,152c4,0,7.1,1.8,9.2,3.9l-3.8,4.6c-1.5-1.4-3.1-2.4-5.3-2.4c-3.9,0-7.1,3.5-7.1,9.4s2.8,9.5,7,9.5
							c2.4,0,4.4-1.2,5.8-2.8l3.8,4.6c-2.6,3-6,4.5-9.9,4.5c-7.7,0-14.2-5.3-14.2-15.6S442.3,152,450,152 M450,149.9
							c-4.5,0-8.6,1.7-11.6,4.8c-3.2,3.3-5,7.9-5,13.2c0,12.2,8.2,17.7,16.4,17.7c4.6,0,8.6-1.8,11.5-5.2l1.2-1.4l-1.2-1.4l-3.8-4.6
							l-1.6-1.9l-1.6,1.8c-0.9,0.9-2.3,2.1-4.2,2.1c-4.4,0-4.9-5.2-4.9-7.4c0-4.4,2-7.3,5-7.3c1.3,0,2.4,0.5,3.8,1.8l1.6,1.5
							l1.4-1.7l3.8-4.6l1.2-1.5l-1.3-1.4C459.1,152.7,455.4,149.9,450,149.9L450,149.9L450,149.9z"/>
					</g>
					<g>
						<rect x="463" y="151.5" class="st0" width="9.4" height="32.4"/>
						<path d="M471.4,152.6v30.3h-7.3v-30.3H471.4 M473.5,150.4H462V185h11.5V150.4L473.5,150.4z"/>
					</g>
					<g>
						<polygon class="st0" points="483.2,183.9 483.2,159.6 475,159.6 475,151.5 500.9,151.5 500.9,159.6 492.6,159.6 492.6,183.9 
													"/>
						<path d="M499.8,152.6v6h-8.2v24.3h-7.3v-24.3h-8.2v-6H499.8 M501.9,150.4h-28v10.3h8.2V185h11.5v-24.3h8.2L501.9,150.4
							L501.9,150.4L501.9,150.4z"/>
					</g>
					<g>
						<path class="st0" d="M507.8,183.9v-11.6l-9.7-20.9h10.1l2.8,7.4c0.5,1.5,1,2.8,1.5,4.3c0.3-0.8,4.4-11.7,4.4-11.7h10
							l-9.8,20.9v11.6H507.8L507.8,183.9z"/>
						<path d="M525.3,152.6l-9.2,19.6v10.7h-7.3v-10.7l-9.1-19.6h7.8l2.5,6.7c0.8,2.3,1.6,4.4,2.4,6.8h0.2c0.9-2.4,1.7-4.5,2.5-6.8
							l2.5-6.7H525.3 M528.6,150.4h-12.4l-0.5,1.4l-2.5,6.7l-0.6,1.6c-0.2-0.5-0.4-1-0.5-1.5l-2.5-6.8l-0.5-1.4h-12.6l1.4,3
							l8.9,19.2V185h11.5v-12.4l9-19.2L528.6,150.4L528.6,150.4L528.6,150.4z"/>
					</g>
				</g>
			</g>
			<g>
				<path class="st0" d="M272.2,201.7H262l-0.5,1.4l-10.7,32.6l0.5-5.8l0.2-2.2h-5.3l2.1-23.9l0.2-2.2h-13.3l-0.6,0.6l-23.7,25.5
					l-0.5,0.5l-0.1,0.7l-0.9,9.7l-0.2,2.2h21.4l-0.5,5.7l-0.2,2.2h14.3l0.2-1.8l0.5-6.1h4.1l-2,6l-0.9,2.6h10.2l0.5-1.4l14.5-43.8
					L272.2,201.7L272.2,201.7z M227,227.8l5.4-5.7l-0.5,5.7H227z"/>
				<path class="st0" d="M371.3,235.2c0.9-0.6,2-1.4,3.5-2.3c4.5-3,7.6-5.7,9.4-8.2c1.9-2.6,3-5.5,3.3-8.4c0.2-2.8-0.3-5.4-1.7-7.8
					c-1.4-2.3-3.4-4.1-6-5.2c-2.5-1.1-5.9-1.6-10.3-1.6s-7.6,0.5-10.2,1.6s-4.8,2.8-6.4,4.9c-1.6,2.1-2.8,4.9-3.6,8.5l-0.5,2.2
					l2.3,0.2l11.7,0.9l1.7,0.1l0.4-1.7c0.5-2.4,1.3-3.5,1.8-3.9c0.7-0.6,1.5-0.9,2.5-0.9c1.2,0,1.7,0.4,2,0.8c0.5,0.5,0.7,1,0.6,1.8
					s-0.5,1.7-1.3,2.7c-0.7,0.8-2.4,2.4-6.7,5.4c-6.2,4.3-10.5,8-12.9,11.3c-2.5,3.3-4.1,6.9-4.9,10.6l-0.5,2.4H385l0.2-1.8l0.8-9.6
					l0.2-2.2L371.3,235.2L371.3,235.2z"/>
				<path class="st0" d="M421.4,223.2c-0.1-0.1-0.2-0.2-0.4-0.2c0.8-0.7,1.5-1.4,2.1-2.2c1.4-1.8,2.1-3.8,2.3-6
					c0.3-3.8-0.9-6.9-3.7-9.4c-2.7-2.4-7-3.6-13.1-3.6c-5.2,0-9.4,1.1-12.5,3.2c-3.1,2.1-5.4,5.2-6.8,9.1l-0.8,2.2l2.3,0.4l10.9,2
					l0.8,0.1l-0.2,1l-1.3,8.4l-0.5,3.1l3-0.8c1.8-0.5,2.8-0.6,3.3-0.6c1.5,0,2.1,0.5,2.5,0.9c0.5,0.6,0.8,1.7,0.6,3.1
					c-0.1,1.5-0.6,2.6-1.4,3.4c-0.8,0.8-1.6,1.1-2.7,1.1c-1.3,0-1.8-0.4-2.2-0.8s-0.9-1.2-1.2-3.7l-0.2-2l-2,0.3l-11.9,1.6l-2.1,0.3
					l0.4,2.1c0.6,2.9,1.6,5.4,3.1,7.4s3.5,3.6,6,4.6c2.4,1,5.6,1.5,9.8,1.5s7.8-0.7,10.6-2c2.9-1.4,5.1-3.4,6.8-5.9
					c1.7-2.5,2.6-5.2,2.9-8c0.2-2.3-0.1-4.4-0.9-6.1C424.3,225.7,423,224.3,421.4,223.2L421.4,223.2z M404.2,217.2
					c0.5-2.2,1.2-3.1,1.5-3.4c0.6-0.5,1.3-0.8,2.2-0.8c1.1,0,1.5,0.4,1.6,0.5c0.2,0.2,0.5,0.6,0.4,1.6c-0.1,0.8-0.5,1.5-1.2,2.2
					c-0.8,0.7-1.6,1-2.7,1c-0.1,0-0.5,0-1.2-0.1L404,218L404.2,217.2L404.2,217.2z"/>
				<polygon class="st0" points="444.6,233 442.4,233 429.9,233 428,233 427.9,234.8 426.8,246.6 426.6,248.8 428.8,248.8 
					441.4,248.8 443.2,248.8 443.4,247 444.4,235.2 				"/>
				<path class="st0" d="M524.1,227.8H521l2.1-23.9l0.2-2.2H510l-0.6,0.6l-23.7,25.5l-0.5,0.5l-0.1,0.7l-0.5,6.2h-14.7
					c0.9-0.6,2-1.4,3.5-2.3c4.5-3,7.6-5.7,9.4-8.2c1.9-2.6,3-5.5,3.3-8.4c0.2-2.8-0.3-5.4-1.7-7.8c-1.4-2.3-3.4-4.1-6-5.2
					c-2.5-1.1-5.9-1.6-10.3-1.6s-7.6,0.5-10.2,1.6s-4.8,2.8-6.4,4.9c-1.6,2.1-2.8,4.9-3.6,8.5l-0.5,2.2l2.3,0.2l11.7,0.9l1.7,0.1
					l0.4-1.7c0.5-2.4,1.3-3.5,1.8-3.9c0.7-0.6,1.5-0.9,2.5-0.9c1.2,0,1.7,0.4,2,0.8c0.5,0.5,0.7,1,0.6,1.8s-0.5,1.7-1.3,2.7
					c-0.7,0.8-2.4,2.4-6.7,5.4c-6.2,4.3-10.5,8-12.9,11.3c-2.5,3.3-4.1,6.9-4.9,10.6l-0.5,2.4h39.6l0.2-1.8l0.5-6.1h21.2l-0.5,5.7
					l-0.2,2.2h14.3l0.2-1.8l0.5-6.1h5.3l0.2-1.8l0.8-9.1l0.2-2.2L524.1,227.8L524.1,227.8z M501.8,227.8l5.4-5.7l-0.5,5.7H501.8z"/>
				<path class="st0" d="M288.6,203.4h-1.2l-0.6,1c-1.3,2.3-3,4.2-5,5.8c-2.1,1.6-5,3-8.7,4.1l-1.3,0.4l-0.1,1.3l-0.8,9.2l-0.3,2.9
					l2.8-0.8c2.8-0.8,5.1-1.7,7-2.6c0.8-0.4,1.6-0.8,2.4-1.3l-2,22.8l-0.2,2.2H296l0.2-1.8l3.6-41l0.2-2.2L288.6,203.4L288.6,203.4z
					"/>
				<path class="st0" d="M338,215.2l0.6-0.5l0.1-0.8l0.7-7.6l0.2-2.2h-36.7l-0.2,1.8l-0.8,9.5l-0.2,2.2h17.8
					c-3.2,4-5.8,7.8-7.7,11.4c-2.4,4.6-4.3,10.3-5.8,17.1l-0.5,2.4h15.4l0.3-1.7c0.8-4.6,1.8-8.6,3.1-11.9c1.7-4.3,3.8-8.2,6.3-11.7
					C332.5,220.3,335,217.7,338,215.2L338,215.2z"/>
				<polygon class="st0" points="329.9,233 328,233 327.9,234.8 326.8,246.6 326.6,248.8 328.8,248.8 341.4,248.8 343.2,248.8 
					343.4,247 344.4,235.2 344.6,233 342.4,233 				"/>
			</g>
			<g>
				<g>
					<path class="st1" d="M228.1,244.8l0.7-7.9h-21.4l1-11.1l24.2-26h11.8l-2.3,26h5.3l-1,11.1h-5.3l-0.7,7.9H228.1L228.1,244.8z
						 M229.8,225.8l0.8-9.5l-8.9,9.5H229.8L229.8,225.8z"/>
					<path class="st2" d="M243.2,200.7l-2.3,26h5.3l-0.8,9.1h-5.3l-0.7,7.9h-10.2l0.7-7.9h-21.4l0.9-9.7l23.7-25.5L243.2,200.7
						 M231.9,213.4l-12.5,13.3h11.3L231.9,213.4 M245.4,198.7h-13.3l-0.6,0.6l-23.7,25.5l-0.5,0.5l-0.1,0.7l-0.9,9.7l-0.2,2.2h21.4
						l-0.5,5.7l-0.2,2.2h14.3l0.2-1.8l0.5-6.1h5.3l0.2-1.8l0.8-9.1l0.2-2.2H243l2.1-23.9L245.4,198.7L245.4,198.7L245.4,198.7z
						 M224,224.8l5.4-5.7l-0.5,5.7H224z"/>
				</g>
				<g>
					<polygon class="st1" points="244.6,245.5 259.7,199.7 267.8,199.7 252.6,245.5 					"/>
					<path class="st2" d="M266.4,200.7l-14.5,43.8H246l14.4-43.8H266.4 M269.2,198.7H259l-0.5,1.4l-14.4,43.8l-0.9,2.6h10.1l0.4-1.4
						l14.5-43.8L269.2,198.7L269.2,198.7L269.2,198.7z"/>
				</g>
				<g>
					<path class="st1" d="M343.7,244.8l0.2-1.2c0.7-3.6,2.3-7.1,4.7-10.2c2.4-3.1,6.6-6.9,12.7-11.1c3.6-2.5,5.9-4.4,6.9-5.6
						c1-1.2,1.5-2.3,1.5-3.2c0.1-1-0.2-1.8-0.9-2.5c-0.7-0.7-1.6-1.1-2.8-1.1c-1.2,0-2.3,0.4-3.1,1.1c-0.9,0.8-1.6,2.3-2,4.5
						l-0.2,0.9l-13.7-1.1l0.2-1.1c0.8-3.4,1.9-6.2,3.4-8.1c1.5-2,3.5-3.5,6-4.6c2.4-1,5.8-1.6,9.8-1.6c4.3,0,7.6,0.5,9.9,1.5
						c2.4,1,4.3,2.6,5.5,4.8c1.2,2.1,1.8,4.5,1.5,7.2c-0.2,2.8-1.3,5.4-3.1,7.9c-1.8,2.4-4.9,5.1-9.2,8c-2.5,1.6-4.2,2.8-5,3.4
						c-0.3,0.2-0.6,0.5-1,0.8h16.8l-1,11.6L343.7,244.8L343.7,244.8z"/>
					<path class="st2" d="M366.6,200.7c4.1,0,7.3,0.5,9.5,1.4s3.9,2.4,5,4.4c1.1,1.9,1.6,4.1,1.4,6.6c-0.2,2.6-1.2,5-2.9,7.4
						c-1.7,2.4-4.7,4.9-8.9,7.7c-2.5,1.6-4.2,2.8-5,3.4c-0.9,0.7-1.9,1.5-3,2.6H381l-0.8,9.6h-35.3c0.7-3.5,2.2-6.8,4.5-9.8
						s6.5-6.7,12.5-10.9c3.7-2.6,6-4.5,7.1-5.8s1.7-2.6,1.8-3.8c0.1-1.3-0.3-2.4-1.1-3.3c-0.9-0.9-2-1.4-3.5-1.4s-2.8,0.5-3.8,1.4
						s-1.8,2.6-2.4,5l-11.7-0.9c0.8-3.3,1.8-5.9,3.2-7.8c1.4-1.9,3.3-3.3,5.6-4.3S362.6,200.8,366.6,200.7 M366.6,198.8
						c-4.3,0-7.6,0.5-10.2,1.6s-4.8,2.8-6.4,4.9c-1.6,2.1-2.8,4.9-3.6,8.5l-0.5,2.2l2.3,0.2l11.7,0.9l1.7,0.1l0.4-1.7
						c0.5-2.4,1.3-3.5,1.8-3.9c0.7-0.6,1.5-0.9,2.5-0.9c1.2,0,1.7,0.4,2,0.8c0.5,0.5,0.7,1,0.6,1.8s-0.5,1.7-1.3,2.7
						c-0.7,0.8-2.4,2.4-6.7,5.4c-6.2,4.3-10.5,8-12.9,11.3c-2.5,3.3-4.1,6.9-4.9,10.6l-0.5,2.4H382l0.2-1.8l0.8-9.6l0.2-2.2h-14.9
						c0.9-0.6,2-1.4,3.5-2.3c4.5-3,7.6-5.7,9.5-8.2c1.9-2.6,3-5.5,3.3-8.4c0.2-2.8-0.3-5.4-1.7-7.8c-1.4-2.3-3.4-4.1-6-5.2
						C374.4,199.3,371,198.8,366.6,198.8L366.6,198.8L366.6,198.8z"/>
				</g>
				<g>
					<path class="st1" d="M402.7,245.5c-4,0-7.1-0.5-9.4-1.4c-2.3-1-4.2-2.4-5.6-4.3c-1.4-1.9-2.3-4.2-2.9-7l-0.2-1.1l14-1.8l0.1,1
						c0.3,2.6,0.9,3.8,1.4,4.3c0.7,0.7,1.6,1.1,2.9,1.1s2.4-0.5,3.4-1.4c1-1,1.5-2.3,1.7-4c0.1-1.7-0.1-3-0.9-3.8
						c-0.7-0.9-1.8-1.3-3.2-1.3c-0.8,0-2,0.2-3.6,0.7l-1.5,0.4l1.7-10.9l1,0.1c0.7,0.1,1.1,0.1,1.4,0.1c1.3,0,2.4-0.4,3.3-1.2
						s1.4-1.7,1.5-2.8c0.1-1-0.1-1.8-0.6-2.3s-1.3-0.8-2.3-0.8c-1.1,0-2.1,0.3-2.8,1c-0.8,0.7-1.4,2-1.8,3.9l-0.2,0.9l-13-2.4
						l0.4-1.1c1.3-3.7,3.5-6.6,6.4-8.6c3-2,7-3,12-3c5.8,0,9.9,1.1,12.4,3.4c2.5,2.3,3.6,5.2,3.3,8.6c-0.2,2-0.9,3.9-2.1,5.5
						c-0.8,1.1-1.9,2.1-3.2,3c0.7,0.3,1.3,0.6,1.8,0.9c1.5,1,2.6,2.3,3.3,3.8c0.7,1.6,1,3.4,0.8,5.6c-0.2,2.6-1.1,5.2-2.7,7.6
						c-1.6,2.4-3.8,4.3-6.4,5.6C410.2,244.9,406.8,245.6,402.7,245.5L402.7,245.5z"/>
					<path class="st2" d="M405.8,200.7c5.5,0,9.4,1,11.7,3.1c2.3,2.1,3.3,4.6,3,7.8c-0.2,1.8-0.8,3.5-1.9,5s-2.8,2.8-4.9,3.9
						c1.6,0.4,2.8,0.9,3.6,1.4c1.3,0.9,2.3,2,3,3.4s0.9,3.1,0.7,5.1c-0.2,2.5-1.1,4.8-2.6,7.1s-3.5,4-6,5.2s-5.8,1.8-9.7,1.8
						s-6.9-0.4-9-1.4c-2.1-0.9-3.9-2.2-5.1-4c-1.3-1.7-2.2-3.9-2.7-6.6l11.9-1.6c0.2,2.4,0.8,4,1.7,4.9s2.1,1.4,3.6,1.4
						c1.6,0,2.9-0.6,4.1-1.7c1.1-1.2,1.8-2.7,2-4.6c0.2-2-0.2-3.5-1.1-4.6s-2.2-1.6-4-1.6c-0.9,0-2.2,0.2-3.9,0.7l1.3-8.4
						c0.6,0.1,1.1,0.1,1.5,0.1c1.5,0,2.9-0.5,4-1.5s1.7-2.1,1.9-3.5c0.1-1.3-0.2-2.3-0.9-3.1c-0.7-0.8-1.7-1.1-3.1-1.1
						s-2.5,0.4-3.5,1.3s-1.7,2.3-2.1,4.4l-10.9-2c1.2-3.5,3.2-6.3,6-8.1C397.1,201.7,400.9,200.8,405.8,200.7 M405.8,198.8
						c-5.2,0-9.4,1.1-12.5,3.2c-3.1,2.1-5.4,5.2-6.8,9.1l-0.8,2.2l2.3,0.4l10.9,2l0.8,0.1l-0.2,1l-1.3,8.4l-0.5,3.1l3-0.8
						c1.8-0.5,2.8-0.6,3.3-0.6c1.5,0,2.1,0.5,2.5,0.9c0.5,0.6,0.8,1.7,0.6,3.1c-0.1,1.5-0.6,2.6-1.4,3.4c-0.8,0.8-1.6,1.1-2.7,1.1
						c-1.3,0-1.8-0.4-2.2-0.8s-0.9-1.2-1.2-3.7l-0.2-2l-2,0.3l-11.9,1.6l-2.1,0.3l0.4,2.1c0.6,2.9,1.6,5.4,3.1,7.4s3.5,3.6,6,4.6
						c2.4,1,5.6,1.5,9.8,1.5s7.8-0.7,10.6-2c2.9-1.4,5.1-3.4,6.8-5.9c1.7-2.5,2.6-5.2,2.9-8c0.2-2.3-0.1-4.4-0.9-6.1
						c-0.8-1.8-2.1-3.2-3.7-4.3c-0.1-0.1-0.2-0.2-0.4-0.2c0.8-0.7,1.5-1.4,2.1-2.2c1.4-1.8,2.1-3.8,2.3-6c0.3-3.8-0.9-6.9-3.7-9.4
						C416.1,199.9,411.8,198.7,405.8,198.8L405.8,198.8L405.8,198.8z M401,215l0.2-0.9c0.5-2.2,1.2-3.1,1.5-3.4
						c0.6-0.5,1.3-0.8,2.2-0.8c1.1,0,1.5,0.4,1.6,0.5c0.2,0.2,0.5,0.6,0.4,1.6c-0.1,0.8-0.5,1.5-1.2,2.2c-0.8,0.7-1.6,1-2.7,1
						c-0.1,0-0.5,0-1.2-0.1L401,215L401,215L401,215z"/>
				</g>
				<g>
					<polygon class="st1" points="424.7,244.8 425.9,231 440.5,231 439.3,244.8 					"/>
					<path class="st2" d="M439.4,232l-1,11.8h-12.6l1-11.8H439.4 M441.6,230H425l-0.2,1.8l-1,11.8l-0.2,2.2h16.6l0.2-1.8l1-11.8
						L441.6,230L441.6,230z"/>
				</g>
				<g>
					<path class="st1" d="M442.3,244.8l0.2-1.2c0.7-3.6,2.3-7.1,4.7-10.2c2.4-3.1,6.6-6.9,12.7-11.1c3.6-2.5,5.9-4.4,6.9-5.6
						c1-1.2,1.5-2.3,1.6-3.2c0.1-1-0.2-1.8-0.9-2.5c-0.7-0.7-1.6-1.1-2.8-1.1c-1.2,0-2.3,0.4-3.1,1.1c-0.9,0.8-1.6,2.3-2.1,4.5
						l-0.2,0.9l-13.7-1.1l0.2-1.1c0.8-3.4,1.9-6.2,3.4-8.1c1.5-2,3.5-3.5,6-4.6c2.4-1,5.8-1.6,9.8-1.6c4.3,0,7.6,0.5,9.9,1.5
						c2.4,1,4.3,2.6,5.5,4.8c1.2,2.1,1.8,4.5,1.5,7.2c-0.2,2.8-1.3,5.4-3.1,7.9c-1.8,2.4-4.9,5.1-9.2,8c-2.5,1.6-4.2,2.8-5,3.4
						c-0.3,0.2-0.6,0.5-1,0.8h16.8l-1,11.6L442.3,244.8L442.3,244.8z"/>
					<path class="st2" d="M465.2,200.7c4.1,0,7.3,0.5,9.5,1.4s3.9,2.4,5,4.4c1.1,1.9,1.6,4.1,1.4,6.6c-0.2,2.6-1.2,5-2.9,7.4
						c-1.7,2.4-4.7,4.9-8.9,7.7c-2.5,1.6-4.2,2.8-5,3.4c-0.9,0.7-1.9,1.5-3,2.6h18.4l-0.8,9.6h-35.3c0.7-3.5,2.2-6.8,4.5-9.8
						s6.5-6.7,12.5-10.9c3.7-2.6,6-4.5,7.1-5.8s1.7-2.6,1.8-3.8c0.1-1.3-0.3-2.4-1.1-3.3c-0.9-0.9-2-1.4-3.5-1.4s-2.8,0.5-3.8,1.4
						s-1.8,2.6-2.4,5l-11.7-0.9c0.8-3.3,1.8-5.9,3.2-7.8c1.4-1.9,3.3-3.3,5.6-4.3S461.2,200.8,465.2,200.7 M465.2,198.8
						c-4.3,0-7.6,0.5-10.2,1.6s-4.8,2.8-6.4,4.9c-1.6,2.1-2.8,4.9-3.6,8.5l-0.5,2.2l2.3,0.2l11.7,0.9l1.7,0.1l0.4-1.7
						c0.5-2.4,1.3-3.5,1.8-3.9c0.7-0.6,1.5-0.9,2.5-0.9c1.2,0,1.7,0.4,2,0.8c0.5,0.5,0.7,1,0.6,1.8s-0.5,1.7-1.3,2.7
						c-0.7,0.8-2.4,2.4-6.7,5.4c-6.2,4.3-10.5,8-12.9,11.3c-2.5,3.3-4.1,6.9-4.9,10.6l-0.5,2.4h39.6l0.2-1.8l0.8-9.6l0.2-2.2h-14.9
						c0.9-0.6,2-1.4,3.5-2.3c4.5-3,7.6-5.7,9.5-8.2c1.9-2.6,3-5.5,3.3-8.4c0.2-2.8-0.3-5.4-1.7-7.8c-1.4-2.3-3.4-4.1-6-5.2
						C473,199.3,469.6,198.8,465.2,198.8L465.2,198.8L465.2,198.8z"/>
				</g>
				<g>
					<path class="st1" d="M502.9,244.8l0.7-7.9h-21.4l1-11.1l24.2-26h11.8l-2.3,26h5.3l-1,11.1h-5.3l-0.7,7.9H502.9L502.9,244.8z
						 M504.6,225.8l0.8-9.5l-8.9,9.5H504.6z"/>
					<path class="st2" d="M518,200.7l-2.3,26h5.3l-0.8,9.1H515l-0.7,7.9H504l0.7-7.9h-21.4l0.9-9.7l23.7-25.5L518,200.7
						 M506.7,213.4l-12.5,13.3h11.3L506.7,213.4 M520.2,198.7h-13.3l-0.6,0.6l-23.7,25.5l-0.5,0.5L482,226l-0.9,9.7l-0.2,2.2h21.4
						l-0.5,5.7l-0.2,2.2h14.3l0.2-1.8l0.5-6.1h5.3l0.2-1.8l0.8-9.1l0.2-2.2H518l2.1-23.9L520.2,198.7L520.2,198.7L520.2,198.7z
						 M498.8,224.8l5.4-5.7l-0.5,5.7H498.8z"/>
				</g>
				<g>
					<g>
						<path class="st1" d="M278.9,244.4l2.3-25.9c-1.4,0.9-2.7,1.6-4,2.3c-1.8,0.9-4.1,1.7-6.8,2.5l-1.4,0.4l1-11.3l0.6-0.2
							c3.8-1.2,6.8-2.6,9-4.3c2.1-1.6,3.9-3.7,5.2-6.1l0.3-0.5h11l-3.8,43L278.9,244.4L278.9,244.4z"/>
						<path class="st2" d="M294.9,202.4l-3.6,41H280l2.4-26.9c-2,1.4-3.8,2.5-5.6,3.4c-1.8,0.9-4,1.7-6.7,2.5l0.8-9.2
							c3.9-1.2,7-2.7,9.3-4.4s4.1-3.9,5.5-6.4L294.9,202.4 M297.1,200.4h-12.6l-0.6,1c-1.3,2.3-3,4.2-5,5.8c-2.1,1.6-5,3-8.7,4.1
							l-1.3,0.4l-0.1,1.3l-0.8,9.2l-0.3,2.9l2.8-0.8c2.8-0.8,5.1-1.7,7-2.6c0.8-0.4,1.6-0.8,2.4-1.3l-2,22.8l-0.2,2.2h15.4l0.2-1.8
							l3.6-41L297.1,200.4L297.1,200.4L297.1,200.4z"/>
					</g>
					<g>
						<path class="st1" d="M303.6,244.4l0.3-1.2c1.5-6.6,3.4-12.3,5.7-16.8c2.1-4,5-8.3,8.9-12.9h-18.8l1-11.5h34.7l-0.8,9.1
							l-0.3,0.3c-3,2.5-5.6,5.2-7.7,8.2c-2.6,3.6-4.7,7.6-6.4,11.9c-1.3,3.4-2.4,7.5-3.2,12.1l-0.1,0.8L303.6,244.4L303.6,244.4z"/>
						<path class="st2" d="M334.3,203.1l-0.7,7.6c-3.1,2.6-5.7,5.4-7.9,8.3c-2.6,3.6-4.8,7.7-6.5,12.1c-1.4,3.5-2.4,7.6-3.2,12.3
							h-11.2c1.5-6.6,3.3-12.1,5.6-16.6s5.7-9.2,10.2-14.3h-19.9l0.8-9.5L334.3,203.1 M336.5,201.1h-36.7l-0.2,1.8l-0.8,9.5
							l-0.2,2.2h17.8c-3.2,4-5.8,7.8-7.7,11.4c-2.4,4.6-4.3,10.3-5.8,17.1l-0.5,2.4h15.4l0.3-1.7c0.8-4.6,1.8-8.6,3.1-11.9
							c1.7-4.3,3.8-8.2,6.3-11.7c2.1-2.8,4.6-5.5,7.5-8l0.6-0.5l0.1-0.8l0.7-7.6L336.5,201.1L336.5,201.1L336.5,201.1z"/>
					</g>
				</g>
				<g>
					<polygon class="st1" points="324.7,244.8 325.9,231 340.5,231 339.3,244.8 					"/>
					<path class="st2" d="M339.4,232l-1,11.8h-12.6l1-11.8H339.4 M341.6,230H325l-0.2,1.8l-1,11.8l-0.2,2.2h16.6l0.2-1.8l1-11.8
						L341.6,230L341.6,230z"/>
				</g>
			</g>
		</g>
	</g>
</g>
<g>
	<path class="st0" d="M206.5,279c0.7-8.1,4.6-13.9,8.6-17.4l4,1.8c-3.6,3.6-7.1,8.5-7.7,15.7c-0.6,7.2,1.9,12,4.9,15.7l-4.3,1.8
		C208.7,292.9,205.8,287.1,206.5,279z"/>
	<path class="st0" d="M250.6,288.9l-0.5,5.4h-31.5l0.5-5.4H250.6z M250.7,265.3l-0.5,5.4h-27.6l0.5-5.4H250.7z M246.8,276.8
		l-0.5,5.3h-22.1l0.5-5.3H246.8z"/>
	<path class="st0" d="M310.7,280.7c-0.3,0.4-0.5,0.9-0.8,1.3h14.3c0,0-0.1,1.2-0.3,1.7c-1.1,6.8-1.9,9.8-3,10.9
		c-0.8,0.9-1.7,1.2-2.7,1.4c-0.9,0.1-2.2,0.2-3.7,0.1c0-1-0.1-2.5-0.6-3.5c-1.2,1.5-2.5,2.8-3.8,3.8c-0.8-1-2.2-2.2-3.5-2.9
		c2.7-1.6,5.3-4.4,7.1-7.4h-1.3c-2.2,3.3-5.9,6.8-9.1,8.7c-0.7-1-2-2.3-3.2-3.1c2.6-1.2,5.2-3.3,7.3-5.6h-1.3
		c-1.3,1.2-2.7,2.3-4.1,3.2c-0.5-0.6-1.6-1.7-2.4-2.5c-2.9,1.4-5.9,2.9-8.5,4l-1.4-5.3c1.2-0.4,2.7-0.9,4.3-1.6l0.8-9.5h-3.3
		l0.4-4.9h3.3l0.6-6.9h4.9l-0.6,6.9h3l-0.4,4.9h-3l-0.7,7.5l2.5-1l0.5,3.1c1.2-1,2.3-2.1,3.3-3.3H302l0.4-4.4h22.9l-0.4,4.4
		L310.7,280.7L310.7,280.7z M322.9,275.3h-17.5l1.1-12.6H324L322.9,275.3z M318.5,270.7h-8l-0.1,1.1h8L318.5,270.7z M318.9,266.3h-8
		l-0.1,1.1h8L318.9,266.3z M318.1,286c-1,2-2.3,4.2-3.8,6.1c0.7,0,1.3,0,1.7,0c0.5,0,0.8-0.1,1.1-0.4c0.5-0.5,1-2.1,1.7-5.7H318.1z"
		/>
	<path class="st0" d="M339.7,274.7c-0.9,5.3-2.1,9.7-3.9,13.2c3.5,2,8.1,2.5,13.1,2.5c2.3,0,8.7,0,11.5-0.1
		c-0.9,1.2-1.9,3.6-2.4,5.2h-9.7c-6.1,0-11.3-0.6-15.2-3.2c-1.5,1.8-3.2,3.3-5.2,4.5c-0.5-1.4-1.6-3.5-2.5-4.6
		c1.5-0.8,2.9-1.9,4.1-3.2c-1.4-1.8-2.5-4.1-3.4-7l4.1-1.7c0.5,1.7,1.1,3.1,2,4.4c0.9-1.8,1.6-3.9,2.1-6.1h-6.5
		c1.7-2.8,3.9-6.6,5.7-10.3H328l0.4-4.7h12.2c-1.7,3.5-3.9,7.4-5.7,10.8h1l0.9-0.1L339.7,274.7z M359.1,288.6h-20.6l0.4-4.8h1.5
		l1.1-13h4.9l-1.1,13h2.5l1.3-14.8c-2.6,0.3-5.1,0.4-7.5,0.5c0-1.3-0.4-3.2-0.9-4.4c6.3-0.4,13.1-1.2,17.9-2.6l2.4,4.4
		c-2,0.6-4.2,1-6.5,1.4l-0.5,5.2h5.6l-0.4,4.7h-5.6l-0.5,5.6h6.3L359.1,288.6z"/>
	<path class="st0" d="M395,290.6c-0.2,2.4-0.8,3.8-2.2,4.6c-1.5,0.8-3.4,1-6.1,0.9c0-1.4-0.5-3.6-1-4.9c1.3,0.1,3.1,0.1,3.6,0.1
		s0.7-0.2,0.8-0.7l0.5-6.3h-4.3c-0.8,4.3-2.1,8.8-4.2,11.9c-0.8-0.9-2.7-2.3-3.8-2.9l-3.1,1.7c-0.6-1.4-2.2-3.8-3.5-5.5l3.6-1.9
		h-8.7l4.7,1.4c-1.6,2.6-4,5.5-6,7.2c-0.9-0.9-2.8-2.4-3.9-3.1c2-1.4,3.9-3.5,5.1-5.6h-4.2l0.4-4.5h3.1l1.1-12.7h-2.7l0.4-4.5h2.7
		l0.3-3.5h4.7l-0.3,3.5h3.4l0.3-3.5h4.8l-0.3,3.5h2.3l-0.4,4.5h-2.3l-1.1,12.7h1.9l-0.4,4.5h-4c1,1.2,2.2,2.7,3,4
		c2.2-4.4,2.9-10.4,3.3-14.9l1.2-13.3h13.9L395,290.6z M370.3,283.1h3.4l0.2-1.7h-3.4L370.3,283.1z M370.8,277.4h3.4l0.1-1.6H371
		L370.8,277.4z M371.4,270.4l-0.1,1.5h3.4l0.1-1.5H371.4z M390.9,279.6l0.3-3.6h-4l-0.1,0.7c-0.1,0.9-0.2,1.9-0.3,2.9H390.9z
		 M387.9,268.1l-0.3,3.4h4l0.3-3.4H387.9z"/>
	<path class="st0" d="M431.8,290.3l-0.4,4.9h-33.2l0.4-4.9h13.6l0.4-4.1h-10.2l0.4-4.8H413l0.3-2.9h5.5l-0.3,2.9H429l-0.4,4.8H418
		l-0.4,4.1H431.8z M427.8,279.5c-0.4-0.7-1-1.4-1.6-2.3c-17.8,0.6-20.5,0.6-22.5,1.3c-0.2-1.1-0.8-3.6-1.3-5
		c0.9-0.2,1.7-0.7,2.7-1.6c0.7-0.5,2.2-1.9,3.6-3.7h-7.1l0.4-4.8h30.9l-0.4,4.8h-7.6c2.8,2.4,6.2,5.6,7.9,8L427.8,279.5z
		 M422.1,272.8c-0.9-0.9-1.8-1.7-2.6-2.4l3.4-2.1h-7.5c-1.4,1.7-3,3.3-4.6,4.7L422.1,272.8z"/>
	<path class="st0" d="M434.1,289.5l3.3-4c1.4,1.4,3.2,2.6,5.3,2.6c2.6,0,4.3-1.4,4.6-4.2c0.2-2.7-1.3-4.1-3.6-4.1
		c-1.5,0-2.2,0.3-3.9,1.3l-2.7-1.8l1.8-13.3H454l-0.5,5.3h-9.6l-0.8,4.5c1-0.4,1.8-0.5,2.8-0.5c4.5,0,8.1,2.7,7.6,8.5
		c-0.5,6-5.4,9.5-10.5,9.5C438.9,293.2,436.1,291.6,434.1,289.5z"/>
	<path class="st0" d="M466,263.4h4.2l-11.1,35.9h-4.2L466,263.4z"/>
	<path class="st0" d="M470.6,289.1c7.2-6.1,12.2-11,12.5-14.9c0.2-2.5-1-3.8-3.2-3.8c-1.8,0-3.4,1.2-4.8,2.6l-3.2-3.5
		c2.9-2.8,5.5-4.2,9.3-4.2c5.2,0,8.5,3.3,8.1,8.4c-0.4,4.6-4.8,9.7-9.3,13.9c1.3-0.2,3.2-0.4,4.4-0.4h4.9l-0.5,5.4h-18.6
		L470.6,289.1z"/>
	<path class="st0" d="M493.1,286.1c0.3-3.4,2.4-5.4,5-6.8v-0.2c-2-1.6-3.2-3.6-2.9-6.5c0.4-4.5,4.2-7.3,9.1-7.3
		c4.8,0,7.8,2.8,7.4,7.2c-0.2,2.6-2,4.7-3.9,6v0.2c2.4,1.3,4.2,3.6,3.9,7.3c-0.4,4.2-4.4,7.3-10,7.3
		C496.4,293.2,492.7,290.3,493.1,286.1z M505.7,285.7c0.2-2.3-1.8-3.4-4.9-4.8c-1.2,1-2,2.7-2.2,4.4c-0.2,2.2,1.5,3.5,3.6,3.5
		C504,288.8,505.6,287.8,505.7,285.7z M506.5,273c0.2-1.9-0.8-3.2-2.8-3.2c-1.4,0-2.8,0.9-3,2.8c-0.2,2.1,1.4,3.3,3.9,4.3
		C505.8,275.7,506.4,274.4,506.5,273z"/>
	<path class="st0" d="M525.2,279c-0.7,8.1-4.6,13.9-8.6,17.4l-4-1.8c3.6-3.6,7.1-8.5,7.7-15.7c0.6-7.2-1.9-12-4.9-15.7l4.3-1.8
		C523,265.1,525.9,270.9,525.2,279z"/>
	<path class="st0" d="M288.3,276.7l0.6-7.1h-2l1.3-1.5l-0.8-0.4c-0.4-0.2-0.9-0.5-1.4-0.7c0.3-0.2,0.5-0.4,0.9-0.6
		c0.5-0.4,1.2-0.9,1.9-1.4l0.9-0.6l-4.3-3.1l-0.4,0.6c-0.4,0.5-0.9,1.2-1.5,1.8c0.1-0.5,0.2-1.1,0.3-1.7l0.1-0.9h-5.7l-0.1,0.6
		c-0.1,0.8-0.3,1.5-0.5,2.1c-0.6-0.7-1.3-1.5-2-2.1l-0.4-0.4l-2.2,1.6l-2.9-1.7l-0.4,0.6c-0.2,0.3-0.4,0.6-0.6,0.9
		c0.1-0.2,0.1-0.5,0.2-0.7l0.2-0.9h-5.6l-0.1,0.6c-0.2,0.8-0.3,1.6-0.6,2.3c-0.6-0.7-1.4-1.5-2.1-2.2l-0.4-0.4l-3.9,2.8l0.5,0.6
		c0.6,0.7,1.4,1.6,1.9,2.3c-0.5,0.2-1,0.3-1.6,0.4l-1.4,0.3l1,1c0.2,0.2,0.5,0.6,0.8,0.9h-1.3l-0.6,7.1h5.3l-1.1,12.2l-1.8-0.9
		l-0.4,0.5c-1.1,1.5-2.7,3-4.1,3.9l-1.1,0.7l5.4,3l0.4-0.3c1.4-0.9,2.7-2.2,4-3.9c0.1,1.1,0.1,2.2,0,3l-0.1,1l5.9-1l0-0.6
		c0.1-1.1,0-2.7-0.2-4.1l0,0.1c0.4,1.2,0.7,2.9,0.7,4l0,0.9l5.6-1.2l0-0.7c0-0.2,0-0.4-0.1-0.6l0.2,0c0,0.1,0.1,0.3,0.1,0.4l0.1,0.9
		l2-0.6c0.2,0.6,0.3,1.3,0.3,1.9l0,0.7l0.7,0c0.5,0,1.3,0.1,2,0.1c0.7,0,1.4,0,1.9-0.1c1.3-0.1,2.3-0.5,3.1-1.3
		c0.9-0.9,1.4-2.7,2-6.7c0.1-0.5,0.2-1.4,0.2-1.4l0-0.1h1.4l0.4-4h-6.3l0.5-6H288.3z M280.7,269.6h-0.9c0.1-0.1,0.2-0.2,0.3-0.3
		C280.4,269.4,280.5,269.5,280.7,269.6z M266.3,269.6h-1.5c0.2-0.2,0.5-0.3,0.7-0.5C265.8,269.2,266.1,269.4,266.3,269.6z
		 M271,269.6l1-1.4l0.3,0.3c0.3,0.3,0.6,0.6,0.9,1.1H271z M272.6,267.2l-0.9,0.2l-0.1,0c-0.2-0.2-0.5-0.4-0.8-0.6
		c0.3-0.2,0.5-0.4,0.8-0.7c0.2-0.2,0.5-0.4,0.7-0.6c0.5,0.6,0.9,1.1,1.2,1.5C273.3,267,273,267.1,272.6,267.2z M280.1,290
		c-0.2,1.2-0.3,1.6-0.4,1.7l-0.1,0.1c-0.1-0.5-0.4-1.1-0.7-1.7H280.1z M274.2,292.8c0-0.3-0.1-0.6-0.2-1c0.1,0.3,0.2,0.6,0.3,0.9
		L274.2,292.8z"/>
</g>
<g>
	<g>
		<path class="st1" d="M208.3,292.8c-2.5-2.7-6.6-8.5-5.7-18c0.8-9.5,5.9-15.3,8.8-17.9l0.4-0.3l5.4,2.4l-0.8,0.8
			c-2.9,2.9-6.8,7.6-7.5,15.2c-0.7,7.5,2.4,12.2,4.8,15.1l0.6,0.8l-5.7,2.3L208.3,292.8z"/>
		<path class="st2" d="M211.9,257.4l4,1.8c-3.6,3.6-7.1,8.5-7.7,15.7c-0.6,7.2,1.9,12,4.9,15.7l-4.3,1.8c-3.3-3.5-6.3-9.3-5.5-17.4
			C204,266.8,207.9,261,211.9,257.4 M211.6,255.7l-0.7,0.6c-3,2.7-8.2,8.7-9.1,18.4c-0.9,9.8,3.4,15.8,5.9,18.6l0.7,0.8l1-0.4
			l4.3-1.8l1.9-0.8l-1.3-1.6c-2.3-2.8-5.2-7.3-4.6-14.6c0.6-7.3,4.4-11.9,7.2-14.7l1.5-1.5l-2-0.9l-4-1.8L211.6,255.7L211.6,255.7z"
			/>
	</g>
	<g>
		<path class="st1" d="M214.6,290.8l0.6-6.9h33l-0.6,6.9H214.6z M220.2,278.7l0.6-6.8h23.6l-0.6,6.8H220.2z M218.7,267.3l0.6-6.9
			h29.1l-0.6,6.9H218.7z"/>
		<path class="st2" d="M247.6,261.1l-0.5,5.4h-27.6l0.5-5.4H247.6 M243.6,272.7l-0.5,5.3H221l0.5-5.3H243.6 M247.4,284.7l-0.5,5.4
			h-31.5l0.5-5.4H247.4 M249.2,259.6h-1.6H220h-1.4l-0.1,1.4l-0.5,5.4l-0.1,1.6h1.6h27.6h1.4l0.1-1.4l0.5-5.4L249.2,259.6
			L249.2,259.6z M245.3,271.2h-1.6h-22.1h-1.4l-0.1,1.4l-0.5,5.3l-0.1,1.6h1.6h22.1h1.4l0.1-1.4l0.5-5.3L245.3,271.2L245.3,271.2z
			 M249,283.2h-1.6h-31.5h-1.4l-0.1,1.4l-0.5,5.4l-0.1,1.6h1.6h31.5h1.4l0.1-1.4l0.5-5.4L249,283.2L249,283.2z"/>
	</g>
	<g>
		<path class="st1" d="M306.3,292.6c-0.8-0.9-2.1-2.1-3.3-2.7l-0.3-0.2c-0.7,0.5-1.4,1-2.1,1.4l-0.6,0.4l-0.4-0.6
			c-0.7-1-1.9-2.2-3-2.9l-1.1-0.7l1.2-0.6c0.6-0.3,1.3-0.6,1.9-1.1l-0.2-0.3c-0.4-0.5-1.2-1.4-2-2.1c-2.4,1.2-5.1,2.5-8,3.8
			l-0.8,0.4l-1.9-6.8l0.7-0.2c1-0.3,2.2-0.8,3.9-1.4l0.7-8.2h-3.3l0.6-6.4h3.3l0.6-6.9h6.4l-0.6,6.9h3l-0.6,6.4h-3l-0.5,5.6l1.2-0.5
			l0.4-4.7h3l1.2-13.6h19l-1.2,13.6h2.5l-0.5,5.9h-0.6l-0.1,0.6c0,0-0.1,1.2-0.3,1.8c-1.1,6.9-1.9,10-3.2,11.3
			c-1.1,1.2-2.3,1.5-3.2,1.6c-0.7,0.1-1.6,0.2-2.8,0.2c-0.3,0-0.7,0-1.1,0h-0.7v-0.7c0-0.5,0-1.2-0.2-1.9c-1,1.2-2.1,2.1-3,2.8
			l-0.6,0.4L306.3,292.6z M312.8,287.2c0.3,0,0.4,0,0.5-0.2c0.1-0.1,0.4-0.5,0.8-2.1c-0.5,0.8-1,1.5-1.5,2.3
			C312.7,287.2,312.7,287.2,312.8,287.2z M299.6,278.4c0.4-0.4,0.8-0.8,1.1-1.1h-1.3L299.6,278.4z"/>
		<path class="st2" d="M297.8,258.3l-0.6,6.9h3l-0.4,4.9h-3l-0.7,7.5l2.5-1l0.5,3.1c1.2-1,2.3-2.1,3.3-3.3h-3.5l0.4-4.4h22.9
			l-0.4,4.4h-14.2c-0.3,0.4-0.5,0.9-0.8,1.3H321c0,0-0.1,1.2-0.3,1.7c-1.1,6.8-1.9,9.8-3,10.9c-0.8,0.9-1.7,1.2-2.7,1.4
			c-0.7,0.1-1.6,0.2-2.7,0.2c-0.3,0-0.7,0-1,0c0-1-0.1-2.5-0.6-3.5c-1.2,1.5-2.5,2.8-3.8,3.8c-0.8-1-2.2-2.2-3.5-2.9
			c2.7-1.6,5.3-4.4,7.1-7.4h-1.3c-2.2,3.3-5.9,6.8-9.1,8.7c-0.7-1-2-2.3-3.2-3.1c2.6-1.2,5.2-3.3,7.3-5.6h-1.3
			c-1.3,1.2-2.7,2.3-4.1,3.2c-0.5-0.6-1.6-1.7-2.4-2.5c-2.9,1.4-5.9,2.9-8.5,4l-1.4-5.3c1.2-0.4,2.7-0.9,4.3-1.6l0.8-9.5h-3.3
			l0.4-4.9h3.3l0.6-6.9h5.2 M315.5,281.8H315c-1,2-2.3,4.2-3.8,6.1c0.7,0,1.3,0,1.7,0c0.5,0,0.8-0.1,1.1-0.4
			C314.4,287,314.9,285.4,315.5,281.8 M320.9,258.5l-1.1,12.6h-17.5l1.1-12.6H320.9 M315.7,262.1h-8l-0.1,1.1h8L315.7,262.1
			 M315.3,266.5h-8l-0.1,1.1h8L315.3,266.5 M299.4,256.8h-1.6h-4.9h-1.4l-0.1,1.4l-0.5,5.6H289h-1.4l-0.1,1.4L287,270l-0.1,1.6h1.6
			h1.7l-0.6,7c-1.4,0.5-2.5,0.9-3.4,1.2l-1.3,0.4l0.4,1.4l1.4,5.3l0.5,1.7l1.6-0.8c2.7-1.3,5.3-2.5,7.6-3.6c0.4,0.4,0.9,0.9,1.2,1.2
			c-0.4,0.2-0.7,0.4-1.1,0.6l-2.4,1.1l2.3,1.5c0.9,0.6,2.1,1.7,2.8,2.7l0.8,1.1l1.2-0.7c0.6-0.3,1.2-0.8,1.8-1.2
			c1,0.6,2.3,1.7,3,2.5l0.9,1.1l1.1-0.8c0.7-0.5,1.3-1,2-1.7c0,0.1,0,0.1,0,0.2v1.5h1.5c0.4,0,0.7,0,1.1,0c1.2,0,2.2-0.1,2.9-0.2
			c0.9-0.1,2.3-0.5,3.6-1.8c1.3-1.4,2.2-4.5,3.3-11.6c0.1-0.6,0.2-1.5,0.3-1.8h0.7l0.1-1.4l0.4-4.4l0.1-1.6h-1.6h-0.8l1-11.9
			l0.1-1.6h-1.6h-17.5H302l-0.1,1.4l-0.5,5.3h-1.2h-1.4l0.5-5.3L299.4,256.8L299.4,256.8z"/>
	</g>
	<g>
		<path class="st1" d="M324.1,292.7c-0.5-1.3-1.5-3.3-2.4-4.4l-0.6-0.7l0.9-0.4c1.2-0.6,2.4-1.5,3.4-2.6c-1.3-1.9-2.4-4.1-3.1-6.7
			l-0.2-0.7l5.5-2.2l0.2,0.8c0.3,1.1,0.7,2,1.1,2.9c0.5-1.2,0.9-2.4,1.2-3.8h-6.9l0.7-1.1c1.6-2.5,3.4-5.9,5.1-9.1h-5l0.5-6.2h14.1
			c0,0-0.7,1.5-0.9,1.7c7-0.4,13.3-1.3,17.5-2.6l0.6-0.2l3.1,5.8l-0.9,0.3c-1.8,0.5-3.8,1-6,1.3l-0.3,3.8h5.6l-0.5,6.2h-5.6
			l-0.4,4.1h6.3l-0.6,6.3h-15.8c1.7,0.2,3.4,0.2,5,0.2c2.4,0,8.6,0,11.5-0.1l1.6-0.1l-1,1.3c-0.8,1.1-1.8,3.4-2.3,5l-0.2,0.5h-10.2
			c-5,0-10.6-0.4-15.1-3c-1.5,1.7-3.1,3-5,4.1l-0.8,0.5L324.1,292.7z M333.7,283.3c0.3,0.2,0.7,0.3,1,0.4l0.3-3.7
			C334.6,281.3,334.2,282.3,333.7,283.3z M344,278.9l1.2-13.2c-0.8,0.1-1.6,0.2-2.4,0.2h1.4l-1.1,13H344z M336.6,278.9l0.7-8.4v0.1
			c-0.5,3.1-1.1,5.8-1.9,8.3H336.6z M337.4,269.9l0.4-4h0.1v-0.5c0-1-0.3-2.7-0.7-3.8c-1.3,2.5-2.7,5.2-4.1,7.7l0.7-0.1L337.4,269.9
			z"/>
		<path class="st2" d="M355.5,258.3l2.4,4.4c-2,0.6-4.2,1-6.5,1.4l-0.5,5.2h5.6l-0.4,4.7h-5.6l-0.5,5.6h6.3l-0.4,4.8h-20.6l0.4-4.8
			h1.5l1.1-13h4.9l-1.1,13h2.5l1.3-14.8c-2.6,0.3-5.1,0.4-7.5,0.5c0-1.3-0.4-3.2-0.9-4.4C344,260.6,350.8,259.7,355.5,258.3
			 M337.4,259.2c-1.7,3.5-3.9,7.4-5.7,10.8h1l0.9-0.1l2.9,0.6c-0.9,5.3-2.1,9.7-3.9,13.2c3.5,2,8.1,2.5,13.1,2.5
			c2.3,0,8.7,0,11.5-0.1c-0.9,1.2-1.9,3.6-2.4,5.2h-9.7c-6.1,0-11.3-0.6-15.2-3.2c-1.5,1.8-3.2,3.3-5.2,4.5
			c-0.5-1.4-1.6-3.5-2.5-4.6c1.5-0.8,2.9-1.9,4.1-3.2c-1.4-1.8-2.5-4.1-3.4-7l4.1-1.7c0.5,1.7,1.1,3.1,2,4.4
			c0.9-1.8,1.6-3.9,2.1-6.1h-6.5c1.7-2.8,3.9-6.6,5.7-10.3h-5.6l0.4-4.7h12.3 M356.3,256.5l-1.2,0.3c-3.9,1.2-9.7,2-16.1,2.5
			l0.8-1.6h-2.4h-12.2h-1.4l-0.1,1.4l-0.4,4.7l-0.1,1.6h1.6h3.1c-1.5,2.9-3.2,5.8-4.5,8l-1.4,2.3h1.8l-1.3,0.5l-1.3,0.5l0.4,1.3
			c0.7,2.5,1.7,4.6,2.9,6.4c-0.9,0.9-1.8,1.5-2.8,2l-1.7,0.8l1.2,1.5c0.8,0.9,1.8,2.9,2.3,4.1l0.6,1.7l1.6-0.9
			c1.8-1,3.3-2.3,4.7-3.8c4.5,2.5,10,2.8,14.9,2.8h9.7h1.1l0.3-1.1c0.4-1.5,1.4-3.7,2.2-4.7l1.9-2.6l-3,0.1l0.4-4.7l0.1-1.6h-1.6
			h-4.6l0.2-2.6h4.2h1.4l0.1-1.4l0.4-4.7l0.1-1.6h-1.6h-4l0.2-2.4c2-0.3,3.8-0.8,5.5-1.3l1.8-0.5l-0.9-1.6l-2.4-4.4L356.3,256.5
			L356.3,256.5z M334.2,268.5c0.9-1.6,1.8-3.2,2.6-4.9c0.1,0.5,0.2,1,0.2,1.5l0,0l-0.1,1.4l-0.2,2.5L334.2,268.5L334.2,268.5z
			 M328.5,275.7h0.6c-0.1,0.3-0.2,0.7-0.3,1C328.7,276.3,328.6,276,328.5,275.7L328.5,275.7z"/>
	</g>
	<g>
		<path class="st1" d="M378.3,292.5c-0.6-0.7-2.2-1.9-3.2-2.6l-3.5,1.9l-0.3-0.8c-0.6-1.3-2-3.4-3.2-5c-1.6,2.4-3.7,4.9-5.7,6.5
			l-0.5,0.4l-0.5-0.5c-0.9-0.9-2.7-2.3-3.8-3l-1-0.6l1-0.7c1.5-1,3.1-2.6,4.2-4.2h-3.6l0.5-6h3.1l1-11.2h-2.7l0.5-6h2.7l0.3-3.5h6.2
			l-0.3,3.5h1.8l0.3-3.5h6.3l-0.3,3.5h1.7l0.2-2.4H395l-2.5,28.1c-0.2,2.4-0.7,4.2-2.6,5.2c-1.5,0.9-3.4,1-5.8,1h-1.5v-0.7
			c0-1.2-0.4-3.2-0.9-4.4c-0.7,1.9-1.5,3.5-2.4,4.8l-0.5,0.8L378.3,292.5z M382.5,286.3c0.6,0.1,1.4,0.1,2.4,0.1h1.1l0.5-5.5h-2.9
			c-0.4,2-0.8,3.8-1.4,5.4H382.5z M374.4,284.2c0.5,0.6,0.9,1.2,1.3,1.7c0.2-0.6,0.4-1.1,0.6-1.7H374.4z M368.8,284.3l0.2-0.1h-0.6
			L368.8,284.3z M377.7,278.2c0.3-1.9,0.5-3.8,0.6-5.7l0.5-5.6h-1.7l-1,11.2h1.6V278.2z M369.8,278.2V278H368v0.2H369.8z M387,274.7
			l0.2-2.1h-2.5v0.2c-0.1,0.6-0.1,1.2-0.2,1.9H387z M370.3,272.5v-0.1h-1.9v0.1H370.3z M370.8,267L370.8,267H369l0,0H370.8z
			 M387.8,266.6l0.2-1.9h-2.5l-0.2,1.9H387.8z"/>
		<path class="st2" d="M377.1,258.1l-0.3,3.5h2.3l-0.4,4.5h-2.3l-1.1,12.7h1.9l-0.4,4.5h-4c1,1.2,2.2,2.7,3,4
			c2.2-4.4,2.9-10.4,3.3-14.9l1.2-13.3h13.9l-2.4,27.2c-0.2,2.4-0.8,3.8-2.2,4.6c-1.3,0.8-3.1,0.9-5.4,0.9c-0.2,0-0.5,0-0.7,0
			c0-1.4-0.5-3.6-1-4.9c0.8,0.1,1.7,0.1,2.5,0.1c0.5,0,0.9,0,1.1,0c0.5,0,0.7-0.2,0.8-0.7l0.5-6.3H383c-0.8,4.3-2.1,8.8-4.2,11.9
			c-0.8-0.9-2.7-2.3-3.8-2.9l-3.1,1.7c-0.6-1.4-2.2-3.8-3.5-5.5l3.6-1.9h-8.7l4.7,1.4c-1.6,2.6-4,5.5-6,7.2
			c-0.9-0.9-2.8-2.4-3.9-3.1c2-1.4,3.9-3.5,5.1-5.6H359l0.4-4.5h3.1l1.1-12.7h-2.7l0.4-4.5h2.7l0.3-3.5h4.7l-0.3,3.5h3.4l0.3-3.5
			L377.1,258.1 M388.7,264h-4l-0.3,3.4h4L388.7,264 M371.6,266.2h-3.4l-0.1,1.5h3.4L371.6,266.2 M371.2,271.6h-3.4l-0.1,1.6h3.4
			L371.2,271.6 M388,271.9h-4l-0.1,0.7c-0.1,0.9-0.2,1.9-0.3,2.9h4L388,271.9 M370.7,277.2h-3.4l-0.2,1.7h3.4L370.7,277.2
			 M378.8,256.6h-1.6h-4.8H371l-0.1,1.4l-0.2,2.2h-0.3l0.2-1.9l0.1-1.6H369h-4.7h-1.4l-0.1,1.4l-0.2,2.2h-1.3h-1.4l-0.1,1.4
			l-0.4,4.5l-0.1,1.6h1.6h1.1l-0.9,9.7h-1.7H358l-0.1,1.4l-0.4,4.5l-0.1,1.6h1.6h1.3c-0.9,1.1-2,2.1-3.1,2.8l-1.9,1.3l2,1.2
			c1,0.6,2.8,2,3.6,2.8l1,1l1.1-0.9c1.8-1.5,3.7-3.6,5.2-5.8c1,1.4,2,3,2.5,4l0.7,1.5l1.4-0.8l2.4-1.3c1,0.6,2.2,1.6,2.7,2.2
			l1.3,1.5l1.1-1.6c0.6-0.9,1.1-1.8,1.6-2.9c0.1,0.8,0.2,1.5,0.3,2.1v1.5h1.5c0.3,0,0.5,0,0.7,0c2.5,0,4.5-0.2,6.2-1.1
			c2.3-1.2,2.8-3.5,3-5.8l2.4-27.2l0.1-1.6h-1.6h-13.9h-1.4l-0.1,1.4l-0.1,1h-0.2l0.2-1.9L378.8,256.6L378.8,256.6z M386.1,265.5h1
			v0.4h-1V265.5L386.1,265.5z M377.8,267.7h0.2l-0.4,4.8c-0.1,1.7-0.3,3.3-0.5,5H377L377.8,267.7L377.8,267.7z M385.5,273.4h1
			l-0.1,0.6h-1C385.4,273.8,385.4,273.6,385.5,273.4L385.5,273.4z M384.3,281.6h1.4l-0.4,4c-0.1,0-0.3,0-0.4,0c-0.6,0-1.2,0-1.6,0
			C383.6,284.4,384,283,384.3,281.6L384.3,281.6z"/>
	</g>
	<g>
		<path class="st1" d="M394.2,291.8l0.6-6.4h13.6l0.2-2.6h-10.2l0.6-6.3h10.2l0.2-2.2c-5.8,0.2-7.4,0.4-8.6,0.8l-0.8,0.3l-0.2-0.8
			c-0.2-1.1-0.8-3.5-1.2-4.9l-0.2-0.8l0.8-0.2c0.7-0.2,1.3-0.6,2.4-1.4c0.6-0.4,1.5-1.3,2.5-2.4h-6.3l0.6-6.3h32.4l-0.6,6.3h-6.3
			c2.4,2.1,5,4.7,6.5,6.8l0.4,0.6l-6.2,4.1l-0.4-0.7c-0.3-0.6-0.8-1.2-1.4-1.9c0,0-5.5,0.2-6.3,0.2l-0.2,2.4h10.5l-0.6,6.3h-10.5
			l-0.2,2.6h14.1l-0.6,6.4h-34.8V291.8z M412.6,264.9c-0.9,1.1-2,2.2-3,3.2l7.5-0.1c-0.5-0.4-0.9-0.8-1.2-1.1l-0.7-0.7l2-1.3H412.6z
			"/>
		<path class="st2" d="M429.7,259.3l-0.4,4.8h-7.6c2.8,2.4,6.2,5.6,7.9,8l-4.9,3.2c-0.4-0.7-1-1.4-1.6-2.3
			c-17.8,0.6-20.5,0.6-22.5,1.3c-0.2-1.1-0.8-3.6-1.3-5c0.9-0.2,1.7-0.7,2.7-1.6c0.7-0.5,2.2-1.9,3.6-3.7h-7.1l0.4-4.8h30.8
			 M419.7,264.1h-7.5c-1.4,1.7-3,3.3-4.6,4.7l11.2-0.2c-0.9-0.9-1.8-1.7-2.6-2.4L419.7,264.1 M415.5,274.3l-0.3,2.9h10.5l-0.4,4.8
			h-10.5l-0.4,4.1h14.1l-0.4,4.9H395l0.4-4.9H409l0.4-4.1h-10.2l0.4-4.8h10.2l0.3-2.9H415.5 M431.3,257.8h-1.6h-30.9h-1.4l-0.1,1.4
			l-0.4,4.8l-0.1,1.6h1.6h3.7c-0.5,0.5-0.9,0.8-1.1,1l0,0l0,0c-0.9,0.8-1.5,1.1-2,1.3l-1.6,0.4l0.5,1.5c0.4,1.3,1,3.7,1.2,4.8
			l0.2,1.1h-0.9l-0.1,1.4l-0.4,4.8l-0.1,1.6h1.6h8.5l-0.1,1.1h-12.2H394l-0.1,1.4l-0.4,4.9l-0.1,1.6h1.6h33.2h1.4l0.1-1.4l0.4-4.9
			l0.1-1.6h-1.6h-12.4l0.1-1.1h9.1h1.4l0.1-1.4l0.4-4.8l0.1-1.6h-0.7l3.6-2.4l1.3-0.8l-0.9-1.3c-1.2-1.7-3.2-3.8-5.2-5.6h3.7h1.4
			l0.1-1.4l0.4-4.8L431.3,257.8L431.3,257.8z M412.9,265.6h1.6l-0.7,0.4l1.3,1.2l-3.8,0.1C411.9,266.7,412.4,266.2,412.9,265.6
			L412.9,265.6z M417,274.8c0.6,0,1.2,0,1.8-0.1l3.4-0.1c0.3,0.4,0.6,0.8,0.8,1.1h-6.1L417,274.8L417,274.8z M401.2,275.7
			c1.1-0.3,2.8-0.4,7.3-0.6l-0.1,0.6H401.2L401.2,275.7z"/>
	</g>
	<g>
		<path class="st1" d="M440,289.8c-3.9,0-7.2-1.3-9.6-4l-0.4-0.5l4.2-5.2l0.6,0.6c1.5,1.5,3.1,2.3,4.8,2.3c1.6,0,3.6-0.6,3.8-3.5
			c0.1-1.1-0.1-2-0.6-2.5s-1.2-0.8-2.2-0.8c-1.3,0-1.9,0.2-3.5,1.2l-0.4,0.3l-3.4-2.4l2-14.4h16.6l-0.6,6.8h-9.6l-0.5,2.7
			c0.6-0.1,1.2-0.2,1.9-0.2c2.7,0,5,0.9,6.5,2.5s2.2,4,1.9,6.8C450.7,286.3,445.2,289.8,440,289.8z"/>
		<path class="st2" d="M450.9,261.7l-0.5,5.3h-9.6l-0.8,4.5c1-0.4,1.8-0.5,2.8-0.5c4.5,0,8.1,2.7,7.6,8.5c-0.5,6-5.4,9.5-10.5,9.5
			c-4.3,0-7.1-1.6-9.1-3.7l3.3-4c1.4,1.4,3.2,2.6,5.3,2.6c2.6,0,4.3-1.4,4.6-4.2c0.2-2.7-1.3-4.1-3.6-4.1c-1.5,0-2.2,0.3-3.9,1.3
			L434,275l1.8-13.3H450.9 M452.6,260.2H451h-15.1h-1.3l-0.2,1.3l-1.8,13.3l-0.1,0.9l0.8,0.5l2.7,1.8l0.8,0.6l0.8-0.5
			c1.5-0.9,2-1.1,3.1-1.1c0.5,0,1.2,0.1,1.6,0.6c0.5,0.5,0.5,1.3,0.5,2c-0.2,1.9-1.2,2.8-3.1,2.8c-1.5,0-2.9-0.7-4.2-2.1l-1.2-1.2
			l-1.1,1.3l-3.3,4l-0.8,1l0.9,1c2.6,2.8,6,4.2,10.2,4.2c5.5,0,11.4-3.7,12-10.9c0.3-3-0.5-5.6-2.1-7.4s-4.1-2.8-7-2.8
			c-0.3,0-0.6,0-1,0l0.2-1h8.3h1.4l0.1-1.4l0.5-5.3L452.6,260.2L452.6,260.2z"/>
	</g>
	<g>
		<polygon class="st1" points="450.7,295.9 462.2,258.5 468,258.5 456.4,295.9 		"/>
		<path class="st2" d="M467,259.3l-11.1,35.9h-4.2l11.1-35.9H467 M469,257.8h-2h-4.2h-1.1l-0.3,1.1l-11.1,35.9l-0.6,1.9h2h4.2h1.1
			l0.3-1.1l11.1-35.9L469,257.8L469,257.8z"/>
	</g>
	<g>
		<path class="st1" d="M466.3,289.3l0.4-4.8l0.2-0.2c7.1-6,11.9-10.7,12.3-14.4c0.1-1-0.1-1.8-0.6-2.3c-0.4-0.4-1-0.7-1.9-0.7
			c-1.6,0-3.1,1.2-4.2,2.4l-0.6,0.5l-4.2-4.6l0.5-0.5c3.2-3.1,6-4.4,9.8-4.4c2.8,0,5.2,0.9,6.8,2.7c1.5,1.7,2.2,3.9,2,6.6
			c-0.3,3.7-2.9,7.9-7.9,12.8c0.8-0.1,1.6-0.1,2.3-0.1h5.8l-0.6,6.9h-20.1V289.3z"/>
		<path class="st2" d="M478.1,261.2c5.2,0,8.5,3.3,8.1,8.4c-0.4,4.6-4.8,9.7-9.3,13.9c1.3-0.2,3.2-0.4,4.4-0.4h4.9l-0.5,5.4h-18.6
			l0.3-3.7c7.2-6.1,12.2-11,12.5-14.9c0.2-2.5-1-3.8-3.2-3.8c-1.8,0-3.4,1.2-4.8,2.6l-3.2-3.5C471.7,262.6,474.3,261.2,478.1,261.2
			 M478.1,259.7c-4,0-7,1.3-10.3,4.6l-1.1,1l1,1.1l3.2,3.5l1.1,1.1l1.1-1.1c1.1-1.1,2.4-2.2,3.7-2.2c0.4,0,1,0.1,1.3,0.4
			c0.4,0.4,0.4,1.2,0.4,1.7c-0.3,3.6-5.9,8.8-12,13.8L466,284l-0.1,0.6l-0.3,3.7l-0.1,1.6h1.6h18.6h1.4l0.1-1.4l0.5-5.4l0.1-1.6
			h-1.6h-4.9c-0.1,0-0.2,0-0.4,0c4.2-4.5,6.5-8.4,6.8-11.9c0.2-2.9-0.5-5.3-2.2-7.2C483.8,260.8,481.2,259.7,478.1,259.7
			L478.1,259.7z"/>
	</g>
	<g>
		<path class="st1" d="M498.5,289.8c-3.2,0-5.9-1-7.6-2.9c-1.3-1.4-1.9-3.2-1.7-5.1c0.3-2.9,1.8-5.3,4.6-6.9c-1.9-1.8-2.7-4-2.5-6.5
			c0.4-4.7,4.4-7.9,9.9-7.9c2.8,0,5,0.8,6.5,2.5c1.3,1.4,1.9,3.3,1.7,5.5c-0.2,2.2-1.5,4.4-3.4,5.9c2.5,1.7,3.7,4.3,3.4,7.4
			C508.8,286.5,504.4,289.8,498.5,289.8z M497.8,277.7c-0.9,0.9-1.5,2.3-1.6,3.5c-0.1,0.7,0.1,1.3,0.5,1.8c0.5,0.5,1.3,0.9,2.3,0.9
			s2.6-0.3,2.8-2.4C502,279.8,500.7,279,497.8,277.7z M500.6,266.4c-0.5,0-2,0.2-2.2,2.1c-0.1,1.4,0.7,2.3,3,3.4
			c0.7-0.9,1.2-2,1.3-3.1c0.1-0.8-0.1-1.4-0.5-1.8S501.3,266.4,500.6,266.4z"/>
		<path class="st2" d="M501.1,261.2c4.8,0,7.8,2.8,7.4,7.2c-0.2,2.6-2,4.7-3.9,6v0.2c2.4,1.3,4.2,3.6,3.9,7.3
			c-0.4,4.2-4.4,7.3-10,7.3c-5.3,0-8.9-2.9-8.6-7.2c0.3-3.4,2.4-5.4,5-6.8V275c-2-1.6-3.2-3.6-2.9-6.5
			C492.4,264,496.2,261.2,501.1,261.2 M501.5,272.8c1.1-1.2,1.7-2.6,1.8-4c0.2-1.9-0.8-3.2-2.8-3.2c-1.4,0-2.8,0.9-3,2.8
			C497.4,270.6,499,271.8,501.5,272.8 M499,284.6c1.8,0,3.4-0.9,3.6-3.1c0.2-2.3-1.8-3.4-4.9-4.8c-1.2,1-2,2.7-2.2,4.4
			C495.3,283.3,496.9,284.6,499,284.6 M501.1,259.7c-5.9,0-10.2,3.5-10.6,8.6c-0.2,2.5,0.5,4.6,2.1,6.4c-2.5,1.8-3.9,4.1-4.2,7
			c-0.2,2.2,0.5,4.1,1.9,5.7c1.8,2,4.7,3.1,8.2,3.1c6.2,0,11.1-3.6,11.5-8.7c0.3-3.1-0.7-5.7-2.9-7.5c1.7-1.6,2.8-3.7,3-5.8
			c0.2-2.4-0.4-4.5-1.9-6.1C506.5,260.6,504.1,259.7,501.1,259.7L501.1,259.7z M501.1,270.9c-1.9-0.9-2-1.7-2-2.3
			c0.1-1.2,0.8-1.4,1.5-1.4c0.3,0,0.8,0.1,1,0.3c0.2,0.2,0.3,0.7,0.3,1.2C501.8,269.5,501.5,270.3,501.1,270.9L501.1,270.9z
			 M499,283.1c-0.7,0-1.4-0.2-1.7-0.6c-0.3-0.3-0.4-0.7-0.3-1.2c0.1-0.9,0.5-1.9,1.1-2.7c2.5,1.2,3.2,1.8,3.1,2.8
			C501,281.8,500.9,283.1,499,283.1L499,283.1z"/>
	</g>
	<g>
		<path class="st1" d="M508.1,290.8l0.8-0.8c2.9-2.9,6.8-7.6,7.5-15.2c0.7-7.5-2.4-12.2-4.8-15.1l-0.6-0.8l5.7-2.3l0.4,0.4
			c2.5,2.7,6.6,8.5,5.7,18c-0.8,9.5-5.9,15.3-8.8,17.9l-0.4,0.3L508.1,290.8z"/>
		<path class="st2" d="M516.4,257.4c3.3,3.5,6.3,9.3,5.5,17.4c-0.7,8.1-4.6,13.9-8.6,17.4l-4-1.8c3.6-3.6,7.1-8.5,7.7-15.7
			c0.6-7.2-1.9-12-4.9-15.7L516.4,257.4 M516.8,255.6l-1,0.4l-4.3,1.8l-1.9,0.8l1.3,1.6c2.3,2.8,5.2,7.3,4.6,14.6
			c-0.6,7.3-4.4,11.9-7.2,14.7l-1.5,1.5l2,0.9l4,1.8l0.9,0.4l0.7-0.6c3-2.7,8.2-8.7,9.1-18.4c0.9-9.8-3.4-15.8-5.9-18.6L516.8,255.6
			L516.8,255.6z"/>
	</g>
	<g>
		<g>
			<path class="st1" d="M276.6,292.2c-0.6,0-1.3,0-2-0.1l-0.7,0l0-0.7c0-0.5-0.1-1.2-0.3-1.9l-2,0.6l-0.1-0.9
				c-0.1-0.4-0.2-0.9-0.4-1.5c0.1,0.6,0.2,1.2,0.2,1.7l0,0.7l-5.6,1.2l0-0.9c0-1.1-0.3-2.8-0.7-4l0-0.1c0.2,1.4,0.3,3,0.2,4.1l0,0.6
				l-5.9,1l0.1-1c0.1-0.8,0.1-1.9,0-3c-1.3,1.7-2.6,3-4,3.9l-0.4,0.3l-5.4-3l1.1-0.7c1.5-0.9,3.1-2.4,4.1-3.9l0.4-0.5l1.8,0.9
				l1.1-12.2h-5.3l0.6-7.1h1.3c-0.3-0.4-0.5-0.7-0.8-0.9l-1-1l1.4-0.3c0.6-0.1,1.1-0.3,1.6-0.4c-0.5-0.7-1.3-1.6-1.9-2.3l-0.5-0.6
				l3.9-2.8l0.4,0.4c0.7,0.7,1.5,1.5,2.1,2.2c0.3-0.7,0.5-1.4,0.6-2.3l0.1-0.6h5.6l-0.2,0.9c0,0.3-0.1,0.5-0.1,0.7
				c0.2-0.3,0.5-0.6,0.6-0.9l0.4-0.6l2.9,1.7l2.2-1.6l0.4,0.4c0.7,0.7,1.5,1.5,2,2.1c0.2-0.6,0.4-1.3,0.5-2.1l0.1-0.6h5.7l-0.1,0.9
				c-0.1,0.6-0.2,1.2-0.3,1.7c0.5-0.6,1.1-1.3,1.5-1.8l0.4-0.6l4.3,3.1l-0.9,0.6c-0.7,0.5-1.3,1-1.9,1.4c-0.3,0.2-0.6,0.4-0.9,0.6
				c0.5,0.3,1,0.5,1.4,0.7l0.8,0.4l-1.3,1.5h2l-0.6,7.1h-5.6l-0.5,6h6.3l-0.4,4h-1.4l0,0.1c0,0-0.1,0.9-0.2,1.4
				c-0.5,4-1.1,5.8-2,6.7c-0.8,0.8-1.8,1.2-3.1,1.3C278.1,292.2,277.4,292.2,276.6,292.2z M276,286c0.3,0.6,0.5,1.3,0.7,1.7l0.1-0.1
				c0.1-0.1,0.2-0.5,0.4-1.7H276z M277.7,265.6c-0.2-0.1-0.4-0.2-0.5-0.3c-0.1,0.1-0.2,0.2-0.3,0.3H277.7z M270.1,265.6
				c-0.3-0.5-0.6-0.9-0.9-1.1l-0.3-0.3l-1,1.4H270.1z M263.3,265.6c-0.3-0.2-0.5-0.3-0.8-0.5c-0.2,0.2-0.4,0.3-0.7,0.5H263.3z
				 M267.9,262.7c0.3,0.2,0.6,0.4,0.8,0.6l0.1,0l0.9-0.2c0.4-0.1,0.7-0.2,1-0.3c-0.3-0.4-0.7-1-1.2-1.5c-0.3,0.2-0.5,0.4-0.7,0.6
				C268.4,262.3,268.2,262.5,267.9,262.7z"/>
			<path d="M280,257.7c-0.2,1.5-0.6,2.8-1.1,4c1.9,0.8,3.8,1.8,5.1,2.5l-1.8,2.1h2.8l-0.5,5.6h-5l0.3-2.9h-7.7
				c-0.2,0.4-0.5,0.7-0.7,1h7.7l-0.7,8.6h-15.1l-0.1,0.7h21.5l-0.2,2.5H263l-0.1,0.7h20c0,0-0.1,0.9-0.2,1.3c-0.5,3.8-1,5.5-1.8,6.3
				c-0.7,0.7-1.6,1-2.6,1.1c-0.5,0.1-1.1,0.1-1.9,0.1c-0.6,0-1.3,0-2,0c0-0.8-0.2-2-0.6-2.8l-1.8,0.6c-0.1-0.8-0.6-2.1-1.1-3.1
				l3.2-0.9h-16.5l1.3-15.2h7.4c0.1-0.4,0.2-0.7,0.3-1h-8.2l-0.3,2.9h-4.7l0.5-5.6h1.9c-0.4-0.8-1-1.7-1.5-2.2
				c5.2-1.1,6.2-3.1,6.8-6.4h4.1c-0.3,1.3-0.6,2.6-1.1,3.6c1.5,0.8,3,1.8,3.9,2.5l-1.8,2.4h4.9c-0.4-0.8-1-1.8-1.6-2.4
				c4.7-1.1,5.5-2.9,6.1-6.2H280 M258.9,266.3h6.7c-0.9-0.7-2-1.5-3.2-2.2C261.5,265,260.4,265.7,258.9,266.3 M274,266.3h6.7
				c-1-0.6-2.3-1.3-3.6-1.9C276.3,265.1,275.3,265.8,274,266.3 M274,272.5h-10.1l-0.1,0.8h10.1L274,272.5 M273.7,275.4h-10.1
				l-0.1,0.8h10.1L273.7,275.4 M278,285.3h-3.3c0.5,0.8,1,2,1.2,2.8l-1.4,0.5c0.8,0.1,1.4,0.1,1.8,0.1c0.4,0,0.6,0,0.9-0.3
				C277.5,288,277.7,287.1,278,285.3 M267.2,258.1l2.7,1.6l2.1-1.5c0.9,0.8,1.9,1.9,2.5,2.7l-2.8,2.3c-0.5-0.7-1.4-1.9-2.1-2.8
				c-0.9,0.7-1.7,1.4-2.3,1.9l-2.1-1.4C265.8,260.1,266.7,258.9,267.2,258.1 M282.5,258.1l2.8,2.1c-1.4,1-2.4,1.8-3.2,2.4l-2-1.6
				C280.8,260.2,281.9,259,282.5,258.1 M257.3,258.1c0.9,0.8,1.9,1.9,2.5,2.7l-2.8,2.3c-0.5-0.8-1.5-2.1-2.3-3L257.3,258.1
				 M255.4,285l3.9,1.9c-1.2,1.6-2.6,3.3-4.3,4.4l-3.9-2.2C252.8,288.1,254.4,286.4,255.4,285 M269.6,285.5c0.5,1.2,0.9,2.9,1,4.1
				l-4.1,0.8c0-1.1-0.3-2.9-0.7-4.2L269.6,285.5 M264.1,285.8c0.3,1.4,0.4,3.3,0.3,4.6l-4.4,0.7c0.1-1.2,0.1-3.2-0.1-4.7
				L264.1,285.8 M282.2,256l-0.5,0.7l0.1-0.5H280h-4.1h-1.3l-0.2,1.3c0,0.3-0.1,0.5-0.1,0.7c-0.4-0.4-0.8-0.8-1.2-1.2l-0.9-0.8
				l-1,0.7l-1.4,1l-1.9-1.1l-0.8-0.5l0-0.1h-0.2l-0.3-0.2l-0.1,0.2h-1.2h-4.1h-1.2l-0.2,1.2c-0.1,0.3-0.1,0.6-0.2,0.9
				c-0.4-0.5-0.9-0.9-1.3-1.3l-0.9-0.8l-1,0.7l-2.7,1.9l-1.3,1l1.1,1.2c0.4,0.5,0.8,1,1.2,1.4c-0.2,0-0.3,0.1-0.5,0.1l-2.8,0.6
				l1.7,1.6h-0.4l-0.1,1.4l-0.5,5.6l-0.1,1.6h1.6h3.7l-0.9,10.3l-0.3-0.1l-1.1-0.6l-0.7,1c-1,1.4-2.5,2.8-3.9,3.7l-2.2,1.3l2.2,1.3
				l3.9,2.2l0.8,0.5l0.8-0.5c1-0.7,1.9-1.5,2.9-2.5c0,0.3,0,0.7-0.1,0.9l-0.2,2l2-0.3l4.4-0.7l0.2,0l0,0.4l1.8-0.4l4.1-0.8l0.2,0
				l0,0.2l1.7-0.5l0.4-0.1c0.1,0.3,0.1,0.6,0.1,0.9l-0.1,1.5l1.5,0.1c0.7,0,1.4,0.1,2.1,0.1c0.8,0,1.5,0,2-0.1
				c1.4-0.1,2.6-0.6,3.5-1.5c1.1-1.1,1.6-2.9,2.2-7.2c0-0.2,0.1-0.5,0.1-0.8h0.1h1.4l0.1-1.4l0.2-2.5l0.1-1.6h-1.6H280l0.4-4.5h4.2
				h1.4l0.1-1.4l0.5-5.6l0.1-1.6h-1.2l0.9-1l-1.6-0.9c-0.1-0.1-0.2-0.1-0.4-0.2c0.5-0.4,1.1-0.8,1.7-1.3l1.7-1.2l-1.7-1.2l-2.8-2.1
				L282.2,256L282.2,256z M269.4,262.5C269.4,262.5,269.4,262.5,269.4,262.5C269.4,262.5,269.4,262.5,269.4,262.5L269.4,262.5
				L269.4,262.5z"/>
		</g>
	</g>
</g>
</svg>
