<?xml version="1.0" encoding="UTF-8"?><svg xmlns="http://www.w3.org/2000/svg" viewBox="0 0 532.86 249.52"><defs><style>.d{fill:#eeb033;}.e{fill:#fff;}.f{fill:#231815;}</style></defs><g id="a"/><g id="b"><g id="c"><g><g><path d="M218.44,35.02l1.21,3.36,1.23-1.39v21.96h11.51v-10.17c1.62,.93,3.51,2.16,4.42,2.94l1.81,1.54,.79-1.17c.69,1.72,1.3,3.75,1.5,5.14l.26,1.83h1.85c3.2,0,6.55-.22,9.31-1.81,3.29-1.93,3.75-5.31,3.75-8.67v-5.38c.67,2.55,1.14,4.99,1.32,6.93l.25,2.72,2.58-.9,7.35-2.57,1.66-.58-.25-1.74c-.67-4.55-2.42-10.46-4.52-15.37l.41,.07,2.01,.36,.44-1.99c.09-.43,.2-.91,.3-1.42l1.68,.93c4.65,2.57,7.75,4.43,9.22,5.52l.41,.31c-3.13,6.02-6.48,11.48-8.52,14.5l-1.08,1.59,1.47,1.23,6.15,5.15,1.94,1.62,1.27-2.19c1.14-1.97,2.29-4.03,3.43-6.13,.73,1.32,1.51,4.17,1.76,5.98l.45,3.34,2.82-1.84c1.08-.71,3.45-1.5,12.62-3.62,1.2,2.47,3.57,3.81,8.07,3.81h4.2c5.83,0,7.94-3.4,8.8-8.72h9.66v-4.83h4.23c-.91,2.18-2.07,4.08-3.5,5.72l-1.52,1.75,1.88,1.36c.96,.7,3.15,3,3.84,4.03l1.51,2.27,1.83-2.02c.97-1.06,1.86-2.24,2.67-3.54,.13,.7,.22,1.37,.25,1.91l.11,1.95,1.96,.06c.5,.01,.98,.02,1.44,.02,1.17,0,2.54-.06,3.92-.47,1.64-.42,2.8-1.18,3.81-2.54v3.2h10.45v-7.38c.63-.03,1.19-.08,1.71-.16h.08c1.56-.31,2.8-.86,3.77-1.7,1.71-1.42,2.63-3.68,2.87-7.17l.57,.23c2.03,.81,5.35,2.51,7.06,3.74l1.73,1.25,.16-.22,1.3,2.25c1.13,1.96,2.44,5.36,2.8,7.27l.33,1.71,1.74,.02c.4,0,.8,0,1.19,0,5.56,0,8.88-.47,11.46-1.61,4.31-2.03,4.89-5.84,4.89-9.67V22.36l.18,.35c4.26,8.35,7.73,17.85,8.62,23.63l.41,2.63,2.48-.98,8.41-3.31,1.65-.65-.34-1.74c-1.44-7.37-6.08-17.42-9.95-24.37l-.89-1.6-1.71,.63-7.51,2.79-1.33,.49V5.59h-12.66V46.89c-.38,0-.89,.01-1.45,.01-2.18,0-4.54-.07-6.32-.18l-2.49-.16,.3-.41c3.55-4.92,6.54-12.98,9.12-24.63l.49-2.19-2.21-.37-8.72-1.47-2.14-.36-.32,2.15c-.89,6.04-3.19,14.7-6.77,19.8-.1-3.1-.56-6.68-2.33-10.63,.81-3.43,1.9-8.83,3.32-16.46l.28-1.49-1.32-.75-4.62-2.62-.72-.41-.81,.19-.65,.15h-30.2v2.21h-14.08V45.81l-1.2-.29c-1.31-.32-3.12-.98-4.43-1.64h4.22v-10.61h-9.14v-1.78h6.46V7.06h-33.62v1.88c-2.45-1.35-5.05-2.7-6.03-3.22l-1.63-.84-1.08,1.48-4.04,5.57-1.35,1.87,1.97,1.2c.46,.28,.95,.58,1.47,.89,2.65,1.61,5.94,3.6,7.52,4.85l1.78,1.4,1.29-1.87,.11-.16v4.87c-2.42-1.42-6.47-3.43-9.36-4.79l-1.64-.77-1.02,1.49-3.89,5.67-.74,1.08c.6-2.99,1.29-6.91,1.77-10.64l.26-2.02-2-.35-5.41-.95-.37-.07-.37,.07-.97,.18h-13.12c.48-1.38,.94-2.85,1.39-4.44l.61-2.15-2.18-.5-7.51-1.73-2.03-.47-.51,2.02c-.11,.41-.22,.83-.33,1.24l-1.38-.43-7.2-2.26-1.97-.62-.68,1.95c-2.4,6.89-6.58,13.89-10.9,18.27l-1.22,1.23,.96,1.44c1.13,1.7,3.11,5.77,3.76,7.58Zm66.69-3.53v3.62l-1.97-1.88-.42-.4,1.76-2.74v1.4h.63Zm11.77,1.73v-1.73h3.25v1.73h-3.25Zm0,11.8v-1.19h3.25v.57l-3.25,.62Zm14.76,3.12v-4.25h.35l-.03,.9c-.02,.66-.08,2.33-.19,3.35h-.12Zm-76.42-15.78c-.71,3.14-1.69,6.07-2.85,8.48v-11.04c1,.83,1.95,1.67,2.56,2.28l.28,.28Zm9.02-7.17v5.09l-4.26-.88c.9-1.3,1.78-2.72,2.61-4.21h1.65Zm-1.94,21.99c.68-1.38,1.33-2.88,1.94-4.44v4.46c-.55,0-1.23,0-1.94-.02Zm13.76-17.1v-4.89h.95c-.15,1.18-.29,2.23-.41,3.03l-.25,1.75-.3,.1Z"/><path d="M430.63,24.03v4.54c0,6.63-.64,15.23-5.65,23.01l-1.17,1.82,1.84,1.14c1.63,1.01,3.91,2.68,5.1,3.92l1.81,1.89,1.48-2.16c.46-.67,.89-1.34,1.29-2.01,.01,.14,.02,.27,.03,.4l.11,1.96,1.96,.05c.5,.01,.99,.02,1.47,.02,1.88,0,3.33-.11,4.41-.32,2.3-.47,3.83-1.49,5.13-3.41,.16-.23,.31-.49,.45-.78,.84,1.05,1.74,2.38,2.08,3.19l1.1,2.65,2.22-1.82c.92-.75,3.27-1.75,12.11-5.29l.25-.1c1.17,1.75,2.54,3.33,4.15,4.69l1.98,1.67,1.25-2.27c1.05-1.89,3.21-4.58,4.63-5.74l2.1-1.72-2.17-1.63c-2.08-1.56-3.78-3.99-5.16-7.41,1.59-1.35,3.2-2.83,4.68-4.29,1.42,1.56,3.67,4.58,4.61,6.04l1.28,1.99,1.74-1.41v16.36h11.93V30.03c.21-.28,.42-.55,.63-.83v4.65h14.39v13.08c-2.48,0-4.49-.06-5.99-.15l-3.53-.22,1.46,3.22c.94,2.08,1.86,5.24,2.08,7.19l.22,1.88h1.9c4.66,0,8.45-.11,11.39-1.45,4-1.76,4.55-5.4,4.55-9.08v-14.47h6.88v-11.51h-28.79l1.23-2.11-2.33-.9-.23-.09h28.8V7.74h-29.84v.54l-.52-.22-7.35-3.05-1.6-.66-.97,1.43c-2.36,3.47-7.2,8-11.24,10.53l-.16,.1v-5.57h-15.02c.19-.66,.36-1.33,.52-2.01l.5-2.15-2.17-.42-7.35-1.42-2.07-.4-.42,2.07c-.44,2.18-1.06,4.28-1.84,6.22h-5.07c-.53-2.1-1.56-4.82-2.61-6.88l-.82-1.6-1.71,.53-6.57,2.05-2.27,.71,.96,2.18c.41,.92,.8,1.97,1.14,3h-7.78v11.3h4.57Zm48.01-4.12c1.14,1.44,2.75,3.94,3.62,5.53l1.13,2.07,1.94-1.33,.08-.05c-2.21,2.36-4.64,4.51-7.04,6.2l-4.32-3.89c.98-.36,1.91-.73,2.78-1.11l3-1.3-2.39-2.22-1.97-1.83h3.18v-2.07Zm-17.39,23.07v-4.18c.27,1.29,.59,2.58,.94,3.84l-.94,.34Zm39.24-25.86v1.73l-4.62-1.77c1.66-1.73,3.23-3.52,4.62-5.3v5.35Z"/><path d="M205.58,123.56c5.82,0,8.44-3.31,9.72-8.08l.77,1.21c1.06,1.65,2.24,4.78,2.72,6.73l.44,1.76,1.81-.16c18.51-1.62,38.6-5.8,47.19-24.56l.51-1.1v.51h10.95c-.67,6.61-2.42,11.29-11.03,14.47l-3.42,1.26,2.78,2.36c1.46,1.24,3.37,3.79,4.1,5.47l.82,1.91,1.93-.78c13.59-5.5,16.29-15.07,17.31-24.69h2.77v12.53c0,9.65,4.01,11.58,10.48,11.58h5.67c5.37,0,7.97-2.36,9.31-6.83,1.39,1.76,3.38,4.87,4.09,6.43l.76,1.65,1.75-.49c8.06-2.24,14.75-5.36,20.38-9.5,5.5,4.13,11.91,7.11,19.54,9.09l1.6,.42,.8-1.45c1.15-2.08,3.3-5.22,4.76-6.64l2.84-2.75-3.86-.85c-6.28-1.39-11.83-3.61-16.54-6.61,3.5-4.4,6.3-9.46,8.49-15.4h7.15l-.73,.64,1,1.55c1.16,1.79,3.09,5.89,3.73,7.62l1.13,3.04,2.34-2.25c.1-.09,.19-.18,.29-.28v23.46h11.51v-38.81c1.59-2.8,2.9-5.37,3.99-7.79v33.07c0,10.61,4.15,12.69,11.32,12.69h8.14c9.61,0,10.96-7.34,11.63-16.2l.14-1.85-1.81-.39c-1.66-.36-4.42-1.65-5.89-2.77l-3.19-2.41-.22,3.99c-.15,2.72-.43,7.75-1.09,8.64-.04,0-.12,.02-.25,.02h-6.57c-.24,0-.42,0-.55-.01-.03-.34-.05-.88-.05-1.59v-15.15h18.17v-2.67l.48,.26c1.95,1.05,5.17,3.22,6.5,4.36l.31,.27v8.5h13.61v4.78h-19.86v11.72h52.06v-5.49l.9,.72,6.46,5.15,1.89,1.5,1.26-2.06c2.77-4.55,5.52-9.43,8.03-14.26v15.81h11.14v-2.1h9.93v1.89h11.51v-25.79h-10.61v-1.31h12.82v-11.56h-12.82v-2.29c3.36-.76,6.61-1.75,9.68-2.95l2.99-1.17-2.24-2.3-5.83-5.99-1.02-1.04-1.34,.57c-5.16,2.19-13.92,4.03-23.43,4.94l-1.68,.16c-2.12-1.19-4.93-2.62-7.11-3.72l-1.03-.52-1.56-.8-1.08,1.38-4.31,5.52-1.48,1.9,2.06,1.24c.79,.47,1.7,1,2.64,1.56,2.46,1.44,5.24,3.06,6.64,4.1l1.72,1.28,1.27-1.72,3.29-4.47c.36,1.1,.65,2.22,.77,3.04l.19,1.3h-4.09v4.38c-2.67-1.44-6.55-3.24-8.86-4.29l-1.59-.72-1.02,1.41-4.1,5.67-1.44,1.99,2.17,1.14c4.23,2.22,7.34,3.97,9.08,5.12-3.29,6.18-7.02,11.96-9.3,15.14l-.5,.7v-4.74h-19.96v-4.78h15.08v-11.61h-15.08v-3.78h17.18v-11.72h-17.18v-9.14h-12.24v2.77l-1.82-.41-7.93-1.79-2.02-.46-.51,2.01c-1.78,7.05-5.08,13.78-8.62,17.59v-5.75h-18.17v-12.92h-11.61v1.84l-.44-.15-7.09-2.42-1.92-.65-.75,1.89c-2.6,6.57-7.01,13.18-11.65,17.52v-10.46h-17.95c-.66-2.53-2.24-5.95-3.42-8.17l-.82-1.53-1.67,.49-8.2,2.42-2.39,.7,1.07,2.25c.54,1.13,1.08,2.49,1.54,3.84h-20.92v11.72h8.98c2.47,6.11,5.36,11.25,8.78,15.61-4.67,3.01-10.34,5.23-17.25,6.77l-.16,.04c.18-1.25,.33-2.59,.44-4.05l.13-1.78-1.73-.44c-2-.51-4.98-1.74-6.23-2.75l-3.31-2.67-.15,4.25c-.07,1.91-.19,5.25-.47,6.56h-2.73c0-.07,0-.15,0-.24v-12.47h13.4v-11.66h-51.8v10.31l-1.39-.79-5.31-2.99-.76-.43-.84,.23-1.09,.29h-2.39l2.13-2.47-3.45-.79-2.75-.63c3.69-2.98,6.65-6.45,8.81-10.34l1.01-1.82-1.8-1.05-5.04-2.94-.75-.44-.84,.21-1.01,.25h-4.29l1.43-1.53-3.6-.83-8.19-1.89-1.21-.28-.84,.91c-3.83,4.15-10.07,7.87-17.57,10.46l-3.98,1.38,3.47,2.39c1.37,.94,3.54,3.25,4.56,4.85l.76,1.19c-1.77,.35-3.61,.66-5.5,.92l-3.73,.51v-10.3h-13.24v-11.03h-12.24v32.06l-1.57,.53v-32.64h-12.24v11.19h-11.5v5.2h-15.23v-3.43c3.77-.79,8.66-2.02,13.11-3.81l3.03-1.22-2.34-2.28-5.78-5.62-1.07-1.04-1.34,.65c-3.51,1.71-9.34,3.47-15.23,4.6h-7.27c-.51-1.42-1.1-2.94-1.64-4.31l-.68-1.72-1.8,.43-7.67,1.84-2.32,.56,.82,2.24c.11,.3,.22,.63,.34,.98h-7.56v10.4h2.67c.1,.32,.22,.72,.35,1.15h-3.43v-4.1h-1.52v-8.72h-18.49v-3.78h-12.35v3.78h-18.6v8.72h-1.47v15.76h6.98c.44,1.3,.9,2.83,1.15,3.78-1.37,.46-2.5,.74-3.72,.92l-2.62,.37,.93,2.48c.59,1.57,1.45,4.6,1.7,5.75l.25,1.17c-1.27,.63-2.59,1.21-3.86,1.69l-.49,.18,2.22-1.86-2.93-1.44c-2.14-1.06-4.27-2.46-6.2-4.05h5.81v-11.03h-1.29c.08-.03,.17-.06,.25-.09l1.55-.6-.21-1.65c-.12-.96-.24-2.51-.34-3.88-.06-.86-.12-1.69-.18-2.34v-.04h.17v-15.45H21.6v-2.15H10.35v9.61H5.73v11.24h4.62v4.57c-1.42,.4-2.65,.74-3.77,1l-2.07,.48,.48,2.07,1.68,7.3,.53,2.29,2.23-.75,.92-.31v4.93c-.76-.01-1.7-.04-2.62-.09l-3.47-.22,1.39,3.19c.79,1.82,1.58,4.76,1.72,6.42l.16,1.92,1.93,.03c.24,0,.48,0,.71,0,3.8,0,6.23-.53,8.15-1.76,1.67-1.13,2.5-2.64,2.91-4.32,.91,1.05,1.78,2.19,2.31,3.06l1.07,1.77,1.8-1.02c2.18-1.23,4.27-2.83,6.23-4.77v7.51h11.77v-8.34c2.03,2.04,4.18,3.77,6.36,5.13l1.84,1.14,1.11-1.85c.61-1.02,1.73-2.43,2.84-3.64l2.05,1.52c1.54,1.14,4.16,3.57,5.38,4.88l1.1,1.19,1.44-.75c2.32-1.2,4.79-2.71,7.07-4.29,.45,1.15,.81,2.3,1.01,3.21l.36,1.69h1.72c4.2,0,7.4-.09,10.22-1.27,3.35-1.37,4.29-3.86,4.51-6.56,3.59,2.2,7.7,4.92,9.74,6.75l1.24,1.11,1.38-.93,6.3-4.25,1.94-1.31c1.12,.74,2.36,1.63,3.04,2.22l1.88,1.61,1.31-2.1c.59-.95,1.22-2.06,1.84-3.24v7.61h11.66v-8.43c.1,.22,.19,.42,.27,.61l.79,1.88-.36,.57,2.1,1.05c1.32,.66,4.22,2.87,5.27,4l1.84,2,1.5-2.28c2.33-3.54,3.89-8.4,4.71-14.74v15.54h11.66v-25.42h4.41v-4.62h11.34v13.71c-4.56,1.47-8.84,2.85-11.93,3.7l-2.37,.65,.98,2.25,3.41,7.88,.81,1.87,1.9-.72c6.57-2.5,14.32-5.6,21.36-8.54,1.11,6.7,4.82,8.2,10.24,8.2h5.88Zm291.29-22.61v2.55l-4.45-4.03,1.45-2.17v.21h13.45v1.31h-10.45v2.13Zm10.45-15.26v.26h-2.09c.7-.08,1.4-.17,2.09-.26Zm.68,25.89v-1.63h9.93v1.63h-9.93Zm-165.45-20.54h9.23c-1.19,2.72-2.63,5.21-4.3,7.45-1.89-2.27-3.54-4.76-4.93-7.45Zm94.58,4.3c.75-1.12,1.51-2.37,2.29-3.78h6.7v3.78h-8.99Zm8.99-20.49v4.99h-1.53c.5-1.44,.93-2.81,1.3-4.14l.23-.85Zm-199.58,30.94h2.11c-.39,.26-.8,.52-1.23,.77-.29-.26-.58-.51-.88-.77Zm-6.28-20.07h.24l-.15,.08-.09-.08Zm-11.86,4.09c.16,.14,.32,.29,.49,.44-1,.27-2.04,.53-3.09,.76,.91-.39,1.77-.8,2.61-1.21Zm6.45,20.98c.15,.12,.29,.24,.43,.36-.88,.2-1.78,.4-2.71,.58,.79-.31,1.55-.63,2.28-.94Zm-17.91-14.99c1.11,1.37,2.53,4.23,3.17,6.04l.6,1.71,1.38-.25-1.83,.53,3.07,2.56c1.28,1.07,3.26,3.62,4.08,5.25l.43,.85c-3.09,.42-6.44,.71-10.08,.9l-2.02,.1c.43-2.29,.64-4.81,.79-7.42l.1-1.79-1.75-.4c-1.7-.39-4.82-1.8-6.45-3.11l-3.31-2.65-.15,4.24c-.1,3.03-.27,7.91-.74,9.45h-2.86c-.02-.47-.02-1.04-.02-1.29v-16.1h13.24v-1.56l2.36,2.92Zm-104.13,11.51h.5c-1.01,2.59-2.33,5.19-3.56,6.95l-.73,1.05c-1.03-.72-2.21-1.49-3.48-2.28l3.72-2.46,1.91-1.26-1.4-1.81c-1.93-2.49-5.32-5.75-8.45-8.55h9.36v8.35h2.13Zm12.09-21.17h.47c-.09,.25-.17,.49-.26,.73-.06-.23-.13-.48-.21-.73Zm12.31,0v1.15h-.73c.17-.38,.34-.76,.52-1.15h.21Zm-38.29,7.62v.5l-.61-.5h.61Zm-66.29,2.98v.17h-.39c.13-.06,.26-.11,.39-.17Zm-11.03,14.82v-3.62h4.72c-1.45,1.4-3.05,2.63-4.72,3.62Z"/><polygon points="275.75 74.18 273.63 74.18 273.63 76.3 273.63 83.66 273.63 85.79 275.75 85.79 313.37 85.79 315.49 85.79 315.49 83.66 315.49 76.3 315.49 74.18 313.37 74.18 275.75 74.18"/><polygon points="222.23 189.26 224.36 189.26 231 189.26 233.13 189.26 233.13 187.13 233.13 156.81 233.13 154.68 231 154.68 223.09 154.68 221.59 154.68 221.09 156.1 216.67 168.53 212.09 156.07 211.58 154.68 210.09 154.68 202.23 154.68 200.1 154.68 200.1 156.81 200.1 187.13 200.1 189.26 202.23 189.26 208.75 189.26 210.88 189.26 210.88 187.13 210.88 180.82 212.54 185.3 213.05 186.69 214.53 186.69 218.53 186.69 220.02 186.69 220.53 185.3 222.23 180.67 222.23 187.13 222.23 189.26"/><path d="M278,154.68h-12.64l-.54,1.33-2.2,5.42c-.06,.14-.12,.28-.18,.42-.08-.17-.15-.34-.23-.51l-2.44-5.41-.57-1.25h-23.35v34.58h22.55l.56-1.27,2.61-5.91c.1-.22,.19-.44,.29-.66,.11,.23,.21,.46,.32,.69l2.82,5.93,.58,1.21h13.04l-1.72-3.15-7.81-14.29,7.3-14.03,1.62-3.11Zm-30.17,3.13l7.33,13.71-7.77,14.51v-29.04l.44,.82Z"/><polygon points="291.66 154.68 291.66 156.81 291.66 187.13 291.66 189.26 293.79 189.26 301.08 189.26 303.21 189.26 303.21 187.13 303.21 156.81 303.21 154.68 301.08 154.68 293.79 154.68 291.66 154.68"/><path d="M323.42,189.26h10.85v-34.58h-11.18v12.15h0l-5.73-11.01-.6-1.15h-10.84v34.58h11.19v-12.31l5.72,11.16,.59,1.16Z"/><polygon points="363.83 189.26 363.83 187.13 363.83 164.97 369.93 164.97 372.06 164.97 372.06 162.84 372.06 156.81 372.06 154.68 369.93 154.68 346.21 154.68 344.08 154.68 344.08 156.81 344.08 162.84 344.08 164.97 346.21 164.97 352.27 164.97 352.27 187.13 352.27 189.26 354.4 189.26 361.7 189.26 363.83 189.26"/><polygon points="401.24 189.26 401.24 187.13 401.24 156.81 401.24 154.68 399.12 154.68 391.9 154.68 389.77 154.68 389.77 156.81 389.77 166.21 384.05 166.21 384.05 156.81 384.05 154.68 381.92 154.68 374.62 154.68 372.49 154.68 372.49 156.81 372.49 187.13 372.49 189.26 374.62 189.26 381.92 189.26 384.05 189.26 384.05 187.13 384.05 176.79 389.77 176.79 389.77 187.13 389.77 189.26 391.9 189.26 399.12 189.26 401.24 189.26"/><polygon points="425.41 164.97 427.54 164.97 427.54 162.84 427.54 156.81 427.54 154.68 425.41 154.68 406.17 154.68 404.04 154.68 404.04 156.81 404.04 187.13 404.04 189.26 406.17 189.26 425.86 189.26 427.99 189.26 427.99 187.13 427.99 181.02 427.99 178.89 425.86 178.89 415.6 178.89 415.6 176.71 423.62 176.71 425.75 176.71 425.75 174.58 425.75 168.46 425.75 166.34 423.62 166.34 415.6 166.34 415.6 164.97 425.41 164.97"/><path d="M466.25,189.26h11.55v-34.58h-11.55v5.29l-1.25-1.27c-1.68-1.71-5.31-4.59-10.73-4.59-4.48,0-8.61,1.7-11.64,4.8-3.24,3.31-4.95,7.88-4.95,13.23,0,12.23,8.21,17.7,16.35,17.7,4.59,0,8.57-1.81,11.52-5.22l.71-.82v5.47Zm-.69-7.41l-3.83-4.57-1.56-1.85-1.64,1.78c-.88,.95-2.32,2.09-4.22,2.09-4.44,0-4.92-5.18-4.92-7.41,0-4.36,2.01-7.29,5-7.29,1.32,0,2.43,.52,3.82,1.8l1.65,1.52,1.43-1.73,3.83-4.65,1.12-1.36v22.49l-.69-.82Z"/><path d="M510.96,189.26h11.51v-12.37l8.97-19.18,1.42-3.03h-12.44l-.52,1.38-2.53,6.72-.59,1.57c-.18-.51-.37-1.02-.55-1.53l-2.54-6.76-.52-1.38h-34.99v10.29h8.19v24.29h11.55v-24.29h7.48l5.55,11.91v12.38Z"/></g><g><g><g><path class="d" d="M237.85,53.74l-.13-.91c-.29-2.02-1.35-5.2-2.38-7.17-.17,.27-.34,.54-.51,.79l-.67,.99-.91-.77c-1.29-1.1-4.41-3.03-6.18-3.92v10.9h-9.38V29.94c-.19,.22-1.9,2.14-1.9,2.14l-.61-1.68c-.68-1.9-2.69-6.02-3.88-7.81l-.48-.72,.61-.62c4.43-4.48,8.7-11.64,11.15-18.67l.34-.97,9.26,2.9-.4,1.05c-1.32,3.49-2.95,7.1-4.71,10.45v2.39c2.97-3.98,5.54-9.66,7.1-15.79l.26-1.01,9.62,2.22-.3,1.08c-.6,2.13-1.22,4.03-1.88,5.79h14.73l1.25-.23,6.6,1.15-.13,1.01c-.62,4.85-1.61,10.04-2.27,13.02l-.22,.99-3.4-.6c2.42,5.12,4.52,11.88,5.26,16.93l.13,.87-9.47,3.32-.12-1.36c-.34-3.68-1.7-9.06-3.44-13.75v12.28c0,3.52-.55,6.19-3.21,7.75-2.55,1.47-5.73,1.67-8.79,1.67h-.92Zm-1.52-9.79c1.91,.05,3.92,.05,4.74,.05v-12.18c-1.21,4.44-2.89,8.75-4.74,12.13Zm-9.26-3.42c2.13-2.97,3.98-7.62,5.07-12.77l-.69-.69c-.98-.98-2.83-2.55-4.38-3.74v17.21Zm14-13.2v-7.46h-3.34c-1.19,2.2-2.49,4.24-3.81,5.99l7.15,1.47Zm9.69-.02l5.07-1.72-2.55-.45,.14-1.02c.15-1.07,.36-2.59,.55-4.25h-3.21v7.44Z"/><path d="M235.2,2.88l7.51,1.73c-.68,2.42-1.47,4.83-2.42,7.14h16.39l1.16-.21,5.41,.95c-.58,4.52-1.52,9.61-2.26,12.92l-6.51-1.16c.21-1.47,.47-3.41,.68-5.46h-5.46v25.53c0,3.47-.53,5.57-2.68,6.83-2.1,1.21-4.78,1.52-8.25,1.52-.31-2.21-1.47-5.62-2.57-7.67,2.05,.05,4.25,.05,4.99,.05,.68,0,.94-.16,.94-.84V18.8h-5.04c-1.52,2.89-3.2,5.46-4.89,7.51-1.37-1.37-4.41-3.89-6.15-5.04,4.04-4.25,7.35-11.35,9.14-18.39m-11.61,.05l7.2,2.26c-1.31,3.47-2.94,7.09-4.78,10.56V52.57h-7.25V27.05c-.84,1.05-1.73,2.05-2.57,2.99-.68-1.89-2.73-6.15-3.99-8.04,4.52-4.57,8.88-11.82,11.4-19.07m33.72,23.27c2.57,5.36,4.62,12.24,5.31,16.91l-7.35,2.57c-.42-4.62-2.42-11.82-4.78-17.18l6.83-2.31m-23.9,.63l7.41,1.52c-1.42,6.57-4.04,13.29-6.88,17.49-1.42-1.21-4.68-3.2-6.46-4.1,2.78-3.52,4.89-9.35,5.94-14.92M222.26,.28l-.68,1.95c-2.4,6.89-6.58,13.89-10.9,18.27l-1.22,1.23,.96,1.44c1.13,1.7,3.11,5.77,3.76,7.58l1.21,3.36,1.23-1.39v21.96h11.51v-10.17c1.62,.93,3.51,2.16,4.42,2.94l1.81,1.54,.79-1.17c.69,1.72,1.3,3.75,1.5,5.14l.26,1.83h1.85c3.2,0,6.55-.22,9.31-1.81,3.29-1.93,3.75-5.31,3.75-8.67v-5.38c.67,2.55,1.14,4.99,1.32,6.93l.25,2.72,2.58-.9,7.35-2.57,1.66-.58-.25-1.74c-.67-4.55-2.42-10.46-4.52-15.37l.41,.07,2.01,.36,.44-1.99c.67-3,1.67-8.23,2.29-13.11l.26-2.02-2-.35-5.41-.95-.37-.07-.37,.07-.97,.18h-13.12c.48-1.38,.94-2.85,1.39-4.44l.61-2.15-2.18-.5-7.51-1.73-2.03-.47-.51,2.02c-.11,.41-.22,.83-.33,1.24l-1.38-.43-7.2-2.26-1.97-.62h0Zm29.57,20.64h.95c-.15,1.18-.29,2.23-.41,3.03l-.25,1.75-.3,.1v-4.89h0Zm-13.47,0h1.65v5.09l-4.26-.88c.9-1.3,1.78-2.72,2.61-4.21h0Zm-10.22,15.65v-11.04c1,.83,1.95,1.67,2.56,2.28l.28,.28c-.71,3.14-1.69,6.07-2.85,8.48h0Zm9.93,6.34c.68-1.38,1.33-2.88,1.94-4.44v4.46c-.55,0-1.23,0-1.94-.02h0Z"/></g><g><path class="d" d="M282.16,52.82c-.27-2-1.16-5.2-2.01-6.57l-.7-1.14,1.27-.42c.75-.25,1.22-.47,1.22-1.83v-3.13c-2.24,4.44-4.61,8.83-6.95,12.85l-.63,1.09-7.85-6.58,.54-.8c2.24-3.32,6.06-9.57,9.44-16.27l.65-1.28,4.81,4.57v-7.16h-.63V12.44l-2.7,3.91-.89-.7c-1.62-1.28-4.94-3.29-7.6-4.91l-2.47-1.51,5.26-7.24,.81,.42c1.2,.63,4.8,2.51,7.59,4.09V3.86h31.49V26.16h-6.46v3.91h9.14v8.48h-6.52l1.54,1.2c1.24,.97,4.09,2.07,6.01,2.54l.89,.22-.09,.92c-.71,7.4-2.89,10.16-8.04,10.16h-4.2c-4.41,0-6.5-1.34-7.43-3.98h-.06c-10.13,2.33-12.51,3.13-13.79,3.96l-1.41,.92-.23-1.67Zm26.25-7.88c.25-.72,.33-3.25,.37-4.38l.07-2h-2.51v5.4c0,.19,0,.67,.03,.98h2.05Zm-16.83-2.9l5.38-1.02v-2.52h-5.38v3.54Zm5.38-12.02v-3.86h-5.38v3.86h5.38Zm-22.05,.03c-1.5-1.12-4.64-3-9.34-5.6l-1.02-.57,5.06-7.39,.82,.39c3.08,1.45,7.49,3.65,9.77,5.04l.93,.57-5.3,8.23-.91-.68Z"/><path d="M273.23,3.35c2.63,1.37,6.78,3.57,9.14,4.99v-3.41h29.36V25.1h-29.36V9.03l-3.99,5.78c-2-1.57-6.36-4.15-9.19-5.88l4.04-5.57m16.76,9.03h13.76v-1.84h-13.76v1.84m0,7.09h13.76v-1.84h-13.76v1.84m-20.01-1.63c2.78,1.31,7.35,3.57,9.66,4.99l-4.1,6.36c-2.05-1.52-6.51-4.04-9.45-5.67l3.89-5.67m35.3,8.3v4.99h9.14v6.36h-9.14v6.46c0,1.84,.11,2.05,1.1,2.05h2.15c.95,0,1.16-.79,1.31-5.41,1.42,1.1,4.47,2.26,6.41,2.73-.68,7.09-2.57,9.19-6.99,9.19h-4.2c-5.73,0-7.04-2.1-7.04-8.51V26.15h7.25m-14.76,.26v4.67h6.3v6.36h-6.3v5.88l5.83-1.1c.16,1.94,.63,4.78,1,6.36-10.56,2.42-12.76,3.2-14.13,4.1-.26-1.94-1.15-5.36-2.15-6.99,1.1-.37,1.94-.94,1.94-2.84V26.41h7.51m-13.08,4.1l5.36,5.1c-2.68,5.52-5.67,11.19-8.72,16.44l-6.15-5.15c2.63-3.89,6.41-10.24,9.51-16.39m-4.85-29.89l-1.08,1.48-4.04,5.57-1.35,1.87,1.97,1.2c.46,.28,.95,.58,1.47,.89,2.65,1.61,5.94,3.6,7.52,4.85l1.78,1.4,1.29-1.87,.11-.16v4.87c-2.42-1.42-6.47-3.43-9.36-4.79l-1.64-.77-1.02,1.49-3.89,5.67-1.32,1.93,2.05,1.13c4.65,2.57,7.75,4.43,9.22,5.52l.41,.31c-3.13,6.02-6.48,11.48-8.52,14.5l-1.08,1.59,1.47,1.23,6.15,5.15,1.94,1.62,1.27-2.19c1.14-1.97,2.29-4.03,3.43-6.13,.73,1.32,1.51,4.17,1.76,5.98l.45,3.34,2.82-1.84c1.08-.71,3.45-1.5,12.62-3.62,1.2,2.47,3.57,3.81,8.07,3.81h4.2c6.67,0,8.46-4.44,9.1-11.12l.18-1.84-1.79-.44c-1.31-.32-3.12-.98-4.43-1.64h4.22v-10.61h-9.14v-1.78h6.46V2.8h-33.62v1.88c-2.45-1.35-5.05-2.7-6.03-3.22l-1.63-.84h0Zm5.89,27.95l1.76-2.74v1.4h.63v3.62l-1.97-1.88-.42-.4h0Zm14.16-1.34h3.25v1.73h-3.25v-1.73h0Zm0,12.34h3.25v.57l-3.25,.62v-1.19h0Zm14.76,.05h.35l-.03,.9c-.02,.66-.08,2.33-.19,3.35h-.12v-4.25h0Z"/></g><g><path class="d" d="M333.54,53.37c-.77-1.15-3.03-3.52-4.1-4.3l-.94-.68,.76-.88c1.81-2.09,3.22-4.56,4.24-7.48h-6.84v4.83h-7.64V6.07h14.08V3.86h29.25l1.18-.28,5.65,3.2-.14,.75c-1.47,7.9-2.58,13.39-3.39,16.76,2.12,4.56,2.41,8.64,2.41,12.04,0,4.35-.8,6.95-2.59,8.44-.81,.7-1.89,1.17-3.26,1.43-.78,.12-1.62,.17-2.66,.18v7.35h-8.33v-9.95c-.23,3.18-.57,4.91-1.1,5.88-1.12,2.08-2.19,2.99-4.09,3.46-.94,.29-2.04,.42-3.6,.42-.45,0-.92-.01-1.41-.02l-.98-.03-.05-.98c-.07-1.24-.41-3.07-.94-4.66-1.1,2.15-2.37,4.03-3.83,5.63l-.92,1.01-.76-1.13Zm6.85-8.52c.66,.03,1.26,.03,1.81,.03h.15s.11-.1,.3-.52c.46-.97,.64-5.12,.72-7.49h-.7c-.57,2.92-1.33,5.58-2.27,7.98Zm-6.27-6.82c.1-.38,.2-.76,.29-1.15h-.29v1.15Zm25.42-.28c.09-.26,.24-.92,.24-2.57,0-1.32-.03-2.74-.24-4.25v6.82Zm-23.96-9.36c.08-1.25,.12-2.54,.14-3.91h-1.6v3.91h1.46Zm.14-12.4v-3.65h-1.6v3.65h1.6Zm23.82-2.59c.06-.45,.11-.89,.16-1.32h-.16v1.32Z"/><path d="M363.37,4.72l4.62,2.62c-1,5.36-2.42,12.76-3.47,17.07,2.15,4.47,2.47,8.46,2.47,11.92,0,3.99-.68,6.36-2.21,7.62-.74,.63-1.68,1-2.78,1.21-.68,.1-1.47,.16-2.52,.16,0-1.63-.26-4.04-1-5.83v13.18h-6.2V4.93h10.19l.89-.21m-2.47,6.3h-2.42v28h.89c.32,0,.68-.11,.95-.47,.37-.47,.53-1.57,.53-3.36,0-2.68-.1-6.3-1.94-10.19,.68-3.68,1.52-9.72,2-13.97m-10.09-6.09s0,2.36-.05,3.15c-.21,28.53-.21,38.61-1.58,41.08-1.05,1.94-1.94,2.57-3.41,2.94-1.01,.31-2.1,.39-3.35,.39-.44,0-.9-.01-1.38-.02-.1-1.89-.74-4.73-1.68-6.62,1.1,.1,2.05,.1,2.84,.1,.05,0,.1,0,.15,0,.54,0,.89-.29,1.27-1.16,.42-.89,.68-3.41,.84-8.98h-2.68c-1.1,6.15-3.26,12.45-7.35,16.97-.84-1.26-3.2-3.73-4.36-4.57,3.1-3.57,4.78-7.93,5.67-12.4h-1.58v-6.36h2.42c.16-2.1,.21-4.15,.21-6.04h-2.57v-6.36h2.57v-5.78h-2.63V4.93h16.65m-7.98,12.14h1.89v-5.78h-1.89v5.78m1.84,6.36h-1.84c0,1.84-.1,3.89-.26,6.04h2l.11-6.04m-11.61-16.28v31.83h-7.46v4.83h-5.52V7.14h12.98m-7.46,24.9h1.79V14.07h-1.79v17.97M363.7,2.46l-.81,.19-.65,.15h-30.2v2.21h-14.08V45.93h9.77v-4.83h4.23c-.91,2.18-2.07,4.08-3.5,5.72l-1.52,1.75,1.88,1.36c.96,.7,3.15,3,3.84,4.03l1.51,2.27,1.83-2.02c.97-1.06,1.86-2.24,2.67-3.54,.13,.7,.22,1.37,.25,1.91l.11,1.95,1.96,.06c.5,.01,.98,.02,1.44,.02,1.17,0,2.54-.06,3.92-.47,1.64-.42,2.8-1.18,3.81-2.54v3.2h10.45v-7.38c.63-.03,1.19-.08,1.71-.16h.08c1.56-.31,2.8-.86,3.77-1.7,2.03-1.68,2.95-4.54,2.95-9.23,0-3.43-.29-7.54-2.35-12.15,.81-3.43,1.9-8.83,3.32-16.46l.28-1.49-1.32-.75-4.62-2.62-.72-.41h0Z"/></g><g><path class="d" d="M383.86,53.58l-.16-.86c-.39-2.04-1.73-5.52-2.92-7.6l-.99-1.72,1.98,.13c1.79,.12,4.18,.19,6.38,.19,.86,0,1.53-.01,1.91-.03,.37,0,.54-.04,.6-.06,0-.03,0-.12,0-.3V2.39h10.53V43.38c0,4.01-.72,7.03-4.23,8.68-2.46,1.09-5.66,1.53-11.07,1.53-.38,0-2.04-.01-2.04-.01Zm28.25-11.66c-.91-5.88-4.41-15.5-8.72-23.95l-.54-1.07,9.49-3.52,.44,.8c3.82,6.87,8.41,16.8,9.83,24.06l.17,.87-10.47,4.12-.2-1.32Zm-34.82-.4c-1.77-1.28-5.2-3.03-7.28-3.87l-1.3-.52,.85-1.11c3.93-5.17,6.42-14.46,7.36-20.84l.16-1.08,10.9,1.84-.24,1.09c-2.56,11.5-5.48,19.43-8.95,24.24l-.62,.86-.86-.62Z"/><path d="M400.14,3.46V43.38c0,4.41-.95,6.46-3.63,7.72-2.52,1.11-5.99,1.42-10.6,1.42-.38,0-.77,0-1.17,0-.42-2.21-1.84-5.83-3.05-7.93,2.18,.14,4.69,.19,6.45,.19,.88,0,1.57-.01,1.95-.03,1.21,0,1.63-.37,1.63-1.42V3.46h8.41m11.71,11.24c4.15,7.46,8.4,17.02,9.72,23.74l-8.41,3.31c-1-6.46-4.83-16.44-8.82-24.27l7.51-2.79m-33.88,.63l8.72,1.47c-1.79,8.04-4.57,18.02-8.77,23.85-1.89-1.37-5.41-3.15-7.51-3.99,3.99-5.25,6.57-14.55,7.56-21.33m24.3-14h-12.66V42.63c-.38,0-.89,.01-1.45,.01-2.18,0-4.54-.07-6.32-.18l-2.49-.16,.3-.41c3.55-4.92,6.54-12.98,9.12-24.63l.49-2.19-2.21-.37-8.72-1.47-2.14-.36-.32,2.15c-.92,6.26-3.35,15.34-7.15,20.35l-1.69,2.23,2.6,1.04c2.03,.81,5.35,2.51,7.06,3.74l1.73,1.25,.16-.22,1.3,2.25c1.13,1.96,2.44,5.36,2.8,7.27l.33,1.71,1.74,.02c.4,0,.8,0,1.19,0,5.56,0,8.88-.47,11.46-1.61,4.31-2.03,4.89-5.84,4.89-9.67V18.1l.18,.35c4.26,8.35,7.73,17.85,8.62,23.63l.41,2.63,2.48-.98,8.41-3.31,1.65-.65-.34-1.74c-1.44-7.37-6.08-17.42-9.95-24.37l-.89-1.6-1.71,.63-7.51,2.79-1.33,.49V1.33h0Z"/></g><g><path class="d" d="M427.26,53.47c-1.26-1.31-3.62-3.05-5.31-4.09l-.92-.57,.59-.91c5.16-8.02,5.82-16.82,5.82-23.59v-5.61h-4.57V9.54h8.16c-.41-1.47-.99-3.1-1.6-4.49l-.48-1.09,8.56-2.67,.41,.8c1.12,2.19,2.22,5.17,2.67,7.25l.05,.21h5.28v2.79c1.57-2.87,2.78-6.26,3.51-9.87l.21-1.03,9.48,1.83-.25,1.08c-.27,1.14-.58,2.24-.91,3.32h15.38v9.01h-4.83l5.16,4.78-1.5,.65c-1.34,.58-2.81,1.14-4.4,1.68l6.63,5.97-.79,.79c-1.77,1.77-3.77,3.6-5.69,5.21,1.5,3.98,3.4,6.79,5.79,8.58l1.09,.81-1.05,.86c-1.69,1.38-3.89,4.24-4.89,6.05l-.63,1.13-.99-.83c-1.94-1.64-3.52-3.62-4.81-5.83l.17,.73-.84,.34c-9.09,3.65-11.32,4.59-12.38,5.46l-1.11,.91-.55-1.33c-.57-1.37-2.43-3.87-3.49-4.85-.25,1.01-.55,1.74-.9,2.26-1.14,1.69-2.43,2.55-4.44,2.96-1.02,.2-2.4,.3-4.21,.3-.47,0-.95,0-1.44-.02l-.98-.02-.06-.98c-.06-.96-.26-2.23-.61-3.45-.73,1.5-1.61,2.99-2.65,4.51l-.74,1.08-.91-.94Zm18.48-31.02c0,.65-.02,1.64-.05,2.19-.28,10.92-.54,17.33-1.11,21.13,.73-.78,1.92-2.43,1.92-4.96V23.07c-.24-.2-.5-.41-.76-.62Zm-12.48,22.34c.63,.04,1.19,.05,1.65,.05,.23,0,.36,0,.67-.41,.68-1.05,.98-9.89,1.12-14.69h-.58c-.35,5.7-1.29,10.64-2.87,15.05Zm22.68-4.55l3.31-1.2c-1.2-3.95-1.92-8.16-2.44-12.24-.29,.07-.58,.13-.87,.19v13.25Zm9.4-15.69c.06,.43,.12,.87,.19,1.3,.42-.51,.81-1.01,1.15-1.48l.23-.31c-.51,.17-1.04,.33-1.57,.5Zm-21.85-3.82c-.63-.45-1.21-.85-1.67-1.13l-1.24-.76,.15-.13h-4.43v2.02h7.19Zm10.83-4.07c-.49,.94-.98,1.78-1.46,2.56,2.99-.76,5.86-1.64,8.36-2.56h-6.9Z"/><path d="M436.96,2.57c1.1,2.15,2.15,5.04,2.57,6.99l-3.05,1.05h8.35v5.36c2.68-3.57,4.62-8.35,5.62-13.29l7.35,1.42c-.37,1.58-.84,3.1-1.31,4.62h15.76v6.88h-18.6c-1,1.94-2.05,3.73-3.26,5.31,5.83-1.31,11.71-3.2,15.6-5.1l5.72,5.31c-2.31,1-4.88,1.89-7.56,2.68,.16,1.52,.42,2.99,.68,4.46,1-1.1,1.94-2.26,2.68-3.26l5.31,4.78c-1.94,1.94-4.15,3.94-6.2,5.62,1.47,4.15,3.47,7.57,6.41,9.77-1.73,1.42-4.04,4.36-5.15,6.36-6.36-5.36-8.82-14.66-10.19-26.06-.94,.26-1.89,.47-2.84,.63v15.65l5.67-2.05c.05,2.1,.42,5.25,.79,6.88-9.56,3.84-11.5,4.67-12.66,5.62-.63-1.52-2.63-4.2-3.78-5.25,1.26-1.1,2.68-3.2,2.68-6.15V22.58c-1.52-1.31-3.84-3.05-5.2-3.89,.37-.31,.74-.68,1.05-1.05h-8.2v4.15h9.46s0,1.94-.05,2.79c-.42,16.49-.84,22.85-2.21,24.85-1.1,1.63-2.26,2.21-3.78,2.52-1.02,.2-2.41,.28-3.99,.28-.46,0-.93,0-1.42-.02-.11-1.84-.68-4.41-1.63-6.15-.89,2.31-2.1,4.52-3.57,6.67-1.31-1.37-3.73-3.15-5.52-4.26,5.31-8.25,5.99-17.28,5.99-24.16v-6.67h-4.57v-7.04h8.46c-.42-1.89-1.21-4.2-2-5.99l6.57-2.05m.84,26.11h-2.68c-.26,5.41-1.1,11.4-3.36,17.07,1.26,.1,2.36,.16,3.15,.16,.63,0,1.05-.21,1.52-.84,.68-1.05,1.05-5.25,1.37-16.39m.24-28.67l-1.71,.53-6.57,2.05-2.27,.71,.96,2.18c.41,.92,.8,1.97,1.14,3h-7.78v11.3h4.57v4.54c0,6.63-.64,15.23-5.65,23.01l-1.17,1.82,1.84,1.14c1.63,1.01,3.91,2.68,5.1,3.92l1.81,1.89,1.48-2.16c.46-.67,.89-1.34,1.29-2.01,.01,.14,.02,.27,.03,.4l.11,1.96,1.96,.05c.5,.01,.99,.02,1.47,.02,1.88,0,3.33-.11,4.41-.32,2.3-.47,3.83-1.49,5.13-3.41,.16-.23,.31-.49,.45-.78,.84,1.05,1.74,2.38,2.08,3.19l1.1,2.65,2.22-1.82c.92-.75,3.27-1.75,12.11-5.29l.25-.1c1.17,1.75,2.54,3.33,4.15,4.69l1.98,1.67,1.25-2.27c1.05-1.89,3.21-4.58,4.63-5.74l2.1-1.72-2.17-1.63c-2.08-1.56-3.78-3.99-5.16-7.41,1.77-1.51,3.57-3.17,5.18-4.78l1.59-1.59-1.67-1.5-4.46-4.02c.98-.36,1.91-.73,2.78-1.11l3-1.3-2.39-2.22-1.97-1.83h3.18V6.58h-15.02c.19-.66,.36-1.33,.52-2.01l.5-2.15-2.17-.42-7.35-1.42-2.07-.4-.42,2.07c-.44,2.18-1.06,4.28-1.84,6.22h-5.07c-.53-2.1-1.56-4.82-2.61-6.88l-.82-1.6h0Zm18.96,38.72v-4.18c.27,1.29,.59,2.58,.94,3.84l-.94,.34h0Z"/></g><g><path class="d" d="M482.54,53.69v-17.61c-.54,.49-1.08,.96-1.63,1.41l-.92,.75-.64-1c-1.02-1.58-3.54-4.97-5.02-6.51l-.87-.9,1.03-.71c4.94-3.42,10.01-8.8,13.26-13.99-2.42,2.26-4.93,4.31-7.27,5.92l-.97,.67-.56-1.04c-1-1.83-2.87-4.72-4.07-6.12l-.81-.94,1.05-.66c4.15-2.6,9.12-7.26,11.56-10.83l.49-.72,9.43,3.91-.84,1.1c-1.73,2.26-3.81,4.59-6.03,6.81l8.57,3.29-.63,1.08c-.3,.51-.61,1.03-.94,1.55h29.6v9.38h-6.88v15.54c0,3.94-.66,6.67-3.94,8.12-2.73,1.25-6.41,1.35-10.93,1.35h-.95l-.11-.94c-.24-2.08-1.17-5.31-2.17-7.51l-.73-1.61,1.76,.11c1.69,.1,4.02,.16,6.92,.16,.08,0,.14,0,.2,0v-15.2h-14.39v-6.89c-.85,1.24-1.77,2.5-2.76,3.77v28.28h-9.8Zm14.76-39.76V4.55h27.71V13.93h-27.71Z"/><path d="M487.54,2.72l7.35,3.05c-3.99,5.2-9.82,10.82-15.02,14.39-.95-1.73-2.89-4.78-4.2-6.3,4.36-2.73,9.4-7.51,11.87-11.14m36.4,2.89v7.25h-25.58V5.61h25.58m-34.46,8.67l7.25,2.78c-1.52,2.63-3.41,5.36-5.46,7.98v27.58h-7.67v-18.96c-1.16,1.05-2.26,2.1-3.36,2.99-1.05-1.63-3.63-5.1-5.15-6.67,5.31-3.68,11.03-9.77,14.39-15.71m35.77,5.94v7.25h-6.88v16.6c0,3.89-.68,5.99-3.31,7.14-2.52,1.15-6.04,1.26-10.51,1.26-.26-2.26-1.26-5.62-2.26-7.83,2.57,.16,6.04,.16,6.99,.16s1.26-.21,1.26-.95V27.46h-14.39v-7.25h29.1M486.76,.09l-.97,1.43c-2.36,3.47-7.2,8-11.24,10.53l-2.1,1.32,1.62,1.88c1.14,1.32,2.99,4.19,3.95,5.93l1.13,2.07,1.94-1.33,.08-.05c-2.29,2.44-4.8,4.66-7.27,6.37l-2.06,1.43,1.74,1.8c1.39,1.44,3.89,4.79,4.89,6.35l1.28,1.99,1.74-1.41v16.36h11.93V25.77c.21-.28,.42-.55,.63-.83v4.65h14.39v13.08c-2.48,0-4.49-.06-5.99-.15l-3.53-.22,1.46,3.22c.94,2.08,1.86,5.24,2.08,7.19l.22,1.88h1.9c4.66,0,8.45-.11,11.39-1.45,4-1.76,4.55-5.4,4.55-9.08v-14.47h6.88v-11.51h-28.79l1.23-2.11-2.33-.9-.23-.09h28.8V3.48h-29.84v.54l-.52-.22-7.35-3.05-1.6-.66h0Zm4.86,12.72c1.66-1.73,3.23-3.52,4.62-5.3v7.08l-4.62-1.77h0Z"/></g></g><g><g><path class="d" d="M29.44,119.55v-9.13c-2.41,2.76-5.03,4.95-7.82,6.53l-.9,.51-.53-.88c-.86-1.41-2.56-3.49-3.95-4.85-.16,2.5-.81,4.46-2.74,5.76-1.75,1.13-4.01,1.61-7.58,1.61l-1.66-.02-.08-.96c-.15-1.78-.96-4.81-1.81-6.76l-.69-1.6,1.74,.11c1.48,.09,3,.1,3.75,.1v-7.49l-3.44,1.16-2.18-9.48,1.03-.24c1.34-.31,2.87-.74,4.59-1.23v-6.44H2.54v-9.11H7.16v-9.61h9.12v9.61h1.86v-7.46H52.15v13.32h-.27l.11,1.2c.06,.65,.12,1.47,.18,2.32,.1,1.38,.21,2.95,.34,3.94l.11,.83-.78,.3c-1.05,.41-2.47,.49-4.27,.49h-3.94c-1.9,0-3.38-.17-4.56-.55v2.2h13.13v8.9h-7.53c2.48,2.43,5.49,4.58,8.51,6.07l1.46,.72-1.25,1.05c-1.57,1.32-3.84,3.96-4.87,5.67l-.56,.93-.92-.57c-2.73-1.7-5.5-4.1-7.99-6.92v9.97h-9.64Zm-13.16-10.44c3.01-1.48,5.92-3.77,8.24-6.47h-6.17v-3.93c-.68,.25-1.37,.49-2.07,.74v9.67Zm13.16-15.37v-2.95c-1.92,1.1-4.45,1.95-7.77,2.59l-.92,.18-.3-.89c-.29-.87-.87-2-1.53-3.05l.73,4.12h9.78Zm-13.16-3.81l2.36-.76c-.52-.78-1.06-1.48-1.55-1.97l-.81-.81v3.53Zm19.42-1.13c-.74-1.41-.95-3.17-1-4.97-.51,1.94-1.33,3.59-2.66,4.97h3.66Zm-16.32-3.66c2.76-.47,4.4-1.05,5.39-1.83h-5.39v1.83Zm28.04-1.49c1.1,0,2.49-.16,3.22-.38l.95-.28h-8.04v.04c0,.3,.01,.49,.03,.61h3.85Z"/><path d="M15.21,68.58v9.61h3.1v6.99h-3.1v6.2l2.78-.89,1.21,6.78c-1.31,.47-2.63,.95-3.99,1.42v11.5c0,3.31-.53,5.2-2.31,6.41-1.67,1.08-3.93,1.42-6.99,1.42-.22,0-.45,0-.68,0-.16-1.89-1-5.04-1.89-7.09,1.68,.1,3.41,.1,4.04,.1s.84-.21,.84-.89v-9.14l-3.73,1.26-1.68-7.3c1.58-.37,3.41-.89,5.41-1.47v-8.3H3.6v-6.99h4.62v-9.61h6.99m35.88,2.15v11.19h-7.41v-4.78H26.25v5.1h-7.04v-11.5h31.89m-8.61,7.72v4.57c0,1.21,.16,1.68,1,1.68h3.94c1.1,0,2.63-.16,3.52-.42,.16,1.73,.31,4.67,.53,6.3-.95,.37-2.42,.42-3.89,.42h-3.94c-6.41,0-7.88-2.05-7.88-8.04v-4.52h6.72m-8.14,.11c-.37,7.35-2,11.66-12.87,13.76-.58-1.73-2.26-4.52-3.63-5.88,8.61-1.16,9.35-3.2,9.61-7.88h6.88m3.68,11.29v4.94h13.13v6.78h-8.93c2.84,3.26,6.67,6.2,10.51,8.09-1.63,1.37-3.99,4.1-5.1,5.94-3.47-2.15-6.83-5.36-9.61-8.98v11.87h-7.51v-11.08c-2.63,3.52-5.78,6.57-9.4,8.61-1.05-1.73-3.26-4.36-4.83-5.73,4.1-1.89,7.83-5.09,10.45-8.72h-7.3v-6.78h11.08v-4.94h7.51m-20.67-23.4H6.1v9.61H1.48v11.24H6.1v4.57c-1.42,.4-2.65,.74-3.77,1l-2.07,.48,.48,2.07,1.68,7.3,.53,2.29,2.23-.75,.92-.31v4.93c-.76-.01-1.7-.04-2.62-.09l-3.47-.22,1.39,3.19c.79,1.82,1.58,4.76,1.72,6.42l.16,1.92,1.93,.03c.24,0,.48,0,.71,0,3.8,0,6.23-.53,8.15-1.76,1.67-1.13,2.5-2.64,2.91-4.32,.91,1.05,1.78,2.19,2.31,3.06l1.07,1.77,1.8-1.02c2.18-1.23,4.27-2.83,6.23-4.77v7.51h11.77v-8.34c2.03,2.04,4.18,3.77,6.36,5.13l1.84,1.14,1.11-1.85c.96-1.59,3.17-4.17,4.64-5.4l2.5-2.1-2.93-1.44c-2.14-1.06-4.27-2.46-6.2-4.05h5.81v-11.03h-1.29c.08-.03,.17-.06,.25-.09l1.55-.6-.21-1.65c-.12-.96-.24-2.51-.34-3.88-.06-.86-.12-1.69-.18-2.34v-.04h.17v-15.45H17.34v-2.15h0Zm10.64,26.21c.13-.06,.26-.11,.39-.17v.17h-.39Zm-10.64,11.03h4.72c-1.45,1.4-3.05,2.63-4.72,3.62v-3.62h0Z"/></g><g><path class="d" d="M71.56,119.44l-.18-.84c-.27-1.29-.87-3.04-1.58-4.63-2.51,1.83-5.38,3.61-8.03,4.99l-.72,.37-.55-.6c-1.25-1.35-3.94-3.84-5.53-5.01l-1.57-1.16,1.83-.69c2.63-.99,5.42-2.39,7.74-3.84-.92,.17-1.53,.34-2.06,.53l-1.14,.42-.26-1.19c-.26-1.17-1.14-4.28-1.74-5.89l-.46-1.24,1.31-.19c1.56-.22,2.96-.61,4.83-1.28l-.1-.44c-.22-1.02-.95-3.41-1.55-5.1h-6.67v-13.63h20.07v-.08h-18.6v-8.64h18.6v-3.78h10.22v3.78h18.49v8.64h-18.49v.08h20.01v13.63h-9.69v-1.05s-1.42,.85-1.59,.95c2.97,2.58,8.08,7.18,10.54,10.36l.7,.91-6.07,4.01c2.27,1.37,4.43,2.77,5.96,3.92l1.18,.9-8.22,5.55-.62-.55c-2.41-2.16-7.54-5.48-11.46-7.82v.25c0,3.35-.67,5.86-3.92,7.18-2.63,1.1-5.72,1.18-9.8,1.18h-.86Zm2.63-8.95c.51,0,.98,.01,1.38,.01s.73,0,.93-.02c.06,0,.12,0,.16,0v-3.73c-1.66,.12-3.22,.23-4.7,.35l4.07,1.68-1.21,1.13c-.2,.19-.42,.38-.64,.59Zm11.96-2.25l3.76-2.4-3.76,.24v2.16Zm9.15-1.77c-.26-.3-.53-.6-.83-.93l-.74,.05c.51,.28,1.03,.57,1.57,.88Zm-8.81-8.88c-.91,.44-1.85,.87-2.8,1.29l3.98-.2c-.16-.15-1.18-1.09-1.18-1.09Zm9.25-5.32v-3.83h-4.62l4.62,3.83Zm-12.59-3.16c-1.33,.88-2.79,1.74-4.34,2.58l1.9-.06c2.19-1.14,4.05-2.19,5.63-3.18h-2.18l-1.01,.67Zm-18.69,1.76c.53-.23,1.09-.51,1.72-.81,.6-.3,1.73-.87,3.09-1.61h-4.81v2.42Z"/><path d="M84.34,68.58v3.78h18.49v6.51h-18.49v2.21h20.01v11.5h-7.56v-5.2h-15.29l1.05,.84c-2.47,1.63-5.46,3.26-8.61,4.67l7.04-.21c2.84-1.47,5.62-3.05,7.93-4.68l5.2,4.31c-5.1,3.05-10.72,5.67-16.44,7.93l12.5-.63c-.79-.79-1.52-1.47-2.26-2.15l5.31-3.31c3.52,3.05,8.3,7.41,10.61,10.4l-5.73,3.78c-.74-1.1-1.89-2.47-3.2-3.89l-9.82,.63v5.99c0,3.31-.68,5.15-3.26,6.2-2.52,1.05-5.62,1.1-9.4,1.1-.37-1.73-1.26-4.15-2.21-6.04-2.89,2.21-6.2,4.26-8.93,5.67-1.31-1.42-4.04-3.94-5.67-5.15,4.05-1.52,8.62-4.04,11.35-6.41-3.89,.37-5.25,.68-6.41,1.1-.26-1.21-1.16-4.36-1.79-6.04,2.21-.31,4.1-.94,7.25-2.15,.89-.31,2.31-.89,4.1-1.63-3.78,.26-4.89,.47-5.73,.79-.26-1.21-1.21-4.25-1.84-5.94h-6.36v-11.5h20.07v-2.21h-18.6v-6.51h18.6v-3.78h8.09m-11.14,18.81h-9.82v4.99c1-.26,2-.74,3.26-1.37,1.05-.53,3.78-1.89,6.57-3.63m2.36,24.19c.44,0,.79,0,1.01-.02,.89,0,1.16-.16,1.16-.74v-5.2c-4.62,.31-7.88,.58-10.24,.79l6.62,2.73c-.84,.79-1.79,1.58-2.78,2.36,1.56,.04,3.18,.07,4.25,.07m16.34-5.75c3.89,2.1,9.67,5.46,12.71,7.77l-6.3,4.25c-2.57-2.31-8.14-5.88-12.24-8.3l5.83-3.73m-5.44-39.37h-12.35v3.78h-18.6v8.72h-1.47v15.76h6.98c.44,1.3,.9,2.83,1.15,3.78-1.37,.46-2.5,.74-3.72,.92l-2.62,.37,.93,2.48c.59,1.57,1.45,4.6,1.7,5.75l.25,1.17c-1.27,.63-2.59,1.21-3.86,1.69l-3.65,1.38,3.13,2.33c1.54,1.14,4.16,3.57,5.38,4.88l1.1,1.19,1.44-.75c2.32-1.2,4.79-2.71,7.07-4.29,.45,1.15,.81,2.3,1.01,3.21l.36,1.69h1.72c4.2,0,7.4-.09,10.22-1.27,3.35-1.37,4.29-3.86,4.51-6.56,3.59,2.2,7.7,4.92,9.74,6.75l1.24,1.11,1.38-.93,6.3-4.25,2.46-1.66-2.37-1.8c-1.22-.93-2.85-2.01-4.62-3.11l3.72-2.46,1.91-1.26-1.4-1.81c-1.93-2.49-5.32-5.75-8.45-8.55h9.42v-15.76h-1.52v-8.72h-18.49v-3.78h0Zm7.59,23.06h.61v.5l-.61-.5h0Z"/></g><g><path class="d" d="M136.35,119.1c-1.13-1.23-4.15-3.52-5.58-4.23l-1.05-.53,.63-.99c.29-.46,.56-.96,.82-1.5l-1.94,1.23-.49-1.16c-.49-1.17-1.36-2.89-2.31-4.61v11.78h-9.54v-11.15c-1.19,2.63-2.58,5.31-3.81,7.28l-.65,1.05-.94-.81c-1.09-.93-3.45-2.56-4.76-3.29l-1.03-.57,.67-.97c1.5-2.16,3.14-5.51,4.21-8.63h-3.09v-8.48h9.4v-1.08h-9.77v-8.33h4.19c-.31-1.2-.69-2.44-.88-3.02l-.08-.26h-2.39v-8.27h7.95c-.27-.89-.54-1.71-.79-2.41l-.41-1.12,9.73-2.33,.34,.86c.63,1.59,1.33,3.39,1.88,5h7.34v8.27h-1.94l-.05,.11c-.36,.79-.69,1.54-1.01,2.26-.14,.31-.28,.62-.41,.92h3.43v-11.42l.86-.17c5.97-1.15,11.91-2.95,15.5-4.69l.67-.33,7.49,7.28-1.52,.61c-4.72,1.9-9.96,3.17-13.78,3.93v5.36h15.39v9.17h-4.41v25.42h-9.54v-25.42h-1.45c-.1,11.71-1.8,19.93-5.21,25.1l-.75,1.14-.92-1Zm-3.92-17.1c.34,.52,.68,1.06,1.01,1.6,.07-.53,.14-1.07,.2-1.6h-1.2Zm-15.54,.43v-.43h-1.44l1.44,.43Zm9.54-.07l.63-.36h-.63v.36Zm7.35-8.84v6.83c.19-2.54,.23-5.12,.23-7.61v-.3h-7.59v1.08h7.35Zm-12.35-9.4c.4-1.04,.82-2.2,1.16-3.28h-3.4c.44,1.33,.73,2.35,.87,3.1l.03,.18h1.34Z"/><path d="M123.79,67.95c.68,1.73,1.52,3.89,2.1,5.67h7.04v6.15h-5.88l3.99,.74c-.79,1.73-1.47,3.31-2.1,4.67h4.83v6.2h-8.41v3.2h7.35v6.36h-7.35v17.07h-7.41v-17.07h-9.4v-6.36h9.4v-3.2h-9.77v-6.2h4.47c-.26-1.31-.79-3.1-1.21-4.41l4.1-1h-6.51v-6.15h8.3c-.37-1.31-.79-2.68-1.21-3.83l7.67-1.84m.21,11.82h-6.3c.53,1.47,1.1,3.2,1.31,4.36l-3.78,1.05h6.93c.63-1.63,1.42-3.73,1.84-5.41m26.84-10.98l5.78,5.62c-4.31,1.73-9.51,3.1-14.45,4.04v7.3h15.39v7.04h-4.41v25.42h-7.41v-25.42h-3.57c0,7.83-.68,18.96-5.04,25.58-1.21-1.31-4.31-3.68-5.88-4.47,.89-1.42,1.52-2.99,2.05-4.68l-3.57,2.26c-.84-2-2.57-5.2-3.99-7.51l4.88-2.78c1.16,1.68,2.42,3.73,3.36,5.46,1-4.62,1.1-9.67,1.1-13.92v-19.17c5.73-1.1,11.87-2.89,15.76-4.78m-39.13,33.2l5.78,1.73c-1.37,3.68-3.57,8.14-5.31,10.93-1.1-.94-3.52-2.63-4.94-3.41,1.68-2.42,3.41-6.09,4.46-9.25m13.38-36.54l-1.8,.43-7.67,1.84-2.32,.56,.82,2.24c.11,.3,.22,.63,.34,.98h-7.56v10.4h2.67c.1,.32,.22,.72,.35,1.15h-3.86v10.46h.37v9.56h2.63c-1.01,2.59-2.33,5.19-3.56,6.95l-1.34,1.93,2.06,1.14c1.25,.69,3.56,2.29,4.59,3.17l1.88,1.61,1.31-2.1c.59-.95,1.22-2.06,1.84-3.24v7.61h11.66v-8.43c.1,.22,.19,.42,.27,.61l.79,1.88-.36,.57,2.1,1.05c1.32,.66,4.22,2.87,5.27,4l1.84,2,1.5-2.28c2.33-3.54,3.89-8.4,4.71-14.74v15.54h11.66v-25.42h4.41v-11.3h-15.39v-3.43c3.77-.79,8.66-2.02,13.11-3.81l3.03-1.22-2.34-2.28-5.78-5.62-1.07-1.04-1.34,.65c-3.51,1.71-9.34,3.47-15.23,4.6h-7.27c-.51-1.42-1.1-2.94-1.64-4.31l-.68-1.72h0Zm7.65,16.45h.21v1.15h-.73c.17-.38,.34-.76,.52-1.15h0Zm-12.1,0h.47c-.09,.25-.17,.49-.26,.73-.06-.23-.13-.48-.21-.73h0Z"/></g><g><path class="d" d="M158.2,109.06l1.18-.32c3.17-.86,7.57-2.29,12.23-3.79l.49-.16v-15.55h-11.5v-9.75h11.5v-11.19h10.11v33.05l2.11-.7,1.7,8.58c-.07-.91-.11-1.9-.11-2.98v-37.89h10.11v11.03h13.24v9.75h-13.24v17.16c0,.61,0,2.02,.16,2.34,0,0,.02,0,.04,0,.06,0,.21,.01,.47,.01h3.78c.94,0,1.15-6.06,1.3-10.48l.07-2.12,1.65,1.32c1.79,1.43,5.06,2.9,6.88,3.31l.87,.2-.05,.9c-.61,10.67-2.37,16.45-9.89,16.45h-5.88c-6.15,0-8.78-2.26-9.38-8.65l-.77,.32c-7.05,2.95-15.21,6.22-21.83,8.73l-.95,.36-4.31-9.94Z"/><path d="M181.15,69.37v33.46l2.36-.79,1.37,6.88c-7.41,3.1-15.44,6.3-21.8,8.72l-3.41-7.88c3.47-.95,8.3-2.52,13.5-4.2v-17.39h-11.5v-7.62h11.5v-11.19h7.98m13.82,.05v11.03h13.24v7.62h-13.24v18.23c0,2.99,.16,3.41,1.73,3.41h3.78c1.73,0,2.05-2.36,2.36-11.5,1.84,1.47,5.25,3.05,7.3,3.52-.63,11.03-2.42,15.44-8.82,15.44h-5.88c-6.51,0-8.46-2.57-8.46-10.93v-36.82h7.98m-11.69-2.18h-12.24v11.19h-11.5v11.88h11.5v13.71c-4.56,1.47-8.84,2.85-11.93,3.7l-2.37,.65,.98,2.25,3.41,7.88,.81,1.87,1.9-.72c6.57-2.5,14.32-5.6,21.36-8.54,1.11,6.7,4.82,8.2,10.24,8.2h5.88c9.19,0,10.42-8.25,10.95-17.45l.1-1.79-1.75-.4c-1.7-.39-4.82-1.8-6.45-3.11l-3.31-2.65-.15,4.24c-.1,3.03-.27,7.91-.74,9.45h-2.86c-.02-.47-.02-1.04-.02-1.29v-16.1h13.24v-11.87h-13.24v-11.03h-12.24v32.06l-1.57,.53v-32.64h0Z"/></g><g><path class="d" d="M215.57,118.9c-.51-2.03-1.74-5.29-2.86-7.04l-.98-1.54,1.83-.09c7.79-.4,14.26-1.31,19.7-2.77-.74-.69-1.59-1.42-2.47-2.14-1.64,.7-3.48,1.46-5.36,2.14l-.89,.32-.42-.84c-.88-1.77-2.96-4.43-4.35-5.59l-1.54-1.28,1.92-.56c5.1-1.49,9.61-3.41,13.35-5.67-4.59,1.71-9.75,3.09-15.44,4.11l-.89,.16-.3-.85c-.66-1.88-2.13-4.85-3.34-6.36l-1.18-1.47,1.87-.26c4.52-.62,8.72-1.51,12.52-2.65-.83-.82-1.68-1.59-2.4-2.23-1.05,.52-2.15,1.06-3.31,1.55l-.83,.35-.48-.76c-1.1-1.73-3.37-4.14-4.85-5.16l-1.74-1.19,1.99-.69c7.67-2.65,14.06-6.47,18-10.74l.42-.46,10.6,2.45-1.26,1.35c-.2,.21-.4,.42-.6,.62h6.89l1.55-.39,6.32,3.68-.51,.91c-2.44,4.38-5.91,8.2-10.33,11.39l6.69,1.53-1.16,1.34c-.48,.56-.94,1.07-1.37,1.55h4.89l1.65-.44,6.54,3.69-.41,.89c-8.37,18.26-28.11,22.35-46.31,23.94l-.91,.08-.22-.88Zm23.95-18.23c1.23,.95,2.46,1.98,3.51,2.95,1.73-.97,3.23-2.02,4.53-3.14h-7.74c-.1,.06-.2,.13-.3,.19Zm-6.29-20.26c.95,.8,1.87,1.64,2.67,2.45,1.53-.8,2.9-1.61,4.12-2.45h-6.79Z"/><path d="M233.89,68.37l8.19,1.89c-.79,.84-1.63,1.63-2.47,2.42h9.67l1.26-.31,5.04,2.94c-2.84,5.1-6.99,9.19-12.03,12.4l7.35,1.68c-1,1.16-2,2.26-3.05,3.31h7.51l1.37-.37,5.31,2.99c-7.46,16.28-24.37,21.49-45.44,23.32-.53-2.1-1.79-5.46-2.99-7.35,8.09-.42,15.44-1.42,21.7-3.31-1.21-1.26-2.84-2.68-4.36-3.89-1.84,.79-3.83,1.63-5.88,2.36-.89-1.79-3.05-4.62-4.62-5.94,9.72-2.84,16.49-6.93,20.7-11.35-6.78,3.78-14.81,6.2-23.27,7.72-.68-1.94-2.21-5.04-3.52-6.67,4.99-.68,9.88-1.73,14.34-3.2-1.21-1.31-2.73-2.73-4.2-3.99-1.26,.63-2.52,1.26-3.89,1.84-1.1-1.73-3.47-4.31-5.15-5.46,8.51-2.94,14.76-7.04,18.44-11.03m9.24,10.98h-12.13l-.42,.26c1.84,1.47,3.78,3.1,5.1,4.57,2.84-1.42,5.36-2.99,7.46-4.83m7.04,20.07h-10.66c-.63,.42-1.26,.79-1.89,1.16,1.89,1.37,3.84,2.99,5.25,4.36,2.84-1.52,5.31-3.31,7.3-5.52m-17.01-33.4l-.84,.91c-3.83,4.15-10.07,7.87-17.57,10.46l-3.98,1.38,3.47,2.39c1.37,.94,3.54,3.25,4.56,4.85l.76,1.19c-1.77,.35-3.61,.66-5.5,.92l-3.74,.51,2.37,2.93c1.11,1.37,2.53,4.23,3.17,6.04l.6,1.71,1.38-.25-1.83,.53,3.07,2.56c1.28,1.07,3.26,3.62,4.08,5.25l.43,.85c-3.09,.42-6.44,.71-10.08,.9l-3.65,.19,1.97,3.08c1.06,1.65,2.24,4.78,2.72,6.73l.44,1.76,1.81-.16c18.51-1.62,38.6-5.8,47.19-24.56l.81-1.78-1.7-.96-5.31-2.99-.76-.43-.84,.23-1.09,.29h-2.39l2.13-2.47-3.45-.79-2.75-.63c3.69-2.98,6.65-6.45,8.81-10.34l1.01-1.82-1.8-1.05-5.04-2.94-.75-.44-.84,.21-1.01,.25h-4.29l1.43-1.53-3.6-.83-8.19-1.89-1.21-.28h0Zm2.85,15.46h.24l-.15,.08-.09-.08h0Zm-14.47,5.29c.91-.39,1.77-.8,2.61-1.21,.16,.14,.32,.29,.49,.44-1,.27-2.04,.53-3.09,.76h0Zm20.74,14.77h2.11c-.39,.26-.8,.52-1.23,.77-.29-.26-.58-.51-.88-.77h0Zm-13.97,5.95c.79-.31,1.55-.63,2.28-.94,.15,.12,.29,.24,.43,.36-.88,.2-1.78,.4-2.71,.58h0Z"/></g><g><path class="d" d="M268.84,118.75c-.79-1.83-2.8-4.51-4.39-5.86l-1.39-1.18,1.71-.63c9.66-3.56,11.2-9.12,11.83-16.53h-11.05v-9.54h49.67v9.54h-13.4v13.54c0,.76,.04,1.11,.07,1.27,.09,.01,.27,.03,.6,.03h3.62c.18,0,.23-.02,.23-.03,.55-.42,.71-4.89,.81-7.56l.08-2.13,1.66,1.34c1.4,1.13,4.54,2.41,6.64,2.95l.86,.22-.07,.89c-.68,9.02-2.33,13.59-9.47,13.59h-5.67c-7.92,0-9.42-3.7-9.42-10.52v-13.59h-4.79c-.96,9.98-3.23,19.29-16.75,24.77l-.96,.39-.41-.96Zm1.59-38.28v-9.48h39.74v9.48h-39.74Z"/><path d="M309.11,72.05v7.35h-37.61v-7.35h37.61m5.04,14.03v7.41h-13.4v14.6c0,2.1,.21,2.36,1.73,2.36h3.62c1.58,0,1.84-1.26,2.1-8.62,1.63,1.31,4.99,2.63,7.04,3.15-.74,9.72-2.63,12.61-8.41,12.61h-5.67c-6.67,0-8.35-2.42-8.35-9.46v-14.66h-6.83c-.95,10.77-3.2,19.59-16.18,24.85-.84-1.94-2.94-4.78-4.67-6.25,10.82-3.99,12.03-10.56,12.61-18.59h-11.14v-7.41h47.54m-2.92-16.16h-41.87v11.61h41.87v-11.61h0Zm5.04,14.03h-51.8v11.66h10.95c-.67,6.61-2.42,11.29-11.03,14.47l-3.42,1.26,2.78,2.36c1.46,1.24,3.37,3.79,4.1,5.47l.82,1.91,1.93-.78c13.59-5.5,16.29-15.07,17.31-24.69h2.77v12.53c0,9.65,4.01,11.58,10.48,11.58h5.67c7.92,0,9.81-5.12,10.53-14.58l.13-1.78-1.73-.44c-2-.51-4.98-1.74-6.23-2.75l-3.31-2.67-.15,4.25c-.07,1.91-.19,5.25-.47,6.56h-2.73c0-.07,0-.15,0-.24v-12.47h13.4v-11.66h0Z"/></g><g><path class="d" d="M321.22,118.87c-.78-1.7-3.04-5.21-4.48-6.96l-1.1-1.34,1.7-.38c7.53-1.67,13.62-4.15,18.58-7.56-3.8-4.62-6.96-10.17-9.62-16.91h-8.64v-9.59h21.31c-.54-1.81-1.29-3.8-2.03-5.36l-.54-1.13,10.22-3.01,.41,.77c1.21,2.26,2.82,5.78,3.4,8.24l.12,.5h17.72v9.59h-8.24c-2.34,6.54-5.4,12.03-9.32,16.7,5.02,3.4,11.03,5.89,17.88,7.41l1.93,.43-1.42,1.38c-1.56,1.51-3.75,4.69-4.96,6.89l-.4,.72-.8-.21c-7.78-2.02-14.27-5.1-19.81-9.4-5.65,4.3-12.42,7.52-20.67,9.81l-.88,.24-.38-.83Zm15.37-33.15c1.76,3.76,4,7.18,6.68,10.19,2.39-2.96,4.36-6.38,5.86-10.19h-12.53Z"/><path d="M346.09,67.9c1.31,2.47,2.78,5.78,3.31,7.98l-4.25,1.31h22.06v7.46h-7.93c-2.47,7.14-5.83,13.08-10.14,17.96,5.25,3.78,11.61,6.57,19.23,8.25-1.73,1.68-3.99,5.04-5.15,7.14-8.09-2.1-14.66-5.36-20.07-9.72-5.73,4.52-12.66,7.83-20.96,10.14-.84-1.84-3.15-5.41-4.62-7.19,8.04-1.79,14.6-4.52,19.91-8.41-4.36-5.04-7.72-11.08-10.45-18.17h-8.3v-7.46h21.64c-.53-2.1-1.47-4.78-2.47-6.88l8.2-2.42m4.57,16.76h-15.71c2.05,4.83,4.83,9.14,8.35,12.87,3.1-3.57,5.57-7.83,7.35-12.87m-3.51-19.29l-1.67,.49-8.2,2.42-2.39,.7,1.07,2.25c.54,1.13,1.08,2.49,1.54,3.84h-20.92v11.72h8.98c2.47,6.11,5.36,11.25,8.78,15.61-4.67,3.01-10.34,5.23-17.25,6.77l-3.39,.75,2.21,2.68c1.4,1.69,3.58,5.09,4.33,6.73l.76,1.65,1.75-.49c8.06-2.24,14.75-5.36,20.38-9.5,5.5,4.13,11.91,7.11,19.54,9.09l1.6,.42,.8-1.45c1.15-2.08,3.3-5.22,4.76-6.64l2.84-2.75-3.86-.85c-6.28-1.39-11.83-3.61-16.54-6.61,3.5-4.4,6.3-9.46,8.49-15.4h8.56v-11.72h-17.95c-.66-2.53-2.24-5.95-3.42-8.17l-.82-1.53h0Zm-8.85,21.42h9.23c-1.19,2.72-2.63,5.21-4.3,7.45-1.89-2.27-3.54-4.76-4.93-7.45h0Z"/></g><g><path class="d" d="M376.75,119.5v-25c-.64,.68-1.33,1.38-2.09,2.11l-1.17,1.12-.56-1.52c-.66-1.77-2.64-5.98-3.83-7.83l-.5-.77,.69-.61c5.03-4.41,9.89-11.54,12.69-18.61l.37-.94,9.12,3.11-.43,1.05c-1.24,3-2.84,6.22-4.91,9.86v38.03h-9.38Zm25.75-.84c-7.76,0-10.26-2.82-10.26-11.62v-38.47h9.48v12.92h18.18v9.43h-18.18v16.22q0,2.67,1.67,2.67h6.57c1.42,0,1.92-.75,2.4-9.66l.11-2,1.6,1.21c1.6,1.21,4.49,2.57,6.31,2.96l.91,.2-.07,.92c-.77,10.09-2.61,15.22-10.57,15.22h-8.14Z"/><path d="M382.96,68.79l7.09,2.42c-1.37,3.31-3.1,6.67-4.99,9.98v37.24h-7.25v-26.79c-1.26,1.58-2.57,2.94-3.89,4.2-.68-1.84-2.68-6.09-3.94-8.04,5.1-4.47,10.09-11.71,12.98-19.02m17.7,.84v12.92h18.17v7.3h-18.17v17.28c0,3.26,.26,3.73,2.73,3.73h6.57c2.57,0,2.99-2.05,3.47-10.66,1.73,1.31,4.78,2.73,6.72,3.15-.79,10.35-2.63,14.24-9.51,14.24h-8.14c-7.2,0-9.19-2.42-9.19-10.56v-37.4h7.35m-18.94-3.51l-.75,1.89c-2.74,6.92-7.49,13.9-12.4,18.2l-1.39,1.21,1,1.55c1.16,1.79,3.09,5.89,3.73,7.62l1.13,3.04,2.34-2.25c.1-.09,.19-.18,.29-.28v23.46h11.51v-38.81c1.59-2.8,2.9-5.37,3.99-7.79v33.07c0,10.61,4.15,12.69,11.32,12.69h8.14c9.61,0,10.96-7.34,11.63-16.2l.14-1.85-1.81-.39c-1.66-.36-4.42-1.65-5.89-2.77l-3.19-2.41-.22,3.99c-.15,2.72-.43,7.75-1.09,8.64-.04,0-.12,.02-.25,.02h-6.57c-.24,0-.42,0-.55-.01-.03-.34-.05-.88-.05-1.59v-15.15h18.17v-11.56h-18.17v-12.92h-11.61v1.84l-.44-.15-7.09-2.42-1.92-.65h0Z"/></g><g><path class="d" d="M423.08,118.13v-9.59h19.86v-6.91h-13.61v-7.92l-.68-.59c-1.51-1.3-4.9-3.52-6.69-4.49l-1.22-.66,.95-1.01c3.74-3.98,7.08-10.76,8.94-18.13l.25-1.01,10.03,2.26-.29,1.07c-.47,1.74-1.06,3.54-1.79,5.48h4.11v-9.14h10.11v9.14h17.18v9.59h-17.18v5.91h15.08v9.48h-15.08v6.91h19.96v9.59h-49.93Zm19.86-25.98v-5.91h-8.39c-1.3,2.37-2.53,4.32-3.72,5.91h12.11Z"/><path d="M451.98,68.58v9.14h17.18v7.46h-17.18v8.04h15.08v7.35h-15.08v9.03h19.96v7.46h-47.8v-7.46h19.86v-9.03h-13.61v-7.35h13.61v-8.04h-10.09c-1.47,2.73-3,5.2-4.57,7.14-1.52-1.31-4.94-3.57-6.88-4.62,4.04-4.31,7.41-11.5,9.19-18.59l7.93,1.79c-.63,2.31-1.42,4.57-2.31,6.83h6.72v-9.14h7.98m2.13-2.13h-12.24v2.77l-1.82-.41-7.93-1.79-2.02-.46-.51,2.01c-1.79,7.09-5.11,13.86-8.68,17.66l-1.89,2.01,2.43,1.31c1.95,1.05,5.17,3.22,6.5,4.36l.31,.27v8.5h13.61v4.78h-19.86v11.72h52.06v-11.72h-19.96v-4.78h15.08v-11.61h-15.08v-3.78h17.18v-11.72h-17.18v-9.14h0Zm-13.77,9.14c.5-1.44,.93-2.81,1.3-4.14l.23-.85v4.99h-1.53Zm-5.17,11.72h6.7v3.78h-8.99c.75-1.12,1.51-2.37,2.29-3.78h0Z"/></g><g><path class="d" d="M493.68,119.5v-23.87h10.45v-3.44h-13.45v-2.65l-3.91,5.84,6.45,5.84-.37,.72c-2.8,5.55-5.98,11.26-9.18,16.52l-.63,1.03-8.2-6.53,.59-.82c2.4-3.35,6.39-9.55,9.82-16.1l-.16-.12c-1.6-1.13-4.99-3.07-9.81-5.6l-1.09-.57,5.33-7.37,.79,.36c2.75,1.25,7.73,3.57,10.19,5.05l.17,.1v-5.14h13.45v-2.54c-2.74,.38-5.56,.69-8.41,.94l-1,.09-.14-.99c-.2-1.41-.86-3.53-1.5-5.13l-5.11,6.94-.86-.64c-1.45-1.08-4.26-2.72-6.75-4.17-.94-.55-1.84-1.08-2.62-1.54l-1.03-.62,5.59-7.16,1.76,.89c2.56,1.3,5.98,3.04,8.13,4.31l-.22-.47,1.5-.14c9.61-.92,18.49-2.79,23.75-5.02l.67-.28,7.46,7.66-1.49,.58c-3.27,1.28-6.75,2.31-10.35,3.08v4.21h12.82v9.43h-12.82v3.44h10.61v23.67h-9.38v-1.89h-12.05v2.1h-9.01Zm21.06-11.11v-3.76h-12.05v3.76h12.05Z"/><path d="M517.64,68.48l5.83,5.99c-3.36,1.31-7.09,2.42-11.03,3.2v6.15h12.82v7.3h-12.82v5.57h10.61v21.54h-7.25v-1.89h-14.18v2.1h-6.88v-21.75h10.45v-5.57h-13.45v-7.3h13.45v-4.83c-3.2,.47-6.46,.84-9.56,1.1-.26-1.84-1.26-4.83-2.05-6.51,8.82-.84,18.23-2.63,24.06-5.1m-16.02,40.97h14.18v-5.88h-14.18v5.88m-19.02-40.19c2.78,1.42,7.41,3.73,9.67,5.15l-4.52,6.14c-2.05-1.52-6.57-4.04-9.45-5.78l4.31-5.52m-2.73,14.45c2.89,1.31,7.72,3.57,10.09,4.99l-4.25,6.36c-2.15-1.52-6.83-4.04-9.93-5.67l4.1-5.67m6.41,12.66l5.62,5.09c-2.79,5.52-5.94,11.19-9.14,16.44l-6.46-5.15c2.78-3.89,6.78-10.24,9.98-16.39m31.87-30.42l-1.34,.57c-5.16,2.19-13.92,4.03-23.43,4.94l-1.68,.16c-2.12-1.19-4.93-2.62-7.11-3.72l-1.03-.52-1.56-.8-1.08,1.38-4.31,5.52-1.48,1.9,2.06,1.24c.79,.47,1.7,1,2.64,1.56,2.46,1.44,5.24,3.06,6.64,4.1l1.72,1.28,1.27-1.72,3.29-4.47c.36,1.1,.65,2.22,.77,3.04l.19,1.3h-4.09v4.38c-2.67-1.44-6.55-3.24-8.86-4.29l-1.59-.72-1.02,1.41-4.1,5.67-1.44,1.99,2.17,1.14c4.23,2.22,7.34,3.97,9.08,5.12-3.29,6.18-7.02,11.96-9.3,15.14l-1.18,1.64,1.58,1.26,6.46,5.15,1.89,1.5,1.26-2.06c2.77-4.55,5.52-9.43,8.03-14.26v15.81h11.14v-2.1h9.93v1.89h11.51v-25.79h-10.61v-1.31h12.82v-11.56h-12.82v-2.29c3.36-.76,6.61-1.75,9.68-2.95l2.99-1.17-2.24-2.3-5.83-5.99-1.02-1.04h0Zm-17.18,15.74c.7-.08,1.4-.17,2.09-.26v.26h-2.09Zm-12.81,13.52l1.45-2.17v.21h13.45v1.31h-10.45v4.68l-4.45-4.03h0Zm15.58,10.49h9.93v1.63h-9.93v-1.63h0Z"/></g></g><g><g><path class="d" d="M219.04,183.94v-11.46c0-.69,.03-1.45,.08-2.26l-4.1,11.15h-5.48l-4.05-10.9c.04,.71,.06,1.39,.06,2.01v11.46h-8.65v-32.45h9.67l5.07,13.78c.28,.81,.54,1.66,.79,2.5,.24-.84,.49-1.67,.75-2.47l4.91-13.82h9.72v32.45h-8.77Z"/><path d="M226.75,152.55v30.32h-6.64v-10.39c0-3.01,.57-7.54,.94-10.51h-.16l-2.53,7.25-4.08,11.09h-4l-4.12-11.09-2.45-7.25h-.16c.37,2.97,.94,7.5,.94,10.51v10.39h-6.52v-30.32h7.87l4.81,13.08c.61,1.75,1.1,3.67,1.67,5.54h.2c.61-1.88,1.1-3.79,1.67-5.54l4.65-13.08h7.91m2.13-2.13h-11.54l-.5,1.42-4.42,12.44-4.58-12.46-.51-1.39h-11.48v34.58h10.78v-8.44l1.66,4.48,.52,1.39h6.96l.51-1.39,1.7-4.63v8.59h10.9v-34.58h0Z"/></g><g><rect class="d" x="232.65" y="151.49" width="9.43" height="32.45"/><path d="M241.02,152.55v30.32h-7.3v-30.32h7.3m2.13-2.13h-11.55v34.58h11.55v-34.58h0Z"/></g><g><path class="d" d="M261.99,183.94l-3.1-6.52c-.44-.96-.87-1.92-1.32-2.94-.42,1.02-.82,1.97-1.23,2.91l-2.89,6.55h-10.26l8.93-16.68-8.44-15.78h10.57l2.73,6.05c.39,.85,.79,1.76,1.24,2.78,.43-1.09,.81-2.01,1.13-2.76l2.46-6.07h10.17l-8.37,16.09,8.94,16.36h-10.58Z"/><path d="M270.24,152.55l-7.83,15.04,8.35,15.29h-8.11l-2.81-5.91c-.73-1.59-1.43-3.18-2.24-5.05h-.16c-.73,1.88-1.38,3.46-2.08,5.05l-2.61,5.91h-7.79l8.36-15.61-7.87-14.71h8.11l2.45,5.42c.65,1.43,1.34,3.02,2.2,4.97h.16c.69-1.96,1.34-3.55,1.96-4.97l2.2-5.42h7.7m3.51-2.13h-12.64l-.54,1.33-2.2,5.42c-.06,.14-.12,.28-.18,.42-.08-.17-.15-.34-.23-.51l-2.44-5.41-.57-1.25h-13.04l1.67,3.13,7.33,13.71-7.82,14.61-1.68,3.13h12.73l.56-1.27,2.61-5.91c.1-.22,.19-.44,.29-.66,.11,.23,.21,.46,.32,.69l2.82,5.93,.58,1.21h13.04l-1.72-3.15-7.81-14.29,7.3-14.03,1.62-3.11h0Z"/></g><g><rect class="d" x="288.47" y="151.49" width="9.43" height="32.45"/><path d="M296.83,152.55v30.32h-7.3v-30.32h7.3m2.13-2.13h-11.55v34.58h11.55v-34.58h0Z"/></g><g><path class="d" d="M319.82,183.94l-7.8-15.21-.53-1.17c.17,1.76,.3,3.56,.3,5.25v11.13h-9.06v-32.45h9.13l7.84,15.08,.46,1.03c-.15-1.71-.26-3.44-.26-5.03v-11.09h9.05v32.45h-9.13Z"/><path d="M327.88,152.55v30.32h-7.42l-7.5-14.63-2.97-6.64h-.2c.33,3.38,.94,7.54,.94,11.21v10.07h-6.93v-30.32h7.42l7.54,14.51,2.98,6.73h.2c-.41-3.22-.98-7.58-.98-11.21v-10.03h6.93m2.13-2.13h-11.18v12.15h0l-5.73-11.01-.6-1.15h-10.84v34.58h11.19v-12.31l5.72,11.16,.59,1.16h10.85v-34.58h0Z"/></g><g><polygon class="d" points="349.08 183.94 349.08 159.65 340.89 159.65 340.89 151.49 366.74 151.49 366.74 159.65 358.5 159.65 358.5 183.94 349.08 183.94"/><path d="M365.67,152.55v6.03h-8.23v24.29h-7.3v-24.29h-8.19v-6.03h23.72m2.13-2.13h-27.98v10.29h8.19v24.29h11.55v-24.29h8.23v-10.29h0Z"/></g><g><polygon class="d" points="386.58 183.94 386.58 171.47 378.72 171.47 378.72 183.94 369.3 183.94 369.3 151.49 378.72 151.49 378.72 163.02 386.58 163.02 386.58 151.49 395.92 151.49 395.92 183.94 386.58 183.94"/><path d="M394.86,152.55v30.32h-7.21v-12.47h-9.98v12.47h-7.3v-30.32h7.3v11.53h9.98v-11.53h7.21m2.13-2.13h-11.47v11.53h-5.73v-11.53h-11.55v34.58h11.55v-12.47h5.73v12.47h11.47v-34.58h0Z"/></g><g><polygon class="d" points="400.85 183.94 400.85 151.49 422.22 151.49 422.22 159.65 410.28 159.65 410.28 163.14 420.42 163.14 420.42 171.38 410.28 171.38 410.28 175.7 422.67 175.7 422.67 183.94 400.85 183.94"/><path d="M421.15,152.55v6.03h-11.94v5.62h10.15v6.11h-10.15v6.44h12.39v6.11h-19.69v-30.32h19.24m2.13-2.13h-23.5v34.58h23.94v-10.37h-12.39v-2.18h10.15v-10.37h-10.15v-1.37h11.94v-10.29h0Z"/></g><g><path class="d" d="M449.77,184.51c-7.61,0-15.29-5.14-15.29-16.63,0-8.43,5.34-16.96,15.53-16.96,5.03,0,8.41,2.68,9.97,4.27l.67,.68-5.15,6.25-.83-.76c-1.61-1.48-2.92-2.08-4.54-2.08-3.57,0-6.07,3.43-6.07,8.35,0,5.31,2.24,8.47,5.99,8.47,2.29,0,3.98-1.32,5.01-2.43l.82-.89,5.19,6.19-.59,.69c-2.74,3.17-6.44,4.85-10.71,4.85Z"/><path d="M450.01,151.98c3.95,0,7.13,1.83,9.21,3.95l-3.83,4.65c-1.51-1.39-3.1-2.36-5.26-2.36-3.91,0-7.13,3.5-7.13,9.42s2.77,9.54,7.05,9.54c2.4,0,4.36-1.22,5.79-2.77l3.83,4.57c-2.57,2.98-5.95,4.48-9.9,4.48-7.7,0-14.22-5.3-14.22-15.57s6.76-15.9,14.47-15.9m0-2.13c-4.48,0-8.61,1.7-11.64,4.8-3.24,3.31-4.95,7.88-4.95,13.23,0,12.23,8.21,17.7,16.35,17.7,4.59,0,8.57-1.81,11.52-5.22l1.18-1.37-1.16-1.39-3.83-4.57-1.56-1.85-1.64,1.78c-.88,.95-2.32,2.09-4.22,2.09-4.44,0-4.92-5.18-4.92-7.41,0-4.36,2.01-7.29,5-7.29,1.32,0,2.43,.52,3.82,1.8l1.65,1.52,1.43-1.73,3.83-4.65,1.22-1.48-1.34-1.37c-1.68-1.71-5.31-4.59-10.73-4.59h0Z"/></g><g><rect class="d" x="463.05" y="151.49" width="9.42" height="32.45"/><path d="M471.41,152.55v30.32h-7.3v-30.32h7.3m2.13-2.13h-11.55v34.58h11.55v-34.58h0Z"/></g><g><polygon class="d" points="483.19 183.94 483.19 159.65 475 159.65 475 151.49 500.85 151.49 500.85 159.65 492.61 159.65 492.61 183.94 483.19 183.94"/><path d="M499.78,152.55v6.03h-8.23v24.29h-7.3v-24.29h-8.19v-6.03h23.72m2.13-2.13h-27.98v10.29h8.19v24.29h11.55v-24.29h8.23v-10.29h0Z"/></g><g><path class="d" d="M507.77,183.94v-11.55l-9.73-20.9h10.15l2.79,7.41c.52,1.46,1.02,2.84,1.54,4.26,.28-.75,4.39-11.68,4.39-11.68h10.03l-9.78,20.91v11.55h-9.39Z"/><path d="M525.26,152.55l-9.17,19.6v10.72h-7.26v-10.72l-9.13-19.6h7.75l2.53,6.72c.82,2.28,1.59,4.4,2.45,6.77h.16c.86-2.36,1.67-4.48,2.53-6.77l2.53-6.72h7.62m3.35-2.13h-12.44l-.52,1.38-2.53,6.72-.59,1.57c-.18-.51-.37-1.02-.55-1.53l-2.54-6.76-.52-1.38h-12.56l1.41,3.03,8.93,19.18v12.38h11.51v-12.37l8.97-19.18,1.42-3.03h0Z"/></g></g></g><g><path class="d" d="M272.16,201.74h-10.22l-.45,1.37-10.74,32.64,.51-5.81,.19-2.17h-5.31l2.09-23.85,.19-2.17h-13.31l-.59,.64-23.66,25.47-.47,.5-.06,.68-.85,9.68-.19,2.17h21.43l-.5,5.74-.19,2.17h14.27l.16-1.83,.53-6.09h4.07l-1.98,6.01-.86,2.62h10.15l.45-1.37,14.46-43.78,.87-2.63Zm-45.17,26.02l5.38-5.74-.5,5.74h-4.88Z"/><path class="d" d="M371.34,235.21c.88-.61,2.05-1.39,3.5-2.33,4.48-2.98,7.57-5.67,9.44-8.23,1.93-2.63,3.03-5.46,3.29-8.4,.25-2.84-.31-5.45-1.67-7.76-1.36-2.32-3.38-4.06-5.99-5.17-2.49-1.06-5.87-1.57-10.32-1.57s-7.62,.54-10.23,1.65c-2.65,1.13-4.8,2.78-6.4,4.91-1.56,2.08-2.76,4.94-3.57,8.51l-.51,2.25,2.3,.19,11.7,.95,1.73,.14,.38-1.7c.55-2.45,1.26-3.5,1.75-3.95,.67-.61,1.45-.89,2.46-.89,1.17,0,1.72,.43,2.03,.75,.47,.5,.66,1.04,.6,1.75-.07,.78-.52,1.69-1.34,2.7-.66,.81-2.36,2.41-6.72,5.45-6.24,4.34-10.47,8.04-12.94,11.31-2.49,3.3-4.14,6.88-4.91,10.64l-.49,2.4h39.57l.16-1.83,.84-9.59,.19-2.17h-14.87Z"/><path class="d" d="M421.4,223.2c-.12-.08-.24-.16-.37-.23,.82-.69,1.52-1.42,2.12-2.19,1.36-1.79,2.15-3.81,2.34-6.01,.33-3.76-.9-6.94-3.67-9.43-2.69-2.43-6.96-3.6-13.06-3.6-5.2,0-9.41,1.07-12.53,3.17-3.15,2.13-5.44,5.2-6.81,9.14l-.77,2.21,2.3,.42,10.94,1.99,.78,.14-.16,.98-1.34,8.4-.49,3.08,3-.84c1.83-.51,2.83-.62,3.33-.62,1.5,0,2.12,.52,2.45,.91,.55,.65,.77,1.69,.65,3.09-.13,1.46-.59,2.56-1.4,3.38-.78,.78-1.63,1.15-2.68,1.15-1.26,0-1.84-.44-2.16-.77-.32-.33-.89-1.25-1.16-3.74l-.22-2.04-2.03,.27-11.89,1.56-2.13,.28,.43,2.1c.6,2.91,1.63,5.39,3.08,7.35,1.49,2.03,3.5,3.59,5.97,4.63,2.42,1.02,5.61,1.51,9.77,1.51s7.79-.68,10.59-2.03c2.85-1.38,5.15-3.37,6.83-5.93,1.67-2.53,2.63-5.23,2.88-8.01,.2-2.31-.1-4.35-.9-6.08-.81-1.75-2.06-3.18-3.7-4.26Zm-17.2-6.04c.51-2.2,1.18-3.05,1.53-3.37,.57-.51,1.26-.75,2.16-.75,1.14,0,1.48,.38,1.6,.5,.2,.22,.45,.62,.37,1.57-.07,.84-.45,1.52-1.18,2.17-.76,.66-1.6,.97-2.66,.97-.15,0-.51-.02-1.22-.12l-.79-.12,.2-.86Z"/><polygon class="d" points="444.59 233.01 442.41 233.01 429.85 233.01 428.02 233.01 427.86 234.84 426.83 246.62 426.64 248.8 428.82 248.8 441.38 248.8 443.21 248.8 443.37 246.97 444.4 235.19 444.59 233.01"/><path class="d" d="M524.08,227.76h-3.13l2.09-23.85,.19-2.17h-13.31l-.59,.64-23.66,25.47-.47,.5-.06,.68-.54,6.17h-14.67c.88-.61,2.05-1.39,3.5-2.33,4.48-2.98,7.57-5.67,9.44-8.23,1.93-2.63,3.03-5.46,3.29-8.4,.25-2.84-.31-5.45-1.67-7.76-1.36-2.32-3.38-4.06-5.99-5.17-2.49-1.06-5.87-1.57-10.32-1.57s-7.62,.54-10.23,1.65c-2.65,1.13-4.8,2.78-6.4,4.91-1.56,2.08-2.76,4.94-3.57,8.51l-.51,2.25,2.3,.19,11.7,.95,1.73,.14,.38-1.7c.55-2.45,1.26-3.5,1.75-3.95,.67-.61,1.45-.89,2.46-.89,1.17,0,1.72,.43,2.03,.75,.47,.5,.66,1.04,.6,1.75-.07,.78-.52,1.69-1.34,2.7-.66,.81-2.36,2.41-6.71,5.45-6.24,4.34-10.47,8.04-12.94,11.31-2.49,3.3-4.14,6.88-4.91,10.64l-.49,2.4h39.57l.16-1.83,.53-6.09h21.23l-.5,5.74-.19,2.17h14.27l.16-1.83,.53-6.09h5.31l.16-1.83,.8-9.13,.19-2.17h-2.18Zm-22.27,0l5.38-5.74-.5,5.74h-4.88Z"/><path class="d" d="M288.65,203.41h-1.17l-.57,1.02c-1.27,2.28-2.95,4.22-4.98,5.77-2.06,1.57-4.98,2.96-8.66,4.11l-1.28,.4-.12,1.33-.8,9.19-.26,2.93,2.82-.84c2.75-.82,5.09-1.69,6.97-2.59,.78-.38,1.59-.8,2.4-1.28l-2,22.81-.19,2.17h15.35l.16-1.83,3.59-41.03,.19-2.17h-11.46Z"/><path class="d" d="M337.95,215.2l.64-.53,.07-.83,.66-7.57,.19-2.17h-36.74l-.16,1.83-.83,9.47-.19,2.17h17.77c-3.25,3.98-5.82,7.8-7.66,11.4-2.35,4.59-4.29,10.33-5.78,17.05l-.54,2.43h15.36l.28-1.67c.75-4.57,1.8-8.57,3.11-11.89,1.66-4.29,3.78-8.22,6.3-11.7,2.06-2.84,4.59-5.53,7.52-7.98Z"/><polygon class="d" points="329.85 233.01 328.02 233.01 327.86 234.84 326.83 246.62 326.64 248.8 328.82 248.8 341.38 248.8 343.21 248.8 343.37 246.97 344.4 235.19 344.59 233.01 342.41 233.01 329.85 233.01"/></g><g><g><path class="e" d="M228.12,244.8l.69-7.91h-21.43l.97-11.1,24.19-26.04h11.78l-2.28,26.02h5.31l-.97,11.13h-5.31l-.69,7.91h-12.26Zm1.67-19.04l.83-9.53-8.93,9.53h8.1Z"/><path class="f" d="M243.23,200.74l-2.28,26.02h5.31l-.8,9.13h-5.31l-.69,7.91h-10.25l.69-7.91h-21.43l.85-9.68,23.66-25.47h10.25m-11.36,12.7l-12.49,13.32h11.32l1.16-13.32m13.55-14.7h-13.31l-.59,.64-23.66,25.47-.47,.5-.06,.68-.85,9.68-.19,2.17h21.43l-.5,5.74-.19,2.17h14.27l.16-1.83,.53-6.09h5.31l.16-1.83,.8-9.13,.19-2.17h-5.31l2.09-23.85,.19-2.17h0Zm-21.42,26.02l5.38-5.74-.5,5.74h-4.88Z"/></g><g><polygon class="e" points="244.61 245.52 259.67 199.74 267.78 199.74 252.65 245.52 244.61 245.52"/><path class="f" d="M266.4,200.74l-14.46,43.78h-5.94l14.4-43.78h6m2.77-2h-10.22l-.45,1.37-14.4,43.78-.86,2.63h10.15l.45-1.37,14.46-43.78,.87-2.63h0Z"/></g><g><path class="e" d="M343.68,244.8l.24-1.2c.74-3.62,2.32-7.06,4.72-10.24,2.37-3.14,6.65-6.87,12.71-11.09,3.58-2.49,5.9-4.39,6.92-5.64,.95-1.17,1.47-2.26,1.55-3.24,.09-1-.2-1.83-.87-2.53-.68-.72-1.58-1.06-2.75-1.06-1.25,0-2.28,.38-3.13,1.15-.88,.8-1.57,2.3-2.05,4.48l-.19,.85-13.71-1.12,.25-1.12c.78-3.43,1.92-6.17,3.39-8.13,1.5-1.99,3.51-3.54,6-4.59,2.44-1.04,5.75-1.57,9.83-1.57,4.32,0,7.56,.49,9.93,1.49,2.41,1.03,4.27,2.63,5.52,4.76,1.25,2.13,1.77,4.54,1.54,7.16-.24,2.75-1.29,5.41-3.1,7.9-1.78,2.43-4.87,5.12-9.18,7.98-2.49,1.62-4.17,2.77-5,3.4-.3,.23-.63,.49-.97,.78h16.78l-1.01,11.59h-37.43Z"/><path class="f" d="M366.6,200.74c4.14,0,7.32,.47,9.54,1.41,2.22,.94,3.9,2.39,5.05,4.35,1.15,1.95,1.62,4.14,1.4,6.57-.23,2.58-1.2,5.04-2.91,7.39-1.72,2.35-4.69,4.93-8.92,7.74-2.51,1.64-4.2,2.78-5.05,3.44-.86,.66-1.87,1.51-3.04,2.57h18.37l-.84,9.59h-35.29c.71-3.48,2.22-6.76,4.54-9.83,2.32-3.07,6.48-6.7,12.49-10.87,3.67-2.56,6.05-4.5,7.12-5.83,1.08-1.33,1.67-2.59,1.77-3.78,.11-1.29-.27-2.39-1.14-3.31-.87-.91-2.03-1.37-3.48-1.37s-2.77,.47-3.81,1.42c-1.04,.94-1.82,2.61-2.36,5l-11.7-.95c.75-3.31,1.82-5.9,3.22-7.75,1.39-1.86,3.26-3.28,5.59-4.27,2.33-.99,5.48-1.49,9.44-1.49m0-2c-4.28,0-7.62,.54-10.23,1.65-2.65,1.13-4.8,2.78-6.4,4.91-1.56,2.08-2.76,4.94-3.57,8.51l-.51,2.25,2.3,.19,11.7,.95,1.73,.14,.38-1.7c.55-2.45,1.26-3.5,1.75-3.95,.67-.61,1.45-.89,2.46-.89,1.17,0,1.72,.43,2.03,.75,.47,.5,.66,1.04,.6,1.75-.07,.78-.52,1.69-1.34,2.7-.66,.81-2.36,2.41-6.72,5.45-6.24,4.34-10.47,8.04-12.94,11.31-2.49,3.3-4.14,6.88-4.91,10.64l-.49,2.4h39.57l.16-1.83,.84-9.59,.19-2.17h-14.87c.88-.61,2.05-1.39,3.5-2.33,4.49-2.98,7.57-5.67,9.45-8.23,1.93-2.63,3.03-5.46,3.29-8.4,.25-2.84-.31-5.45-1.67-7.76-1.36-2.32-3.38-4.06-5.99-5.17-2.49-1.06-5.87-1.57-10.32-1.57h0Z"/></g><g><path class="e" d="M402.71,245.52c-4.02,0-7.09-.47-9.38-1.44-2.3-.97-4.17-2.42-5.56-4.3-1.36-1.85-2.34-4.19-2.91-6.96l-.21-1.05,13.97-1.83,.11,1.02c.28,2.65,.94,3.82,1.44,4.33,.7,.72,1.64,1.07,2.88,1.07,1.31,0,2.42-.47,3.38-1.44,.99-.99,1.54-2.3,1.69-4,.15-1.68-.15-2.97-.88-3.83-.72-.85-1.78-1.26-3.21-1.26-.83,0-2.04,.22-3.6,.66l-1.5,.42,1.74-10.92,.98,.15c.74,.11,1.15,.13,1.37,.13,1.3,0,2.39-.4,3.32-1.22,.92-.81,1.42-1.74,1.51-2.83,.09-1.01-.12-1.77-.63-2.33-.51-.56-1.27-.83-2.34-.83-1.14,0-2.07,.33-2.82,1-.78,.69-1.4,2-1.84,3.89l-.22,.93-13.03-2.37,.38-1.1c1.3-3.73,3.46-6.64,6.42-8.64,2.95-1.99,6.97-3,11.97-3,5.83,0,9.89,1.09,12.39,3.35,2.52,2.27,3.64,5.16,3.34,8.6-.18,2.01-.89,3.86-2.14,5.49-.83,1.09-1.92,2.1-3.24,3,.69,.27,1.27,.56,1.75,.87,1.48,.96,2.6,2.26,3.34,3.84,.73,1.57,1,3.45,.81,5.58-.23,2.62-1.14,5.16-2.71,7.55-1.58,2.4-3.75,4.28-6.43,5.58-2.66,1.28-6.08,1.93-10.16,1.93Z"/><path class="f" d="M405.76,200.74c5.53,0,9.43,1.03,11.72,3.09,2.28,2.06,3.29,4.65,3.02,7.77-.16,1.83-.81,3.48-1.94,4.97-1.13,1.48-2.76,2.78-4.88,3.9,1.6,.4,2.81,.88,3.63,1.42,1.33,.87,2.32,2.01,2.98,3.42,.66,1.42,.9,3.1,.73,5.07-.21,2.46-1.07,4.83-2.56,7.09-1.49,2.26-3.5,4-6.03,5.23-2.53,1.22-5.77,1.83-9.72,1.83s-6.85-.45-8.99-1.36c-2.14-.91-3.86-2.23-5.14-3.97-1.28-1.74-2.19-3.93-2.73-6.57l11.89-1.56c.25,2.37,.83,4.01,1.72,4.92,.89,.91,2.09,1.37,3.59,1.37,1.58,0,2.94-.58,4.09-1.73,1.15-1.16,1.81-2.69,1.98-4.62,.17-1.96-.2-3.48-1.12-4.56-.92-1.08-2.24-1.62-3.97-1.62-.92,0-2.22,.23-3.87,.69l1.34-8.4c.65,.1,1.15,.14,1.52,.14,1.54,0,2.87-.49,3.98-1.47,1.11-.98,1.73-2.15,1.85-3.49,.11-1.29-.18-2.32-.89-3.09-.7-.77-1.73-1.15-3.08-1.15s-2.55,.42-3.49,1.26c-.94,.84-1.66,2.31-2.15,4.4l-10.94-1.99c1.23-3.54,3.25-6.26,6.04-8.14,2.79-1.89,6.6-2.83,11.41-2.83m0-2c-5.2,0-9.41,1.07-12.53,3.17-3.15,2.13-5.44,5.2-6.81,9.14l-.77,2.21,2.3,.42,10.94,1.99,.78,.14-.16,.98-1.34,8.4-.49,3.08,3-.84c1.83-.51,2.83-.62,3.33-.62,1.5,0,2.12,.52,2.45,.91,.55,.65,.77,1.69,.65,3.09-.13,1.46-.59,2.56-1.4,3.38-.78,.78-1.63,1.15-2.68,1.15-1.26,0-1.84-.44-2.16-.77-.32-.33-.89-1.25-1.16-3.74l-.22-2.04-2.03,.27-11.89,1.56-2.13,.28,.43,2.1c.6,2.91,1.63,5.39,3.08,7.35,1.49,2.03,3.5,3.59,5.97,4.63,2.42,1.02,5.61,1.51,9.77,1.51s7.79-.68,10.59-2.03c2.85-1.38,5.15-3.37,6.83-5.93,1.67-2.53,2.63-5.23,2.88-8.01,.2-2.31-.1-4.35-.9-6.08-.81-1.75-2.06-3.18-3.7-4.26-.12-.08-.24-.16-.37-.23,.82-.69,1.52-1.42,2.12-2.19,1.36-1.79,2.15-3.81,2.34-6.01,.33-3.76-.9-6.94-3.67-9.43-2.69-2.43-6.96-3.6-13.06-3.6h0Zm-4.76,16.28l.2-.86c.51-2.2,1.18-3.05,1.53-3.37,.57-.51,1.26-.75,2.16-.75,1.14,0,1.48,.38,1.6,.5,.2,.22,.45,.62,.37,1.57-.07,.83-.45,1.52-1.18,2.17-.76,.66-1.6,.97-2.66,.97-.15,0-.51-.02-1.22-.12l-.79-.12h0Z"/></g><g><polygon class="e" points="424.73 244.8 425.93 231.01 440.5 231.01 439.3 244.8 424.73 244.8"/><path class="f" d="M439.41,232.01l-1.03,11.78h-12.56l1.03-11.78h12.56m2.18-2h-16.58l-.16,1.83-1.03,11.78-.19,2.17h16.58l.16-1.83,1.03-11.78,.19-2.17h0Z"/></g><g><path class="e" d="M442.27,244.8l.24-1.2c.74-3.61,2.32-7.06,4.72-10.24,2.37-3.14,6.65-6.87,12.72-11.09,3.58-2.5,5.91-4.39,6.92-5.64,.95-1.17,1.47-2.26,1.56-3.24,.09-1-.2-1.82-.87-2.53-.68-.72-1.58-1.06-2.75-1.06-1.25,0-2.28,.38-3.13,1.15-.88,.8-1.57,2.3-2.06,4.48l-.19,.85-13.71-1.12,.25-1.12c.78-3.43,1.92-6.17,3.4-8.13,1.5-1.99,3.51-3.54,6-4.59,2.44-1.04,5.75-1.57,9.83-1.57,4.32,0,7.56,.49,9.93,1.49,2.41,1.03,4.27,2.63,5.52,4.76,1.25,2.13,1.77,4.54,1.54,7.16-.24,2.76-1.29,5.41-3.1,7.9-1.78,2.43-4.87,5.12-9.18,7.98-2.49,1.62-4.17,2.76-5,3.4-.3,.23-.63,.49-.97,.78h16.78l-1.01,11.59h-37.43Z"/><path class="f" d="M465.19,200.74c4.14,0,7.32,.47,9.54,1.41,2.22,.94,3.9,2.39,5.05,4.35,1.15,1.95,1.62,4.14,1.4,6.57-.23,2.58-1.2,5.04-2.91,7.39-1.72,2.35-4.69,4.93-8.92,7.74-2.51,1.64-4.2,2.78-5.05,3.44-.86,.66-1.87,1.51-3.04,2.57h18.37l-.84,9.59h-35.29c.71-3.48,2.22-6.76,4.54-9.83,2.32-3.07,6.48-6.7,12.49-10.87,3.67-2.56,6.05-4.5,7.12-5.83,1.08-1.33,1.67-2.59,1.78-3.78,.11-1.29-.27-2.39-1.14-3.31-.87-.91-2.03-1.37-3.48-1.37s-2.77,.47-3.81,1.42c-1.04,.94-1.82,2.61-2.36,5l-11.7-.95c.75-3.31,1.82-5.9,3.22-7.75,1.39-1.86,3.26-3.28,5.59-4.27,2.33-.99,5.48-1.49,9.44-1.49m0-2c-4.28,0-7.62,.54-10.23,1.65-2.65,1.12-4.8,2.78-6.4,4.91-1.56,2.08-2.76,4.94-3.57,8.51l-.51,2.25,2.3,.19,11.7,.95,1.73,.14,.38-1.7c.55-2.45,1.26-3.5,1.75-3.95,.67-.61,1.45-.89,2.46-.89,1.17,0,1.72,.43,2.03,.75,.47,.5,.66,1.04,.6,1.75-.07,.78-.52,1.69-1.34,2.7-.66,.81-2.36,2.41-6.71,5.45-6.24,4.34-10.47,8.04-12.94,11.31-2.49,3.3-4.14,6.88-4.91,10.64l-.49,2.4h39.57l.16-1.83,.84-9.59,.19-2.17h-14.87c.88-.61,2.05-1.39,3.5-2.33,4.49-2.98,7.57-5.67,9.45-8.23,1.93-2.63,3.03-5.46,3.29-8.4,.25-2.84-.31-5.45-1.67-7.76-1.36-2.32-3.38-4.06-5.99-5.17-2.49-1.06-5.87-1.57-10.32-1.57h0Z"/></g><g><path class="e" d="M502.94,244.8l.69-7.91h-21.43l.97-11.1,24.19-26.04h11.78l-2.28,26.02h5.31l-.97,11.13h-5.31l-.69,7.91h-12.26Zm1.67-19.04l.83-9.53-8.93,9.53h8.1Z"/><path class="f" d="M518.05,200.74l-2.28,26.02h5.31l-.8,9.13h-5.31l-.69,7.91h-10.25l.69-7.91h-21.43l.85-9.68,23.66-25.47h10.25m-11.36,12.7l-12.49,13.32h11.32l1.16-13.32m13.55-14.7h-13.31l-.59,.64-23.66,25.47-.47,.5-.06,.68-.85,9.68-.19,2.17h21.43l-.5,5.74-.19,2.17h14.27l.16-1.83,.53-6.09h5.31l.16-1.83,.8-9.13,.19-2.17h-5.31l2.09-23.85,.19-2.17h0Zm-21.42,26.02l5.38-5.74-.5,5.74h-4.88Z"/></g><g><g><path class="e" d="M278.9,244.45l2.26-25.88c-1.38,.89-2.72,1.65-4.01,2.27-1.83,.88-4.12,1.73-6.82,2.53l-1.41,.42,.99-11.33,.64-.2c3.79-1.19,6.81-2.62,8.97-4.27,2.14-1.63,3.91-3.68,5.25-6.08l.29-.51h10.95l-3.76,43.03h-13.35Z"/><path class="f" d="M294.92,202.41l-3.59,41.03h-11.34l2.35-26.89c-1.96,1.4-3.83,2.52-5.62,3.39-1.79,.86-4.01,1.69-6.67,2.48l.8-9.19c3.92-1.23,7.02-2.71,9.28-4.43s4.1-3.85,5.51-6.38h9.27m2.18-2h-12.63l-.57,1.02c-1.27,2.28-2.95,4.22-4.98,5.77-2.06,1.57-4.98,2.96-8.66,4.11l-1.28,.4-.12,1.33-.8,9.19-.26,2.93,2.82-.84c2.75-.82,5.09-1.69,6.97-2.59,.78-.38,1.59-.8,2.4-1.28l-2,22.81-.19,2.17h15.35l.16-1.83,3.59-41.03,.19-2.17h0Z"/></g><g><path class="e" d="M303.63,244.45l.27-1.22c1.47-6.64,3.38-12.29,5.69-16.81,2.06-4.02,5.05-8.34,8.91-12.86h-18.81l1-11.47h34.73l-.79,9.07-.32,.27c-2.99,2.5-5.58,5.25-7.69,8.16-2.57,3.55-4.73,7.55-6.42,11.91-1.34,3.39-2.4,7.46-3.17,12.1l-.14,.84h-13.27Z"/><path class="f" d="M334.33,203.1l-.66,7.57c-3.07,2.57-5.69,5.35-7.86,8.34-2.63,3.63-4.81,7.68-6.54,12.14-1.37,3.47-2.44,7.57-3.22,12.3h-11.17c1.46-6.59,3.33-12.11,5.61-16.57,2.28-4.46,5.69-9.23,10.22-14.31h-19.93l.83-9.47h32.72m2.18-2h-36.74l-.16,1.83-.83,9.47-.19,2.17h17.77c-3.25,3.98-5.82,7.8-7.66,11.4-2.35,4.59-4.29,10.33-5.78,17.05l-.54,2.43h15.36l.28-1.67c.75-4.57,1.8-8.57,3.11-11.89,1.66-4.29,3.78-8.22,6.3-11.7,2.06-2.84,4.59-5.53,7.52-7.98l.64-.53,.07-.83,.66-7.57,.19-2.17h0Z"/></g></g><g><polygon class="e" points="324.73 244.8 325.93 231.01 340.5 231.01 339.3 244.8 324.73 244.8"/><path class="f" d="M339.41,232.01l-1.03,11.78h-12.56l1.03-11.78h12.56m2.18-2h-16.58l-.16,1.83-1.03,11.78-.19,2.17h16.58l.16-1.83,1.03-11.78,.19-2.17h0Z"/></g></g></g></g></g></svg>