<?xml version="1.0" encoding="utf-8"?>
<!-- Generator: Adobe Illustrator 26.1.0, SVG Export Plug-In . SVG Version: 6.00 Build 0)  -->
<svg version="1.1" id="圖層_1" xmlns="http://www.w3.org/2000/svg" xmlns:xlink="http://www.w3.org/1999/xlink" x="0px" y="0px"
	 viewBox="0 0 505.4 288.5" style="enable-background:new 0 0 505.4 288.5;" xml:space="preserve">
<style type="text/css">
	.st0{fill:#FFFFFF;}
	.st1{fill:#F7B52C;}
	.st2{fill:#231815;}
</style>
<g id="a">
</g>
<g id="b">
	<g id="c">
		<g>
			<g>
				<path class="st0" d="M207.2,33.2l1.1,3.2l1.2-1.3v20.8h10.9v-9.7c1.5,0.9,3.3,2,4.2,2.8l1.7,1.5l0.8-1.1
					c0.7,1.6,1.2,3.6,1.4,4.9l0.2,1.7h1.8c3,0,6.2-0.2,8.8-1.7c3.1-1.8,3.6-5,3.6-8.2V41c0.6,2.4,1.1,4.7,1.2,6.6l0.2,2.6l2.4-0.9
					l7-2.4l1.6-0.5l-0.2-1.7c-0.6-4.3-2.3-9.9-4.3-14.6l0.4,0.1l1.9,0.3l0.4-1.9c0.1-0.4,0.2-0.9,0.3-1.4l1.6,0.9
					c4.4,2.4,7.4,4.2,8.7,5.2l0.4,0.3c-3,5.7-6.1,10.9-8.1,13.8l-1,1.5l1.4,1.2l5.8,4.9l1.8,1.5l1.2-2.1c1.1-1.9,2.2-3.8,3.3-5.8
					c0.7,1.2,1.4,4,1.7,5.7l0.4,3.2l2.7-1.8c1-0.7,3.3-1.4,12-3.4c1.1,2.3,3.4,3.6,7.6,3.6h4c5.5,0,7.5-3.2,8.4-8.3h9.2V43h4
					c-0.9,2.1-2,3.9-3.3,5.4l-1.4,1.7l1.8,1.3c0.9,0.7,3,2.8,3.6,3.8l1.4,2.2l1.7-1.9c0.9-1,1.8-2.1,2.5-3.4
					c0.1,0.7,0.2,1.3,0.2,1.8l0.1,1.8h1.9c0.5,0,0.9,0,1.4,0c1.1,0,2.4,0,3.7-0.5c1.5-0.4,2.7-1.1,3.6-2.4v3h9.9v-7
					c0.6,0,1.1-0.1,1.6-0.2h0.1c1.5-0.3,2.6-0.8,3.6-1.6c1.6-1.3,2.5-3.5,2.7-6.8l0.5,0.2c1.9,0.8,5.1,2.4,6.7,3.5l1.6,1.2l0.1-0.2
					l1.2,2.1c1.1,1.9,2.3,5.1,2.7,6.9l0.3,1.6h1.6c0.4,0,0.8,0,1.1,0c5.3,0,8.4-0.4,10.9-1.5c4.1-1.9,4.6-5.5,4.6-9.2V21.2l0.2,0.3
					c4,7.9,7.3,16.9,8.2,22.4l0.4,2.5l2.4-0.9l8-3.1l1.6-0.6l-0.3-1.7c-1.4-7-5.8-16.5-9.4-23.1l-0.8-1.5l-1.6,0.6l-7.1,2.6
					l-1.3,0.5V5.3h-12v39.2c-0.4,0-0.9,0-1.4,0c-2.1,0-4.3-0.1-6-0.2l-2.4-0.2l0.3-0.4c3.4-4.7,6.2-12.3,8.6-23.4l0.5-2.1l-2.1-0.4
					l-8.3-1.4l-2-0.3l-0.3,2c-0.8,5.7-3,14-6.4,18.8c-0.1-2.9-0.5-6.3-2.2-10.1c0.8-3.3,1.8-8.4,3.1-15.6l0.3-1.4l-1.2-0.7l-4.4-2.5
					L349,6.4l-0.8,0.2l-0.6,0.2H319v2.1h-13.4v34.7l-1.1-0.3c-1.2-0.3-3-0.9-4.2-1.5h4V31.6h-8.7v-1.7h6.1V6.7h-31.9v1.8
					c-2.3-1.3-4.8-2.6-5.7-3.1l-1.5-0.8l-1,1.4l-3.8,5.3l-1.3,1.8l1.9,1.1c0.4,0.3,0.9,0.6,1.4,0.9c2.5,1.5,5.6,3.4,7.1,4.6l1.7,1.3
					l1.2-1.8l0.1-0.2v4.6c-2.3-1.4-6.1-3.3-8.9-4.5l-1.5-0.7l-1,1.4l-3.7,5.4l-0.7,1c0.6-2.8,1.2-6.5,1.7-10.1l0.2-1.9l-1.9-0.3
					L249,13l-0.4-0.1l-0.4,0.1l-0.9,0.2h-12.4c0.4-1.3,0.9-2.7,1.3-4.2l0.6-2l-2.1-0.5l-7.1-1.6l-1.9-0.4l-0.5,1.9
					c-0.1,0.4-0.2,0.8-0.3,1.2L223.5,7l-6.8-2.1l-1.9-0.6l-0.6,1.8c-2.3,6.5-6.2,13.2-10.3,17.3l-1.2,1.2l0.9,1.4
					C204.7,27.6,206.6,31.5,207.2,33.2L207.2,33.2z M270.4,29.9v3.4l-1.9-1.8l-0.4-0.4l1.7-2.6v1.3L270.4,29.9L270.4,29.9z
					 M281.6,31.5v-1.6h3.1v1.6H281.6z M281.6,42.7v-1.1h3.1v0.5L281.6,42.7L281.6,42.7z M295.6,45.6v-4h0.3v0.8
					C295.9,43,295.8,44.6,295.6,45.6L295.6,45.6L295.6,45.6z M223.1,30.7c-0.7,3-1.6,5.8-2.7,8V28.2c0.9,0.8,1.9,1.6,2.4,2.2
					C222.8,30.4,223.1,30.7,223.1,30.7z M231.7,23.9v4.8l-4-0.8c0.9-1.2,1.7-2.6,2.5-4C230.2,23.9,231.7,23.9,231.7,23.9z
					 M229.8,44.7c0.6-1.3,1.3-2.7,1.8-4.2v4.2C231.1,44.8,230.5,44.8,229.8,44.7z M242.9,28.5v-4.6h0.9c-0.1,1.1-0.3,2.1-0.4,2.9
					l-0.2,1.7H242.9L242.9,28.5z"/>
				<path class="st0" d="M408.4,22.8v4.3c0,6.3-0.6,14.4-5.4,21.8l-1.1,1.7l1.8,1.1c1.5,1,3.7,2.5,4.8,3.7l1.7,1.8l1.4-2
					c0.4-0.6,0.8-1.3,1.2-1.9c0,0.1,0,0.3,0,0.4l0.1,1.9h1.9c0.5,0,0.9,0,1.4,0c1.8,0,3.1-0.1,4.2-0.3c2.2-0.5,3.6-1.4,4.9-3.2
					c0.1-0.2,0.3-0.5,0.4-0.7c0.8,1,1.6,2.3,2,3l1,2.5l2.1-1.7c0.9-0.7,3.1-1.7,11.5-5l0.2-0.1c1.1,1.7,2.4,3.2,3.9,4.5l1.9,1.6
					l1.2-2.2c1-1.8,3-4.3,4.4-5.4l2-1.6l-2.1-1.5c-2-1.5-3.6-3.8-4.9-7c1.5-1.3,3-2.7,4.4-4.1c1.4,1.5,3.5,4.3,4.4,5.7l1.2,1.9
					l1.6-1.3V56H472V28.5c0.2-0.3,0.4-0.5,0.6-0.8v4.4h13.6v12.4c-2.4,0-4.3-0.1-5.7-0.1l-3.3-0.2l1.4,3c0.9,2,1.8,5,2,6.8l0.2,1.8
					h1.8c4.4,0,8-0.1,10.8-1.4c3.8-1.7,4.3-5.1,4.3-8.6V32.1h6.5V21.2H477l1.2-2l-2.2-0.9l-0.2-0.1H503V7.3h-28.3v0.5l-0.5-0.2
					l-7-2.9l-1.5-0.6l-0.9,1.4c-2.2,3.3-6.8,7.6-10.7,10l-0.1,0.1v-5.3h-14.2c0.2-0.6,0.4-1.3,0.5-1.9l0.5-2L438.7,6l-7-1.3l-2-0.4
					l-0.4,2c-0.4,2.1-1,4.1-1.7,5.9h-4.8c-0.5-2-1.5-4.6-2.5-6.5L419.5,4l-1.6,0.5l-6.2,1.9l-2.2,0.7l0.9,2.1
					c0.4,0.9,0.8,1.9,1.1,2.8h-7.4v10.7L408.4,22.8L408.4,22.8z M454,18.9c1.1,1.4,2.6,3.7,3.4,5.2l1.1,2l1.8-1.3h0.1
					c-2.1,2.2-4.4,4.3-6.7,5.9l-4.1-3.7c0.9-0.3,1.8-0.7,2.6-1l2.8-1.2l-2.3-2.1l-1.9-1.7h3L454,18.9L454,18.9z M437.5,40.8v-4
					c0.3,1.2,0.6,2.4,0.9,3.6L437.5,40.8z M474.7,16.2v1.6l-4.4-1.7c1.6-1.6,3.1-3.3,4.4-5C474.7,11.2,474.7,16.2,474.7,16.2z"/>
				<path class="st0" d="M195,117.2c5.5,0,8-3.1,9.2-7.7l0.7,1.2c1,1.6,2.1,4.5,2.6,6.4l0.4,1.7l1.7-0.2
					c17.6-1.5,36.6-5.5,44.8-23.3l0.5-1.1v0.5h10.4c-0.6,6.3-2.3,10.7-10.5,13.7l-3.2,1.2l2.6,2.2c1.4,1.2,3.2,3.6,3.9,5.2l0.8,1.8
					l1.8-0.7c12.9-5.2,15.5-14.3,16.4-23.4h2.6v11.9c0,9.2,3.8,11,9.9,11h5.4c5.1,0,7.6-2.2,8.8-6.5c1.3,1.7,3.2,4.6,3.9,6.1
					l0.7,1.6l1.7-0.5c7.6-2.1,14-5.1,19.3-9c5.2,3.9,11.3,6.7,18.5,8.6l1.5,0.4l0.8-1.4c1.1-2,3.1-4.9,4.5-6.3l2.7-2.6l-3.7-0.8
					c-6-1.3-11.2-3.4-15.7-6.3c3.3-4.2,6-9,8.1-14.6h6.8l-0.7,0.6l1,1.5c1.1,1.7,2.9,5.6,3.5,7.2l1.1,2.9l2.2-2.1
					c0.1-0.1,0.2-0.2,0.3-0.3v22.2h10.9V81.6c1.5-2.7,2.8-5.1,3.8-7.4v31.4c0,10.1,3.9,12,10.7,12h7.7c9.1,0,10.4-7,11-15.4l0.1-1.8
					l-1.7-0.4c-1.6-0.3-4.2-1.6-5.6-2.6l-3-2.3l-0.2,3.8c-0.1,2.6-0.4,7.4-1,8.2c0,0-0.1,0-0.2,0h-6.2c-0.2,0-0.4,0-0.5,0
					c0-0.3,0-0.8,0-1.5V91.3h17.2v-2.5l0.5,0.2c1.9,1,4.9,3.1,6.2,4.1l0.3,0.2v8.1h12.9v4.5h-18.8V117h49.4v-5.2l0.9,0.7l6.1,4.9
					l1.8,1.4l1.2-1.9c2.6-4.3,5.2-8.9,7.6-13.5v15H482v-2h9.4v1.8h10.9V93.7h-10.1v-1.2h12.2v-11h-12.2v-2.2
					c3.2-0.7,6.3-1.7,9.2-2.8l2.8-1.1l-2.1-2.2l-5.5-5.7l-1-1l-1.3,0.5c-4.9,2.1-13.2,3.8-22.2,4.7l-1.6,0.2c-2-1.1-4.7-2.5-6.7-3.5
					l-1-0.5l-1.5-0.8l-1,1.3l-4.1,5.2l-1.4,1.8l2,1.2c0.8,0.4,1.6,0.9,2.5,1.5c2.3,1.4,5,2.9,6.3,3.9l1.6,1.2l1.2-1.6l3.1-4.2
					c0.3,1,0.6,2.1,0.7,2.9l0.2,1.2h-3.9v4.2c-2.5-1.4-6.2-3.1-8.4-4.1l-1.5-0.7l-1,1.3l-3.9,5.4l-1.4,1.9l2.1,1.1
					c4,2.1,7,3.8,8.6,4.8c-3.1,5.9-6.7,11.3-8.8,14.4l-0.5,0.7V106h-18.9v-4.5h14.3v-11h-14.3v-3.6h16.3V75.7h-16.3V67h-11.6v2.6
					l-1.7-0.4l-7.5-1.7l-1.9-0.4l-0.5,1.9c-1.7,6.7-4.8,13.1-8.2,16.7v-5.5h-17.2V68h-11v1.8l-0.4-0.1l-6.7-2.3l-1.8-0.6l-0.7,1.8
					c-2.5,6.2-6.6,12.5-11,16.6v-9.9h-17c-0.6-2.4-2.1-5.6-3.2-7.8l-0.8-1.4l-1.6,0.5l-7.8,2.3l-2.3,0.7l1,2.1
					c0.5,1.1,1,2.4,1.5,3.6h-19.8v11.1h8.5c2.3,5.8,5.1,10.7,8.3,14.8c-4.4,2.8-9.8,5-16.4,6.4h-0.1c0.2-1.2,0.3-2.5,0.4-3.8
					l0.1-1.7l-1.6-0.4c-1.9-0.5-4.7-1.7-5.9-2.6l-3.1-2.5l-0.1,4c-0.1,1.8-0.2,5-0.5,6.2h-2.6c0-0.1,0-0.1,0-0.2V94.7h12.7v-11H255
					v9.8l-1.3-0.8l-5-2.8l-0.7-0.4l-0.8,0.2l-1,0.3h-2.3l2-2.3l-3.3-0.8l-2.6-0.6c3.5-2.8,6.3-6.1,8.4-9.8l1-1.7l-1.7-1l-4.8-2.8
					l-0.7-0.4l-0.8,0.2l-0.9,0.2h-4.1l1.4-1.4l-3.4-0.8l-7.8-1.8l-1.1-0.3l-0.8,0.9c-3.6,3.9-9.6,7.5-16.7,9.9l-3.8,1.3l3.3,2.3
					c1.3,0.9,3.4,3.1,4.3,4.6l0.7,1.1c-1.7,0.3-3.4,0.6-5.2,0.9l-3.5,0.5v-9.8h-12.6V67.8h-11.6v30.4l-1.5,0.5V67.8h-11.6v10.6
					h-10.9v4.9H141v-3.2c3.6-0.8,8.2-1.9,12.4-3.6l2.9-1.2l-2.2-2.2l-5.5-5.3l-1-1l-1.3,0.6c-3.3,1.6-8.9,3.3-14.4,4.4H125
					c-0.5-1.3-1.1-2.8-1.6-4.1l-0.6-1.6l-1.7,0.4l-7.3,1.7l-2.2,0.5l0.8,2.1c0.1,0.3,0.2,0.6,0.3,0.9h-7.2v9.9h2.5
					c0.1,0.3,0.2,0.7,0.3,1.1H105v-3.9h-1.4v-8.3H86.2V67H74.5v3.6H56.8v8.3h-1.4v14.9H62c0.4,1.2,0.9,2.7,1.1,3.6
					c-1.3,0.4-2.4,0.7-3.5,0.9l-2.5,0.3L58,101c0.6,1.5,1.4,4.4,1.6,5.4l0.2,1.1c-1.2,0.6-2.5,1.2-3.7,1.6l-0.5,0.2l2.1-1.8
					l-2.8-1.4c-2-1-4-2.3-5.9-3.8h5.5V91.9h-1.2c0.1,0,0.2-0.1,0.2-0.1l1.5-0.6l0-1.5c-0.1-0.9-0.2-2.4-0.3-3.7
					c-0.1-0.8-0.1-1.6-0.2-2.2l0,0h0.2V69.1H20.5v-2H9.8v9.1H5.4v10.7h4.4v4.3c-1.4,0.4-2.5,0.7-3.6,0.9l-2,0.5l0.4,2l1.6,6.9
					l0.5,2.2l2.1-0.7l0.9-0.3v4.7c-0.7,0-1.6,0-2.5-0.1L4,107l1.3,3c0.8,1.7,1.5,4.5,1.6,6.1l0.2,1.8h1.8c0.2,0,0.4,0,0.7,0
					c3.6,0,5.9-0.5,7.7-1.7c1.6-1.1,2.4-2.5,2.8-4.1c0.9,1,1.7,2.1,2.2,2.9l1,1.7l1.7-1c2.1-1.2,4.1-2.7,5.9-4.5v7.1h11.2v-7.9
					c1.9,1.9,4,3.6,6,4.9l1.7,1.1l1-1.8c0.6-1,1.6-2.3,2.7-3.4l1.9,1.4c1.5,1.1,3.9,3.4,5.1,4.6l1,1.1l1.4-0.7
					c2.2-1.1,4.6-2.6,6.7-4.1c0.4,1.1,0.8,2.2,0.9,3.1l0.3,1.6h1.6c4,0,7-0.1,9.7-1.2c3.2-1.3,4.1-3.7,4.3-6.2
					c3.4,2.1,7.3,4.7,9.2,6.4l1.2,1.1l1.3-0.9l6-4l1.8-1.2c1.1,0.7,2.2,1.6,2.9,2.1l1.8,1.5l1.2-2c0.6-0.9,1.2-1.9,1.8-3.1v7.2h11.1
					v-8c0.1,0.2,0.2,0.4,0.3,0.6l0.8,1.8l-0.3,0.5l2,1c1.3,0.6,4,2.7,5,3.8l1.8,1.9l1.4-2.2c2.2-3.3,3.7-8,4.5-14V118h11.1V94.1h4.2
					v-4.4h10.8v13c-4.3,1.4-8.4,2.7-11.3,3.5l-2.2,0.6l0.9,2.1l3.2,7.5l0.8,1.8l1.8-0.7c6.2-2.4,13.6-5.3,20.3-8.1
					c1.1,6.4,4.6,7.8,9.7,7.8L195,117.2L195,117.2z M471.3,95.7v2.4l-4.2-3.8l1.4-2.1v0.2h12.8v1.2h-9.9
					C471.3,93.7,471.3,95.7,471.3,95.7z M481.2,81.3v0.2h-2C479.9,81.4,480.5,81.4,481.2,81.3z M481.8,105.8v-1.5h9.4v1.5H481.8z
					 M324.9,86.4h8.8c-1.1,2.6-2.5,4.9-4.1,7.1C327.8,91.3,326.2,88.9,324.9,86.4L324.9,86.4z M414.6,90.4c0.7-1.1,1.4-2.2,2.2-3.6
					h6.4v3.6H414.6z M423.1,71v4.7h-1.5c0.5-1.4,0.9-2.7,1.2-3.9L423.1,71L423.1,71z M233.8,100.4h2c-0.4,0.2-0.8,0.5-1.2,0.7
					C234.4,100.8,234.1,100.6,233.8,100.4z M227.9,81.3h0.2H227.9L227.9,81.3L227.9,81.3z M216.6,85.2c0.1,0.1,0.3,0.3,0.5,0.4
					c-0.9,0.3-1.9,0.5-2.9,0.7C215,86,215.8,85.6,216.6,85.2L216.6,85.2z M222.7,105.1c0.1,0.1,0.3,0.2,0.4,0.3
					c-0.8,0.2-1.7,0.4-2.6,0.6C221.3,105.7,222.1,105.4,222.7,105.1L222.7,105.1z M205.8,90.9c1.1,1.3,2.4,4,3,5.7l0.6,1.6l1.3-0.2
					l-1.7,0.5l2.9,2.4c1.2,1,3.1,3.4,3.9,5l0.4,0.8c-2.9,0.4-6.1,0.7-9.6,0.9l-1.9,0.1c0.4-2.2,0.6-4.6,0.8-7l0.1-1.7l-1.7-0.4
					c-1.6-0.4-4.6-1.7-6.1-2.9l-3.1-2.5l-0.1,4c-0.1,2.9-0.3,7.5-0.7,9H191c0-0.4,0-1,0-1.2V89.6h12.6v-1.5L205.8,90.9z M107,101.8
					h0.5c-1,2.5-2.2,4.9-3.4,6.6l-0.7,1c-1-0.7-2.1-1.4-3.3-2.2l3.5-2.3l1.8-1.2l-1.3-1.7c-1.8-2.4-5.1-5.4-8-8.1h8.9v7.9L107,101.8
					L107,101.8z M118.4,81.7h0.4c-0.1,0.2-0.2,0.5-0.2,0.7C118.6,82.2,118.5,82,118.4,81.7z M130.1,81.7v1.1h-0.7
					c0.2-0.4,0.3-0.7,0.5-1.1H130.1z M93.8,88.9v0.5l-0.6-0.5H93.8z M30.9,91.8V92h-0.4C30.7,91.9,30.8,91.8,30.9,91.8z M20.5,105.8
					v-3.4H25C23.6,103.7,22,104.9,20.5,105.8z"/>
				<polygon class="st0" points="261.5,70.3 259.5,70.3 259.5,72.4 259.5,79.3 259.5,81.4 261.5,81.4 297.2,81.4 299.2,81.4 
					299.2,79.3 299.2,72.4 299.2,70.3 297.2,70.3 				"/>
				<polygon class="st0" points="210.8,179.5 212.8,179.5 219.1,179.5 221.1,179.5 221.1,177.5 221.1,148.7 221.1,146.7 
					219.1,146.7 211.6,146.7 210.2,146.7 209.7,148.1 205.5,159.9 201.2,148 200.7,146.7 199.3,146.7 191.8,146.7 189.8,146.7 
					189.8,148.7 189.8,177.5 189.8,179.5 191.8,179.5 198,179.5 200,179.5 200,177.5 200,171.5 201.6,175.8 202.1,177.1 
					203.5,177.1 207.3,177.1 208.7,177.1 209.2,175.8 210.8,171.4 210.8,177.5 				"/>
				<path class="st0" d="M263.7,146.7h-12l-0.5,1.3l-2.1,5.1c-0.1,0.1-0.1,0.3-0.2,0.4c-0.1-0.2-0.1-0.3-0.2-0.5l-2.3-5.1l-0.5-1.2
					h-22.1v32.8h21.4l0.5-1.2l2.5-5.6c0.1-0.2,0.2-0.4,0.3-0.6c0.1,0.2,0.2,0.4,0.3,0.7l2.7,5.6l0.6,1.1h12.4l-1.6-3l-7.4-13.6
					l6.9-13.3L263.7,146.7L263.7,146.7z M235.1,149.7l6.9,13l-7.4,13.8V149L235.1,149.7L235.1,149.7z"/>
				<polygon class="st0" points="276.6,146.7 276.6,148.7 276.6,177.5 276.6,179.5 278.6,179.5 285.6,179.5 287.6,179.5 
					287.6,177.5 287.6,148.7 287.6,146.7 285.6,146.7 278.6,146.7 				"/>
				<path class="st0" d="M306.8,179.5h10.3v-32.8h-10.6v11.5l0,0l-5.4-10.4l-0.6-1.1h-10.3v32.8h10.6v-11.7l5.4,10.6L306.8,179.5
					L306.8,179.5z"/>
				<polygon class="st0" points="345.1,179.5 345.1,177.5 345.1,156.5 350.9,156.5 352.9,156.5 352.9,154.4 352.9,148.7 
					352.9,146.7 350.9,146.7 328.4,146.7 326.4,146.7 326.4,148.7 326.4,154.4 326.4,156.5 328.4,156.5 334.1,156.5 334.1,177.5 
					334.1,179.5 336.1,179.5 343.1,179.5 				"/>
				<polygon class="st0" points="380.6,179.5 380.6,177.5 380.6,148.7 380.6,146.7 378.5,146.7 371.7,146.7 369.7,146.7 
					369.7,148.7 369.7,157.6 364.3,157.6 364.3,148.7 364.3,146.7 362.2,146.7 355.3,146.7 353.3,146.7 353.3,148.7 353.3,177.5 
					353.3,179.5 355.3,179.5 362.2,179.5 364.3,179.5 364.3,177.5 364.3,167.7 369.7,167.7 369.7,177.5 369.7,179.5 371.7,179.5 
					378.5,179.5 				"/>
				<polygon class="st0" points="403.5,156.5 405.5,156.5 405.5,154.4 405.5,148.7 405.5,146.7 403.5,146.7 385.2,146.7 
					383.2,146.7 383.2,148.7 383.2,177.5 383.2,179.5 385.2,179.5 403.9,179.5 405.9,179.5 405.9,177.5 405.9,171.7 405.9,169.7 
					403.9,169.7 394.2,169.7 394.2,167.6 401.8,167.6 403.8,167.6 403.8,165.6 403.8,159.8 403.8,157.8 401.8,157.8 394.2,157.8 
					394.2,156.5 				"/>
				<path class="st0" d="M442.2,179.5h11v-32.8h-11v5l-1.2-1.2c-1.6-1.6-5-4.4-10.2-4.4c-4.2,0-8.2,1.6-11,4.6
					c-3.1,3.1-4.7,7.5-4.7,12.6c0,11.6,7.8,16.8,15.5,16.8c4.4,0,8.1-1.7,10.9-4.9l0.7-0.8L442.2,179.5L442.2,179.5z M441.6,172.5
					l-3.6-4.3l-1.5-1.8l-1.6,1.7c-0.8,0.9-2.2,2-4,2c-4.2,0-4.7-4.9-4.7-7c0-4.1,1.9-6.9,4.8-6.9c1.2,0,2.3,0.5,3.6,1.7l1.6,1.4
					l1.4-1.6l3.6-4.4l1.1-1.3v21.3L441.6,172.5L441.6,172.5z"/>
				<path class="st0" d="M484.6,179.5h10.9v-11.7l8.5-18.2l1.3-2.9h-11.8L493,148l-2.4,6.4l-0.6,1.5c-0.2-0.5-0.4-1-0.5-1.4
					l-2.4-6.4l-0.5-1.3h-33.2v9.8h7.8v23h11v-23h7.1l5.3,11.3L484.6,179.5L484.6,179.5z"/>
			</g>
			<g>
				<g>
					<g>
						<path d="M225.6,51l-0.1-0.9c-0.3-1.9-1.3-4.9-2.3-6.8c-0.2,0.3-0.3,0.5-0.5,0.8l-0.6,0.9l-0.9-0.7c-1.2-1-4.2-2.9-5.9-3.7
							v10.3h-8.9V28.4c-0.2,0.2-1.8,2-1.8,2l-0.6-1.6c-0.6-1.8-2.6-5.7-3.7-7.4l-0.5-0.7l0.6-0.6c4.2-4.2,8.2-11,10.6-17.7l0.3-0.9
							l8.8,2.8l-0.4,1c-1.2,3.3-2.8,6.7-4.5,9.9v2.3c2.8-3.8,5.3-9.2,6.7-15l0.2-1l9.1,2.1l-0.3,1c-0.6,2-1.2,3.8-1.8,5.5h14
							l1.2-0.2l6.3,1.1l-0.1,1c-0.6,4.6-1.5,9.5-2.2,12.4l-0.2,0.9l-3.2-0.6c2.3,4.9,4.3,11.3,5,16l0.1,0.8l-9,3.1l-0.1-1.3
							c-0.3-3.5-1.6-8.6-3.3-13V42c0,3.3-0.5,5.9-3,7.3c-2.4,1.4-5.4,1.6-8.3,1.6L225.6,51L225.6,51z M224.1,41.7c1.8,0,3.7,0,4.5,0
							V30.2C227.5,34.4,225.9,38.5,224.1,41.7z M215.4,38.4c2-2.8,3.8-7.2,4.8-12.1l-0.7-0.7c-0.9-0.9-2.7-2.4-4.2-3.5L215.4,38.4
							L215.4,38.4z M228.6,25.9v-7.1h-3.2c-1.1,2.1-2.4,4-3.6,5.7L228.6,25.9z M237.8,25.9l4.8-1.6l-2.4-0.4l0.1-1
							c0.1-1,0.3-2.5,0.5-4h-3.1L237.8,25.9L237.8,25.9z"/>
						<path class="st1" d="M223.1,2.7l7.1,1.6c-0.6,2.3-1.4,4.6-2.3,6.8h15.5l1.1-0.2l5.1,0.9c-0.6,4.3-1.4,9.1-2.1,12.3l-6.2-1.1
							c0.2-1.4,0.4-3.2,0.6-5.2h-5.2V42c0,3.3-0.5,5.3-2.5,6.5s-4.5,1.4-7.8,1.4c-0.3-2.1-1.4-5.3-2.4-7.3c1.9,0,4,0,4.7,0
							c0.6,0,0.9-0.2,0.9-0.8v-24h-4.8c-1.4,2.7-3,5.2-4.6,7.1c-1.3-1.3-4.2-3.7-5.8-4.8C218.3,16.1,221.4,9.4,223.1,2.7 M212.1,2.8
							l6.8,2.1c-1.2,3.3-2.8,6.7-4.5,10v34.9h-6.9V25.6c-0.8,1-1.6,1.9-2.4,2.8c-0.6-1.8-2.6-5.8-3.8-7.6
							C205.6,16.5,209.7,9.7,212.1,2.8 M244.1,24.8c2.4,5.1,4.4,11.6,5,16l-7,2.4c-0.4-4.4-2.3-11.2-4.5-16.3L244.1,24.8
							 M221.4,25.4l7,1.5c-1.4,6.2-3.8,12.6-6.5,16.6c-1.4-1.2-4.4-3-6.1-3.9C218.4,36.3,220.4,30.7,221.4,25.4 M210.8,0.3l-0.6,1.9
							c-2.3,6.5-6.2,13.2-10.3,17.3l-1.2,1.2l0.9,1.4c1.1,1.6,2.9,5.5,3.6,7.2l1.1,3.2l1.2-1.3V52h10.9v-9.6c1.5,0.9,3.3,2,4.2,2.8
							l1.7,1.5l0.8-1.1c0.7,1.6,1.2,3.6,1.4,4.9l0.2,1.7h1.8c3,0,6.2-0.2,8.8-1.7c3.1-1.8,3.6-5,3.6-8.2v-5.1
							c0.6,2.4,1.1,4.7,1.2,6.6l0.2,2.6l2.4-0.9l7-2.4l1.6-0.5l-0.2-1.7c-0.6-4.3-2.3-9.9-4.3-14.6l0.4,0.1l1.9,0.3l0.4-1.9
							c0.6-2.8,1.6-7.8,2.2-12.4l0.2-1.9L250,9.9L244.9,9l-0.4-0.1L244.2,9l-0.9,0.2h-12.4c0.4-1.3,0.9-2.7,1.3-4.2l0.6-2l-2.1-0.5
							l-7.1-1.6l-1.9-0.4l-0.5,1.9c-0.1,0.4-0.2,0.8-0.3,1.2L219.5,3l-6.8-2.1L210.8,0.3L210.8,0.3L210.8,0.3z M238.9,19.9h0.9
							c-0.1,1.1-0.3,2.1-0.4,2.9l-0.2,1.7l-0.3,0.1V19.9L238.9,19.9L238.9,19.9z M226.1,19.9h1.6v4.8l-4-0.8
							C224.5,22.6,225.3,21.3,226.1,19.9L226.1,19.9z M216.4,34.7V24.2c0.9,0.8,1.9,1.6,2.4,2.2l0.3,0.3
							C218.4,29.6,217.5,32.4,216.4,34.7L216.4,34.7z M225.8,40.7c0.6-1.3,1.3-2.7,1.8-4.2v4.2C227.1,40.7,226.5,40.7,225.8,40.7
							L225.8,40.7z"/>
					</g>
					<g>
						<path d="M267.6,50.1c-0.3-1.9-1.1-4.9-1.9-6.2l-0.7-1.1l1.2-0.4c0.7-0.2,1.1-0.5,1.1-1.7v-3c-2.1,4.2-4.4,8.4-6.6,12.2l-0.6,1
							l-7.4-6.2l0.5-0.8c2.1-3.2,5.8-9.1,9-15.4l0.6-1.2l4.6,4.3v-6.8h-0.6v-13l-2.6,3.7l-0.8-0.7c-1.5-1.2-4.7-3.1-7.2-4.6
							l-2.3-1.4l5-6.9l0.8,0.4c1.1,0.6,4.6,2.4,7.2,3.9V3.7h29.9v21.1h-6.1v3.7h8.7v8H293l1.5,1.1c1.2,0.9,3.9,2,5.7,2.4l0.9,0.2
							l-0.1,0.9c-0.7,7-2.7,9.6-7.6,9.6h-4c-4.2,0-6.2-1.3-7-3.8l0,0c-9.6,2.2-11.9,3-13.1,3.8l-1.3,0.9L267.6,50.1L267.6,50.1z
							 M292.5,42.6c0.2-0.7,0.3-3.1,0.4-4.2l0.1-1.9h-2.4v5.1c0,0.2,0,0.6,0,0.9L292.5,42.6L292.5,42.6z M276.6,39.9l5.1-1v-2.4
							h-5.1V39.9L276.6,39.9z M281.7,28.5v-3.7h-5.1v3.7H281.7z M260.7,28.5c-1.4-1.1-4.4-2.8-8.9-5.3l-1-0.5l4.8-7l0.8,0.4
							c2.9,1.4,7.1,3.5,9.3,4.8l0.9,0.5l-5,7.8L260.7,28.5L260.7,28.5z"/>
						<path class="st1" d="M259.1,3.2c2.5,1.3,6.4,3.4,8.7,4.7V4.7h27.9v19.1h-27.9V8.6L264,14c-1.9-1.5-6-3.9-8.7-5.6L259.1,3.2
							 M275,11.8h13V10h-13V11.8 M275,18.5h13v-1.7h-13V18.5 M256.1,16.9c2.6,1.2,7,3.4,9.2,4.7l-3.9,6c-1.9-1.4-6.2-3.8-9-5.4
							L256.1,16.9 M289.5,24.8v4.7h8.7v6h-8.7v6.1c0,1.7,0.1,1.9,1,1.9h2c0.9,0,1.1-0.8,1.2-5.1c1.4,1,4.2,2.1,6.1,2.6
							c-0.6,6.7-2.4,8.7-6.6,8.7h-4c-5.4,0-6.7-2-6.7-8.1V24.8H289.5 M275.5,25v4.4h6v6h-6V41l5.5-1c0.1,1.8,0.6,4.5,1,6
							c-10,2.3-12.1,3-13.4,3.9c-0.2-1.8-1.1-5.1-2-6.6c1-0.3,1.8-0.9,1.8-2.7V25H275.5 M263.1,28.9l5.1,4.8
							c-2.5,5.2-5.4,10.6-8.3,15.6l-5.8-4.9C256.6,40.8,260.2,34.8,263.1,28.9 M258.5,0.6l-1,1.4l-3.8,5.3L252.4,9l1.9,1.1
							c0.4,0.3,0.9,0.6,1.4,0.9c2.5,1.5,5.6,3.4,7.1,4.6l1.7,1.3l1.2-1.8l0.1-0.2v4.6c-2.3-1.4-6.1-3.3-8.9-4.6l-1.6-0.7l-1,1.4
							l-3.7,5.4l-1.3,1.8l1.9,1.1c4.4,2.4,7.4,4.2,8.7,5.2l0.4,0.3c-3,5.7-6.1,10.9-8.1,13.8l-1,1.5l1.4,1.2l5.8,4.9l1.8,1.5
							l1.2-2.1c1.1-1.9,2.2-3.8,3.3-5.8c0.7,1.2,1.4,4,1.7,5.7l0.4,3.2l2.7-1.8c1-0.7,3.3-1.4,12-3.4c1.1,2.3,3.4,3.6,7.6,3.6h4
							c6.3,0,8-4.2,8.6-10.5l0.2-1.7l-1.7-0.4c-1.2-0.3-3-0.9-4.2-1.5h4V27.5h-8.7v-1.7h6.1V2.7h-31.9v1.8c-2.3-1.3-4.8-2.6-5.7-3
							L258.5,0.6L258.5,0.6L258.5,0.6z M264.1,27.1l1.7-2.6v1.3h0.6v3.4l-1.9-1.8L264.1,27.1L264.1,27.1L264.1,27.1z M277.5,25.8
							h3.1v1.6h-3.1V25.8L277.5,25.8z M277.5,37.5h3.1V38l-3.1,0.6V37.5L277.5,37.5L277.5,37.5z M291.5,37.6h0.3v0.8
							c0,0.6-0.1,2.2-0.2,3.2h-0.1L291.5,37.6L291.5,37.6L291.5,37.6z"/>
					</g>
					<g>
						<path d="M316.4,50.6c-0.7-1.1-2.9-3.3-3.9-4.1l-0.9-0.7l0.7-0.8c1.7-2,3-4.3,4-7.1h-6.5v4.6h-7.2V5.8H316V3.7h27.8l1.1-0.3
							l5.4,3L350,7.2c-1.4,7.5-2.5,12.7-3.2,15.9c2,4.3,2.3,8.2,2.3,11.4c0,4.1-0.8,6.6-2.5,8c-0.8,0.7-1.8,1.1-3.1,1.4
							C342.8,44,342,44,341,44v7h-7.9v-9.4c-0.2,3-0.5,4.7-1,5.6c-1.1,2-2.1,2.8-3.9,3.3c-0.9,0.3-1.9,0.4-3.4,0.4
							c-0.4,0-0.9,0-1.3,0h-0.9V50c-0.1-1.2-0.4-2.9-0.9-4.4c-1,2-2.2,3.8-3.6,5.3l-0.9,1L316.4,50.6L316.4,50.6z M322.9,42.5
							c0.6,0,1.2,0,1.7,0h0.1c0,0,0.1-0.1,0.3-0.5c0.4-0.9,0.6-4.8,0.7-7.1H325C324.5,37.8,323.7,40.3,322.9,42.5z M316.9,36.1
							c0.1-0.4,0.2-0.7,0.3-1.1h-0.3V36.1z M341,35.8c0.1-0.2,0.2-0.9,0.2-2.4c0-1.2,0-2.6-0.2-4V35.8L341,35.8z M318.3,26.9
							c0.1-1.2,0.1-2.4,0.1-3.7h-1.5v3.7H318.3z M318.4,15.2v-3.5h-1.5v3.5H318.4z M341,12.7c0-0.4,0.1-0.9,0.1-1.2H341V12.7z"/>
						<path class="st1" d="M344.6,4.5L349,7c-1,5.1-2.3,12.1-3.3,16.2c2,4.2,2.3,8,2.3,11.3c0,3.8-0.6,6-2.1,7.2
							c-0.7,0.6-1.6,1-2.6,1.2c-0.6,0.1-1.4,0.2-2.4,0.2c0-1.5-0.2-3.8-1-5.5V50H334V4.7h9.7L344.6,4.5 M342.3,10.5H340V37h0.9
							c0.3,0,0.6-0.1,0.9-0.5c0.4-0.5,0.5-1.5,0.5-3.2c0-2.5-0.1-6-1.8-9.7C341.1,20.2,341.9,14.5,342.3,10.5 M332.7,4.7
							c0,0,0,2.2,0,3c-0.2,27.1-0.2,36.6-1.5,39c-1,1.8-1.8,2.4-3.2,2.8c-1,0.3-2,0.4-3.2,0.4c-0.4,0-0.9,0-1.3,0
							c-0.1-1.8-0.7-4.5-1.6-6.3c1,0.1,1.9,0.1,2.7,0.1h0.1c0.5,0,0.8-0.3,1.2-1.1c0.4-0.8,0.6-3.2,0.8-8.5h-2.5
							c-1,5.8-3.1,11.8-7,16.1c-0.8-1.2-3-3.5-4.1-4.3c2.9-3.4,4.5-7.5,5.4-11.8H317v-6h2.3c0.1-2,0.2-3.9,0.2-5.7H317v-6h2.4v-5.5
							H317v-6L332.7,4.7 M325.2,16.2h1.8v-5.5h-1.8V16.2 M326.9,22.2h-1.7c0,1.7-0.1,3.7-0.2,5.7h1.9L326.9,22.2 M315.9,6.8V37h-7.1
							v4.6h-5.2V6.8H315.9 M308.9,30.4h1.7V13.3h-1.7V30.4 M345,2.3l-0.8,0.2l-0.6,0.2H315v2.1h-13.4v38.8h9.3V39h4
							c-0.9,2.1-2,3.9-3.3,5.4l-1.4,1.7l1.8,1.3c0.9,0.7,3,2.8,3.6,3.8l1.4,2.2l1.7-1.9c0.9-1,1.8-2.1,2.5-3.4
							c0.1,0.7,0.2,1.3,0.2,1.8l0.1,1.8h1.9c0.5,0,0.9,0,1.4,0c1.1,0,2.4,0,3.7-0.5c1.5-0.4,2.7-1.1,3.6-2.4v3h9.9v-7
							c0.6,0,1.1-0.1,1.6-0.2h0.1c1.5-0.3,2.6-0.8,3.6-1.6c1.9-1.6,2.8-4.3,2.8-8.8c0-3.3-0.3-7.1-2.2-11.5
							c0.8-3.3,1.8-8.4,3.1-15.6l0.3-1.4L350,5.2l-4.4-2.5L345,2.3L345,2.3L345,2.3z"/>
					</g>
					<g>
						<path d="M364.1,50.8L364,50c-0.4-1.9-1.6-5.2-2.8-7.2l-0.9-1.6l1.9,0.1c1.7,0.1,4,0.2,6,0.2c0.8,0,1.5,0,1.8,0
							c0.4,0,0.5,0,0.6,0c0,0,0-0.1,0-0.3V2.3h10v38.9c0,3.8-0.7,6.7-4,8.2c-2.3,1-5.4,1.5-10.5,1.5
							C365.7,50.8,364.1,50.8,364.1,50.8L364.1,50.8z M390.9,39.8c-0.9-5.6-4.2-14.7-8.3-22.7l-0.5-1l9-3.3l0.4,0.8
							c3.6,6.5,8,15.9,9.3,22.8l0.2,0.8l-9.9,3.9L390.9,39.8L390.9,39.8z M357.9,39.4c-1.7-1.2-4.9-2.9-6.9-3.7l-1.2-0.5l0.8-1.1
							c3.7-4.9,6.1-13.7,7-19.8l0.1-1L368,15l-0.2,1c-2.4,10.9-5.2,18.4-8.5,23l-0.6,0.8L357.9,39.4L357.9,39.4z"/>
						<path class="st1" d="M379.5,3.3v37.9c0,4.2-0.9,6.1-3.4,7.3c-2.4,1.1-5.7,1.3-10,1.3c-0.4,0-0.7,0-1.1,0
							c-0.4-2.1-1.7-5.5-2.9-7.5c2.1,0.1,4.4,0.2,6.1,0.2c0.8,0,1.5,0,1.9,0c1.1,0,1.5-0.3,1.5-1.3V3.3H379.5 M390.6,13.9
							c3.9,7.1,8,16.1,9.2,22.5l-8,3.1c-1-6.1-4.6-15.6-8.4-23L390.6,13.9 M358.5,14.5l8.3,1.4c-1.7,7.6-4.3,17.1-8.3,22.6
							c-1.8-1.3-5.1-3-7.1-3.8C355.1,29.8,357.5,21,358.5,14.5 M381.5,1.3h-12v39.2c-0.4,0-0.9,0-1.4,0c-2.1,0-4.3-0.1-6-0.2
							l-2.4-0.2l0.3-0.4c3.4-4.7,6.2-12.3,8.6-23.4l0.5-2.1l-2.1-0.4l-8.3-1.4l-2-0.3l-0.3,2c-0.9,5.9-3.2,14.6-6.8,19.3l-1.6,2.1
							l2.5,1c1.9,0.8,5.1,2.4,6.7,3.5l1.6,1.2l0.1-0.2l1.2,2.1c1.1,1.9,2.3,5.1,2.7,6.9l0.3,1.6h1.6c0.4,0,0.8,0,1.1,0
							c5.3,0,8.4-0.4,10.9-1.5c4.1-1.9,4.6-5.5,4.6-9.2v-24l0.2,0.3c4,7.9,7.3,16.9,8.2,22.4l0.4,2.5l2.4-0.9l8-3.1l1.6-0.6
							l-0.3-1.7c-1.4-7-5.8-16.5-9.4-23.1l-0.8-1.5l-1.6,0.6l-7.1,2.6l-1.3,0.5L381.5,1.3L381.5,1.3L381.5,1.3z"/>
					</g>
					<g>
						<path d="M405.2,50.7c-1.2-1.2-3.4-2.9-5-3.9l-0.9-0.5l0.6-0.9c4.9-7.6,5.5-16,5.5-22.4v-5.3h-4.3V9.1h7.7
							c-0.4-1.4-0.9-2.9-1.5-4.3l-0.5-1l8.1-2.5l0.4,0.8c1.1,2.1,2.1,4.9,2.5,6.9v0.2h5v2.6c1.5-2.7,2.6-5.9,3.3-9.4l0.2-1l9,1.7
							l-0.2,1c-0.2,1.1-0.5,2.1-0.9,3.2H449v8.5h-4.6l4.9,4.5l-1.4,0.6c-1.3,0.5-2.7,1.1-4.2,1.6l6.3,5.7l-0.8,0.8
							c-1.7,1.7-3.6,3.4-5.4,4.9c1.4,3.8,3.2,6.4,5.5,8.1l1,0.8l-1,0.8c-1.6,1.3-3.7,4-4.6,5.7l-0.6,1.1l-0.9-0.8
							c-1.8-1.5-3.3-3.4-4.6-5.5l0.2,0.7l-0.8,0.3c-8.6,3.5-10.7,4.3-11.7,5.2l-1,0.9l-0.5-1.3c-0.5-1.3-2.3-3.7-3.3-4.6
							c-0.2,1-0.5,1.7-0.9,2.1c-1.1,1.6-2.3,2.4-4.2,2.8c-1,0.2-2.3,0.3-4,0.3c-0.4,0-0.9,0-1.4,0h-0.9v-0.9c0-0.9-0.2-2.1-0.6-3.3
							c-0.7,1.4-1.5,2.8-2.5,4.3l-0.7,1L405.2,50.7L405.2,50.7z M422.8,21.3c0,0.6,0,1.6,0,2.1c-0.3,10.4-0.5,16.4-1,20
							c0.7-0.7,1.8-2.3,1.8-4.7V21.9C423.3,21.7,423,21.5,422.8,21.3L422.8,21.3z M410.9,42.5c0.6,0,1.1,0,1.6,0
							c0.2,0,0.3,0,0.6-0.4c0.6-1,0.9-9.4,1.1-13.9h-0.5C413.3,33.6,412.4,38.3,410.9,42.5L410.9,42.5z M432.5,38.2l3.1-1.1
							c-1.1-3.7-1.8-7.7-2.3-11.6c-0.3,0.1-0.5,0.1-0.8,0.2L432.5,38.2L432.5,38.2z M441.4,23.3c0,0.4,0.1,0.8,0.2,1.2
							c0.4-0.5,0.8-1,1.1-1.4l0.2-0.3C442.4,23,441.9,23.1,441.4,23.3L441.4,23.3z M420.6,19.7c-0.6-0.4-1.1-0.8-1.6-1.1l-1.2-0.7
							l0.1-0.1h-4.2v1.9L420.6,19.7L420.6,19.7z M430.9,15.8c-0.5,0.9-0.9,1.7-1.4,2.4c2.8-0.7,5.6-1.6,7.9-2.4
							C437.4,15.8,430.9,15.8,430.9,15.8z"/>
						<path class="st1" d="M414.4,2.4c1,2,2,4.8,2.4,6.6l-2.9,1h7.9v5.1c2.5-3.4,4.4-7.9,5.3-12.6l7,1.3c-0.4,1.5-0.8,2.9-1.2,4.4
							h15v6.5h-17.6c-1,1.8-1.9,3.5-3.1,5c5.5-1.2,11.1-3,14.8-4.8l5.4,5c-2.2,1-4.6,1.8-7.2,2.5c0.1,1.4,0.4,2.8,0.6,4.2
							c1-1,1.8-2.1,2.5-3.1l5,4.5c-1.8,1.8-3.9,3.7-5.9,5.3c1.4,3.9,3.3,7.2,6.1,9.3c-1.6,1.3-3.8,4.1-4.9,6
							c-6-5.1-8.4-13.9-9.7-24.7c-0.9,0.2-1.8,0.5-2.7,0.6v14.9l5.4-1.9c0,2,0.4,5,0.8,6.5c-9.1,3.6-10.9,4.4-12,5.3
							c-0.6-1.4-2.5-4-3.6-5c1.2-1,2.5-3,2.5-5.8V21.4c-1.5-1.2-3.6-2.9-4.9-3.7c0.4-0.3,0.7-0.6,1-1h-7.8v3.9h9c0,0,0,1.8,0,2.6
							c-0.4,15.6-0.8,21.7-2.1,23.6c-1,1.5-2.1,2.1-3.6,2.4c-1,0.2-2.3,0.3-3.8,0.3c-0.4,0-0.9,0-1.3,0c-0.1-1.7-0.6-4.2-1.5-5.8
							c-0.9,2.2-2,4.3-3.4,6.3c-1.2-1.3-3.5-3-5.2-4c5-7.8,5.7-16.4,5.7-22.9v-6.3h-4.3V10h8c-0.4-1.8-1.1-4-1.9-5.7L414.4,2.4
							 M415.3,27.2h-2.5c-0.2,5.1-1,10.8-3.2,16.2c1.2,0.1,2.2,0.2,3,0.2c0.6,0,1-0.2,1.5-0.8C414.6,41.7,415,37.8,415.3,27.2
							 M415.5,0l-1.6,0.5l-6.2,1.9l-2.2,0.7l0.9,2.1c0.4,0.9,0.8,1.9,1.1,2.8h-7.4v10.7h4.3V23c0,6.3-0.6,14.4-5.4,21.8l-1.1,1.7
							l1.8,1.1c1.5,1,3.7,2.5,4.8,3.7l1.7,1.8l1.4-2c0.4-0.6,0.8-1.3,1.2-1.9c0,0.1,0,0.3,0,0.4l0.1,1.9h1.9c0.5,0,0.9,0,1.4,0
							c1.8,0,3.1-0.1,4.2-0.3c2.2-0.5,3.6-1.4,4.9-3.2c0.1-0.2,0.3-0.5,0.4-0.7c0.8,1,1.6,2.3,2,3l1,2.5l2.1-1.7
							c0.9-0.7,3.1-1.7,11.5-5l0.2-0.1c1.1,1.7,2.4,3.2,3.9,4.5l1.9,1.6l1.2-2.2c1-1.8,3-4.3,4.4-5.4l2-1.6l-2.1-1.5
							c-2-1.5-3.6-3.8-4.9-7c1.7-1.4,3.4-3,4.9-4.5l1.5-1.5l-1.6-1.4l-4.2-3.8c0.9-0.3,1.8-0.7,2.6-1l2.8-1.2l-2.3-2.1l-1.9-1.7h3
							v-11h-14.2c0.2-0.6,0.4-1.3,0.5-1.9l0.5-2l-2.1-0.4l-7-1.4l-2-0.4l-0.4,2c-0.4,2.1-1,4.1-1.7,5.9h-4.8C418,6,417,3.4,416,1.5
							L415.5,0L415.5,0L415.5,0z M433.5,36.7v-4c0.3,1.2,0.6,2.4,0.9,3.6L433.5,36.7L433.5,36.7z"/>
					</g>
					<g>
						<path d="M457.7,50.9V34.2c-0.5,0.5-1,0.9-1.5,1.3l-0.9,0.7l-0.6-0.9c-1-1.5-3.4-4.7-4.8-6.2l-0.8-0.9l1-0.7
							c4.7-3.2,9.5-8.3,12.6-13.3c-2.3,2.1-4.7,4.1-6.9,5.6l-0.9,0.6l-0.5-1c-1-1.7-2.7-4.5-3.9-5.8l-0.8-0.9l1-0.6
							c3.9-2.5,8.6-6.9,11-10.3l0.5-0.7l9,3.7l-0.8,1c-1.6,2.1-3.6,4.4-5.7,6.5l8.1,3.1l-0.6,1c-0.3,0.5-0.6,1-0.9,1.5h28.1v8.9
							h-6.5v14.7c0,3.7-0.6,6.3-3.7,7.7c-2.6,1.2-6.1,1.3-10.4,1.3h-0.9l-0.1-0.9c-0.2-2-1.1-5-2.1-7.1L475,41l1.7,0.1
							c1.6,0.1,3.8,0.2,6.6,0.2c0.1,0,0.1,0,0.2,0V27.1h-13.6v-6.5c-0.8,1.2-1.7,2.4-2.6,3.6V51L457.7,50.9L457.7,50.9z M471.7,13.2
							V4.3H498v8.9H471.7L471.7,13.2z"/>
						<path class="st1" d="M462.4,2.6l7,2.9c-3.8,4.9-9.3,10.3-14.2,13.6c-0.9-1.6-2.7-4.5-4-6C455.3,10.5,460.1,6,462.4,2.6
							 M496.9,5.3v6.9h-24.3V5.3H496.9 M464.3,13.5l6.9,2.6c-1.5,2.5-3.2,5.1-5.2,7.6v26.2h-7.3v-18c-1.1,1-2.1,2-3.2,2.8
							c-1-1.5-3.4-4.8-4.9-6.3C455.7,25,461.1,19.2,464.3,13.5 M498.2,19.2v6.9h-6.5v15.7c0,3.7-0.6,5.7-3.1,6.8
							c-2.4,1.1-5.7,1.2-10,1.2c-0.2-2.1-1.2-5.3-2.1-7.4c2.4,0.2,5.7,0.2,6.6,0.2s1.2-0.2,1.2-0.9V26.1h-13.6v-6.9H498.2
							 M461.7,0.1l-0.9,1.4c-2.2,3.3-6.8,7.6-10.7,10l-2,1.2l1.5,1.8c1.1,1.2,2.8,4,3.7,5.6l1.1,2l1.8-1.3h0.1
							c-2.2,2.3-4.5,4.4-6.9,6l-2,1.4l1.6,1.7c1.3,1.4,3.7,4.5,4.6,6l1.2,1.9l1.6-1.3V52H468V24.5c0.2-0.3,0.4-0.5,0.6-0.8v4.4h13.6
							v12.4c-2.4,0-4.3-0.1-5.7-0.1l-3.3-0.2l1.4,3c0.9,2,1.8,5,2,6.8l0.2,1.8h1.8c4.4,0,8-0.1,10.8-1.4c3.8-1.7,4.3-5.1,4.3-8.6
							V28.1h6.5V17.2h-27.3l1.2-2l-2.2-0.9l-0.2-0.1H499V3.3h-28.3v0.5l-0.5-0.2l-7-2.9L461.7,0.1L461.7,0.1L461.7,0.1z M466.3,12.2
							c1.6-1.6,3.1-3.3,4.4-5v6.7L466.3,12.2L466.3,12.2z"/>
					</g>
				</g>
				<g>
					<g>
						<path d="M27.9,113.4v-8.7c-2.3,2.6-4.8,4.7-7.4,6.2l-0.9,0.5l-0.5-0.8c-0.8-1.3-2.4-3.3-3.8-4.6c-0.1,2.4-0.8,4.2-2.6,5.5
							c-1.7,1.1-3.8,1.5-7.2,1.5H3.9l0.1-1c-0.1-1.7-0.9-4.6-1.7-6.4l-0.7-1.5l1.6,0.1c1.4,0.1,2.8,0.1,3.6,0.1v-7.1l-3.3,1.1
							l-2.1-9l1-0.2c1.3-0.3,2.7-0.7,4.3-1.2v-6.1H2.4v-8.6h4.4V64h8.6v9.1h1.8V66h32.3v12.6h-0.3l0.1,1.1c0.1,0.6,0.1,1.4,0.2,2.2
							c0.1,1.3,0.2,2.8,0.3,3.7l0.1,0.8l-0.7,0.3c-1,0.4-2.3,0.5-4,0.5h-3.7c-1.8,0-3.2-0.2-4.3-0.5v2.1h12.5v8.4h-7.1
							c2.4,2.3,5.2,4.3,8.1,5.8l1.4,0.7l-1.2,1c-1.5,1.2-3.7,3.8-4.6,5.4l-0.5,0.9l-0.9-0.5c-2.6-1.6-5.2-3.9-7.6-6.6v9.5H27.9
							L27.9,113.4z M15.4,103.5c2.9-1.4,5.6-3.6,7.8-6.1h-5.9v-3.7c-0.6,0.2-1.3,0.5-2,0.7C15.4,94.3,15.4,103.5,15.4,103.5z
							 M27.9,88.9v-2.8c-1.8,1-4.2,1.8-7.4,2.5l-0.9,0.2L19.3,88c-0.3-0.8-0.8-1.9-1.5-2.9l0.7,3.9L27.9,88.9L27.9,88.9z M15.4,85.3
							l2.2-0.7c-0.5-0.7-1-1.4-1.5-1.9l-0.8-0.8L15.4,85.3L15.4,85.3z M33.9,84.2c-0.7-1.3-0.9-3-1-4.7c-0.5,1.8-1.3,3.4-2.5,4.7
							H33.9L33.9,84.2z M18.4,80.7c2.6-0.4,4.2-1,5.1-1.7h-5.1V80.7z M45,79.3c1,0,2.4-0.2,3-0.4l0.9-0.3h-7.6l0,0
							c0,0.3,0,0.5,0,0.6H45V79.3z"/>
						<path class="st1" d="M14.4,65.1v9.1h2.9v6.6h-2.9v5.9l2.6-0.8l1.1,6.4c-1.2,0.4-2.5,0.9-3.8,1.3v10.9c0,3.1-0.5,4.9-2.2,6.1
							c-1.6,1-3.7,1.3-6.6,1.3c-0.2,0-0.4,0-0.6,0c-0.2-1.8-0.9-4.8-1.8-6.7c1.6,0.1,3.2,0.1,3.8,0.1s0.8-0.2,0.8-0.8v-8.7L4.3,97
							l-1.6-6.9c1.5-0.3,3.2-0.8,5.1-1.4v-7.9H3.4v-6.6h4.4v-9.1H14.4 M48.5,67.1v10.6h-7v-4.5H24.9V78h-6.7V67.1H48.5 M40.3,74.4
							v4.3c0,1.2,0.2,1.6,1,1.6H45c1,0,2.5-0.2,3.3-0.4c0.2,1.6,0.3,4.4,0.5,6c-0.9,0.3-2.3,0.4-3.7,0.4h-3.7
							c-6.1,0-7.5-1.9-7.5-7.6v-4.3H40.3 M32.6,74.5c-0.3,7-1.9,11.1-12.2,13.1C19.9,86,18.3,83.3,17,82c8.2-1.1,8.9-3,9.1-7.5H32.6
							 M36.1,85.2v4.7h12.5v6.4H40c2.7,3.1,6.3,5.9,10,7.7c-1.5,1.3-3.8,3.9-4.8,5.6c-3.3-2-6.5-5.1-9.1-8.5v11.3H29v-10.5
							c-2.5,3.3-5.5,6.2-8.9,8.2c-1-1.6-3.1-4.1-4.6-5.4c3.9-1.8,7.4-4.8,9.9-8.3h-6.9V90H29v-4.7L36.1,85.2 M16.5,63H5.8v9.1H1.4
							v10.7h4.4v4.3c-1.3,0.4-2.5,0.7-3.6,0.9l-2,0.5l0.4,2l1.6,6.9l0.5,2.2l2.1-0.7l0.9-0.3v4.7c-0.7,0-1.6,0-2.5-0.1L0,103l1.3,3
							c0.7,1.7,1.5,4.5,1.6,6.1l0.2,1.8h1.8c0.2,0,0.4,0,0.7,0c3.6,0,5.9-0.5,7.7-1.7c1.6-1.1,2.4-2.5,2.8-4.1
							c0.9,1,1.7,2.1,2.2,2.9l1,1.7l1.7-1c2.1-1.2,4.1-2.7,5.9-4.5v7.1h11.2v-7.9c1.9,1.9,4,3.6,6,4.9l1.7,1.1l1-1.8
							c0.9-1.5,3-3.9,4.4-5.1l2.4-2l-2.8-1.4c-2-1-4-2.3-5.9-3.8h5.5V87.9h-1.2c0.1,0,0.2-0.1,0.2-0.1l1.5-0.6l-0.2-1.6
							c-0.1-0.9-0.2-2.4-0.3-3.7c-0.1-0.8-0.1-1.6-0.2-2.2l0,0h0.2V65.1h-34L16.5,63L16.5,63L16.5,63z M26.6,87.9
							c0.1-0.1,0.2-0.1,0.4-0.2v0.2H26.6z M16.5,98.3H21c-1.4,1.3-2.9,2.5-4.5,3.4V98.3L16.5,98.3z"/>
					</g>
					<g>
						<path d="M67.9,113.3l-0.2-0.8c-0.3-1.2-0.8-2.9-1.5-4.4c-2.4,1.7-5.1,3.4-7.6,4.7l-0.7,0.3l-0.5-0.6c-1.2-1.3-3.7-3.6-5.2-4.8
							l-1.5-1.1l1.7-0.7c2.5-0.9,5.1-2.3,7.3-3.7c-0.9,0.2-1.5,0.3-2,0.5l-1.1,0.4l-0.2-1.1c-0.2-1.1-1.1-4.1-1.7-5.6l-0.4-1.2
							l1.2-0.2c1.5-0.2,2.8-0.6,4.6-1.2L60,93.4c-0.2-1-0.9-3.2-1.5-4.8h-6.3V75.9h19v-0.1H53.7v-8.2h17.6V64H81v3.6h17.5v8.2H81
							v0.1h19v12.9h-9.2v-1c0,0-1.3,0.8-1.5,0.9c2.8,2.4,7.7,6.8,10,9.8l0.7,0.9l-5.8,3.8c2.2,1.3,4.2,2.6,5.7,3.7l1.1,0.8l-7.8,5.3
							l-0.6-0.5c-2.3-2.1-7.2-5.2-10.9-7.4v0.2c0,3.2-0.6,5.6-3.7,6.8c-2.5,1-5.4,1.1-9.3,1.1L67.9,113.3L67.9,113.3z M70.4,104.8
							c0.5,0,0.9,0,1.3,0s0.7,0,0.9,0c0.1,0,0.1,0,0.2,0v-3.5c-1.6,0.1-3.1,0.2-4.5,0.3l3.9,1.6l-1.1,1.1
							C70.8,104.4,70.6,104.6,70.4,104.8L70.4,104.8z M81.7,102.7l3.6-2.3l-3.6,0.2C81.7,100.6,81.7,102.7,81.7,102.7z M90.4,101
							c-0.2-0.3-0.5-0.6-0.8-0.9l-0.7,0.1C89.4,100.4,89.9,100.7,90.4,101z M82,92.6c-0.9,0.4-1.8,0.8-2.7,1.2l3.8-0.2
							C83,93.5,82,92.6,82,92.6L82,92.6z M90.8,87.5v-3.6h-4.4L90.8,87.5z M78.8,84.5c-1.3,0.8-2.7,1.7-4.1,2.4l1.8-0.1
							c2.1-1.1,3.8-2.1,5.3-3h-2.1L78.8,84.5L78.8,84.5z M61.1,86.2c0.5-0.2,1-0.5,1.6-0.8s1.6-0.8,2.9-1.5H61
							C61.1,83.9,61.1,86.2,61.1,86.2z"/>
						<path class="st1" d="M80,65.1v3.6h17.5v6.2H80V77h19v10.9h-7.2V83H77.3l1,0.8c-2.3,1.5-5.2,3.1-8.2,4.4l6.7-0.2
							c2.7-1.4,5.3-2.9,7.5-4.4l4.9,4.1c-4.8,2.9-10.2,5.4-15.6,7.5l11.9-0.6c-0.8-0.8-1.4-1.4-2.1-2l5-3.1c3.3,2.9,7.9,7,10.1,9.9
							l-5.4,3.6c-0.7-1.1-1.8-2.3-3-3.7l-9.3,0.6v5.7c0,3.1-0.7,4.9-3.1,5.9s-5.3,1.1-8.9,1.1c-0.3-1.7-1.2-3.9-2.1-5.7
							c-2.7,2.1-5.9,4-8.5,5.4c-1.2-1.3-3.8-3.7-5.4-4.9c3.8-1.4,8.2-3.8,10.8-6.1c-3.7,0.3-5,0.7-6.1,1.1c-0.2-1.2-1.1-4.1-1.7-5.7
							c2.1-0.3,3.9-0.9,6.9-2c0.8-0.3,2.2-0.8,3.9-1.5C63,93.4,62,93.6,61.2,94c-0.2-1.2-1.2-4-1.7-5.6h-6V76.9h19v-2.1H54.7v-6.2
							h17.6V65L80,65.1 M69.4,82.9h-9.3v4.7c1-0.2,1.9-0.7,3.1-1.3C64.2,85.8,66.8,84.6,69.4,82.9 M71.7,105.8c0.4,0,0.8,0,0.9,0
							c0.8,0,1.1-0.2,1.1-0.7v-4.9c-4.4,0.3-7.5,0.6-9.7,0.8l6.3,2.6c-0.8,0.8-1.7,1.5-2.6,2.2C69.1,105.8,70.7,105.8,71.7,105.8
							 M87.2,100.4c3.7,2,9.2,5.2,12.1,7.4l-6,4c-2.4-2.2-7.7-5.6-11.6-7.9L87.2,100.4 M82,63.1H70.3v3.6H52.7V75h-1.4v14.9h6.6
							c0.4,1.2,0.9,2.7,1.1,3.6c-1.3,0.4-2.4,0.7-3.5,0.9L53,94.7l0.9,2.3c0.6,1.5,1.4,4.4,1.6,5.4l0.2,1.1
							c-1.2,0.6-2.5,1.2-3.7,1.6l-3.5,1.3l3,2.2c1.5,1.1,3.9,3.4,5.1,4.6l1,1.1l1.4-0.7c2.2-1.1,4.5-2.6,6.7-4.1
							c0.4,1.1,0.8,2.2,0.9,3.1l0.3,1.6h1.6c4,0,7-0.1,9.7-1.2c3.2-1.3,4.1-3.7,4.3-6.2c3.4,2.1,7.3,4.7,9.2,6.4l1.2,1.1l1.3-0.9
							l6-4l2.3-1.6l-2.2-1.7c-1.2-0.9-2.7-1.9-4.4-2.9l3.5-2.3l1.8-1.2L99.9,98c-1.8-2.4-5.1-5.4-8-8.1h8.9v-15h-1.4v-8.3H82V63.1
							L82,63.1L82,63.1z M89.2,84.9h0.6v0.5L89.2,84.9L89.2,84.9z"/>
					</g>
					<g>
						<path d="M129.3,113c-1.1-1.2-3.9-3.3-5.3-4l-1-0.5l0.6-0.9c0.3-0.4,0.5-0.9,0.8-1.4l-1.8,1.2l-0.5-1.1
							c-0.5-1.1-1.3-2.7-2.2-4.4v11.2h-9v-10.6c-1.1,2.5-2.4,5-3.6,6.9l-0.6,1l-0.9-0.8c-1-0.9-3.3-2.4-4.5-3.1l-1-0.5l0.6-0.9
							c1.4-2.1,3-5.2,4-8.2H102v-8.1h8.9v-1h-9.3v-7.9h4c-0.3-1.1-0.7-2.3-0.8-2.9l-0.1-0.2h-2.3V69h7.5c-0.3-0.8-0.5-1.6-0.8-2.3
							l-0.4-1.1l9.2-2.2l0.3,0.8c0.6,1.5,1.3,3.2,1.8,4.7h7v7.8h-1.8l-0.1,0.1c-0.3,0.8-0.7,1.5-1,2.1c-0.1,0.3-0.3,0.6-0.4,0.9h3.2
							V69l0.8-0.2c5.7-1.1,11.3-2.8,14.7-4.4l0.6-0.3l7.1,6.9l-1.4,0.6c-4.5,1.8-9.4,3-13.1,3.7v5.1h14.6v8.7H146v24.1h-9V89.1h-1.4
							c-0.1,11.1-1.7,18.9-4.9,23.8L130,114L129.3,113L129.3,113z M125.6,96.7c0.3,0.5,0.6,1,1,1.5c0.1-0.5,0.1-1,0.2-1.5H125.6
							L125.6,96.7z M110.9,97.2v-0.4h-1.4L110.9,97.2z M119.9,97.1l0.6-0.3h-0.6V97.1z M126.9,88.7v6.5c0.2-2.4,0.2-4.8,0.2-7.2
							v-0.3h-7.2v1H126.9z M115.2,79.8c0.4-1,0.8-2.1,1.1-3.1H113c0.4,1.3,0.7,2.2,0.8,2.9v0.2C113.9,79.8,115.2,79.8,115.2,79.8z"
							/>
						<path class="st1" d="M117.4,64.4c0.7,1.6,1.4,3.7,2,5.4h6.7v5.8h-5.6l3.8,0.7c-0.8,1.6-1.4,3.1-2,4.4h4.6v5.9h-8v3h7v6h-7
							v16.2h-7V95.7H103v-6h8.9v-3h-9.3v-5.9h4.2c-0.2-1.2-0.8-2.9-1.2-4.2l3.9-0.9h-6.2v-5.8h7.9c-0.3-1.2-0.8-2.5-1.2-3.6
							L117.4,64.4 M117.6,75.7h-6c0.5,1.4,1.1,3,1.2,4.1l-3.6,1h6.6C116.5,79.2,117.2,77.2,117.6,75.7 M143.1,65.2l5.5,5.3
							c-4.1,1.6-9,2.9-13.7,3.8v6.9h14.6V88h-4.2v24.1h-7V88h-3.4c0,7.4-0.6,18-4.8,24.3c-1.1-1.2-4.1-3.5-5.6-4.2
							c0.8-1.3,1.4-2.8,1.9-4.4l-3.4,2.1c-0.8-1.9-2.4-4.9-3.8-7.1l4.6-2.6c1.1,1.6,2.3,3.5,3.2,5.2c0.9-4.4,1.1-9.2,1.1-13.2V69.8
							C133.6,68.7,139.4,67,143.1,65.2 M106,96.7l5.5,1.6c-1.3,3.5-3.4,7.7-5,10.4c-1.1-0.9-3.3-2.5-4.7-3.2
							C103.3,103.2,105,99.7,106,96.7 M118.6,62.1l-1.7,0.4l-7.3,1.7l-2.2,0.5l0.8,2.1c0.1,0.3,0.2,0.6,0.3,0.9h-7.2v9.9h2.5
							c0.1,0.3,0.2,0.7,0.3,1.1h-3.7v9.9h0.3v9.1h2.5c-1,2.5-2.2,4.9-3.4,6.6l-1.3,1.8l1.9,1.1c1.2,0.7,3.4,2.2,4.3,3l1.8,1.5l1.2-2
							c0.6-0.9,1.2-1.9,1.8-3.1v7.2h11.1v-8c0.1,0.2,0.2,0.4,0.3,0.6l0.8,1.8l-0.3,0.5l2,1c1.2,0.6,4,2.7,5,3.8l1.8,1.9l1.4-2.2
							c2.2-3.3,3.7-8,4.5-14v14.7h11.1V90h4.2V79.3h-14.6v-3.2c3.6-0.8,8.2-1.9,12.4-3.6l2.9-1.2l-2.2-2.2l-5.5-5.3l-1-1l-1.3,0.6
							c-3.3,1.6-8.9,3.3-14.4,4.4h-6.9c-0.5-1.3-1.1-2.8-1.6-4.1L118.6,62.1L118.6,62.1L118.6,62.1z M125.9,77.7h0.2v1.1h-0.7
							C125.6,78.4,125.7,78,125.9,77.7L125.9,77.7z M114.4,77.7h0.4c-0.1,0.2-0.2,0.5-0.2,0.7C114.6,78.1,114.5,77.9,114.4,77.7
							L114.4,77.7z"/>
					</g>
					<g>
						<path d="M150.1,103.4l1.1-0.3c3-0.8,7.2-2.2,11.6-3.6l0.5-0.2V84.6h-10.9v-9.2h10.9V64.8h9.6v31.3l2-0.7l1.6,8.1
							c-0.1-0.9-0.1-1.8-0.1-2.8V64.8h9.6v10.5h12.6v9.2H186v16.3c0,0.6,0,1.9,0.1,2.2l0,0c0.1,0,0.2,0,0.4,0h3.6
							c0.9,0,1.1-5.7,1.2-9.9l0.1-2l1.6,1.2c1.7,1.4,4.8,2.8,6.5,3.1l0.8,0.2l-0.1,0.8c-0.6,10.1-2.2,15.6-9.4,15.6h-5.6
							c-5.8,0-8.3-2.1-8.9-8.2l-0.7,0.3c-6.7,2.8-14.4,5.9-20.7,8.3l-0.9,0.3L150.1,103.4L150.1,103.4z"/>
						<path class="st1" d="M171.8,65.8v31.7l2.2-0.8l1.3,6.5c-7,2.9-14.6,6-20.7,8.3l-3.2-7.5c3.3-0.9,7.9-2.4,12.8-4V83.6h-10.9
							v-7.2h10.9V65.8H171.8 M184.9,65.8v10.5h12.6v7.2h-12.6v17.3c0,2.8,0.1,3.2,1.6,3.2h3.6c1.6,0,1.9-2.2,2.2-10.9
							c1.7,1.4,5,2.9,6.9,3.3c-0.6,10.5-2.3,14.7-8.4,14.7h-5.6c-6.2,0-8-2.4-8-10.4V65.8H184.9 M173.8,63.8h-11.6v10.6h-10.9v11.3
							h10.9v13c-4.3,1.4-8.4,2.7-11.3,3.5l-2.2,0.6l0.9,2.1l3.2,7.5l0.8,1.8l1.8-0.7c6.2-2.4,13.6-5.3,20.3-8.1
							c1.1,6.4,4.6,7.8,9.7,7.8h5.6c8.7,0,9.9-7.8,10.4-16.5l0.1-1.7l-1.7-0.4c-1.6-0.4-4.6-1.7-6.1-2.9l-3.1-2.5l-0.1,4
							c-0.1,2.9-0.3,7.5-0.7,9H187c0-0.4,0-1,0-1.2V85.5h12.6V74.3H187V63.8h-11.6v30.4l-1.5,0.5L173.8,63.8L173.8,63.8L173.8,63.8z
							"/>
					</g>
					<g>
						<path d="M204.5,112.8c-0.5-1.9-1.6-5-2.7-6.7l-0.9-1.5l1.7-0.1c7.4-0.4,13.5-1.2,18.7-2.6c-0.7-0.7-1.5-1.3-2.4-2
							c-1.6,0.7-3.3,1.4-5.1,2l-0.8,0.3l-0.4-0.8c-0.8-1.7-2.8-4.2-4.1-5.3l-1.5-1.2l1.8-0.5c4.8-1.4,9.1-3.2,12.7-5.4
							c-4.4,1.6-9.2,2.9-14.6,3.9l-0.9,0.2l-0.3-0.8c-0.6-1.8-2-4.6-3.2-6l-1.1-1.4l1.8-0.2c4.3-0.6,8.3-1.4,11.9-2.5
							c-0.8-0.8-1.6-1.5-2.3-2.1c-1,0.5-2,1-3.1,1.5l-0.8,0.3l-0.5-0.7c-1-1.6-3.2-3.9-4.6-4.9l-1.6-1.1l1.9-0.7
							c7.3-2.5,13.3-6.1,17.1-10.2l0.4-0.4l10.1,2.3l-1.2,1.3c-0.2,0.2-0.4,0.4-0.6,0.6h6.5l1.5-0.4l6,3.5l-0.5,0.9
							c-2.3,4.2-5.6,7.8-9.8,10.8l6.4,1.4l-1.1,1.3c-0.5,0.5-0.9,1-1.3,1.5h4.6l1.6-0.4l6.2,3.5l-0.4,0.8
							c-7.9,17.3-26.7,21.2-43.9,22.7l-0.9,0.1L204.5,112.8L204.5,112.8z M227.2,95.5c1.2,0.9,2.3,1.9,3.3,2.8
							c1.6-0.9,3.1-1.9,4.3-3h-7.3C227.4,95.4,227.3,95.4,227.2,95.5z M221.2,76.3c0.9,0.8,1.8,1.6,2.5,2.3c1.4-0.8,2.8-1.5,3.9-2.3
							H221.2z"/>
						<path class="st1" d="M221.8,64.8l7.8,1.8c-0.8,0.8-1.5,1.5-2.3,2.3h9.2l1.2-0.3l4.8,2.8c-2.7,4.8-6.6,8.7-11.4,11.8l7,1.6
							c-0.9,1.1-1.9,2.1-2.9,3.1h7.1l1.3-0.3l5,2.8c-7.1,15.4-23.1,20.4-43.1,22.1c-0.5-2-1.7-5.2-2.8-7c7.7-0.4,14.6-1.3,20.6-3.1
							c-1.1-1.2-2.7-2.5-4.1-3.7c-1.7,0.8-3.6,1.5-5.6,2.2c-0.9-1.7-2.9-4.4-4.4-5.6c9.2-2.7,15.6-6.6,19.6-10.8
							c-6.4,3.6-14.1,5.9-22.1,7.3c-0.6-1.8-2.1-4.8-3.3-6.3c4.7-0.7,9.4-1.6,13.6-3c-1.1-1.2-2.6-2.6-4-3.8
							c-1.2,0.6-2.4,1.2-3.7,1.7c-1.1-1.6-3.3-4.1-4.9-5.2C212.4,72.5,218.3,68.6,221.8,64.8 M230.6,75.2h-11.5l-0.4,0.2
							c1.7,1.4,3.6,2.9,4.8,4.3C226.2,78.5,228.6,77,230.6,75.2 M237.3,94.3h-10.1c-0.6,0.4-1.2,0.8-1.8,1.1c1.8,1.3,3.6,2.8,5,4.1
							C233,98,235.4,96.3,237.3,94.3 M221.1,62.6l-0.8,0.9c-3.6,3.9-9.6,7.5-16.7,9.9l-3.8,1.3l3.3,2.3c1.3,0.9,3.4,3.1,4.3,4.6
							l0.7,1.1c-1.7,0.3-3.4,0.6-5.2,0.9l-3.5,0.5l2.2,2.8c1.1,1.3,2.4,4,3,5.7l0.6,1.6l1.3-0.2l-1.7,0.5l2.9,2.4
							c1.2,1,3.1,3.4,3.9,5l0.4,0.8c-2.9,0.4-6.1,0.7-9.6,0.9l-3.5,0.2l1.9,2.9c1,1.6,2.1,4.5,2.6,6.4l0.4,1.7l1.7-0.2
							c17.6-1.5,36.6-5.5,44.8-23.3l0.8-1.7l-1.6-0.9l-5-2.8l-0.7-0.4l-0.8,0.2l-1,0.3h-2.3l2-2.3l-3.3-0.8l-2.6-0.6
							c3.5-2.8,6.3-6.1,8.4-9.8l1-1.7l-1.7-1l-4.8-2.8l-0.7-0.4l-0.8,0.2l-0.9,0.2h-4.1l1.4-1.4l-3.4-0.8l-7.8-1.8L221.1,62.6
							L221.1,62.6L221.1,62.6z M223.9,77.2h0.2H223.9L223.9,77.2L223.9,77.2L223.9,77.2z M210.1,82.3c0.9-0.4,1.7-0.8,2.5-1.1
							c0.1,0.1,0.3,0.3,0.5,0.4C212.1,81.8,211.1,82,210.1,82.3L210.1,82.3L210.1,82.3z M229.8,96.3h2c-0.4,0.2-0.8,0.5-1.2,0.7
							C230.4,96.8,230.1,96.5,229.8,96.3L229.8,96.3z M216.6,101.9c0.8-0.3,1.5-0.6,2.2-0.9c0.1,0.1,0.3,0.2,0.4,0.3
							C218.3,101.6,217.4,101.7,216.6,101.9L216.6,101.9L216.6,101.9z"/>
					</g>
					<g>
						<path d="M255,112.6c-0.8-1.7-2.7-4.3-4.2-5.6l-1.3-1.1l1.6-0.6c9.2-3.4,10.6-8.7,11.2-15.7h-10.5v-9H299v9h-12.7v12.8
							c0,0.7,0,1.1,0.1,1.2c0.1,0,0.3,0,0.6,0h3.4c0.2,0,0.2,0,0.2,0c0.5-0.4,0.7-4.6,0.8-7.2l0.1-2l1.6,1.3
							c1.3,1.1,4.3,2.3,6.3,2.8l0.8,0.2l-0.1,0.8c-0.6,8.6-2.2,12.9-9,12.9h-5.4c-7.5,0-8.9-3.5-8.9-10V89.7h-4.5
							c-0.9,9.5-3.1,18.3-15.9,23.5l-0.9,0.4L255,112.6L255,112.6z M256.5,76.3v-9h37.7v9H256.5z"/>
						<path class="st1" d="M293.2,68.3v7h-35.7v-7H293.2 M298,81.6v7h-12.7v13.8c0,2,0.2,2.2,1.6,2.2h3.4c1.5,0,1.7-1.2,2-8.2
							c1.5,1.2,4.7,2.5,6.7,3c-0.7,9.2-2.5,12-8,12h-5.4c-6.3,0-7.9-2.3-7.9-9V88.7h-6.5c-0.9,10.2-3,18.6-15.4,23.6
							c-0.8-1.8-2.8-4.5-4.4-5.9c10.3-3.8,11.4-10,12-17.6h-10.6v-7L298,81.6 M295.2,66.3h-39.7v11h39.7V66.3L295.2,66.3z M300,79.6
							h-49.1v11.1h10.4c-0.6,6.3-2.3,10.7-10.5,13.7l-3.2,1.2l2.6,2.2c1.4,1.2,3.2,3.6,3.9,5.2l0.8,1.8l1.8-0.7
							c12.9-5.2,15.5-14.3,16.4-23.4h2.6v11.9c0,9.2,3.8,11,9.9,11h5.4c7.5,0,9.3-4.9,10-13.8l0.1-1.7l-1.6-0.4
							c-1.9-0.5-4.7-1.7-5.9-2.6l-3.1-2.5l-0.1,4c-0.1,1.8-0.2,5-0.5,6.2h-2.6c0-0.1,0-0.1,0-0.2V90.7H300V79.6L300,79.6L300,79.6z"
							/>
					</g>
					<g>
						<path d="M304.7,112.8c-0.7-1.6-2.9-4.9-4.2-6.6l-1-1.3l1.6-0.4c7.1-1.6,12.9-3.9,17.6-7.2c-3.6-4.4-6.6-9.6-9.1-16h-8.2v-9.1
							h20.2c-0.5-1.7-1.2-3.6-1.9-5.1l-0.5-1.1l9.7-2.9l0.4,0.7c1.1,2.1,2.7,5.5,3.2,7.8l0.1,0.5h16.8v9.1h-7.8
							c-2.2,6.2-5.1,11.4-8.8,15.8c4.8,3.2,10.5,5.6,17,7l1.8,0.4l-1.4,1.3c-1.5,1.4-3.5,4.4-4.7,6.5l-0.4,0.7l-0.8-0.2
							c-7.4-1.9-13.5-4.8-18.8-8.9c-5.4,4.1-11.8,7.1-19.6,9.3l-0.8,0.2L304.7,112.8L304.7,112.8z M319.2,81.3
							c1.7,3.6,3.8,6.8,6.3,9.7c2.3-2.8,4.1-6.1,5.5-9.7H319.2L319.2,81.3z"/>
						<path class="st1" d="M328.3,64.4c1.2,2.3,2.6,5.5,3.1,7.6l-4,1.2h20.9v7.1h-7.5c-2.3,6.8-5.5,12.4-9.6,17
							c5,3.6,11,6.2,18.2,7.8c-1.6,1.6-3.8,4.8-4.9,6.8c-7.7-2-13.9-5.1-19-9.2c-5.4,4.3-12,7.4-19.9,9.6c-0.8-1.7-3-5.1-4.4-6.8
							c7.6-1.7,13.9-4.3,18.9-8c-4.1-4.8-7.3-10.5-9.9-17.2h-7.9v-7.1h20.5c-0.5-2-1.4-4.5-2.3-6.5L328.3,64.4 M332.6,80.3h-14.9
							c1.9,4.6,4.6,8.7,7.9,12.2C328.6,89.1,330.9,85.1,332.6,80.3 M329.3,62l-1.6,0.5l-7.8,2.3l-2.3,0.7l1,2.1
							c0.5,1.1,1,2.4,1.5,3.6h-19.8v11.1h8.5c2.3,5.8,5.1,10.7,8.3,14.8c-4.4,2.8-9.8,5-16.4,6.4l-3.2,0.7l2.1,2.5
							c1.3,1.6,3.4,4.8,4.1,6.4l0.7,1.6l1.7-0.5c7.6-2.1,14-5.1,19.3-9c5.2,3.9,11.3,6.7,18.5,8.6l1.5,0.4l0.8-1.4
							c1.1-2,3.1-4.9,4.5-6.3l2.7-2.6l-3.7-0.8c-6-1.3-11.2-3.4-15.7-6.3c3.3-4.2,6-9,8.1-14.6h8.1v-11h-17
							c-0.6-2.4-2.1-5.6-3.2-7.8L329.3,62L329.3,62L329.3,62z M320.9,82.3h8.8c-1.1,2.6-2.5,4.9-4.1,7.1
							C323.8,87.2,322.2,84.9,320.9,82.3L320.9,82.3L320.9,82.3z"/>
					</g>
					<g>
						<path d="M357.3,113.3V89.6c-0.6,0.7-1.3,1.3-2,2l-1.1,1.1l-0.5-1.4c-0.6-1.7-2.5-5.7-3.6-7.4l-0.5-0.7l0.7-0.6
							c4.8-4.2,9.4-10.9,12-17.7l0.4-0.9l8.6,2.9l-0.4,1c-1.2,2.8-2.7,5.9-4.7,9.3v36.1L357.3,113.3L357.3,113.3z M381.8,112.5
							c-7.4,0-9.7-2.7-9.7-11V65h9v12.3h17.2v8.9H381v15.4c0,1.7,0.5,2.5,1.6,2.5h6.2c1.3,0,1.8-0.7,2.3-9.2l0.1-1.9l1.5,1.1
							c1.5,1.2,4.3,2.4,6,2.8l0.9,0.2l-0.1,0.9c-0.7,9.6-2.5,14.4-10,14.4L381.8,112.5L381.8,112.5z"/>
						<path class="st1" d="M363.2,65.2l6.7,2.3c-1.3,3.1-2.9,6.3-4.7,9.5v35.3h-6.9V86.9c-1.2,1.5-2.4,2.8-3.7,4
							c-0.6-1.7-2.5-5.8-3.7-7.6C355.8,79,360.5,72.2,363.2,65.2 M380,66v12.3h17.2v6.9H380v16.4c0,3.1,0.2,3.5,2.6,3.5h6.2
							c2.4,0,2.8-1.9,3.3-10.1c1.6,1.2,4.5,2.6,6.4,3c-0.8,9.8-2.5,13.5-9,13.5h-7.7c-6.8,0-8.7-2.3-8.7-10V66H380 M362.1,62.7
							l-0.7,1.8c-2.6,6.6-7.1,13.2-11.8,17.3l-1.3,1.2l1,1.5c1.1,1.7,2.9,5.6,3.5,7.2l1.1,2.9l2.2-2.1c0.1-0.1,0.2-0.2,0.3-0.3v22.2
							h10.9V77.5c1.5-2.7,2.8-5.1,3.8-7.4v31.4c0,10.1,3.9,12,10.7,12h7.7c9.1,0,10.4-7,11-15.4l0.1-1.8l-1.7-0.4
							c-1.6-0.3-4.2-1.6-5.6-2.6l-3-2.3l-0.2,3.8c-0.1,2.6-0.4,7.4-1,8.2c0,0-0.1,0-0.2,0h-6.2c-0.2,0-0.4,0-0.5,0
							c0-0.3,0-0.8,0-1.5V87.2h17.2v-11H382V64h-11v1.8l-0.4-0.1l-6.7-2.3L362.1,62.7L362.1,62.7L362.1,62.7z"/>
					</g>
					<g>
						<path d="M401.3,112v-9.1h18.8v-6.6h-12.9v-7.5l-0.6-0.6c-1.4-1.2-4.6-3.3-6.4-4.3l-1.1-0.6l0.9-1c3.5-3.8,6.7-10.2,8.5-17.2
							l0.2-0.9l9.5,2.1l-0.3,1c-0.5,1.7-1,3.4-1.7,5.2h3.9V64h9.6v8.7H446v9.1h-16.3v5.6H444v9h-14.3v6.6h18.9v9.1L401.3,112
							L401.3,112z M420.1,87.4v-5.6h-8c-1.2,2.2-2.4,4.1-3.5,5.6H420.1z"/>
						<path class="st1" d="M428.7,65.1v8.7H445v7.1h-16.3v7.6H443v7h-14.3v8.6h18.9v7.1h-45.3V104h18.8v-8.6h-12.9v-7h12.9v-7.6
							h-9.6c-1.4,2.6-2.8,4.9-4.3,6.8c-1.4-1.2-4.7-3.4-6.5-4.4c3.8-4.1,7-10.9,8.7-17.6l7.5,1.7c-0.6,2.2-1.4,4.3-2.2,6.5h6.4v-8.7
							L428.7,65.1 M430.7,63h-11.6v2.6l-1.7-0.4l-7.5-1.7l-1.9-0.4l-0.5,1.9c-1.7,6.7-4.9,13.1-8.2,16.8l-1.8,1.9l2.3,1.2
							c1.9,1,4.9,3.1,6.2,4.1l0.3,0.2v8.1h12.9v4.5h-18.8v11.1h49.4V102h-18.9v-4.5H445v-11h-14.3v-3.6H447V71.7h-16.3V63L430.7,63
							L430.7,63z M417.6,71.7c0.5-1.4,0.9-2.7,1.2-3.9L419,67v4.7L417.6,71.7L417.6,71.7z M412.7,82.8h6.4v3.6h-8.5
							C411.3,85.4,412,84.2,412.7,82.8L412.7,82.8z"/>
					</g>
					<g>
						<path d="M468.2,113.3V90.7h9.9v-3.3h-12.8v-2.5l-3.7,5.5l6.1,5.5l-0.4,0.7c-2.7,5.3-5.7,10.7-8.7,15.7l-0.6,1l-7.8-6.2
							l0.6-0.8c2.3-3.2,6.1-9.1,9.3-15.3l-0.1-0.1c-1.5-1.1-4.7-2.9-9.3-5.3l-1-0.5l5-7l0.8,0.3c2.6,1.2,7.3,3.4,9.7,4.8l0.2,0.1
							v-4.9h12.8V76c-2.6,0.4-5.3,0.7-8,0.9l-1,0.1l-0.1-0.9c-0.2-1.3-0.8-3.3-1.4-4.9l-4.8,6.6l-0.8-0.6c-1.4-1-4-2.6-6.4-4
							c-0.9-0.5-1.8-1-2.5-1.5l-1-0.6l5.3-6.8l1.7,0.8c2.4,1.2,5.7,2.9,7.7,4.1l-0.2-0.4l1.4-0.1c9.1-0.9,17.5-2.7,22.5-4.8l0.6-0.3
							l7.1,7.3l-1.4,0.6c-3.1,1.2-6.4,2.2-9.8,2.9v4h12.2v8.9h-12.2v3.3h10.1v22.5h-8.9v-1.8h-11.4v2L468.2,113.3L468.2,113.3z
							 M488.2,102.8v-3.6h-11.4v3.6H488.2z"/>
						<path class="st1" d="M491,64.9l5.5,5.7c-3.2,1.2-6.7,2.3-10.5,3v5.8h12.2v6.9H486v5.3h10.1V112h-6.9v-1.8h-13.5v2h-6.5V91.7
							h9.9v-5.3h-12.8v-6.9h12.8v-4.6c-3,0.4-6.1,0.8-9.1,1.1c-0.2-1.7-1.2-4.6-1.9-6.2C476.5,69,485.4,67.3,491,64.9 M475.8,103.8
							h13.5v-5.6h-13.5V103.8 M457.7,65.7c2.6,1.3,7,3.5,9.2,4.9l-4.3,5.8c-1.9-1.4-6.2-3.8-9-5.5L457.7,65.7 M455.1,79.4
							c2.7,1.2,7.3,3.4,9.6,4.7l-4,6c-2-1.4-6.5-3.8-9.4-5.4L455.1,79.4 M461.2,91.4l5.3,4.8c-2.6,5.2-5.6,10.6-8.7,15.6l-6.1-4.9
							C454.4,103.3,458.2,97.2,461.2,91.4 M491.4,62.6l-1.3,0.5c-4.9,2.1-13.2,3.8-22.2,4.7l-1.6,0.2c-2-1.1-4.7-2.5-6.7-3.5l-1-0.5
							l-1.5-0.8l-1,1.3l-4.1,5.2l-1.4,1.8l2,1.2c0.8,0.4,1.6,0.9,2.5,1.5c2.3,1.4,5,2.9,6.3,3.9l1.6,1.2l1.2-1.6l3.1-4.2
							c0.3,1,0.6,2.1,0.7,2.9l0.2,1.2h-3.9v4.2c-2.5-1.4-6.2-3.1-8.4-4.1l-1.5-0.7l-1,1.3l-3.9,5.4l-1.4,1.9l2.1,1.1
							c4,2.1,7,3.8,8.6,4.8c-3.1,5.9-6.7,11.3-8.8,14.4l-1.1,1.6l1.5,1.2l6.1,4.9l1.8,1.4l1.2-1.9c2.6-4.3,5.2-8.9,7.6-13.5v15h10.6
							v-2h9.4v1.8H498V89.7h-10.1v-1.2h12.2v-11h-12.2v-2.2c3.2-0.7,6.3-1.7,9.2-2.8l2.8-1.1l-2.1-2.2l-5.5-5.7L491.4,62.6
							L491.4,62.6L491.4,62.6z M475.1,77.5c0.7-0.1,1.3-0.2,2-0.2v0.2H475.1z M463,90.3l1.4-2.1v0.2h12.8v1.2h-9.9V94L463,90.3
							L463,90.3z M477.8,100.3h9.4v1.5h-9.4V100.3L477.8,100.3z"/>
					</g>
				</g>
				<g>
					<g>
						<path d="M207.8,174.5v-10.9c0-0.6,0-1.4,0.1-2.1l-3.9,10.6h-5.2l-3.8-10.3c0,0.7,0.1,1.3,0.1,1.9v10.9h-8.2v-30.8h9.2
							l4.8,13.1c0.3,0.8,0.5,1.6,0.8,2.4c0.2-0.8,0.5-1.6,0.7-2.3l4.6-13.1h9.2v30.8L207.8,174.5L207.8,174.5z"/>
						<path class="st1" d="M215.1,144.7v28.8h-6.3v-9.9c0-2.9,0.5-7.1,0.9-10h-0.1l-2.4,6.9l-3.9,10.5h-3.8l-3.9-10.5l-2.3-6.9h-0.1
							c0.4,2.8,0.9,7.1,0.9,10v9.9h-6.2v-28.8h7.5l4.6,12.4c0.6,1.7,1,3.5,1.6,5.3h0.2c0.6-1.8,1-3.6,1.6-5.3l4.4-12.4H215.1
							 M217.1,142.7h-10.9l-0.5,1.3l-4.2,11.8l-4.4-11.8l-0.5-1.3h-10.9v32.8H196v-8l1.6,4.2l0.5,1.3h6.6l0.5-1.3l1.6-4.4v8.1h10.3
							L217.1,142.7L217.1,142.7L217.1,142.7z"/>
					</g>
					<g>
						<rect x="220.7" y="143.7" width="8.9" height="30.8"/>
						<path class="st1" d="M228.6,144.7v28.8h-6.9v-28.8H228.6 M230.6,142.7h-11v32.8h11V142.7L230.6,142.7z"/>
					</g>
					<g>
						<path d="M248.5,174.5l-2.9-6.2c-0.4-0.9-0.8-1.8-1.2-2.8c-0.4,1-0.8,1.9-1.2,2.8l-2.7,6.2h-9.7l8.5-15.8l-8-15h10l2.6,5.7
							c0.4,0.8,0.8,1.7,1.2,2.6c0.4-1,0.8-1.9,1.1-2.6l2.3-5.8h9.6l-7.9,15.3l8.5,15.5L248.5,174.5L248.5,174.5z"/>
						<path class="st1" d="M256.3,144.7l-7.4,14.3l7.9,14.5h-7.7l-2.7-5.6c-0.7-1.5-1.4-3-2.1-4.8h-0.2c-0.7,1.8-1.3,3.3-2,4.8
							l-2.5,5.6h-7.4l7.9-14.8l-7.5-13.9h7.7l2.3,5.1c0.6,1.4,1.3,2.9,2.1,4.7h0.1c0.7-1.9,1.3-3.4,1.9-4.7l2.1-5.1h7.5
							 M259.6,142.7h-12l-0.5,1.3l-2.1,5.1c-0.1,0.1-0.1,0.3-0.2,0.4c-0.1-0.2-0.1-0.3-0.2-0.5l-2.3-5.1l-0.5-1.2h-12.4l1.6,3
							l6.9,13l-7.4,13.9l-1.6,3H241l0.5-1.2l2.5-5.6c0.1-0.2,0.2-0.4,0.3-0.6c0.1,0.2,0.2,0.4,0.3,0.7l2.7,5.6l0.6,1.1h12.4l-1.6-3
							l-7.4-13.6l6.9-13.3L259.6,142.7L259.6,142.7L259.6,142.7z"/>
					</g>
					<g>
						<rect x="273.6" y="143.7" width="8.9" height="30.8"/>
						<path class="st1" d="M281.5,144.7v28.8h-6.9v-28.8H281.5 M283.5,142.7h-11v32.8h11V142.7L283.5,142.7z"/>
					</g>
					<g>
						<path d="M303.3,174.5l-7.4-14.4l-0.5-1.1c0.2,1.7,0.3,3.4,0.3,5v10.6h-8.6v-30.8h8.7l7.4,14.3l0.4,1c-0.1-1.6-0.2-3.3-0.2-4.8
							v-10.5h8.6v30.8L303.3,174.5L303.3,174.5z"/>
						<path class="st1" d="M311,144.7v28.8h-7l-7.1-13.9l-2.8-6.3h-0.2c0.3,3.2,0.9,7.1,0.9,10.6v9.6h-6.6v-28.8h7l7.1,13.8l2.8,6.4
							h0.2c-0.4-3.1-0.9-7.2-0.9-10.6v-9.5h6.6 M313,142.7h-10.6v11.5l0,0l-5.4-10.4l-0.6-1.1h-10.3v32.8h10.6v-11.7l5.4,10.6
							l0.6,1.1H313V142.7L313,142.7L313,142.7z"/>
					</g>
					<g>
						<polygon points="331.1,174.5 331.1,151.4 323.3,151.4 323.3,143.7 347.8,143.7 347.8,151.4 340,151.4 340,174.5 						"/>
						<path class="st1" d="M346.8,144.7v5.7H339v23h-6.9v-23h-7.8v-5.7H346.8 M348.8,142.7h-26.5v9.8h7.8v23h11v-23h7.8L348.8,142.7
							L348.8,142.7L348.8,142.7z"/>
					</g>
					<g>
						<polygon points="366.7,174.5 366.7,162.6 359.2,162.6 359.2,174.5 350.3,174.5 350.3,143.7 359.2,143.7 359.2,154.6 
							366.7,154.6 366.7,143.7 375.5,143.7 375.5,174.5 						"/>
						<path class="st1" d="M374.5,144.7v28.8h-6.8v-11.8h-9.5v11.8h-6.9v-28.8h6.9v10.9h9.5v-10.9H374.5 M376.5,142.7h-10.9v10.9
							h-5.4v-10.9h-11v32.8h11v-11.8h5.4v11.8h10.9V142.7L376.5,142.7z"/>
					</g>
					<g>
						<polygon points="380.2,174.5 380.2,143.7 400.5,143.7 400.5,151.4 389.1,151.4 389.1,154.7 398.8,154.7 398.8,162.6 
							389.1,162.6 389.1,166.6 400.9,166.6 400.9,174.5 						"/>
						<path class="st1" d="M399.5,144.7v5.7h-11.3v5.3h9.6v5.8h-9.6v6.1H400v5.8h-18.7v-28.8L399.5,144.7 M401.5,142.7h-22.3v32.8
							h22.7v-9.8h-11.8v-2.1h9.6v-9.8h-9.6v-1.3h11.3L401.5,142.7L401.5,142.7L401.5,142.7z"/>
					</g>
					<g>
						<path d="M426.6,175c-7.2,0-14.5-4.9-14.5-15.8c0-8,5.1-16.1,14.7-16.1c4.8,0,8,2.5,9.5,4.1l0.6,0.6l-4.9,5.9l-0.8-0.7
							c-1.5-1.4-2.8-2-4.3-2c-3.4,0-5.8,3.3-5.8,7.9c0,5,2.1,8,5.7,8c2.2,0,3.8-1.2,4.8-2.3l0.8-0.8l4.9,5.9l-0.6,0.6
							C434.2,173.4,430.7,175,426.6,175L426.6,175z"/>
						<path class="st1" d="M426.8,144.1c3.8,0,6.8,1.7,8.7,3.8l-3.6,4.4c-1.4-1.3-2.9-2.2-5-2.2c-3.7,0-6.8,3.3-6.8,8.9
							s2.6,9.1,6.7,9.1c2.3,0,4.1-1.2,5.5-2.6l3.6,4.3c-2.4,2.8-5.6,4.2-9.4,4.2c-7.3,0-13.5-5-13.5-14.8S419.5,144.1,426.8,144.1
							 M426.8,142.1c-4.2,0-8.2,1.6-11,4.6c-3.1,3.1-4.7,7.5-4.7,12.6c0,11.6,7.8,16.8,15.5,16.8c4.4,0,8.1-1.7,10.9-4.9l1.1-1.3
							l-1.1-1.3l-3.6-4.3l-1.5-1.8l-1.6,1.7c-0.8,0.9-2.2,2-4,2c-4.2,0-4.7-4.9-4.7-7c0-4.1,1.9-6.9,4.8-6.9c1.2,0,2.3,0.5,3.6,1.7
							l1.6,1.4l1.4-1.6l3.6-4.4l1.2-1.4l-1.3-1.3C435.4,144.9,432,142.1,426.8,142.1L426.8,142.1L426.8,142.1z"/>
					</g>
					<g>
						<rect x="439.2" y="143.7" width="8.9" height="30.8"/>
						<path class="st1" d="M447.1,144.7v28.8h-6.9v-28.8H447.1 M449.1,142.7h-11v32.8h11V142.7L449.1,142.7z"/>
					</g>
					<g>
						<polygon points="458.3,174.5 458.3,151.4 450.5,151.4 450.5,143.7 475,143.7 475,151.4 467.2,151.4 467.2,174.5 						"/>
						<path class="st1" d="M474,144.7v5.7h-7.8v23h-6.9v-23h-7.8v-5.7H474 M476,142.7h-26.5v9.8h7.8v23h11v-23h7.8L476,142.7
							L476,142.7L476,142.7z"/>
					</g>
					<g>
						<path d="M481.6,174.5v-10.9l-9.2-19.8h9.6l2.6,7c0.5,1.4,1,2.7,1.5,4c0.3-0.7,4.2-11.1,4.2-11.1h9.5l-9.3,19.8v10.9
							L481.6,174.5L481.6,174.5z"/>
						<path class="st1" d="M498.2,144.7l-8.7,18.6v10.2h-6.9v-10.2l-8.7-18.6h7.4l2.4,6.4c0.8,2.2,1.5,4.2,2.3,6.4h0.1
							c0.8-2.2,1.6-4.2,2.4-6.4l2.4-6.4H498.2 M501.4,142.7h-11.8l-0.5,1.3l-2.4,6.4l-0.6,1.5c-0.2-0.5-0.4-1-0.5-1.4l-2.4-6.4
							l-0.5-1.3h-11.9l1.3,2.9l8.5,18.2v11.7h10.9v-11.7l8.5-18.2L501.4,142.7L501.4,142.7L501.4,142.7z"/>
					</g>
				</g>
			</g>
			<g>
				<path class="st0" d="M258.1,191.3h-9.7l-0.4,1.3l-10.2,30.9l0.5-5.5l0.2-2.1h-5l2-22.6l0.2-2.1H223l-0.6,0.6L200,216.1l-0.4,0.5
					l-0.1,0.6l-0.8,9.2l-0.2,2.1h20.3l-0.5,5.4l-0.2,2.1h13.5l0.1-1.7l0.5-5.8h3.9l-1.9,5.7l-0.8,2.5h9.6l0.4-1.3l13.7-41.5
					L258.1,191.3z M215.3,216l5.1-5.4l-0.5,5.4H215.3L215.3,216z"/>
				<path class="st0" d="M352.2,223.1c0.8-0.6,2-1.3,3.3-2.2c4.2-2.8,7.2-5.4,9-7.8c1.8-2.5,2.9-5.2,3.1-8c0.2-2.7-0.3-5.2-1.6-7.4
					c-1.3-2.2-3.2-3.9-5.7-4.9c-2.4-1-5.6-1.5-9.8-1.5s-7.2,0.5-9.7,1.6s-4.5,2.6-6.1,4.7c-1.5,2-2.6,4.7-3.4,8.1l-0.5,2.1l2.2,0.2
					l11.1,0.9l1.6,0.1l0.4-1.6c0.5-2.3,1.2-3.3,1.7-3.8c0.6-0.6,1.4-0.9,2.3-0.9c1.1,0,1.6,0.4,1.9,0.7c0.5,0.5,0.6,1,0.6,1.7
					c-0.1,0.7-0.5,1.6-1.3,2.6c-0.6,0.8-2.2,2.3-6.4,5.2c-5.9,4.1-9.9,7.6-12.3,10.7c-2.4,3.1-3.9,6.5-4.6,10.1l-0.5,2.3H365
					l0.1-1.7l0.8-9.1l0.2-2.1L352.2,223.1L352.2,223.1z"/>
				<path class="st0" d="M399.7,211.7c-0.1-0.1-0.2-0.1-0.4-0.2c0.8-0.6,1.5-1.3,2-2.1c1.3-1.7,2-3.6,2.2-5.7
					c0.3-3.6-0.9-6.6-3.5-8.9c-2.5-2.3-6.6-3.4-12.4-3.4c-4.9,0-8.9,1-11.9,3s-5.2,4.9-6.5,8.7l-0.7,2.1l2.2,0.4l10.4,1.9l0.7,0.1
					l-0.1,0.9l-1.3,8l-0.5,2.9l2.9-0.8c1.7-0.5,2.7-0.6,3.2-0.6c1.4,0,2,0.5,2.3,0.9c0.5,0.6,0.7,1.6,0.6,2.9
					c-0.1,1.4-0.6,2.4-1.3,3.2c-0.7,0.7-1.5,1.1-2.5,1.1c-1.2,0-1.7-0.4-2-0.7s-0.9-1.2-1.1-3.6l-0.2-1.9l-1.9,0.2l-11.3,1.5l-2,0.3
					l0.4,2c0.6,2.8,1.5,5.1,2.9,7s3.3,3.4,5.7,4.4c2.3,1,5.3,1.4,9.3,1.4s7.4-0.6,10-1.9c2.7-1.3,4.9-3.2,6.5-5.6
					c1.6-2.4,2.5-5,2.7-7.6c0.2-2.2-0.1-4.1-0.9-5.8C402.4,214.1,401.2,212.7,399.7,211.7L399.7,211.7z M383.4,206
					c0.5-2.1,1.1-2.9,1.5-3.2c0.5-0.5,1.2-0.7,2-0.7c1.1,0,1.4,0.4,1.5,0.5c0.2,0.2,0.4,0.6,0.4,1.5c-0.1,0.8-0.4,1.4-1.1,2.1
					c-0.7,0.6-1.5,0.9-2.5,0.9c-0.1,0-0.5,0-1.2-0.1l-0.8-0.1L383.4,206L383.4,206z"/>
				<polygon class="st0" points="421.7,221 419.6,221 407.7,221 406,221 405.8,222.7 404.8,233.9 404.6,236 406.7,236 418.6,236 
					420.4,236 420.5,234.2 421.5,223.1 				"/>
				<path class="st0" d="M497.1,216h-3l2-22.6l0.2-2.1h-12.6l-0.6,0.6l-22.4,24.2l-0.4,0.5l-0.1,0.6l-0.5,5.9h-13.9
					c0.8-0.6,2-1.3,3.3-2.2c4.2-2.8,7.2-5.4,9-7.8c1.8-2.5,2.9-5.2,3.1-8c0.2-2.7-0.3-5.2-1.6-7.4c-1.3-2.2-3.2-3.9-5.7-4.9
					c-2.4-1-5.6-1.5-9.8-1.5s-7.2,0.5-9.7,1.6s-4.5,2.6-6.1,4.7c-1.5,2-2.6,4.7-3.4,8.1l-0.5,2.1l2.2,0.2l11.1,0.9l1.6,0.1l0.4-1.6
					c0.5-2.3,1.2-3.3,1.7-3.8c0.6-0.6,1.4-0.9,2.3-0.9c1.1,0,1.6,0.4,1.9,0.7c0.5,0.5,0.6,1,0.6,1.7c-0.1,0.7-0.5,1.6-1.3,2.6
					c-0.6,0.8-2.2,2.3-6.4,5.2c-5.9,4.1-9.9,7.6-12.3,10.7c-2.4,3.1-3.9,6.5-4.6,10.1l-0.5,2.3h37.5l0.1-1.7l0.5-5.8h20.1l-0.5,5.4
					l-0.2,2.1h13.5l0.1-1.7l0.5-5.8h5l0.1-1.7l0.8-8.7l0.2-2.1L497.1,216L497.1,216z M475.9,216l5.1-5.4l-0.5,5.4H475.9z"/>
				<path class="st0" d="M273.8,192.9h-1.1l-0.5,1c-1.2,2.2-2.8,4-4.7,5.5c-2,1.5-4.7,2.8-8.2,3.9l-1.2,0.4L258,205l-0.8,8.7
					l-0.2,2.8l2.7-0.8c2.6-0.8,4.8-1.6,6.6-2.5c0.7-0.4,1.5-0.8,2.3-1.2l-1.9,21.6l-0.2,2.1h14.6l0.1-1.7l3.4-38.9l0.2-2.1
					L273.8,192.9L273.8,192.9z"/>
				<path class="st0" d="M320.5,204.1l0.6-0.5l0.1-0.8l0.6-7.2l0.2-2.1h-34.8l-0.1,1.7l-0.8,9l-0.2,2.1H303
					c-3.1,3.8-5.5,7.4-7.3,10.8c-2.2,4.4-4.1,9.8-5.5,16.2l-0.5,2.3h14.6l0.3-1.6c0.7-4.3,1.7-8.1,3-11.3c1.6-4.1,3.6-7.8,6-11.1
					C315.4,209,317.8,206.4,320.5,204.1L320.5,204.1z"/>
				<polygon class="st0" points="312.9,221 311.1,221 311,222.7 310,233.9 309.8,236 311.9,236 323.8,236 325.5,236 325.7,234.2 
					326.7,223.1 326.8,221 324.8,221 				"/>
			</g>
			<g>
				<g>
					<path class="st0" d="M216.3,232.2l0.7-7.5h-20.3l0.9-10.6l23-24.7h11.2l-2.2,24.7h5l-0.9,10.7h-5l-0.7,7.5L216.3,232.2
						L216.3,232.2z M217.9,214.1l0.8-8.8l-8.3,8.8H217.9L217.9,214.1z"/>
					<path class="st2" d="M230.7,190.4l-2.2,24.7h5l-0.8,8.7h-5l-0.7,7.5h-9.7l0.7-7.5h-20.3l0.8-9.2l22.4-24.2H230.7 M219.9,202.4
						L208,215h10.7L219.9,202.4 M232.9,188.4h-12.8l-0.6,0.6l-22.4,24.2l-0.5,0.5l-0.1,0.7l-0.8,9.2l-0.2,2.2h20.3l-0.5,5.3
						l-0.2,2.2h13.7l0.2-1.8l0.5-5.7h5l0.2-1.8l0.8-8.7l0.2-2.2h-5l2-22.5L232.9,188.4L232.9,188.4L232.9,188.4z M212.7,213.1
						l4.7-5.1l-0.4,5.1H212.7z"/>
				</g>
				<g>
					<polygon class="st0" points="231.9,232.9 246.2,189.4 254.1,189.4 239.7,232.9 					"/>
					<path class="st2" d="M252.7,190.4L239,231.9h-5.6l13.7-41.5H252.7 M255.4,188.4h-9.9l-0.4,1.4l-13.7,41.5l-0.9,2.6h9.9l0.4-1.4
						l13.7-41.5L255.4,188.4L255.4,188.4L255.4,188.4z"/>
				</g>
				<g>
					<path class="st0" d="M325.9,232.2l0.2-1.2c0.7-3.4,2.2-6.7,4.5-9.7c2.2-3,6.3-6.5,12.1-10.5c3.4-2.4,5.6-4.2,6.5-5.3
						s1.4-2.1,1.5-3.1c0.1-0.9-0.2-1.7-0.8-2.4c-0.6-0.7-1.5-1-2.6-1c-1.2,0-2.1,0.4-2.9,1.1c-0.8,0.8-1.5,2.2-1.9,4.2l-0.2,0.9
						l-13.1-1.1l0.2-1.1c0.7-3.3,1.8-5.9,3.2-7.7c1.4-1.9,3.4-3.4,5.7-4.4c2.3-1,5.5-1.5,9.4-1.5c4.1,0,7.2,0.5,9.4,1.4
						c2.3,1,4.1,2.5,5.3,4.5c1.2,2,1.7,4.3,1.5,6.8c-0.2,2.6-1.2,5.1-3,7.5c-1.7,2.3-4.6,4.9-8.7,7.6c-2.4,1.5-4,2.6-4.7,3.2
						c-0.2,0.2-0.5,0.4-0.8,0.6h15.8l-1,11.1L325.9,232.2L325.9,232.2z"/>
					<path class="st2" d="M347.7,190.4c3.9,0,6.9,0.4,9,1.3c2.1,0.9,3.7,2.3,4.8,4.1c1.1,1.9,1.5,3.9,1.3,6.2
						c-0.2,2.4-1.1,4.8-2.8,7s-4.5,4.7-8.5,7.3c-2.4,1.6-4,2.6-4.8,3.3s-1.8,1.4-2.9,2.4h17.4l-0.8,9.1h-33.5
						c0.7-3.3,2.1-6.4,4.3-9.3c2.2-2.9,6.1-6.4,11.9-10.3c3.5-2.4,5.7-4.3,6.8-5.5c1-1.3,1.6-2.5,1.7-3.6c0.1-1.2-0.2-2.3-1.1-3.1
						s-1.9-1.3-3.3-1.3s-2.6,0.4-3.6,1.3c-1,0.9-1.7,2.5-2.2,4.7l-11.1-0.9c0.7-3.1,1.7-5.6,3-7.4s3.1-3.1,5.3-4.1
						S344,190.4,347.7,190.4 M347.7,188.4c-4.1,0-7.3,0.5-9.7,1.6c-2.5,1.1-4.6,2.6-6.1,4.7c-1.5,2-2.6,4.7-3.4,8.1L328,205l2.3,0.2
						l11.1,0.9l1.7,0.1l0.4-1.7c0.5-2.4,1.3-3.4,1.6-3.7c0.6-0.6,1.3-0.8,2.3-0.8c1.1,0,1.6,0.4,1.9,0.7c0.4,0.4,0.6,0.9,0.5,1.6
						c-0.1,0.7-0.5,1.6-1.2,2.5c-0.6,0.8-2.2,2.3-6.4,5.1c-5.9,4.1-10,7.6-12.3,10.8c-2.4,3.1-3.9,6.6-4.7,10.1l-0.5,2.4h37.8
						l0.2-1.8l0.8-9.1l0.2-2.2h-13.9c0.8-0.6,1.8-1.2,3-2c4.3-2.8,7.2-5.4,9-7.8c1.8-2.5,2.9-5.2,3.1-8c0.2-2.7-0.3-5.2-1.6-7.4
						c-1.3-2.2-3.2-3.9-5.7-4.9C355.2,188.9,352,188.4,347.7,188.4L347.7,188.4L347.7,188.4z"/>
				</g>
				<g>
					<path class="st0" d="M382,232.9c-3.8,0-6.7-0.4-8.9-1.4c-2.2-0.9-4-2.3-5.3-4.1s-2.2-4-2.8-6.6l-0.2-1.1l13.4-1.8l0.1,1
						c0.3,2.5,0.9,3.6,1.4,4.1c0.7,0.7,1.5,1,2.7,1s2.3-0.4,3.2-1.4c0.9-0.9,1.5-2.2,1.6-3.8s-0.1-2.8-0.8-3.6
						c-0.7-0.8-1.7-1.2-3-1.2c-0.8,0-1.9,0.2-3.4,0.6l-1.5,0.4l1.7-10.5l1,0.1c0.7,0.1,1.1,0.1,1.3,0.1c1.2,0,2.2-0.4,3.1-1.1
						c0.9-0.8,1.3-1.6,1.4-2.6c0.1-0.9-0.1-1.6-0.6-2.2s-1.2-0.8-2.2-0.8c-1.1,0-1.9,0.3-2.6,0.9c-0.7,0.6-1.3,1.9-1.7,3.7l-0.2,0.9
						l-12.5-2.3l0.4-1.1c1.2-3.6,3.3-6.3,6.1-8.2c2.8-1.9,6.6-2.9,11.4-2.9c5.5,0,9.4,1,11.8,3.2s3.5,4.9,3.2,8.2
						c-0.2,1.9-0.9,3.7-2,5.2c-0.8,1-1.8,2-3,2.8c0.6,0.2,1.1,0.5,1.6,0.8c1.4,0.9,2.5,2.1,3.2,3.7c0.7,1.5,1,3.3,0.8,5.3
						c-0.2,2.5-1.1,4.9-2.6,7.2s-3.6,4.1-6.1,5.3C389.1,232.3,385.8,233,382,232.9L382,232.9z"/>
					<path class="st2" d="M384.9,190.4c5.2,0,8.9,1,11.1,2.9s3.1,4.4,2.9,7.4c-0.1,1.7-0.8,3.3-1.8,4.7c-1.1,1.4-2.6,2.6-4.6,3.7
						c1.5,0.4,2.7,0.8,3.4,1.3c1.3,0.8,2.2,1.9,2.8,3.2c0.6,1.3,0.9,2.9,0.7,4.8c-0.2,2.3-1,4.6-2.4,6.7c-1.4,2.1-3.3,3.8-5.7,5
						s-5.5,1.7-9.2,1.7s-6.5-0.4-8.5-1.3s-3.7-2.1-4.9-3.8c-1.2-1.6-2.1-3.7-2.6-6.2l11.3-1.5c0.2,2.2,0.8,3.8,1.6,4.7
						c0.9,0.9,2,1.3,3.4,1.3c1.5,0,2.8-0.6,3.9-1.6c1.1-1.1,1.7-2.6,1.9-4.4c0.2-1.9-0.2-3.3-1.1-4.3s-2.1-1.5-3.8-1.5
						c-0.9,0-2.1,0.2-3.7,0.7l1.3-8c0.6,0.1,1.1,0.1,1.4,0.1c1.5,0,2.7-0.5,3.8-1.4s1.6-2,1.8-3.3c0.1-1.2-0.2-2.2-0.8-2.9
						c-0.7-0.7-1.6-1.1-2.9-1.1s-2.4,0.4-3.3,1.2s-1.6,2.2-2,4.2l-10.4-1.9c1.2-3.4,3.1-5.9,5.7-7.7
						C376.7,191.3,380.3,190.4,384.9,190.4 M384.8,188.4c-5,0-9,1-11.9,3c-3,2-5.2,5-6.5,8.7l-0.8,2.2l2.3,0.4l10.4,1.9l0.6,0.1
						l-0.1,0.8l-1.3,8l-0.5,3.1l3-0.8c1.7-0.5,2.7-0.6,3.1-0.6c1.4,0,1.9,0.5,2.2,0.8c0.5,0.6,0.7,1.6,0.6,2.9
						c-0.1,1.4-0.5,2.4-1.3,3.1c-0.7,0.7-1.5,1.1-2.5,1.1c-1.2,0-1.7-0.4-2-0.7c-0.2-0.2-0.8-1.1-1.1-3.5l-0.2-2l-2,0.3l-11.3,1.5
						l-2.1,0.3l0.4,2.1c0.6,2.8,1.6,5.1,2.9,7c1.4,1.9,3.4,3.4,5.7,4.4c2.3,1,5.4,1.4,9.3,1.4s7.4-0.6,10.1-1.9
						c2.7-1.3,4.9-3.2,6.5-5.7c1.6-2.4,2.5-5,2.7-7.6c0.2-2.2-0.1-4.2-0.9-5.8c-0.8-1.7-2-3.1-3.5-4.1c-0.1-0.1-0.1-0.1-0.2-0.1
						c0.7-0.6,1.4-1.3,1.9-2c1.3-1.7,2-3.6,2.2-5.8c0.3-3.6-0.9-6.6-3.5-9C394.7,189.5,390.6,188.4,384.8,188.4L384.8,188.4
						L384.8,188.4z M380.4,203.9l0.2-0.7c0.5-2.1,1.1-2.9,1.4-3.1c0.5-0.5,1.1-0.7,2-0.7c1,0,1.3,0.3,1.4,0.4
						c0.2,0.2,0.4,0.6,0.3,1.4c-0.1,0.8-0.4,1.4-1.1,2s-1.5,0.9-2.5,0.9c-0.1,0-0.5,0-1.1-0.1L380.4,203.9L380.4,203.9L380.4,203.9z
						"/>
				</g>
				<g>
					<polygon class="st0" points="402.8,232.2 403.9,219.1 417.9,219.1 416.7,232.2 					"/>
					<path class="st2" d="M416.8,220.1l-1,11.2h-11.9l1-11.2H416.8 M418.9,218.1H403l-0.2,1.8l-1,11.2l-0.2,2.2h15.9l0.2-1.8l1-11.2
						L418.9,218.1L418.9,218.1L418.9,218.1z"/>
				</g>
				<g>
					<path class="st0" d="M419.4,232.2l0.2-1.2c0.7-3.4,2.2-6.7,4.5-9.7c2.2-3,6.3-6.5,12.1-10.5c3.4-2.4,5.6-4.2,6.5-5.3
						s1.4-2.1,1.5-3.1c0.1-0.9-0.2-1.7-0.8-2.4c-0.6-0.7-1.5-1-2.6-1c-1.2,0-2.1,0.4-2.9,1.1c-0.8,0.8-1.5,2.2-1.9,4.2l-0.2,0.9
						l-13.1-1.1l0.2-1.1c0.7-3.3,1.8-5.9,3.2-7.7c1.4-1.9,3.3-3.4,5.7-4.4c2.3-1,5.5-1.5,9.4-1.5c4.1,0,7.2,0.5,9.4,1.4
						c2.3,1,4.1,2.5,5.3,4.5c1.2,2,1.7,4.3,1.5,6.8c-0.2,2.6-1.2,5.1-3,7.5c-1.7,2.3-4.6,4.9-8.7,7.6c-2.4,1.5-4,2.6-4.7,3.2
						c-0.2,0.2-0.5,0.4-0.8,0.6H456l-1,11.1L419.4,232.2L419.4,232.2z"/>
					<path class="st2" d="M441.2,190.4c3.9,0,6.9,0.4,9,1.3c2.1,0.9,3.7,2.3,4.8,4.1c1.1,1.9,1.5,3.9,1.3,6.2
						c-0.2,2.4-1.1,4.8-2.8,7s-4.5,4.7-8.5,7.3c-2.4,1.6-4,2.6-4.8,3.3s-1.8,1.4-2.9,2.4h17.4l-0.8,9.1h-33.5
						c0.7-3.3,2.1-6.4,4.3-9.3c2.2-2.9,6.1-6.4,11.9-10.3c3.5-2.4,5.7-4.3,6.8-5.5c1-1.3,1.6-2.5,1.7-3.6c0.1-1.2-0.2-2.3-1.1-3.1
						s-1.9-1.3-3.3-1.3s-2.6,0.4-3.6,1.3c-1,0.9-1.7,2.5-2.2,4.7l-11.1-0.9c0.7-3.1,1.7-5.6,3-7.4s3.1-3.1,5.3-4.1
						S437.5,190.4,441.2,190.4 M441.2,188.4c-4.1,0-7.3,0.5-9.7,1.6c-2.5,1.1-4.6,2.6-6.1,4.7c-1.5,2-2.6,4.7-3.4,8.1l-0.5,2.2
						l2.3,0.2l11.1,0.9l1.7,0.1l0.4-1.7c0.5-2.4,1.3-3.4,1.6-3.7c0.6-0.6,1.3-0.8,2.3-0.8c1.1,0,1.6,0.4,1.9,0.7
						c0.4,0.4,0.6,0.9,0.5,1.6c-0.1,0.7-0.5,1.6-1.2,2.5c-0.6,0.8-2.2,2.3-6.4,5.1c-5.9,4.1-10,7.6-12.3,10.8
						c-2.4,3.1-3.9,6.6-4.7,10.1l-0.5,2.4H456l0.2-1.8l0.8-9.1l0.2-2.2h-13.9c0.8-0.6,1.8-1.2,3-2c4.3-2.8,7.2-5.4,9-7.8
						c1.8-2.5,2.9-5.2,3.1-8c0.2-2.7-0.3-5.2-1.6-7.4c-1.3-2.2-3.2-3.9-5.7-4.9C448.7,188.9,445.5,188.4,441.2,188.4L441.2,188.4
						L441.2,188.4z"/>
				</g>
				<g>
					<path class="st0" d="M477,232.2l0.7-7.5h-20.3l0.9-10.6l23-24.7h11.2l-2.2,24.7h5l-0.9,10.7h-5l-0.7,7.5L477,232.2L477,232.2z
						 M478.5,214.1l0.8-8.8l-8.3,8.8H478.5L478.5,214.1z"/>
					<path class="st2" d="M491.4,190.4l-2.2,24.7h5l-0.8,8.7h-5l-0.7,7.5H478l0.7-7.5h-20.3l0.8-9.2l22.4-24.2H491.4 M480.6,202.4
						L468.7,215h10.7L480.6,202.4 M493.5,188.4h-12.8l-0.6,0.6l-22.4,24.2l-0.5,0.5l-0.1,0.7l-0.8,9.2l-0.2,2.2h20.3l-0.5,5.3
						l-0.2,2.2h13.7l0.2-1.8l0.5-5.7h5l0.2-1.8l0.8-8.7l0.2-2.2h-5l2-22.5L493.5,188.4L493.5,188.4L493.5,188.4z M473.3,213.1
						l4.7-5.1l-0.4,5.1H473.3z"/>
				</g>
				<g>
					<g>
						<path class="st0" d="M264.5,231.9l2.1-24.5c-1.3,0.8-2.5,1.5-3.7,2.1c-1.7,0.8-3.9,1.6-6.5,2.4l-1.4,0.4l0.9-10.9l0.6-0.2
							c3.6-1.1,6.5-2.5,8.5-4s3.7-3.5,5-5.8l0.3-0.5h10.5l-3.6,40.9L264.5,231.9L264.5,231.9z"/>
						<path class="st2" d="M279.7,192l-3.4,38.9h-10.8l2.2-25.5c-1.9,1.3-3.6,2.4-5.3,3.2c-1.7,0.8-3.8,1.6-6.3,2.4l0.8-8.7
							c3.7-1.2,6.6-2.6,8.8-4.2c2.1-1.6,3.9-3.6,5.2-6.1L279.7,192 M281.9,190h-12.1l-0.6,1c-1.2,2.1-2.8,4-4.7,5.4
							c-2,1.5-4.7,2.8-8.2,3.9l-1.3,0.4l-0.1,1.3l-0.8,8.7l-0.3,2.9l2.8-0.8c2.6-0.8,4.8-1.6,6.6-2.5c0.7-0.3,1.4-0.7,2.1-1.1
							l-1.9,21.4l-0.2,2.2H278l0.2-1.8l3.4-38.9L281.9,190L281.9,190L281.9,190z"/>
					</g>
					<g>
						<path class="st0" d="M287.9,231.9l0.3-1.2c1.4-6.3,3.2-11.7,5.4-15.9c1.9-3.8,4.8-7.9,8.4-12.1h-17.8l1-11h33l-0.8,8.7
							l-0.3,0.3c-2.8,2.4-5.3,5-7.3,7.7c-2.4,3.4-4.5,7.2-6.1,11.3c-1.3,3.2-2.3,7.1-3,11.5l-0.1,0.8L287.9,231.9L287.9,231.9z"/>
						<path class="st2" d="M317.1,192.6l-0.6,7.2c-2.9,2.4-5.4,5.1-7.5,7.9c-2.5,3.4-4.6,7.3-6.2,11.5c-1.3,3.3-2.3,7.2-3.1,11.7
							h-10.6c1.4-6.2,3.1-11.5,5.3-15.7c2.2-4.2,5.4-8.8,9.7-13.6h-18.9l0.8-9L317.1,192.6 M319.3,190.6h-35l-0.2,1.8l-0.8,9
							l-0.2,2.2h16.8c-3,3.7-5.4,7.3-7.1,10.7c-2.2,4.4-4.1,9.8-5.5,16.2l-0.5,2.4h14.8l0.3-1.7c0.7-4.3,1.7-8.1,2.9-11.3
							c1.6-4.1,3.6-7.8,6-11.1c2-2.7,4.4-5.2,7.1-7.6l0.6-0.5l0.1-0.8l0.6-7.2L319.3,190.6L319.3,190.6L319.3,190.6z"/>
					</g>
				</g>
				<g>
					<polygon class="st0" points="307.9,232.2 309.1,219.1 323,219.1 321.9,232.2 					"/>
					<path class="st2" d="M321.9,220.1l-1,11.2H309l1-11.2H321.9 M324.1,218.1h-15.9l-0.2,1.8l-1,11.2l-0.2,2.2h15.9l0.2-1.8l1-11.2
						L324.1,218.1L324.1,218.1L324.1,218.1z"/>
				</g>
			</g>
		</g>
	</g>
</g>
<g>
	<path class="st0" d="M195.7,263.5c0.7-7.7,4.4-13.2,8.2-16.5l3.8,1.7c-3.4,3.4-6.7,8.1-7.3,14.9c-0.6,6.8,1.8,11.4,4.7,14.9
		l-4.1,1.7C197.8,276.7,195.1,271.2,195.7,263.5z"/>
	<path class="st0" d="M237.6,272.9l-0.5,5.1h-29.9l0.5-5.1H237.6z M237.7,250.5l-0.5,5.1H211l0.5-5.1H237.7z M234,261.5l-0.5,5h-21
		l0.5-5H234z"/>
	<path class="st0" d="M294.7,265.2c-0.3,0.4-0.5,0.9-0.8,1.2h13.6c0,0-0.1,1.1-0.3,1.6c-1,6.5-1.8,9.3-2.8,10.4
		c-0.8,0.9-1.6,1.1-2.6,1.3c-0.9,0.1-2.1,0.2-3.5,0.1c0-0.9-0.1-2.4-0.6-3.3c-1.1,1.4-2.4,2.7-3.6,3.6c-0.8-0.9-2.1-2.1-3.3-2.8
		c2.6-1.5,5-4.2,6.7-7h-1.2c-2.1,3.1-5.6,6.5-8.6,8.3c-0.7-0.9-1.9-2.2-3-2.9c2.5-1.1,4.9-3.1,6.9-5.3h-1.2c-1.2,1.1-2.6,2.2-3.9,3
		c-0.5-0.6-1.5-1.6-2.3-2.4c-2.8,1.3-5.6,2.8-8.1,3.8l-1.3-5c1.1-0.4,2.6-0.9,4.1-1.5l0.8-9h-3.1l0.4-4.7h3.1l0.6-6.6h4.7l-0.6,6.6
		h2.8l-0.4,4.7h-2.8l-0.7,7.1l2.4-0.9l0.5,2.9c1.1-0.9,2.2-2,3.1-3.1h-3.1l0.4-4.2h21.7l-0.4,4.2L294.7,265.2L294.7,265.2z
		 M306.3,260h-16.6l1-12h16.6L306.3,260z M302.1,255.7h-7.6l-0.1,1h7.6L302.1,255.7z M302.5,251.5h-7.6l-0.1,1h7.6L302.5,251.5z
		 M301.7,270.2c-0.9,1.9-2.2,4-3.6,5.8c0.7,0,1.2,0,1.6,0c0.5,0,0.8-0.1,1-0.4c0.5-0.5,0.9-2,1.6-5.4H301.7z"/>
	<path class="st0" d="M322.2,259.5c-0.9,5-2,9.2-3.7,12.5c3.3,1.9,7.7,2.4,12.4,2.4c2.2,0,8.3,0,10.9-0.1c-0.9,1.1-1.8,3.4-2.3,4.9
		h-9.2c-5.8,0-10.7-0.6-14.4-3c-1.4,1.7-3,3.1-4.9,4.3c-0.5-1.3-1.5-3.3-2.4-4.4c1.4-0.8,2.8-1.8,3.9-3c-1.3-1.7-2.4-3.9-3.2-6.6
		l3.9-1.6c0.5,1.6,1,2.9,1.9,4.2c0.9-1.7,1.5-3.7,2-5.8h-6.2c1.6-2.7,3.7-6.3,5.4-9.8h-5.2l0.4-4.5h11.6c-1.6,3.3-3.7,7-5.4,10.3
		h0.9l0.9-0.1L322.2,259.5z M340.7,272.7h-19.6l0.4-4.6h1.4l1-12.3h4.7l-1,12.3h2.4l1.2-14.1c-2.5,0.3-4.8,0.4-7.1,0.5
		c0-1.2-0.4-3-0.9-4.2c6-0.4,12.4-1.1,17-2.5l2.3,4.2c-1.9,0.6-4,0.9-6.2,1.3l-0.5,4.9h5.3l-0.4,4.5h-5.3l-0.5,5.3h6L340.7,272.7z"
		/>
	<path class="st0" d="M374.7,274.6c-0.2,2.3-0.8,3.6-2.1,4.4c-1.4,0.8-3.2,0.9-5.8,0.9c0-1.3-0.5-3.4-0.9-4.7
		c1.2,0.1,2.9,0.1,3.4,0.1c0.5,0,0.7-0.2,0.8-0.7l0.5-6h-4.1c-0.8,4.1-2,8.4-4,11.3c-0.8-0.9-2.6-2.2-3.6-2.8l-2.9,1.6
		c-0.6-1.3-2.1-3.6-3.3-5.2l3.4-1.8h-8.3l4.5,1.3c-1.5,2.5-3.8,5.2-5.7,6.8c-0.9-0.9-2.7-2.3-3.7-2.9c1.9-1.3,3.7-3.3,4.8-5.3h-4
		l0.4-4.3h2.9l1-12.1h-2.6l0.4-4.3h2.6l0.3-3.3h4.5l-0.3,3.3h3.2l0.3-3.3h4.6l-0.3,3.3h2.2l-0.4,4.3h-2.2l-1,12.1h1.8l-0.4,4.3h-3.8
		c0.9,1.1,2.1,2.6,2.8,3.8c2.1-4.2,2.8-9.9,3.1-14.1l1.1-12.6h13.2L374.7,274.6z M351.3,267.4h3.2l0.2-1.6h-3.2L351.3,267.4z
		 M351.8,262h3.2l0.1-1.5H352L351.8,262z M352.3,255.4l-0.1,1.4h3.2l0.1-1.4H352.3z M370.8,264.1l0.3-3.4h-3.8l-0.1,0.7
		c-0.1,0.9-0.2,1.8-0.3,2.8H370.8z M368,253.2l-0.3,3.2h3.8l0.3-3.2H368z"/>
	<path class="st0" d="M409.7,274.3l-0.4,4.7h-31.5l0.4-4.7h12.9l0.4-3.9h-9.7l0.4-4.6h9.7l0.3-2.8h5.2l-0.3,2.8h10l-0.4,4.6h-10.1
		l-0.4,3.9H409.7z M405.9,264c-0.4-0.7-0.9-1.3-1.5-2.2c-16.9,0.6-19.5,0.6-21.4,1.2c-0.2-1-0.8-3.4-1.2-4.7
		c0.9-0.2,1.6-0.7,2.6-1.5c0.7-0.5,2.1-1.8,3.4-3.5H381l0.4-4.6h29.3l-0.4,4.6h-7.2c2.7,2.3,5.9,5.3,7.5,7.6L405.9,264z
		 M400.5,257.7c-0.9-0.9-1.7-1.6-2.5-2.3l3.2-2h-7.1c-1.3,1.6-2.8,3.1-4.4,4.5L400.5,257.7z"/>
	<path class="st0" d="M411.9,273.5l3.1-3.8c1.3,1.3,3,2.5,5,2.5c2.5,0,4.1-1.3,4.4-4c0.2-2.6-1.2-3.9-3.4-3.9
		c-1.4,0-2.1,0.3-3.7,1.2l-2.6-1.7l1.7-12.6h14.3l-0.5,5h-9.1l-0.8,4.3c0.9-0.4,1.7-0.5,2.7-0.5c4.3,0,7.7,2.6,7.2,8.1
		c-0.5,5.7-5.1,9-10,9C416.4,277,413.8,275.5,411.9,273.5z"/>
	<path class="st0" d="M442.2,248.7h4l-10.5,34.1h-4L442.2,248.7z"/>
	<path class="st0" d="M446.5,273.1c6.8-5.8,11.6-10.4,11.9-14.1c0.2-2.4-0.9-3.6-3-3.6c-1.7,0-3.2,1.1-4.6,2.5l-3-3.3
		c2.8-2.7,5.2-4,8.8-4c4.9,0,8.1,3.1,7.7,8c-0.4,4.4-4.6,9.2-8.8,13.2c1.2-0.2,3-0.4,4.2-0.4h4.7l-0.5,5.1h-17.7L446.5,273.1z"/>
	<path class="st0" d="M467.9,270.3c0.3-3.2,2.3-5.1,4.7-6.5v-0.2c-1.9-1.5-3-3.4-2.8-6.2c0.4-4.3,4-6.9,8.6-6.9c4.6,0,7.4,2.7,7,6.8
		c-0.2,2.5-1.9,4.5-3.7,5.7v0.2c2.3,1.2,4,3.4,3.7,6.9c-0.4,4-4.2,6.9-9.5,6.9C471,277,467.5,274.3,467.9,270.3z M479.9,269.9
		c0.2-2.2-1.7-3.2-4.7-4.6c-1.1,0.9-1.9,2.6-2.1,4.2c-0.2,2.1,1.4,3.3,3.4,3.3C478.3,272.9,479.8,271.9,479.9,269.9z M480.6,257.8
		c0.2-1.8-0.8-3-2.7-3c-1.3,0-2.7,0.9-2.8,2.7c-0.2,2,1.3,3.1,3.7,4.1C480,260.4,480.5,259.2,480.6,257.8z"/>
	<path class="st0" d="M498.4,263.5c-0.7,7.7-4.4,13.2-8.2,16.5l-3.8-1.7c3.4-3.4,6.7-8.1,7.3-14.9c0.6-6.8-1.8-11.4-4.7-14.9
		l4.1-1.7C496.3,250.3,499.1,255.9,498.4,263.5z"/>
	<path class="st0" d="M273.5,261.4l0.6-6.8h-1.9l1.2-1.4l-0.8-0.4c-0.4-0.2-0.8-0.4-1.3-0.7c0.2-0.2,0.5-0.4,0.8-0.6
		c0.5-0.4,1.1-0.8,1.8-1.3l0.9-0.6l-4.1-3l-0.4,0.6c-0.3,0.5-0.8,1.1-1.3,1.6c0.1-0.5,0.2-0.9,0.3-1.5l0.1-0.9h-5.4l-0.1,0.6
		c-0.1,0.7-0.3,1.4-0.4,2c-0.5-0.6-1.2-1.4-1.9-2l-0.4-0.4l-2.1,1.5l-2.8-1.6l-0.4,0.6c-0.1,0.2-0.3,0.5-0.5,0.7
		c0-0.2,0.1-0.3,0.1-0.5l0.2-0.9H250l-0.1,0.6c-0.2,0.8-0.3,1.5-0.6,2.1c-0.5-0.7-1.3-1.4-2-2.1l-0.4-0.4l-3.7,2.7l0.5,0.6
		c0.6,0.6,1.3,1.5,1.7,2.2c-0.4,0.1-0.9,0.3-1.5,0.4l-1.4,0.3l1,1c0.2,0.2,0.4,0.5,0.7,0.8h-1.2l-0.6,6.8h5.1l-1,11.5l-1.7-0.8
		l-0.4,0.5c-1,1.4-2.5,2.8-3.9,3.7l-1.1,0.7l5.2,2.9l0.4-0.3c1.3-0.9,2.5-2.1,3.7-3.6c0.1,1,0.1,2.1,0,2.7l-0.1,1l5.7-0.9l0-0.6
		c0.1-0.9,0-2.2-0.2-3.4c0.3,1.1,0.5,2.5,0.5,3.4l0,0.9l5.4-1.1l0-0.7c0-0.2,0-0.3-0.1-0.5l0.1,0c0,0.1,0.1,0.2,0.1,0.4l0.1,0.9
		l1.9-0.6c0.2,0.6,0.3,1.2,0.2,1.7l0,0.7l0.7,0c0.5,0,1.2,0,2,0c0.7,0,1.3,0,1.8-0.1c1.2-0.1,2.2-0.5,2.9-1.2
		c0.9-0.9,1.4-2.6,1.9-6.4c0.1-0.4,0.2-1.3,0.2-1.3l0-0.1h1.3l0.3-3.9h-6l0.5-5.6H273.5z M266.1,254.5h-0.6c0.1-0.1,0.1-0.1,0.2-0.2
		C265.8,254.4,265.9,254.5,266.1,254.5z M252.4,254.5h-1.1c0.2-0.1,0.4-0.3,0.5-0.4C252,254.3,252.2,254.4,252.4,254.5z M257,254.5
		l0.9-1.2l0.2,0.2c0.2,0.2,0.5,0.6,0.8,1H257z M258.5,252.3l-0.8,0.2l0,0c-0.2-0.2-0.5-0.4-0.7-0.5c0.2-0.2,0.5-0.4,0.7-0.6
		c0.2-0.2,0.4-0.4,0.7-0.6c0.4,0.5,0.8,1,1.1,1.4C259.2,252.1,258.9,252.2,258.5,252.3z M265.6,274c-0.2,1.1-0.3,1.4-0.4,1.5l0,0
		c-0.1-0.4-0.3-1-0.6-1.5H265.6z M260.1,276.6c0-0.1,0-0.3-0.1-0.4C260.1,276.3,260.1,276.5,260.1,276.6L260.1,276.6z"/>
</g>
<g>
	<g>
		<path class="st0" d="M197.4,276.7c-2.4-2.6-6.3-8.1-5.4-17.1c0.8-9,5.6-14.5,8.4-17l0.4-0.3l5.1,2.3l-0.8,0.8
			c-2.8,2.8-6.5,7.2-7.1,14.4c-0.7,7.1,2.3,11.6,4.6,14.3l0.6,0.8l-5.4,2.2L197.4,276.7z"/>
		<path class="st2" d="M200.9,243l3.8,1.7c-3.4,3.4-6.7,8.1-7.3,14.9c-0.6,6.8,1.8,11.4,4.7,14.9l-4.1,1.7c-3.1-3.3-6-8.8-5.2-16.5
			C193.4,252,197.1,246.5,200.9,243 M200.6,241.4l-0.7,0.6c-2.8,2.6-7.8,8.3-8.6,17.5c-0.9,9.3,3.2,15,5.6,17.7l0.7,0.8l0.9-0.4
			l4.1-1.7l1.8-0.8l-1.2-1.5c-2.2-2.7-4.9-6.9-4.4-13.9c0.6-6.9,4.2-11.3,6.8-14l1.4-1.4l-1.9-0.9l-3.8-1.7L200.6,241.4L200.6,241.4
			z"/>
	</g>
	<g>
		<path class="st0" d="M203.4,274.8l0.6-6.6h31.3l-0.6,6.6H203.4z M208.7,263.3l0.6-6.5h22.4l-0.6,6.5H208.7z M207.3,252.4l0.6-6.6
			h27.6l-0.6,6.6H207.3z"/>
		<path class="st2" d="M234.8,246.5l-0.5,5.1h-26.2l0.5-5.1H234.8 M231,257.6l-0.5,5h-21l0.5-5H231 M234.6,269l-0.5,5.1h-29.9
			l0.5-5.1H234.6 M236.3,245.1h-1.5h-26.2h-1.3l-0.1,1.3l-0.5,5.1l-0.1,1.5h1.5h26.2h1.3l0.1-1.3l0.5-5.1L236.3,245.1L236.3,245.1z
			 M232.6,256.1h-1.5h-21h-1.3l-0.1,1.3l-0.5,5l-0.1,1.5h1.5h21h1.3l0.1-1.3l0.5-5L232.6,256.1L232.6,256.1z M236.1,267.5h-1.5
			h-29.9h-1.3l-0.1,1.3l-0.5,5.1l-0.1,1.5h1.5h29.9h1.3l0.1-1.3l0.5-5.1L236.1,267.5L236.1,267.5z"/>
	</g>
	<g>
		<path class="st0" d="M290.5,276.5c-0.8-0.9-2-2-3.1-2.6l-0.3-0.2c-0.7,0.5-1.3,0.9-2,1.3l-0.6,0.4l-0.4-0.6
			c-0.7-0.9-1.8-2.1-2.8-2.8l-1-0.7l1.1-0.6c0.6-0.3,1.2-0.6,1.8-1l-0.2-0.3c-0.4-0.5-1.1-1.3-1.9-2c-2.3,1.1-4.8,2.4-7.6,3.6
			l-0.8,0.4l-1.8-6.5l0.7-0.2c0.9-0.3,2.1-0.8,3.7-1.3l0.7-7.8h-3.1l0.6-6.1h3.1l0.6-6.6h6.1l-0.6,6.6h2.8l-0.6,6.1h-2.8l-0.5,5.3
			l1.1-0.5l0.4-4.5h2.8l1.1-12.9h18l-1.1,12.9h2.4l-0.5,5.6h-0.6l-0.1,0.6c0,0-0.1,1.1-0.3,1.7c-1,6.6-1.8,9.5-3,10.7
			c-1,1.1-2.2,1.4-3,1.5c-0.7,0.1-1.5,0.2-2.7,0.2c-0.3,0-0.7,0-1,0h-0.7v-0.7c0-0.5,0-1.1-0.2-1.8c-0.9,1.1-2,2-2.8,2.7l-0.6,0.4
			L290.5,276.5z M296.7,271.3c0.3,0,0.4,0,0.5-0.2c0.1-0.1,0.4-0.5,0.8-2c-0.5,0.8-0.9,1.4-1.4,2.2
			C296.6,271.3,296.6,271.3,296.7,271.3z M284.1,263c0.4-0.4,0.8-0.8,1-1H284L284.1,263z"/>
		<path class="st2" d="M282.4,243.9l-0.6,6.6h2.8l-0.4,4.7h-2.8l-0.7,7.1l2.4-0.9l0.5,2.9c1.1-0.9,2.2-2,3.1-3.1h-3.3l0.4-4.2h21.7
			l-0.4,4.2h-13.5c-0.3,0.4-0.5,0.9-0.8,1.2h13.5c0,0-0.1,1.1-0.3,1.6c-1,6.5-1.8,9.3-2.8,10.4c-0.8,0.9-1.6,1.1-2.6,1.3
			c-0.7,0.1-1.5,0.2-2.6,0.2c-0.3,0-0.7,0-0.9,0c0-0.9-0.1-2.4-0.6-3.3c-1.1,1.4-2.4,2.7-3.6,3.6c-0.8-0.9-2.1-2.1-3.3-2.8
			c2.6-1.5,5-4.2,6.7-7h-1.2c-2.1,3.1-5.6,6.5-8.6,8.3c-0.7-0.9-1.9-2.2-3-2.9c2.5-1.1,4.9-3.1,6.9-5.3h-1.2c-1.2,1.1-2.6,2.2-3.9,3
			c-0.5-0.6-1.5-1.6-2.3-2.4c-2.8,1.3-5.6,2.8-8.1,3.8l-1.3-5c1.1-0.4,2.6-0.9,4.1-1.5l0.8-9h-3.1l0.4-4.7h3.1l0.6-6.6L282.4,243.9
			 M299.2,266.2h-0.5c-0.9,1.9-2.2,4-3.6,5.8c0.7,0,1.2,0,1.6,0c0.5,0,0.8-0.1,1-0.4C298.2,271.1,298.7,269.6,299.2,266.2
			 M304.4,244.1l-1,12h-16.6l1-12H304.4 M299.4,247.5h-7.6l-0.1,1h7.6L299.4,247.5 M299.1,251.7h-7.6l-0.1,1h7.6L299.1,251.7
			 M284,242.5h-1.5h-4.7h-1.3l-0.1,1.3l-0.5,5.3h-1.8h-1.3l-0.1,1.3l-0.5,4.6l-0.1,1.5h1.5h1.6l-0.6,6.6c-1.3,0.5-2.4,0.9-3.2,1.1
			l-1.2,0.4l0.4,1.3l1.3,5l0.5,1.6l1.5-0.8c2.6-1.2,5-2.4,7.2-3.4c0.4,0.4,0.9,0.9,1.1,1.1c-0.4,0.2-0.7,0.4-1,0.6l-2.3,1l2.2,1.4
			c0.9,0.6,2,1.6,2.7,2.6l0.8,1l1.1-0.7c0.6-0.3,1.1-0.8,1.7-1.1c0.9,0.6,2.2,1.6,2.8,2.4l0.9,1l1-0.8c0.7-0.5,1.2-0.9,1.9-1.6
			c0,0.1,0,0.1,0,0.2v1.4h1.4c0.4,0,0.7,0,1,0c1.1,0,2.1-0.1,2.8-0.2c0.9-0.1,2.2-0.5,3.4-1.7c1.2-1.3,2.1-4.3,3.1-11
			c0.1-0.6,0.2-1.4,0.3-1.7h0.7l0.1-1.3l0.4-4.2l0.1-1.5h-1.5H305l0.9-11.3l0.1-1.5h-1.5h-16.6h-1.5l-0.1,1.3l-0.5,5h-1.1h-1.3
			l0.5-5L284,242.5L284,242.5z"/>
	</g>
	<g>
		<path class="st0" d="M307.4,276.6c-0.5-1.2-1.4-3.1-2.3-4.2l-0.6-0.7l0.9-0.4c1.1-0.6,2.3-1.4,3.2-2.5c-1.2-1.8-2.3-3.9-2.9-6.4
			l-0.2-0.7l5.2-2.1l0.2,0.8c0.3,1,0.7,1.9,1,2.8c0.5-1.1,0.9-2.3,1.1-3.6h-6.6l0.7-1c1.5-2.4,3.2-5.6,4.8-8.6h-4.7l0.5-5.9h13.4
			c0,0-0.7,1.4-0.9,1.6c6.6-0.4,12.6-1.2,16.6-2.5l0.6-0.2l2.9,5.5l-0.9,0.3c-1.7,0.5-3.6,0.9-5.7,1.2l-0.3,3.6h5.3l-0.5,5.9h-5.3
			l-0.4,3.9h6l-0.6,6h-15c1.6,0.2,3.2,0.2,4.7,0.2c2.3,0,8.2,0,10.9-0.1l1.5-0.1l-0.9,1.2c-0.8,1-1.7,3.2-2.2,4.7l-0.2,0.5h-9.7
			c-4.7,0-10.1-0.4-14.3-2.8c-1.4,1.6-2.9,2.8-4.7,3.9l-0.8,0.5L307.4,276.6z M316.5,267.6c0.3,0.2,0.7,0.3,0.9,0.4l0.3-3.5
			C317.4,265.7,317,266.7,316.5,267.6z M326.3,263.5l1.1-12.5c-0.8,0.1-1.5,0.2-2.3,0.2h1.3l-1,12.3H326.3z M319.3,263.5l0.7-8v0.1
			c-0.5,2.9-1,5.5-1.8,7.9H319.3z M320,254.9l0.4-3.8h0.1v-0.5c0-0.9-0.3-2.6-0.7-3.6c-1.2,2.4-2.6,4.9-3.9,7.3l0.7-0.1L320,254.9z"
			/>
		<path class="st2" d="M337.2,243.9l2.3,4.2c-1.9,0.6-4,0.9-6.2,1.3l-0.5,4.9h5.3l-0.4,4.5h-5.3l-0.5,5.3h6l-0.4,4.6H318l0.4-4.6
			h1.4l1-12.3h4.7l-1,12.3h2.4l1.2-14.1c-2.5,0.3-4.8,0.4-7.1,0.5c0-1.2-0.4-3-0.9-4.2C326.3,246.1,332.8,245.2,337.2,243.9
			 M320,244.7c-1.6,3.3-3.7,7-5.4,10.3h0.9l0.9-0.1l2.8,0.6c-0.9,5-2,9.2-3.7,12.5c3.3,1.9,7.7,2.4,12.4,2.4c2.2,0,8.3,0,10.9-0.1
			c-0.9,1.1-1.8,3.4-2.3,4.9h-9.2c-5.8,0-10.7-0.6-14.4-3c-1.4,1.7-3,3.1-4.9,4.3c-0.5-1.3-1.5-3.3-2.4-4.4c1.4-0.8,2.8-1.8,3.9-3
			c-1.3-1.7-2.4-3.9-3.2-6.6l3.9-1.6c0.5,1.6,1,2.9,1.9,4.2c0.9-1.7,1.5-3.7,2-5.8h-6.2c1.6-2.7,3.7-6.3,5.4-9.8H308l0.4-4.5H320
			 M338,242.2l-1.1,0.3c-3.7,1.1-9.2,1.9-15.3,2.4l0.8-1.5H320h-11.6h-1.3l-0.1,1.3l-0.4,4.5l-0.1,1.5h1.5h2.9
			c-1.4,2.8-3,5.5-4.3,7.6l-1.3,2.2h1.7l-1.2,0.5l-1.2,0.5l0.4,1.2c0.7,2.4,1.6,4.4,2.8,6.1c-0.9,0.9-1.7,1.4-2.7,1.9l-1.6,0.8
			l1.1,1.4c0.8,0.9,1.7,2.8,2.2,3.9l0.6,1.6l1.5-0.9c1.7-0.9,3.1-2.2,4.5-3.6c4.3,2.4,9.5,2.7,14.1,2.7h9.2h1l0.3-1
			c0.4-1.4,1.3-3.5,2.1-4.5l1.8-2.5l-2.8,0.1l0.4-4.5l0.1-1.5h-1.5h-4.4l0.2-2.5h4h1.3l0.1-1.3l0.4-4.5l0.1-1.5h-1.5h-3.8l0.2-2.3
			c1.9-0.3,3.6-0.8,5.2-1.2l1.7-0.5l-0.9-1.5l-2.3-4.2L338,242.2L338,242.2z M317,253.6c0.9-1.5,1.7-3,2.5-4.7
			c0.1,0.5,0.2,0.9,0.2,1.4l0,0l-0.1,1.3l-0.2,2.4L317,253.6L317,253.6z M311.6,260.4h0.6c-0.1,0.3-0.2,0.7-0.3,0.9
			C311.8,261,311.7,260.7,311.6,260.4L311.6,260.4z"/>
	</g>
	<g>
		<path class="st0" d="M358.9,276.4c-0.6-0.7-2.1-1.8-3-2.5l-3.3,1.8l-0.3-0.8c-0.6-1.2-1.9-3.2-3-4.7c-1.5,2.3-3.5,4.7-5.4,6.2
			l-0.5,0.4l-0.5-0.5c-0.9-0.9-2.6-2.2-3.6-2.8l-0.9-0.6l0.9-0.7c1.4-0.9,2.9-2.5,4-4h-3.4l0.5-5.7h2.9l0.9-10.6h-2.6l0.5-5.7h2.6
			l0.3-3.3h5.9l-0.3,3.3h1.7l0.3-3.3h6l-0.3,3.3h1.6l0.2-2.3h14.7l-2.4,26.7c-0.2,2.3-0.7,4-2.5,4.9c-1.4,0.9-3.2,0.9-5.5,0.9H363
			v-0.7c0-1.1-0.4-3-0.9-4.2c-0.7,1.8-1.4,3.3-2.3,4.6l-0.5,0.8L358.9,276.4z M362.9,270.5c0.6,0.1,1.3,0.1,2.3,0.1h1l0.5-5.2h-2.8
			c-0.4,1.9-0.8,3.6-1.3,5.1H362.9z M355.2,268.5c0.5,0.6,0.9,1.1,1.2,1.6c0.2-0.6,0.4-1,0.6-1.6H355.2z M349.9,268.6l0.2-0.1h-0.6
			L349.9,268.6z M358.3,262.8c0.3-1.8,0.5-3.6,0.6-5.4l0.5-5.3h-1.6l-0.9,10.6L358.3,262.8L358.3,262.8z M350.8,262.8v-0.2h-1.7v0.2
			H350.8z M367.1,259.5l0.2-2H365v0.2c-0.1,0.6-0.1,1.1-0.2,1.8H367.1z M351.3,257.4L351.3,257.4l-1.8-0.1v0.1H351.3z M351.8,252.1
			L351.8,252.1h-1.7l0,0H351.8z M367.9,251.8l0.2-1.8h-2.4l-0.2,1.8H367.9z"/>
		<path class="st2" d="M357.7,243.7l-0.3,3.3h2.2l-0.4,4.3h-2.2l-1,12.1h1.8l-0.4,4.3h-3.8c0.9,1.1,2.1,2.6,2.8,3.8
			c2.1-4.2,2.8-9.9,3.1-14.1l1.1-12.6H374l-2.3,25.8c-0.2,2.3-0.8,3.6-2.1,4.4c-1.2,0.8-2.9,0.9-5.1,0.9c-0.2,0-0.5,0-0.7,0
			c0-1.3-0.5-3.4-0.9-4.7c0.8,0.1,1.6,0.1,2.4,0.1c0.5,0,0.9,0,1,0c0.5,0,0.7-0.2,0.8-0.7l0.5-6h-4.2c-0.8,4.1-2,8.4-4,11.3
			c-0.8-0.9-2.6-2.2-3.6-2.8l-2.9,1.6c-0.6-1.3-2.1-3.6-3.3-5.2l3.4-1.8h-8.3l4.5,1.3c-1.5,2.5-3.8,5.2-5.7,6.8
			c-0.9-0.9-2.7-2.3-3.7-2.9c1.9-1.3,3.7-3.3,4.8-5.3h-4l0.4-4.3h2.9l1-12.1h-2.6l0.4-4.3h2.6l0.3-3.3h4.5l-0.3,3.3h3.2l0.3-3.3
			L357.7,243.7 M368.8,249.3H365l-0.3,3.2h3.8L368.8,249.3 M352.5,251.4h-3.2l-0.1,1.4h3.2L352.5,251.4 M352.1,256.5h-3.2l-0.1,1.5
			h3.2L352.1,256.5 M368.1,256.8h-3.8l-0.1,0.7c-0.1,0.9-0.2,1.8-0.3,2.8h3.8L368.1,256.8 M351.7,261.8h-3.2l-0.2,1.6h3.2
			L351.7,261.8 M359.4,242.3h-1.5h-4.6H352l-0.1,1.3l-0.2,2.1h-0.3l0.2-1.8l0.1-1.5h-1.6h-4.5h-1.3l-0.1,1.3l-0.2,2.1h-1.2h-1.3
			l-0.1,1.3l-0.4,4.3l-0.1,1.5h1.5h1l-0.9,9.2h-1.6h-1.3l-0.1,1.3l-0.4,4.3l-0.1,1.5h1.5h1.2c-0.9,1-1.9,2-2.9,2.7l-1.8,1.2l1.9,1.1
			c0.9,0.6,2.7,1.9,3.4,2.7l0.9,0.9l1-0.9c1.7-1.4,3.5-3.4,4.9-5.5c0.9,1.3,1.9,2.8,2.4,3.8l0.7,1.4l1.3-0.8l2.3-1.2
			c0.9,0.6,2.1,1.5,2.6,2.1l1.2,1.4l1-1.5c0.6-0.9,1-1.7,1.5-2.8c0.1,0.8,0.2,1.4,0.3,2v1.4h1.4c0.3,0,0.5,0,0.7,0
			c2.4,0,4.3-0.2,5.9-1c2.2-1.1,2.7-3.3,2.8-5.5l2.3-25.8l0.1-1.5h-1.5h-13.2h-1.3l-0.1,1.3l-0.1,0.9h-0.2l0.2-1.8L359.4,242.3
			L359.4,242.3z M366.3,250.7h0.9v0.4h-0.9V250.7L366.3,250.7z M358.4,252.8h0.2l-0.4,4.6c-0.1,1.6-0.3,3.1-0.5,4.7h-0.1
			L358.4,252.8L358.4,252.8z M365.7,258.2h0.9l-0.1,0.6h-0.9C365.6,258.6,365.6,258.4,365.7,258.2L365.7,258.2z M364.6,266h1.3
			l-0.4,3.8c-0.1,0-0.3,0-0.4,0c-0.6,0-1.1,0-1.5,0C363.9,268.7,364.3,267.3,364.6,266L364.6,266z"/>
	</g>
	<g>
		<path class="st0" d="M374,275.7l0.6-6.1h12.9l0.2-2.5H378l0.6-6h9.7l0.2-2.1c-5.5,0.2-7,0.4-8.2,0.8l-0.8,0.3l-0.2-0.8
			c-0.2-1-0.8-3.3-1.1-4.7L378,254l0.8-0.2c0.7-0.2,1.2-0.6,2.3-1.3c0.6-0.4,1.4-1.2,2.4-2.3h-6l0.6-6h30.8l-0.6,6h-6
			c2.3,2,4.7,4.5,6.2,6.5l0.4,0.6l-5.9,3.9l-0.4-0.7c-0.3-0.6-0.8-1.1-1.3-1.8c0,0-5.2,0.2-6,0.2l-0.2,2.3h10l-0.6,6h-10l-0.2,2.5
			h13.4l-0.6,6.1L374,275.7L374,275.7z M391.5,250.2c-0.9,1-1.9,2.1-2.8,3l7.1-0.1c-0.5-0.4-0.9-0.8-1.1-1l-0.7-0.7l1.9-1.2H391.5z"
			/>
		<path class="st2" d="M407.7,244.8l-0.4,4.6h-7.2c2.7,2.3,5.9,5.3,7.5,7.6l-4.7,3c-0.4-0.7-0.9-1.3-1.5-2.2
			c-16.9,0.6-19.5,0.6-21.4,1.2c-0.2-1-0.8-3.4-1.2-4.7c0.9-0.2,1.6-0.7,2.6-1.5c0.7-0.5,2.1-1.8,3.4-3.5h-6.7l0.4-4.6L407.7,244.8
			 M398.2,249.4h-7.1c-1.3,1.6-2.8,3.1-4.4,4.5l10.6-0.2c-0.9-0.9-1.7-1.6-2.5-2.3L398.2,249.4 M394.2,259.1l-0.3,2.8h10l-0.4,4.6
			h-10l-0.4,3.9h13.4l-0.4,4.7h-31.4l0.4-4.7H388l0.4-3.9h-9.7l0.4-4.6h9.7l0.3-2.8H394.2 M409.2,243.4h-1.5h-29.3H377l-0.1,1.3
			l-0.4,4.6l-0.1,1.5h1.5h3.5c-0.5,0.5-0.9,0.8-1,0.9l0,0l0,0c-0.9,0.8-1.4,1-1.9,1.2l-1.5,0.4l0.5,1.4c0.4,1.2,0.9,3.5,1.1,4.6
			l0.2,1H378l-0.1,1.3l-0.4,4.6l-0.1,1.5h1.5h8.1l-0.1,1h-11.6h-1.5l-0.1,1.3l-0.4,4.7l-0.1,1.5h1.5h31.5h1.3l0.1-1.3l0.4-4.7
			l0.1-1.5h-1.5h-11.8l0.1-1h8.6h1.3l0.1-1.3l0.4-4.6l0.1-1.5h-0.7l3.4-2.3l1.2-0.8l-0.9-1.2c-1.1-1.6-3-3.6-4.9-5.3h3.5h1.3
			l0.1-1.3l0.4-4.6L409.2,243.4L409.2,243.4z M391.7,250.8h1.5l-0.7,0.4l1.2,1.1l-3.6,0.1C390.8,251.9,391.3,251.4,391.7,250.8
			L391.7,250.8z M395.6,259.6c0.6,0,1.1,0,1.7-0.1l3.2-0.1c0.3,0.4,0.6,0.8,0.8,1h-5.8L395.6,259.6L395.6,259.6z M380.6,260.4
			c1-0.3,2.7-0.4,6.9-0.6l-0.1,0.6H380.6L380.6,260.4z"/>
	</g>
	<g>
		<path class="st0" d="M417.5,273.8c-3.7,0-6.8-1.2-9.1-3.8l-0.4-0.5l4-4.9l0.6,0.6c1.4,1.4,2.9,2.2,4.6,2.2c1.5,0,3.4-0.6,3.6-3.3
			c0.1-1-0.1-1.9-0.6-2.4s-1.1-0.8-2.1-0.8c-1.2,0-1.8,0.2-3.3,1.1l-0.4,0.3l-3.2-2.3l1.9-13.7h15.8l-0.6,6.5h-9.1l-0.5,2.6
			c0.6-0.1,1.1-0.2,1.8-0.2c2.6,0,4.7,0.9,6.2,2.4c1.4,1.5,2.1,3.8,1.8,6.5C427.6,270.5,422.4,273.8,417.5,273.8z"/>
		<path class="st2" d="M427.8,247.1l-0.5,5h-9.1l-0.8,4.3c0.9-0.4,1.7-0.5,2.7-0.5c4.3,0,7.7,2.6,7.2,8.1c-0.5,5.7-5.1,9-10,9
			c-4.1,0-6.7-1.5-8.6-3.5l3.1-3.8c1.3,1.3,3,2.5,5,2.5c2.5,0,4.1-1.3,4.4-4c0.2-2.6-1.2-3.9-3.4-3.9c-1.4,0-2.1,0.3-3.7,1.2
			l-2.4-1.8l1.7-12.6H427.8 M429.4,245.7h-1.5h-14.3h-1.2l-0.2,1.2l-1.7,12.6l-0.1,0.9l0.8,0.5l2.6,1.7l0.8,0.6l0.8-0.5
			c1.4-0.9,1.9-1,2.9-1c0.5,0,1.1,0.1,1.5,0.6c0.5,0.5,0.5,1.2,0.5,1.9c-0.2,1.8-1.1,2.7-2.9,2.7c-1.4,0-2.8-0.7-4-2l-1.1-1.1
			l-1,1.2l-3.1,3.8l-0.8,0.9l0.9,0.9c2.5,2.7,5.7,4,9.7,4c5.2,0,10.8-3.5,11.4-10.4c0.3-2.8-0.5-5.3-2-7c-1.5-1.7-3.9-2.7-6.6-2.7
			c-0.3,0-0.6,0-0.9,0l0.2-0.9h7.9h1.3l0.1-1.3l0.5-5L429.4,245.7L429.4,245.7z"/>
	</g>
	<g>
		<polygon class="st0" points="427.6,279.6 438.6,244.1 444.1,244.1 433.1,279.6 		"/>
		<path class="st2" d="M443.1,244.8l-10.5,34.1h-4l10.5-34.1H443.1 M445,243.4h-1.9h-4h-1l-0.3,1l-10.5,34.1l-0.6,1.8h1.9h4h1l0.3-1
			l10.5-34.1L445,243.4L445,243.4z"/>
	</g>
	<g>
		<path class="st0" d="M442.5,273.3l0.4-4.6l0.2-0.2c6.7-5.7,11.3-10.2,11.7-13.7c0.1-0.9-0.1-1.7-0.6-2.2c-0.4-0.4-0.9-0.7-1.8-0.7
			c-1.5,0-2.9,1.1-4,2.3l-0.6,0.5l-4-4.4l0.5-0.5c3-2.9,5.7-4.2,9.3-4.2c2.7,0,4.9,0.9,6.5,2.6c1.4,1.6,2.1,3.7,1.9,6.3
			c-0.3,3.5-2.8,7.5-7.5,12.2c0.8-0.1,1.5-0.1,2.2-0.1h5.5l-0.6,6.6L442.5,273.3L442.5,273.3z"/>
		<path class="st2" d="M453.7,246.6c4.9,0,8.1,3.1,7.7,8c-0.4,4.4-4.6,9.2-8.8,13.2c1.2-0.2,3-0.4,4.2-0.4h4.7l-0.5,5.1h-17.7
			l0.3-3.5c6.8-5.8,11.6-10.4,11.9-14.1c0.2-2.4-0.9-3.6-3-3.6c-1.7,0-3.2,1.1-4.6,2.5l-3-3.3C447.6,248,450.1,246.6,453.7,246.6
			 M453.7,245.2c-3.8,0-6.6,1.2-9.8,4.4l-1,0.9l0.9,1l3,3.3l1,1l1-1c1-1,2.3-2.1,3.5-2.1c0.4,0,0.9,0.1,1.2,0.4
			c0.4,0.4,0.4,1.1,0.4,1.6c-0.3,3.4-5.6,8.4-11.4,13.1l-0.5,0.4l-0.1,0.6l-0.3,3.5l-0.1,1.5h1.5h17.7h1.3l0.1-1.3l0.5-5.1l0.1-1.5
			h-1.5h-4.7c-0.1,0-0.2,0-0.4,0c4-4.3,6.2-8,6.5-11.3c0.2-2.8-0.5-5-2.1-6.8C459.1,246.3,456.6,245.2,453.7,245.2L453.7,245.2z"/>
	</g>
	<g>
		<path class="st0" d="M473,273.8c-3,0-5.6-0.9-7.2-2.8c-1.2-1.3-1.8-3-1.6-4.8c0.3-2.8,1.7-5,4.4-6.6c-1.8-1.7-2.6-3.8-2.4-6.2
			c0.4-4.5,4.2-7.5,9.4-7.5c2.7,0,4.7,0.8,6.2,2.4c1.2,1.3,1.8,3.1,1.6,5.2c-0.2,2.1-1.4,4.2-3.2,5.6c2.4,1.6,3.5,4.1,3.2,7
			C482.8,270.7,478.6,273.8,473,273.8z M472.4,262.3c-0.9,0.9-1.4,2.2-1.5,3.3c-0.1,0.7,0.1,1.2,0.5,1.7c0.5,0.5,1.2,0.9,2.2,0.9
			c0.9,0,2.5-0.3,2.7-2.3C476.4,264.3,475.1,263.5,472.4,262.3z M475,251.6c-0.5,0-1.9,0.2-2.1,2c-0.1,1.3,0.7,2.2,2.8,3.2
			c0.7-0.9,1.1-1.9,1.2-2.9c0.1-0.8-0.1-1.3-0.5-1.7C476.2,251.8,475.7,251.6,475,251.6z"/>
		<path class="st2" d="M475.5,246.6c4.6,0,7.4,2.7,7,6.8c-0.2,2.5-1.9,4.5-3.7,5.7v0.2c2.3,1.2,4,3.4,3.7,6.9
			c-0.4,4-4.2,6.9-9.5,6.9c-5,0-8.5-2.8-8.2-6.8c0.3-3.2,2.3-5.1,4.7-6.5v-0.2c-1.9-1.5-3-3.4-2.8-6.2
			C467.2,249.3,470.8,246.6,475.5,246.6 M475.9,257.7c1-1.1,1.6-2.5,1.7-3.8c0.2-1.8-0.8-3-2.7-3c-1.3,0-2.7,0.9-2.8,2.7
			C472,255.6,473.5,256.7,475.9,257.7 M473.5,268.9c1.7,0,3.2-0.9,3.4-2.9c0.2-2.2-1.7-3.2-4.7-4.6c-1.1,0.9-1.9,2.6-2.1,4.2
			C470,267.6,471.5,268.9,473.5,268.9 M475.5,245.2c-5.6,0-9.7,3.3-10.1,8.2c-0.2,2.4,0.5,4.4,2,6.1c-2.4,1.7-3.7,3.9-4,6.6
			c-0.2,2.1,0.5,3.9,1.8,5.4c1.7,1.9,4.5,2.9,7.8,2.9c5.9,0,10.5-3.4,10.9-8.3c0.3-2.9-0.7-5.4-2.8-7.1c1.6-1.5,2.7-3.5,2.8-5.5
			c0.2-2.3-0.4-4.3-1.8-5.8C480.6,246.1,478.4,245.2,475.5,245.2L475.5,245.2z M475.5,255.9c-1.8-0.9-1.9-1.6-1.9-2.2
			c0.1-1.1,0.8-1.3,1.4-1.3c0.3,0,0.8,0.1,0.9,0.3c0.2,0.2,0.3,0.7,0.3,1.1C476.2,254.5,475.9,255.3,475.5,255.9L475.5,255.9z
			 M473.5,267.4c-0.7,0-1.3-0.2-1.6-0.6c-0.3-0.3-0.4-0.7-0.3-1.1c0.1-0.9,0.5-1.8,1-2.6c2.4,1.1,3,1.7,2.9,2.7
			C475.4,266.2,475.3,267.4,473.5,267.4L473.5,267.4z"/>
	</g>
	<g>
		<path class="st0" d="M482.1,274.8l0.8-0.8c2.8-2.8,6.5-7.2,7.1-14.4c0.7-7.1-2.3-11.6-4.6-14.3l-0.6-0.8l5.4-2.2l0.4,0.4
			c2.4,2.6,6.3,8.1,5.4,17.1c-0.8,9-5.6,14.5-8.4,17l-0.4,0.3L482.1,274.8z"/>
		<path class="st2" d="M490,243c3.1,3.3,6,8.8,5.2,16.5c-0.7,7.7-4.4,13.2-8.2,16.5l-3.8-1.7c3.4-3.4,6.7-8.1,7.3-14.9
			c0.6-6.8-1.8-11.4-4.7-14.9L490,243 M490.4,241.3l-0.9,0.4l-4.1,1.7l-1.8,0.8l1.2,1.5c2.2,2.7,4.9,6.9,4.4,13.9
			c-0.6,6.9-4.2,11.3-6.8,14l-1.4,1.4l1.9,0.9l3.8,1.7l0.9,0.4l0.7-0.6c2.8-2.6,7.8-8.3,8.6-17.5c0.9-9.3-3.2-15-5.6-17.7
			L490.4,241.3L490.4,241.3z"/>
	</g>
	<g>
		<g>
			<path class="st0" d="M262.3,276.2c-0.6,0-1.2,0-1.9,0l-0.7,0l0-0.7c0-0.5-0.1-1.1-0.2-1.7l-1.9,0.6l-0.1-0.9c0-0.3-0.1-0.6-0.3-1
				c0.1,0.4,0.1,0.8,0.1,1.1l0,0.7l-5.4,1.1l0-0.9c0-0.9-0.2-2.3-0.5-3.4c0.2,1.2,0.2,2.5,0.2,3.4l0,0.6l-5.7,0.9l0.1-1
				c0.1-0.7,0.1-1.7,0-2.7c-1.2,1.6-2.5,2.8-3.7,3.6l-0.4,0.3l-5.2-2.9l1.1-0.7c1.4-0.8,2.9-2.3,3.9-3.7l0.4-0.5l1.7,0.8l1-11.5
				h-5.1l0.6-6.8h1.2c-0.2-0.3-0.5-0.6-0.7-0.8l-1-1l1.4-0.3c0.5-0.1,1-0.2,1.5-0.4c-0.5-0.7-1.2-1.5-1.7-2.2l-0.5-0.6l3.7-2.7
				l0.4,0.4c0.7,0.6,1.4,1.4,2,2.1c0.3-0.6,0.4-1.3,0.6-2.1l0.1-0.6h5.4c0,0-0.2,1.2-0.3,1.4c0.2-0.3,0.3-0.5,0.5-0.7l0.4-0.6
				l2.8,1.6l2.1-1.5l0.4,0.4c0.7,0.6,1.4,1.3,1.9,2c0.2-0.6,0.3-1.2,0.4-2l0.1-0.6h5.4l-0.1,0.9c-0.1,0.5-0.2,1-0.3,1.5
				c0.5-0.6,1-1.2,1.3-1.6l0.4-0.6l4.1,3l-0.9,0.6c-0.7,0.5-1.2,0.9-1.8,1.3c-0.3,0.2-0.5,0.4-0.8,0.6c0.5,0.3,0.9,0.5,1.3,0.7
				l0.8,0.4l-1.2,1.4h1.9l-0.6,6.8h-5.3l-0.5,5.6h6l-0.3,3.9h-1.3l0,0c0,0-0.1,0.9-0.2,1.3c-0.5,3.8-1,5.5-1.9,6.4
				c-0.7,0.7-1.7,1.1-2.9,1.2C263.7,276.1,263.1,276.2,262.3,276.2z M261.8,270.2c0.3,0.6,0.5,1.1,0.6,1.5l0,0
				c0.1-0.1,0.2-0.5,0.4-1.5H261.8z M263.2,250.7c-0.1-0.1-0.2-0.1-0.4-0.2c-0.1,0.1-0.1,0.1-0.2,0.2H263.2z M256.1,250.7
				c-0.3-0.4-0.5-0.8-0.8-1l-0.2-0.2l-0.9,1.2H256.1z M249.6,250.7c-0.2-0.1-0.4-0.3-0.6-0.4c-0.2,0.1-0.3,0.3-0.5,0.4H249.6z
				 M254.1,248.1c0.3,0.2,0.5,0.4,0.7,0.5l0,0l0.8-0.2c0.3-0.1,0.6-0.1,0.9-0.2c-0.3-0.4-0.6-0.9-1.1-1.4c-0.2,0.2-0.5,0.4-0.7,0.6
				C254.6,247.7,254.4,247.9,254.1,248.1z"/>
			<path d="M265.5,243.3c-0.2,1.4-0.5,2.7-1,3.8c1.8,0.8,3.6,1.7,4.9,2.4l-1.7,2h2.7l-0.5,5.3h-4.7l0.2-2.7h-7.4
				c-0.2,0.3-0.4,0.7-0.7,1h7.4l-0.7,8.1h-14.4l-0.1,0.7H270l-0.2,2.4h-20.4l-0.1,0.7h19c0,0-0.1,0.8-0.2,1.3
				c-0.5,3.6-0.9,5.2-1.7,6c-0.7,0.7-1.6,0.9-2.4,1c-0.4,0.1-1.1,0.1-1.8,0.1c-0.6,0-1.2,0-1.9,0c0-0.8-0.2-1.9-0.5-2.7l-1.7,0.6
				c-0.1-0.8-0.6-2-1.1-2.9l3-0.8h-15.7l1.3-14.4h7c0.1-0.3,0.2-0.7,0.3-1h-7.8l-0.2,2.7h-4.5l0.5-5.3h1.8c-0.4-0.8-1-1.6-1.5-2.1
				c4.9-1.1,5.9-3,6.5-6h3.9c-0.2,1.3-0.6,2.5-1,3.5c1.4,0.8,2.8,1.7,3.7,2.4l-1.7,2.3h4.7c-0.4-0.8-1-1.7-1.5-2.3
				c4.5-1,5.2-2.8,5.8-5.9H265.5 M245.5,251.5h6.4c-0.8-0.7-1.9-1.4-3-2.1C248,250.2,246.9,250.9,245.5,251.5 M259.8,251.5h6.3
				c-1-0.6-2.2-1.2-3.4-1.8C262,250.4,261,251,259.8,251.5 M259.8,257.4h-9.6l-0.1,0.7h9.6L259.8,257.4 M259.6,260.1H250l-0.1,0.8
				h9.6L259.6,260.1 M263.6,269.5h-3.1c0.5,0.8,0.9,1.9,1.1,2.6l-1.3,0.4c0.7,0.1,1.3,0.1,1.7,0.1c0.4,0,0.6,0,0.8-0.3
				C263.2,272,263.4,271.2,263.6,269.5 M253.4,243.7l2.6,1.5l2-1.4c0.9,0.8,1.8,1.8,2.3,2.6l-2.7,2.1c-0.4-0.7-1.3-1.8-2-2.6
				c-0.9,0.7-1.6,1.4-2.2,1.8l-2-1.3C252,245.6,252.9,244.4,253.4,243.7 M267.9,243.7l2.6,1.9c-1.3,0.9-2.3,1.7-3.1,2.2l-1.9-1.5
				C266.3,245.7,267.4,244.5,267.9,243.7 M244,243.7c0.9,0.8,1.8,1.8,2.3,2.6l-2.7,2.1c-0.5-0.8-1.4-2-2.2-2.9L244,243.7
				 M242.2,269.2l3.7,1.8c-1.1,1.5-2.5,3.1-4.1,4.2l-3.7-2.1C239.7,272.1,241.3,270.6,242.2,269.2 M255.7,269.7
				c0.5,1.2,0.8,2.8,0.9,3.9l-3.9,0.8c0-1.1-0.3-2.8-0.7-4L255.7,269.7 M250.5,270c0.3,1.3,0.4,3.2,0.3,4.3l-4.2,0.7
				c0.1-1.2,0.1-3-0.1-4.4L250.5,270 M267.6,241.6l-0.3,0.4l0-0.2h-1.8h-3.9h-1.3l-0.2,1.3c0,0.2-0.1,0.4-0.1,0.5
				c-0.3-0.3-0.7-0.7-1-1l-0.9-0.8l-1,0.7l-1.2,0.9l-1.7-1l-0.7-0.4l0-0.1h-0.2l-0.4-0.2l-0.1,0.2h-1.1h-3.9h-1.2l-0.2,1.2
				c-0.1,0.3-0.1,0.5-0.2,0.7c-0.4-0.4-0.8-0.8-1.1-1.1l-0.9-0.8l-1,0.7l-2.6,1.8l-1.3,1l1.1,1.2c0.4,0.4,0.7,0.8,1,1.3
				c-0.1,0-0.2,0.1-0.4,0.1l-2.8,0.6l1.6,1.5h-0.2l-0.1,1.4l-0.5,5.3l-0.1,1.6h1.6h3.4L243,268l-0.2-0.1l-1.1-0.6l-0.7,1
				c-0.9,1.3-2.4,2.7-3.7,3.5l-2.2,1.3l2.2,1.3l3.7,2.1l0.8,0.5l0.8-0.5c0.9-0.6,1.7-1.3,2.6-2.3c0,0.2,0,0.5,0,0.7l-0.2,2l2-0.3
				l4.2-0.7l0.1,0l0,0.4l1.8-0.4l3.9-0.8l0.1,0l0,0.2l1.7-0.5l0.2-0.1c0,0.3,0.1,0.5,0,0.7l-0.1,1.5l1.5,0.1c0.7,0,1.4,0,2,0
				c0.8,0,1.4,0,1.9-0.1c1.4-0.1,2.5-0.6,3.4-1.4c1-1.1,1.5-2.8,2.1-6.9c0-0.2,0.1-0.4,0.1-0.7h1.4l0.1-1.4l0.2-2.4l0.1-1.6H270
				h-4.4l0.4-4.1h3.9h1.4l0.1-1.4l0.5-5.3l0.1-1.6h-1.1l0.8-0.9l-1.6-0.9c-0.1,0-0.2-0.1-0.3-0.1c0.5-0.4,1-0.7,1.6-1.1l1.7-1.2
				l-1.7-1.2l-2.6-1.9L267.6,241.6L267.6,241.6z"/>
		</g>
	</g>
</g>
</svg>
