<svg xmlns="http://www.w3.org/2000/svg" viewBox="0 0 378.93 234.75"><defs><style>.cls-1{fill:#fff;}.cls-2{fill:#f7b52c;}.cls-3{fill:#231815;}</style></defs><g id="圖層_2" data-name="圖層 2"><g id="圖層_1-2" data-name="圖層 1"><path class="cls-1" d="M5.91,44.72l1.88-.35,5.69-1v2.18h-.85c-.71,0-2.59,0-4.54-.13l-3.53-.2L6.2,48.32a25.47,25.47,0,0,1,2.31,6.62l.25,1.71h1.73c4.27,0,7.64-.28,10.24-1.6a6.66,6.66,0,0,0,3.48-4.12,24.08,24.08,0,0,1,2.47,3.34l1,1.68,1.7-.93a68.83,68.83,0,0,0,6.76-4.16c2.41,4,5.39,6,8.87,6,4.91,0,7.61-2,9.12-7.21a37.69,37.69,0,0,1,4,2.93l1.78,1.53.26-.43a9.14,9.14,0,0,1,.2,1l.26,1.7h1.72c2.79,0,5.29-.1,7.47-1.28a5.82,5.82,0,0,0,2.87-3.92l1.47.87a15.49,15.49,0,0,1,4.31,4l1.36,2,1.7-1.7A34,34,0,0,0,87,49.2c.2,2.32.75,3.66,1.88,4.79a7.47,7.47,0,0,0,5.07,1.92H97a8.41,8.41,0,0,0,4-.89,6.09,6.09,0,0,0,3-3.67,9.68,9.68,0,0,0,.31-1.26l.91.76L111,55.69l1.82,1.52L114,55.16c1.08-1.85,2.16-3.79,3.23-5.77A20.55,20.55,0,0,1,118.88,55l.42,3.15L122,56.42c1-.68,3.19-1.4,11.86-3.4,1.13,2.32,3.36,3.58,7.58,3.58h4c4.41,0,6.55-2.08,7.64-5.49l3.08,4.68L158,58.7l1.55-3.11a22.4,22.4,0,0,1,2.78-4.53c.39.2.95.55,1.39.82.65.4,1.38.86,2.2,1.28,4.15,2.16,8.87,2.6,15.14,2.6,6,0,14.46-.31,18.55-.6l1.77-.12.09-1.77a27.16,27.16,0,0,1,2-6.87L204.88,43l-3.6.6c-.88.15-1.86.29-2.9.41V30.38h-.59V20.51h4.14V11.08H190.05c-.72-1.82-1.84-4-2.21-4.74l-.75-1.46-1.58.46-7,2L176.36,8l.91,2.08c.14.32.28.66.42,1H166.14v.42c-.14-.32-.29-.64-.44-1-.62-1.35-1.25-2.74-1.79-4l-.76-1.72-1.76.64-6.22,2.27-1.93.7.75,1.91c.44,1.12,1,2.41,1.5,3.66.45,1.07.91,2.15,1.3,3.14h-4.56V27.52h3.45c-1,3-2,5.7-2.81,7.75l-.69,1.67V32.51h-8.59V30.83h6.07V7.88H118.07V9.64c-2.3-1.26-4.74-2.54-5.67-3l-1.53-.79-1,1.39-3.8,5.23-1.27,1.76,1.85,1.13,1.39.84c2.48,1.51,5.57,3.38,7,4.55l1.67,1.32L118,20.29l.11-.15v4.58c-2.26-1.33-6.07-3.22-8.8-4.51l-1.54-.73-1,1.41-3,4.4v-7h-.71l.85-.52-.71-1.6a40.83,40.83,0,0,0-5.64-8.28L96.47,6.62,95,7.46l-1,.54V7.93l0-2H83.39l0,2c0,1.37,0,2.75,0,4.13,0,2.06,0,4.18-.06,6.28H80.66V11.18H73.2c-.49-1.4-1.12-2.95-1.77-4.33l-.67-1.43-1.55.33L62.65,7.13l-2.33.49.88,2.21c.17.41.34.87.51,1.35H54v5.55l-.47-.8c-1.55-2.66-4.88-6-7.47-8.26l-1.17-1-1.27.86L40.31,9.75c0-.51,0-1,0-1.51l.05-2H28.83V8.32L27.56,6.71,26.7,5.62l-1.32.43A114.39,114.39,0,0,1,6,10l-2.82.35,1.27,2.53A25,25,0,0,1,6.3,18.31l.21,1.22H4.79V30.29h8.69v1.77c-3.11.47-6,.85-8,1.11l-2.18.28L3.8,35.6l1.68,7.26ZM80.09,39.3c-.29-.73-.62-1.47-1-2.2V28.66h3.46A45.88,45.88,0,0,1,80.09,39.3ZM13.48,19.42v.11h-.87Zm29.23.11H40.59c-.06-.92-.11-1.83-.16-2.73A32.32,32.32,0,0,1,42.71,19.53Zm2.13,23.8.3-.32q0,.45-.09.81C45,43.67,44.91,43.5,44.84,43.33ZM24.73,44.7V41.19l2.18-.42L30.72,40,32,39.77c0,.14.07.28.11.42A50,50,0,0,1,24.73,44.7ZM25,30.29l-.3.05v-.05Zm-.3-10.76V17.59c1.35-.27,2.84-.59,4.32-1,.05,1,.11,1.93.17,2.91ZM72.94,49.74a1.79,1.79,0,0,1,0-.23l.45-.22Zm31.58-1.08c.19-1.47.28-3.07.32-4.15l.07-1.5-1.43-.48A15,15,0,0,1,98.75,40L97,38.29V28.66h6l.8.44a94.56,94.56,0,0,1,8.66,5.19l.39.28a153.58,153.58,0,0,1-8,13.63Zm14.14-17.83v3.4l-1.85-1.76-.4-.38,1.66-2.57v1.31Zm11.06,1.63V30.83h3.06v1.63Zm0,11.09V42.43h3.06V43Zm13.87,2.93v-4h.33l0,.84c0,.62-.08,2.2-.19,3.16Zm26-26v8.9l-3.07-1.24c.9-2.63,1.77-5.35,2.5-7.66ZM169,40.27v3.18l-.43-.22-.58-.32C168.36,42.07,168.69,41.18,169,40.27ZM154.72,38h4.07a24.4,24.4,0,0,1-2.16,4.24,20.92,20.92,0,0,0-2.92,2.06L152.38,44a21.91,21.91,0,0,1-4.16-1.54h4V38ZM54,17.85V21.4h1.83V37.2h.61A41.62,41.62,0,0,1,55,42.42L54,42a16.74,16.74,0,0,1-5-3.54,48.17,48.17,0,0,0,3.37-5.18l1.1-1.94-2-.88L51,30.29h2.72V19.53H51.53l1.36-1Z"/><path class="cls-1" d="M199.93,26.08l.68,1.22a52.12,52.12,0,0,1,3.18,7.5l1.09,3.56.9-1.09V56.65h10.81V49.42l2.3,1.22a38.56,38.56,0,0,1,5,3.27l1.31,1.1,1.29-1.13a31.36,31.36,0,0,0,3.94-4.25V56.5h10.67V48.89a23.94,23.94,0,0,1,2.2,4l.81,2.12,2-1.07,5.53-3,1.66-.89-.78-1.7a30.06,30.06,0,0,0-3.58-5.61h1.63V33.46a44.85,44.85,0,0,1,3.12,5.72l1.11,2.65.95-.89V56.7H266.3V53.58h0l5.38-.54c3.64-.36,7.7-.77,11.67-1.2a22.16,22.16,0,0,1,.6,3l.19,1.79H286c3.2,0,6.27-.12,8.72-1.56,3.18-1.79,3.45-5.12,3.45-8.09V31.92h3.21V21.55H287V20.46h-.64V18.59h14.17V8.32H284v2.47h-2.81v-5H270.44v5h-1.75l1-1.64-2.3-.85L261,5.93l-1.63-.61-.82,1.54a29.68,29.68,0,0,1-7.1,8.23V10.15H237.88v0l.76-2-2.11-.58-6.31-1.72L228.5,5.3,227.84,7a20.59,20.59,0,0,1-3.92,6.24h-4.69c.32-.91.64-1.84,1-2.8l.66-2-2-.59-6.62-2-1.93-.58-.56,1.94C207.81,14,204.39,20.81,200.83,25ZM266.3,41.74h4.05v1l-2.58.18-1.47.1Zm0-10.07v-1h4.05v1H266.3Zm14.81,0v-1h2.66v1Zm.67,10.07-.67.06v-.06Zm4.86-.43V31.92h.44v9.35Zm-34.4-13.19,2.38-2.38a30.57,30.57,0,0,1-3.79,4.09A15.7,15.7,0,0,1,252.24,28.12Zm11.7-10.8q.75-.88,1.47-1.8v2.3Zm-9,8-3.86-.56a35.12,35.12,0,0,1-5.56-1.26,29.71,29.71,0,0,0,3-4h2.89v-.17a47.18,47.18,0,0,1,2.68,4.09l1,1.73C255.06,25.19,255,25.24,255,25.29Zm-5.53,6.64.58.77h-1ZM216.59,48.77v-.46h.63Z"/><path class="cls-1" d="M10.91,90.25v26H52.67v-11H22.36v-15h1.38v14.26h24V90.25h6.07V79.34H47.78V68.63H36.23V79.34H34.9V68.18H23.74V79.34H22.36V69.22H10.91V79.34H4.49V90.25h6.42Zm24,3.7v-3.7h1.33V94Z"/><path class="cls-1" d="M80.56,98.81v19.58h11.5V104.92a36.26,36.26,0,0,0,4.77,2l1.58.53.8-1.46a27.52,27.52,0,0,1,4.39-5.61l2.8-2.54-3.68-.88a38,38,0,0,1-5.23-1.68h1.38V69.42H58.69V95.24H60.2a36,36,0,0,1-5.58,2.09l-3.41,1,2.58,2.42a31.66,31.66,0,0,1,4.4,5.44l.85,1.42,1.55-.57a42,42,0,0,0,4.51-2c-.89,1.4-2.8,2.93-6.85,4.14l-3.56,1,2.83,2.39a24.48,24.48,0,0,1,4.42,5.25l.81,1.49,1.6-.55c8.59-2.95,13-8.52,13-16.55v-5.6H76.12c.42-.47.83-.94,1.23-1.43h2.83c.42.53.86,1.06,1.32,1.57h-.94Z"/><path class="cls-1" d="M152.28,92.92V90.61l.17.38a36.43,36.43,0,0,1,1.34,3.7h-1.07v9.82h9.4a34.21,34.21,0,0,1-9.32,2.9l-4.06.69,3.06,2.76a28.57,28.57,0,0,1,4.3,5.45l.77,1.31,1.47-.39a31,31,0,0,0,13.63-7.6v8.76h11.21v-8.53a77.16,77.16,0,0,1,10.87,7.32l1.47,1.33,1.34-1.46,4.64-5,.2-.22.82.76,5.28,4.94,1.92,1.8,1.22-2.34c.37-.72.75-1.44,1.11-2.17l1.35.51a23,23,0,0,1,5.06,3l1.77,1.56,1.25-2a31.57,31.57,0,0,0,3-6.45l.06.08a20.35,20.35,0,0,1,2.21,5.06l.81,3.24,2.47-2.24c.87-.78,2.92-1.88,10.73-5.16a22.44,22.44,0,0,0,3.82,4.52l1.86,1.67,1.22-2.17a26.4,26.4,0,0,1,3.75-4.79l.47,3.48.26,1.91,1.92-.18c5.83-.57,15.59-1.5,24.36-2.47l1.81-.2,0-1.82,0-1.48a24.56,24.56,0,0,1,2.07,5.92l.26,1.68h1.71c4.12,0,7.15-.27,9.54-1.64,3.18-1.78,3.62-5,3.62-8.11V90.45h3.21V79.78h-3.21V67.69H286.44V79.78h-6.52V78.2h-1.39l.34-.31,1.73-1.59,2-1.86-2.41-1.36L274.71,70l-.71-.4V67.74H257.46v1.15l-1.35.92-4.19,2.87L250,74l1.55,1.71a25.94,25.94,0,0,1,2,2.52h-2.32v7.39l-1.6-1.65-5-5.16c1.54-.38,3.07-.8,4.56-1.25l3.14-1L250,74.22l-5.67-5.87-.89-.92-1.2.42a127.3,127.3,0,0,1-23.34,4.84l-1.76.21V73c-2.33-1.59-5.52-3.38-7.45-4.44l-1.64-.9-1,1.58-3.36,5.28-1.07,1.69,1.69,1.07a75.07,75.07,0,0,1,8.33,5.83l1.79,1.6,1.25-2.06,1.47-2.43v7.54l-.91-.71a61.32,61.32,0,0,0-9.15-5.31l-1.65-.8-.94,1.58-3.21,5.38h0c-.22-.94-.45-1.89-.69-2.77l-.44-1.57c.85-1.15,1.65-2.31,2.37-3.43l1.14-1.78-1.84-1-4.94-2.8q.45-.91.81-1.8l.88-2.09L196.42,70l-5.73-1.58-1.89-.52-.56,1.88a30,30,0,0,1-1.66,4.25V71.74h-3.81l.29-.65,1-2.37-2.55-.41-6.37-1L173,66.92l-.17,2.17a24.05,24.05,0,0,1-.37,2.65h-4.21l.29-.67-2-.71L161,68.49l-2-.68-.58,2A32.4,32.4,0,0,1,155,77.58c-.67,1-1,1.13-1,1.14l-2.23.6.92,2.12a49,49,0,0,1,1.69,4.77l.4,1.47a2.2,2.2,0,0,1-.89.54l-1.55.36v-6h-8.22l.4-.84h5.65V71.39H133.93A20.55,20.55,0,0,0,132.29,68l-.69-1.12-1.3.19-7.55,1.08-2.81.41,1.32,2.5.17.33H106.32V81.71h6.07c.12.26.25.54.37.84h-9.15V92.92h5.72v25.71h11.21v-1.58h15v1.58H147.1V92.92h5.18Zm31.17,11.59-.27.29v-.29Zm92.87-15.24v.09h-.05Zm-23,9.87v7.12l-.47,0-2.12.15v.09a19.16,19.16,0,0,1-3.7-5.82l.35-.24c1.33-1,2.85-2,4.44-3l.84-.53v2.21Zm-16.93,4.54v-1.6c.13.48.27,1,.41,1.44Zm7.58-15.12.79-.18-.6.83-.08.12C244,89.08,244,88.82,243.92,88.56Zm-17.8,16.58v1.42a2.25,2.25,0,0,1-.78,1.93C225.63,107.42,225.89,106.3,226.12,105.14Zm56.07.4,4.25-1.5v3.73c-1.13,0-2.89,0-4.58-.09l-1.77-.08,0-1.32ZM254.5,88l.39.48c.23.28.44.57.66.85h-2.93v5.5l-.43-.47-5-5.38-1-1c.93-.24,1.77-.48,2.56-.74l2.43-.77V88h3.26Zm23.69,16.12v-5h.44a24.76,24.76,0,0,1,.9,4.65l0,.22Zm-61-15.24c0,3-.14,6-.46,9l-2.85-3,2.91-5.23Zm-15.13,1.77a68.38,68.38,0,0,1,7.7,5,146.1,146.1,0,0,1-7.47,14.23l-1-.8a65.34,65.34,0,0,0-7.08-4.58h7.64v-8l1-.24-.24-1.78c-.15-1-.38-2.42-.68-3.91ZM168.12,72.11v3.2L167,74.66c.27-.54.52-1.08.75-1.61Zm-43.52,9.6h7.33c-.08.28-.17.56-.26.84h-6.76C124.81,82.27,124.71,82,124.6,81.71Z"/><polygon class="cls-1" points="12.77 179.1 14.77 179.1 14.77 177.1 14.77 171.61 16.19 175.45 16.68 176.75 18.07 176.75 21.73 176.75 23.12 176.75 23.6 175.44 25.06 171.47 25.06 177.1 25.06 179.1 27.06 179.1 33.15 179.1 35.15 179.1 35.15 177.1 35.15 149.33 35.15 147.33 33.15 147.33 25.91 147.33 24.49 147.33 24.02 148.66 20.02 159.92 15.87 148.64 15.39 147.33 14 147.33 6.79 147.33 4.79 147.33 4.79 149.33 4.79 177.1 4.79 179.1 6.79 179.1 12.77 179.1"/><path class="cls-1" d="M76.28,147.33H64.58l-.5,1.25-2,5-.12.28-.16-.36-2.24-5L59,147.33H37.54V179.1H58.27l.53-1.19,2.39-5.41c.07-.17.14-.34.22-.5l.24.53L64.24,178l.54,1.14H76.84l-1.61-3-7.14-13.06,6.67-12.83Zm-27.75,2.94,6.69,12.54-7,13.08V149.7Z"/><path class="cls-1" d="M97.14,146.81c-9,0-14.73,6.38-14.73,16.26,0,10.06,5.78,16.56,14.73,16.56s14.73-6.5,14.73-16.56C111.87,153.19,106.09,146.81,97.14,146.81Zm3.94,16.26c0,3.29-1,6.81-3.94,6.81-3.62,0-3.9-5.22-3.9-6.81,0-2,.38-6.55,3.9-6.55S101.08,161.1,101.08,163.07Z"/><polygon class="cls-1" points="130.74 147.33 128.74 147.33 128.74 149.33 128.74 158.32 123.59 148.41 123.03 147.33 121.82 147.33 115.03 147.33 113.03 147.33 113.03 149.33 113.03 177.1 113.03 179.1 115.03 179.1 121.37 179.1 123.37 179.1 123.37 177.1 123.37 167.98 128.51 178.01 129.07 179.1 130.29 179.1 137.09 179.1 139.09 179.1 139.09 177.1 139.09 149.33 139.09 147.33 137.09 147.33 130.74 147.33"/><polygon class="cls-1" points="155.47 177.1 155.47 179.1 157.47 179.1 164.16 179.1 166.16 179.1 166.16 177.1 166.16 156.85 171.7 156.85 173.7 156.85 173.7 154.85 173.7 149.33 173.7 147.33 171.7 147.33 149.97 147.33 147.97 147.33 147.97 149.33 147.97 154.85 147.97 156.85 149.97 156.85 155.47 156.85 155.47 177.1"/><polygon class="cls-1" points="189.82 179.1 191.82 179.1 198.43 179.1 200.43 179.1 200.43 177.1 200.43 149.33 200.43 147.33 198.43 147.33 191.82 147.33 189.82 147.33 189.82 149.33 189.82 157.89 184.68 157.89 184.68 149.33 184.68 147.33 182.68 147.33 175.99 147.33 173.99 147.33 173.99 149.33 173.99 177.1 173.99 179.1 175.99 179.1 182.68 179.1 184.68 179.1 184.68 177.1 184.68 167.68 189.82 167.68 189.82 177.1 189.82 179.1"/><polygon class="cls-1" points="222.51 156.85 224.51 156.85 224.51 154.85 224.51 149.33 224.51 147.33 222.51 147.33 204.89 147.33 202.89 147.33 202.89 149.33 202.89 177.1 202.89 179.1 204.89 179.1 222.92 179.1 224.92 179.1 224.92 177.1 224.92 171.5 224.92 169.5 222.92 169.5 213.57 169.5 213.57 167.61 220.87 167.61 222.87 167.61 222.87 165.61 222.87 160.01 222.87 158.01 220.87 158.01 213.57 158.01 213.57 156.85 222.51 156.85"/><path class="cls-1" d="M257.83,147.33h-2v2.87a14.87,14.87,0,0,0-9.5-3.39c-6.88,0-12.08,4.47-12.08,10.4,0,4.28,2.52,7.73,6.9,9.47l3.51,1.48.49.2a11.25,11.25,0,0,1,2.21,1.09.73.73,0,0,1,0,.13,2.89,2.89,0,0,1-1.61.3,9.34,9.34,0,0,1-5.46-2.36l-1.55-1.32-1.29,1.57-3.77,4.59-1.2,1.46,1.39,1.28a17.47,17.47,0,0,0,11.74,4.53c6.26,0,12.6-3.68,12.6-10.7,0-4.49-2.27-7.67-6.74-9.47L248,158.07l-.42-.16a14,14,0,0,1-2.52-1.16,2.66,2.66,0,0,1,1.3-.23,7.08,7.08,0,0,1,4.51,1.72l1.56,1.18,1.21-1.53,2.22-2.8v1.76h7.51V179.1H274V156.85h7.54v-9.52H257.83Z"/><path class="cls-1" d="M319,169.5v-1.89h9.3V158H319v-1.16h10.94v-9.52H308.29v29.18l-.22-.39-5.24-9.31a10.39,10.39,0,0,0,4.08-8.75c0-4-1.67-10.73-12.86-10.73h-12.2V179.1h10.69v-9.77l4.55,8.7.56,1.07h32.67v-9.6H319Zm-22.59-11.44c0,.75,0,2-2.86,2h-1v-3.47h1C296.38,156.59,296.38,157.24,296.38,158.06Z"/><polygon class="cls-1" points="376.93 147.33 355.2 147.33 353.43 147.33 353.2 147.33 351.43 147.33 333.81 147.33 331.81 147.33 331.81 149.33 331.81 177.1 331.81 179.1 333.81 179.1 351.84 179.1 353.84 179.1 353.84 177.1 353.84 171.5 353.84 169.5 351.84 169.5 342.49 169.5 342.49 167.61 349.79 167.61 351.79 167.61 351.79 165.61 351.79 160.01 351.79 158.01 349.79 158.01 342.49 158.01 342.49 156.85 351.43 156.85 353.2 156.85 353.43 156.85 355.2 156.85 360.71 156.85 360.71 177.1 360.71 179.1 362.71 179.1 369.39 179.1 371.39 179.1 371.39 177.1 371.39 156.85 376.93 156.85 378.93 156.85 378.93 154.85 378.93 149.33 378.93 147.33 376.93 147.33"/><path class="cls-1" d="M43,216.24H37.93l2.18-24.84h-11L6.32,216l-.18.2-.91,10.35H25.68L25,234.06H36.37l.67-7.55h5.07Zm-24.71,0,9.14-9.75-.85,9.75Z"/><polygon class="cls-1" points="55.06 191.4 40.8 234.75 48.12 234.75 62.44 191.4 55.06 191.4"/><path class="cls-1" d="M89.2,192.82a24.85,24.85,0,0,0-9.4-1.42,24.17,24.17,0,0,0-9.32,1.49,13.45,13.45,0,0,0-5.65,4.33,20.36,20.36,0,0,0-3.21,7.69l-.2.88,12.74,1,.15-.66a8.47,8.47,0,0,1,2-4.37,4.41,4.41,0,0,1,3.11-1.14,3.63,3.63,0,0,1,2.75,1.06,3.1,3.1,0,0,1,.87,2.55,6,6,0,0,1-1.52,3.19,37.06,37.06,0,0,1-6.64,5.42c-5.77,4-9.84,7.56-12.09,10.54a24,24,0,0,0-4.48,9.7l-.19.94H93.48l.94-10.71H78.11c.48-.4.91-.75,1.3-1,.8-.61,2.4-1.7,4.78-3.25,4.1-2.72,7-5.27,8.72-7.58A14.7,14.7,0,0,0,95.83,204a11.1,11.1,0,0,0-1.44-6.73A10.66,10.66,0,0,0,89.2,192.82Z"/><polygon class="cls-1" points="115.37 223.67 133.25 223.67 134.15 213.43 116.26 213.43 115.37 223.67"/><path class="cls-1" d="M190.43,216.24h-5.07l2.17-24.84h-11L153.75,216l-.19.2-.9,10.35h20.45l-.66,7.55H183.8l.66-7.55h5.07Zm-24.71,0,9.14-9.75-.85,9.75Z"/><polygon class="cls-1" points="202.49 191.4 188.23 234.75 195.54 234.75 209.87 191.4 202.49 191.4"/><path class="cls-1" d="M238.4,211.71a9.35,9.35,0,0,0-2-.93,13.24,13.24,0,0,0,3.33-3,9.79,9.79,0,0,0,2-5.14,9.3,9.3,0,0,0-3.14-8.07c-2.35-2.12-6.18-3.15-11.7-3.15-4.73,0-8.54,1-11.33,2.84a15.79,15.79,0,0,0-6.06,8.16l-.31.86,12.08,2.2.17-.72a7.38,7.38,0,0,1,1.81-3.8,4,4,0,0,1,2.81-1,3,3,0,0,1,2.36.85,2.92,2.92,0,0,1,.64,2.35,4.15,4.15,0,0,1-1.51,2.82,4.77,4.77,0,0,1-3.28,1.21A9.06,9.06,0,0,1,223,207l-.77-.11-1.6,10,1.18-.32a14.23,14.23,0,0,1,3.49-.64,3.93,3.93,0,0,1,3.19,1.27,5,5,0,0,1,.88,3.78,6,6,0,0,1-1.66,3.93,4.52,4.52,0,0,1-3.35,1.42,3.8,3.8,0,0,1-2.87-1.07c-.72-.74-1.2-2.17-1.42-4.24l-.09-.79L207,222l.17.82a16.49,16.49,0,0,0,2.74,6.58,12.23,12.23,0,0,0,5.23,4,23.55,23.55,0,0,0,8.89,1.36,22.11,22.11,0,0,0,9.61-1.83,14.79,14.79,0,0,0,6.07-5.26,15.35,15.35,0,0,0,2.57-7.13,10.29,10.29,0,0,0-.77-5.23A8.4,8.4,0,0,0,238.4,211.71Z"/><path d="M41.81,51.06c-3.37,0-6.24-2.19-8.55-6.5a68.46,68.46,0,0,1-7.56,4.75l-.85.46-.49-.84A27.76,27.76,0,0,0,20.43,44c-.28,2.38-1.13,4.2-3.34,5.33-2.43,1.24-5.67,1.49-9.79,1.49H6.44L6.31,50A26.39,26.39,0,0,0,3.9,43l-.82-1.56,1.76.1c2,.11,3.89.12,4.62.12l1.59,0h.24V37.29L3.48,38.73,1.34,29.47l1.1-.15c2.19-.28,5.41-.7,8.85-1.24V24.45H2.6V15.69h8.69V13.44C9,13.75,7,14,5.17,14.13l-.92.08L4.1,13.3A25.08,25.08,0,0,0,2.16,7.56L1.53,6.29l1.41-.17a112.84,112.84,0,0,0,19.56-4L23.16,2,26.67,6.4c0-1,0-2,0-3v-1h9.53l0,1c0,1.12,0,2.26,0,3.41l5.47-3.71.58.5c2.54,2.2,5.78,5.45,7.27,8l.47.8-4.76,3.29h4.38v8.76H42.94L48.8,27l-.54,1a48.78,48.78,0,0,1-3.81,5.74l.46.5a17.74,17.74,0,0,0,5.48,3.9l.69.29-.09.75C49.91,48.16,47.68,51.06,41.81,51.06Zm-1.32-12.8c.86,2.3,1.54,3.1,1.86,3.36.22-.53.59-2,.8-6.32C42.31,36.3,41.43,37.29,40.49,38.26Zm-20,3.2a51.22,51.22,0,0,0,9.52-5.71,88.37,88.37,0,0,1-2.12-11.3h-7.4v2.22l7-1.12L28.21,34l-7.67,1.49Zm16.85-17c.16,1.13.34,2.26.54,3.36a30.94,30.94,0,0,0,2.15-3.36Zm4-8.76A36.81,36.81,0,0,0,36.16,9.4q.08,3.11.31,6.29Zm-14.32,0c-.13-1.75-.23-3.48-.31-5.18-2.14.58-4.37,1.05-6.26,1.43v3.75Z"/><path class="cls-2" d="M22.8,3.12l4.84,6.12c-2.52.74-5.28,1.33-8.1,1.87v5.58h8.64c-.34-4.44-.54-9-.54-13.33h7.5a131.8,131.8,0,0,0,.4,13.33h13v6.76H36.23c.34,2.37.69,4.64,1.13,6.72a34,34,0,0,0,3.71-5.43l6.31,2.71a50.42,50.42,0,0,1-8,10.57c1,3,2.17,4.73,3.21,4.73.84,0,1.38-2.32,1.63-7.9A18.63,18.63,0,0,0,50,39c-1.08,9-3.26,11.06-8.19,11.06-3.41,0-6.12-2.67-8.2-7a65.62,65.62,0,0,1-8.39,5.38,27.91,27.91,0,0,0-4.79-5.82,51.86,51.86,0,0,0,10.76-6.47,88.67,88.67,0,0,1-2.36-12.69H19.54v4.4l7.11-1.14.5,6.52-7.61,1.48v7c0,3.65-.69,5.58-2.91,6.71S11.3,49.81,7.3,49.81a27.54,27.54,0,0,0-2.51-7.25c1.62.09,3.37.12,4.66.12l1.65,0c.89,0,1.19-.25,1.19-1V36.09l-8,1.48L2.57,30.31c2.66-.34,6.07-.79,9.72-1.38V23.45H3.6V16.69h8.69V12.3c-2.47.34-4.89.64-7.21.84a25.7,25.7,0,0,0-2-6,116.71,116.71,0,0,0,19.74-4M41.51,4.35a37.45,37.45,0,0,1,7.06,7.75l-5.78,4c-1.13-2.32-4.09-5.73-6.66-8.1l5.38-3.65M23.51.79l-1.32.42A115.1,115.1,0,0,1,2.82,5.13L0,5.47,1.27,8a23.75,23.75,0,0,1,1.84,5.46l.21,1.22H1.6V25.45h8.69v1.77c-3.11.48-6,.85-8,1.11l-2.19.28.5,2.15L2.29,38l.43,1.86,1.88-.34,5.69-1v2.19H9.45c-.72,0-2.59,0-4.55-.12l-3.53-.21L3,43.49A25.29,25.29,0,0,1,5.32,50.1l.25,1.71H7.3c4.27,0,7.64-.27,10.24-1.6A6.63,6.63,0,0,0,21,46.09a23.9,23.9,0,0,1,2.47,3.35l1,1.67,1.7-.92A70.86,70.86,0,0,0,32.93,46c2.41,4,5.39,6,8.88,6,6.38,0,9-3.36,10.18-12.82l.18-1.49-1.39-.59a16.52,16.52,0,0,1-5-3.55,47.31,47.31,0,0,0,3.38-5.18l1.09-1.94-2-.88-.37-.16h2.72V14.69H48.34l1.37-.95,1.52-1.05-.93-1.6c-1.55-2.66-4.88-6-7.48-8.25l-1.16-1-1.27.87L37.12,4.91c0-.5,0-1,0-1.5l0-2H25.64V3.48l-1.27-1.6L23.51.79Zm-2,12c1.36-.28,2.84-.6,4.32-1,.05,1,.11,1.93.17,2.9H21.54V12.76ZM37.4,14.69q-.09-1.37-.15-2.73c.85.93,1.63,1.87,2.28,2.73Zm-28,0,.86-.11v.11ZM21.54,25.45h.31l-.31.05v-.05Zm0,10.9,2.19-.42,3.8-.74,1.29-.25c0,.14.07.27.1.41a50.11,50.11,0,0,1-7.38,4.52V36.35Zm20.12,2.14.29-.31c0,.29-.06.56-.09.8l-.2-.49Z"/><path d="M76.13,50.63a16.6,16.6,0,0,0-4.63-4.25l-1.13-.68,1-.91a25.36,25.36,0,0,0,3-3.39l-3.85,1.83-.23-1.29a28.08,28.08,0,0,0-1.42-4.71v6c0,2.9-.44,4.95-2.63,6.2-2,1.08-4.26,1.16-7,1.16h-.86l-.13-.84a20.32,20.32,0,0,0-.86-3.28l-.83,1.34L55.62,47A38.22,38.22,0,0,0,51,43.73l-.94-.53.6-.9c1.57-2.38,2.93-6.35,3.76-10.94h-.82V15.57H51.76V7.35h8.15c-.31-1-.64-1.92-1-2.73l-.44-1.1L67,1.73l.34.71a45.61,45.61,0,0,1,2,4.91h7.17v7.11h4.6c.07-2.45.08-4.91.09-7.31,0-1.37,0-2.73,0-4.1l0-1h8.71l0,2.85,3.19-1.85.55.63a40.58,40.58,0,0,1,5.48,8l.35.8-3.1,1.92h3.23v8.36H92.81v20h.13c0-.14.06-.36.1-.73.08-.81.14-2.85.14-5.48V34.24l1.69,1.62a15.78,15.78,0,0,0,5.1,2.78l.72.24,0,.76a32.56,32.56,0,0,1-.79,6.54,5.13,5.13,0,0,1-2.58,3.14,7.29,7.29,0,0,1-3.46.75H90.72a6.49,6.49,0,0,1-4.36-1.62C85.1,47.18,84.69,45.6,84.69,42v-1.6a34.45,34.45,0,0,1-7,10.41l-.85.85Zm-17-8H60.5V39C60.08,40.27,59.63,41.52,59.15,42.68ZM74.38,31.36a41.88,41.88,0,0,1,2.46,5.8,44.07,44.07,0,0,0,3.69-14.34H75.11V15.57h-.17V31.36Zm-8-7.43V22.77H61.71v1.16Zm25.45-9.47a37.33,37.33,0,0,0-2.09-3.56c0,1.19-.07,2.37-.13,3.56Z"/><path class="cls-2" d="M66.44,2.87a41.18,41.18,0,0,1,2.12,5.48h6.91v6.22H52.76V8.35h8.49a41.91,41.91,0,0,0-1.38-4.1l6.57-1.38m22.46.2-.05,3.6,4-2.32a39.21,39.21,0,0,1,5.34,7.8l-4.89,3a40.08,40.08,0,0,0-4.44-7.35c0,2.51-.1,5.08-.25,7.65h10v6.36H88.16L88,23.5h3.85V42.11a4.59,4.59,0,0,0,.1,1.43.53.53,0,0,0,.49.25h.74a.58.58,0,0,0,.5-.2c.19-.1.29-.49.39-1.43s.15-3,.15-5.58a16.62,16.62,0,0,0,5.48,3,30.13,30.13,0,0,1-.74,6.27,4.11,4.11,0,0,1-2.08,2.57,6.41,6.41,0,0,1-3,.64H90.72a5.46,5.46,0,0,1-3.65-1.33c-.94-.94-1.38-2.12-1.38-5.78v-7.2A35.73,35.73,0,0,1,77,50.06,17.38,17.38,0,0,0,72,45.52c6.41-6.07,8.73-14.56,9.62-23.7H76.11V15.46H82c.15-4.15.1-8.3.15-12.39H88.9m-15,13.23V30.36H67.82V43.2c0,2.71-.4,4.34-2.12,5.33s-3.8,1-6.52,1A24,24,0,0,0,57.45,44a22.4,22.4,0,0,1-1.18,2.22,38.2,38.2,0,0,0-4.79-3.41c1.93-2.91,3.26-7.45,4-11.79l5.73,1.23a54.65,54.65,0,0,1-3.56,11.35c1.28,0,2.67,0,3.16,0s.69-.15.69-.64V30.36H54.59V16.3H73.94M60.71,24.93h6.71V21.77H60.71v3.16m12.05,5.53a36.87,36.87,0,0,1,3.65,8.84l-5.19,2.47a36.65,36.65,0,0,0-3.35-9.09l4.89-2.22M67.57.59,66,.91,59.46,2.29l-2.33.49L58,5c.16.42.33.88.5,1.36H50.76V16.57h1.83V32.36h.61a28.25,28.25,0,0,1-3.39,9.39l-1.19,1.8,1.89,1.05A35.57,35.57,0,0,1,55,47.77l1.78,1.54.27-.44c.08.36.15.7.19,1l.26,1.7h1.72c2.8,0,5.29-.1,7.47-1.28a5.81,5.81,0,0,0,2.87-3.93l1.47.88a15.32,15.32,0,0,1,4.31,3.95l1.36,2,1.71-1.7a34,34,0,0,0,5.4-7.11,7,7,0,0,0,1.88,4.79,7.42,7.42,0,0,0,5.07,1.92h3.11a8.42,8.42,0,0,0,4-.88,6.12,6.12,0,0,0,3-3.67,32.17,32.17,0,0,0,.85-6.84l.06-1.51-1.43-.47a15,15,0,0,1-4.73-2.56l-1.75-1.68V23.82h6.76V13.46h-.7l.84-.53L100,11.34a41.53,41.53,0,0,0-5.63-8.29L93.29,1.78l-1.45.84-.94.55V3.09l0-2H80.21l0,2c0,1.38,0,2.75,0,4.14,0,2.06,0,4.17-.07,6.28H77.47V6.35H70A45.68,45.68,0,0,0,68.25,2L67.57.59Zm8.37,23.23H79.4a46.12,46.12,0,0,1-2.49,10.65c-.3-.73-.63-1.47-1-2.2V23.82ZM69.77,44.67l.46-.21-.48.45c0-.08,0-.16,0-.24Z"/><path d="M116.68,50a20.23,20.23,0,0,0-1.88-6.17l-.66-1.07,1.19-.4c.71-.24,1.15-.45,1.15-1.72V37.74c-2.11,4.17-4.33,8.29-6.53,12.08l-.6,1L102,44.67l.51-.75a154.5,154.5,0,0,0,8.87-15.29l.61-1.2,4.52,4.29V25h-.6V12.1l-2.53,3.67-.84-.66c-1.52-1.21-4.64-3.1-7.15-4.62l-2.31-1.41L108,2.28l.76.39c1.14.59,4.52,2.36,7.13,3.84V4h29.6V25H139.4v3.67H148v8h-6.12l1.44,1.12A18.22,18.22,0,0,0,149,40.15l.84.21-.08.86c-.67,7-2.72,9.54-7.56,9.54h-3.95c-4.14,0-6.11-1.25-7-3.74l-.06,0c-9.52,2.18-11.76,2.93-12.95,3.71l-1.33.86Zm24.67-7.4a25.56,25.56,0,0,0,.35-4.12l.07-1.87H139.4v5.07c0,.18,0,.63,0,.92Zm-15.81-2.72,5-1V36.6h-5Zm5-11.3V25h-5v3.62Zm-20.72,0a93.61,93.61,0,0,0-8.77-5.26l-1-.53,4.76-6.94.77.36c2.91,1.37,7.06,3.44,9.18,4.74l.87.53-5,7.73Z"/><path class="cls-2" d="M108.29,3.56c2.47,1.28,6.37,3.36,8.59,4.69V5h27.6V24h-27.6V8.89l-3.75,5.43c-1.87-1.48-6-3.9-8.64-5.53l3.8-5.23M124,12.05H137V10.32H124v1.73m0,6.66H137V17H124v1.72m-18.81-1.53c2.62,1.24,6.91,3.36,9.09,4.69l-3.85,6a103.2,103.2,0,0,0-8.89-5.33l3.65-5.34M138.4,25v4.69H147v6H138.4v6.07c0,1.72.1,1.92,1,1.92h2c.88,0,1.08-.74,1.23-5.08a19.44,19.44,0,0,0,6,2.56c-.64,6.67-2.42,8.64-6.56,8.64h-3.95c-5.38,0-6.62-2-6.62-8V25h6.81m-13.87.25v4.39h5.93v6h-5.93v5.52l5.48-1a50.58,50.58,0,0,0,.94,6c-9.92,2.27-12,3-13.28,3.85a20.88,20.88,0,0,0-2-6.56,2.38,2.38,0,0,0,1.83-2.67V25.23h7m-12.29,3.85,5,4.79c-2.52,5.18-5.33,10.51-8.2,15.45l-5.77-4.84a153.67,153.67,0,0,0,8.93-15.4M107.69,1l-1,1.4-3.81,5.23L101.6,9.37l1.85,1.13,1.39.84c2.48,1.51,5.58,3.38,7,4.55l1.67,1.32,1.22-1.75.1-.16v4.58c-2.26-1.33-6.07-3.22-8.79-4.5l-1.54-.73-1,1.4-3.65,5.34L98.69,23.2l1.92,1.07a91.5,91.5,0,0,1,8.66,5.18l.39.29a147,147,0,0,1-8,13.62l-1,1.49L102,46l5.78,4.84,1.82,1.53,1.19-2.06c1.08-1.85,2.16-3.78,3.23-5.76a20.44,20.44,0,0,1,1.65,5.62l.42,3.14,2.66-1.74c1-.67,3.18-1.39,11.86-3.39,1.12,2.31,3.35,3.57,7.58,3.57h3.95c6.26,0,8-4.17,8.55-10.44l.17-1.73-1.69-.41A22.11,22.11,0,0,1,145,37.65h4v-10H140.4V26h6.08V3h-31.6V4.81c-2.3-1.27-4.74-2.54-5.66-3L107.69,1Zm5.54,26.27,1.65-2.58V26h.6v3.39l-1.86-1.76-.39-.37ZM126.53,26h3.06v1.62h-3.06V26Zm0,11.6h3.06v.53l-3.06.58V37.6Zm13.87,0h.33l0,.84c0,.62-.07,2.19-.18,3.15h-.12v-4Z"/><path d="M148.63,42.69l.54-.57a21.41,21.41,0,0,1,5-3.93,25.82,25.82,0,0,0,2.89-6h-7l.57-1.38c1-2.37,2.12-5.58,3.26-9.13H150V13.32h5c-.48-1.28-1.17-2.93-1.84-4.53-.53-1.26-1.06-2.53-1.49-3.63l-.38-1,8.07-2.95.37.86c.55,1.25,1.18,2.64,1.8,4,.75,1.62,1.45,3.15,2,4.37l.39.92-4.55,1.92H164V7.25h12c-.3-.8-.64-1.66-1-2.4l-.45-1,8.84-2.58.38.74a51.28,51.28,0,0,1,2.41,5.28h11.57v7.43H193.6V26.55h.59V40.34c1.48-.16,2.86-.35,4.07-.55l1.8-.3-.71,1.68a28.38,28.38,0,0,0-2.1,7.21l0,.89-.89.06c-4.07.29-12.46.59-18.48.59s-10.7-.41-14.68-2.48c-.78-.41-1.5-.85-2.14-1.25a8.1,8.1,0,0,0-2.13-1.1c-.37.13-1.66,1.63-3.45,5.22l-.78,1.55Zm14.91-4.19c.41.24.86.5,1.34.75a10.92,10.92,0,0,0,1.94.84V27.4A46.62,46.62,0,0,1,163.54,38.5Zm21.59-4v-1h-9.59v1Zm-17.76-8V14.68h-2.31c-.85,2.68-1.92,6-3,9.22l5,2-.1.62Z"/><path class="cls-2" d="M182.88,2.43a48.54,48.54,0,0,1,2.42,5.33l-1.58.49h13v5.43H165V8.25H177.4c-.45-1.23-1-2.67-1.48-3.8l7-2m-24,.09c1.18,2.72,2.81,6.12,3.75,8.35l-6.42,2.71c-.79-2.27-2.47-6-3.55-8.78l6.22-2.28m5.23,11.8c-1.09,3.46-2.32,7.31-3.55,10.76h.19l1-.2L166,26.56a44.66,44.66,0,0,1-3.71,12.34c.6.35,1.34.79,2.18,1.24,3.35,1.87,8.24,2.12,13.77,2.12a153.07,153.07,0,0,0,20.24-1.48,29.08,29.08,0,0,0-2.18,7.55c-4.19.3-12.63.59-18.41.59-6.46,0-10.61-.49-14.21-2.37-2.08-1.08-3.76-2.46-4.74-2.46-1.19,0-3.11,3.3-4.35,5.77L149.9,42.8A20.35,20.35,0,0,1,154.84,39a27,27,0,0,0,3.55-7.75h-6.86c1.19-2.86,2.52-6.71,3.7-10.51H151V14.32h13.08m28.48.49v5H168.36v-5H192.6m0,6.32v5H168.36v-5H192.6m.59,6.42v13H167.82v-13h25.37m-18.65,8h11.59v-3H174.54v3M160,0,158.2.65,152,2.92l-1.92.7.75,1.91c.44,1.12,1,2.41,1.5,3.65.45,1.07.9,2.16,1.29,3.14H149V22.69h3.46c-1,3-2,5.7-2.82,7.75l-1.14,2.76h7.07a23.73,23.73,0,0,1-2.17,4.24,23.1,23.1,0,0,0-5,4l-1.08,1.15.86,1.32L152.87,51l1.91,2.9,1.55-3.1a21.66,21.66,0,0,1,2.79-4.53c.38.2.94.54,1.38.81.65.4,1.39.86,2.2,1.29,4.15,2.16,8.87,2.59,15.14,2.59,6,0,14.47-.3,18.55-.59l1.77-.13.09-1.77a27.78,27.78,0,0,1,2-6.87l1.42-3.35-3.59.6c-.89.14-1.87.28-2.91.41V25.55h-.59V15.68h4.15V6.25H186.87c-.73-1.82-1.85-4-2.21-4.74L183.9.05l-1.58.46-7,2-2.18.63.9,2.09c.14.31.28.65.42,1H163v.42l-.45-1c-.61-1.34-1.25-2.73-1.79-4L160,0Zm5.82,15.68h.57v8.89l-3.07-1.24c.9-2.63,1.77-5.34,2.5-7.65Zm-1,22.4c.36-.85.7-1.73,1-2.64v3.18l-.43-.23-.58-.31Z"/><path d="M203.59,50.81V29.64l-1.48,1.82-.55-1.79a53.17,53.17,0,0,0-3.27-7.7l-.34-.61.45-.53c3.7-4.37,7.12-11.15,9.13-18.14l.28-1,8.57,2.56-.32,1c-.48,1.42-1,2.8-1.44,4.11h5.54v1a21.66,21.66,0,0,0,5.42-7.87l.33-.83,8.23,2.25-.37,1c-.18.47-.37.93-.58,1.37h14.07v7.33H244.8a28.32,28.32,0,0,1-4.23,5.43,34.73,34.73,0,0,0,7.21,1.81l2,.29-1.41,1.41a27.06,27.06,0,0,0-3.81,5.53l-.35.68-.76-.16a35.42,35.42,0,0,1-6.53-2.15v2.39h9.48V37H243.6a31.68,31.68,0,0,1,4.8,7l.39.85-7.36,3.94-.4-1.06a29.71,29.71,0,0,0-4.14-6.8v9.71h-8.66v-9a33.32,33.32,0,0,1-5.6,6.62l-.65.57-.65-.55a38.62,38.62,0,0,0-5.16-3.39l-1.4-.75,1.28-.94c.32-.23.64-.49.95-.76h-4.59v8.34Zm16.57-11.74A21.77,21.77,0,0,0,221.52,37h-1.36ZM236.89,38,239,37h-2.12Zm-8.66-.46V37h-1.94Zm0-8.68v-2a54.83,54.83,0,0,1-5.34,1.82l-.56.16Zm-6.21,0-.32-.72a21.66,21.66,0,0,0-1.54-2.61v3.33Zm12.11-3.75c-.33-.18-.65-.37-1-.56l-1,.56Zm-14-4.51A41.11,41.11,0,0,0,226,18.76c-.34-.37-.66-.74-.95-1.1a22,22,0,0,1-2.28,1.87l-.83.59-.58-.84c-.28-.42-.72-1-1.23-1.68Zm11.52-7c.39.38.8.75,1.25,1.12.42-.36.83-.73,1.22-1.12Z"/><path class="cls-2" d="M226.51,2.87l6.32,1.73c-.35.93-.79,1.82-1.23,2.71h14.66v5.33h-2a27.11,27.11,0,0,1-5.48,6.77,34.35,34.35,0,0,0,8.89,2.46,28.32,28.32,0,0,0-4,5.78,34,34,0,0,1-10.47-4.25,47.79,47.79,0,0,1-10.56,4.35,29,29,0,0,0-3.45-5.23v19h-6v-31c-.54,1.38-1.13,2.77-1.72,4.1V49.81h-6.82V26.71q-1,1.41-2.07,2.67a55.5,55.5,0,0,0-3.35-7.9C203,17,206.47,10,208.49,3l6.62,2c-.59,1.78-1.24,3.61-1.93,5.43h6v2.12a22.51,22.51,0,0,0,7.35-9.62m9.87,9.77h-7a21.14,21.14,0,0,0,3.51,3.41,20.27,20.27,0,0,0,3.45-3.41m-17.22,9.23a43,43,0,0,0,8.59-2.76,24.42,24.42,0,0,1-2.57-3,21.27,21.27,0,0,1-3,2.56c-.64-.93-1.93-2.61-3.06-3.94v7.1m16.73,4.25v3.75h9.48V36h-9.48V49.66h-6.66V36h-8.35V29.87h8.35V26.12h6.66M242,36.68a32.51,32.51,0,0,1,5.53,7.75l-5.53,3a32.11,32.11,0,0,0-5.23-8.19L242,36.68m-19.3.3,6.12,1.78A33.22,33.22,0,0,1,222,47.54a39.21,39.21,0,0,0-5.33-3.5,21.73,21.73,0,0,0,6-7.06M225.31.47l-.66,1.66a20.76,20.76,0,0,1-3.91,6.24H216c.33-.9.65-1.84,1-2.8l.65-1.95-2-.59-6.61-2L207.13.47l-.56,1.94c-1.95,6.76-5.37,13.57-8.93,17.78l-.9,1.06.68,1.21a54.37,54.37,0,0,1,3.19,7.5l1.09,3.57.89-1.09V51.81h10.82V44.58l2.29,1.22a38.56,38.56,0,0,1,5,3.27L222,50.18,223.29,49a31.4,31.4,0,0,0,3.94-4.25v6.87h10.66V44.05a22.3,22.3,0,0,1,2.2,4.06l.81,2.12,2-1.07,5.52-3,1.66-.88-.78-1.71A29.87,29.87,0,0,0,245.73,38h1.64V27.87h-1.58a25.49,25.49,0,0,1,3.26-4.58l2.82-2.82-3.94-.58a35.25,35.25,0,0,1-5.57-1.26,29.71,29.71,0,0,0,3-4h2.9V5.31H234.7v0l.75-2-2.1-.57L227,.94,225.31.47Zm-11.9,43H214l-.62.46v-.46Z"/><path d="M253.55,50.86V33.79l-.54.51-1,1L251.4,34a41.64,41.64,0,0,0-3.63-6.5l-.56-.75.72-.61a36.3,36.3,0,0,0,7.68-9.69c-.78.71-1.56,1.37-2.33,2l-.91.7-.57-1a44.7,44.7,0,0,0-3.54-5.23l-.69-.81.85-.63a30.76,30.76,0,0,0,7.81-8.9l.41-.77L265,4.82l-.65,1c-.23.36-.46.72-.7,1.08h4.58V2H277V7h4.81V4.49h14.49v8.27H282.15v2.12H277v1.75h5.78v1.09h14.36v8.36H294V42.16c0,3.44-.5,5.85-3,7.24-2.21,1.3-5,1.41-8.19,1.41h-.9l-.09-.89a26.41,26.41,0,0,0-.86-4c-4.24.48-8.64.91-12.55,1.3l-5.34.54-.93.09v3Zm30.85-9.13h.49V26.08h-3.31V24.8h-4.66v3h5.53V35.9h-5.53v2.16l6.1-.54.1,4.19Zm-22.29-2.49,2.51-.17,3.54-.26V35.9h-5.53V27.83h5.53v-3h-5.83V22.16l-.22.38Zm6.15-22.61V14.88h-3.6l1.09.37-.41,1c0,.13-.11.26-.17.39Zm-5-2.24V7.63A53,53,0,0,1,259,13Z"/><path class="cls-2" d="M276,3V8h5.13v5.93H276v3.75h5.78V23.8H263.33V18.17c-.69,1.38-1.43,2.77-2.22,4.1V49.86h-6.56V31.3c-.74.84-1.48,1.58-2.22,2.27a44.2,44.2,0,0,0-3.76-6.71,37.66,37.66,0,0,0,9.48-13.18l6.37,2.17c-.25.59-.54,1.19-.79,1.78h5.63V13.88h-5V8h5V3H276M257.11,3l6.42,2.37a49.86,49.86,0,0,1-10.86,12.24A45.38,45.38,0,0,0,249,12.2,31.5,31.5,0,0,0,257.11,3m38.21,2.52v6.27H282.83V5.49h12.49m.84,13.22v6.37H293V42.16c0,3.26-.44,5.23-2.47,6.37s-4.44,1.28-7.7,1.28a28.44,28.44,0,0,0-1.13-5c-6.52.74-13.43,1.38-18.71,1.92l-.69-6.51c2-.15,4.34-.3,6.91-.5V34.9h-5.53V28.83h5.53V24.54h6.76v4.29h5.53V34.9h-5.53v4.25l6.12-.54.1,4.09c.86,0,1.67,0,2.26,0a6.16,6.16,0,0,0,.7,0c.59,0,.79-.09.79-.69V25.08h-3.31V18.71h13.58M256.17.49,255.35,2a29.67,29.67,0,0,1-7.53,8.57l-1.7,1.27,1.37,1.62a41.77,41.77,0,0,1,3.44,5.08l1,1.73a31.89,31.89,0,0,1-4.63,5l-1.43,1.22,1.12,1.5a41.41,41.41,0,0,1,3.51,6.29L251.59,37l1-.89V51.86h10.56V48.74h0l5.38-.54c3.64-.36,7.7-.76,11.67-1.2a20.57,20.57,0,0,1,.6,3l.2,1.78h1.79c3.2,0,6.28-.12,8.72-1.56,3.18-1.78,3.45-5.11,3.45-8.09V27.08h3.21V16.71H283.8V15.63h-.65V13.76h14.17V3.49H280.83V6H278V1H267.26V6H265.5l1-1.64-2.3-.85-6.41-2.37-1.64-.6Zm4.58,12c.5-.59,1-1.2,1.47-1.81V13l-1.47-.5ZM277.92,25.8h2.66v1h-2.66v-1Zm-14.81,0h4.05v1h-4.05v-1Zm20.34,1.28h.44v9.36l-.44,0V27.08Zm-5.53,9.82h.67l-.67.06V36.9Zm-14.81,0h4.05v1l-2.58.18-1.47.1V36.9Z"/><path d="M8.72,110.38v-26H2.3V75.5H8.72V65.38h9.46V75.5h3.38V64.35h9.15V75.5H34V64.79H43.6V75.5h6.07v8.91H43.6V98.68h-22V84.41H18.18v17h30.3v9ZM34,90.12V84.41H30.71v5.71Z"/><path class="cls-2" d="M29.71,65.35V76.5H35V65.79H42.6V76.5h6.07v6.91H42.6V97.68h-20V83.41H17.18v19h30.3v7H9.72v-26H3.3V76.5H9.72V66.38h7.46V76.5h5.38V65.35h7.15m0,25.77H35V83.41H29.71v7.71m2-27.77H20.56V74.5H19.18V64.38H7.72V74.5H1.3V85.41H7.72v26H49.48v-11H19.18v-15h1.38V99.68h24V85.41h6.07V74.5H44.6V63.79H33V74.5H31.71V63.35Zm0,22.06H33v3.71H31.71V85.41Z"/><path d="M59.63,112.57A25,25,0,0,0,55,107l-1.42-1.19,1.78-.53c6.54-1.94,8-4.75,8.32-7.21a38.26,38.26,0,0,1-6.6,3.13l-.78.29-.42-.71a32.84,32.84,0,0,0-4.57-5.66L50,93.94l1.7-.48A36.07,36.07,0,0,0,61,89.4H56.5V65.58H94.68V89.4H90a34.89,34.89,0,0,0,9.31,3.65l1.84.45-1.4,1.27a27.88,27.88,0,0,0-4.59,5.86l-.4.73L94,101.1a34.24,34.24,0,0,1-6.09-2.68v14.13h-9.5V93h2.27a32.82,32.82,0,0,1-3.15-3.58h-3.8a36.55,36.55,0,0,1-3.11,3.43h2.53v4.6C73.11,105,69,110.24,60.84,113l-.8.27Zm25.55-30.9v-.56H80v.56Zm-14.41,0v-.56H65.66v.56Zm14.41-7.84v-.52H80v.52Zm-14.41,0v-.52H65.66v.52Z"/><path class="cls-2" d="M93.68,66.58V88.4h-7A33.65,33.65,0,0,0,99.06,94a28.74,28.74,0,0,0-4.78,6.12,31.94,31.94,0,0,1-7.41-3.51v14.91h-7.5V94h3.85A33.15,33.15,0,0,1,78,88.4H73.2A34.38,34.38,0,0,1,68,93.83h4.14v3.6c0,4.74-1.53,11.21-11.6,14.66a25.82,25.82,0,0,0-4.88-5.82c8-2.37,9.08-6.22,9.08-9.13v-.89a36.9,36.9,0,0,1-8,4A33,33,0,0,0,52,94.42a35.74,35.74,0,0,0,12.15-6H57.5V66.58H93.68M79,74.83h7.16V72.31H79v2.52m-14.36,0h7.11V72.31H64.66v2.52M79,82.67h7.16V80.11H79v2.56m-14.36,0h7.11V80.11H64.66v2.56m31-18.09H55.5V90.4H57a36.74,36.74,0,0,1-5.58,2.1l-3.41,1,2.59,2.42A31.3,31.3,0,0,1,55,101.33l.85,1.41,1.55-.57a41,41,0,0,0,4.52-2c-.9,1.4-2.81,2.94-6.86,4.14L51.5,105.4l2.84,2.4a24.24,24.24,0,0,1,4.42,5.25l.8,1.49,1.6-.55c8.6-2.95,13-8.52,13-16.56v-5.6H72.94c.41-.46.82-.94,1.22-1.43H77c.42.53.86,1.06,1.32,1.58h-.94v21.57h11.5V100.09a36.26,36.26,0,0,0,4.77,2l1.58.52.81-1.45a26.62,26.62,0,0,1,4.38-5.61l2.8-2.55-3.68-.88A35.48,35.48,0,0,1,94.3,90.4h1.38V64.58Z"/><path d="M133.36,112.8v-1.58h-17v1.58h-9.2V87.4h35.76v25.4Zm0-9.46v-.46h-17v.46Zm0-7.8v-.27h-17v.27Zm-31.94-8.46V78.71H111a23,23,0,0,0-1-2.55l-.15-.28h-5.69V67.56h15.62a17.7,17.7,0,0,0-.79-1.8l-.66-1.25,9.61-1.38.34.56a20.69,20.69,0,0,1,1.8,3.87h15.87v8.32h-5.28l-1.35,2.83h8.8v8.37Zm27.79-8.37c.31-.9.61-1.89.86-2.83H119.92A24.17,24.17,0,0,1,121,78.71Z"/><path class="cls-2" d="M127.4,64.21a20.08,20.08,0,0,1,1.92,4.35h15.6v6.32H135.2l4.39.88-1.88,3.95h9.38v6.37H102.42V79.71h10a25.86,25.86,0,0,0-1.53-4l4.49-.83H105.13V68.56h16.05a24.58,24.58,0,0,0-1.34-3.26l7.56-1.09m3.95,10.67h-13a23,23,0,0,1,1.93,4.83h9.67a41.73,41.73,0,0,0,1.44-4.83M141.91,88.4v23.4h-7.55v-1.58h-19v1.58h-7.2V88.4h33.76m-26.56,8.14h19V94.27h-19v2.27m0,7.8h19v-2.46h-19v2.46m13.06-42.29-1.3.18-7.55,1.09-2.8.4,1.31,2.51c.06.1.11.21.17.33H103.13V76.88h6.07c.13.26.25.54.37.83h-9.15V88.08h5.73V113.8h11.2v-1.58h15v1.58h11.55V88.08h5.18V77.71h-8.21l.4-.83h5.64V66.56H130.74a20.55,20.55,0,0,0-1.64-3.39l-.69-1.12Zm-7,14.83h7.33c-.09.28-.17.56-.26.83h-6.77l-.3-.83Z"/><path d="M169.78,112.55V102.24a29.29,29.29,0,0,1-14.88,9.19l-.74.2-.38-.66a29,29,0,0,0-4.5-5.69l-1.53-1.38,2-.34c5.26-.9,10-2.75,12.61-4.88H150.53V90.86h1.38l0-.12a37.57,37.57,0,0,0-1.71-5l-.5-1.12,1.19-.27c.8-.18,1.61-.94,2.73-2.2l.6-.69a2.63,2.63,0,0,0-.66.26l-1.11.6-.33-1.22c-.29-1-1.16-3.56-1.73-4.9l-.46-1.07,1.12-.29c.3-.08.81-.41,1.55-1.52a33.48,33.48,0,0,0,3.67-8.06l.29-1,7.5,2.57-.43,1c-.34.78-.73,1.59-1.16,2.41l3.48,2V67.9h4.19a28.12,28.12,0,0,0,.55-3.57l.09-1.08,8.72,1.42-1.43,3.23h4.35v5.28A35.64,35.64,0,0,0,186,65.26l.28-.94,7.77,2.14-.44,1.05c-.35.84-.75,1.7-1.2,2.59l6.68,3.79-.57.88c-1.1,1.71-2.36,3.48-3.73,5.22l1.42-.34.26.93a82.6,82.6,0,0,1,1.9,9.21l.12.89-.85.22v7.78H187.17a82.69,82.69,0,0,1,10.3,6.36l.84.67-6,6.56-.73-.67a81.79,81.79,0,0,0-12-8l-.59-.33v9.24ZM179,102.44l3.63-3.76H179Zm-9.21-2.16v-1.6H165.5Zm21.89-9.42c0-.16,0-.32,0-.48-1.83.18-3.23.34-4.32.48Zm-9.6,0c-.09-.31-.2-.69-.34-1.11H179v1.11Zm-12.29,0V89.75h-1.72l.07.55-2.3.56Zm-8.43,0s0-.72-.08-1c-3.18.44-5,.74-6.17,1Zm21.05-7.2a20.27,20.27,0,0,0,1.48-1.43c.18-.18.42-.45.67-.75a6.74,6.74,0,0,0-1.3.42l-.85.4Zm-8.27-1v-.42H174v.42Zm-8.2-5.22c-.51.75-1.06,1.51-1.63,2.26l1.63-.36Zm8.2-2V75H174v.36Z"/><path class="cls-2" d="M171.67,64.41l6.37,1-1.53,3.45h4.89v6.77a5,5,0,0,0,1.72-1.78A35.49,35.49,0,0,0,187,65.55l5.73,1.58a45.13,45.13,0,0,1-4.44,7.94l2.32-.19c.74-1.19,1.38-2.37,2-3.56l5.14,2.91a69.15,69.15,0,0,1-5.53,7.41l3.35-.79a81.42,81.42,0,0,1,1.88,9.08l-4.69,1.19c0-.55-.1-1.19-.2-1.83-7,.69-8.44,1-9.42,1.43-.3-1-1-3.46-1.68-5v3H166.93V74a69,69,0,0,1-5.13,7.2l3.5-.79A75.76,75.76,0,0,1,167,89.54l-4.69,1.13c-.05-.59-.1-1.23-.2-1.92-6.91.93-8.34,1.28-9.28,1.77a37.54,37.54,0,0,0-1.77-5.18c1.08-.25,2-1.13,3.26-2.52.44-.49,1.28-1.48,2.27-2.81a10.18,10.18,0,0,0-3.56.84,51.68,51.68,0,0,0-1.77-5,4.16,4.16,0,0,0,2.12-1.92,34.28,34.28,0,0,0,3.8-8.34l5.48,1.87a46.07,46.07,0,0,1-4.44,7.8l1.62-.15A34.34,34.34,0,0,0,162,71.12l4.93,2.77v-5h4a33.47,33.47,0,0,0,.74-4.49m1.28,12h2.18V74H173V76.4m8.45,8.94a7.67,7.67,0,0,0,3.2-2.42A34.57,34.57,0,0,0,187,80.06a13.93,13.93,0,0,0-4.14.93,40.74,40.74,0,0,0-1.43-4.24v8.59M173,83.61h2.18V81.19H173v2.42m-14.16,1,2.66-.25c-.14-.79-.29-1.53-.44-2.27q-1.11,1.34-2.22,2.52m30.26.34,2.66-.19c-.15-.74-.29-1.48-.44-2.18q-1.11,1.26-2.22,2.37M178,89.78v2.08h18.66v5.82H178v13.87h-7.21V97.68H151.53V91.86h19.25V89.78H178m6.37,8.54a95,95,0,0,1,12.49,7.51l-4.64,5c-2.57-2.32-8.1-5.83-12.15-8.1l4.3-4.44M163.53,99l5.82,2.18a28.3,28.3,0,0,1-14.71,9.28,29.88,29.88,0,0,0-4.69-5.93c5.48-.94,10.81-3,13.58-5.53m6.31-36.92-.16,2.17c-.06.71-.19,1.63-.38,2.64h-4.21l.3-.67-2-.7-5.48-1.88-2-.68-.58,2a31.61,31.61,0,0,1-3.51,7.74c-.67,1-1,1.14-1,1.14l-2.23.6.92,2.12c.54,1.28,1.41,3.77,1.68,4.77l.4,1.47a2.34,2.34,0,0,1-.88.55l-2.38.54,1,2.23a36.43,36.43,0,0,1,1.34,3.7h-1.07v9.82h9.4a34.25,34.25,0,0,1-9.31,2.89l-4.06.69,3.05,2.77a28.26,28.26,0,0,1,4.31,5.44l.76,1.32,1.47-.39a31,31,0,0,0,13.63-7.61v8.76H180V105a78.2,78.2,0,0,1,10.88,7.32l1.47,1.33,1.34-1.45,4.64-5,1.46-1.58-1.69-1.34A62.93,62.93,0,0,0,191,99.68h7.64v-8l1-.24-.25-1.78a82.64,82.64,0,0,0-1.93-9.33L197,78.74c.84-1.15,1.64-2.3,2.36-3.43l1.14-1.77-1.84-1.05-4.94-2.8c.3-.61.57-1.21.82-1.79l.87-2.1-2.19-.6-5.72-1.58-1.89-.52L185.06,65a31.78,31.78,0,0,1-1.66,4.25V66.9h-3.82l.29-.64,1-2.37-2.56-.42-6.37-1-2.15-.35Zm-6.06,7.74c.26-.54.51-1.08.74-1.61l.41-1v3.21l-1.15-.65ZM180,99.68h.27L180,100v-.28Z"/><path d="M215.93,112.75a23.27,23.27,0,0,0-5.37-3.22l-1.15-.44.66-1a31,31,0,0,0,4-11.47c-2.05,4.76-4.53,10-7.19,15.09l-.61,1.17-6.85-6.4.43-.7a145.46,145.46,0,0,0,7.95-15.2A62.19,62.19,0,0,0,199.36,85l-.89-.5,4.2-7,.83.39a60.5,60.5,0,0,1,9,5.2l.67.53-3.69,6.62,4.81,5.12A90.83,90.83,0,0,0,215,82.48V71.82l-3.95,6.53-.9-.8a76.23,76.23,0,0,0-8.46-5.93l-.84-.54,4.39-6.91.82.45A74.54,74.54,0,0,1,215,70.15V69l.88-.1c8.92-1.09,17.94-3,23.54-4.89l.6-.21,7.25,7.51-1.57.47a147.55,147.55,0,0,1-22.24,4.52v1.22l.47-.08v-.11h.64l.22,0a74.94,74.94,0,0,0,14.35-3.35l.61-.23L246.87,81l-1.55.49c-1.6.5-3.43,1-5.7,1.5.18,1.39.38,2.67.59,3.86.57-.64,1.11-1.28,1.53-1.86l.71-1,6.65,7.17-1,.64c-1.62,1-3.15,2.09-4.49,3l-1,.71a18.53,18.53,0,0,0,5.71,8.21l1,.76-1,.81a26.37,26.37,0,0,0-4.76,5.79l-.61,1.09-.93-.83a22.2,22.2,0,0,1-4.09-5l-.53.22c-8.2,3.43-10.29,4.56-11.26,5.45l-1.24,1.12-.41-1.62a21.21,21.21,0,0,0-2.36-5.4l-.62-.88.92-.55a3.16,3.16,0,0,0,1.49-2.94V78.65l-.47-.47v4.3c0,9.26-1,22-6,30l-.62,1Zm16.22-12.46,2.66-1A72,72,0,0,1,232.15,87Z"/><path class="cls-2" d="M239.74,64.9l5.68,5.88a148.31,148.31,0,0,1-23,4.59v7.11c0,8.44-.84,21.37-5.87,29.51a24.45,24.45,0,0,0-5.68-3.4c4.74-7.5,5.09-18.51,5.09-26.11V69.84c8.49-1,17.72-2.86,23.74-4.94m-34.16.6a74.12,74.12,0,0,1,8.79,5.43l-3.56,5.87a82.8,82.8,0,0,0-8.58-6l3.35-5.28m33.91,9.33L245,80.5c-2,.64-4.24,1.19-6.51,1.68.29,2.32.64,4.59,1.08,6.76a33.24,33.24,0,0,0,3-3.4l5,5.38c-2.32,1.43-4.39,3-6.17,4.24,1.43,3.9,3.45,7.21,6.32,9.38a27.46,27.46,0,0,0-5,6.07c-6.37-5.72-8.64-15.6-10-27.39l-1.53.24v18.27l4.49-1.68a31.58,31.58,0,0,0,1.39,5.58c-8.74,3.65-10.52,4.69-11.56,5.62a21.64,21.64,0,0,0-2.51-5.72,4.15,4.15,0,0,0,2-3.8V78.28h0l0,0a76.57,76.57,0,0,0,14.56-3.4m-36.43,3.89a59.69,59.69,0,0,1,8.79,5.09l-3.36,6a61.21,61.21,0,0,0-8.63-5.72l3.2-5.39m5.68,12.15,4.59,4.89c-2.22,5.18-4.79,10.51-7.35,15.45l-5.29-4.94a145,145,0,0,0,8.05-15.4M240.29,62.6l-1.2.41c-5.53,1.91-14.48,3.76-23.34,4.85l-1.75.21v.11c-2.34-1.58-5.52-3.38-7.46-4.44l-1.64-.9-1,1.58-3.35,5.29-1.08,1.68,1.69,1.08a76.86,76.86,0,0,1,8.33,5.82l1.8,1.61,1.25-2.06L214,75.4V83l-.92-.72a61.18,61.18,0,0,0-9.15-5.31l-1.65-.79-.93,1.57-3.21,5.38-1,1.75,1.77,1a71.29,71.29,0,0,1,7.7,5A143.38,143.38,0,0,1,199,105.21l-.87,1.4,1.2,1.12,5.28,4.94,1.93,1.8,1.21-2.34c.38-.72.75-1.45,1.12-2.17l1.34.5a22.45,22.45,0,0,1,5.06,3l1.78,1.56,1.24-2a32.64,32.64,0,0,0,3-6.45l0,.08a20.19,20.19,0,0,1,2.21,5.06l.81,3.24,2.48-2.24c.87-.79,2.91-1.89,10.72-5.16a22.71,22.71,0,0,0,3.82,4.52l1.86,1.67,1.22-2.18a25.43,25.43,0,0,1,4.54-5.52l1.91-1.61-2-1.51a17,17,0,0,1-5.09-7.06l.34-.25c1.34-1,2.85-2,4.44-3l2.07-1.28L249,89.56l-5-5.38-1-1c.92-.25,1.76-.49,2.56-.74l3.09-1-2.27-2.32-5-5.16c1.54-.39,3.07-.81,4.56-1.26l3.14-1-2.28-2.35-5.67-5.88-.89-.91Zm.44,21.13.79-.19-.59.83-.09.12c0-.25-.07-.5-.11-.76Zm-30,6.28,2.92-5.23.39-.7c0,3-.14,6-.46,9l-2.85-3Zm22.47,8.84V97.24c.13.49.27,1,.42,1.45l-.42.16Zm-11,4.81q.43-1.6.78-3.36v1.43a2.28,2.28,0,0,1-.78,1.93Z"/><path d="M280.15,112.65l-.13-.85a25.24,25.24,0,0,0-2.31-6.49l-.84-1.55,1.76.08c2.3.1,4.73.1,5.53.1h.09V97.8l-6.82,2.4-.09-1.32a37.23,37.23,0,0,0-2.89-10.45V93.3H266.9v.22H274v6.89l1.86-.18.13,8.22-.91.1c-8.15.9-16.84,1.74-24.35,2.46l-1,.1-1.17-8.57,1.07-.08c2.47-.18,5.4-.4,8.6-.67v-.54h-7.21V93.52h7.21V93.3h-7.85V85.52h3.84c-.51-.78-1.13-1.63-1.8-2.47l-.68-.86h-2.75V74.37h3.14a24.92,24.92,0,0,0-3.07-4.2l-.77-.85,5.82-4,.59.58.52.53V63.9h14.53v2.25l.37-.62,7.59,4.27-1,.93c-.59.54-1.18,1.07-1.74,1.6l-2.24,2h3V76h8.51V63.85h8.91V76h3.21v8.66h-3.21V103.9c0,3.29-.53,5.79-3.13,7.24-2.18,1.25-5.07,1.51-9,1.51ZM282,85.29a44.45,44.45,0,0,1,2.25,5.38V84.61h-2.59Zm-7.55.23v1.39l6.86-2.3h-7.18V82.19h-.93l-.25.47c-.4.73-.78,1.45-1.15,2.15l-.37.71Zm-11.69,0s.05-.11.08-.17l-.3.17Zm-1.38-3.33a10.28,10.28,0,0,1,1.26,2.32l.26.71c.42-.9.87-1.94,1.3-3Z"/><path class="cls-2" d="M292.16,64.85V77h3.21v6.66h-3.21V103.9c0,3.41-.59,5.23-2.62,6.37s-4.73,1.38-8.54,1.38a26.06,26.06,0,0,0-2.41-6.81c2.32.1,4.73.1,5.57.1s1.09-.25,1.09-1V83.61H275.13V77h10.12V64.85h6.91m-23.35.05v4.45a20.53,20.53,0,0,0,1.73-2.47L276.07,70c-2.17,2-4.2,3.9-5.78,5.18l-1.48-.94v1.14h5.93v5.82h-5.58l2.91,1c-.84,1.53-1.58,3-2.32,4.35h3.7V92.3H265.9v2.22H273v5.73H265.9v1.92c3-.29,6-.54,9-.84l.1,6.22c-8.49.94-17.67,1.83-24.33,2.47l-.89-6.56c2.71-.2,6-.45,9.53-.75v-2.46h-7.21V94.52h7.21V92.3h-7.85V86.53H256a26.37,26.37,0,0,0-2.77-4.1l2.27-1.24h-5.48V75.37h6.22V73.1L253.61,75a23.11,23.11,0,0,0-3.75-5.48l4.19-2.86a26.76,26.76,0,0,1,2.22,2.47V64.9h5.53V75.37h1.38V64.9h5.63m-3.16,16.29h-6.27a14.67,14.67,0,0,1,2.32,3.66l-3,1.68h4.64c.79-1.59,1.63-3.61,2.27-5.34m15.45,4.54a35.84,35.84,0,0,1,3.56,10.86l-6.32,2.23a38.77,38.77,0,0,0-3.11-11.11l5.87-2m13.06-22.88H283.25V75h-6.51V73.37h-1.4l.34-.32c.57-.51,1.14-1,1.73-1.58l2.06-1.87-2.42-1.35-5.53-3.11-.71-.4V62.9H254.27v1.16l-1.34.92-4.2,2.86-1.9,1.3,1.55,1.7a25,25,0,0,1,2,2.53h-2.33v9.82h3.27l.38.49c.23.28.45.56.66.85h-2.92V94.3h.64v7.13l-.47,0-2.12.16.29,2.1.89,6.57.25,1.91,1.92-.19c5.83-.56,15.59-1.5,24.36-2.47l1.81-.2,0-1.82,0-1.48A24.42,24.42,0,0,1,279,112l.27,1.69H281c4.12,0,7.16-.28,9.54-1.65,3.18-1.78,3.62-5,3.62-8.1V85.61h3.21V75h-3.21V62.85ZM273.08,84.53l.05-.1v.1ZM275,94.3h.43a24.76,24.76,0,0,1,.9,4.65l0,.23-1.35.13v-5Zm1.88,7.15,2.11-.75,4.25-1.49v3.72c-1.12,0-2.89,0-4.58-.09l-1.76-.07,0-1.32Z"/><path d="M22.88,173.27V162.75c0-.58,0-1.23.06-1.9l-3.7,10.07H14.18l-3.65-9.85c0,.6.05,1.16.05,1.68v10.52h-8V143.5h8.9l4.65,12.63c.25.72.48,1.47.69,2.21.22-.74.43-1.47.66-2.17L22,143.5h9v29.77Z"/><path class="cls-2" d="M30,144.5v27.77H23.88v-9.52a93.83,93.83,0,0,1,.85-9.63h-.14l-2.32,6.64-3.73,10.16H14.88l-3.77-10.16-2.24-6.64H8.72a91.12,91.12,0,0,1,.86,9.63v9.52h-6V144.5h7.2l4.41,12c.56,1.6,1,3.36,1.53,5.07h.18c.56-1.71,1-3.47,1.53-5.07l4.26-12H30m2-2H21.31l-.48,1.33-4,11.25-4.15-11.27-.48-1.31H1.61v31.77h10v-7.5L13,170.61l.49,1.31h6.44l.49-1.31,1.46-4v7.64H32V142.5Z"/><rect x="35.35" y="143.5" width="8.68" height="29.77"/><path class="cls-2" d="M43,144.5v27.77H36.35V144.5H43m2-2H34.35v31.77H45V142.5Z"/><path d="M62.22,173.27l-2.84-6c-.4-.86-.79-1.72-1.19-2.64-.37.92-.73,1.77-1.1,2.61l-2.65,6H45L53.17,158,45.43,143.5h9.75l2.5,5.55c.35.76.71,1.58,1.11,2.48.38-1,.73-1.79,1-2.46l2.26-5.57h9.38l-7.69,14.76,8.21,15Z"/><path class="cls-2" d="M69.8,144.5l-7.17,13.77,7.65,14H62.85l-2.57-5.42c-.67-1.45-1.31-2.91-2.05-4.62h-.15c-.68,1.71-1.27,3.17-1.91,4.62l-2.39,5.42H46.65L54.31,158,47.1,144.5h7.43l2.24,5c.6,1.31,1.23,2.76,2,4.55h.15c.63-1.79,1.23-3.24,1.79-4.55l2-5H69.8m3.29-2H61.4l-.51,1.24-2,5-.12.28-.16-.36-2.24-5-.53-1.17H43.76l1.58,2.94L52,158l-7.15,13.35-1.58,3H55.09l.52-1.19L58,167.66c.08-.17.15-.33.22-.5l.24.53,2.59,5.44.54,1.14H73.66l-1.62-3L64.9,158.25l6.67-12.83,1.52-2.92Z"/><path d="M94,173.79c-8.34,0-13.73-6.11-13.73-15.56S85.49,143,94,143s13.72,6,13.72,15.26C107.68,167.68,102.3,173.79,94,173.79Zm0-23.11c-3.07,0-4.9,2.83-4.9,7.55S90.93,166,94,166s4.93-3,4.93-7.81S97.05,150.68,94,150.68Z"/><path class="cls-2" d="M94,144c7.57,0,12.72,5.19,12.72,14.26S101.53,172.79,94,172.79s-12.73-5.45-12.73-14.56S86.38,144,94,144M94,167c3.65,0,5.93-3.4,5.93-8.81s-2.28-8.55-5.93-8.55-5.9,3.18-5.9,8.55S90.3,167,94,167M94,142c-8.95,0-14.73,6.38-14.73,16.26,0,10.06,5.78,16.56,14.73,16.56s14.72-6.5,14.72-16.56c0-9.88-5.78-16.26-14.72-16.26ZM94,165c-3.62,0-3.9-5.21-3.9-6.81,0-2,.38-6.55,3.9-6.55s3.93,4.58,3.93,6.55c0,3.29-1,6.81-3.93,6.81Z"/><path d="M126.5,173.27l-7.15-14-.42-.93c.15,1.56.26,3.16.26,4.66v10.22h-8.35V143.5h8.4l7.19,13.82.35.81c-.13-1.52-.22-3-.22-4.45V143.5h8.34v29.77Z"/><path class="cls-2" d="M133.9,144.5v27.77h-6.79l-6.87-13.4-2.73-6.09h-.18c.3,3.1.86,6.91.86,10.27v9.22h-6.35V144.5h6.79l6.91,13.29,2.73,6.15h.18a88.08,88.08,0,0,1-.89-10.26V144.5h6.34m2-2H125.56v11l-5.15-9.91-.56-1.07h-10v31.77h10.35V163.15l5.14,10,.56,1.09h10V142.5Z"/><polygon points="153.29 173.27 153.29 151.02 145.78 151.02 145.78 143.5 169.51 143.5 169.51 151.02 161.97 151.02 161.97 173.27 153.29 173.27"/><path class="cls-2" d="M168.51,144.5V150H161v22.25h-6.68V150h-7.51V144.5h21.73m2-2H144.78V152h7.51v22.25H163V152h7.54V142.5Z"/><polygon points="187.64 173.27 187.64 161.84 180.49 161.84 180.49 173.27 171.81 173.27 171.81 143.5 180.49 143.5 180.49 154.06 187.64 154.06 187.64 143.5 196.24 143.5 196.24 173.27 187.64 173.27"/><path class="cls-2" d="M195.24,144.5v27.77h-6.6V160.84h-9.15v11.43h-6.68V144.5h6.68v10.56h9.15V144.5h6.6m2-2h-10.6v10.56h-5.15V142.5H170.81v31.77h10.68V162.84h5.15v11.43h10.6V142.5Z"/><polygon points="200.7 173.27 200.7 143.5 220.32 143.5 220.32 151.02 209.39 151.02 209.39 154.17 218.68 154.17 218.68 161.77 209.39 161.77 209.39 165.67 220.74 165.67 220.74 173.27 200.7 173.27"/><path class="cls-2" d="M219.32,144.5V150H208.39v5.15h9.29v5.6h-9.29v5.9h11.34v5.6h-18V144.5h17.62m2-2H199.7v31.77h22v-9.6H210.39v-1.9h9.29v-9.6h-9.29V152h10.93V142.5Z"/><path d="M242.4,173.79a16.47,16.47,0,0,1-11.06-4.26l-.69-.64,5-6.11.78.66a10.18,10.18,0,0,0,6.11,2.6c2.62,0,2.62-1.07,2.62-1.42,0-.77-.69-1.12-2.82-2l-4-1.7c-4-1.58-6.25-4.69-6.25-8.54,0-5.36,4.76-9.4,11.08-9.4a13.83,13.83,0,0,1,9.74,3.95l.63.63L249,153.2l-.78-.59a8,8,0,0,0-5.1-1.93c-.87,0-2.33.18-2.33,1.32,0,.73,1.15,1.21,3.18,2l3.88,1.54C252,157.2,254,160,254,164.09,254,168.91,250,173.79,242.4,173.79Z"/><path class="cls-2" d="M243.15,144a12.91,12.91,0,0,1,9,3.66l-3.32,4.18a9.05,9.05,0,0,0-5.71-2.13c-2.06,0-3.33.83-3.33,2.32s1.76,2.13,4.22,3.1l3.47,1.38c3.44,1.38,5.49,3.69,5.49,7.61,0,4.63-3.88,8.7-10.6,8.7a15.56,15.56,0,0,1-10.38-4l3.77-4.59a11.24,11.24,0,0,0,6.76,2.83c2.46,0,3.62-.93,3.62-2.42s-1.53-2.13-3.92-3.14L238.7,160c-2.91-1.16-5.63-3.59-5.63-7.62,0-4.66,4.18-8.4,10.08-8.4m0-2c-6.89,0-12.08,4.47-12.08,10.4,0,4.28,2.51,7.74,6.89,9.48l3.51,1.47.49.21a10.71,10.71,0,0,1,2.21,1.09.45.45,0,0,1,0,.12,2.85,2.85,0,0,1-1.61.3,9.25,9.25,0,0,1-5.46-2.36l-1.55-1.32-1.3,1.58-3.76,4.59-1.2,1.46,1.39,1.28a17.47,17.47,0,0,0,11.73,4.52c6.26,0,12.6-3.67,12.6-10.7,0-4.48-2.27-7.67-6.74-9.47l-3.48-1.38-.41-.17a12.17,12.17,0,0,1-2.52-1.16,2.8,2.8,0,0,1,1.3-.23,7,7,0,0,1,4.5,1.73l1.56,1.17,1.21-1.53,3.33-4.18,1.11-1.39-1.27-1.26A14.81,14.81,0,0,0,243.15,142Z"/><polygon points="261.15 173.27 261.15 151.02 253.65 151.02 253.65 143.5 277.37 143.5 277.37 151.02 269.83 151.02 269.83 173.27 261.15 173.27"/><path class="cls-2" d="M276.37,144.5V150h-7.54v22.25h-6.68V150h-7.5V144.5h21.72m2-2H252.65V152h7.5v22.25h10.68V152h7.54V142.5Z"/><path d="M295.07,173.27,290,163.49h-1.61v9.78h-8.68V143.5h11.19c9.8,0,11.86,5.29,11.86,9.73a9.32,9.32,0,0,1-4.4,8.42l6.53,11.62Zm-4.73-17.05c3.45,0,3.85-1.71,3.85-3s-.29-2.47-3.85-2.47h-2v5.46Z"/><path class="cls-2" d="M290.86,144.5c5.94,0,10.86,2,10.86,8.73,0,4.07-1.9,6.68-4.78,8l6.2,11h-7.47l-5.11-9.78h-3.21v9.78h-6.68V144.5h10.19m-3.51,12.72h3c3.17,0,4.85-1.38,4.85-4s-1.68-3.47-4.85-3.47h-3v7.46m3.51-14.72H278.67v31.77h10.68v-9.78l4.55,8.7.56,1.08h12.1l-1.68-3L299.64,162a10.37,10.37,0,0,0,4.08-8.74c0-4-1.67-10.73-12.86-10.73Zm-1.51,9.26h1c2.85,0,2.85.65,2.85,1.47s0,2-2.85,2h-1v-3.46Z"/><polygon points="306.1 173.27 306.1 143.5 325.72 143.5 325.72 151.02 314.78 151.02 314.78 154.17 324.08 154.17 324.08 161.77 314.78 161.77 314.78 165.67 326.13 165.67 326.13 173.27 306.1 173.27"/><path class="cls-2" d="M324.72,144.5V150H313.78v5.15h9.3v5.6h-9.3v5.9h11.35v5.6h-18V144.5h17.62m2-2H305.1v31.77h22v-9.6H315.78v-1.9h9.3v-9.6h-9.3V152h10.94V142.5Z"/><polygon points="329.62 173.27 329.62 143.5 349.24 143.5 349.24 151.02 338.31 151.02 338.31 154.17 347.6 154.17 347.6 161.77 338.31 161.77 338.31 165.67 349.65 165.67 349.65 173.27 329.62 173.27"/><path class="cls-2" d="M348.24,144.5V150H337.3v5.15h9.3v5.6h-9.3v5.9h11.35v5.6h-18V144.5h17.62m2-2H328.62v31.77h22v-9.6H339.3v-1.9h9.3v-9.6h-9.3V152h10.94V142.5Z"/><polygon points="358.52 173.27 358.52 151.02 351.01 151.02 351.01 143.5 374.74 143.5 374.74 151.02 367.2 151.02 367.2 173.27 358.52 173.27"/><path class="cls-2" d="M373.74,144.5V150H366.2v22.25h-6.68V150H352V144.5h21.73m2-2H350V152h7.51v22.25H368.2V152h7.54V142.5Z"/><path class="cls-1" d="M23.35,220.89H2.9l.8-9.23,22.58-24.31h9.79l-2.18,24.83H39l-.77,8.71H33.13l-.66,7.55H22.69Zm.76-8.71,1.11-12.71L13.3,212.18Z"/><path class="cls-3" d="M33.19,229.23H21.83l.66-7.56H2.05L3,211.32l.18-.19,22.81-24.56h11L34.75,211.4h5.07l-.9,10.27H33.85Zm-9.65-1.57h8.22l.66-7.55h5.07l.62-7.14H33l2.17-24.84H26.62L4.46,212l-.71,8.12H24.2ZM24.83,213H11.5l14.7-15.69Zm-9.72-1.57h8.28l.86-9.75Z"/><path class="cls-1" d="M52.44,187.35h5.73l-13.8,41.78H38.69Z"/><path class="cls-3" d="M44.93,229.92H37.62l14.26-43.35h7.37Zm-5.16-1.57h4l13.29-40.22H53Z"/><path class="cls-1" d="M89.58,228.44H55.9a23.2,23.2,0,0,1,4.33-9.38q3.33-4.4,11.92-10.38a37.29,37.29,0,0,0,6.8-5.56,6.87,6.87,0,0,0,1.7-3.61,3.91,3.91,0,0,0-1.09-3.16A4.4,4.4,0,0,0,76.24,195a5.2,5.2,0,0,0-3.63,1.35,9.07,9.07,0,0,0-2.25,4.77l-11.17-.91a19.38,19.38,0,0,1,3.08-7.4,12.75,12.75,0,0,1,5.33-4.08,23.36,23.36,0,0,1,9-1.42,24.11,24.11,0,0,1,9.1,1.35,9.89,9.89,0,0,1,4.82,4.15,10.34,10.34,0,0,1,1.34,6.27,14,14,0,0,1-2.78,7.06q-2.46,3.36-8.52,7.38c-2.39,1.56-4,2.66-4.82,3.28s-1.78,1.44-2.9,2.45H90.38Z"/><path class="cls-3" d="M90.29,229.23H54.94l.19-.94a24.05,24.05,0,0,1,4.48-9.7c2.25-3,6.32-6.53,12.1-10.55a36.82,36.82,0,0,0,6.63-5.42,6.13,6.13,0,0,0,1.53-3.18,3.12,3.12,0,0,0-.88-2.55,3.57,3.57,0,0,0-2.75-1.07A4.43,4.43,0,0,0,73.13,197a8.39,8.39,0,0,0-2,4.36L71,202l-12.74-1,.2-.88a20.34,20.34,0,0,1,3.21-7.7,13.59,13.59,0,0,1,5.65-4.33,24.42,24.42,0,0,1,9.32-1.48A24.93,24.93,0,0,1,86,188a10.74,10.74,0,0,1,5.18,4.47,11.14,11.14,0,0,1,1.45,6.74,14.75,14.75,0,0,1-2.93,7.45c-1.69,2.3-4.62,4.85-8.71,7.57-2.39,1.56-4,2.65-4.78,3.25-.4.3-.83.65-1.3,1h16.3Zm-33.41-1.57h32l.67-7.58H70.82l1.51-1.36c1.13-1,2.12-1.87,3-2.5s2.42-1.72,4.87-3.31c3.93-2.62,6.73-5,8.31-7.2a13.18,13.18,0,0,0,2.63-6.66,9.63,9.63,0,0,0-1.23-5.81,9.27,9.27,0,0,0-4.46-3.82,23.54,23.54,0,0,0-8.79-1.29,22.89,22.89,0,0,0-8.71,1.36,12.1,12.1,0,0,0-5,3.83,17.72,17.72,0,0,0-2.72,6.23l9.59.78a9,9,0,0,1,2.32-4.52,6,6,0,0,1,4.16-1.55,5.14,5.14,0,0,1,3.88,1.55,4.65,4.65,0,0,1,1.3,3.76,7.61,7.61,0,0,1-1.86,4c-1.09,1.34-3.37,3.21-7,5.71C67,213.25,63,216.68,60.86,219.53A22.63,22.63,0,0,0,56.88,227.66Z"/><path class="cls-1" d="M113.79,209.37h16.32l-.76,8.68H113Z"/><path class="cls-3" d="M130.07,218.84H112.18l.9-10.25H131Zm-16.19-1.57h14.75l.63-7.12H114.51Z"/><path class="cls-1" d="M170.77,220.89H150.32l.81-9.23,22.58-24.31h9.78l-2.17,24.83h5.07l-.76,8.71h-5.07l-.66,7.55h-9.79Zm.77-8.71,1.11-12.71-11.92,12.71Z"/><path class="cls-3" d="M180.61,229.23H169.26l.66-7.56H149.47l.91-10.35.18-.19,22.81-24.56h11l-2.18,24.83h5.08l-.9,10.27h-5.08ZM171,227.66h8.21l.66-7.55h5.07l.63-7.14h-5.07l2.17-24.84h-8.59L151.89,212l-.71,8.12h20.45ZM172.25,213H158.93l14.69-15.69Zm-9.72-1.57h8.29l.85-9.75Z"/><path class="cls-1" d="M199.87,187.35h5.73l-13.81,41.78h-5.67Z"/><path class="cls-3" d="M192.36,229.92H185l14.26-43.35h7.38Zm-5.16-1.57h4l13.29-40.22h-4.09Z"/><path class="cls-1" d="M217.55,199.73l-10.44-1.91a15,15,0,0,1,5.76-7.77q4-2.7,10.89-2.7,7.91,0,11.18,3a8.48,8.48,0,0,1,2.88,7.41,8.9,8.9,0,0,1-1.85,4.74,13.86,13.86,0,0,1-4.65,3.73,11.29,11.29,0,0,1,3.46,1.35,7.68,7.68,0,0,1,2.85,3.26,9.53,9.53,0,0,1,.69,4.84,14.57,14.57,0,0,1-2.44,6.77,14,14,0,0,1-5.76,5,21.26,21.26,0,0,1-9.27,1.75,22.76,22.76,0,0,1-8.58-1.29,11.45,11.45,0,0,1-4.91-3.79,15.87,15.87,0,0,1-2.61-6.27l11.35-1.49c.25,2.26.79,3.83,1.64,4.7a4.6,4.6,0,0,0,3.43,1.31,5.34,5.34,0,0,0,3.91-1.65,6.89,6.89,0,0,0,1.89-4.41,5.76,5.76,0,0,0-1.07-4.36,4.69,4.69,0,0,0-3.79-1.54,14.88,14.88,0,0,0-3.7.66l1.28-8a10.9,10.9,0,0,0,1.45.14,5.54,5.54,0,0,0,3.8-1.41,4.89,4.89,0,0,0,1.77-3.33,3.68,3.68,0,0,0-.84-2.95,3.78,3.78,0,0,0-2.94-1.11,4.83,4.83,0,0,0-3.33,1.2A8,8,0,0,0,217.55,199.73Z"/><path class="cls-3" d="M220.85,229.92a23.63,23.63,0,0,1-8.89-1.36,12.33,12.33,0,0,1-5.23-4.05,16.64,16.64,0,0,1-2.74-6.58l-.17-.82,13-1.7.09.8c.22,2.07.7,3.49,1.42,4.23a3.78,3.78,0,0,0,2.87,1.08,4.56,4.56,0,0,0,3.36-1.43,6.07,6.07,0,0,0,1.66-3.92,5.07,5.07,0,0,0-.88-3.78,3.93,3.93,0,0,0-3.2-1.27,14.19,14.19,0,0,0-3.49.63l-1.17.33,1.59-10,.77.11a9.06,9.06,0,0,0,1.33.13,4.75,4.75,0,0,0,3.29-1.21,4.11,4.11,0,0,0,1.5-2.81,2.94,2.94,0,0,0-.64-2.36,3,3,0,0,0-2.36-.84,4,4,0,0,0-2.81,1,7.3,7.3,0,0,0-1.81,3.79l-.17.73-12.07-2.2.3-.86a15.87,15.87,0,0,1,6.06-8.17c2.79-1.88,6.6-2.83,11.33-2.83,5.52,0,9.35,1,11.7,3.15a9.24,9.24,0,0,1,3.14,8.06,9.79,9.79,0,0,1-2,5.15,13.4,13.4,0,0,1-3.33,3,9.11,9.11,0,0,1,2,.93,8.55,8.55,0,0,1,3.13,3.59,10.31,10.31,0,0,1,.76,5.24,15.28,15.28,0,0,1-2.57,7.12,14.89,14.89,0,0,1-6.07,5.27A22.22,22.22,0,0,1,220.85,229.92ZM205.7,218.44a14.6,14.6,0,0,0,2.29,5.15,10.76,10.76,0,0,0,4.58,3.53,22.11,22.11,0,0,0,8.28,1.23,20.73,20.73,0,0,0,8.94-1.67,13.48,13.48,0,0,0,5.44-4.71,13.79,13.79,0,0,0,2.31-6.41,8.76,8.76,0,0,0-.62-4.44,6.93,6.93,0,0,0-2.56-2.94,11.47,11.47,0,0,0-3.23-1.25l-2-.5,1.81-1a13,13,0,0,0,4.39-3.5,8.28,8.28,0,0,0,1.69-4.33,7.69,7.69,0,0,0-2.62-6.77c-2-1.82-5.61-2.75-10.66-2.75-4.41,0-7.93.87-10.45,2.57a14,14,0,0,0-5.14,6.52l8.81,1.61a7.89,7.89,0,0,1,2.1-3.89,5.6,5.6,0,0,1,3.85-1.4,4.53,4.53,0,0,1,3.51,1.36,4.45,4.45,0,0,1,1.05,3.54,5.68,5.68,0,0,1-2,3.86,6.37,6.37,0,0,1-4.32,1.6c-.22,0-.49,0-.8-.05l-1,6.09a12.38,12.38,0,0,1,2.74-.38,5.5,5.5,0,0,1,4.39,1.81,6.46,6.46,0,0,1,1.24,4.93,7.61,7.61,0,0,1-2.11,4.9,6.1,6.1,0,0,1-4.46,1.88,5.36,5.36,0,0,1-4-1.55,7.76,7.76,0,0,1-1.75-4.36Z"/></g></g></svg>