<?xml version="1.0" encoding="UTF-8"?><svg xmlns="http://www.w3.org/2000/svg" viewBox="0 0 505.41 236.66"><defs><style>.d{fill:#f7b52c;}.e{fill:#fff;}.f{fill:#231815;}</style></defs><g id="a"/><g id="b"><g id="c"><g><g><path class="e" d="M207.18,33.21l1.15,3.19,1.17-1.31v20.83h10.91v-9.65c1.53,.89,3.33,2.04,4.2,2.79l1.72,1.46,.75-1.11c.66,1.63,1.24,3.56,1.42,4.87l.25,1.73h1.75c3.04,0,6.21-.21,8.83-1.71,3.12-1.83,3.55-5.03,3.55-8.23v-5.1c.63,2.42,1.08,4.73,1.25,6.58l.23,2.58,2.44-.86,6.98-2.44,1.57-.55-.24-1.65c-.63-4.32-2.29-9.92-4.29-14.58l.39,.07,1.9,.34,.42-1.89c.09-.4,.19-.86,.29-1.35l1.59,.88c4.41,2.44,7.35,4.2,8.74,5.23l.39,.29c-2.97,5.71-6.15,10.89-8.08,13.75l-1.02,1.51,1.4,1.17,5.83,4.88,1.84,1.54,1.2-2.08c1.08-1.87,2.18-3.82,3.26-5.82,.69,1.25,1.43,3.96,1.67,5.67l.43,3.17,2.68-1.75c1.03-.67,3.27-1.42,11.97-3.43,1.13,2.34,3.39,3.61,7.65,3.61h3.99c5.53,0,7.53-3.23,8.35-8.27h9.16v-4.58h4.01c-.86,2.07-1.97,3.87-3.32,5.43l-1.44,1.66,1.78,1.29c.91,.66,2.99,2.84,3.64,3.82l1.44,2.15,1.74-1.92c.92-1.01,1.76-2.13,2.53-3.36,.13,.67,.21,1.3,.24,1.81l.1,1.85,1.86,.05c.48,.01,.93,.02,1.37,.02,1.11,0,2.41-.05,3.71-.45,1.55-.4,2.66-1.11,3.62-2.41v3.03h9.92v-7c.6-.03,1.13-.08,1.63-.15h.07c1.48-.3,2.65-.82,3.57-1.61,1.62-1.34,2.49-3.49,2.72-6.8l.54,.22c1.92,.77,5.07,2.38,6.69,3.55l1.64,1.18,.15-.21,1.23,2.14c1.07,1.86,2.31,5.08,2.66,6.9l.31,1.62,1.65,.02c.38,0,.76,0,1.13,0,5.27,0,8.42-.44,10.87-1.52,4.08-1.92,4.64-5.54,4.64-9.17V21.21l.17,.33c4.04,7.92,7.33,16.93,8.17,22.41l.39,2.5,2.35-.92,7.97-3.14,1.56-.62-.32-1.65c-1.37-6.99-5.77-16.53-9.43-23.11l-.84-1.51-1.62,.6-7.13,2.64-1.27,.47V5.3h-12.01V44.47c-.36,0-.85,.01-1.38,.01-2.07,0-4.31-.06-5.99-.17l-2.36-.15,.28-.39c3.37-4.67,6.2-12.31,8.65-23.36l.46-2.07-2.1-.35-8.27-1.4-2.03-.34-.3,2.04c-.84,5.73-3.02,13.95-6.42,18.78-.09-2.94-.53-6.34-2.21-10.08,.77-3.26,1.8-8.38,3.15-15.61l.26-1.41-1.25-.71-4.38-2.49-.69-.39-.77,.18-.62,.15h-28.64v2.09h-13.35V43.45l-1.14-.28c-1.24-.3-2.96-.93-4.2-1.55h4v-10.07h-8.67v-1.69h6.13V6.69h-31.89v1.79c-2.32-1.28-4.79-2.57-5.72-3.05l-1.54-.8-1.02,1.41-3.84,5.28-1.29,1.77,1.87,1.14c.43,.26,.9,.55,1.39,.85,2.51,1.52,5.64,3.42,7.13,4.6l1.69,1.33,1.22-1.77,.11-.16v4.62c-2.29-1.35-6.14-3.26-8.88-4.55l-1.55-.73-.97,1.42-3.69,5.38-.7,1.02c.57-2.83,1.23-6.55,1.68-10.09l.24-1.91-1.9-.33-5.13-.9-.35-.06-.35,.06-.92,.17h-12.44c.45-1.31,.89-2.7,1.32-4.21l.58-2.04-2.07-.48-7.13-1.64-1.92-.44-.49,1.91c-.1,.39-.2,.79-.31,1.17l-1.31-.41-6.83-2.14-1.87-.59-.64,1.85c-2.27,6.54-6.24,13.18-10.34,17.33l-1.16,1.17,.91,1.37c1.07,1.61,2.95,5.48,3.57,7.19Zm63.25-3.35v3.43l-1.87-1.78-.4-.38,1.67-2.59v1.32h.6Zm11.16,1.64v-1.64h3.09v1.64h-3.09Zm0,11.19v-1.13h3.09v.54l-3.09,.58Zm14,2.96v-4.03h.33l-.03,.85c-.02,.63-.08,2.21-.18,3.18h-.11Zm-72.48-14.97c-.67,2.98-1.61,5.75-2.7,8.04v-10.48c.95,.79,1.85,1.59,2.43,2.17l.27,.27Zm8.56-6.8v4.83l-4.04-.83c.85-1.23,1.69-2.58,2.48-4h1.56Zm-1.84,20.86c.65-1.31,1.27-2.73,1.84-4.21v4.23c-.53,0-1.16,0-1.84-.02Zm13.05-16.22v-4.64h.9c-.14,1.12-.28,2.12-.39,2.88l-.24,1.66-.28,.09Z"/><path class="e" d="M408.44,22.79v4.31c0,6.28-.61,14.44-5.36,21.83l-1.11,1.73,1.75,1.08c1.55,.96,3.7,2.54,4.84,3.72l1.72,1.79,1.4-2.05c.44-.64,.84-1.27,1.22-1.9,.01,.13,.02,.26,.03,.38l.11,1.86,1.86,.05c.48,.01,.94,.02,1.39,.02,1.79,0,3.15-.1,4.18-.31,2.18-.45,3.63-1.42,4.86-3.24,.15-.22,.29-.47,.42-.74,.8,1,1.65,2.26,1.97,3.02l1.04,2.51,2.1-1.72c.87-.72,3.1-1.66,11.48-5.02l.24-.09c1.11,1.66,2.41,3.16,3.94,4.45l1.88,1.58,1.19-2.15c.99-1.8,3.05-4.34,4.39-5.44l1.99-1.63-2.06-1.55c-1.98-1.48-3.58-3.79-4.89-7.02,1.51-1.28,3.03-2.69,4.44-4.07,1.35,1.48,3.48,4.34,4.37,5.73l1.22,1.89,1.65-1.33v15.52h11.31V28.48c.2-.26,.4-.52,.6-.79v4.41h13.65v12.4c-2.35,0-4.26-.06-5.68-.14l-3.34-.2,1.38,3.05c.89,1.97,1.76,4.97,1.98,6.82l.21,1.79h1.8c4.42,0,8.02-.1,10.81-1.38,3.79-1.67,4.32-5.12,4.32-8.61v-13.73h6.53v-10.91h-27.3l1.16-2.01-2.21-.85-.21-.08h27.32V7.34h-28.3v.51l-.5-.21-6.97-2.89-1.52-.63-.92,1.36c-2.24,3.29-6.83,7.58-10.66,9.99l-.15,.09v-5.28h-14.25c.18-.62,.35-1.26,.5-1.91l.48-2.04-2.06-.4-6.98-1.35-1.96-.38-.4,1.96c-.42,2.07-1.01,4.06-1.74,5.9h-4.81c-.5-1.99-1.48-4.57-2.48-6.52l-.77-1.51-1.62,.51-6.23,1.94-2.16,.67,.91,2.07c.38,.87,.76,1.87,1.08,2.85h-7.38v10.71h4.33Zm45.54-3.91c1.08,1.36,2.61,3.74,3.43,5.25l1.07,1.96,1.84-1.27,.07-.05c-2.1,2.24-4.4,4.27-6.68,5.88l-4.1-3.69c.93-.34,1.81-.7,2.64-1.05l2.84-1.23-2.27-2.11-1.87-1.73h3.01v-1.96Zm-16.49,21.88v-3.96c.26,1.23,.56,2.44,.89,3.64l-.89,.32Zm37.22-24.53v1.64l-4.38-1.68c1.58-1.64,3.06-3.34,4.38-5.03v5.07Z"/><path class="e" d="M194.98,117.19c5.52,0,8.01-3.14,9.22-7.66l.73,1.15c1,1.57,2.12,4.53,2.58,6.38l.42,1.67,1.72-.15c17.56-1.53,36.61-5.5,44.76-23.29l.48-1.05v.48h10.39c-.64,6.27-2.29,10.71-10.46,13.72l-3.24,1.2,2.64,2.24c1.38,1.17,3.2,3.6,3.89,5.19l.78,1.81,1.83-.74c12.89-5.22,15.45-14.29,16.42-23.42h2.62v11.88c0,9.15,3.8,10.99,9.94,10.99h5.38c5.1,0,7.56-2.24,8.83-6.48,1.32,1.67,3.21,4.62,3.88,6.1l.72,1.57,1.66-.46c7.65-2.13,13.99-5.08,19.33-9.01,5.22,3.92,11.3,6.74,18.54,8.62l1.52,.39,.76-1.38c1.09-1.98,3.13-4.95,4.52-6.3l2.69-2.61-3.66-.81c-5.96-1.32-11.22-3.42-15.69-6.27,3.32-4.17,5.97-8.98,8.06-14.6h6.78l-.69,.6,.95,1.47c1.1,1.7,2.93,5.59,3.54,7.23l1.07,2.88,2.22-2.13c.09-.09,.18-.17,.27-.26v22.25h10.91v-36.81c1.5-2.66,2.75-5.1,3.78-7.39v31.36c0,10.06,3.94,12.03,10.74,12.03h7.72c9.12,0,10.39-6.96,11.03-15.37l.13-1.75-1.72-.37c-1.58-.34-4.19-1.57-5.59-2.63l-3.03-2.29-.21,3.79c-.14,2.58-.4,7.36-1.03,8.19-.04,0-.12,.02-.24,.02h-6.23c-.22,0-.4,0-.52-.01-.03-.33-.05-.83-.05-1.51v-14.37h17.24v-2.53l.46,.25c1.85,1,4.91,3.05,6.17,4.14l.3,.25v8.06h12.91v4.53h-18.83v11.11h49.38v-5.21l.86,.68,6.13,4.88,1.79,1.43,1.19-1.95c2.63-4.31,5.24-8.95,7.62-13.53v14.99h10.56v-1.99h9.42v1.79h10.91v-24.46h-10.06v-1.24h12.16v-10.96h-12.16v-2.18c3.18-.72,6.26-1.66,9.18-2.79l2.83-1.11-2.12-2.18-5.53-5.68-.96-.99-1.27,.54c-4.9,2.07-13.2,3.82-22.22,4.68l-1.59,.15c-2.02-1.13-4.67-2.48-6.74-3.53l-.97-.49-1.48-.76-1.02,1.31-4.08,5.23-1.4,1.8,1.96,1.17c.75,.45,1.61,.95,2.51,1.48,2.33,1.36,4.97,2.9,6.3,3.89l1.63,1.21,1.2-1.64,3.12-4.24c.34,1.04,.62,2.1,.73,2.88l.18,1.23h-3.88v4.15c-2.54-1.36-6.21-3.07-8.41-4.07l-1.5-.68-.97,1.34-3.89,5.38-1.36,1.89,2.06,1.08c4.01,2.11,6.96,3.77,8.62,4.85-3.13,5.87-6.66,11.34-8.82,14.36l-.47,.66v-4.49h-18.93v-4.53h14.3v-11.01h-14.3v-3.59h16.29v-11.11h-16.29v-8.67h-11.61v2.63l-1.72-.39-7.52-1.69-1.92-.43-.48,1.91c-1.68,6.69-4.81,13.07-8.18,16.68v-5.46h-17.24v-12.26h-11.01v1.75l-.42-.14-6.73-2.29-1.82-.62-.71,1.79c-2.47,6.23-6.65,12.5-11.05,16.61v-9.92h-17.02c-.63-2.4-2.12-5.64-3.24-7.75l-.77-1.45-1.58,.47-7.77,2.29-2.27,.67,1.02,2.13c.51,1.07,1.02,2.36,1.46,3.64h-19.84v11.11h8.52c2.34,5.8,5.09,10.67,8.33,14.8-4.43,2.85-9.81,4.96-16.36,6.42l-.15,.03c.17-1.19,.31-2.46,.42-3.84l.13-1.69-1.64-.42c-1.9-.48-4.72-1.65-5.91-2.6l-3.14-2.53-.14,4.03c-.06,1.81-.18,4.98-.45,6.22h-2.59c0-.07,0-.14,0-.22v-11.83h12.71v-11.06h-49.13v9.77l-1.32-.75-5.03-2.84-.72-.41-.8,.21-1.04,.28h-2.27l2.02-2.34-3.27-.75-2.61-.6c3.5-2.83,6.3-6.11,8.36-9.81l.96-1.73-1.71-1-4.78-2.79-.71-.41-.8,.2-.95,.24h-4.07l1.36-1.45-3.42-.79-7.77-1.79-1.14-.26-.8,.86c-3.63,3.94-9.55,7.46-16.66,9.92l-3.78,1.31,3.3,2.27c1.3,.89,3.36,3.08,4.32,4.6l.72,1.13c-1.68,.34-3.42,.63-5.22,.87l-3.54,.48v-9.77h-12.56v-10.46h-11.61v30.41l-1.49,.5v-30.95h-11.61v10.61h-10.91v4.93h-14.44v-3.25c3.58-.75,8.21-1.92,12.44-3.62l2.88-1.16-2.22-2.16-5.48-5.33-1.02-.99-1.27,.62c-3.33,1.62-8.86,3.29-14.45,4.37h-6.89c-.48-1.35-1.05-2.79-1.56-4.09l-.64-1.63-1.71,.41-7.27,1.74-2.2,.53,.77,2.13c.1,.29,.21,.6,.32,.93h-7.17v9.87h2.53c.1,.31,.21,.68,.33,1.09h-3.26v-3.89h-1.44v-8.27h-17.54v-3.59h-11.71v3.59h-17.64v8.27h-1.4v14.95h6.62c.41,1.23,.86,2.68,1.09,3.58-1.3,.43-2.38,.71-3.53,.87l-2.49,.35,.88,2.35c.56,1.49,1.38,4.37,1.61,5.45l.24,1.11c-1.21,.6-2.45,1.15-3.67,1.6l-.47,.18,2.11-1.77-2.78-1.37c-2.03-1-4.05-2.33-5.88-3.84h5.52v-10.46h-1.22c.08-.03,.16-.06,.24-.09l1.47-.57-.2-1.57c-.12-.91-.22-2.39-.32-3.68-.06-.82-.12-1.6-.17-2.22v-.04h.16v-14.65H20.49v-2.04H9.82v9.12H5.44v10.66h4.38v4.33c-1.35,.38-2.52,.7-3.57,.95l-1.96,.46,.45,1.96,1.59,6.92,.5,2.17,2.11-.71,.87-.29v4.68c-.72,0-1.61-.03-2.49-.09l-3.29-.2,1.32,3.03c.75,1.73,1.5,4.52,1.63,6.09l.15,1.82,1.83,.03c.23,0,.45,0,.67,0,3.6,0,5.91-.5,7.73-1.67,1.58-1.07,2.37-2.51,2.76-4.1,.86,.99,1.69,2.08,2.19,2.9l1.01,1.67,1.7-.96c2.07-1.17,4.05-2.68,5.91-4.52v7.12h11.16v-7.91c1.93,1.93,3.97,3.58,6.03,4.86l1.74,1.08,1.05-1.76c.58-.96,1.64-2.3,2.69-3.45l1.94,1.44c1.46,1.09,3.94,3.38,5.1,4.63l1.05,1.13,1.37-.71c2.2-1.14,4.55-2.57,6.7-4.07,.43,1.1,.77,2.18,.95,3.05l.34,1.6h1.64c3.99,0,7.02-.09,9.69-1.2,3.18-1.3,4.07-3.67,4.28-6.22,3.41,2.09,7.3,4.66,9.24,6.41l1.17,1.05,1.31-.88,5.98-4.04,1.84-1.24c1.07,.7,2.24,1.55,2.89,2.1l1.78,1.53,1.24-1.99c.56-.9,1.16-1.95,1.75-3.08v7.22h11.06v-7.99c.09,.21,.18,.4,.26,.58l.75,1.78-.34,.54,1.99,1c1.25,.63,4.01,2.72,5,3.8l1.75,1.9,1.42-2.16c2.21-3.35,3.69-7.97,4.47-13.98v14.74h11.06v-24.11h4.19v-4.38h10.76v13c-4.32,1.4-8.39,2.71-11.32,3.51l-2.25,.61,.93,2.14,3.24,7.47,.77,1.77,1.8-.69c6.23-2.37,13.58-5.31,20.26-8.1,1.05,6.36,4.57,7.78,9.71,7.78h5.58Zm276.28-21.45v2.42l-4.22-3.82,1.38-2.06v.2h12.75v1.24h-9.91v2.02Zm9.91-14.47v.25h-1.98c.66-.08,1.33-.16,1.98-.25Zm.65,24.56v-1.54h9.42v1.54h-9.42Zm-156.93-19.48h8.76c-1.13,2.58-2.49,4.94-4.08,7.06-1.8-2.15-3.36-4.52-4.67-7.06Zm89.71,4.08c.71-1.06,1.43-2.25,2.18-3.59h6.35v3.59h-8.53Zm8.53-19.43v4.73h-1.45c.48-1.36,.88-2.66,1.23-3.93l.22-.81Zm-189.3,29.35h2c-.37,.25-.76,.49-1.16,.73-.27-.24-.55-.49-.84-.73Zm-5.95-19.03h.23l-.14,.08-.08-.08Zm-11.25,3.88c.15,.13,.3,.27,.46,.42-.95,.26-1.93,.5-2.93,.73,.86-.37,1.68-.75,2.47-1.14Zm6.11,19.9c.14,.12,.28,.23,.41,.35-.83,.19-1.69,.38-2.57,.55,.75-.3,1.47-.6,2.16-.89Zm-16.99-14.22c1.05,1.3,2.4,4.01,3,5.73l.57,1.62,1.31-.24-1.74,.51,2.91,2.43c1.21,1.01,3.1,3.43,3.87,4.98l.4,.81c-2.93,.39-6.11,.68-9.56,.86l-1.92,.1c.41-2.17,.61-4.56,.75-7.04l.1-1.7-1.66-.38c-1.61-.37-4.57-1.71-6.12-2.95l-3.14-2.51-.14,4.02c-.1,2.87-.26,7.51-.7,8.96h-2.71c-.02-.45-.02-.98-.02-1.22v-15.27h12.56v-1.48l2.24,2.77Zm-98.77,10.92h.47c-.96,2.46-2.21,4.92-3.37,6.59l-.7,1c-.97-.68-2.1-1.42-3.3-2.16l3.53-2.33,1.81-1.2-1.33-1.72c-1.83-2.37-5.05-5.45-8.01-8.11h8.88v7.92h2.02Zm11.46-20.08h.45c-.08,.23-.17,.47-.25,.7-.06-.22-.12-.45-.2-.7Zm11.68,0v1.09h-.69c.16-.36,.32-.72,.49-1.09h.2Zm-36.32,7.22v.48l-.57-.48h.57Zm-62.88,2.83v.16h-.37c.13-.05,.25-.11,.37-.16Zm-10.46,14.06v-3.43h4.47c-1.37,1.33-2.89,2.5-4.47,3.43Z"/><polygon class="e" points="261.55 70.35 259.53 70.35 259.53 72.37 259.53 79.35 259.53 81.37 261.55 81.37 297.22 81.37 299.24 81.37 299.24 79.35 299.24 72.37 299.24 70.35 297.22 70.35 261.55 70.35"/><polygon class="e" points="210.78 179.51 212.8 179.51 219.1 179.51 221.12 179.51 221.12 177.49 221.12 148.73 221.12 146.71 219.1 146.71 211.6 146.71 210.17 146.71 209.7 148.05 205.51 159.85 201.16 148.03 200.67 146.71 199.27 146.71 191.81 146.71 189.79 146.71 189.79 148.73 189.79 177.49 189.79 179.51 191.81 179.51 197.99 179.51 200.01 179.51 200.01 177.49 200.01 171.5 201.59 175.76 202.08 177.07 203.48 177.07 207.27 177.07 208.68 177.07 209.16 175.75 210.78 171.36 210.78 177.49 210.78 179.51"/><path class="e" d="M263.68,146.71h-11.99l-.51,1.26-2.09,5.14c-.06,.13-.11,.26-.17,.4-.07-.16-.15-.32-.22-.48l-2.32-5.13-.54-1.19h-22.15v32.8h21.39l.53-1.2,2.47-5.61c.09-.21,.18-.42,.27-.63,.1,.22,.2,.44,.3,.66l2.68,5.63,.55,1.15h12.37l-1.63-2.99-7.41-13.55,6.93-13.31,1.54-2.95Zm-28.61,2.97l6.95,13-7.37,13.76v-27.54l.42,.78Z"/><polygon class="e" points="276.63 146.71 276.63 148.73 276.63 177.49 276.63 179.51 278.65 179.51 285.57 179.51 287.59 179.51 287.59 177.49 287.59 148.73 287.59 146.71 285.57 146.71 278.65 146.71 276.63 146.71"/><path class="e" d="M306.76,179.51h10.29v-32.8h-10.61v11.53h0l-5.43-10.44-.57-1.09h-10.28v32.8h10.61v-11.68l5.42,10.58,.56,1.1Z"/><polygon class="e" points="345.08 179.51 345.08 177.49 345.08 156.47 350.87 156.47 352.89 156.47 352.89 154.45 352.89 148.73 352.89 146.71 350.87 146.71 328.37 146.71 326.35 146.71 326.35 148.73 326.35 154.45 326.35 156.47 328.37 156.47 334.12 156.47 334.12 177.49 334.12 179.51 336.14 179.51 343.06 179.51 345.08 179.51"/><polygon class="e" points="380.57 179.51 380.57 177.49 380.57 148.73 380.57 146.71 378.55 146.71 371.71 146.71 369.69 146.71 369.69 148.73 369.69 157.65 364.26 157.65 364.26 148.73 364.26 146.71 362.24 146.71 355.32 146.71 353.3 146.71 353.3 148.73 353.3 177.49 353.3 179.51 355.32 179.51 362.24 179.51 364.26 179.51 364.26 177.49 364.26 167.68 369.69 167.68 369.69 177.49 369.69 179.51 371.71 179.51 378.55 179.51 380.57 179.51"/><polygon class="e" points="403.49 156.47 405.51 156.47 405.51 154.45 405.51 148.73 405.51 146.71 403.49 146.71 385.24 146.71 383.22 146.71 383.22 148.73 383.22 177.49 383.22 179.51 385.24 179.51 403.91 179.51 405.93 179.51 405.93 177.49 405.93 171.69 405.93 169.67 403.91 169.67 394.18 169.67 394.18 167.6 401.79 167.6 403.81 167.6 403.81 165.58 403.81 159.78 403.81 157.76 401.79 157.76 394.18 157.76 394.18 156.47 403.49 156.47"/><path class="e" d="M442.22,179.51h10.96v-32.8h-10.96v5.02l-1.18-1.2c-1.6-1.63-5.04-4.35-10.18-4.35-4.25,0-8.17,1.62-11.04,4.55-3.07,3.14-4.7,7.48-4.7,12.55,0,11.6,7.79,16.79,15.51,16.79,4.35,0,8.13-1.71,10.92-4.95l.67-.78v5.19Zm-.65-7.03l-3.63-4.33-1.48-1.76-1.56,1.69c-.83,.9-2.2,1.98-4,1.98-4.21,0-4.67-4.91-4.67-7.03,0-4.13,1.91-6.91,4.75-6.91,1.25,0,2.3,.5,3.62,1.71l1.57,1.44,1.35-1.64,3.63-4.41,1.06-1.29v21.33l-.65-.78Z"/><path class="e" d="M484.63,179.51h10.92v-11.74l8.51-18.19,1.34-2.87h-11.8l-.49,1.31-2.4,6.38-.56,1.48c-.17-.48-.35-.96-.52-1.45l-2.41-6.41-.49-1.31h-33.19v9.76h7.77v23.04h10.96v-23.04h7.09l5.26,11.3v11.74Z"/></g><g><g><g><path d="M225.59,50.97l-.12-.87c-.27-1.92-1.28-4.93-2.26-6.81-.16,.26-.32,.51-.49,.75l-.63,.94-.86-.73c-1.23-1.04-4.18-2.87-5.86-3.72v10.34h-8.89V28.4c-.18,.21-1.8,2.03-1.8,2.03l-.58-1.6c-.65-1.8-2.55-5.71-3.68-7.41l-.46-.69,.58-.58c4.2-4.25,8.25-11.04,10.58-17.71l.32-.92,8.78,2.76-.38,1c-1.25,3.31-2.8,6.74-4.47,9.91v2.27c2.82-3.77,5.26-9.16,6.73-14.97l.24-.96,9.12,2.1-.29,1.02c-.57,2.02-1.16,3.83-1.78,5.49h13.97l1.18-.21,6.26,1.09-.12,.96c-.59,4.6-1.53,9.52-2.16,12.35l-.21,.94-3.22-.57c2.29,4.86,4.29,11.27,4.99,16.05l.12,.82-8.98,3.14-.12-1.29c-.32-3.49-1.62-8.59-3.27-13.04v11.65c0,3.34-.52,5.87-3.04,7.35-2.42,1.39-5.44,1.58-8.33,1.58h-.88Zm-1.44-9.29c1.81,.05,3.72,.05,4.49,.05v-11.55c-1.15,4.22-2.74,8.3-4.49,11.5Zm-8.78-3.25c2.02-2.82,3.77-7.23,4.81-12.11l-.66-.66c-.93-.93-2.68-2.42-4.16-3.55v16.32Zm13.28-12.52v-7.08h-3.17c-1.13,2.08-2.36,4.02-3.61,5.68l6.78,1.4Zm9.19-.02l4.81-1.63-2.42-.43,.14-.97c.14-1.02,.34-2.46,.52-4.03h-3.05v7.05Z"/><path class="d" d="M223.08,2.73l7.13,1.64c-.65,2.29-1.4,4.58-2.29,6.78h15.54l1.1-.2,5.13,.9c-.55,4.28-1.44,9.12-2.14,12.26l-6.18-1.1c.2-1.39,.45-3.24,.65-5.18h-5.18v24.21c0,3.29-.5,5.28-2.54,6.48-1.99,1.15-4.53,1.44-7.82,1.44-.3-2.09-1.39-5.33-2.44-7.27,1.94,.05,4.04,.05,4.73,.05,.65,0,.9-.15,.9-.8V17.83h-4.78c-1.45,2.74-3.04,5.18-4.63,7.13-1.3-1.3-4.19-3.69-5.83-4.78,3.84-4.04,6.98-10.76,8.67-17.44m-11.01,.05l6.83,2.14c-1.24,3.29-2.79,6.73-4.53,10.01V49.86h-6.88V25.65c-.8,1-1.64,1.94-2.44,2.84-.65-1.79-2.59-5.83-3.79-7.62,4.28-4.33,8.42-11.21,10.81-18.09m31.99,22.07c2.44,5.08,4.38,11.61,5.03,16.04l-6.98,2.44c-.4-4.38-2.29-11.21-4.53-16.29l6.48-2.19m-22.67,.6l7.02,1.45c-1.35,6.23-3.84,12.61-6.53,16.59-1.35-1.15-4.43-3.04-6.13-3.89,2.64-3.34,4.63-8.87,5.63-14.15M210.81,.27l-.64,1.85c-2.27,6.54-6.24,13.18-10.34,17.33l-1.16,1.17,.91,1.37c1.07,1.61,2.95,5.48,3.57,7.19l1.15,3.19,1.17-1.31v20.83h10.91v-9.65c1.53,.89,3.33,2.04,4.2,2.79l1.72,1.46,.75-1.11c.66,1.63,1.24,3.56,1.42,4.87l.25,1.73h1.75c3.04,0,6.21-.21,8.83-1.71,3.12-1.83,3.55-5.03,3.55-8.23v-5.1c.63,2.42,1.08,4.73,1.25,6.58l.23,2.58,2.44-.86,6.98-2.44,1.57-.55-.24-1.65c-.63-4.32-2.29-9.92-4.29-14.58l.39,.07,1.9,.34,.42-1.89c.63-2.84,1.58-7.81,2.17-12.44l.24-1.91-1.9-.33-5.13-.9-.35-.06-.35,.06-.92,.17h-12.44c.45-1.31,.89-2.7,1.32-4.21l.58-2.04-2.07-.48-7.13-1.64-1.92-.44-.49,1.91c-.1,.39-.2,.79-.31,1.17l-1.31-.41-6.83-2.14-1.87-.59h0Zm28.04,19.58h.9c-.14,1.12-.28,2.12-.39,2.88l-.24,1.66-.28,.09v-4.64h0Zm-12.77,0h1.56v4.83l-4.04-.83c.85-1.23,1.69-2.58,2.48-4h0Zm-9.7,14.84v-10.48c.95,.79,1.85,1.59,2.43,2.17l.27,.27c-.67,2.98-1.61,5.75-2.7,8.04h0Zm9.42,6.01c.65-1.31,1.27-2.73,1.84-4.21v4.23c-.53,0-1.16,0-1.84-.02h0Z"/></g><g><path d="M267.62,50.1c-.26-1.9-1.1-4.93-1.9-6.23l-.67-1.08,1.21-.4c.72-.24,1.15-.45,1.15-1.73v-2.97c-2.13,4.22-4.37,8.37-6.59,12.19l-.6,1.04-7.45-6.24,.51-.75c2.13-3.15,5.75-9.08,8.95-15.43l.61-1.21,4.56,4.34v-6.79h-.6V11.8l-2.56,3.7-.84-.67c-1.54-1.21-4.68-3.12-7.21-4.65l-2.34-1.43,4.99-6.87,.77,.4c1.14,.59,4.56,2.38,7.2,3.87V3.67h29.87V24.82h-6.13v3.71h8.67v8.05h-6.19l1.46,1.13c1.18,.92,3.88,1.96,5.7,2.41l.85,.21-.08,.87c-.68,7.02-2.74,9.63-7.63,9.63h-3.99c-4.18,0-6.16-1.27-7.05-3.78h-.05c-9.61,2.21-11.87,2.97-13.08,3.76l-1.34,.87-.21-1.58Zm24.9-7.47c.23-.68,.32-3.09,.35-4.16l.06-1.9h-2.38v5.12c0,.18,0,.63,.02,.93h1.94Zm-15.96-2.75l5.11-.97v-2.39h-5.11v3.35Zm5.11-11.4v-3.66h-5.11v3.66h5.11Zm-20.92,.03c-1.42-1.06-4.4-2.84-8.85-5.31l-.97-.54,4.8-7.01,.78,.37c2.92,1.38,7.11,3.46,9.26,4.78l.88,.54-5.03,7.8-.87-.64Z"/><path class="d" d="M259.15,3.18c2.49,1.3,6.43,3.39,8.67,4.73v-3.24h27.85V23.81h-27.85V8.56l-3.79,5.48c-1.89-1.49-6.03-3.94-8.72-5.58l3.84-5.28m15.89,8.57h13.05v-1.74h-13.05v1.74m0,6.73h13.05v-1.74h-13.05v1.74m-18.98-1.54c2.64,1.24,6.97,3.39,9.17,4.73l-3.89,6.03c-1.94-1.44-6.18-3.84-8.97-5.38l3.69-5.38m33.48,7.87v4.73h8.67v6.03h-8.67v6.13c0,1.74,.1,1.94,1.05,1.94h2.04c.9,0,1.1-.75,1.24-5.13,1.35,1.05,4.24,2.14,6.08,2.59-.65,6.73-2.44,8.72-6.63,8.72h-3.99c-5.43,0-6.68-1.99-6.68-8.07V24.8h6.88m-14,.25v4.43h5.98v6.03h-5.98v5.58l5.53-1.05c.15,1.84,.6,4.53,.95,6.03-10.01,2.29-12.11,3.04-13.4,3.89-.25-1.84-1.1-5.08-2.04-6.63,1.05-.35,1.84-.9,1.84-2.69v-15.59h7.13m-12.41,3.89l5.08,4.83c-2.54,5.23-5.38,10.61-8.27,15.59l-5.83-4.88c2.49-3.69,6.08-9.72,9.02-15.54m-4.6-28.35l-1.02,1.41-3.84,5.28-1.29,1.77,1.87,1.14c.43,.26,.9,.55,1.39,.85,2.51,1.52,5.64,3.42,7.13,4.6l1.69,1.33,1.22-1.77,.11-.16v4.62c-2.29-1.35-6.14-3.26-8.88-4.55l-1.55-.73-.97,1.42-3.69,5.38-1.26,1.83,1.94,1.08c4.41,2.44,7.35,4.2,8.74,5.23l.39,.29c-2.97,5.71-6.15,10.89-8.08,13.75l-1.02,1.51,1.4,1.17,5.83,4.88,1.84,1.54,1.2-2.08c1.08-1.87,2.18-3.82,3.26-5.82,.69,1.25,1.43,3.96,1.67,5.67l.43,3.17,2.68-1.75c1.03-.67,3.27-1.42,11.97-3.43,1.13,2.34,3.39,3.61,7.65,3.61h3.99c6.32,0,8.03-4.22,8.64-10.54l.17-1.74-1.7-.41c-1.24-.3-2.96-.93-4.2-1.55h4v-10.07h-8.67v-1.69h6.13V2.66h-31.89v1.79c-2.32-1.28-4.79-2.57-5.72-3.05l-1.54-.8h0Zm5.59,26.51l1.67-2.59v1.32h.6v3.43l-1.87-1.78-.4-.38h0Zm13.43-1.27h3.09v1.64h-3.09v-1.64h0Zm0,11.71h3.09v.54l-3.09,.58v-1.13h0Zm14,.05h.33l-.03,.85c-.02,.63-.08,2.21-.18,3.18h-.11v-4.03h0Z"/></g><g><path d="M316.35,50.62c-.73-1.09-2.87-3.34-3.89-4.08l-.89-.65,.72-.83c1.72-1.98,3.05-4.33,4.02-7.1h-6.49v4.58h-7.25V5.76h13.35V3.67h27.75l1.12-.26,5.36,3.04-.13,.71c-1.4,7.49-2.45,12.7-3.22,15.9,2.01,4.33,2.29,8.2,2.29,11.42,0,4.13-.76,6.6-2.46,8-.77,.66-1.79,1.11-3.09,1.36-.74,.11-1.53,.16-2.52,.17v6.97h-7.9v-9.43c-.22,3.02-.54,4.66-1.05,5.58-1.06,1.97-2.08,2.83-3.88,3.28-.9,.28-1.93,.4-3.42,.4-.43,0-.87,0-1.34-.02l-.93-.03-.05-.93c-.07-1.17-.39-2.91-.89-4.42-1.04,2.04-2.25,3.82-3.63,5.34l-.87,.96-.72-1.08Zm6.5-8.08c.63,.03,1.2,.03,1.71,.03h.14s.11-.1,.28-.49c.43-.92,.61-4.85,.68-7.1h-.66c-.54,2.77-1.26,5.29-2.15,7.56Zm-5.95-6.47c.1-.36,.19-.72,.28-1.09h-.28v1.09Zm24.11-.26c.09-.24,.22-.87,.22-2.43,0-1.25-.03-2.6-.22-4.03v6.47Zm-22.73-8.88c.07-1.18,.11-2.41,.13-3.71h-1.51v3.71h1.38Zm.13-11.76v-3.46h-1.52v3.46h1.52Zm22.6-2.46c.05-.43,.1-.85,.15-1.25h-.15v1.25Z"/><path class="d" d="M344.65,4.48l4.38,2.49c-.95,5.08-2.29,12.11-3.29,16.19,2.04,4.24,2.34,8.02,2.34,11.31,0,3.79-.65,6.03-2.09,7.22-.7,.6-1.59,.95-2.64,1.15-.65,.1-1.4,.15-2.39,.15,0-1.54-.25-3.84-.95-5.53v12.5h-5.88V4.67h9.67l.85-.2m-2.34,5.98h-2.29v26.56h.85c.3,0,.65-.1,.9-.45,.35-.45,.5-1.49,.5-3.19,0-2.54-.1-5.98-1.84-9.67,.65-3.49,1.44-9.22,1.89-13.25m-9.57-5.78s0,2.24-.05,2.99c-.2,27.06-.2,36.62-1.49,38.96-1,1.84-1.84,2.44-3.24,2.79-.96,.29-1.99,.37-3.17,.37-.42,0-.85,0-1.31-.02-.1-1.79-.7-4.48-1.59-6.28,1.05,.1,1.94,.1,2.69,.1,.05,0,.09,0,.14,0,.52,0,.84-.28,1.21-1.1,.4-.85,.65-3.24,.8-8.52h-2.54c-1.05,5.83-3.09,11.81-6.98,16.09-.8-1.2-3.04-3.54-4.13-4.33,2.94-3.39,4.53-7.52,5.38-11.76h-1.49v-6.03h2.29c.15-1.99,.2-3.94,.2-5.73h-2.44v-6.03h2.44v-5.48h-2.49V4.67h15.79m-7.57,11.51h1.79v-5.48h-1.79v5.48m1.74,6.03h-1.74c0,1.74-.1,3.69-.25,5.73h1.89l.1-5.73m-11.01-15.45v30.19h-7.08v4.58h-5.23V6.77h12.31m-7.08,23.62h1.69V13.34h-1.69V30.38M344.96,2.33l-.77,.18-.62,.15h-28.64v2.09h-13.35V43.56h9.27v-4.58h4.01c-.86,2.07-1.97,3.87-3.32,5.43l-1.44,1.66,1.78,1.29c.91,.66,2.99,2.84,3.64,3.82l1.44,2.15,1.74-1.92c.92-1.01,1.76-2.13,2.53-3.36,.13,.67,.21,1.3,.24,1.81l.1,1.85,1.86,.05c.48,.01,.93,.02,1.37,.02,1.11,0,2.41-.05,3.71-.45,1.55-.4,2.66-1.11,3.62-2.41v3.03h9.92v-7c.6-.03,1.13-.08,1.63-.15h.07c1.48-.3,2.65-.82,3.57-1.61,1.93-1.6,2.8-4.3,2.8-8.76,0-3.26-.27-7.15-2.23-11.52,.77-3.26,1.8-8.38,3.15-15.61l.26-1.41-1.25-.71-4.38-2.49-.69-.39h0Z"/></g><g><path d="M364.09,50.82l-.15-.81c-.37-1.93-1.64-5.24-2.77-7.21l-.94-1.63,1.88,.12c1.7,.11,3.96,.18,6.05,.18,.81,0,1.46-.01,1.81-.03,.35,0,.51-.03,.57-.05,0-.03,0-.12,0-.28V2.27h9.99V41.15c0,3.81-.68,6.67-4.02,8.24-2.33,1.03-5.37,1.45-10.5,1.45-.36,0-1.93-.01-1.93-.01Zm26.79-11.06c-.86-5.58-4.19-14.7-8.27-22.71l-.52-1.01,9-3.34,.42,.76c3.63,6.52,7.98,15.94,9.33,22.82l.16,.82-9.93,3.91-.19-1.25Zm-33.03-.38c-1.68-1.21-4.93-2.88-6.91-3.67l-1.23-.49,.8-1.06c3.72-4.9,6.09-13.71,6.98-19.76l.15-1.02,10.33,1.74-.23,1.04c-2.42,10.91-5.2,18.43-8.49,22.99l-.59,.82-.82-.59Z"/><path class="d" d="M379.52,3.28V41.15c0,4.19-.9,6.13-3.44,7.32-2.39,1.06-5.68,1.35-10.05,1.35-.36,0-.73,0-1.11,0-.4-2.09-1.74-5.53-2.89-7.52,2.07,.13,4.44,.18,6.12,.18,.83,0,1.49-.01,1.85-.03,1.15,0,1.54-.35,1.54-1.35V3.28h7.97m11.11,10.66c3.94,7.08,7.97,16.14,9.22,22.52l-7.97,3.14c-.95-6.13-4.58-15.59-8.37-23.02l7.13-2.64m-32.14,.6l8.27,1.4c-1.69,7.62-4.33,17.09-8.32,22.62-1.79-1.3-5.13-2.99-7.12-3.79,3.79-4.98,6.23-13.8,7.17-20.23m23.04-13.28h-12.01V40.44c-.36,0-.85,.01-1.38,.01-2.07,0-4.31-.06-5.99-.17l-2.36-.15,.28-.39c3.37-4.67,6.2-12.31,8.65-23.36l.46-2.07-2.1-.35-8.27-1.4-2.03-.34-.3,2.04c-.87,5.93-3.17,14.55-6.78,19.3l-1.6,2.11,2.46,.98c1.92,.77,5.07,2.38,6.69,3.55l1.64,1.18,.15-.21,1.23,2.14c1.07,1.86,2.31,5.08,2.66,6.9l.31,1.62,1.65,.02c.38,0,.76,0,1.13,0,5.27,0,8.42-.44,10.87-1.52,4.08-1.92,4.64-5.54,4.64-9.17V17.17l.17,.33c4.04,7.92,7.33,16.93,8.17,22.41l.39,2.5,2.35-.92,7.97-3.14,1.56-.62-.32-1.65c-1.37-6.99-5.77-16.53-9.43-23.11l-.84-1.51-1.62,.6-7.13,2.64-1.27,.47V1.26h0Z"/></g><g><path d="M405.25,50.71c-1.19-1.24-3.43-2.89-5.03-3.88l-.87-.54,.56-.86c4.89-7.6,5.52-15.95,5.52-22.37v-5.32h-4.33V9.05h7.74c-.39-1.4-.94-2.94-1.52-4.26l-.46-1.03,8.12-2.53,.39,.76c1.06,2.08,2.1,4.91,2.53,6.87l.04,.2h5.01v2.64c1.49-2.72,2.64-5.94,3.33-9.36l.2-.98,8.99,1.73-.24,1.02c-.25,1.08-.55,2.13-.86,3.15h14.59V15.8h-4.58l4.89,4.53-1.42,.62c-1.27,.55-2.67,1.08-4.17,1.6l6.28,5.66-.75,.75c-1.68,1.68-3.58,3.41-5.4,4.94,1.43,3.77,3.23,6.44,5.49,8.14l1.03,.77-1,.82c-1.6,1.31-3.69,4.02-4.64,5.73l-.59,1.08-.94-.79c-1.84-1.55-3.34-3.43-4.56-5.53l.16,.69-.8,.32c-8.62,3.46-10.74,4.35-11.74,5.18l-1.05,.86-.52-1.26c-.54-1.3-2.31-3.67-3.31-4.6-.24,.96-.52,1.65-.86,2.14-1.08,1.6-2.3,2.41-4.22,2.81-.97,.19-2.27,.29-4,.29-.44,0-.9,0-1.36-.02l-.93-.02-.05-.93c-.05-.91-.25-2.11-.58-3.27-.69,1.42-1.52,2.83-2.51,4.28l-.7,1.03-.86-.9Zm17.53-29.42c0,.62-.02,1.56-.05,2.08-.26,10.35-.52,16.44-1.05,20.04,.69-.74,1.82-2.31,1.82-4.71V21.88c-.23-.19-.47-.39-.72-.59Zm-11.84,21.19c.59,.03,1.13,.05,1.57,.05,.22,0,.34,0,.64-.39,.65-1,.93-9.38,1.06-13.93h-.55c-.33,5.4-1.23,10.1-2.72,14.27Zm21.51-4.31l3.14-1.13c-1.14-3.74-1.82-7.74-2.32-11.61-.27,.06-.55,.12-.82,.18v12.57Zm8.91-14.88c.05,.41,.11,.82,.18,1.23,.4-.48,.77-.96,1.1-1.41l.22-.3c-.49,.16-.98,.32-1.49,.47Zm-20.73-3.63c-.59-.43-1.15-.8-1.58-1.07l-1.17-.73,.14-.12h-4.2v1.92h6.82Zm10.27-3.86c-.47,.89-.93,1.69-1.38,2.43,2.83-.72,5.56-1.56,7.93-2.43h-6.55Z"/><path class="d" d="M414.44,2.43c1.05,2.04,2.04,4.78,2.44,6.63l-2.89,1h7.92v5.08c2.54-3.39,4.38-7.92,5.33-12.61l6.98,1.35c-.35,1.49-.8,2.94-1.25,4.38h14.95v6.53h-17.64c-.95,1.84-1.94,3.54-3.09,5.03,5.53-1.24,11.11-3.04,14.8-4.83l5.43,5.03c-2.19,.95-4.63,1.79-7.17,2.54,.15,1.44,.4,2.84,.65,4.23,.95-1.05,1.84-2.14,2.54-3.09l5.03,4.53c-1.84,1.84-3.94,3.74-5.88,5.33,1.4,3.94,3.29,7.18,6.08,9.27-1.64,1.35-3.84,4.13-4.88,6.03-6.03-5.08-8.37-13.9-9.67-24.71-.9,.25-1.79,.45-2.69,.6v14.85l5.38-1.94c.05,1.99,.4,4.98,.75,6.53-9.07,3.64-10.91,4.43-12.01,5.33-.6-1.44-2.49-3.99-3.59-4.98,1.2-1.05,2.54-3.04,2.54-5.83V21.42c-1.45-1.24-3.64-2.89-4.93-3.69,.35-.3,.7-.65,1-1h-7.77v3.94h8.97s0,1.84-.05,2.64c-.4,15.64-.8,21.67-2.09,23.57-1.05,1.54-2.14,2.09-3.59,2.39-.96,.19-2.29,.27-3.79,.27-.44,0-.88,0-1.34-.02-.1-1.74-.65-4.19-1.54-5.83-.85,2.19-1.99,4.28-3.39,6.33-1.24-1.3-3.54-2.99-5.23-4.04,5.03-7.82,5.68-16.39,5.68-22.92v-6.33h-4.33v-6.68h8.02c-.4-1.79-1.15-3.99-1.89-5.68l6.23-1.94m.8,24.76h-2.54c-.25,5.13-1.05,10.81-3.19,16.19,1.2,.1,2.24,.15,2.99,.15,.6,0,1-.2,1.45-.8,.65-1,1-4.98,1.3-15.55m.23-27.2l-1.62,.51-6.23,1.94-2.16,.67,.91,2.07c.38,.87,.76,1.87,1.08,2.85h-7.38v10.71h4.33v4.31c0,6.28-.61,14.44-5.36,21.83l-1.11,1.73,1.75,1.08c1.55,.96,3.7,2.54,4.84,3.72l1.72,1.79,1.4-2.05c.44-.64,.84-1.27,1.22-1.9,.01,.13,.02,.26,.03,.38l.11,1.86,1.86,.05c.48,.01,.94,.02,1.39,.02,1.79,0,3.15-.1,4.18-.31,2.18-.45,3.63-1.42,4.86-3.24,.15-.22,.29-.47,.42-.74,.8,1,1.65,2.26,1.97,3.02l1.04,2.51,2.1-1.72c.87-.72,3.1-1.66,11.48-5.02l.24-.09c1.11,1.66,2.41,3.16,3.94,4.45l1.88,1.58,1.19-2.15c.99-1.8,3.05-4.34,4.39-5.44l1.99-1.63-2.06-1.55c-1.98-1.48-3.58-3.79-4.89-7.02,1.68-1.43,3.38-3,4.91-4.53l1.5-1.5-1.58-1.42-4.23-3.81c.93-.34,1.81-.7,2.64-1.05l2.84-1.23-2.27-2.11-1.87-1.73h3.01V6.24h-14.25c.18-.62,.35-1.26,.5-1.91l.48-2.04-2.06-.4-6.98-1.35-1.96-.38-.4,1.96c-.42,2.07-1.01,4.06-1.74,5.9h-4.81c-.5-1.99-1.48-4.57-2.48-6.52l-.77-1.51h0Zm17.98,36.73v-3.96c.26,1.23,.56,2.44,.89,3.64l-.89,.32h0Z"/></g><g><path d="M457.68,50.92v-16.7c-.52,.47-1.03,.91-1.54,1.33l-.87,.71-.61-.94c-.96-1.49-3.35-4.72-4.76-6.17l-.83-.85,.98-.68c4.69-3.25,9.49-8.34,12.58-13.27-2.3,2.14-4.67,4.09-6.9,5.61l-.92,.63-.54-.98c-.95-1.73-2.72-4.48-3.86-5.8l-.77-.89,1-.62c3.94-2.47,8.65-6.89,10.96-10.27l.46-.68,8.95,3.71-.8,1.04c-1.65,2.14-3.62,4.36-5.72,6.46l8.13,3.12-.59,1.02c-.28,.49-.58,.98-.89,1.47h28.08v8.89h-6.53v14.74c0,3.74-.63,6.33-3.74,7.7-2.59,1.19-6.08,1.28-10.37,1.28h-.9l-.1-.89c-.23-1.97-1.11-5.03-2.06-7.12l-.69-1.53,1.67,.1c1.6,.1,3.81,.15,6.57,.15,.07,0,.14,0,.19,0v-14.42h-13.65v-6.54c-.81,1.18-1.68,2.37-2.62,3.58v26.82h-9.29Zm14-37.72V4.31h26.28V13.21h-26.28Z"/><path class="d" d="M462.42,2.58l6.97,2.89c-3.79,4.93-9.32,10.26-14.25,13.65-.9-1.64-2.74-4.53-3.99-5.98,4.13-2.59,8.92-7.13,11.26-10.56m34.53,2.74v6.88h-24.26V5.32h24.26m-32.68,8.22l6.88,2.64c-1.45,2.49-3.24,5.08-5.18,7.57v26.16h-7.27V31.93c-1.1,1-2.14,1.99-3.19,2.84-1-1.54-3.44-4.83-4.88-6.33,5.03-3.49,10.46-9.27,13.65-14.9m33.93,5.63v6.88h-6.53v15.74c0,3.69-.65,5.68-3.14,6.78-2.39,1.1-5.73,1.2-9.97,1.2-.25-2.14-1.19-5.33-2.14-7.42,2.44,.15,5.73,.15,6.63,.15s1.2-.2,1.2-.9v-15.54h-13.65v-6.88h27.6M461.68,.09l-.92,1.36c-2.24,3.29-6.83,7.58-10.66,9.99l-1.99,1.25,1.53,1.78c1.08,1.25,2.84,3.97,3.74,5.63l1.07,1.96,1.84-1.27,.07-.05c-2.17,2.31-4.55,4.42-6.9,6.04l-1.95,1.35,1.65,1.71c1.32,1.36,3.69,4.54,4.64,6.02l1.22,1.89,1.65-1.33v15.52h11.31V24.45c.2-.26,.4-.52,.6-.79v4.41h13.65v12.4c-2.35,0-4.26-.06-5.68-.14l-3.34-.2,1.38,3.05c.89,1.97,1.76,4.97,1.98,6.82l.21,1.79h1.8c4.42,0,8.02-.1,10.81-1.38,3.79-1.67,4.32-5.12,4.32-8.61v-13.73h6.53v-10.91h-27.3l1.16-2.01-2.21-.85-.21-.08h27.32V3.3h-28.3v.51l-.5-.21-6.97-2.89-1.52-.63h0Zm4.61,12.07c1.58-1.64,3.06-3.34,4.38-5.03v6.71l-4.38-1.68h0Z"/></g></g><g><g><path d="M27.92,113.39v-8.66c-2.29,2.62-4.77,4.7-7.41,6.19l-.85,.48-.51-.84c-.81-1.34-2.43-3.31-3.75-4.6-.15,2.38-.76,4.23-2.59,5.46-1.66,1.07-3.8,1.52-7.19,1.52l-1.58-.02-.08-.91c-.14-1.69-.91-4.56-1.71-6.41l-.66-1.51,1.65,.1c1.41,.09,2.84,.1,3.56,.1v-7.1l-3.26,1.1-2.07-8.99,.98-.23c1.27-.3,2.73-.7,4.35-1.17v-6.11H2.41v-8.64H6.79v-9.12H15.44v9.12h1.77v-7.08H49.47v12.63h-.26l.1,1.14c.06,.62,.11,1.39,.17,2.2,.09,1.31,.2,2.8,.32,3.74l.1,.78-.74,.29c-1,.39-2.34,.47-4.05,.47h-3.74c-1.8,0-3.2-.17-4.32-.52v2.09h12.46v8.45h-7.14c2.36,2.3,5.2,4.34,8.07,5.76l1.39,.68-1.19,.99c-1.49,1.25-3.65,3.76-4.62,5.37l-.53,.88-.87-.54c-2.59-1.61-5.22-3.89-7.58-6.56v9.46h-9.14Zm-12.48-9.91c2.86-1.4,5.62-3.57,7.82-6.14h-5.85v-3.73c-.65,.23-1.3,.47-1.97,.7v9.17Zm12.48-14.58v-2.8c-1.82,1.04-4.22,1.85-7.37,2.46l-.87,.17-.28-.84c-.27-.82-.83-1.9-1.45-2.9l.7,3.91h9.28Zm-12.48-3.61l2.24-.72c-.49-.74-1.01-1.41-1.47-1.87l-.77-.77v3.35Zm18.42-1.07c-.7-1.34-.9-3-.95-4.71-.48,1.84-1.26,3.4-2.53,4.71h3.47Zm-15.48-3.47c2.61-.44,4.17-1,5.11-1.74h-5.11v1.74Zm26.59-1.41c1.05,0,2.36-.15,3.05-.36l.9-.26h-7.63v.04c0,.28,.01,.47,.02,.58h3.65Z"/><path class="d" d="M14.43,65.05v9.12h2.94v6.63h-2.94v5.88l2.64-.85,1.15,6.43c-1.24,.45-2.49,.9-3.79,1.35v10.91c0,3.14-.5,4.93-2.19,6.08-1.58,1.02-3.72,1.35-6.63,1.35-.21,0-.42,0-.64,0-.15-1.79-.95-4.78-1.79-6.73,1.59,.1,3.24,.1,3.84,.1s.8-.2,.8-.85v-8.67l-3.54,1.2-1.59-6.92c1.49-.35,3.24-.85,5.13-1.4v-7.87H3.42v-6.63H7.8v-9.12h6.63m34.03,2.04v10.61h-7.02v-4.53H24.89v4.83h-6.68v-10.91h30.24m-8.17,7.32v4.33c0,1.15,.15,1.59,.95,1.59h3.74c1.05,0,2.49-.15,3.34-.4,.15,1.64,.3,4.43,.5,5.98-.9,.35-2.29,.4-3.69,.4h-3.74c-6.08,0-7.47-1.94-7.47-7.62v-4.29h6.38m-7.72,.1c-.35,6.97-1.89,11.06-12.21,13.05-.55-1.64-2.14-4.28-3.44-5.58,8.17-1.1,8.87-3.04,9.12-7.47h6.53m3.49,10.71v4.68h12.46v6.43h-8.47c2.69,3.09,6.33,5.88,9.97,7.67-1.54,1.3-3.79,3.89-4.83,5.63-3.29-2.04-6.48-5.08-9.12-8.52v11.26h-7.12v-10.51c-2.49,3.34-5.48,6.23-8.92,8.17-1-1.64-3.09-4.13-4.58-5.43,3.89-1.79,7.42-4.83,9.91-8.27h-6.93v-6.43h10.51v-4.68h7.12m-19.6-22.2H5.78v9.12H1.4v10.66H5.78v4.33c-1.35,.38-2.52,.7-3.57,.95l-1.96,.46,.45,1.96,1.59,6.92,.5,2.17,2.11-.71,.87-.29v4.68c-.72,0-1.61-.03-2.49-.09l-3.29-.2,1.32,3.03c.75,1.73,1.5,4.52,1.63,6.09l.15,1.82,1.83,.03c.23,0,.45,0,.67,0,3.6,0,5.91-.5,7.73-1.67,1.58-1.07,2.37-2.51,2.76-4.1,.86,.99,1.69,2.08,2.19,2.9l1.01,1.67,1.7-.96c2.07-1.17,4.05-2.68,5.91-4.52v7.12h11.16v-7.91c1.93,1.93,3.97,3.58,6.03,4.86l1.74,1.08,1.05-1.76c.91-1.51,3-3.95,4.4-5.12l2.37-1.99-2.78-1.37c-2.03-1-4.05-2.33-5.88-3.84h5.52v-10.46h-1.22c.08-.03,.16-.06,.24-.09l1.47-.57-.2-1.57c-.12-.91-.22-2.39-.32-3.68-.06-.82-.12-1.6-.17-2.22v-.04h.16v-14.65H16.45v-2.04h0Zm10.09,24.86c.13-.05,.25-.11,.37-.16v.16h-.37Zm-10.09,10.46h4.47c-1.37,1.33-2.89,2.5-4.47,3.43v-3.43h0Z"/></g><g><path d="M67.87,113.29l-.17-.8c-.26-1.22-.83-2.88-1.49-4.39-2.38,1.73-5.1,3.42-7.62,4.73l-.68,.35-.52-.57c-1.19-1.28-3.73-3.64-5.24-4.76l-1.49-1.1,1.73-.65c2.5-.94,5.14-2.27,7.34-3.65-.87,.16-1.45,.32-1.96,.51l-1.09,.4-.25-1.13c-.24-1.11-1.08-4.06-1.65-5.59l-.44-1.18,1.24-.18c1.48-.21,2.81-.58,4.58-1.21l-.09-.41c-.21-.96-.9-3.24-1.47-4.84h-6.33v-12.93h19.03v-.07h-17.64v-8.2h17.64v-3.59h9.69v3.59h17.54v8.2h-17.54v.07h18.98v12.93h-9.19v-1s-1.34,.8-1.51,.9c2.82,2.45,7.66,6.81,10,9.83l.66,.86-5.75,3.8c2.16,1.3,4.2,2.63,5.65,3.72l1.12,.85-7.8,5.27-.59-.53c-2.29-2.05-7.15-5.19-10.87-7.41v.23c0,3.18-.63,5.56-3.72,6.81-2.5,1.04-5.43,1.12-9.3,1.12h-.82Zm2.49-8.49c.49,0,.93,.01,1.31,.01s.69,0,.88-.02c.06,0,.11,0,.16,0v-3.54c-1.58,.11-3.06,.22-4.46,.33l3.86,1.59-1.14,1.07c-.19,.18-.39,.36-.61,.55Zm11.34-2.13l3.56-2.28-3.56,.23v2.05Zm8.67-1.68c-.24-.28-.51-.57-.78-.88l-.71,.05c.48,.27,.98,.55,1.49,.83Zm-8.35-8.43c-.87,.41-1.75,.82-2.66,1.23l3.77-.19c-.15-.14-1.12-1.04-1.12-1.04Zm8.77-5.04v-3.63h-4.38l4.38,3.63Zm-11.94-3c-1.26,.83-2.65,1.65-4.12,2.44l1.8-.05c2.07-1.08,3.84-2.08,5.34-3.02h-2.07l-.96,.63Zm-17.73,1.67c.5-.22,1.04-.48,1.63-.77,.57-.29,1.64-.82,2.93-1.53h-4.56v2.3Z"/><path class="d" d="M80,65.05v3.59h17.54v6.18h-17.54v2.09h18.98v10.91h-7.17v-4.93h-14.5l1,.8c-2.34,1.54-5.18,3.09-8.17,4.43l6.68-.2c2.69-1.4,5.33-2.89,7.52-4.43l4.93,4.09c-4.83,2.89-10.16,5.38-15.59,7.52l11.86-.6c-.75-.75-1.44-1.4-2.14-2.04l5.03-3.14c3.34,2.89,7.87,7.02,10.06,9.86l-5.43,3.59c-.7-1.05-1.79-2.34-3.04-3.69l-9.32,.6v5.68c0,3.14-.65,4.88-3.09,5.88-2.39,1-5.33,1.05-8.92,1.05-.35-1.65-1.2-3.94-2.09-5.73-2.74,2.09-5.88,4.04-8.47,5.38-1.24-1.35-3.84-3.74-5.38-4.88,3.84-1.45,8.17-3.84,10.76-6.08-3.69,.35-4.98,.65-6.08,1.05-.25-1.15-1.1-4.14-1.69-5.73,2.09-.3,3.89-.9,6.88-2.04,.85-.3,2.19-.85,3.89-1.54-3.59,.25-4.63,.45-5.43,.75-.25-1.15-1.15-4.04-1.74-5.63h-6.03v-10.91h19.03v-2.09h-17.64v-6.18h17.64v-3.59h7.67m-10.56,17.84h-9.32v4.73c.95-.25,1.89-.7,3.09-1.3,1-.5,3.59-1.79,6.23-3.44m2.23,22.94c.42,0,.75,0,.95-.02,.85,0,1.1-.15,1.1-.7v-4.93c-4.38,.3-7.47,.55-9.72,.75l6.28,2.59c-.8,.75-1.69,1.49-2.64,2.24,1.48,.04,3.01,.07,4.03,.07m15.5-5.45c3.69,1.99,9.17,5.18,12.06,7.37l-5.98,4.04c-2.44-2.19-7.72-5.58-11.61-7.87l5.53-3.54m-5.16-37.34h-11.71v3.59h-17.64v8.27h-1.4v14.95h6.62c.41,1.23,.86,2.68,1.09,3.58-1.3,.43-2.38,.71-3.53,.87l-2.49,.35,.88,2.35c.56,1.49,1.38,4.37,1.61,5.45l.24,1.11c-1.21,.6-2.45,1.15-3.67,1.6l-3.46,1.31,2.97,2.21c1.46,1.09,3.94,3.38,5.1,4.63l1.05,1.13,1.37-.71c2.2-1.14,4.55-2.57,6.7-4.07,.43,1.1,.77,2.18,.95,3.05l.34,1.6h1.64c3.99,0,7.02-.09,9.69-1.2,3.18-1.3,4.07-3.67,4.28-6.22,3.41,2.09,7.3,4.66,9.24,6.41l1.17,1.05,1.31-.88,5.98-4.04,2.34-1.58-2.25-1.7c-1.16-.88-2.7-1.9-4.38-2.95l3.53-2.33,1.81-1.2-1.33-1.72c-1.83-2.37-5.05-5.45-8.01-8.11h8.93v-14.95h-1.44v-8.27h-17.54v-3.59h0Zm7.2,21.87h.57v.48l-.57-.48h0Z"/></g><g><path d="M129.32,112.96c-1.07-1.16-3.94-3.34-5.29-4.02l-1-.5,.59-.94c.28-.44,.53-.91,.78-1.42l-1.84,1.16-.46-1.1c-.47-1.11-1.29-2.74-2.19-4.37v11.17h-9.04v-10.57c-1.13,2.49-2.45,5.03-3.61,6.91l-.62,1-.89-.76c-1.03-.88-3.27-2.43-4.52-3.12l-.98-.54,.64-.92c1.43-2.05,2.97-5.23,3.99-8.18h-2.93v-8.05h8.92v-1.02h-9.27v-7.9h3.97c-.29-1.14-.66-2.31-.84-2.87l-.08-.25h-2.26v-7.85h7.54c-.26-.85-.51-1.62-.75-2.28l-.39-1.06,9.23-2.21,.32,.82c.59,1.51,1.26,3.22,1.78,4.74h6.96v7.85h-1.84l-.05,.11c-.34,.75-.66,1.46-.96,2.14-.13,.3-.26,.59-.39,.87h3.25v-10.83l.82-.16c5.67-1.09,11.3-2.8,14.7-4.45l.64-.31,7.1,6.91-1.44,.58c-4.48,1.8-9.44,3-13.07,3.73v5.09h14.6v8.7h-4.18v24.11h-9.04v-24.11h-1.37c-.09,11.1-1.71,18.9-4.94,23.81l-.71,1.08-.88-.95Zm-3.72-16.22c.32,.5,.64,1.01,.96,1.52,.07-.5,.13-1.01,.19-1.52h-1.14Zm-14.74,.41v-.41h-1.36l1.36,.41Zm9.04-.07l.6-.34h-.6v.34Zm6.98-8.39v6.48c.18-2.41,.22-4.85,.22-7.21v-.29h-7.2v1.02h6.98Zm-11.72-8.92c.38-.99,.78-2.09,1.1-3.11h-3.22c.42,1.26,.69,2.23,.82,2.94l.03,.17h1.27Z"/><path class="d" d="M117.41,64.45c.65,1.64,1.44,3.69,1.99,5.38h6.68v5.83h-5.58l3.79,.7c-.75,1.64-1.4,3.14-1.99,4.43h4.58v5.88h-7.97v3.04h6.98v6.03h-6.98v16.19h-7.02v-16.19h-8.92v-6.03h8.92v-3.04h-9.27v-5.88h4.24c-.25-1.24-.75-2.94-1.15-4.18l3.89-.95h-6.18v-5.83h7.87c-.35-1.25-.75-2.54-1.15-3.64l7.27-1.74m.2,11.21h-5.98c.5,1.4,1.05,3.04,1.25,4.13l-3.59,1h6.58c.6-1.54,1.35-3.54,1.74-5.13m25.46-10.41l5.48,5.33c-4.08,1.64-9.02,2.94-13.7,3.83v6.93h14.6v6.68h-4.19v24.11h-7.02v-24.11h-3.39c0,7.42-.65,17.99-4.78,24.26-1.15-1.25-4.09-3.49-5.58-4.24,.85-1.35,1.44-2.84,1.94-4.43l-3.39,2.14c-.8-1.89-2.44-4.93-3.79-7.13l4.63-2.64c1.1,1.59,2.29,3.54,3.19,5.18,.95-4.38,1.05-9.17,1.05-13.2v-18.19c5.43-1.05,11.26-2.74,14.95-4.53m-37.12,31.49l5.48,1.64c-1.3,3.49-3.39,7.72-5.03,10.36-1.05-.9-3.34-2.49-4.68-3.24,1.59-2.29,3.24-5.78,4.23-8.77m12.69-34.66l-1.71,.41-7.27,1.74-2.2,.53,.77,2.13c.1,.29,.21,.6,.32,.93h-7.17v9.87h2.53c.1,.31,.21,.68,.33,1.09h-3.66v9.92h.35v9.07h2.49c-.96,2.46-2.21,4.92-3.37,6.59l-1.27,1.83,1.95,1.08c1.18,.66,3.38,2.17,4.35,3.01l1.78,1.53,1.24-1.99c.56-.9,1.16-1.95,1.75-3.08v7.22h11.06v-7.99c.09,.21,.18,.4,.26,.58l.75,1.78-.34,.54,1.99,1c1.25,.63,4.01,2.72,5,3.8l1.75,1.9,1.42-2.16c2.21-3.35,3.69-7.97,4.47-13.98v14.74h11.06v-24.11h4.19v-10.71h-14.6v-3.25c3.58-.75,8.21-1.92,12.44-3.62l2.88-1.16-2.22-2.16-5.48-5.33-1.02-.99-1.27,.62c-3.33,1.62-8.86,3.29-14.45,4.37h-6.89c-.48-1.35-1.05-2.79-1.56-4.09l-.64-1.63h0Zm7.26,15.6h.2v1.09h-.69c.16-.36,.32-.72,.49-1.09h0Zm-11.48,0h.45c-.08,.23-.17,.47-.25,.7-.06-.22-.12-.45-.2-.7h0Z"/></g><g><path d="M150.05,103.44l1.12-.31c3.01-.82,7.18-2.17,11.6-3.6l.47-.15v-14.75h-10.91v-9.24h10.91v-10.61h9.59v31.35l2-.67,1.62,8.13c-.07-.86-.1-1.81-.1-2.83v-35.94h9.59v10.46h12.56v9.24h-12.56v16.28c0,.58,0,1.91,.15,2.22,0,0,.02,0,.04,0,.06,0,.2,.01,.45,.01h3.59c.89,0,1.09-5.74,1.23-9.94l.07-2.01,1.57,1.25c1.7,1.36,4.8,2.75,6.52,3.14l.83,.19-.05,.85c-.58,10.12-2.24,15.6-9.38,15.6h-5.58c-5.83,0-8.33-2.14-8.9-8.21l-.73,.3c-6.69,2.8-14.43,5.9-20.71,8.28l-.9,.34-4.09-9.43Z"/><path class="d" d="M171.82,65.8v31.74l2.24-.75,1.3,6.53c-7.03,2.94-14.65,5.98-20.68,8.27l-3.24-7.47c3.29-.9,7.87-2.39,12.8-3.99v-16.49h-10.91v-7.23h10.91v-10.61h7.57m13.1,.05v10.46h12.56v7.22h-12.56v17.29c0,2.84,.15,3.24,1.64,3.24h3.59c1.65,0,1.94-2.24,2.24-10.91,1.74,1.39,4.98,2.89,6.93,3.34-.6,10.46-2.29,14.65-8.37,14.65h-5.58c-6.18,0-8.02-2.44-8.02-10.36v-34.93h7.57m-11.08-2.07h-11.61v10.61h-10.91v11.26h10.91v13c-4.32,1.4-8.39,2.71-11.32,3.51l-2.25,.61,.93,2.14,3.24,7.47,.77,1.77,1.8-.69c6.23-2.37,13.58-5.31,20.26-8.1,1.05,6.36,4.57,7.78,9.71,7.78h5.58c8.72,0,9.89-7.83,10.39-16.55l.1-1.7-1.66-.38c-1.61-.37-4.57-1.71-6.12-2.95l-3.14-2.51-.14,4.02c-.1,2.87-.26,7.51-.7,8.96h-2.71c-.02-.45-.02-.98-.02-1.22v-15.27h12.56v-11.26h-12.56v-10.46h-11.61v30.41l-1.49,.5v-30.95h0Z"/></g><g><path d="M204.46,112.78c-.48-1.92-1.65-5.02-2.71-6.68l-.93-1.46,1.73-.09c7.39-.38,13.53-1.24,18.68-2.62-.7-.65-1.51-1.35-2.35-2.03-1.55,.66-3.3,1.39-5.08,2.03l-.84,.3-.4-.8c-.84-1.68-2.8-4.2-4.13-5.31l-1.46-1.21,1.82-.53c4.84-1.41,9.11-3.23,12.67-5.38-4.35,1.62-9.25,2.93-14.65,3.9l-.85,.15-.28-.81c-.63-1.79-2.02-4.6-3.17-6.03l-1.12-1.39,1.77-.24c4.28-.59,8.27-1.43,11.88-2.51-.79-.78-1.59-1.51-2.27-2.11-1,.5-2.04,1-3.14,1.47l-.79,.33-.46-.72c-1.04-1.64-3.19-3.92-4.6-4.89l-1.65-1.13,1.89-.65c7.27-2.51,13.34-6.13,17.08-10.19l.4-.43,10.05,2.32-1.2,1.28c-.19,.2-.38,.4-.57,.59h6.54l1.47-.37,5.99,3.49-.48,.86c-2.31,4.15-5.6,7.78-9.8,10.8l6.35,1.45-1.1,1.27c-.46,.53-.89,1.02-1.3,1.47h4.64l1.57-.42,6.2,3.5-.39,.84c-7.93,17.32-26.66,21.2-43.93,22.71l-.86,.07-.21-.84Zm22.72-17.29c1.17,.9,2.33,1.88,3.33,2.8,1.64-.92,3.06-1.91,4.29-2.98h-7.34c-.09,.06-.19,.12-.28,.18Zm-5.97-19.21c.9,.76,1.78,1.55,2.53,2.33,1.45-.76,2.75-1.53,3.91-2.33h-6.44Z"/><path class="d" d="M221.84,64.85l7.77,1.79c-.75,.8-1.54,1.54-2.34,2.29h9.17l1.19-.3,4.78,2.79c-2.69,4.83-6.63,8.72-11.41,11.76l6.97,1.59c-.95,1.1-1.89,2.14-2.89,3.14h7.12l1.3-.35,5.03,2.84c-7.07,15.45-23.12,20.38-43.1,22.12-.5-1.99-1.69-5.18-2.84-6.98,7.67-.4,14.65-1.35,20.58-3.14-1.15-1.2-2.69-2.54-4.14-3.69-1.74,.75-3.64,1.54-5.58,2.24-.85-1.69-2.89-4.38-4.38-5.63,9.22-2.69,15.64-6.58,19.63-10.76-6.43,3.59-14.05,5.88-22.07,7.32-.65-1.84-2.09-4.78-3.34-6.33,4.73-.65,9.37-1.64,13.6-3.04-1.15-1.24-2.59-2.59-3.99-3.79-1.2,.6-2.39,1.2-3.69,1.74-1.05-1.64-3.29-4.09-4.88-5.18,8.07-2.79,14-6.68,17.49-10.46m8.77,10.41h-11.51l-.4,.25c1.74,1.4,3.59,2.94,4.83,4.33,2.69-1.35,5.08-2.84,7.08-4.58m6.68,19.03h-10.11c-.6,.4-1.2,.75-1.79,1.1,1.79,1.29,3.64,2.84,4.98,4.13,2.69-1.44,5.03-3.14,6.92-5.23m-16.13-31.68l-.8,.86c-3.63,3.94-9.55,7.46-16.66,9.92l-3.78,1.31,3.3,2.27c1.3,.89,3.36,3.08,4.32,4.6l.72,1.13c-1.68,.34-3.42,.63-5.22,.87l-3.54,.48,2.25,2.78c1.05,1.3,2.4,4.01,3,5.73l.57,1.62,1.31-.24-1.74,.51,2.91,2.43c1.21,1.01,3.1,3.43,3.87,4.98l.4,.81c-2.93,.39-6.11,.68-9.56,.86l-3.46,.18,1.87,2.92c1,1.57,2.12,4.53,2.58,6.38l.42,1.67,1.72-.15c17.56-1.53,36.61-5.5,44.76-23.29l.77-1.69-1.62-.91-5.03-2.84-.72-.41-.8,.21-1.04,.28h-2.27l2.02-2.34-3.27-.75-2.61-.6c3.5-2.83,6.3-6.11,8.36-9.81l.96-1.73-1.71-1-4.78-2.79-.71-.41-.8,.2-.95,.24h-4.07l1.36-1.45-3.42-.79-7.77-1.79-1.14-.26h0Zm2.71,14.66h.23l-.14,.08-.08-.08h0Zm-13.72,5.02c.86-.37,1.68-.75,2.47-1.14,.15,.13,.3,.27,.46,.42-.95,.26-1.93,.5-2.93,.73h0Zm19.67,14.01h2c-.37,.25-.76,.49-1.16,.73-.27-.24-.55-.49-.84-.73h0Zm-13.25,5.64c.75-.3,1.47-.6,2.16-.89,.14,.12,.28,.23,.41,.35-.83,.19-1.69,.38-2.57,.55h0Z"/></g><g><path d="M254.99,112.63c-.75-1.74-2.66-4.28-4.16-5.56l-1.32-1.12,1.62-.6c9.16-3.38,10.63-8.65,11.22-15.68h-10.48v-9.04h47.11v9.04h-12.71v12.84c0,.72,.03,1.05,.07,1.2,.09,.01,.26,.03,.57,.03h3.44c.17,0,.22-.02,.22-.02,.52-.4,.68-4.64,.77-7.17l.07-2.02,1.57,1.27c1.33,1.07,4.3,2.29,6.29,2.8l.82,.21-.06,.84c-.65,8.55-2.21,12.89-8.98,12.89h-5.38c-7.51,0-8.93-3.51-8.93-9.98v-12.89h-4.55c-.91,9.46-3.06,18.3-15.89,23.49l-.91,.37-.39-.91Zm1.51-36.31v-8.99h37.69v8.99h-37.69Z"/><path class="d" d="M293.18,68.34v6.98h-35.67v-6.98h35.67m4.78,13.3v7.02h-12.71v13.85c0,1.99,.2,2.24,1.65,2.24h3.44c1.49,0,1.74-1.2,1.99-8.17,1.54,1.25,4.73,2.49,6.68,2.99-.7,9.22-2.49,11.96-7.97,11.96h-5.38c-6.33,0-7.92-2.29-7.92-8.97v-13.9h-6.48c-.9,10.21-3.04,18.58-15.35,23.57-.8-1.84-2.79-4.53-4.43-5.93,10.26-3.79,11.41-10.01,11.96-17.64h-10.56v-7.02h45.09m-2.76-15.32h-39.71v11.01h39.71v-11.01h0Zm4.78,13.3h-49.13v11.06h10.39c-.64,6.27-2.29,10.71-10.46,13.72l-3.24,1.2,2.64,2.24c1.38,1.17,3.2,3.6,3.89,5.19l.78,1.81,1.83-.74c12.89-5.22,15.45-14.29,16.42-23.42h2.62v11.88c0,9.15,3.8,10.99,9.94,10.99h5.38c7.51,0,9.31-4.86,9.99-13.83l.13-1.69-1.64-.42c-1.9-.48-4.72-1.65-5.91-2.6l-3.14-2.53-.14,4.03c-.06,1.81-.18,4.98-.45,6.22h-2.59c0-.07,0-.14,0-.22v-11.83h12.71v-11.06h0Z"/></g><g><path d="M304.67,112.75c-.74-1.61-2.88-4.95-4.25-6.6l-1.05-1.27,1.61-.36c7.14-1.59,12.92-3.94,17.62-7.17-3.61-4.38-6.6-9.64-9.13-16.04h-8.19v-9.09h20.21c-.51-1.72-1.22-3.6-1.93-5.08l-.51-1.07,9.7-2.86,.39,.73c1.14,2.15,2.67,5.48,3.23,7.81l.11,.47h16.81v9.09h-7.82c-2.22,6.21-5.12,11.41-8.84,15.84,4.76,3.23,10.46,5.59,16.96,7.03l1.83,.4-1.35,1.31c-1.48,1.43-3.55,4.45-4.7,6.54l-.38,.69-.76-.2c-7.38-1.92-13.54-4.84-18.79-8.91-5.36,4.08-11.78,7.13-19.6,9.3l-.83,.23-.36-.78Zm14.58-31.44c1.67,3.57,3.79,6.81,6.33,9.67,2.27-2.81,4.13-6.05,5.55-9.67h-11.89Z"/><path class="d" d="M328.26,64.4c1.25,2.34,2.64,5.48,3.14,7.57l-4.03,1.25h20.93v7.08h-7.52c-2.34,6.78-5.53,12.41-9.62,17.04,4.98,3.59,11.01,6.23,18.23,7.82-1.64,1.59-3.79,4.78-4.88,6.78-7.67-1.99-13.9-5.08-19.03-9.22-5.43,4.28-12.01,7.42-19.88,9.62-.8-1.74-2.99-5.13-4.38-6.82,7.62-1.69,13.85-4.29,18.88-7.97-4.14-4.78-7.32-10.51-9.91-17.24h-7.87v-7.08h20.53c-.5-1.99-1.4-4.54-2.34-6.53l7.77-2.29m4.33,15.89h-14.9c1.94,4.58,4.58,8.67,7.92,12.21,2.94-3.39,5.28-7.42,6.97-12.21m-3.33-18.3l-1.58,.47-7.77,2.29-2.27,.67,1.02,2.13c.51,1.07,1.02,2.36,1.46,3.64h-19.84v11.11h8.52c2.34,5.8,5.09,10.67,8.33,14.8-4.43,2.85-9.81,4.96-16.36,6.42l-3.21,.71,2.09,2.54c1.32,1.61,3.4,4.83,4.11,6.38l.72,1.57,1.66-.46c7.65-2.13,13.99-5.08,19.33-9.01,5.22,3.92,11.3,6.74,18.54,8.62l1.52,.39,.76-1.38c1.09-1.98,3.13-4.95,4.52-6.3l2.69-2.61-3.66-.81c-5.96-1.32-11.22-3.42-15.69-6.27,3.32-4.17,5.97-8.98,8.06-14.6h8.12v-11.11h-17.02c-.63-2.4-2.12-5.64-3.24-7.75l-.77-1.45h0Zm-8.4,20.32h8.76c-1.13,2.58-2.49,4.94-4.08,7.06-1.8-2.15-3.36-4.52-4.67-7.06h0Z"/></g><g><path d="M357.34,113.34v-23.71c-.6,.65-1.26,1.31-1.98,2l-1.11,1.06-.54-1.44c-.62-1.68-2.5-5.68-3.64-7.42l-.48-.73,.66-.58c4.77-4.18,9.38-10.94,12.03-17.65l.35-.89,8.65,2.95-.41,.99c-1.17,2.84-2.7,5.9-4.66,9.35v36.07h-8.89Zm24.43-.8c-7.36,0-9.73-2.68-9.73-11.02v-36.48h8.99v12.26h17.24v8.94h-17.24v15.38q0,2.53,1.58,2.53h6.23c1.34,0,1.82-.71,2.28-9.16l.1-1.89,1.51,1.14c1.52,1.15,4.26,2.43,5.98,2.81l.86,.19-.07,.88c-.73,9.57-2.48,14.44-10.02,14.44h-7.72Z"/><path class="d" d="M363.23,65.25l6.73,2.29c-1.3,3.14-2.94,6.33-4.73,9.47v35.32h-6.88v-25.41c-1.2,1.49-2.44,2.79-3.69,3.99-.65-1.74-2.54-5.78-3.74-7.62,4.83-4.24,9.57-11.11,12.31-18.04m16.79,.8v12.26h17.24v6.92h-17.24v16.39c0,3.09,.25,3.54,2.59,3.54h6.23c2.44,0,2.84-1.94,3.29-10.11,1.65,1.24,4.53,2.59,6.38,2.99-.75,9.82-2.49,13.5-9.02,13.5h-7.72c-6.83,0-8.72-2.29-8.72-10.02v-35.47h6.98m-17.96-3.33l-.71,1.79c-2.6,6.57-7.11,13.18-11.76,17.26l-1.31,1.15,.95,1.47c1.1,1.7,2.93,5.59,3.54,7.23l1.07,2.88,2.22-2.13c.09-.09,.18-.17,.27-.26v22.25h10.91v-36.81c1.5-2.66,2.75-5.1,3.78-7.39v31.36c0,10.06,3.94,12.03,10.74,12.03h7.72c9.12,0,10.39-6.96,11.03-15.37l.13-1.75-1.72-.37c-1.58-.34-4.19-1.57-5.59-2.63l-3.03-2.29-.21,3.79c-.14,2.58-.4,7.36-1.03,8.19-.04,0-.12,.02-.24,.02h-6.23c-.22,0-.4,0-.52-.01-.03-.33-.05-.83-.05-1.51v-14.37h17.24v-10.96h-17.24v-12.26h-11.01v1.75l-.42-.14-6.73-2.29-1.82-.62h0Z"/></g><g><path d="M401.28,112.04v-9.09h18.83v-6.55h-12.91v-7.51l-.64-.56c-1.43-1.23-4.64-3.34-6.35-4.26l-1.15-.62,.9-.96c3.55-3.78,6.72-10.21,8.48-17.19l.24-.95,9.51,2.14-.28,1.02c-.45,1.65-1.01,3.36-1.7,5.2h3.9v-8.67h9.59v8.67h16.29v9.09h-16.29v5.6h14.3v8.99h-14.3v6.55h18.93v9.09h-47.36Zm18.83-24.64v-5.6h-7.96c-1.24,2.25-2.4,4.1-3.53,5.6h11.49Z"/><path class="d" d="M428.69,65.05v8.67h16.29v7.08h-16.29v7.62h14.3v6.98h-14.3v8.57h18.93v7.08h-45.34v-7.08h18.83v-8.57h-12.91v-6.98h12.91v-7.62h-9.57c-1.4,2.59-2.84,4.93-4.34,6.78-1.44-1.24-4.68-3.39-6.53-4.38,3.84-4.09,7.02-10.91,8.72-17.64l7.52,1.69c-.6,2.19-1.35,4.33-2.19,6.48h6.38v-8.67h7.57m2.02-2.02h-11.61v2.63l-1.72-.39-7.52-1.69-1.92-.43-.48,1.91c-1.69,6.73-4.85,13.14-8.23,16.75l-1.79,1.91,2.31,1.25c1.85,1,4.91,3.05,6.17,4.14l.3,.25v8.06h12.91v4.53h-18.83v11.11h49.38v-11.11h-18.93v-4.53h14.3v-11.01h-14.3v-3.59h16.29v-11.11h-16.29v-8.67h0Zm-13.06,8.67c.48-1.36,.88-2.66,1.23-3.93l.22-.81v4.73h-1.45Zm-4.9,11.11h6.35v3.59h-8.53c.71-1.06,1.43-2.25,2.18-3.59h0Z"/></g><g><path d="M468.24,113.34v-22.64h9.92v-3.26h-12.75v-2.51l-3.71,5.54,6.12,5.54-.35,.69c-2.66,5.26-5.67,10.68-8.71,15.67l-.6,.98-7.77-6.19,.56-.78c2.27-3.17,6.06-9.06,9.31-15.27l-.15-.11c-1.52-1.07-4.74-2.91-9.3-5.31l-1.03-.54,5.05-6.99,.75,.34c2.61,1.19,7.34,3.39,9.67,4.79l.17,.1v-4.88h12.75v-2.41c-2.59,.36-5.27,.66-7.97,.89l-.95,.08-.14-.94c-.19-1.33-.82-3.35-1.42-4.87l-4.84,6.59-.81-.61c-1.37-1.02-4.04-2.58-6.4-3.96-.89-.52-1.75-1.02-2.49-1.46l-.98-.59,5.3-6.79,1.67,.85c2.43,1.24,5.68,2.88,7.72,4.09l-.21-.44,1.43-.14c9.12-.87,17.54-2.65,22.52-4.76l.63-.27,7.07,7.26-1.42,.55c-3.11,1.21-6.41,2.2-9.82,2.92v4h12.16v8.95h-12.16v3.26h10.06v22.45h-8.89v-1.79h-11.43v1.99h-8.55Zm19.98-10.54v-3.56h-11.43v3.56h11.43Z"/><path class="d" d="M490.97,64.95l5.53,5.68c-3.19,1.25-6.73,2.29-10.46,3.04v5.83h12.16v6.93h-12.16v5.28h10.06v20.43h-6.88v-1.79h-13.45v1.99h-6.53v-20.63h9.91v-5.28h-12.75v-6.93h12.75v-4.58c-3.04,.45-6.13,.8-9.07,1.05-.25-1.74-1.2-4.59-1.94-6.18,8.37-.8,17.29-2.49,22.82-4.83m-15.2,38.86h13.45v-5.58h-13.45v5.58m-18.04-38.12c2.64,1.35,7.02,3.54,9.17,4.88l-4.29,5.83c-1.94-1.44-6.23-3.83-8.97-5.48l4.08-5.23m-2.59,13.7c2.74,1.25,7.32,3.39,9.57,4.73l-4.04,6.03c-2.04-1.44-6.48-3.83-9.42-5.38l3.89-5.38m6.08,12.01l5.33,4.83c-2.64,5.23-5.63,10.61-8.67,15.6l-6.13-4.88c2.64-3.69,6.43-9.72,9.47-15.54m30.23-28.85l-1.27,.54c-4.9,2.07-13.2,3.82-22.22,4.68l-1.59,.15c-2.02-1.13-4.67-2.48-6.74-3.53l-.97-.49-1.48-.76-1.02,1.31-4.08,5.23-1.4,1.8,1.96,1.17c.75,.45,1.61,.95,2.51,1.48,2.33,1.36,4.97,2.9,6.3,3.89l1.63,1.21,1.2-1.64,3.12-4.24c.34,1.04,.62,2.1,.73,2.88l.18,1.23h-3.88v4.15c-2.54-1.36-6.21-3.07-8.41-4.07l-1.5-.68-.97,1.34-3.89,5.38-1.36,1.89,2.06,1.08c4.01,2.11,6.96,3.77,8.62,4.85-3.13,5.87-6.66,11.34-8.82,14.36l-1.12,1.56,1.5,1.2,6.13,4.88,1.79,1.43,1.19-1.95c2.63-4.31,5.24-8.95,7.62-13.53v14.99h10.56v-1.99h9.42v1.79h10.91v-24.46h-10.06v-1.24h12.16v-10.96h-12.16v-2.18c3.18-.72,6.26-1.66,9.18-2.79l2.83-1.11-2.12-2.18-5.53-5.68-.96-.99h0Zm-16.29,14.93c.66-.08,1.33-.16,1.98-.25v.25h-1.98Zm-12.15,12.82l1.38-2.06v.2h12.75v1.24h-9.91v4.44l-4.22-3.82h0Zm14.78,9.95h9.42v1.54h-9.42v-1.54h0Z"/></g></g><g><g><path d="M207.75,174.46v-10.87c0-.65,.03-1.38,.07-2.14l-3.89,10.58h-5.2l-3.84-10.34c.04,.68,.06,1.32,.06,1.91v10.87h-8.2v-30.78h9.17l4.81,13.07c.27,.77,.52,1.58,.75,2.38,.23-.8,.46-1.59,.71-2.34l4.65-13.11h9.22v30.78h-8.32Z"/><path class="d" d="M215.06,144.69v28.76h-6.3v-9.86c0-2.86,.54-7.15,.89-9.97h-.15l-2.4,6.88-3.87,10.51h-3.79l-3.9-10.51-2.32-6.88h-.15c.35,2.82,.89,7.11,.89,9.97v9.86h-6.19v-28.76h7.46l4.56,12.41c.58,1.66,1.04,3.48,1.58,5.26h.19c.58-1.78,1.04-3.6,1.58-5.26l4.41-12.41h7.5m2.02-2.02h-10.94l-.48,1.34-4.19,11.8-4.35-11.82-.49-1.32h-10.89v32.8h10.22v-8l1.58,4.25,.49,1.32h6.6l.49-1.32,1.61-4.39v8.15h10.34v-32.8h0Z"/></g><g><rect x="220.67" y="143.68" width="8.94" height="30.78"/><path class="d" d="M228.6,144.69v28.76h-6.92v-28.76h6.92m2.02-2.02h-10.96v32.8h10.96v-32.8h0Z"/></g><g><path d="M248.49,174.46l-2.94-6.18c-.42-.91-.83-1.82-1.25-2.79-.39,.97-.77,1.87-1.16,2.76l-2.74,6.21h-9.73l8.47-15.82-8-14.96h10.03l2.59,5.73c.37,.81,.75,1.67,1.17,2.63,.4-1.03,.77-1.9,1.07-2.62l2.34-5.75h9.65l-7.94,15.26,8.48,15.52h-10.03Z"/><path class="d" d="M256.32,144.69l-7.42,14.26,7.92,14.5h-7.69l-2.67-5.61c-.7-1.51-1.35-3.01-2.13-4.79h-.16c-.7,1.78-1.31,3.29-1.97,4.79l-2.47,5.61h-7.38l7.93-14.81-7.46-13.95h7.69l2.32,5.14c.62,1.35,1.28,2.86,2.09,4.72h.15c.66-1.85,1.28-3.36,1.85-4.72l2.09-5.14h7.31m3.33-2.02h-11.99l-.51,1.26-2.09,5.14c-.06,.13-.11,.26-.17,.4-.07-.16-.15-.32-.22-.48l-2.32-5.13-.54-1.19h-12.37l1.59,2.97,6.95,13-7.42,13.85-1.59,2.97h12.07l.53-1.2,2.47-5.61c.09-.21,.18-.42,.27-.63,.1,.22,.2,.44,.3,.66l2.68,5.63,.55,1.15h12.37l-1.63-2.99-7.41-13.55,6.93-13.31,1.54-2.95h0Z"/></g><g><rect x="273.6" y="143.68" width="8.94" height="30.78"/><path class="d" d="M281.53,144.69v28.76h-6.92v-28.76h6.92m2.02-2.02h-10.96v32.8h10.96v-32.8h0Z"/></g><g><path d="M303.34,174.46l-7.39-14.43-.5-1.11c.16,1.67,.28,3.38,.28,4.98v10.56h-8.59v-30.78h8.66l7.43,14.31,.43,.98c-.15-1.62-.25-3.26-.25-4.77v-10.52h8.59v30.78h-8.66Z"/><path class="d" d="M310.99,144.69v28.76h-7.04l-7.11-13.88-2.82-6.3h-.19c.31,3.21,.89,7.15,.89,10.63v9.55h-6.57v-28.76h7.04l7.15,13.76,2.82,6.38h.19c-.39-3.06-.93-7.19-.93-10.63v-9.51h6.57m2.02-2.02h-10.61v11.53h0l-5.43-10.44-.57-1.09h-10.28v32.8h10.61v-11.68l5.42,10.58,.56,1.1h10.29v-32.8h0Z"/></g><g><polygon points="331.09 174.46 331.09 151.42 323.32 151.42 323.32 143.68 347.84 143.68 347.84 151.42 340.03 151.42 340.03 174.46 331.09 174.46"/><path class="d" d="M346.83,144.69v5.72h-7.81v23.04h-6.92v-23.04h-7.77v-5.72h22.5m2.02-2.02h-26.54v9.76h7.77v23.04h10.96v-23.04h7.81v-9.76h0Z"/></g><g><polygon points="366.66 174.46 366.66 162.63 359.21 162.63 359.21 174.46 350.27 174.46 350.27 143.68 359.21 143.68 359.21 154.62 366.66 154.62 366.66 143.68 375.52 143.68 375.52 174.46 366.66 174.46"/><path class="d" d="M374.51,144.69v28.76h-6.84v-11.83h-9.47v11.83h-6.92v-28.76h6.92v10.94h9.47v-10.94h6.84m2.02-2.02h-10.88v10.94h-5.43v-10.94h-10.96v32.8h10.96v-11.83h5.43v11.83h10.88v-32.8h0Z"/></g><g><polygon points="380.2 174.46 380.2 143.68 400.46 143.68 400.46 151.42 389.14 151.42 389.14 154.74 398.76 154.74 398.76 162.55 389.14 162.55 389.14 166.64 400.89 166.64 400.89 174.46 380.2 174.46"/><path class="d" d="M399.45,144.69v5.72h-11.33v5.33h9.63v5.8h-9.63v6.11h11.75v5.8h-18.67v-28.76h18.25m2.02-2.02h-22.28v32.8h22.71v-9.84h-11.75v-2.07h9.63v-9.84h-9.63v-1.3h11.33v-9.76h0Z"/></g><g><path d="M426.59,175c-7.22,0-14.5-4.88-14.5-15.78,0-7.99,5.06-16.09,14.73-16.09,4.77,0,7.97,2.54,9.46,4.05l.64,.65-4.89,5.93-.78-.72c-1.53-1.4-2.77-1.98-4.3-1.98-3.39,0-5.76,3.26-5.76,7.92,0,5.03,2.12,8.04,5.68,8.04,2.17,0,3.78-1.25,4.75-2.31l.78-.84,4.92,5.87-.56,.65c-2.6,3.01-6.11,4.6-10.16,4.6Z"/><path class="d" d="M426.82,144.15c3.75,0,6.77,1.74,8.74,3.75l-3.63,4.41c-1.43-1.32-2.94-2.24-4.99-2.24-3.71,0-6.76,3.32-6.76,8.93s2.63,9.05,6.69,9.05c2.28,0,4.14-1.16,5.49-2.63l3.63,4.33c-2.44,2.82-5.64,4.25-9.39,4.25-7.31,0-13.49-5.03-13.49-14.77s6.42-15.08,13.72-15.08m0-2.02c-4.25,0-8.17,1.62-11.04,4.55-3.07,3.14-4.7,7.48-4.7,12.55,0,11.6,7.79,16.79,15.51,16.79,4.35,0,8.13-1.71,10.92-4.95l1.12-1.3-1.1-1.32-3.63-4.33-1.48-1.76-1.56,1.69c-.83,.9-2.2,1.98-4,1.98-4.21,0-4.67-4.91-4.67-7.03,0-4.13,1.91-6.91,4.75-6.91,1.25,0,2.3,.5,3.62,1.71l1.57,1.44,1.35-1.64,3.63-4.41,1.16-1.4-1.27-1.3c-1.6-1.63-5.04-4.35-10.18-4.35h0Z"/></g><g><rect x="439.19" y="143.68" width="8.94" height="30.78"/><path class="d" d="M447.12,144.69v28.76h-6.92v-28.76h6.92m2.02-2.02h-10.96v32.8h10.96v-32.8h0Z"/></g><g><polygon points="458.29 174.46 458.29 151.42 450.52 151.42 450.52 143.68 475.04 143.68 475.04 151.42 467.23 151.42 467.23 174.46 458.29 174.46"/><path class="d" d="M474.03,144.69v5.72h-7.81v23.04h-6.92v-23.04h-7.77v-5.72h22.5m2.02-2.02h-26.54v9.76h7.77v23.04h10.96v-23.04h7.81v-9.76h0Z"/></g><g><path d="M481.61,174.46v-10.95l-9.23-19.83h9.63l2.64,7.03c.49,1.38,.97,2.7,1.46,4.04,.27-.71,4.17-11.08,4.17-11.08h9.51l-9.27,19.83v10.95h-8.9Z"/><path class="d" d="M498.2,144.69l-8.7,18.59v10.17h-6.88v-10.17l-8.66-18.59h7.35l2.4,6.38c.77,2.17,1.51,4.18,2.32,6.42h.15c.81-2.24,1.59-4.25,2.4-6.42l2.4-6.38h7.23m3.17-2.02h-11.8l-.49,1.31-2.4,6.38-.56,1.48c-.17-.48-.35-.96-.52-1.45l-2.41-6.41-.49-1.31h-11.91l1.34,2.87,8.47,18.19v11.74h10.92v-11.74l8.51-18.19,1.34-2.87h0Z"/></g></g></g><g><path class="e" d="M258.14,191.34h-9.69l-.43,1.3-10.18,30.95,.48-5.52,.18-2.06h-5.04l1.98-22.62,.18-2.06h-12.62l-.56,.61-22.44,24.16-.44,.48-.06,.65-.8,9.18-.18,2.06h20.33l-.48,5.44-.18,2.06h13.53l.15-1.73,.51-5.77h3.86l-1.88,5.7-.82,2.49h9.63l.43-1.3,13.72-41.53,.82-2.49Zm-42.84,24.68l5.1-5.44-.48,5.44h-4.62Z"/><path class="e" d="M352.21,223.09c.84-.58,1.95-1.32,3.32-2.21,4.25-2.83,7.18-5.38,8.96-7.81,1.83-2.5,2.88-5.18,3.12-7.97,.23-2.69-.3-5.17-1.59-7.36-1.29-2.2-3.2-3.85-5.68-4.91-2.36-1-5.56-1.49-9.79-1.49s-7.23,.51-9.7,1.56c-2.51,1.07-4.55,2.64-6.07,4.66-1.48,1.97-2.62,4.69-3.39,8.07l-.48,2.13,2.18,.18,11.1,.9,1.64,.13,.36-1.61c.52-2.32,1.19-3.32,1.66-3.75,.64-.58,1.38-.85,2.33-.85,1.11,0,1.63,.41,1.92,.71,.45,.47,.62,.98,.56,1.66-.06,.74-.49,1.6-1.27,2.56-.62,.77-2.24,2.29-6.37,5.17-5.92,4.11-9.93,7.62-12.27,10.73-2.36,3.13-3.93,6.52-4.65,10.09l-.46,2.28h37.53l.15-1.73,.8-9.09,.18-2.06h-14.1Z"/><path class="e" d="M399.69,211.7c-.11-.07-.23-.15-.36-.22,.77-.65,1.45-1.34,2.01-2.08,1.29-1.69,2.04-3.61,2.22-5.7,.31-3.57-.86-6.58-3.48-8.94-2.55-2.3-6.6-3.42-12.38-3.42-4.93,0-8.93,1.01-11.88,3.01-2.98,2.02-5.16,4.93-6.46,8.67l-.73,2.09,2.18,.4,10.38,1.89,.74,.14-.15,.93-1.27,7.97-.47,2.92,2.85-.8c1.74-.49,2.68-.59,3.16-.59,1.42,0,2.01,.49,2.32,.87,.52,.62,.73,1.6,.61,2.93-.12,1.38-.56,2.43-1.33,3.21-.74,.74-1.54,1.09-2.54,1.09-1.2,0-1.74-.42-2.05-.73-.3-.31-.85-1.18-1.1-3.55l-.21-1.93-1.93,.25-11.28,1.48-2.02,.26,.41,2c.56,2.76,1.55,5.11,2.92,6.98,1.42,1.92,3.32,3.4,5.67,4.39,2.29,.97,5.32,1.44,9.27,1.44s7.39-.65,10.04-1.93c2.71-1.31,4.89-3.2,6.48-5.63,1.58-2.4,2.5-4.96,2.73-7.6,.19-2.19-.1-4.13-.86-5.77-.77-1.66-1.95-3.02-3.51-4.04Zm-16.32-5.73c.49-2.09,1.12-2.9,1.45-3.19,.54-.48,1.19-.71,2.05-.71,1.08,0,1.41,.36,1.52,.48,.19,.21,.43,.59,.35,1.49-.07,.79-.42,1.45-1.12,2.06-.72,.63-1.52,.92-2.53,.92-.14,0-.48-.02-1.16-.12l-.75-.11,.19-.81Z"/><polygon class="e" points="421.69 221.01 419.62 221.01 407.7 221.01 405.96 221.01 405.81 222.74 404.83 233.91 404.65 235.98 406.72 235.98 418.64 235.98 420.38 235.98 420.53 234.25 421.51 223.07 421.69 221.01"/><path class="e" d="M497.08,216.02h-2.97l1.98-22.62,.18-2.06h-12.62l-.56,.61-22.44,24.16-.44,.48-.06,.65-.51,5.86h-13.91c.84-.58,1.95-1.32,3.32-2.21,4.25-2.83,7.18-5.38,8.96-7.81,1.83-2.5,2.88-5.18,3.12-7.97,.23-2.69-.3-5.17-1.59-7.36-1.29-2.2-3.2-3.85-5.68-4.91-2.36-1-5.57-1.49-9.79-1.49s-7.23,.51-9.7,1.56c-2.51,1.07-4.55,2.64-6.07,4.66-1.48,1.97-2.62,4.69-3.39,8.07l-.48,2.13,2.18,.18,11.1,.9,1.64,.13,.36-1.61c.52-2.32,1.19-3.32,1.66-3.75,.64-.58,1.38-.85,2.33-.85,1.11,0,1.63,.41,1.92,.71,.45,.47,.62,.98,.56,1.66-.07,.74-.49,1.6-1.27,2.56-.62,.77-2.23,2.29-6.37,5.17-5.92,4.11-9.93,7.62-12.27,10.73-2.36,3.13-3.93,6.52-4.65,10.09l-.46,2.28h37.53l.15-1.73,.5-5.77h20.13l-.48,5.44-.18,2.06h13.53l.15-1.73,.51-5.77h5.04l.15-1.73,.76-8.66,.18-2.06h-2.07Zm-21.13,0l5.1-5.44-.48,5.44h-4.62Z"/><path class="e" d="M273.77,192.93h-1.11l-.54,.97c-1.21,2.16-2.8,4-4.72,5.47-1.96,1.49-4.72,2.81-8.21,3.9l-1.21,.38-.11,1.27-.76,8.72-.24,2.78,2.67-.79c2.61-.77,4.83-1.6,6.61-2.46,.74-.36,1.5-.76,2.28-1.21l-1.89,21.63-.18,2.06h14.56l.15-1.73,3.4-38.92,.18-2.06h-10.87Z"/><path class="e" d="M320.54,204.11l.6-.51,.07-.78,.63-7.18,.18-2.06h-34.84l-.15,1.73-.79,8.98-.18,2.06h16.85c-3.09,3.78-5.52,7.4-7.27,10.81-2.23,4.35-4.07,9.79-5.48,16.17l-.51,2.31h14.57l.26-1.59c.72-4.33,1.71-8.13,2.95-11.28,1.58-4.07,3.59-7.8,5.97-11.1,1.96-2.7,4.36-5.24,7.13-7.57Z"/><polygon class="e" points="312.85 221.01 311.12 221.01 310.96 222.74 309.99 233.91 309.81 235.98 311.88 235.98 323.79 235.98 325.53 235.98 325.68 234.25 326.66 223.07 326.84 221.01 324.77 221.01 312.85 221.01"/></g><g><g><path class="e" d="M216.31,232.23l.66-7.5h-20.33l.93-10.61,22.97-24.73h11.25l-2.16,24.68h5.04l-.93,10.66h-5.04l-.66,7.5h-11.73Zm1.59-18.16l.77-8.84-8.29,8.84h7.52Z"/><path class="f" d="M230.7,190.39l-2.16,24.68h5.04l-.76,8.66h-5.04l-.66,7.51h-9.72l.66-7.51h-20.33l.8-9.18,22.44-24.16h9.72m-10.78,12.04l-11.85,12.64h10.74l1.1-12.64m12.96-14.04h-12.78l-.59,.64-22.44,24.16-.47,.5-.06,.68-.8,9.18-.19,2.17h20.33l-.47,5.33-.19,2.17h13.74l.16-1.83,.5-5.68h5.04l.16-1.83,.76-8.66,.19-2.17h-5.04l1.97-22.51,.19-2.17h0Zm-20.19,24.68l4.73-5.05-.44,5.05h-4.29Z"/></g><g><polygon class="e" points="231.93 232.92 246.25 189.39 254.05 189.39 239.67 232.92 231.93 232.92"/><path class="f" d="M252.67,190.39l-13.72,41.53h-5.64l13.66-41.53h5.69m2.77-2h-9.91l-.45,1.37-13.66,41.53-.86,2.63h9.85l.45-1.37,13.72-41.53,.87-2.63h0Z"/></g><g><path class="e" d="M325.9,232.23l.24-1.2c.7-3.44,2.21-6.71,4.49-9.73,2.25-2.98,6.32-6.53,12.07-10.53,3.39-2.36,5.59-4.16,6.55-5.34,.89-1.1,1.38-2.12,1.46-3.05,.08-.93-.18-1.7-.81-2.36-.64-.67-1.48-.99-2.57-.99-1.18,0-2.14,.35-2.94,1.08-.82,.75-1.47,2.17-1.93,4.22l-.19,.85-13.11-1.07,.25-1.12c.74-3.26,1.83-5.86,3.23-7.73,1.43-1.9,3.35-3.37,5.71-4.37,2.32-.99,5.47-1.49,9.35-1.49,4.1,0,7.19,.46,9.44,1.42,2.3,.98,4.07,2.5,5.26,4.54,1.19,2.03,1.68,4.32,1.46,6.82-.23,2.62-1.22,5.15-2.95,7.52-1.69,2.32-4.62,4.87-8.72,7.58-2.36,1.54-3.95,2.62-4.74,3.22-.25,.19-.52,.41-.81,.64h15.83l-.97,11.09h-35.61Z"/><path class="f" d="M347.71,190.39c3.93,0,6.94,.45,9.05,1.34,2.1,.89,3.7,2.27,4.79,4.12,1.09,1.85,1.53,3.93,1.33,6.23-.21,2.45-1.13,4.78-2.76,7.01-1.63,2.23-4.45,4.68-8.46,7.34-2.38,1.55-3.98,2.64-4.79,3.26-.81,.62-1.77,1.43-2.88,2.44h17.42l-.8,9.09h-33.47c.67-3.31,2.11-6.41,4.31-9.33,2.2-2.91,6.15-6.35,11.85-10.31,3.48-2.43,5.73-4.27,6.76-5.53,1.02-1.26,1.58-2.46,1.68-3.59,.11-1.22-.25-2.27-1.08-3.14-.83-.87-1.93-1.3-3.3-1.3s-2.63,.45-3.61,1.34c-.98,.89-1.73,2.47-2.24,4.74l-11.1-.9c.71-3.14,1.73-5.59,3.05-7.35s3.09-3.11,5.3-4.05c2.21-.94,5.19-1.41,8.96-1.41m0-2c-4.07,0-7.26,.51-9.74,1.57-2.53,1.07-4.58,2.65-6.11,4.69-1.49,1.98-2.63,4.71-3.4,8.11l-.51,2.25,2.3,.19,11.1,.9,1.73,.14,.38-1.7c.54-2.42,1.26-3.35,1.63-3.7,.62-.56,1.33-.82,2.26-.82,1.07,0,1.57,.39,1.85,.68,.43,.45,.59,.93,.54,1.58-.06,.72-.48,1.56-1.24,2.5-.62,.76-2.22,2.28-6.35,5.15-5.92,4.12-9.95,7.64-12.3,10.75-2.37,3.14-3.94,6.55-4.67,10.13l-.49,2.4h37.75l.16-1.83,.8-9.09,.19-2.17h-13.88c.8-.55,1.82-1.22,3.05-2.02,4.27-2.83,7.2-5.39,8.99-7.84,1.84-2.51,2.9-5.21,3.14-8.02,.24-2.71-.3-5.21-1.6-7.42-1.3-2.22-3.23-3.89-5.73-4.95-2.38-1.01-5.59-1.5-9.83-1.5h0Z"/></g><g><path class="e" d="M381.96,232.92c-3.82,0-6.74-.45-8.92-1.37-2.19-.92-3.97-2.3-5.29-4.1-1.3-1.76-2.23-3.99-2.76-6.62l-.21-1.05,13.36-1.75,.11,1.02c.27,2.5,.88,3.6,1.35,4.08,.66,.67,1.54,1,2.69,1,1.23,0,2.27-.44,3.17-1.35,.93-.93,1.45-2.16,1.59-3.76,.14-1.58-.14-2.79-.83-3.59-.68-.79-1.66-1.18-3.01-1.18-.78,0-1.93,.21-3.4,.62l-1.5,.42,1.67-10.49,.98,.15c.69,.1,1.08,.13,1.29,.13,1.22,0,2.24-.38,3.12-1.15,.87-.76,1.33-1.63,1.42-2.65,.08-.94-.11-1.65-.58-2.17-.47-.52-1.18-.77-2.18-.77-1.07,0-1.94,.31-2.64,.94-.73,.65-1.31,1.88-1.73,3.66l-.22,.93-12.46-2.27,.38-1.1c1.24-3.55,3.29-6.32,6.11-8.22,2.8-1.9,6.63-2.86,11.38-2.86,5.55,0,9.4,1.04,11.78,3.19,2.4,2.17,3.47,4.92,3.19,8.2-.17,1.92-.85,3.67-2.04,5.23-.78,1.02-1.78,1.96-3.01,2.8,.62,.24,1.14,.51,1.58,.8,1.41,.92,2.48,2.15,3.18,3.66,.69,1.5,.96,3.29,.78,5.32-.22,2.49-1.09,4.91-2.58,7.19-1.51,2.29-3.56,4.08-6.12,5.31-2.53,1.22-5.78,1.84-9.65,1.84Z"/><path class="f" d="M384.85,190.39c5.24,0,8.94,.98,11.11,2.93,2.17,1.95,3.12,4.41,2.86,7.37-.15,1.73-.76,3.3-1.84,4.71-1.07,1.41-2.61,2.64-4.62,3.7,1.52,.38,2.67,.83,3.44,1.34,1.26,.82,2.2,1.9,2.82,3.25,.62,1.34,.85,2.94,.69,4.81-.2,2.34-1.01,4.58-2.42,6.72-1.41,2.15-3.32,3.8-5.72,4.96-2.4,1.16-5.48,1.74-9.22,1.74s-6.5-.43-8.53-1.29c-2.03-.86-3.66-2.11-4.88-3.77-1.22-1.65-2.08-3.73-2.59-6.23l11.28-1.48c.24,2.25,.79,3.8,1.63,4.67,.85,.87,1.98,1.3,3.41,1.3,1.5,0,2.79-.55,3.88-1.64,1.09-1.1,1.72-2.56,1.88-4.38,.16-1.86-.19-3.31-1.06-4.33-.87-1.02-2.13-1.53-3.77-1.53-.88,0-2.1,.22-3.67,.66l1.27-7.97c.61,.09,1.09,.14,1.44,.14,1.46,0,2.72-.47,3.78-1.4,1.06-.93,1.64-2.04,1.76-3.31,.11-1.22-.17-2.2-.84-2.93-.67-.73-1.64-1.09-2.92-1.09s-2.42,.4-3.31,1.19-1.57,2.19-2.04,4.18l-10.38-1.89c1.17-3.36,3.08-5.93,5.73-7.72,2.65-1.79,6.26-2.68,10.82-2.68m0-2c-4.95,0-8.97,1.02-11.94,3.03-3,2.03-5.19,4.96-6.5,8.72l-.77,2.21,2.3,.42,10.38,1.89,.64,.12-.13,.83-1.27,7.97-.49,3.08,3-.84c1.73-.48,2.66-.58,3.14-.58,1.38,0,1.94,.47,2.25,.83,.51,.59,.7,1.56,.59,2.86-.12,1.36-.54,2.39-1.3,3.14-.72,.72-1.5,1.06-2.47,1.06-1.16,0-1.68-.4-1.98-.7-.24-.24-.81-1.07-1.07-3.49l-.22-2.04-2.03,.27-11.28,1.48-2.13,.28,.43,2.1c.57,2.78,1.56,5.14,2.94,7.02,1.43,1.94,3.35,3.43,5.71,4.42,2.31,.97,5.35,1.44,9.31,1.44s7.42-.65,10.09-1.94c2.72-1.31,4.92-3.22,6.52-5.66,1.59-2.42,2.51-4.99,2.74-7.65,.19-2.21-.1-4.16-.87-5.82-.78-1.68-1.97-3.05-3.55-4.08-.08-.05-.15-.1-.23-.15,.73-.63,1.37-1.3,1.91-2,1.3-1.71,2.05-3.64,2.24-5.75,.32-3.6-.87-6.64-3.51-9.03-2.57-2.32-6.65-3.45-12.45-3.45h0Zm-4.39,15.46l.16-.7c.48-2.06,1.1-2.85,1.42-3.14,.52-.47,1.15-.68,1.98-.68,1.03,0,1.34,.33,1.44,.44,.17,.19,.4,.55,.32,1.41-.07,.76-.41,1.4-1.08,1.99-.7,.61-1.48,.9-2.46,.9-.14,0-.47-.01-1.14-.11l-.64-.1h0Z"/></g><g><polygon class="e" points="402.79 232.23 403.94 219.06 417.86 219.06 416.71 232.23 402.79 232.23"/><path class="f" d="M416.77,220.06l-.98,11.18h-11.91l.98-11.18h11.91m2.18-2h-15.93l-.16,1.83-.98,11.18-.19,2.17h15.93l.16-1.83,.98-11.18,.19-2.17h0Z"/></g><g><path class="e" d="M419.42,232.23l.24-1.2c.7-3.44,2.21-6.71,4.49-9.73,2.25-2.98,6.31-6.53,12.07-10.53,3.39-2.36,5.59-4.16,6.55-5.34,.89-1.1,1.38-2.12,1.46-3.05,.08-.93-.18-1.7-.81-2.36-.64-.67-1.48-.99-2.57-.99-1.18,0-2.14,.35-2.94,1.08-.82,.75-1.47,2.17-1.93,4.22l-.19,.85-13.11-1.07,.25-1.12c.74-3.26,1.83-5.86,3.23-7.73,1.42-1.9,3.34-3.37,5.71-4.37,2.32-.99,5.47-1.49,9.35-1.49,4.1,0,7.19,.46,9.44,1.42,2.3,.98,4.07,2.5,5.26,4.54,1.19,2.03,1.68,4.32,1.47,6.82-.23,2.62-1.22,5.15-2.95,7.52-1.69,2.32-4.63,4.87-8.72,7.58-2.36,1.54-3.95,2.62-4.74,3.22-.25,.19-.52,.41-.81,.64h15.83l-.97,11.09h-35.61Z"/><path class="f" d="M441.23,190.39c3.93,0,6.94,.45,9.05,1.34,2.1,.89,3.7,2.27,4.79,4.12,1.09,1.85,1.53,3.93,1.33,6.23-.21,2.45-1.13,4.78-2.76,7.01-1.63,2.23-4.45,4.68-8.46,7.34-2.38,1.55-3.98,2.64-4.79,3.26-.81,.62-1.77,1.43-2.88,2.44h17.42l-.8,9.09h-33.47c.67-3.31,2.11-6.41,4.31-9.33,2.2-2.91,6.15-6.35,11.85-10.31,3.48-2.43,5.73-4.27,6.76-5.53,1.02-1.26,1.58-2.46,1.68-3.59,.11-1.22-.25-2.27-1.08-3.14-.83-.87-1.93-1.3-3.3-1.3s-2.63,.45-3.61,1.34c-.98,.89-1.73,2.47-2.24,4.74l-11.1-.9c.71-3.14,1.73-5.59,3.05-7.35s3.09-3.11,5.3-4.05c2.21-.94,5.19-1.41,8.96-1.41m0-2c-4.07,0-7.26,.51-9.74,1.57-2.53,1.07-4.58,2.65-6.12,4.69-1.49,1.98-2.63,4.71-3.4,8.11l-.51,2.25,2.3,.19,11.1,.9,1.73,.14,.38-1.7c.54-2.42,1.26-3.35,1.63-3.7,.62-.56,1.33-.82,2.26-.82,1.07,0,1.57,.39,1.85,.68,.43,.45,.59,.93,.54,1.58-.06,.72-.48,1.56-1.24,2.5-.62,.76-2.22,2.28-6.35,5.15-5.92,4.12-9.95,7.64-12.3,10.75-2.37,3.14-3.94,6.55-4.67,10.13l-.49,2.4h37.75l.16-1.83,.8-9.09,.19-2.17h-13.88c.8-.55,1.82-1.22,3.05-2.02,4.27-2.83,7.2-5.39,8.99-7.84,1.84-2.51,2.9-5.21,3.14-8.02,.24-2.71-.3-5.21-1.6-7.42-1.3-2.22-3.23-3.89-5.73-4.95-2.38-1.01-5.59-1.5-9.83-1.5h0Z"/></g><g><path class="e" d="M476.96,232.23l.66-7.5h-20.33l.93-10.61,22.97-24.73h11.25l-2.16,24.68h5.04l-.93,10.66h-5.04l-.66,7.5h-11.73Zm1.59-18.16l.77-8.84-8.29,8.84h7.52Z"/><path class="f" d="M491.35,190.39l-2.16,24.68h5.04l-.76,8.66h-5.04l-.66,7.51h-9.72l.66-7.51h-20.33l.8-9.18,22.44-24.16h9.72m-10.78,12.04l-11.85,12.64h10.74l1.1-12.64m12.96-14.04h-12.78l-.59,.64-22.44,24.16-.47,.5-.06,.68-.8,9.18-.19,2.17h20.33l-.47,5.33-.19,2.17h13.74l.16-1.83,.5-5.68h5.04l.16-1.83,.76-8.66,.19-2.17h-5.04l1.97-22.51,.19-2.17h0Zm-20.19,24.68l4.73-5.05-.44,5.05h-4.29Z"/></g><g><g><path class="e" d="M264.47,231.9l2.14-24.49c-1.28,.82-2.53,1.53-3.72,2.1-1.73,.84-3.91,1.65-6.47,2.41l-1.41,.42,.95-10.85,.64-.2c3.59-1.13,6.45-2.49,8.49-4.04,2.02-1.54,3.69-3.48,4.96-5.75l.29-.51h10.48l-3.58,40.92h-12.76Z"/><path class="f" d="M279.72,191.98l-3.4,38.92h-10.75l2.23-25.5c-1.86,1.32-3.63,2.39-5.33,3.21-1.7,.82-3.81,1.6-6.33,2.35l.76-8.72c3.72-1.17,6.65-2.57,8.8-4.2,2.14-1.64,3.89-3.65,5.23-6.06h8.8m2.18-2h-12.15l-.57,1.02c-1.2,2.15-2.78,3.98-4.7,5.44-1.95,1.49-4.7,2.79-8.18,3.88l-1.28,.4-.12,1.33-.76,8.72-.26,2.93,2.82-.84c2.61-.78,4.84-1.61,6.63-2.47,.69-.33,1.4-.71,2.12-1.12l-1.88,21.43-.19,2.17h14.77l.16-1.83,3.4-38.92,.19-2.17h0Z"/></g><g><path class="e" d="M287.92,231.9l.27-1.22c1.39-6.3,3.21-11.67,5.4-15.95,1.94-3.79,4.75-7.86,8.39-12.12h-17.79l.96-10.98h33.04l-.76,8.68-.32,.27c-2.83,2.37-5.29,4.97-7.29,7.73-2.43,3.36-4.48,7.16-6.08,11.29-1.27,3.21-2.28,7.07-3,11.47l-.14,.84h-12.69Z"/><path class="f" d="M317.1,192.64l-.63,7.18c-2.91,2.44-5.39,5.07-7.45,7.91-2.49,3.45-4.56,7.28-6.2,11.51-1.3,3.29-2.32,7.18-3.06,11.67h-10.6c1.38-6.25,3.15-11.48,5.32-15.71,2.16-4.23,5.39-8.75,9.7-13.57h-18.9l.79-8.98h31.04m2.18-2h-35.05l-.16,1.83-.79,8.98-.19,2.17h16.75c-3.03,3.72-5.42,7.3-7.14,10.66-2.23,4.36-4.08,9.81-5.49,16.19l-.54,2.43h14.79l.28-1.67c.71-4.33,1.7-8.12,2.94-11.26,1.57-4.06,3.58-7.78,5.96-11.07,1.95-2.69,4.35-5.23,7.12-7.55l.64-.53,.07-.83,.63-7.18,.19-2.17h0Z"/></g></g><g><polygon class="e" points="307.94 232.23 309.09 219.06 323.01 219.06 321.86 232.23 307.94 232.23"/><path class="f" d="M321.92,220.06l-.98,11.18h-11.91l.98-11.18h11.91m2.18-2h-15.93l-.16,1.83-.98,11.18-.19,2.17h15.93l.16-1.83,.98-11.18,.19-2.17h0Z"/></g></g></g></g></g></svg>