<?xml version="1.0" standalone="no"?>
<!DOCTYPE svg PUBLIC "-//W3C//DTD SVG 20010904//EN"
 "http://www.w3.org/TR/2001/REC-SVG-20010904/DTD/svg10.dtd">
<svg version="1.0" xmlns="http://www.w3.org/2000/svg"
 width="512.000000pt" height="512.000000pt" viewBox="0 0 512.000000 512.000000"
 preserveAspectRatio="xMidYMid meet">
<metadata>
Created by potrace 1.14, written by Peter Selinger 2001-2017
</metadata>
<g transform="translate(0.000000,512.000000) scale(0.100000,-0.100000)"
fill="#000000" stroke="none">
<path d="M2305 5109 c-38 -4 -87 -10 -107 -13 -21 -3 -55 -8 -75 -12 -74 -10
-279 -63 -368 -94 -49 -17 -94 -32 -100 -34 -46 -14 -168 -69 -275 -124 -123
-63 -320 -192 -437 -287 -218 -176 -464 -464 -604 -708 -126 -220 -240 -516
-285 -742 -2 -11 -6 -31 -9 -45 -57 -287 -58 -669 -1 -968 96 -505 343 -970
710 -1334 327 -325 726 -554 1167 -669 80 -20 87 -22 184 -40 147 -27 239 -34
455 -34 184 0 286 6 375 20 342 57 636 160 898 314 43 25 85 51 95 56 113 66
321 234 447 361 337 340 577 773 682 1229 45 199 58 334 58 600 -1 224 -11
326 -47 490 -11 50 -21 99 -24 110 -8 42 -56 193 -90 284 -141 379 -420 777
-719 1026 -33 28 -62 52 -65 55 -37 41 -285 206 -410 273 -172 92 -403 181
-580 223 -99 23 -233 47 -324 58 -119 14 -435 17 -551 5z"/>
</g>
</svg>
